<svg xmlns="http://www.w3.org/2000/svg" xmlns:xlink="http://www.w3.org/1999/xlink" contentStyleType="text/css" data-diagram-type="CLASS" height="873px" preserveAspectRatio="none" style="width:1202px;height:873px;background:#FFFFFF;" version="1.1" viewBox="0 0 1202 873" width="1202px" zoomAndPan="magnify"><defs/><g><!--class Mundo--><g id="elem_Mundo"><rect codeLine="6" fill="#F1F1F1" height="50.5938" id="Mundo" rx="2.5" ry="2.5" style="stroke:#181818;stroke-width:0.5;" width="138.376" x="7" y="142.09"/><text fill="#000000" font-family="sans-serif" font-size="14" lengthAdjust="spacing" textLength="47.2773" x="52.5493" y="160.0851">Mundo</text><line style="stroke:#181818;stroke-width:0.5;" x1="8" x2="144.376" y1="168.3869" y2="168.3869"/><ellipse cx="18" cy="182.0353" fill="transparent" rx="3" ry="3" style="stroke:#038048;stroke-width:1;"/><text fill="#000000" font-family="sans-serif" font-size="14" lengthAdjust="spacing" textLength="112.376" x="27" y="185.382">horario: "12:40"</text></g><!--class Universidad--><g id="elem_Universidad"><rect codeLine="10" fill="#F1F1F1" height="50.5938" id="Universidad" rx="2.5" ry="2.5" style="stroke:#181818;stroke-width:0.5;" width="137.542" x="235" y="367.09"/><text fill="#000000" font-family="sans-serif" font-size="14" lengthAdjust="spacing" textLength="83.2002" x="262.1709" y="385.0851">Universidad</text><line style="stroke:#181818;stroke-width:0.5;" x1="236" x2="371.542" y1="393.3869" y2="393.3869"/><ellipse cx="246" cy="407.0353" fill="transparent" rx="3" ry="3" style="stroke:#038048;stroke-width:1;"/><text fill="#000000" font-family="sans-serif" font-size="14" lengthAdjust="spacing" textLength="111.542" x="255" y="410.382">capacidad: "30"</text></g><!--class Persona1--><g id="elem_Persona1"><rect codeLine="14" fill="#F1F1F1" height="66.8906" id="Persona1" rx="2.5" ry="2.5" style="stroke:#181818;stroke-width:0.5;" width="135.6621" x="479" y="107.09"/><text fill="#000000" font-family="sans-serif" font-size="14" lengthAdjust="spacing" textLength="65.0303" x="514.3159" y="125.0851">Persona1</text><line style="stroke:#181818;stroke-width:0.5;" x1="480" x2="613.6621" y1="133.3869" y2="133.3869"/><ellipse cx="490" cy="147.0353" fill="transparent" rx="3" ry="3" style="stroke:#038048;stroke-width:1;"/><text fill="#000000" font-family="sans-serif" font-size="14" lengthAdjust="spacing" textLength="109.6621" x="499" y="150.382">nombre: "Paco"</text><ellipse cx="490" cy="163.3322" fill="transparent" rx="3" ry="3" style="stroke:#038048;stroke-width:1;"/><text fill="#000000" font-family="sans-serif" font-size="14" lengthAdjust="spacing" textLength="82.8242" x="499" y="166.6789">deseaIr: "2"</text></g><!--class Persona2--><g id="elem_Persona2"><rect codeLine="19" fill="#F1F1F1" height="66.8906" id="Persona2" rx="2.5" ry="2.5" style="stroke:#181818;stroke-width:0.5;" width="141.9648" x="476" y="693.09"/><text fill="#000000" font-family="sans-serif" font-size="14" lengthAdjust="spacing" textLength="65.0303" x="514.4673" y="711.0851">Persona2</text><line style="stroke:#181818;stroke-width:0.5;" x1="477" x2="616.9648" y1="719.3869" y2="719.3869"/><ellipse cx="487" cy="733.0353" fill="transparent" rx="3" ry="3" style="stroke:#038048;stroke-width:1;"/><text fill="#000000" font-family="sans-serif" font-size="14" lengthAdjust="spacing" textLength="115.9648" x="496" y="736.382">nombre: "Laura"</text><ellipse cx="487" cy="749.3322" fill="transparent" rx="3" ry="3" style="stroke:#038048;stroke-width:1;"/><text fill="#000000" font-family="sans-serif" font-size="14" lengthAdjust="spacing" textLength="82.8242" x="496" y="752.6789">deseaIr: "1"</text></g><!--class Persona3--><g id="elem_Persona3"><rect codeLine="24" fill="#F1F1F1" height="66.8906" id="Persona3" rx="2.5" ry="2.5" style="stroke:#181818;stroke-width:0.5;" width="146.2373" x="474" y="304.09"/><text fill="#000000" font-family="sans-serif" font-size="14" lengthAdjust="spacing" textLength="65.0303" x="514.6035" y="322.0851">Persona3</text><line style="stroke:#181818;stroke-width:0.5;" x1="475" x2="619.2373" y1="330.3869" y2="330.3869"/><ellipse cx="485" cy="344.0353" fill="transparent" rx="3" ry="3" style="stroke:#038048;stroke-width:1;"/><text fill="#000000" font-family="sans-serif" font-size="14" lengthAdjust="spacing" textLength="120.2373" x="494" y="347.382">nombre: "Carlos"</text><ellipse cx="485" cy="360.3322" fill="transparent" rx="3" ry="3" style="stroke:#038048;stroke-width:1;"/><text fill="#000000" font-family="sans-serif" font-size="14" lengthAdjust="spacing" textLength="82.8242" x="494" y="363.6789">deseaIr: "3"</text></g><!--class Ascensor1--><g id="elem_Ascensor1"><rect codeLine="29" fill="#F1F1F1" height="83.1875" id="Ascensor1" rx="2.5" ry="2.5" style="stroke:#181818;stroke-width:0.5;" width="213.0244" x="742.5" y="357.09"/><text fill="#000000" font-family="sans-serif" font-size="14" lengthAdjust="spacing" textLength="72.5771" x="812.7236" y="375.0851">Ascensor1</text><line style="stroke:#181818;stroke-width:0.5;" x1="743.5" x2="954.5244" y1="383.3869" y2="383.3869"/><ellipse cx="753.5" cy="397.0353" fill="transparent" rx="3" ry="3" style="stroke:#038048;stroke-width:1;"/><text fill="#000000" font-family="sans-serif" font-size="14" lengthAdjust="spacing" textLength="102.6348" x="762.5" y="400.382">capacidad: "3"</text><ellipse cx="753.5" cy="413.3322" fill="transparent" rx="3" ry="3" style="stroke:#038048;stroke-width:1;"/><text fill="#000000" font-family="sans-serif" font-size="14" lengthAdjust="spacing" textLength="124.4072" x="762.5" y="416.6789">plantaActual: "-1"</text><ellipse cx="753.5" cy="429.6291" fill="transparent" rx="3" ry="3" style="stroke:#038048;stroke-width:1;"/><text fill="#000000" font-family="sans-serif" font-size="14" lengthAdjust="spacing" textLength="187.0244" x="762.5" y="432.9757">movimiento: "ascendente"</text></g><!--class Ascensor2--><g id="elem_Ascensor2"><rect codeLine="35" fill="#F1F1F1" height="83.1875" id="Ascensor2" rx="2.5" ry="2.5" style="stroke:#181818;stroke-width:0.5;" width="221.9453" x="738" y="499.09"/><text fill="#000000" font-family="sans-serif" font-size="14" lengthAdjust="spacing" textLength="72.5771" x="812.6841" y="517.0851">Ascensor2</text><line style="stroke:#181818;stroke-width:0.5;" x1="739" x2="958.9453" y1="525.3869" y2="525.3869"/><ellipse cx="749" cy="539.0353" fill="transparent" rx="3" ry="3" style="stroke:#038048;stroke-width:1;"/><text fill="#000000" font-family="sans-serif" font-size="14" lengthAdjust="spacing" textLength="102.6348" x="758" y="542.382">capacidad: "2"</text><ellipse cx="749" cy="555.3322" fill="transparent" rx="3" ry="3" style="stroke:#038048;stroke-width:1;"/><text fill="#000000" font-family="sans-serif" font-size="14" lengthAdjust="spacing" textLength="119.3555" x="758" y="558.6789">plantaActual: "0"</text><ellipse cx="749" cy="571.6291" fill="transparent" rx="3" ry="3" style="stroke:#038048;stroke-width:1;"/><text fill="#000000" font-family="sans-serif" font-size="14" lengthAdjust="spacing" textLength="195.9453" x="758" y="574.9757">movimiento: "descendente"</text></g><!--class Planta0--><g id="elem_Planta0"><rect codeLine="41" fill="#F1F1F1" height="50.5938" id="Planta0" rx="2.5" ry="2.5" style="stroke:#181818;stroke-width:0.5;" width="111.2715" x="1084" y="115.09"/><text fill="#000000" font-family="sans-serif" font-size="14" lengthAdjust="spacing" textLength="52.7598" x="1113.2559" y="133.0851">Planta0</text><line style="stroke:#181818;stroke-width:0.5;" x1="1085" x2="1194.2715" y1="141.3869" y2="141.3869"/><ellipse cx="1095" cy="155.0353" fill="transparent" rx="3" ry="3" style="stroke:#038048;stroke-width:1;"/><text fill="#000000" font-family="sans-serif" font-size="14" lengthAdjust="spacing" textLength="85.2715" x="1104" y="158.382">numero: "0"</text></g><!--class Planta1--><g id="elem_Planta1"><rect codeLine="45" fill="#F1F1F1" height="50.5938" id="Planta1" rx="2.5" ry="2.5" style="stroke:#181818;stroke-width:0.5;" width="111.2715" x="1084" y="680.09"/><text fill="#000000" font-family="sans-serif" font-size="14" lengthAdjust="spacing" textLength="52.7598" x="1113.2559" y="698.0851">Planta1</text><line style="stroke:#181818;stroke-width:0.5;" x1="1085" x2="1194.2715" y1="706.3869" y2="706.3869"/><ellipse cx="1095" cy="720.0353" fill="transparent" rx="3" ry="3" style="stroke:#038048;stroke-width:1;"/><text fill="#000000" font-family="sans-serif" font-size="14" lengthAdjust="spacing" textLength="85.2715" x="1104" y="723.382">numero: "1"</text></g><!--class Planta2--><g id="elem_Planta2"><rect codeLine="49" fill="#F1F1F1" height="50.5938" id="Planta2" rx="2.5" ry="2.5" style="stroke:#181818;stroke-width:0.5;" width="111.2715" x="1084" y="254.09"/><text fill="#000000" font-family="sans-serif" font-size="14" lengthAdjust="spacing" textLength="52.7598" x="1113.2559" y="272.0851">Planta2</text><line style="stroke:#181818;stroke-width:0.5;" x1="1085" x2="1194.2715" y1="280.3869" y2="280.3869"/><ellipse cx="1095" cy="294.0353" fill="transparent" rx="3" ry="3" style="stroke:#038048;stroke-width:1;"/><text fill="#000000" font-family="sans-serif" font-size="14" lengthAdjust="spacing" textLength="85.2715" x="1104" y="297.382">numero: "2"</text></g><!--class Planta3--><g id="elem_Planta3"><rect codeLine="53" fill="#F1F1F1" height="50.5938" id="Planta3" rx="2.5" ry="2.5" style="stroke:#181818;stroke-width:0.5;" width="111.2715" x="1084" y="559.09"/><text fill="#000000" font-family="sans-serif" font-size="14" lengthAdjust="spacing" textLength="52.7598" x="1113.2559" y="577.0851">Planta3</text><line style="stroke:#181818;stroke-width:0.5;" x1="1085" x2="1194.2715" y1="585.3869" y2="585.3869"/><ellipse cx="1095" cy="599.0353" fill="transparent" rx="3" ry="3" style="stroke:#038048;stroke-width:1;"/><text fill="#000000" font-family="sans-serif" font-size="14" lengthAdjust="spacing" textLength="85.2715" x="1104" y="602.382">numero: "3"</text></g><!--reverse link Mundo to Universidad--><g id="link_Mundo_Universidad"><path codeLine="57" d="M111.4338,201.8667 C155.0238,245.2667 233.99,323.88 277.38,367.08 " fill="transparent" id="Mundo-backto-Universidad" style="stroke:#181818;stroke-width:1;"/><polygon fill="#181818" points="102.93,193.4,104.3597,200.468,111.4338,201.8667,110.0041,194.7988,102.93,193.4" style="stroke:#181818;stroke-width:1;"/><text fill="#000000" font-family="sans-serif" font-size="13" lengthAdjust="spacing" textLength="28.4565" x="176" y="262.6569">crea</text></g><!--reverse link Mundo to Persona1--><g id="link_Mundo_Persona1"><path codeLine="58" d="M115.9153,134.4338 C134.2653,120.1338 149.68,111.12 175,103.59 C289.59,69.48 326.25,82.89 444,103.59 C455.5,105.61 467.42,108.82 478.87,112.53 " fill="transparent" id="Mundo-backto-Persona1" style="stroke:#181818;stroke-width:1;"/><polygon fill="#181818" points="106.45,141.81,113.6414,141.277,115.9153,134.4338,108.7239,134.9668,106.45,141.81" style="stroke:#181818;stroke-width:1;"/><text fill="#000000" font-family="sans-serif" font-size="13" lengthAdjust="spacing" textLength="45.7983" x="281.5" y="78.6569">genera</text></g><!--reverse link Mundo to Persona2--><g id="link_Mundo_Persona2"><path codeLine="59" d="M86.9197,204.8828 C111.6497,293.9728 203.56,579.09 403,705.59 C424.4,719.16 451.18,725.29 475.75,727.74 " fill="transparent" id="Mundo-backto-Persona2" style="stroke:#181818;stroke-width:1;"/><polygon fill="#181818" points="83.71,193.32,81.4606,200.1713,86.9197,204.8828,89.1691,198.0315,83.71,193.32" style="stroke:#181818;stroke-width:1;"/><text fill="#000000" font-family="sans-serif" font-size="13" lengthAdjust="spacing" textLength="45.7983" x="281.5" y="534.6569">genera</text></g><!--reverse link Mundo to Persona3--><g id="link_Mundo_Persona3"><path codeLine="60" d="M156.7875,141.7273 C234.7575,120.2073 351.87,101.61 444,155.59 C458.34,163.99 504.53,253.86 529.54,304.08 " fill="transparent" id="Mundo-backto-Persona3" style="stroke:#181818;stroke-width:1;"/><polygon fill="#181818" points="145.22,144.92,152.068,147.1795,156.7875,141.7273,149.9395,139.4678,145.22,144.92" style="stroke:#181818;stroke-width:1;"/><text fill="#000000" font-family="sans-serif" font-size="13" lengthAdjust="spacing" textLength="45.7983" x="281.5" y="117.6569">genera</text></g><!--reverse link Universidad to Planta0--><g id="link_Universidad_Planta0"><path codeLine="62" d="M310.7907,354.8514 C321.8607,290.0514 359.08,134.75 474,89.59 C686.68,6 966.7,81.74 1083.58,120.72 " fill="transparent" id="Universidad-backto-Planta0" style="stroke:#181818;stroke-width:1;"/><polygon fill="#181818" points="308.77,366.68,313.7232,361.4393,310.7907,354.8514,305.8375,360.0921,308.77,366.68" style="stroke:#181818;stroke-width:1;"/><text fill="#000000" font-family="sans-serif" font-size="13" lengthAdjust="spacing" textLength="56.2847" x="651" y="47.6569">contiene</text></g><!--reverse link Universidad to Planta1--><g id="link_Universidad_Planta1"><path codeLine="63" d="M329.6398,428.2056 C345.3498,451.8556 360.85,478.52 373,513.59 C414.12,632.29 358.1,729.11 474,777.59 C685.69,866.14 966.84,774.92 1083.83,728.83 " fill="transparent" id="Universidad-backto-Planta1" style="stroke:#181818;stroke-width:1;"/><polygon fill="#181818" points="323,418.21,322.988,425.4211,329.6398,428.2056,329.6518,420.9946,323,418.21" style="stroke:#181818;stroke-width:1;"/><text fill="#000000" font-family="sans-serif" font-size="13" lengthAdjust="spacing" textLength="56.2847" x="651" y="809.6569">contiene</text></g><!--reverse link Universidad to Planta2--><g id="link_Universidad_Planta2"><path codeLine="64" d="M346.859,359.7654 C379.449,335.2454 422.6,306.36 474,286.59 C714.85,193.93 797.86,228.19 1054,259.59 C1063.73,260.78 1073.96,262.66 1083.82,264.79 " fill="transparent" id="Universidad-backto-Planta2" style="stroke:#181818;stroke-width:1;"/><polygon fill="#181818" points="337.27,366.98,344.4694,366.5691,346.859,359.7654,339.6597,360.1764,337.27,366.98" style="stroke:#181818;stroke-width:1;"/><text fill="#000000" font-family="sans-serif" font-size="13" lengthAdjust="spacing" textLength="56.2847" x="651" y="223.6569">contiene</text></g><!--reverse link Universidad to Planta3--><g id="link_Universidad_Planta3"><path codeLine="65" d="M357.7486,424.3751 C462.2386,485.7151 732,631.85 990,664.59 C1018.22,668.17 1027.57,675.11 1054,664.59 C1081.4,653.67 1105.03,629.19 1120.28,610.16 " fill="transparent" id="Universidad-backto-Planta3" style="stroke:#181818;stroke-width:1;"/><polygon fill="#181818" points="347.4,418.3,350.5493,424.7871,357.7486,424.3751,354.5993,417.888,347.4,418.3" style="stroke:#181818;stroke-width:1;"/><text fill="#000000" font-family="sans-serif" font-size="13" lengthAdjust="spacing" textLength="56.2847" x="651" y="566.6569">contiene</text></g><!--reverse link Universidad to Persona1--><g id="link_Universidad_Persona1"><path codeLine="66" d="M316.5988,355.7005 C329.5788,316.9205 355.24,254.22 403,208.59 C424.27,188.27 452.74,173.05 478.68,162.23 " fill="transparent" id="Universidad-backto-Persona1" style="stroke:#181818;stroke-width:1;"/><polygon fill="transparent" points="312.79,367.08,318.4876,362.6599,316.5988,355.7005,310.9012,360.1206,312.79,367.08" style="stroke:#181818;stroke-width:1;"/><text fill="#000000" font-family="sans-serif" font-size="13" lengthAdjust="spacing" textLength="39.3174" x="404" y="176.6569">acoge</text></g><!--reverse link Universidad to Persona2--><g id="link_Universidad_Persona2"><path codeLine="67" d="M308.4888,430.2084 C314.3588,483.7084 333.75,596.21 403,668.59 C422.45,688.91 450,702.32 475.73,711.07 " fill="transparent" id="Universidad-backto-Persona2" style="stroke:#181818;stroke-width:1;"/><polygon fill="transparent" points="307.18,418.28,303.8583,424.6805,308.4888,430.2084,311.8105,423.8079,307.18,418.28" style="stroke:#181818;stroke-width:1;"/><text fill="#000000" font-family="sans-serif" font-size="13" lengthAdjust="spacing" textLength="39.3174" x="404" y="664.6569">acoge</text></g><!--reverse link Universidad to Persona3--><g id="link_Universidad_Persona3"><path codeLine="68" d="M384.7892,374.3799 C416.2492,367.1999 441.93,361.34 473.87,354.05 " fill="transparent" id="Universidad-backto-Persona3" style="stroke:#181818;stroke-width:1;"/><polygon fill="transparent" points="373.09,377.05,379.8296,379.6147,384.7892,374.3799,378.0496,371.8152,373.09,377.05" style="stroke:#181818;stroke-width:1;"/><text fill="#000000" font-family="sans-serif" font-size="13" lengthAdjust="spacing" textLength="39.3174" x="404" y="357.6569">acoge</text></g><!--reverse link Universidad to Ascensor1--><g id="link_Universidad_Ascensor1"><path codeLine="69" d="M385.1374,400.0404 C415.9074,402.6404 440.77,404.31 474,405.59 C564.53,409.06 667.45,406.67 742.38,403.78 " fill="transparent" id="Universidad-backto-Ascensor1" style="stroke:#181818;stroke-width:1;"/><polygon fill="#181818" points="373.18,399.03,378.8219,403.521,385.1374,400.0404,379.4955,395.5494,373.18,399.03" style="stroke:#181818;stroke-width:1;"/><text fill="#000000" font-family="sans-serif" font-size="13" lengthAdjust="spacing" textLength="38.9746" x="528" y="401.6569">posee</text></g><!--reverse link Universidad to Ascensor2--><g id="link_Universidad_Ascensor2"><path codeLine="70" d="M384.7977,414.3355 C476.3777,439.2955 628.57,480.78 737.76,510.54 " fill="transparent" id="Universidad-backto-Ascensor2" style="stroke:#181818;stroke-width:1;"/><polygon fill="#181818" points="373.22,411.18,377.957,416.617,384.7977,414.3355,380.0607,408.8985,373.22,411.18" style="stroke:#181818;stroke-width:1;"/><text fill="#000000" font-family="sans-serif" font-size="13" lengthAdjust="spacing" textLength="38.9746" x="528" y="435.6569">posee</text></g><!--link Ascensor1 to Planta0--><g id="link_Ascensor1_Planta0"><path codeLine="72" d="M924.99,356.96 C937.29,348.65 949.44,339.42 960,329.59 C976.53,314.2 975.29,305.72 990,288.59 C1029.12,243.02 1079.5,194.71 1110.38,166.12 " fill="transparent" id="Ascensor1-Planta0" style="stroke:#181818;stroke-width:1;"/><text fill="#000000" font-family="sans-serif" font-size="13" lengthAdjust="spacing" textLength="62.9688" x="991" y="216.6569">comunica</text></g><!--link Ascensor1 to Planta1--><g id="link_Ascensor1_Planta1"><path codeLine="73" d="M955.66,415.78 C997.91,424.78 1039.91,437.18 1054,452.59 C1107.26,510.81 1054.01,554.59 1084,627.59 C1091.78,646.53 1104.81,665.43 1116.18,679.87 " fill="transparent" id="Ascensor1-Planta1" style="stroke:#181818;stroke-width:1;"/><text fill="#000000" font-family="sans-serif" font-size="13" lengthAdjust="spacing" textLength="62.9688" x="991" y="419.6569">comunica</text></g><!--link Ascensor1 to Planta2--><g id="link_Ascensor1_Planta2"><path codeLine="74" d="M946.26,356.93 C960.88,350.72 975.82,344.44 990,338.59 C1020.9,325.83 1055.61,312.01 1083.7,300.96 " fill="transparent" id="Ascensor1-Planta2" style="stroke:#181818;stroke-width:1;"/><text fill="#000000" font-family="sans-serif" font-size="13" lengthAdjust="spacing" textLength="62.9688" x="991" y="309.6569">comunica</text></g><!--link Ascensor1 to Planta3--><g id="link_Ascensor1_Planta3"><path codeLine="75" d="M955.75,374.87 C989.46,372.86 1025.39,377.04 1054,395.59 C1110.4,432.15 1129.49,516.14 1135.68,558.77 " fill="transparent" id="Ascensor1-Planta3" style="stroke:#181818;stroke-width:1;"/><text fill="#000000" font-family="sans-serif" font-size="13" lengthAdjust="spacing" textLength="62.9688" x="991" y="370.6569">comunica</text></g><!--link Ascensor2 to Planta0--><g id="link_Ascensor2_Planta0"><path codeLine="77" d="M960.04,517.88 C1001.04,507.17 1040.85,493.28 1054,477.59 C1088.67,436.22 1067.02,287.81 1084,236.59 C1092.44,211.12 1107.95,184.8 1120.27,166.17 " fill="transparent" id="Ascensor2-Planta0" style="stroke:#181818;stroke-width:1;"/><text fill="#000000" font-family="sans-serif" font-size="13" lengthAdjust="spacing" textLength="62.9688" x="991" y="473.6569">comunica</text></g><!--link Ascensor2 to Planta1--><g id="link_Ascensor2_Planta1"><path codeLine="78" d="M922.8,582.22 C976.55,612.96 1048.01,653.83 1093.64,679.93 " fill="transparent" id="Ascensor2-Planta1" style="stroke:#181818;stroke-width:1;"/><text fill="#000000" font-family="sans-serif" font-size="13" lengthAdjust="spacing" textLength="62.9688" x="991" y="618.6569">comunica</text></g><!--link Ascensor2 to Planta2--><g id="link_Ascensor2_Planta2"><path codeLine="79" d="M960.01,557.79 C993.03,557.35 1027.49,550.64 1054,530.59 C1126.06,476.09 1137.28,357.37 1138.61,305.13 " fill="transparent" id="Ascensor2-Planta2" style="stroke:#181818;stroke-width:1;"/><text fill="#000000" font-family="sans-serif" font-size="13" lengthAdjust="spacing" textLength="62.9688" x="991" y="526.6569">comunica</text></g><!--link Ascensor2 to Planta3--><g id="link_Ascensor2_Planta3"><path codeLine="80" d="M960.36,581.27 C970.28,583.82 980.26,586 990,587.59 C1018.07,592.17 1025.56,588.09 1054,587.59 C1063.69,587.41 1074,587.13 1083.96,586.81 " fill="transparent" id="Ascensor2-Planta3" style="stroke:#181818;stroke-width:1;"/><text fill="#000000" font-family="sans-serif" font-size="13" lengthAdjust="spacing" textLength="62.9688" x="991" y="583.6569">comunica</text></g><!--reverse link Persona1 to Planta0--><g id="link_Persona1_Planta0"><path codeLine="82" d="M627.16,140.59 C745.05,140.59 974.99,140.59 1083.6,140.59 " fill="transparent" id="Persona1-backto-Planta0" style="stroke:#181818;stroke-width:1;"/><polygon fill="transparent" points="615.16,140.59,621.16,144.59,627.16,140.59,621.16,136.59,615.16,140.59" style="stroke:#181818;stroke-width:1;"/><text fill="#000000" font-family="sans-serif" font-size="13" lengthAdjust="spacing" textLength="48.2041" x="825" y="136.6569">est&#225; en</text></g><!--reverse link Persona2 to Planta1--><g id="link_Persona2_Planta1"><path codeLine="83" d="M630.1275,728.7428 C727.9575,730.7228 898.82,731.69 1054,718.59 C1063.61,717.78 1073.79,716.54 1083.63,715.14 " fill="transparent" id="Persona2-backto-Planta1" style="stroke:#181818;stroke-width:1;"/><polygon fill="transparent" points="618.13,728.5,624.0478,732.6206,630.1275,728.7428,624.2097,724.6222,618.13,728.5" style="stroke:#181818;stroke-width:1;"/><text fill="#000000" font-family="sans-serif" font-size="13" lengthAdjust="spacing" textLength="48.2041" x="825" y="720.6569">est&#225; en</text></g><!--reverse link Persona3 to Planta2--><g id="link_Persona3_Planta2"><path codeLine="84" d="M632.1496,326.9902 C719.5796,316.2002 859.42,299.77 990,288.59 C1021.01,285.93 1055.73,283.78 1083.79,282.25 " fill="transparent" id="Persona3-backto-Planta2" style="stroke:#181818;stroke-width:1;"/><polygon fill="transparent" points="620.24,328.46,626.6848,331.695,632.1496,326.9902,625.7049,323.7552,620.24,328.46" style="stroke:#181818;stroke-width:1;"/><text fill="#000000" font-family="sans-serif" font-size="13" lengthAdjust="spacing" textLength="48.2041" x="825" y="286.6569">est&#225; en</text></g><!--reverse link Persona1 to Ascensor1--><g id="link_Persona1_Ascensor1"><path codeLine="86" d="M574.4901,184.2655 C593.1701,213.6355 616.65,246.15 650,276.59 C684.3,307.89 727.74,335.69 765.18,356.81 " fill="transparent" id="Persona1-backto-Ascensor1" style="stroke:#181818;stroke-width:1;"/><polygon fill="transparent" points="568.05,174.14,567.8949,181.3494,574.4901,184.2655,574.6452,177.0561,568.05,174.14" style="stroke:#181818;stroke-width:1;"/><text fill="#000000" font-family="sans-serif" font-size="13" lengthAdjust="spacing" textLength="38.9619" x="660" y="272.6569">utiliza</text></g><!--reverse link Persona2 to Ascensor2--><g id="link_Persona2_Ascensor2"><path codeLine="87" d="M629.9128,714.847 C659.1128,708.827 680.74,701.45 708,685.59 C752.76,659.54 792.56,615.15 818.17,582.33 " fill="transparent" id="Persona2-backto-Ascensor2" style="stroke:#181818;stroke-width:1;"/><polygon fill="transparent" points="618.16,717.27,624.8441,719.9761,629.9128,714.847,623.2287,712.1409,618.16,717.27" style="stroke:#181818;stroke-width:1;"/><text fill="#000000" font-family="sans-serif" font-size="13" lengthAdjust="spacing" textLength="38.9619" x="660" y="681.6569">utiliza</text></g><!--reverse link Persona3 to Ascensor1--><g id="link_Persona3_Ascensor1"><path codeLine="88" d="M631.5058,369.7493 C641.4458,372.9993 640.2,372.25 650,374.59 C679.64,381.66 712.3,386.71 742.4,390.28 " fill="transparent" id="Persona3-backto-Ascensor1" style="stroke:#181818;stroke-width:1;"/><polygon fill="transparent" points="620.1,366.02,624.5598,371.6866,631.5058,369.7493,627.046,364.0827,620.1,366.02" style="stroke:#181818;stroke-width:1;"/><text fill="#000000" font-family="sans-serif" font-size="13" lengthAdjust="spacing" textLength="38.9619" x="660" y="370.6569">utiliza</text></g><!--SRC=[XPDDRiCW48Ntd09bsIfIWAwyYxggr4hPz00JF4sGR2O27AcjUfYUfHShpe-DWnrxPVE-DsyOyDwKoBLnkaAsRz-nFeHFNcEzHUSPg_0Zy43ScTq-yD8urC6GPKnNu3r_Qsn9_9ln-3poFJbmXWg-4B9uMYtOpvLxj-OOwvaIoexMS03ThaHUfV0cacH1TAIbUkimOXlGjBWibkWHNbnSbRbNvjvNQ1paPf6RLMv-1bUHpzqgSQ-zHkl9YV4TNis72co0jGuDL75zAQv2JKTJ6xIX7I2qnShuWIC9SZH1JYIiHWFY7aOIDYVhgXz0KwEZSv4RIEIGo22PGpA3L0wTvtg-NG_BvU3-55mxX4Jixal1TsZHZMZoZgPwZQKv9-GoZvX9DiJPuGGYvX4vZwWfX8RRZB_1RXAGSu0Q1Tek-YjSy0Dvd2PaHx3UT3Emkh56mvWkPdGvewjKPtrFznkGCmt8cGRaL0FToT2W0VJXxvUZPTt1qA21MrqbkaprOK1wI4qmbVc2OK9wHZU0cghm3m00]--></g></svg>