<svg xmlns="http://www.w3.org/2000/svg" xmlns:xlink="http://www.w3.org/1999/xlink" contentStyleType="text/css" data-diagram-type="CLASS" height="624px" preserveAspectRatio="none" style="width:1251px;height:624px;background:#FFFFFF;" version="1.1" viewBox="0 0 1251 624" width="1251px" zoomAndPan="magnify"><defs/><g><!--class Mundo--><g id="elem_Mundo"><rect codeLine="4" fill="#F1F1F1" height="50.5938" id="Mundo" rx="2.5" ry="2.5" style="stroke:#181818;stroke-width:0.5;" width="138.376" x="520.83" y="7"/><text fill="#000000" font-family="sans-serif" font-size="14" lengthAdjust="spacing" textLength="47.2773" x="566.3793" y="24.9951">Mundo</text><line style="stroke:#181818;stroke-width:0.5;" x1="521.83" x2="658.206" y1="33.2969" y2="33.2969"/><ellipse cx="531.83" cy="46.9453" fill="transparent" rx="3" ry="3" style="stroke:#038048;stroke-width:1;"/><text fill="#000000" font-family="sans-serif" font-size="14" lengthAdjust="spacing" textLength="112.376" x="540.83" y="50.292">horario: "12:40"</text></g><!--class Universidad--><g id="elem_Universidad"><rect codeLine="8" fill="#F1F1F1" height="50.5938" id="Universidad" rx="2.5" ry="2.5" style="stroke:#181818;stroke-width:0.5;" width="137.542" x="596.83" y="135"/><text fill="#000000" font-family="sans-serif" font-size="14" lengthAdjust="spacing" textLength="83.2002" x="624.0009" y="152.9951">Universidad</text><line style="stroke:#181818;stroke-width:0.5;" x1="597.83" x2="733.372" y1="161.2969" y2="161.2969"/><ellipse cx="607.83" cy="174.9453" fill="transparent" rx="3" ry="3" style="stroke:#038048;stroke-width:1;"/><text fill="#000000" font-family="sans-serif" font-size="14" lengthAdjust="spacing" textLength="111.542" x="616.83" y="178.292">capacidad: "30"</text></g><!--class Persona1--><g id="elem_Persona1"><rect codeLine="12" fill="#F1F1F1" height="66.8906" id="Persona1" rx="2.5" ry="2.5" style="stroke:#181818;stroke-width:0.5;" width="135.6621" x="90.83" y="263"/><text fill="#000000" font-family="sans-serif" font-size="14" lengthAdjust="spacing" textLength="65.0303" x="126.1459" y="280.9951">Persona1</text><line style="stroke:#181818;stroke-width:0.5;" x1="91.83" x2="225.4921" y1="289.2969" y2="289.2969"/><ellipse cx="101.83" cy="302.9453" fill="transparent" rx="3" ry="3" style="stroke:#038048;stroke-width:1;"/><text fill="#000000" font-family="sans-serif" font-size="14" lengthAdjust="spacing" textLength="109.6621" x="110.83" y="306.292">nombre: "Paco"</text><ellipse cx="101.83" cy="319.2422" fill="transparent" rx="3" ry="3" style="stroke:#038048;stroke-width:1;"/><text fill="#000000" font-family="sans-serif" font-size="14" lengthAdjust="spacing" textLength="82.8242" x="110.83" y="322.5889">deseaIr: "2"</text></g><!--class Persona2--><g id="elem_Persona2"><rect codeLine="17" fill="#F1F1F1" height="66.8906" id="Persona2" rx="2.5" ry="2.5" style="stroke:#181818;stroke-width:0.5;" width="141.9648" x="984.83" y="263"/><text fill="#000000" font-family="sans-serif" font-size="14" lengthAdjust="spacing" textLength="65.0303" x="1023.2973" y="280.9951">Persona2</text><line style="stroke:#181818;stroke-width:0.5;" x1="985.83" x2="1125.7948" y1="289.2969" y2="289.2969"/><ellipse cx="995.83" cy="302.9453" fill="transparent" rx="3" ry="3" style="stroke:#038048;stroke-width:1;"/><text fill="#000000" font-family="sans-serif" font-size="14" lengthAdjust="spacing" textLength="115.9648" x="1004.83" y="306.292">nombre: "Laura"</text><ellipse cx="995.83" cy="319.2422" fill="transparent" rx="3" ry="3" style="stroke:#038048;stroke-width:1;"/><text fill="#000000" font-family="sans-serif" font-size="14" lengthAdjust="spacing" textLength="82.8242" x="1004.83" y="322.5889">deseaIr: "1"</text></g><!--class Persona3--><g id="elem_Persona3"><rect codeLine="22" fill="#F1F1F1" height="66.8906" id="Persona3" rx="2.5" ry="2.5" style="stroke:#181818;stroke-width:0.5;" width="146.2373" x="443.83" y="263"/><text fill="#000000" font-family="sans-serif" font-size="14" lengthAdjust="spacing" textLength="65.0303" x="484.4335" y="280.9951">Persona3</text><line style="stroke:#181818;stroke-width:0.5;" x1="444.83" x2="589.0673" y1="289.2969" y2="289.2969"/><ellipse cx="454.83" cy="302.9453" fill="transparent" rx="3" ry="3" style="stroke:#038048;stroke-width:1;"/><text fill="#000000" font-family="sans-serif" font-size="14" lengthAdjust="spacing" textLength="120.2373" x="463.83" y="306.292">nombre: "Carlos"</text><ellipse cx="454.83" cy="319.2422" fill="transparent" rx="3" ry="3" style="stroke:#038048;stroke-width:1;"/><text fill="#000000" font-family="sans-serif" font-size="14" lengthAdjust="spacing" textLength="82.8242" x="463.83" y="322.5889">deseaIr: "3"</text></g><!--class Ascensor1--><g id="elem_Ascensor1"><rect codeLine="27" fill="#F1F1F1" height="83.1875" id="Ascensor1" rx="2.5" ry="2.5" style="stroke:#181818;stroke-width:0.5;" width="213.0244" x="501.33" y="407"/><text fill="#000000" font-family="sans-serif" font-size="14" lengthAdjust="spacing" textLength="72.5771" x="571.5536" y="424.9951">Ascensor1</text><line style="stroke:#181818;stroke-width:0.5;" x1="502.33" x2="713.3544" y1="433.2969" y2="433.2969"/><ellipse cx="512.33" cy="446.9453" fill="transparent" rx="3" ry="3" style="stroke:#038048;stroke-width:1;"/><text fill="#000000" font-family="sans-serif" font-size="14" lengthAdjust="spacing" textLength="102.6348" x="521.33" y="450.292">capacidad: "3"</text><ellipse cx="512.33" cy="463.2422" fill="transparent" rx="3" ry="3" style="stroke:#038048;stroke-width:1;"/><text fill="#000000" font-family="sans-serif" font-size="14" lengthAdjust="spacing" textLength="124.4072" x="521.33" y="466.5889">plantaActual: "-1"</text><ellipse cx="512.33" cy="479.5391" fill="transparent" rx="3" ry="3" style="stroke:#038048;stroke-width:1;"/><text fill="#000000" font-family="sans-serif" font-size="14" lengthAdjust="spacing" textLength="187.0244" x="521.33" y="482.8857">movimiento: "ascendente"</text></g><!--class Ascensor2--><g id="elem_Ascensor2"><rect codeLine="33" fill="#F1F1F1" height="83.1875" id="Ascensor2" rx="2.5" ry="2.5" style="stroke:#181818;stroke-width:0.5;" width="221.9453" x="824.83" y="407"/><text fill="#000000" font-family="sans-serif" font-size="14" lengthAdjust="spacing" textLength="72.5771" x="899.5141" y="424.9951">Ascensor2</text><line style="stroke:#181818;stroke-width:0.5;" x1="825.83" x2="1045.7753" y1="433.2969" y2="433.2969"/><ellipse cx="835.83" cy="446.9453" fill="transparent" rx="3" ry="3" style="stroke:#038048;stroke-width:1;"/><text fill="#000000" font-family="sans-serif" font-size="14" lengthAdjust="spacing" textLength="102.6348" x="844.83" y="450.292">capacidad: "4"</text><ellipse cx="835.83" cy="463.2422" fill="transparent" rx="3" ry="3" style="stroke:#038048;stroke-width:1;"/><text fill="#000000" font-family="sans-serif" font-size="14" lengthAdjust="spacing" textLength="119.3555" x="844.83" y="466.5889">plantaActual: "0"</text><ellipse cx="835.83" cy="479.5391" fill="transparent" rx="3" ry="3" style="stroke:#038048;stroke-width:1;"/><text fill="#000000" font-family="sans-serif" font-size="14" lengthAdjust="spacing" textLength="195.9453" x="844.83" y="482.8857">movimiento: "descendente"</text></g><!--class Planta0--><g id="elem_Planta0"><rect codeLine="39" fill="#F1F1F1" height="50.5938" id="Planta0" rx="2.5" ry="2.5" style="stroke:#181818;stroke-width:0.5;" width="111.2715" x="120.33" y="567"/><text fill="#000000" font-family="sans-serif" font-size="14" lengthAdjust="spacing" textLength="52.7598" x="149.5859" y="584.9951">Planta0</text><line style="stroke:#181818;stroke-width:0.5;" x1="121.33" x2="230.6015" y1="593.2969" y2="593.2969"/><ellipse cx="131.33" cy="606.9453" fill="transparent" rx="3" ry="3" style="stroke:#038048;stroke-width:1;"/><text fill="#000000" font-family="sans-serif" font-size="14" lengthAdjust="spacing" textLength="85.2715" x="140.33" y="610.292">numero: "0"</text></g><!--class Planta1--><g id="elem_Planta1"><rect codeLine="43" fill="#F1F1F1" height="50.5938" id="Planta1" rx="2.5" ry="2.5" style="stroke:#181818;stroke-width:0.5;" width="111.2715" x="825.33" y="567"/><text fill="#000000" font-family="sans-serif" font-size="14" lengthAdjust="spacing" textLength="52.7598" x="854.5859" y="584.9951">Planta1</text><line style="stroke:#181818;stroke-width:0.5;" x1="826.33" x2="935.6015" y1="593.2969" y2="593.2969"/><ellipse cx="836.33" cy="606.9453" fill="transparent" rx="3" ry="3" style="stroke:#038048;stroke-width:1;"/><text fill="#000000" font-family="sans-serif" font-size="14" lengthAdjust="spacing" textLength="85.2715" x="845.33" y="610.292">numero: "1"</text></g><!--class Planta2--><g id="elem_Planta2"><rect codeLine="47" fill="#F1F1F1" height="50.5938" id="Planta2" rx="2.5" ry="2.5" style="stroke:#181818;stroke-width:0.5;" width="111.2715" x="389.33" y="567"/><text fill="#000000" font-family="sans-serif" font-size="14" lengthAdjust="spacing" textLength="52.7598" x="418.5859" y="584.9951">Planta2</text><line style="stroke:#181818;stroke-width:0.5;" x1="390.33" x2="499.6015" y1="593.2969" y2="593.2969"/><ellipse cx="400.33" cy="606.9453" fill="transparent" rx="3" ry="3" style="stroke:#038048;stroke-width:1;"/><text fill="#000000" font-family="sans-serif" font-size="14" lengthAdjust="spacing" textLength="85.2715" x="409.33" y="610.292">numero: "2"</text></g><!--class Planta3--><g id="elem_Planta3"><rect codeLine="51" fill="#F1F1F1" height="50.5938" id="Planta3" rx="2.5" ry="2.5" style="stroke:#181818;stroke-width:0.5;" width="111.2715" x="979.33" y="567"/><text fill="#000000" font-family="sans-serif" font-size="14" lengthAdjust="spacing" textLength="52.7598" x="1008.5859" y="584.9951">Planta3</text><line style="stroke:#181818;stroke-width:0.5;" x1="980.33" x2="1089.6015" y1="593.2969" y2="593.2969"/><ellipse cx="990.33" cy="606.9453" fill="transparent" rx="3" ry="3" style="stroke:#038048;stroke-width:1;"/><text fill="#000000" font-family="sans-serif" font-size="14" lengthAdjust="spacing" textLength="85.2715" x="999.33" y="610.292">numero: "3"</text></g><!--reverse link Mundo to Persona1--><g id="link_Mundo_Persona1"><path codeLine="55" d="M508.8247,49.7001 C419.3247,70.6101 276.09,116.55 185.83,216 C174.08,228.95 167.41,247.23 163.64,263 " fill="transparent" id="Mundo-backto-Persona1" style="stroke:#181818;stroke-width:1;"/><polygon fill="#181818" points="520.51,46.97,513.7573,44.4399,508.8247,49.7001,515.5774,52.2301,520.51,46.97" style="stroke:#181818;stroke-width:1;"/><text fill="#000000" font-family="sans-serif" font-size="13" lengthAdjust="spacing" textLength="45.7983" x="284.83" y="165.0669">genera</text></g><!--reverse link Mundo to Persona2--><g id="link_Mundo_Persona2"><path codeLine="56" d="M670.3788,59.6282 C753.0488,88.2682 881.77,139.7 984.83,216 C1002.53,229.1 1019.12,247.2 1031.8,262.82 " fill="transparent" id="Mundo-backto-Persona2" style="stroke:#181818;stroke-width:1;"/><polygon fill="#181818" points="659.04,55.7,663.4,61.4437,670.3788,59.6282,666.0188,53.8845,659.04,55.7" style="stroke:#181818;stroke-width:1;"/><text fill="#000000" font-family="sans-serif" font-size="13" lengthAdjust="spacing" textLength="45.7983" x="936.83" y="165.0669">genera</text></g><!--reverse link Mundo to Persona3--><g id="link_Mundo_Persona3"><path codeLine="57" d="M565.5496,68.0053 C552.3296,87.7753 541.71,106.86 532.83,135 C519.36,177.73 516.47,229.74 516.21,262.74 " fill="transparent" id="Mundo-backto-Persona3" style="stroke:#181818;stroke-width:1;"/><polygon fill="#181818" points="572.22,58.03,565.5597,60.7942,565.5496,68.0053,572.2099,65.2411,572.22,58.03" style="stroke:#181818;stroke-width:1;"/><text fill="#000000" font-family="sans-serif" font-size="13" lengthAdjust="spacing" textLength="45.7983" x="533.83" y="165.0669">genera</text></g><!--reverse link Mundo to Universidad--><g id="link_Mundo_Universidad"><path codeLine="58" d="M610.8678,68.3656 C624.2578,90.5656 637.66,112.79 651.04,134.97 " fill="transparent" id="Mundo-backto-Universidad" style="stroke:#181818;stroke-width:1;"/><polygon fill="#181818" points="604.67,58.09,604.3437,65.2937,610.8678,68.3656,611.1941,61.1619,604.67,58.09" style="stroke:#181818;stroke-width:1;"/><text fill="#000000" font-family="sans-serif" font-size="13" lengthAdjust="spacing" textLength="28.4565" x="632.83" y="101.0669">crea</text></g><!--reverse link Universidad to Planta0--><g id="link_Universidad_Planta0"><path codeLine="60" d="M585.0273,186.8083 C471.3873,208.5983 137.05,166.74 72.83,263 C6,363.19 108.19,509.18 154.73,566.8 " fill="transparent" id="Universidad-backto-Planta0" style="stroke:#181818;stroke-width:1;"/><polygon fill="#181818" points="596.72,184.11,589.9742,181.5616,585.0273,186.8083,591.7731,189.3567,596.72,184.11" style="stroke:#181818;stroke-width:1;"/><text fill="#000000" font-family="sans-serif" font-size="13" lengthAdjust="spacing" textLength="56.2847" x="55.83" y="373.0669">contiene</text></g><!--reverse link Universidad to Planta1--><g id="link_Universidad_Planta1"><path codeLine="61" d="M674.4017,197.8589 C688.8117,256.1089 728.45,392.79 807.83,490 C822.57,508.05 836.19,501.87 850.83,520 C861.91,533.72 869.51,552.12 874.29,566.82 " fill="transparent" id="Universidad-backto-Planta1" style="stroke:#181818;stroke-width:1;"/><polygon fill="#181818" points="671.52,186.21,669.0779,192.995,674.4017,197.8589,676.8438,191.0739,671.52,186.21" style="stroke:#181818;stroke-width:1;"/><text fill="#000000" font-family="sans-serif" font-size="13" lengthAdjust="spacing" textLength="56.2847" x="737.83" y="373.0669">contiene</text></g><!--reverse link Universidad to Planta2--><g id="link_Universidad_Planta2"><path codeLine="62" d="M587.9517,190.3302 C527.7817,213.1802 455.63,242.44 426.83,263 C301.85,352.25 250.81,376.6 195.83,520 C193.13,527.05 191.1,531.11 195.83,537 C219.62,566.56 323.29,580.97 389.13,587.27 " fill="transparent" id="Universidad-backto-Planta2" style="stroke:#181818;stroke-width:1;"/><polygon fill="#181818" points="599.17,186.07,592.1408,184.4607,587.9517,190.3302,594.9809,191.9396,599.17,186.07" style="stroke:#181818;stroke-width:1;"/><text fill="#000000" font-family="sans-serif" font-size="13" lengthAdjust="spacing" textLength="56.2847" x="296.83" y="373.0669">contiene</text></g><!--reverse link Universidad to Planta3--><g id="link_Universidad_Planta3"><path codeLine="63" d="M746.8751,172.8966 C873.4251,191.2966 1119.75,230.68 1144.83,263 C1206.7,342.73 1191.33,398.02 1149.83,490 C1135.05,522.77 1103.88,549.2 1077.71,566.87 " fill="transparent" id="Universidad-backto-Planta3" style="stroke:#181818;stroke-width:1;"/><polygon fill="#181818" points="735,171.17,740.362,175.9917,746.8751,172.8966,741.5131,168.0749,735,171.17" style="stroke:#181818;stroke-width:1;"/><text fill="#000000" font-family="sans-serif" font-size="13" lengthAdjust="spacing" textLength="56.2847" x="1186.83" y="373.0669">contiene</text></g><!--reverse link Universidad to Persona1--><g id="link_Universidad_Persona1"><path codeLine="64" d="M584.951,183.2807 C575.971,185.3307 578.57,184.53 569.83,186 C491.33,199.22 281.56,175.82 212.83,216 C194.83,226.53 181.53,245.73 172.64,262.62 " fill="transparent" id="Universidad-backto-Persona1" style="stroke:#181818;stroke-width:1;"/><polygon fill="transparent" points="596.65,180.61,589.9102,178.0457,584.951,183.2807,591.6907,185.845,596.65,180.61" style="stroke:#181818;stroke-width:1;"/><text fill="#000000" font-family="sans-serif" font-size="13" lengthAdjust="spacing" textLength="39.3174" x="213.83" y="229.0669">acoge</text></g><!--reverse link Universidad to Persona2--><g id="link_Universidad_Persona2"><path codeLine="65" d="M746.6591,176.0626 C792.7291,185.2326 842.45,197.11 894.83,216 C930.17,228.74 967.91,247.11 997.96,262.97 " fill="transparent" id="Universidad-backto-Persona2" style="stroke:#181818;stroke-width:1;"/><polygon fill="transparent" points="734.89,173.72,739.9937,178.8143,746.6591,176.0626,741.5554,170.9683,734.89,173.72" style="stroke:#181818;stroke-width:1;"/><text fill="#000000" font-family="sans-serif" font-size="13" lengthAdjust="spacing" textLength="39.3174" x="936.83" y="229.0669">acoge</text></g><!--reverse link Universidad to Persona3--><g id="link_Universidad_Persona3"><path codeLine="66" d="M623.4543,193.6457 C611.8143,202.7157 608.25,205.87 596.83,216 C580.13,230.81 562.44,248.19 547.95,262.92 " fill="transparent" id="Universidad-backto-Persona3" style="stroke:#181818;stroke-width:1;"/><polygon fill="transparent" points="632.92,186.27,625.7286,186.8026,623.4543,193.6457,630.6457,193.1131,632.92,186.27" style="stroke:#181818;stroke-width:1;"/><text fill="#000000" font-family="sans-serif" font-size="13" lengthAdjust="spacing" textLength="39.3174" x="597.83" y="229.0669">acoge</text></g><!--reverse link Universidad to Ascensor1--><g id="link_Universidad_Ascensor1"><path codeLine="67" d="M658.4554,197.8907 C648.4554,247.2107 628.26,346.75 616.05,406.97 " fill="transparent" id="Universidad-backto-Ascensor1" style="stroke:#181818;stroke-width:1;"/><polygon fill="#181818" points="660.84,186.13,655.7275,191.2155,658.4554,197.8907,663.5679,192.8052,660.84,186.13" style="stroke:#181818;stroke-width:1;"/><text fill="#000000" font-family="sans-serif" font-size="13" lengthAdjust="spacing" textLength="38.9746" x="644.83" y="301.0669">posee</text></g><!--reverse link Universidad to Ascensor2--><g id="link_Universidad_Ascensor2"><path codeLine="68" d="M746.162,184.8229 C767.952,193.1929 779.82,200.44 797.83,216 C859.09,268.91 900.58,356.03 921.04,406.96 " fill="transparent" id="Universidad-backto-Ascensor2" style="stroke:#181818;stroke-width:1;"/><polygon fill="#181818" points="734.96,180.52,739.1267,186.4055,746.162,184.8229,741.9953,178.9375,734.96,180.52" style="stroke:#181818;stroke-width:1;"/><text fill="#000000" font-family="sans-serif" font-size="13" lengthAdjust="spacing" textLength="38.9746" x="883.83" y="301.0669">posee</text></g><!--reverse link Persona1 to Ascensor1--><g id="link_Persona1_Ascensor1"><path codeLine="70" d="M238.4117,324.0822 C311.2717,348.4222 416.36,383.53 501.32,411.92 " fill="transparent" id="Persona1-backto-Ascensor1" style="stroke:#181818;stroke-width:1;"/><polygon fill="transparent" points="227.03,320.28,231.4534,325.975,238.4117,324.0822,233.9883,318.3872,227.03,320.28" style="stroke:#181818;stroke-width:1;"/><text fill="#000000" font-family="sans-serif" font-size="13" lengthAdjust="spacing" textLength="38.9619" x="396.83" y="373.0669">utiliza</text></g><!--reverse link Persona2 to Ascensor2--><g id="link_Persona2_Ascensor2"><path codeLine="71" d="M1022.2926,339.4196 C1004.2326,361.9896 987.55,382.85 968.24,406.99 " fill="transparent" id="Persona2-backto-Ascensor2" style="stroke:#181818;stroke-width:1;"/><polygon fill="transparent" points="1029.79,330.05,1022.9181,332.2357,1022.2926,339.4196,1029.1645,337.2339,1029.79,330.05" style="stroke:#181818;stroke-width:1;"/><text fill="#000000" font-family="sans-serif" font-size="13" lengthAdjust="spacing" textLength="38.9619" x="1003.83" y="373.0669">utiliza</text></g><!--reverse link Persona3 to Ascensor1--><g id="link_Persona3_Ascensor1"><path codeLine="72" d="M542.8033,340.3101 C556.4933,362.8801 568.61,382.85 583.25,406.99 " fill="transparent" id="Persona3-backto-Ascensor1" style="stroke:#181818;stroke-width:1;"/><polygon fill="transparent" points="536.58,330.05,536.2716,337.2545,542.8033,340.3101,543.1117,333.1056,536.58,330.05" style="stroke:#181818;stroke-width:1;"/><text fill="#000000" font-family="sans-serif" font-size="13" lengthAdjust="spacing" textLength="38.9619" x="565.83" y="373.0669">utiliza</text></g><!--link Ascensor1 to Planta0--><g id="link_Ascensor1_Planta0"><path codeLine="74" d="M501.11,483.57 C491.94,485.95 482.75,488.14 473.83,490 C363.43,513.07 317.47,460.2 221.83,520 C204.56,530.8 192.54,550.73 185.13,566.81 " fill="transparent" id="Ascensor1-Planta0" style="stroke:#181818;stroke-width:1;"/><text fill="#000000" font-family="sans-serif" font-size="13" lengthAdjust="spacing" textLength="62.9688" x="222.83" y="533.0669">comunica</text></g><!--link Ascensor1 to Planta1--><g id="link_Ascensor1_Planta1"><path codeLine="75" d="M632.52,490.08 C644.57,506.82 660.46,525.06 678.83,537 C723.15,565.8 782.34,579.47 825.18,585.9 " fill="transparent" id="Ascensor1-Planta1" style="stroke:#181818;stroke-width:1;"/><text fill="#000000" font-family="sans-serif" font-size="13" lengthAdjust="spacing" textLength="62.9688" x="679.83" y="533.0669">comunica</text></g><!--link Ascensor1 to Planta2--><g id="link_Ascensor1_Planta2"><path codeLine="76" d="M506.8,490.11 C493.51,498.54 481,508.46 470.83,520 C459.22,533.18 452.66,551.97 449.03,566.97 " fill="transparent" id="Ascensor1-Planta2" style="stroke:#181818;stroke-width:1;"/><text fill="#000000" font-family="sans-serif" font-size="13" lengthAdjust="spacing" textLength="62.9688" x="471.83" y="533.0669">comunica</text></g><!--link Ascensor1 to Planta3--><g id="link_Ascensor1_Planta3"><path codeLine="77" d="M702.86,490.05 C742.06,505.92 788.21,523.51 830.83,537 C884.48,553.98 899.55,552.18 953.83,567 C962.05,569.24 970.71,571.73 979.17,574.23 " fill="transparent" id="Ascensor1-Planta3" style="stroke:#181818;stroke-width:1;"/><text fill="#000000" font-family="sans-serif" font-size="13" lengthAdjust="spacing" textLength="62.9688" x="831.83" y="533.0669">comunica</text></g><!--link Ascensor2 to Planta0--><g id="link_Ascensor2_Planta0"><path codeLine="79" d="M824.77,473.83 C794.72,479.79 762.13,485.68 731.83,490 C579.9,511.64 538.05,488.59 387.83,520 C333.46,531.37 273.69,552.35 231.51,568.65 " fill="transparent" id="Ascensor2-Planta0" style="stroke:#181818;stroke-width:1;"/><text fill="#000000" font-family="sans-serif" font-size="13" lengthAdjust="spacing" textLength="62.9688" x="388.83" y="533.0669">comunica</text></g><!--link Ascensor2 to Planta1--><g id="link_Ascensor2_Planta1"><path codeLine="80" d="M920.07,490.19 C910.49,514.94 898.56,545.74 890.38,566.84 " fill="transparent" id="Ascensor2-Planta1" style="stroke:#181818;stroke-width:1;"/><text fill="#000000" font-family="sans-serif" font-size="13" lengthAdjust="spacing" textLength="62.9688" x="908.83" y="533.0669">comunica</text></g><!--link Ascensor2 to Planta2--><g id="link_Ascensor2_Planta2"><path codeLine="81" d="M824.57,471.61 C724.61,491.53 592.61,518 586.83,520 C551.62,532.18 514.05,551.39 486.41,566.84 " fill="transparent" id="Ascensor2-Planta2" style="stroke:#181818;stroke-width:1;"/><text fill="#000000" font-family="sans-serif" font-size="13" lengthAdjust="spacing" textLength="62.9688" x="587.83" y="533.0669">comunica</text></g><!--link Ascensor2 to Planta3--><g id="link_Ascensor2_Planta3"><path codeLine="82" d="M964.2,490.19 C981.46,514.94 1002.93,545.74 1017.64,566.84 " fill="transparent" id="Ascensor2-Planta3" style="stroke:#181818;stroke-width:1;"/><text fill="#000000" font-family="sans-serif" font-size="13" lengthAdjust="spacing" textLength="62.9688" x="994.83" y="533.0669">comunica</text></g><!--reverse link Persona1 to Planta0--><g id="link_Persona1_Planta0"><path codeLine="84" d="M149.3439,341.9822 C140.3339,388.6222 130.37,464.78 147.83,537 C150.33,547.34 155.15,557.92 160.1,566.97 " fill="transparent" id="Persona1-backto-Planta0" style="stroke:#181818;stroke-width:1;"/><polygon fill="transparent" points="151.62,330.2,146.5546,335.3324,149.3439,341.9822,154.4093,336.8498,151.62,330.2" style="stroke:#181818;stroke-width:1;"/><text fill="#000000" font-family="sans-serif" font-size="13" lengthAdjust="spacing" textLength="48.2041" x="142.83" y="453.0669">est&#225; en</text></g><!--reverse link Persona2 to Planta1--><g id="link_Persona2_Planta1"><path codeLine="85" d="M1073.151,341.6827 C1091.001,391.7327 1111.49,476.31 1065.83,537 C1036.91,575.44 1007.97,553.37 961.83,567 C953.66,569.41 945.03,571.99 936.58,574.54 " fill="transparent" id="Persona2-backto-Planta1" style="stroke:#181818;stroke-width:1;"/><polygon fill="transparent" points="1069.12,330.38,1067.368,337.375,1073.151,341.6827,1074.9031,334.6877,1069.12,330.38" style="stroke:#181818;stroke-width:1;"/><text fill="#000000" font-family="sans-serif" font-size="13" lengthAdjust="spacing" textLength="48.2041" x="1092.83" y="453.0669">est&#225; en</text></g><!--reverse link Persona3 to Planta2--><g id="link_Persona3_Planta2"><path codeLine="86" d="M453.9821,337.8599 C444.0221,346.3599 443.96,348.6 437.83,360 C401.66,427.29 423.04,522.22 436.46,566.69 " fill="transparent" id="Persona3-backto-Planta2" style="stroke:#181818;stroke-width:1;"/><polygon fill="transparent" points="463.11,330.07,455.9494,330.9223,453.9821,337.8599,461.1427,337.0076,463.11,330.07" style="stroke:#181818;stroke-width:1;"/><text fill="#000000" font-family="sans-serif" font-size="13" lengthAdjust="spacing" textLength="48.2041" x="421.83" y="453.0669">est&#225; en</text></g><!--SRC=[XPDDReCm48NtFeMLPQj8iPqLkwYhIgsKJGymCQF44lP4DaHggnwcP-d5Ql8319l02kPzR-Onc8CfaMlZTONiqDwZFTQVtABTeG-CwGf2uE-DAub_CnwlPtuW3zvGmHT25klLWltSk0zdJj5cIYWxMiCHT5k9l1h2sqYI0z6HZkpEOyIse6bnBPOO45vzhChKArFl6pGUKhD8pIerlu2lAAHkDN1lWaONo8ly6zxCnmfS3HjTDr35-bBS14idOmswkbqWjCtA-82P2J8xOJqnOPKT4DyXCs5xjgxw1JGMFLsQZ22HGYA1P0h9158fTDdhvNGzBPVzaIZu7XrwI3NvG5CvRNWc2wuz0cF3sjb_tKVKoTLnTpY1Y7b4pYDg2g7x7SJVO3y9o3b0PO4sHN-42twaWDE4x0ZMvQ9HXwOsbVa2rkMYKOCHe2OxiBuu-YYsSKP3JXSpkfpHrL1dVUp70UHC03aJG4u5kDjo7m13_VVBqTqlkGymrjL0bmFz7m00]--></g></svg>