<svg xmlns="http://www.w3.org/2000/svg" xmlns:xlink="http://www.w3.org/1999/xlink" contentStyleType="text/css" data-diagram-type="STATE" height="1395px" preserveAspectRatio="none" style="width:966px;height:1395px;background:#FFFFFF;" version="1.1" viewBox="0 0 966 1395" width="966px" zoomAndPan="magnify"><defs/><g><!--cluster PedidoState--><g class="cluster" data-entity="PedidoState" data-source-line="15" data-uid="ent0004" id="cluster_PedidoState"><path d="M19.5,7 L267.5,7 A12.5,12.5 0 0 1 280,19.5 L280,28.2969 L7,28.2969 L7,19.5 A12.5,12.5 0 0 1 19.5,7 " fill="#F1F1F1" style="stroke:#F1F1F1;stroke-width:1;"/><rect fill="none" height="1382.59" rx="12.5" ry="12.5" style="stroke:#181818;stroke-width:0.5;" width="273" x="7" y="7"/><line style="stroke:#181818;stroke-width:0.5;" x1="7" x2="280" y1="28.2969" y2="28.2969"/><text fill="#000000" font-family="sans-serif" font-size="14" lengthAdjust="spacing" textLength="121.3447" x="82.8276" y="23.9951">Estado de Pedido</text></g><!--cluster RestauranteState--><g class="cluster" data-entity="RestauranteState" data-source-line="23" data-uid="ent0005" id="cluster_RestauranteState"><path d="M332.5,1015.59 L486.5,1015.59 A12.5,12.5 0 0 1 499,1028.09 L499,1036.8869 L320,1036.8869 L320,1028.09 A12.5,12.5 0 0 1 332.5,1015.59 " fill="#F1F1F1" style="stroke:#F1F1F1;stroke-width:1;"/><rect fill="none" height="229" rx="12.5" ry="12.5" style="stroke:#181818;stroke-width:0.5;" width="179" x="320" y="1015.59"/><line style="stroke:#181818;stroke-width:0.5;" x1="320" x2="499" y1="1036.8869" y2="1036.8869"/><text fill="#000000" font-family="sans-serif" font-size="14" lengthAdjust="spacing" textLength="163.8369" x="327.5815" y="1032.5851">Estado del Restaurante</text></g><ellipse cx="74" cy="60" fill="#222222" rx="10" ry="10" style="stroke:#222222;stroke-width:1;"/><g id="PedidoState.EnEspera"><rect fill="#F1F1F1" height="50" rx="12.5" ry="12.5" style="stroke:#181818;stroke-width:0.5;" width="85.6934" x="31.15" y="302.14"/><line style="stroke:#181818;stroke-width:0.5;" x1="31.15" x2="116.8434" y1="328.4369" y2="328.4369"/><text fill="#000000" font-family="sans-serif" font-size="14" lengthAdjust="spacing" textLength="65.6934" x="41.15" y="320.1351">EnEspera</text></g><g id="PedidoState.EnPreparaci&#243;n"><rect fill="#F1F1F1" height="50" rx="12.5" ry="12.5" style="stroke:#181818;stroke-width:0.5;" width="121.3564" x="32.32" y="739.44"/><line style="stroke:#181818;stroke-width:0.5;" x1="32.32" x2="153.6764" y1="765.7369" y2="765.7369"/><text fill="#000000" font-family="sans-serif" font-size="14" lengthAdjust="spacing" textLength="101.3564" x="42.32" y="757.4351">EnPreparaci&#243;n</text></g><g id="PedidoState.ListoParaServir"><rect fill="#F1F1F1" height="50" rx="12.5" ry="12.5" style="stroke:#181818;stroke-width:0.5;" width="125.5811" x="31.21" y="1043.59"/><line style="stroke:#181818;stroke-width:0.5;" x1="31.21" x2="156.7911" y1="1069.8869" y2="1069.8869"/><text fill="#000000" font-family="sans-serif" font-size="14" lengthAdjust="spacing" textLength="105.5811" x="41.21" y="1061.5851">ListoParaServir</text></g><g id="PedidoState.Servido"><rect fill="#F1F1F1" height="50" rx="12.5" ry="12.5" style="stroke:#181818;stroke-width:0.5;" width="72.8828" x="38.56" y="1170.59"/><line style="stroke:#181818;stroke-width:0.5;" x1="38.56" x2="111.4428" y1="1196.8869" y2="1196.8869"/><text fill="#000000" font-family="sans-serif" font-size="14" lengthAdjust="spacing" textLength="52.8828" x="48.56" y="1188.5851">Servido</text></g><g id="PedidoState.Cerrado"><rect fill="#F1F1F1" height="50" rx="12.5" ry="12.5" style="stroke:#181818;stroke-width:0.5;" width="75.9316" x="172.03" y="1315.59"/><line style="stroke:#181818;stroke-width:0.5;" x1="172.03" x2="247.9616" y1="1341.8869" y2="1341.8869"/><text fill="#000000" font-family="sans-serif" font-size="14" lengthAdjust="spacing" textLength="55.9316" x="182.03" y="1333.5851">Cerrado</text></g><ellipse cx="379" cy="1068.59" fill="#222222" rx="10" ry="10" style="stroke:#222222;stroke-width:1;"/><g id="RestauranteState.Abierto"><rect fill="#F1F1F1" height="50" rx="12.5" ry="12.5" style="stroke:#181818;stroke-width:0.5;" width="70.7773" x="343.61" y="1170.59"/><line style="stroke:#181818;stroke-width:0.5;" x1="343.61" x2="414.3873" y1="1196.8869" y2="1196.8869"/><text fill="#000000" font-family="sans-serif" font-size="14" lengthAdjust="spacing" textLength="50.7773" x="353.61" y="1188.5851">Abierto</text></g><path d="M316.05,147 L695.949,147 A12.5,12.5 0 0 1 708.449,159.5 L708.449,173.2969 L303.55,173.2969 L303.55,159.5 A12.5,12.5 0 0 1 316.05,147 " fill="#F1F1F1" style="stroke:#F1F1F1;stroke-width:1;"/><rect fill="none" height="360.2969" rx="12.5" ry="12.5" style="stroke:#181818;stroke-width:0.5;" width="404.899" x="303.55" y="147"/><line style="stroke:#181818;stroke-width:0.5;" x1="303.55" x2="708.449" y1="173.2969" y2="173.2969"/><text fill="#000000" font-family="sans-serif" font-size="14" lengthAdjust="spacing" textLength="110.626" x="450.6865" y="164.9951">Estado de Mesa</text><ellipse cx="417.72" cy="194.2969" fill="#222222" rx="10" ry="10" style="stroke:#222222;stroke-width:1;"/><g id="MesaState.Libre"><rect fill="#F1F1F1" height="50" rx="12.5" ry="12.5" style="stroke:#181818;stroke-width:0.5;" width="54.9453" x="390.24" y="241.2969"/><line style="stroke:#181818;stroke-width:0.5;" x1="390.24" x2="445.1853" y1="267.5938" y2="267.5938"/><text fill="#000000" font-family="sans-serif" font-size="14" lengthAdjust="spacing" textLength="34.9453" x="400.24" y="259.292">Libre</text></g><g id="MesaState.Reservada"><rect fill="#F1F1F1" height="50" rx="12.5" ry="12.5" style="stroke:#181818;stroke-width:0.5;" width="94.334" x="315.55" y="344.2969"/><line style="stroke:#181818;stroke-width:0.5;" x1="315.55" x2="409.884" y1="370.5938" y2="370.5938"/><text fill="#000000" font-family="sans-serif" font-size="14" lengthAdjust="spacing" textLength="74.334" x="325.55" y="362.292">Reservada</text></g><g id="MesaState.Ocupada"><rect fill="#F1F1F1" height="50" rx="12.5" ry="12.5" style="stroke:#181818;stroke-width:0.5;" width="82.5215" x="385.46" y="447.2969"/><line style="stroke:#181818;stroke-width:0.5;" x1="385.46" x2="467.9815" y1="473.5938" y2="473.5938"/><text fill="#000000" font-family="sans-serif" font-size="14" lengthAdjust="spacing" textLength="62.5215" x="395.46" y="465.292">Ocupada</text></g><!--link *start*MesaState to Libre--><g class="link" data-entity-1="*start*MesaState" data-entity-2="Libre" data-source-line="2" data-uid="lnk4" id="link_*start*MesaState_Libre"><path d="M417.72,204.7369 C417.72,213.9969 417.72,222.4869 417.72,234.9769 " fill="none" id="*start*MesaState-to-Libre" style="stroke:#181818;stroke-width:1;"/><polygon fill="#181818" points="417.72,240.9769,421.72,231.9769,417.72,235.9769,413.72,231.9769,417.72,240.9769" style="stroke:#181818;stroke-width:1;"/></g><!--link Libre to Reservada--><g class="link" data-entity-1="Libre" data-entity-2="Reservada" data-source-line="3" data-uid="lnk6" id="link_Libre_Reservada"><path d="M389.9,278.3169 C376.71,285.1269 362.22,295.2769 354.72,309.2969 C349.11,319.7769 348.6591,326.9351 351.5091,338.0451 " fill="none" id="Libre-to-Reservada" style="stroke:#181818;stroke-width:1;"/><polygon fill="#181818" points="353,343.8569,354.6382,334.1452,351.7576,339.0137,346.8891,336.1331,353,343.8569" style="stroke:#181818;stroke-width:1;"/><text fill="#000000" font-family="sans-serif" font-size="13" lengthAdjust="spacing" textLength="112.7915" x="355.72" y="322.3638">reserva realizada</text></g><!--link Reservada to Ocupada--><g class="link" data-entity-1="Reservada" data-entity-2="Ocupada" data-source-line="4" data-uid="lnk8" id="link_Reservada_Ocupada"><path d="M370.9,394.7869 C375.11,405.7869 380.82,418.6469 387.72,429.2969 C391.72,435.4769 392.6575,437.1359 397.6675,442.7059 " fill="none" id="Reservada-to-Ocupada" style="stroke:#181818;stroke-width:1;"/><polygon fill="#181818" points="401.68,447.1669,398.6353,437.8005,398.3363,443.4494,392.6873,443.1504,401.68,447.1669" style="stroke:#181818;stroke-width:1;"/><text fill="#000000" font-family="sans-serif" font-size="13" lengthAdjust="spacing" textLength="79.2759" x="388.72" y="425.3638">cliente llega</text></g><!--link Ocupada to Libre--><g class="link" data-entity-1="Ocupada" data-entity-2="Libre" data-source-line="5" data-uid="lnk9" id="link_Ocupada_Libre"><path d="M457.06,447.0969 C461.81,441.7769 466.03,435.7769 468.72,429.2969 C489.13,380.0269 491.48,357.5269 468.72,309.2969 C463.72,298.7169 459.4308,293.469 450.2808,286.689 " fill="none" id="Ocupada-to-Libre" style="stroke:#181818;stroke-width:1;"/><polygon fill="#181818" points="445.46,283.1169,450.3098,291.6889,449.4773,286.0936,455.0726,285.2612,445.46,283.1169" style="stroke:#181818;stroke-width:1;"/><text fill="#000000" font-family="sans-serif" font-size="13" lengthAdjust="spacing" textLength="212.729" x="485.72" y="373.8638">cliente se va y mesa es limpiada</text></g><path d="M348.9,584.29 L675.0961,584.29 A12.5,12.5 0 0 1 687.5961,596.79 L687.5961,610.5869 L336.4,610.5869 L336.4,596.79 A12.5,12.5 0 0 1 348.9,584.29 " fill="#F1F1F1" style="stroke:#F1F1F1;stroke-width:1;"/><rect fill="none" height="360.2969" rx="12.5" ry="12.5" style="stroke:#181818;stroke-width:0.5;" width="351.1961" x="336.4" y="584.29"/><line style="stroke:#181818;stroke-width:0.5;" x1="336.4" x2="687.5961" y1="610.5869" y2="610.5869"/><text fill="#000000" font-family="sans-serif" font-size="14" lengthAdjust="spacing" textLength="130.9287" x="446.5337" y="602.2851">Estado de Reserva</text><ellipse cx="456.14" cy="631.5869" fill="#222222" rx="10" ry="10" style="stroke:#222222;stroke-width:1;"/><g id="ReservaState.Pendiente"><rect fill="#F1F1F1" height="50" rx="12.5" ry="12.5" style="stroke:#181818;stroke-width:0.5;" width="90.2939" x="410.99" y="678.5869"/><line style="stroke:#181818;stroke-width:0.5;" x1="410.99" x2="501.2839" y1="704.8838" y2="704.8838"/><text fill="#000000" font-family="sans-serif" font-size="14" lengthAdjust="spacing" textLength="70.2939" x="420.99" y="696.582">Pendiente</text></g><g id="ReservaState.Confirmada"><rect fill="#F1F1F1" height="50" rx="12.5" ry="12.5" style="stroke:#181818;stroke-width:0.5;" width="101.4707" x="405.4" y="781.5869"/><line style="stroke:#181818;stroke-width:0.5;" x1="405.4" x2="506.8707" y1="807.8838" y2="807.8838"/><text fill="#000000" font-family="sans-serif" font-size="14" lengthAdjust="spacing" textLength="81.4707" x="415.4" y="799.582">Confirmada</text></g><g id="ReservaState.Cancelada"><rect fill="#F1F1F1" height="50" rx="12.5" ry="12.5" style="stroke:#181818;stroke-width:0.5;" width="93.4727" x="348.4" y="884.5869"/><line style="stroke:#181818;stroke-width:0.5;" x1="348.4" x2="441.8727" y1="910.8838" y2="910.8838"/><text fill="#000000" font-family="sans-serif" font-size="14" lengthAdjust="spacing" textLength="73.4727" x="358.4" y="902.582">Cancelada</text></g><g id="ReservaState.Completada"><rect fill="#F1F1F1" height="50" rx="12.5" ry="12.5" style="stroke:#181818;stroke-width:0.5;" width="104.9023" x="464.69" y="884.5869"/><line style="stroke:#181818;stroke-width:0.5;" x1="464.69" x2="569.5923" y1="910.8838" y2="910.8838"/><text fill="#000000" font-family="sans-serif" font-size="14" lengthAdjust="spacing" textLength="84.9023" x="474.69" y="902.582">Completada</text></g><!--link *start*ReservaState to Pendiente--><g class="link" data-entity-1="*start*ReservaState" data-entity-2="Pendiente" data-source-line="9" data-uid="lnk12" id="link_*start*ReservaState_Pendiente"><path d="M456.14,642.0269 C456.14,651.2869 456.14,659.7769 456.14,672.2669 " fill="none" id="*start*ReservaState-to-Pendiente" style="stroke:#181818;stroke-width:1;"/><polygon fill="#181818" points="456.14,678.2669,460.14,669.2669,456.14,673.2669,452.14,669.2669,456.14,678.2669" style="stroke:#181818;stroke-width:1;"/></g><!--link Pendiente to Confirmada--><g class="link" data-entity-1="Pendiente" data-entity-2="Confirmada" data-source-line="10" data-uid="lnk14" id="link_Pendiente_Confirmada"><path d="M456.14,729.0369 C456.14,744.9169 456.14,759.5269 456.14,775.3669 " fill="none" id="Pendiente-to-Confirmada" style="stroke:#181818;stroke-width:1;"/><polygon fill="#181818" points="456.14,781.3669,460.14,772.3669,456.14,776.3669,452.14,772.3669,456.14,781.3669" style="stroke:#181818;stroke-width:1;"/><text fill="#000000" font-family="sans-serif" font-size="13" lengthAdjust="spacing" textLength="105.3394" x="457.14" y="759.6538">cliente confirma</text></g><!--link Confirmada to Cancelada--><g class="link" data-entity-1="Confirmada" data-entity-2="Cancelada" data-source-line="11" data-uid="lnk16" id="link_Confirmada_Cancelada"><path d="M410.78,831.8969 C404.91,836.9669 399.72,842.8469 396.14,849.5869 C390.56,860.0769 389.3649,867.1949 390.2349,878.3849 " fill="none" id="Confirmada-to-Cancelada" style="stroke:#181818;stroke-width:1;"/><polygon fill="#181818" points="390.7,884.3669,393.9903,875.0839,390.3124,879.3819,386.0144,875.704,390.7,884.3669" style="stroke:#181818;stroke-width:1;"/><text fill="#000000" font-family="sans-serif" font-size="13" lengthAdjust="spacing" textLength="97.9126" x="397.14" y="862.6538">cliente cancela</text></g><!--link Confirmada to Completada--><g class="link" data-entity-1="Confirmada" data-entity-2="Completada" data-source-line="12" data-uid="lnk18" id="link_Confirmada_Completada"><path d="M481.79,832.0369 C486.65,837.4969 491.38,843.4869 495.14,849.5869 C501.74,860.2869 504.9851,867.574 508.6051,878.644 " fill="none" id="Confirmada-to-Completada" style="stroke:#181818;stroke-width:1;"/><polygon fill="#181818" points="510.47,884.3469,511.4746,874.5494,508.9159,879.5945,503.8708,877.0359,510.47,884.3469" style="stroke:#181818;stroke-width:1;"/><text fill="#000000" font-family="sans-serif" font-size="13" lengthAdjust="spacing" textLength="173.4561" x="504.14" y="862.6538">cliente llega y usa la mesa</text></g><!--link *start*PedidoState to EnEspera--><g class="link" data-entity-1="*start*PedidoState" data-entity-2="EnEspera" data-source-line="16" data-uid="lnk21" id="link_*start*PedidoState_EnEspera"><path d="M74,70.43 C74,107.7 74,239.37 74,295.79 " fill="none" id="*start*PedidoState-to-EnEspera" style="stroke:#181818;stroke-width:1;"/><polygon fill="#181818" points="74,301.79,78,292.79,74,296.79,70,292.79,74,301.79" style="stroke:#181818;stroke-width:1;"/></g><!--link EnEspera to EnPreparaci?n--><g class="link" data-entity-1="EnEspera" data-entity-2="EnPreparaci&#243;n" data-source-line="17" data-uid="lnk23" id="link_EnEspera_EnPreparaci&#243;n"><path d="M75.06,352.48 C78.39,428.75 88.3388,656.6057 91.6688,733.0157 " fill="none" id="EnEspera-to-EnPreparaci&#243;n" style="stroke:#181818;stroke-width:1;"/><polygon fill="#181818" points="91.93,739.01,95.5344,729.8444,91.7123,734.0147,87.5419,730.1927,91.93,739.01" style="stroke:#181818;stroke-width:1;"/><text fill="#000000" font-family="sans-serif" font-size="13" lengthAdjust="spacing" textLength="175.9253" x="85" y="550.3569">cocinero inicia preparaci&#243;n</text></g><!--link EnPreparaci?n to ListoParaServir--><g class="link" data-entity-1="EnPreparaci&#243;n" data-entity-2="ListoParaServir" data-source-line="18" data-uid="lnk25" id="link_EnPreparaci&#243;n_ListoParaServir"><path d="M93.08,789.91 C93.27,846.67 93.7098,980.74 93.8998,1037.31 " fill="none" id="EnPreparaci&#243;n-to-ListoParaServir" style="stroke:#181818;stroke-width:1;"/><polygon fill="#181818" points="93.92,1043.31,97.8897,1034.2966,93.9032,1038.31,89.8898,1034.3235,93.92,1043.31" style="stroke:#181818;stroke-width:1;"/><text fill="#000000" font-family="sans-serif" font-size="13" lengthAdjust="spacing" textLength="125.3472" x="95" y="987.6569">pedido completado</text></g><!--link ListoParaServir to Servido--><g class="link" data-entity-1="ListoParaServir" data-entity-2="Servido" data-source-line="19" data-uid="lnk27" id="link_ListoParaServir_Servido"><path d="M90.29,1093.99 C86.94,1116.01 82.9406,1142.318 79.6006,1164.318 " fill="none" id="ListoParaServir-to-Servido" style="stroke:#181818;stroke-width:1;"/><polygon fill="#181818" points="78.7,1170.25,84.0056,1161.9524,79.4505,1165.3066,76.0962,1160.7516,78.7,1170.25" style="stroke:#181818;stroke-width:1;"/><text fill="#000000" font-family="sans-serif" font-size="13" lengthAdjust="spacing" textLength="180.959" x="87" y="1136.6569">camarero entrega al cliente</text></g><!--link Servido to Cerrado--><g class="link" data-entity-1="Servido" data-entity-2="Cerrado" data-source-line="20" data-uid="lnk29" id="link_Servido_Cerrado"><path d="M73.19,1220.94 C73.03,1240.36 75.83,1267.23 90,1285.59 C109.82,1311.27 138.7828,1323.5231 165.8028,1330.7331 " fill="none" id="Servido-to-Cerrado" style="stroke:#181818;stroke-width:1;"/><polygon fill="#181818" points="171.6,1332.28,163.9355,1326.0949,166.769,1330.9909,161.873,1333.8244,171.6,1332.28" style="stroke:#181818;stroke-width:1;"/><text fill="#000000" font-family="sans-serif" font-size="13" lengthAdjust="spacing" textLength="80.2725" x="91" y="1281.6569">cliente paga</text></g><!--link *start*RestauranteState to Abierto--><g class="link" data-entity-1="*start*RestauranteState" data-entity-2="Abierto" data-source-line="24" data-uid="lnk32" id="link_*start*RestauranteState_Abierto"><path d="M379,1078.99 C379,1098.18 379,1136.41 379,1164.26 " fill="none" id="*start*RestauranteState-to-Abierto" style="stroke:#181818;stroke-width:1;"/><polygon fill="#181818" points="379,1170.26,383,1161.26,379,1165.26,375,1161.26,379,1170.26" style="stroke:#181818;stroke-width:1;"/></g><!--link Abierto to Cerrado--><g class="link" data-entity-1="Abierto" data-entity-2="Cerrado" data-source-line="25" data-uid="lnk33" id="link_Abierto_Cerrado"><path d="M371.51,1220.94 C364.38,1240.61 351.9,1267.85 333,1285.59 C309.19,1307.93 280.3736,1320.222 253.9436,1328.372 " fill="none" id="Abierto-to-Cerrado" style="stroke:#181818;stroke-width:1;"/><polygon fill="#181818" points="248.21,1330.14,257.9891,1331.3104,252.988,1328.6666,255.6317,1323.6656,248.21,1330.14" style="stroke:#181818;stroke-width:1;"/><text fill="#000000" font-family="sans-serif" font-size="13" lengthAdjust="spacing" textLength="90.2764" x="349" y="1281.6569">fin de jornada</text></g><!--link Cerrado to Abierto--><g class="link" data-entity-1="Cerrado" data-entity-2="Abierto" data-source-line="26" data-uid="lnk34" id="link_Cerrado_Abierto"><path d="M204.76,1315.26 C202.98,1299.98 203.76,1280.91 215,1268.59 C229.87,1252.29 243.16,1267.84 264,1260.59 C292.05,1250.83 316.1819,1237.6598 338.1519,1223.9298 " fill="none" id="Cerrado-to-Abierto" style="stroke:#181818;stroke-width:1;"/><polygon fill="#181818" points="343.24,1220.75,333.488,1222.1276,338.9999,1223.3998,337.7277,1228.9118,343.24,1220.75" style="stroke:#181818;stroke-width:1;"/><text fill="#000000" font-family="sans-serif" font-size="13" lengthAdjust="spacing" textLength="108.0244" x="216" y="1281.6569">inicio de jornada</text></g><!--link MesaState to ReservaState--><g class="link" data-entity-1="MesaState" data-entity-2="ReservaState" data-source-line="29" data-uid="lnk35" id="link_MesaState_ReservaState"><path d="M373.74,507.55 C371.64,522.99 372.4,538.68 377,554.29 C379.93,564.24 381.2076,568.6152 385.2676,578.4352 " fill="none" id="MesaState-to-ReservaState" style="stroke:#181818;stroke-width:1;"/><polygon fill="#181818" points="387.56,583.98,387.8179,574.1345,385.6496,579.3593,380.4248,577.1911,387.56,583.98" style="stroke:#181818;stroke-width:1;"/><text fill="#000000" font-family="sans-serif" font-size="13" lengthAdjust="spacing" textLength="103.4224" x="378" y="550.3569">Mesa reservada</text></g><!--link ReservaState to MesaState--><g class="link" data-entity-1="ReservaState" data-entity-2="MesaState" data-source-line="30" data-uid="lnk36" id="link_ReservaState_MesaState"><path d="M509.53,583.94 C509.18,558.76 508.901,538.8895 508.561,513.7095 " fill="none" id="ReservaState-to-MesaState" style="stroke:#181818;stroke-width:1;"/><polygon fill="#181818" points="508.48,507.71,504.6019,516.7632,508.5475,512.7095,512.6011,516.6552,508.48,507.71" style="stroke:#181818;stroke-width:1;"/><text fill="#000000" font-family="sans-serif" font-size="13" lengthAdjust="spacing" textLength="133.8467" x="510" y="550.3569">Reserva completada</text></g><!--link PedidoState to MesaState--><g class="link" data-entity-1="PedidoState" data-entity-2="MesaState" data-source-line="31" data-uid="lnk37" id="link_PedidoState_MesaState"><path d="M280.0078,70.0696 C280.0749,70.1457 280.1424,70.2222 280.2103,70.2991 C280.7535,70.9146 281.3212,71.558 281.9126,72.2282 C283.0955,73.5688 284.3736,75.0171 285.7409,76.5666 C288.4755,79.6655 291.5672,83.1691 294.9688,87.0237 C308.575,102.4425 323.1698,118.9814 343.6798,142.2214 " fill="none" id="PedidoState-to-MesaState" style="stroke:#181818;stroke-width:1;"/><polygon fill="#181818" points="347.65,146.72,344.6938,137.3253,344.3415,142.9711,338.6956,142.6188,347.65,146.72" style="stroke:#181818;stroke-width:1;"/><text fill="#000000" font-family="sans-serif" font-size="13" lengthAdjust="spacing" textLength="222.2949" x="318" y="113.0669">Pedido vinculado a mesa ocupada</text></g><!--link PedidoState to RestauranteState--><g class="link" data-entity-1="PedidoState" data-entity-2="RestauranteState" data-source-line="32" data-uid="lnk38" id="link_PedidoState_RestauranteState"><path d="M280.1015,61.1434 C281.0558,61.1637 282.0893,61.1865 283.1995,61.2122 C285.4199,61.2637 287.9468,61.3265 290.7586,61.403 C302.0059,61.7088 317.8131,62.232 336.8063,63.1102 C374.7925,64.8666 425.5225,68.0431 478.005,73.7412 C582.97,85.1375 694.945,106.62 726,147 C763.99,196.39 715.48,927.45 705,944.59 C676.845,990.66 624.565,1021.1775 578.7275,1040.2913 C555.8088,1049.8481 534.5006,1056.5541 518.6241,1060.9277 C510.6858,1063.1145 509.9543,1063.3802 505.2094,1064.4656 " fill="none" id="PedidoState-to-RestauranteState" style="stroke:#181818;stroke-width:1;"/><polygon fill="#181818" points="499.3605,1065.8036,509.0259,1067.6959,504.2346,1064.6886,507.2419,1059.8973,499.3605,1065.8036" style="stroke:#181818;stroke-width:1;"/><text fill="#000000" font-family="sans-serif" font-size="13" lengthAdjust="spacing" textLength="223.1772" x="735" y="550.3569">Pedido realizado durante apertura</text></g><!--SRC=[RLDBJWCn3DtFAQmkaNg1Bf0GwWx4Y2uH2tV6hO8oIPJCL0B4gJW25yDnaiwdqqqT-_dptjYXnvvWimyzjXPQWcSAk04COXma-bq1_zxktc6xlOSdTVGa7h74zqg1_0LRX1tuPFC_QlN5Fi6EY8X_QGQNq8rMPBY7rdHEo1AxzfgW0W5N_eIEPmCAe5NdL6pnKrLXoIIt53BPNkDJascbkdYlBuazMdDIlfkFscIdu2S8IK3Ja5xWasyLRZkdgL-HWaaEp56ZS5tbLrEhMYlqahd6Rc_smP5FtSiZHsfF3Zqswk_NnFwsKOQy1MLKen3S99pJPndf0uNUrkmwiBpASnKdet2npCpcLPdZOgwO3ENEsA6FdPc_Z-HH5pKako15Cl8UKrRMo-5vLI0TltgFWqT6bIqexpMj7ewAV9y6plQYvKcPgFo7zQOiTWbE2Z1G9BHJB0yuNjJaPf9Z9-TMReVXisY4ZycxaZgAZDLq0vRm58EBCisWuwnfgS2cIxl9lP7fMgBSD3DBSK3UfvxjVm00]--></g></svg>