<svg xmlns="http://www.w3.org/2000/svg" xmlns:xlink="http://www.w3.org/1999/xlink" contentStyleType="text/css" data-diagram-type="CLASS" height="762px" preserveAspectRatio="none" style="width:1153px;height:762px;background:#FFFFFF;" version="1.1" viewBox="0 0 1153 762" width="1153px" zoomAndPan="magnify"><defs/><g><!--class Mesa--><g id="elem_Mesa"><rect codeLine="3" fill="#F1F1F1" height="113.1875" id="Mesa" rx="2.5" ry="2.5" style="stroke:#181818;stroke-width:0.5;" width="166.8203" x="652" y="221"/><ellipse cx="712.8774" cy="237" fill="#ADD1B2" rx="11" ry="11" style="stroke:#181818;stroke-width:1;"/><path d="M715.8462,242.6406 Q715.2681,242.9375 714.6274,243.0781 Q713.9868,243.2344 713.2837,243.2344 Q710.7837,243.2344 709.4556,241.5938 Q708.1431,239.9375 708.1431,236.8125 Q708.1431,233.6875 709.4556,232.0313 Q710.7837,230.375 713.2837,230.375 Q713.9868,230.375 714.6274,230.5313 Q715.2837,230.6875 715.8462,230.9844 L715.8462,233.7031 Q715.2212,233.125 714.6274,232.8594 Q714.0337,232.5781 713.4087,232.5781 Q712.0649,232.5781 711.3774,233.6563 Q710.6899,234.7188 710.6899,236.8125 Q710.6899,238.9063 711.3774,239.9844 Q712.0649,241.0469 713.4087,241.0469 Q714.0337,241.0469 714.6274,240.7813 Q715.2212,240.5 715.8462,239.9219 L715.8462,242.6406 Z " fill="#000000"/><text fill="#000000" font-family="sans-serif" font-size="14" lengthAdjust="spacing" textLength="36.5654" x="733.3774" y="241.8467">Mesa</text><line style="stroke:#181818;stroke-width:0.5;" x1="653" x2="817.8203" y1="253" y2="253"/><ellipse cx="663" cy="266.6484" fill="transparent" rx="3" ry="3" style="stroke:#038048;stroke-width:1;"/><text fill="#000000" font-family="sans-serif" font-size="14" lengthAdjust="spacing" textLength="81.7373" x="672" y="269.9951">numero: int</text><ellipse cx="663" cy="282.9453" fill="transparent" rx="3" ry="3" style="stroke:#038048;stroke-width:1;"/><text fill="#000000" font-family="sans-serif" font-size="14" lengthAdjust="spacing" textLength="99.1006" x="672" y="286.292">capacidad: int</text><ellipse cx="663" cy="299.2422" fill="transparent" rx="3" ry="3" style="stroke:#038048;stroke-width:1;"/><text fill="#000000" font-family="sans-serif" font-size="14" lengthAdjust="spacing" textLength="111.7266" x="672" y="302.5889">ubicacion: Zona</text><ellipse cx="663" cy="315.5391" fill="transparent" rx="3" ry="3" style="stroke:#038048;stroke-width:1;"/><text fill="#000000" font-family="sans-serif" font-size="14" lengthAdjust="spacing" textLength="140.8203" x="672" y="318.8857">estado: EstadoMesa</text><line style="stroke:#181818;stroke-width:0.5;" x1="653" x2="817.8203" y1="326.1875" y2="326.1875"/></g><!--class Reserva--><g id="elem_Reserva"><rect codeLine="10" fill="#F1F1F1" height="145.7813" id="Reserva" rx="2.5" ry="2.5" style="stroke:#181818;stroke-width:0.5;" width="187.123" x="216" y="419"/><ellipse cx="276.8774" cy="435" fill="#ADD1B2" rx="11" ry="11" style="stroke:#181818;stroke-width:1;"/><path d="M279.8462,440.6406 Q279.2681,440.9375 278.6274,441.0781 Q277.9868,441.2344 277.2837,441.2344 Q274.7837,441.2344 273.4556,439.5938 Q272.1431,437.9375 272.1431,434.8125 Q272.1431,431.6875 273.4556,430.0313 Q274.7837,428.375 277.2837,428.375 Q277.9868,428.375 278.6274,428.5313 Q279.2837,428.6875 279.8462,428.9844 L279.8462,431.7031 Q279.2212,431.125 278.6274,430.8594 Q278.0337,430.5781 277.4087,430.5781 Q276.0649,430.5781 275.3774,431.6563 Q274.6899,432.7188 274.6899,434.8125 Q274.6899,436.9063 275.3774,437.9844 Q276.0649,439.0469 277.4087,439.0469 Q278.0337,439.0469 278.6274,438.7813 Q279.2212,438.5 279.8462,437.9219 L279.8462,440.6406 Z " fill="#000000"/><text fill="#000000" font-family="sans-serif" font-size="14" lengthAdjust="spacing" textLength="56.8682" x="297.3774" y="439.8467">Reserva</text><line style="stroke:#181818;stroke-width:0.5;" x1="217" x2="402.123" y1="451" y2="451"/><ellipse cx="227" cy="464.6484" fill="transparent" rx="3" ry="3" style="stroke:#038048;stroke-width:1;"/><text fill="#000000" font-family="sans-serif" font-size="14" lengthAdjust="spacing" textLength="105.376" x="236" y="467.9951">cliente: Cliente</text><ellipse cx="227" cy="480.9453" fill="transparent" rx="3" ry="3" style="stroke:#038048;stroke-width:1;"/><text fill="#000000" font-family="sans-serif" font-size="14" lengthAdjust="spacing" textLength="81.3203" x="236" y="484.292">fecha: Date</text><ellipse cx="227" cy="497.2422" fill="transparent" rx="3" ry="3" style="stroke:#038048;stroke-width:1;"/><text fill="#000000" font-family="sans-serif" font-size="14" lengthAdjust="spacing" textLength="75.6328" x="236" y="500.5889">hora: Time</text><ellipse cx="227" cy="513.5391" fill="transparent" rx="3" ry="3" style="stroke:#038048;stroke-width:1;"/><text fill="#000000" font-family="sans-serif" font-size="14" lengthAdjust="spacing" textLength="148.8594" x="236" y="516.8857">num_comensales: int</text><ellipse cx="227" cy="529.8359" fill="transparent" rx="3" ry="3" style="stroke:#038048;stroke-width:1;"/><text fill="#000000" font-family="sans-serif" font-size="14" lengthAdjust="spacing" textLength="138.4482" x="236" y="533.1826">preferencias: String</text><ellipse cx="227" cy="546.1328" fill="transparent" rx="3" ry="3" style="stroke:#038048;stroke-width:1;"/><text fill="#000000" font-family="sans-serif" font-size="14" lengthAdjust="spacing" textLength="161.123" x="236" y="549.4795">estado: EstadoReserva</text><line style="stroke:#181818;stroke-width:0.5;" x1="217" x2="402.123" y1="556.7813" y2="556.7813"/></g><!--class Pedido--><g id="elem_Pedido"><rect codeLine="19" fill="#F1F1F1" height="145.7813" id="Pedido" rx="2.5" ry="2.5" style="stroke:#181818;stroke-width:0.5;" width="243.4854" x="445" y="419"/><ellipse cx="538.8506" cy="435" fill="#ADD1B2" rx="11" ry="11" style="stroke:#181818;stroke-width:1;"/><path d="M541.8193,440.6406 Q541.2412,440.9375 540.6006,441.0781 Q539.96,441.2344 539.2568,441.2344 Q536.7568,441.2344 535.4287,439.5938 Q534.1162,437.9375 534.1162,434.8125 Q534.1162,431.6875 535.4287,430.0313 Q536.7568,428.375 539.2568,428.375 Q539.96,428.375 540.6006,428.5313 Q541.2568,428.6875 541.8193,428.9844 L541.8193,431.7031 Q541.1943,431.125 540.6006,430.8594 Q540.0068,430.5781 539.3818,430.5781 Q538.0381,430.5781 537.3506,431.6563 Q536.6631,432.7188 536.6631,434.8125 Q536.6631,436.9063 537.3506,437.9844 Q538.0381,439.0469 539.3818,439.0469 Q540.0068,439.0469 540.6006,438.7813 Q541.1943,438.5 541.8193,437.9219 L541.8193,440.6406 Z " fill="#000000"/><text fill="#000000" font-family="sans-serif" font-size="14" lengthAdjust="spacing" textLength="47.2842" x="559.3506" y="439.8467">Pedido</text><line style="stroke:#181818;stroke-width:0.5;" x1="446" x2="687.4854" y1="451" y2="451"/><ellipse cx="456" cy="464.6484" fill="transparent" rx="3" ry="3" style="stroke:#038048;stroke-width:1;"/><text fill="#000000" font-family="sans-serif" font-size="14" lengthAdjust="spacing" textLength="83.8564" x="465" y="467.9951">mesa: Mesa</text><ellipse cx="456" cy="480.9453" fill="transparent" rx="3" ry="3" style="stroke:#038048;stroke-width:1;"/><text fill="#000000" font-family="sans-serif" font-size="14" lengthAdjust="spacing" textLength="134.7705" x="465" y="484.292">platos: List&lt;Plato&gt;</text><ellipse cx="456" cy="497.2422" fill="transparent" rx="3" ry="3" style="stroke:#038048;stroke-width:1;"/><text fill="#000000" font-family="sans-serif" font-size="14" lengthAdjust="spacing" textLength="181.1318" x="465" y="500.5889">tiempo_pedido: DateTime</text><ellipse cx="456" cy="513.5391" fill="transparent" rx="3" ry="3" style="stroke:#038048;stroke-width:1;"/><text fill="#000000" font-family="sans-serif" font-size="14" lengthAdjust="spacing" textLength="217.4854" x="465" y="516.8857">tiempo_preparacion: DateTime</text><ellipse cx="456" cy="529.8359" fill="transparent" rx="3" ry="3" style="stroke:#038048;stroke-width:1;"/><text fill="#000000" font-family="sans-serif" font-size="14" lengthAdjust="spacing" textLength="187.3936" x="465" y="533.1826">tiempo_servicio: DateTime</text><ellipse cx="456" cy="546.1328" fill="transparent" rx="3" ry="3" style="stroke:#038048;stroke-width:1;"/><text fill="#000000" font-family="sans-serif" font-size="14" lengthAdjust="spacing" textLength="134.4697" x="465" y="549.4795">importe_total: float</text><line style="stroke:#181818;stroke-width:0.5;" x1="446" x2="687.4854" y1="556.7813" y2="556.7813"/></g><!--class Plato--><g id="elem_Plato"><rect codeLine="28" fill="#F1F1F1" height="96.8906" id="Plato" rx="2.5" ry="2.5" style="stroke:#181818;stroke-width:0.5;" width="193.583" x="477.5" y="650"/><ellipse cx="552.5586" cy="666" fill="#ADD1B2" rx="11" ry="11" style="stroke:#181818;stroke-width:1;"/><path d="M555.5273,671.6406 Q554.9492,671.9375 554.3086,672.0781 Q553.668,672.2344 552.9648,672.2344 Q550.4648,672.2344 549.1367,670.5938 Q547.8242,668.9375 547.8242,665.8125 Q547.8242,662.6875 549.1367,661.0313 Q550.4648,659.375 552.9648,659.375 Q553.668,659.375 554.3086,659.5313 Q554.9648,659.6875 555.5273,659.9844 L555.5273,662.7031 Q554.9023,662.125 554.3086,661.8594 Q553.7148,661.5781 553.0898,661.5781 Q551.7461,661.5781 551.0586,662.6563 Q550.3711,663.7188 550.3711,665.8125 Q550.3711,667.9063 551.0586,668.9844 Q551.7461,670.0469 553.0898,670.0469 Q553.7148,670.0469 554.3086,669.7813 Q554.9023,669.5 555.5273,668.9219 L555.5273,671.6406 Z " fill="#000000"/><text fill="#000000" font-family="sans-serif" font-size="14" lengthAdjust="spacing" textLength="34.9658" x="573.0586" y="670.8467">Plato</text><line style="stroke:#181818;stroke-width:0.5;" x1="478.5" x2="670.083" y1="682" y2="682"/><ellipse cx="488.5" cy="695.6484" fill="transparent" rx="3" ry="3" style="stroke:#038048;stroke-width:1;"/><text fill="#000000" font-family="sans-serif" font-size="14" lengthAdjust="spacing" textLength="105.2803" x="497.5" y="698.9951">nombre: String</text><ellipse cx="488.5" cy="711.9453" fill="transparent" rx="3" ry="3" style="stroke:#038048;stroke-width:1;"/><text fill="#000000" font-family="sans-serif" font-size="14" lengthAdjust="spacing" textLength="84.0273" x="497.5" y="715.292">precio: float</text><ellipse cx="488.5" cy="728.2422" fill="transparent" rx="3" ry="3" style="stroke:#038048;stroke-width:1;"/><text fill="#000000" font-family="sans-serif" font-size="14" lengthAdjust="spacing" textLength="167.583" x="497.5" y="731.5889">tiempo_preparacion: int</text><line style="stroke:#181818;stroke-width:0.5;" x1="478.5" x2="670.083" y1="738.8906" y2="738.8906"/></g><!--class Empleado--><g id="elem_Empleado"><rect codeLine="34" fill="#F1F1F1" height="129.4844" id="Empleado" rx="2.5" ry="2.5" style="stroke:#181818;stroke-width:0.5;" width="242.9453" x="786" y="7"/><ellipse cx="868.2705" cy="23" fill="#ADD1B2" rx="11" ry="11" style="stroke:#181818;stroke-width:1;"/><path d="M871.2393,28.6406 Q870.6611,28.9375 870.0205,29.0781 Q869.3799,29.2344 868.6768,29.2344 Q866.1768,29.2344 864.8486,27.5938 Q863.5361,25.9375 863.5361,22.8125 Q863.5361,19.6875 864.8486,18.0313 Q866.1768,16.375 868.6768,16.375 Q869.3799,16.375 870.0205,16.5313 Q870.6768,16.6875 871.2393,16.9844 L871.2393,19.7031 Q870.6143,19.125 870.0205,18.8594 Q869.4268,18.5781 868.8018,18.5781 Q867.458,18.5781 866.7705,19.6563 Q866.083,20.7188 866.083,22.8125 Q866.083,24.9063 866.7705,25.9844 Q867.458,27.0469 868.8018,27.0469 Q869.4268,27.0469 870.0205,26.7813 Q870.6143,26.5 871.2393,25.9219 L871.2393,28.6406 Z " fill="#000000"/><text fill="#000000" font-family="sans-serif" font-size="14" lengthAdjust="spacing" textLength="69.9043" x="888.7705" y="27.8467">Empleado</text><line style="stroke:#181818;stroke-width:0.5;" x1="787" x2="1027.9453" y1="39" y2="39"/><ellipse cx="797" cy="52.6484" fill="transparent" rx="3" ry="3" style="stroke:#038048;stroke-width:1;"/><text fill="#000000" font-family="sans-serif" font-size="14" lengthAdjust="spacing" textLength="105.2803" x="806" y="55.9951">nombre: String</text><ellipse cx="797" cy="68.9453" fill="transparent" rx="3" ry="3" style="stroke:#038048;stroke-width:1;"/><text fill="#000000" font-family="sans-serif" font-size="14" lengthAdjust="spacing" textLength="119.4648" x="806" y="72.292">rol: RolEmpleado</text><ellipse cx="797" cy="85.2422" fill="transparent" rx="3" ry="3" style="stroke:#038048;stroke-width:1;"/><text fill="#000000" font-family="sans-serif" font-size="14" lengthAdjust="spacing" textLength="216.9453" x="806" y="88.5889">mesas_asignadas: List&lt;Mesa&gt;</text><ellipse cx="797" cy="101.5391" fill="transparent" rx="3" ry="3" style="stroke:#038048;stroke-width:1;"/><text fill="#000000" font-family="sans-serif" font-size="14" lengthAdjust="spacing" textLength="215.4688" x="806" y="104.8857">horario_trabajo: List&lt;Horario&gt;</text><ellipse cx="797" cy="117.8359" fill="transparent" rx="3" ry="3" style="stroke:#038048;stroke-width:1;"/><text fill="#000000" font-family="sans-serif" font-size="14" lengthAdjust="spacing" textLength="181.8359" x="806" y="121.1826">descansos: List&lt;Horario&gt;</text><line style="stroke:#181818;stroke-width:0.5;" x1="787" x2="1027.9453" y1="128.4844" y2="128.4844"/></g><!--class Cliente--><g id="elem_Cliente"><rect codeLine="42" fill="#F1F1F1" height="96.8906" id="Cliente" rx="2.5" ry="2.5" style="stroke:#181818;stroke-width:0.5;" width="263.3848" x="7" y="650"/><ellipse cx="109.8706" cy="666" fill="#ADD1B2" rx="11" ry="11" style="stroke:#181818;stroke-width:1;"/><path d="M112.8394,671.6406 Q112.2612,671.9375 111.6206,672.0781 Q110.98,672.2344 110.2769,672.2344 Q107.7769,672.2344 106.4487,670.5938 Q105.1362,668.9375 105.1362,665.8125 Q105.1362,662.6875 106.4487,661.0313 Q107.7769,659.375 110.2769,659.375 Q110.98,659.375 111.6206,659.5313 Q112.2769,659.6875 112.8394,659.9844 L112.8394,662.7031 Q112.2144,662.125 111.6206,661.8594 Q111.0269,661.5781 110.4019,661.5781 Q109.0581,661.5781 108.3706,662.6563 Q107.6831,663.7188 107.6831,665.8125 Q107.6831,667.9063 108.3706,668.9844 Q109.0581,670.0469 110.4019,670.0469 Q111.0269,670.0469 111.6206,669.7813 Q112.2144,669.5 112.8394,668.9219 L112.8394,671.6406 Z " fill="#000000"/><text fill="#000000" font-family="sans-serif" font-size="14" lengthAdjust="spacing" textLength="49.1436" x="130.3706" y="670.8467">Cliente</text><line style="stroke:#181818;stroke-width:0.5;" x1="8" x2="269.3848" y1="682" y2="682"/><ellipse cx="18" cy="695.6484" fill="transparent" rx="3" ry="3" style="stroke:#038048;stroke-width:1;"/><text fill="#000000" font-family="sans-serif" font-size="14" lengthAdjust="spacing" textLength="105.2803" x="27" y="698.9951">nombre: String</text><ellipse cx="18" cy="711.9453" fill="transparent" rx="3" ry="3" style="stroke:#038048;stroke-width:1;"/><text fill="#000000" font-family="sans-serif" font-size="14" lengthAdjust="spacing" textLength="111.9043" x="27" y="715.292">contacto: String</text><ellipse cx="18" cy="728.2422" fill="transparent" rx="3" ry="3" style="stroke:#038048;stroke-width:1;"/><text fill="#000000" font-family="sans-serif" font-size="14" lengthAdjust="spacing" textLength="237.3848" x="27" y="731.5889">historial_reservas: List&lt;Reserva&gt;</text><line style="stroke:#181818;stroke-width:0.5;" x1="8" x2="269.3848" y1="738.8906" y2="738.8906"/></g><!--class Horario--><g id="elem_Horario"><rect codeLine="48" fill="#F1F1F1" height="80.5938" id="Horario" rx="2.5" ry="2.5" style="stroke:#181818;stroke-width:0.5;" width="106.6641" x="854" y="237"/><ellipse cx="879.3614" cy="253" fill="#ADD1B2" rx="11" ry="11" style="stroke:#181818;stroke-width:1;"/><path d="M882.3302,258.6406 Q881.7521,258.9375 881.1114,259.0781 Q880.4708,259.2344 879.7677,259.2344 Q877.2677,259.2344 875.9396,257.5938 Q874.6271,255.9375 874.6271,252.8125 Q874.6271,249.6875 875.9396,248.0313 Q877.2677,246.375 879.7677,246.375 Q880.4708,246.375 881.1114,246.5313 Q881.7677,246.6875 882.3302,246.9844 L882.3302,249.7031 Q881.7052,249.125 881.1114,248.8594 Q880.5177,248.5781 879.8927,248.5781 Q878.5489,248.5781 877.8614,249.6563 Q877.1739,250.7188 877.1739,252.8125 Q877.1739,254.9063 877.8614,255.9844 Q878.5489,257.0469 879.8927,257.0469 Q880.5177,257.0469 881.1114,256.7813 Q881.7052,256.5 882.3302,255.9219 L882.3302,258.6406 Z " fill="#000000"/><text fill="#000000" font-family="sans-serif" font-size="14" lengthAdjust="spacing" textLength="51.6387" x="895.664" y="257.8467">Horario</text><line style="stroke:#181818;stroke-width:0.5;" x1="855" x2="959.6641" y1="269" y2="269"/><ellipse cx="865" cy="282.6484" fill="transparent" rx="3" ry="3" style="stroke:#038048;stroke-width:1;"/><text fill="#000000" font-family="sans-serif" font-size="14" lengthAdjust="spacing" textLength="80.6641" x="874" y="285.9951">inicio: Time</text><ellipse cx="865" cy="298.9453" fill="transparent" rx="3" ry="3" style="stroke:#038048;stroke-width:1;"/><text fill="#000000" font-family="sans-serif" font-size="14" lengthAdjust="spacing" textLength="61.5508" x="874" y="302.292">fin: Time</text><line style="stroke:#181818;stroke-width:0.5;" x1="855" x2="959.6641" y1="309.5938" y2="309.5938"/></g><!--class EstadoMesa--><g id="elem_EstadoMesa"><rect codeLine="53" fill="#F1F1F1" height="113.1875" id="EstadoMesa" rx="2.5" ry="2.5" style="stroke:#181818;stroke-width:0.5;" width="138.0547" x="723.5" y="435.5"/><ellipse cx="748.3231" cy="451.5" fill="#EB937F" rx="11" ry="11" style="stroke:#181818;stroke-width:1;"/><path d="M752.4325,457.5 L744.7137,457.5 L744.7137,445.1094 L752.4325,445.1094 L752.4325,447.2656 L747.1668,447.2656 L747.1668,449.9375 L751.9325,449.9375 L751.9325,452.0938 L747.1668,452.0938 L747.1668,455.3438 L752.4325,455.3438 L752.4325,457.5 Z " fill="#000000"/><text fill="#000000" font-family="sans-serif" font-size="14" lengthAdjust="spacing" textLength="84.2256" x="764.506" y="456.3467">EstadoMesa</text><line style="stroke:#181818;stroke-width:0.5;" x1="724.5" x2="860.5547" y1="467.5" y2="467.5"/><text fill="#000000" font-family="sans-serif" font-size="14" lengthAdjust="spacing" textLength="40.1064" x="729.5" y="484.4951">LIBRE</text><text fill="#000000" font-family="sans-serif" font-size="14" lengthAdjust="spacing" textLength="85.5449" x="729.5" y="500.792">RESERVADA</text><text fill="#000000" font-family="sans-serif" font-size="14" lengthAdjust="spacing" textLength="69.4189" x="729.5" y="517.0889">OCUPADA</text><text fill="#000000" font-family="sans-serif" font-size="14" lengthAdjust="spacing" textLength="126.0547" x="729.5" y="533.3857">EN_PREPARACION</text><line style="stroke:#181818;stroke-width:0.5;" x1="724.5" x2="860.5547" y1="540.6875" y2="540.6875"/></g><!--class EstadoReserva--><g id="elem_EstadoReserva"><rect codeLine="60" fill="#F1F1F1" height="113.1875" id="EstadoReserva" rx="2.5" ry="2.5" style="stroke:#181818;stroke-width:0.5;" width="136.5283" x="305" y="642"/><ellipse cx="320" cy="658" fill="#EB937F" rx="11" ry="11" style="stroke:#181818;stroke-width:1;"/><path d="M324.1094,664 L316.3906,664 L316.3906,651.6094 L324.1094,651.6094 L324.1094,653.7656 L318.8438,653.7656 L318.8438,656.4375 L323.6094,656.4375 L323.6094,658.5938 L318.8438,658.5938 L318.8438,661.8438 L324.1094,661.8438 L324.1094,664 Z " fill="#000000"/><text fill="#000000" font-family="sans-serif" font-size="14" lengthAdjust="spacing" textLength="104.5283" x="334" y="662.8467">EstadoReserva</text><line style="stroke:#181818;stroke-width:0.5;" x1="306" x2="440.5283" y1="674" y2="674"/><text fill="#000000" font-family="sans-serif" font-size="14" lengthAdjust="spacing" textLength="79.3857" x="311" y="690.9951">PENDIENTE</text><text fill="#000000" font-family="sans-serif" font-size="14" lengthAdjust="spacing" textLength="95.1904" x="311" y="707.292">CONFIRMADA</text><text fill="#000000" font-family="sans-serif" font-size="14" lengthAdjust="spacing" textLength="86.1807" x="311" y="723.5889">CANCELADA</text><text fill="#000000" font-family="sans-serif" font-size="14" lengthAdjust="spacing" textLength="96.4482" x="311" y="739.8857">COMPLETADA</text><line style="stroke:#181818;stroke-width:0.5;" x1="306" x2="440.5283" y1="747.1875" y2="747.1875"/></g><!--class RolEmpleado--><g id="elem_RolEmpleado"><rect codeLine="67" fill="#F1F1F1" height="129.4844" id="RolEmpleado" rx="2.5" ry="2.5" style="stroke:#181818;stroke-width:0.5;" width="150.3525" x="996.5" y="213"/><ellipse cx="1023.3195" cy="229" fill="#EB937F" rx="11" ry="11" style="stroke:#181818;stroke-width:1;"/><path d="M1027.4289,235 L1019.7102,235 L1019.7102,222.6094 L1027.4289,222.6094 L1027.4289,224.7656 L1022.1633,224.7656 L1022.1633,227.4375 L1026.9289,227.4375 L1026.9289,229.5938 L1022.1633,229.5938 L1022.1633,232.8438 L1027.4289,232.8438 L1027.4289,235 Z " fill="#000000"/><text fill="#000000" font-family="sans-serif" font-size="14" lengthAdjust="spacing" textLength="92.0869" x="1039.9461" y="233.8467">RolEmpleado</text><line style="stroke:#181818;stroke-width:0.5;" x1="997.5" x2="1145.8525" y1="245" y2="245"/><text fill="#000000" font-family="sans-serif" font-size="14" lengthAdjust="spacing" textLength="80.3291" x="1002.5" y="261.9951">CAMARERO</text><text fill="#000000" font-family="sans-serif" font-size="14" lengthAdjust="spacing" textLength="76.6035" x="1002.5" y="278.292">AYUDANTE</text><text fill="#000000" font-family="sans-serif" font-size="14" lengthAdjust="spacing" textLength="69.5146" x="1002.5" y="294.5889">SUMILLER</text><text fill="#000000" font-family="sans-serif" font-size="14" lengthAdjust="spacing" textLength="37.2012" x="1002.5" y="310.8857">CHEF</text><text fill="#000000" font-family="sans-serif" font-size="14" lengthAdjust="spacing" textLength="138.3525" x="1002.5" y="327.1826">AYUDANTE_COCINA</text><line style="stroke:#181818;stroke-width:0.5;" x1="997.5" x2="1145.8525" y1="334.4844" y2="334.4844"/></g><!--class Zona--><g id="elem_Zona"><rect codeLine="75" fill="#F1F1F1" height="96.8906" id="Zona" rx="2.5" ry="2.5" style="stroke:#181818;stroke-width:0.5;" width="139.251" x="897" y="443.5"/><ellipse cx="944.5713" cy="459.5" fill="#EB937F" rx="11" ry="11" style="stroke:#181818;stroke-width:1;"/><path d="M948.6807,465.5 L940.9619,465.5 L940.9619,453.1094 L948.6807,453.1094 L948.6807,455.2656 L943.415,455.2656 L943.415,457.9375 L948.1807,457.9375 L948.1807,460.0938 L943.415,460.0938 L943.415,463.3438 L948.6807,463.3438 L948.6807,465.5 Z " fill="#000000"/><text fill="#000000" font-family="sans-serif" font-size="14" lengthAdjust="spacing" textLength="35.6084" x="965.0713" y="464.3467">Zona</text><line style="stroke:#181818;stroke-width:0.5;" x1="898" x2="1035.251" y1="475.5" y2="475.5"/><text fill="#000000" font-family="sans-serif" font-size="14" lengthAdjust="spacing" textLength="65.5977" x="903" y="492.4951">TERRAZA</text><text fill="#000000" font-family="sans-serif" font-size="14" lengthAdjust="spacing" textLength="127.251" x="903" y="508.792">SALON_PRINCIPAL</text><text fill="#000000" font-family="sans-serif" font-size="14" lengthAdjust="spacing" textLength="118.0088" x="903" y="525.0889">SALON_PRIVADO</text><line style="stroke:#181818;stroke-width:0.5;" x1="898" x2="1035.251" y1="532.3906" y2="532.3906"/></g><!--link Mesa to Reserva--><g id="link_Mesa_Reserva"><path codeLine="81" d="M651.84,313.43 C589.14,340.38 501.74,379.6 427.5,419 C419.55,423.22 411.4,427.75 403.27,432.4 " fill="transparent" id="Mesa-Reserva" style="stroke:#181818;stroke-width:1;"/><text fill="#000000" font-family="sans-serif" font-size="13" lengthAdjust="spacing" textLength="59.0269" x="520.5" y="385.0669">asignada</text></g><!--link Mesa to Pedido--><g id="link_Mesa_Pedido"><path codeLine="82" d="M691.32,334.05 C670.68,360 645.86,391.22 623.8,418.95 " fill="transparent" id="Mesa-Pedido" style="stroke:#181818;stroke-width:1;"/><text fill="#000000" font-family="sans-serif" font-size="13" lengthAdjust="spacing" textLength="31.4209" x="662.5" y="385.0669">sirve</text></g><!--link Reserva to Cliente--><g id="link_Reserva_Cliente"><path codeLine="83" d="M215.66,543.49 C195.99,557.85 177.12,575.1 163.5,595 C152.48,611.1 146.31,631.54 142.85,649.93 " fill="transparent" id="Reserva-Cliente" style="stroke:#181818;stroke-width:1;"/><text fill="#000000" font-family="sans-serif" font-size="13" lengthAdjust="spacing" textLength="87.5913" x="164.5" y="608.0669">realizada_por</text></g><!--link Cliente to Reserva--><g id="link_Cliente_Reserva"><path codeLine="86" d="M216.58,649.94 C231.07,638.74 245.19,625.95 256.5,612 C267.75,598.12 277.11,581.48 284.67,565.1 " fill="transparent" id="Cliente-Reserva" style="stroke:#181818;stroke-width:1;"/><text fill="#000000" font-family="sans-serif" font-size="13" lengthAdjust="spacing" textLength="43.3228" x="268.5" y="608.0669">realiza</text></g><!--link Pedido to Plato--><g id="link_Pedido_Plato"><path codeLine="84" d="M569.32,565.1 C570.42,593.16 571.65,624.54 572.63,649.71 " fill="transparent" id="Pedido-Plato" style="stroke:#181818;stroke-width:1;"/><text fill="#000000" font-family="sans-serif" font-size="13" lengthAdjust="spacing" textLength="56.2847" x="572.5" y="608.0669">contiene</text></g><!--link Empleado to Mesa--><g id="link_Empleado_Mesa"><path codeLine="85" d="M850.39,136.02 C841.64,145.98 832.77,156.22 824.5,166 C809.55,183.68 793.58,203.27 779.35,220.99 " fill="transparent" id="Empleado-Mesa" style="stroke:#181818;stroke-width:1;"/><text fill="#000000" font-family="sans-serif" font-size="13" lengthAdjust="spacing" textLength="73.4932" x="825.5" y="179.0669">asignada_a</text></g><!--link Empleado to Horario--><g id="link_Empleado_Horario"><path codeLine="87" d="M907.5,136.21 C907.5,169.18 907.5,208.39 907.5,236.96 " fill="transparent" id="Empleado-Horario" style="stroke:#181818;stroke-width:1;"/><text fill="#000000" font-family="sans-serif" font-size="13" lengthAdjust="spacing" textLength="32.9443" x="908.5" y="179.0669">tiene</text></g><!--link Mesa to EstadoMesa--><g id="link_Mesa_EstadoMesa"><path codeLine="88" d="M750.4,334.05 C758.78,365.29 769.21,404.16 777.59,435.4 " fill="transparent" id="Mesa-EstadoMesa" style="stroke:#181818;stroke-width:1;"/></g><!--link Reserva to EstadoReserva--><g id="link_Reserva_EstadoReserva"><path codeLine="89" d="M338.33,565.04 C341.96,575.04 345.45,585.23 348.5,595 C353.19,610.04 357.55,626.54 361.27,641.83 " fill="transparent" id="Reserva-EstadoReserva" style="stroke:#181818;stroke-width:1;"/></g><!--link Empleado to RolEmpleado--><g id="link_Empleado_RolEmpleado"><path codeLine="90" d="M958.72,136.21 C978.36,160.64 1000.76,188.5 1020.39,212.92 " fill="transparent" id="Empleado-RolEmpleado" style="stroke:#181818;stroke-width:1;"/></g><!--link Mesa to Zona--><g id="link_Mesa_Zona"><path codeLine="91" d="M795.89,334.05 C832.79,367.99 879.48,410.95 914.69,443.34 " fill="transparent" id="Mesa-Zona" style="stroke:#181818;stroke-width:1;"/></g><!--SRC=[VLJ9Rjim4BthAtZheSWF24K0LMOG0R8aq7Q1vYACfR7DGY8DaicXHV-zf4Xg2TBeGixsvcaMVY4x3bS58v0UIJw0HfqadJqrsQC6yYSXzligNaTKCYLS6A_eu0uTxw5VwLxFlBDAALBo8WLu9Me3lOsaq-amaxyn0qEDwcrEqWqSXS7KyfWkNdl1xWOfsK5KtAIoyf6FE7DhEpcYq32WNl6vAxoWGj5niEg3KLnSFo8LQ2oy6knvBoEjqN9Efse4s06Cj80br-PRuuH7Rp0SnxjixrEqPxomZ4Q5Tr2XIXzwE2xSsj-RkJKgWwsH1eQKN0O9PaNPyPYx9SUpmkqlsyGJg8_xBoLNl1cKZlS1eVyKLqbBXiaX-YurqoreVXNGGooMg-7ZqaJ5PMiKdE6N30xFNXjyUjGT23tNUhRE1CEWVCQlay90P-HMUxDuKd4OMkMR7tE4MLZb25bZ3YvySvR6NBW8eer1EushMGzHPV6TqUd6w86o7zakcwGwFpNnJgksORJ9M9ONTVKEQxif3Qrs1QsE7ZAlgwU2xIDEdbKvBMUftZSbFJen8gwQ5V3oR9ynokf9o7wUTbd4FfpsHLbIvjsUwTF6fSthlAWMPBVr0V986SjUF8T3LjRkvuegBvgitEfiBMe7C5NhuM5-4r8IfsSsXRLCYURg3PFeQIrn3bAY40R-sqQrTbkI4E5Yf_r8YHi7wul9N09hd18i2Lj88k26KC3UXCRfI8c7ZLnNpzsAv_QzMUEiDoXYk7B-0m00]--></g></svg>