<svg xmlns="http://www.w3.org/2000/svg" xmlns:xlink="http://www.w3.org/1999/xlink" contentStyleType="text/css" data-diagram-type="STATE" height="972px" preserveAspectRatio="none" style="width:405px;height:972px;background:#FFFFFF;" version="1.1" viewBox="0 0 405 972" width="405px" zoomAndPan="magnify"><defs/><g><path d="M19.5,7 L314.7524,7 A12.5,12.5 0 0 1 327.2524,19.5 L327.2524,33.2969 L7,33.2969 L7,19.5 A12.5,12.5 0 0 1 19.5,7 " fill="#F1F1F1" style="stroke:#F1F1F1;stroke-width:1;"/><rect fill="transparent" height="419.2969" rx="12.5" ry="12.5" style="stroke:#181818;stroke-width:0.5;" width="320.2524" x="7" y="7"/><line style="stroke:#181818;stroke-width:0.5;" x1="7" x2="327.2524" y1="33.2969" y2="33.2969"/><text fill="#000000" font-family="sans-serif" font-size="14" lengthAdjust="spacing" textLength="56.8682" x="138.6921" y="24.9951">Reserva</text><ellipse cx="123.5" cy="54.2969" fill="#222222" rx="10" ry="10" style="stroke:#222222;stroke-width:1;"/><g id="Reserva.Pendiente"><rect fill="#F1F1F1" height="50" rx="12.5" ry="12.5" style="stroke:#181818;stroke-width:0.5;" width="90.2939" x="78.5" y="101.2969"/><line style="stroke:#181818;stroke-width:0.5;" x1="78.5" x2="168.7939" y1="127.5938" y2="127.5938"/><text fill="#000000" font-family="sans-serif" font-size="14" lengthAdjust="spacing" textLength="70.2939" x="88.5" y="119.292">Pendiente</text></g><g id="Reserva.Confirmada"><rect fill="#F1F1F1" height="50" rx="12.5" ry="12.5" style="stroke:#181818;stroke-width:0.5;" width="101.4707" x="73" y="204.2969"/><line style="stroke:#181818;stroke-width:0.5;" x1="73" x2="174.4707" y1="230.5938" y2="230.5938"/><text fill="#000000" font-family="sans-serif" font-size="14" lengthAdjust="spacing" textLength="81.4707" x="83" y="222.292">Confirmada</text></g><g id="Reserva.Cancelada"><rect fill="#F1F1F1" height="50" rx="12.5" ry="12.5" style="stroke:#181818;stroke-width:0.5;" width="93.4727" x="19" y="307.2969"/><line style="stroke:#181818;stroke-width:0.5;" x1="19" x2="112.4727" y1="333.5938" y2="333.5938"/><text fill="#000000" font-family="sans-serif" font-size="14" lengthAdjust="spacing" textLength="73.4727" x="29" y="325.292">Cancelada</text></g><g id="Reserva.Completada"><rect fill="#F1F1F1" height="50" rx="12.5" ry="12.5" style="stroke:#181818;stroke-width:0.5;" width="104.9023" x="130" y="307.2969"/><line style="stroke:#181818;stroke-width:0.5;" x1="130" x2="234.9023" y1="333.5938" y2="333.5938"/><text fill="#000000" font-family="sans-serif" font-size="14" lengthAdjust="spacing" textLength="84.9023" x="140" y="325.292">Completada</text></g><ellipse cx="123.5" cy="405.2969" fill="transparent" rx="11" ry="11" style="stroke:#222222;stroke-width:1;"/><ellipse cx="123.5" cy="405.2969" fill="#222222" rx="6" ry="6" style="stroke:#222222;stroke-width:1;"/><!--link *start*Reserva to Pendiente--><g id="link_*start*Reserva_Pendiente"><path d="M123.5,64.4469 C123.5,73.7169 123.5,82.4369 123.5,95.0769 " fill="transparent" id="*start*Reserva-to-Pendiente" style="stroke:#181818;stroke-width:1;"/><polygon fill="#181818" points="123.5,101.0769,127.5,92.0769,123.5,96.0769,119.5,92.0769,123.5,101.0769" style="stroke:#181818;stroke-width:1;"/></g><!--link Pendiente to Confirmada--><g id="link_Pendiente_Confirmada"><path d="M123.5,151.4869 C123.5,167.3669 123.5,182.0469 123.5,197.9569 " fill="transparent" id="Pendiente-to-Confirmada" style="stroke:#181818;stroke-width:1;"/><polygon fill="#181818" points="123.5,203.9569,127.5,194.9569,123.5,198.9569,119.5,194.9569,123.5,203.9569" style="stroke:#181818;stroke-width:1;"/><text fill="#000000" font-family="sans-serif" font-size="13" lengthAdjust="spacing" textLength="64.7778" x="124.5" y="182.3638">Confirmar</text></g><!--link Confirmada to Cancelada--><g id="link_Confirmada_Cancelada"><path d="M104.26,254.5869 C100.15,260.2469 96,266.3669 92.5,272.2969 C85.98,283.3569 82.2905,290.7593 77.5705,301.6793 " fill="transparent" id="Confirmada-to-Cancelada" style="stroke:#181818;stroke-width:1;"/><polygon fill="#181818" points="75.19,307.1869,82.4325,300.5126,77.1738,302.5973,75.0891,297.3385,75.19,307.1869" style="stroke:#181818;stroke-width:1;"/><text fill="#000000" font-family="sans-serif" font-size="13" lengthAdjust="spacing" textLength="57.3511" x="93.5" y="285.3638">Cancelar</text></g><!--link Confirmada to Completada--><g id="link_Confirmada_Completada"><path d="M140.22,254.4469 C144.05,260.2269 148.01,266.4169 151.5,272.2969 C158.18,283.5369 162.2615,291.0183 167.8015,301.8183 " fill="transparent" id="Confirmada-to-Completada" style="stroke:#181818;stroke-width:1;"/><polygon fill="#181818" points="170.54,307.1569,169.9913,297.3233,168.2579,302.708,162.8732,300.9746,170.54,307.1569" style="stroke:#181818;stroke-width:1;"/><text fill="#000000" font-family="sans-serif" font-size="13" lengthAdjust="spacing" textLength="155.7524" x="161.5" y="285.3638">Cliente llega y se sienta</text></g><!--link Cancelada to *end*Reserva--><g id="link_Cancelada_*end*Reserva"><path d="M85.14,357.3369 C96.18,370.8469 105.4538,382.2105 113.1338,391.6105 " fill="transparent" id="Cancelada-to-*end*Reserva" style="stroke:#181818;stroke-width:1;"/><polygon fill="#181818" points="116.93,396.2569,114.3333,386.7565,113.7665,392.3849,108.1381,391.8181,116.93,396.2569" style="stroke:#181818;stroke-width:1;"/></g><!--link Completada to *end*Reserva--><g id="link_Completada_*end*Reserva"><path d="M162.53,357.3369 C151.29,370.8469 141.8372,382.2443 134.0172,391.6443 " fill="transparent" id="Completada-to-*end*Reserva" style="stroke:#181818;stroke-width:1;"/><polygon fill="#181818" points="130.18,396.2569,139.0109,391.8962,133.3777,392.4131,132.8608,386.7799,130.18,396.2569" style="stroke:#181818;stroke-width:1;"/></g><path d="M22.5,503 L311.146,503 A12.5,12.5 0 0 1 323.646,515.5 L323.646,529.2969 L10,529.2969 L10,515.5 A12.5,12.5 0 0 1 22.5,503 " fill="#F1F1F1" style="stroke:#F1F1F1;stroke-width:1;"/><rect fill="transparent" height="463.2969" rx="12.5" ry="12.5" style="stroke:#181818;stroke-width:0.5;" width="313.646" x="10" y="503"/><line style="stroke:#181818;stroke-width:0.5;" x1="10" x2="323.646" y1="529.2969" y2="529.2969"/><text fill="#000000" font-family="sans-serif" font-size="14" lengthAdjust="spacing" textLength="36.5654" x="148.5403" y="520.9951">Mesa</text><ellipse cx="150.5" cy="550.2969" fill="#222222" rx="10" ry="10" style="stroke:#222222;stroke-width:1;"/><g id="Mesa.Libre"><rect fill="#F1F1F1" height="50" rx="12.5" ry="12.5" style="stroke:#181818;stroke-width:0.5;" width="54.9453" x="123" y="597.2969"/><line style="stroke:#181818;stroke-width:0.5;" x1="123" x2="177.9453" y1="623.5938" y2="623.5938"/><text fill="#000000" font-family="sans-serif" font-size="14" lengthAdjust="spacing" textLength="34.9453" x="133" y="615.292">Libre</text></g><g id="Mesa.Reservada"><rect fill="#F1F1F1" height="50" rx="12.5" ry="12.5" style="stroke:#181818;stroke-width:0.5;" width="94.334" x="26.5" y="700.2969"/><line style="stroke:#181818;stroke-width:0.5;" x1="26.5" x2="120.834" y1="726.5938" y2="726.5938"/><text fill="#000000" font-family="sans-serif" font-size="14" lengthAdjust="spacing" textLength="74.334" x="36.5" y="718.292">Reservada</text></g><g id="Mesa.Ocupada"><rect fill="#F1F1F1" height="50" rx="12.5" ry="12.5" style="stroke:#181818;stroke-width:0.5;" width="82.5215" x="22" y="803.2969"/><line style="stroke:#181818;stroke-width:0.5;" x1="22" x2="104.5215" y1="829.5938" y2="829.5938"/><text fill="#000000" font-family="sans-serif" font-size="14" lengthAdjust="spacing" textLength="62.5215" x="32" y="821.292">Ocupada</text></g><g id="Mesa.EnPreparacion"><rect fill="#F1F1F1" height="50" rx="12.5" ry="12.5" style="stroke:#181818;stroke-width:0.5;" width="121.3564" x="84" y="906.2969"/><line style="stroke:#181818;stroke-width:0.5;" x1="84" x2="205.3564" y1="932.5938" y2="932.5938"/><text fill="#000000" font-family="sans-serif" font-size="14" lengthAdjust="spacing" textLength="101.3564" x="94" y="924.292">EnPreparacion</text></g><!--link *start*Mesa to Libre--><g id="link_*start*Mesa_Libre"><path d="M150.5,560.4469 C150.5,569.7169 150.5,578.4369 150.5,591.0769 " fill="transparent" id="*start*Mesa-to-Libre" style="stroke:#181818;stroke-width:1;"/><polygon fill="#181818" points="150.5,597.0769,154.5,588.0769,150.5,592.0769,146.5,588.0769,150.5,597.0769" style="stroke:#181818;stroke-width:1;"/></g><!--link Libre to Reservada--><g id="link_Libre_Reservada"><path d="M122.91,631.7869 C106.81,638.2669 87.72,648.9269 77.5,665.2969 C71.14,675.4869 69.5642,682.6901 69.9342,694.0201 " fill="transparent" id="Libre-to-Reservada" style="stroke:#181818;stroke-width:1;"/><polygon fill="#181818" points="70.13,700.0169,73.8341,690.8911,69.9668,695.0195,65.8384,691.1522,70.13,700.0169" style="stroke:#181818;stroke-width:1;"/><text fill="#000000" font-family="sans-serif" font-size="13" lengthAdjust="spacing" textLength="133.561" x="78.5" y="678.3638">Se hace una reserva</text></g><!--link Reservada to Ocupada--><g id="link_Reservada_Ocupada"><path d="M71.1,750.4869 C69.53,766.3669 68.0829,781.0762 66.5029,796.9862 " fill="transparent" id="Reservada-to-Ocupada" style="stroke:#181818;stroke-width:1;"/><polygon fill="#181818" points="65.91,802.9569,70.7798,794.3962,66.4041,797.9813,62.819,793.6056,65.91,802.9569" style="stroke:#181818;stroke-width:1;"/><text fill="#000000" font-family="sans-serif" font-size="13" lengthAdjust="spacing" textLength="81.2056" x="70.5" y="781.3638">Cliente llega</text></g><!--link Ocupada to EnPreparacion--><g id="link_Ocupada_EnPreparacion"><path d="M57.99,853.5369 C56.74,864.8569 57.27,878.0569 63.5,888.2969 C68.52,896.5569 70.7681,899.9131 78.8581,905.3431 " fill="transparent" id="Ocupada-to-EnPreparacion" style="stroke:#181818;stroke-width:1;"/><polygon fill="#181818" points="83.84,908.6869,78.5964,900.3499,79.6885,905.9004,74.138,906.9924,83.84,908.6869" style="stroke:#181818;stroke-width:1;"/><text fill="#000000" font-family="sans-serif" font-size="13" lengthAdjust="spacing" textLength="147.1323" x="64.5" y="884.3638">Cliente se va, limpieza</text></g><!--link EnPreparacion to Libre--><g id="link_EnPreparacion_Libre"><path d="M196.9,906.1369 C203.14,901.1169 208.65,895.2069 212.5,888.2969 C260.78,801.7369 258.94,752.8569 212.5,665.2969 C205.19,651.5169 196.4126,644.2344 183.5126,637.4044 " fill="transparent" id="EnPreparacion-to-Libre" style="stroke:#181818;stroke-width:1;"/><polygon fill="#181818" points="178.21,634.5969,184.2923,642.3432,182.6289,636.9365,188.0356,635.2731,178.21,634.5969" style="stroke:#181818;stroke-width:1;"/><text fill="#000000" font-family="sans-serif" font-size="13" lengthAdjust="spacing" textLength="65.146" x="248.5" y="781.3638">Mesa lista</text></g><!--link Reserva to Mesa--><g id="link_Reserva_Mesa"><path d="M54.48,426.12 C51.24,436.08 48.38,446.07 46,456 C42.3,471.46 40.8365,481.1593 41.7065,496.7893 " fill="transparent" id="Reserva-to-Mesa" style="stroke:#181818;stroke-width:1;"/><polygon fill="#181818" points="42.04,502.78,45.5336,493.5716,41.7621,497.7877,37.546,494.0162,42.04,502.78" style="stroke:#181818;stroke-width:1;"/><text fill="#000000" font-family="sans-serif" font-size="13" lengthAdjust="spacing" textLength="195.9521" x="47" y="469.0669">Asignaci&#243;n de reserva a mesa</text></g><!--link Mesa to Reserva--><g id="link_Mesa_Reserva"><path d="M249.57,502.77 C250.23,487.03 249.5,471.34 247,456 C245.4,446.19 244.7516,442.1071 242.5316,432.1171 " fill="transparent" id="Mesa-to-Reserva" style="stroke:#181818;stroke-width:1;"/><polygon fill="#181818" points="241.23,426.26,239.2776,435.9134,242.3147,431.1409,247.0871,434.178,241.23,426.26" style="stroke:#181818;stroke-width:1;"/><text fill="#000000" font-family="sans-serif" font-size="13" lengthAdjust="spacing" textLength="148.002" x="249" y="469.0669">Cliente ocupa su mesa</text></g><!--SRC=[RP51Ri8m44NtESLVLt015fKGOjUgg2mHYsao1KlE9B8J942SgaVWOhN7YKahihB_l3_vF_4TTOnFzknEX6k1yEnUzfZFNx5XgGnBnwhccyvMZNmRLrD5MEIBKt0oKfAaP3k0wVoSQ-hMSZU0DhtAMZuGpl0C7nLAphmo6aFSOLzUCCgtel1Qy9tz_tPlvikbPdfIRVWE6c7BE5B9w8NWagxqWucEZx9ldqHMSfn5RYqRnoqvAaqZ4peKEz4CrjIjuKlo_MLprk3I6jQ4Jh7Q-DSYePC5bjuS9FZkFuAAnzmWr65UA3JfESdHnApmlOA_]--></g></svg>