<svg xmlns="http://www.w3.org/2000/svg" xmlns:xlink="http://www.w3.org/1999/xlink" contentStyleType="text/css" data-diagram-type="CLASS" height="799px" preserveAspectRatio="none" style="width:822px;height:799px;background:#FFFFFF;" version="1.1" viewBox="0 0 822 799" width="822px" zoomAndPan="magnify"><defs/><g><!--class Mesa--><g class="entity" data-entity="Mesa" data-source-line="1" data-uid="ent0002" id="entity_Mesa"><rect fill="#F1F1F1" height="194.6719" rx="2.5" ry="2.5" style="stroke:#181818;stroke-width:0.5;" width="243.1504" x="73.89" y="597.83"/><ellipse cx="172.9325" cy="613.83" fill="#ADD1B2" rx="11" ry="11" style="stroke:#181818;stroke-width:1;"/><path d="M175.9012,619.4706 Q175.3231,619.7675 174.6825,619.9081 Q174.0419,620.0644 173.3387,620.0644 Q170.8387,620.0644 169.5106,618.4238 Q168.1981,616.7675 168.1981,613.6425 Q168.1981,610.5175 169.5106,608.8613 Q170.8387,607.205 173.3387,607.205 Q174.0419,607.205 174.6825,607.3613 Q175.3387,607.5175 175.9012,607.8144 L175.9012,610.5331 Q175.2762,609.955 174.6825,609.6894 Q174.0887,609.4081 173.4637,609.4081 Q172.12,609.4081 171.4325,610.4863 Q170.745,611.5488 170.745,613.6425 Q170.745,615.7363 171.4325,616.8144 Q172.12,617.8769 173.4637,617.8769 Q174.0887,617.8769 174.6825,617.6113 Q175.2762,617.33 175.9012,616.7519 L175.9012,619.4706 Z " fill="#000000"/><text fill="#000000" font-family="sans-serif" font-size="14" lengthAdjust="spacing" textLength="36.5654" x="193.4325" y="618.6767">Mesa</text><line style="stroke:#181818;stroke-width:0.5;" x1="74.89" x2="316.0404" y1="629.83" y2="629.83"/><rect fill="none" height="6" style="stroke:#C82930;stroke-width:1;" width="6" x="81.89" y="640.4784"/><text fill="#000000" font-family="sans-serif" font-size="14" lengthAdjust="spacing" textLength="81.7373" x="93.89" y="646.8251">numero: int</text><rect fill="none" height="6" style="stroke:#C82930;stroke-width:1;" width="6" x="81.89" y="656.7753"/><text fill="#000000" font-family="sans-serif" font-size="14" lengthAdjust="spacing" textLength="99.1006" x="93.89" y="663.122">capacidad: int</text><rect fill="none" height="6" style="stroke:#C82930;stroke-width:1;" width="6" x="81.89" y="673.0722"/><text fill="#000000" font-family="sans-serif" font-size="14" lengthAdjust="spacing" textLength="117.8994" x="93.89" y="679.4189">ubicacion: String</text><rect fill="none" height="6" style="stroke:#C82930;stroke-width:1;" width="6" x="81.89" y="689.3691"/><text fill="#000000" font-family="sans-serif" font-size="14" lengthAdjust="spacing" textLength="98.376" x="93.89" y="695.7157">estado: String</text><line style="stroke:#181818;stroke-width:0.5;" x1="74.89" x2="316.0404" y1="703.0175" y2="703.0175"/><ellipse cx="84.89" cy="716.6659" fill="#84BE84" rx="3" ry="3" style="stroke:#038048;stroke-width:1;"/><text fill="#000000" font-family="sans-serif" font-size="14" lengthAdjust="spacing" textLength="117.25" x="93.89" y="720.0126">getNumero(): int</text><ellipse cx="84.89" cy="732.9628" fill="#84BE84" rx="3" ry="3" style="stroke:#038048;stroke-width:1;"/><text fill="#000000" font-family="sans-serif" font-size="14" lengthAdjust="spacing" textLength="135.0918" x="93.89" y="736.3095">getCapacidad(): int</text><ellipse cx="84.89" cy="749.2597" fill="#84BE84" rx="3" ry="3" style="stroke:#038048;stroke-width:1;"/><text fill="#000000" font-family="sans-serif" font-size="14" lengthAdjust="spacing" textLength="153.1865" x="93.89" y="752.6064">getUbicacion(): String</text><ellipse cx="84.89" cy="765.5566" fill="#84BE84" rx="3" ry="3" style="stroke:#038048;stroke-width:1;"/><text fill="#000000" font-family="sans-serif" font-size="14" lengthAdjust="spacing" textLength="132.5215" x="93.89" y="768.9032">getEstado(): String</text><ellipse cx="84.89" cy="781.8534" fill="#84BE84" rx="3" ry="3" style="stroke:#038048;stroke-width:1;"/><text fill="#000000" font-family="sans-serif" font-size="14" lengthAdjust="spacing" textLength="217.1504" x="93.89" y="785.2001">setEstado(estado: String): void</text></g><!--class Reserva--><g class="entity" data-entity="Reserva" data-source-line="13" data-uid="ent0003" id="entity_Reserva"><rect fill="#F1F1F1" height="227.2656" rx="2.5" ry="2.5" style="stroke:#181818;stroke-width:0.5;" width="247.9971" x="71.46" y="310.56"/><ellipse cx="162.7745" cy="326.56" fill="#ADD1B2" rx="11" ry="11" style="stroke:#181818;stroke-width:1;"/><path d="M165.7432,332.2006 Q165.1651,332.4975 164.5245,332.6381 Q163.8838,332.7944 163.1807,332.7944 Q160.6807,332.7944 159.3526,331.1538 Q158.0401,329.4975 158.0401,326.3725 Q158.0401,323.2475 159.3526,321.5913 Q160.6807,319.935 163.1807,319.935 Q163.8838,319.935 164.5245,320.0913 Q165.1807,320.2475 165.7432,320.5444 L165.7432,323.2631 Q165.1182,322.685 164.5245,322.4194 Q163.9307,322.1381 163.3057,322.1381 Q161.962,322.1381 161.2745,323.2163 Q160.587,324.2788 160.587,326.3725 Q160.587,328.4663 161.2745,329.5444 Q161.962,330.6069 163.3057,330.6069 Q163.9307,330.6069 164.5245,330.3413 Q165.1182,330.06 165.7432,329.4819 L165.7432,332.2006 Z " fill="#000000"/><text fill="#000000" font-family="sans-serif" font-size="14" lengthAdjust="spacing" textLength="56.8682" x="183.2745" y="331.4067">Reserva</text><line style="stroke:#181818;stroke-width:0.5;" x1="72.46" x2="318.4571" y1="342.56" y2="342.56"/><rect fill="none" height="6" style="stroke:#C82930;stroke-width:1;" width="6" x="79.46" y="353.2084"/><text fill="#000000" font-family="sans-serif" font-size="14" lengthAdjust="spacing" textLength="98.0137" x="91.46" y="359.5551">cliente: String</text><rect fill="none" height="6" style="stroke:#C82930;stroke-width:1;" width="6" x="79.46" y="369.5053"/><text fill="#000000" font-family="sans-serif" font-size="14" lengthAdjust="spacing" textLength="81.3203" x="91.46" y="375.852">fecha: Date</text><rect fill="none" height="6" style="stroke:#C82930;stroke-width:1;" width="6" x="79.46" y="385.8022"/><text fill="#000000" font-family="sans-serif" font-size="14" lengthAdjust="spacing" textLength="166.8721" x="91.46" y="392.1489">numeroComensales: int</text><rect fill="none" height="6" style="stroke:#C82930;stroke-width:1;" width="6" x="79.46" y="402.0991"/><text fill="#000000" font-family="sans-serif" font-size="14" lengthAdjust="spacing" textLength="138.4482" x="91.46" y="408.4457">preferencias: String</text><rect fill="none" height="6" style="stroke:#C82930;stroke-width:1;" width="6" x="79.46" y="418.3959"/><text fill="#000000" font-family="sans-serif" font-size="14" lengthAdjust="spacing" textLength="148.4219" x="91.46" y="424.7426">mesaAsignada: Mesa</text><line style="stroke:#181818;stroke-width:0.5;" x1="72.46" x2="318.4571" y1="432.0444" y2="432.0444"/><ellipse cx="82.46" cy="445.6928" fill="#84BE84" rx="3" ry="3" style="stroke:#038048;stroke-width:1;"/><text fill="#000000" font-family="sans-serif" font-size="14" lengthAdjust="spacing" textLength="134.0049" x="91.46" y="449.0395">getCliente(): String</text><ellipse cx="82.46" cy="461.9897" fill="#84BE84" rx="3" ry="3" style="stroke:#038048;stroke-width:1;"/><text fill="#000000" font-family="sans-serif" font-size="14" lengthAdjust="spacing" textLength="118.3574" x="91.46" y="465.3364">getFecha(): Date</text><ellipse cx="82.46" cy="478.2866" fill="#84BE84" rx="3" ry="3" style="stroke:#038048;stroke-width:1;"/><text fill="#000000" font-family="sans-serif" font-size="14" lengthAdjust="spacing" textLength="202.3848" x="91.46" y="481.6332">getNumeroComensales(): int</text><ellipse cx="82.46" cy="494.5834" fill="#84BE84" rx="3" ry="3" style="stroke:#038048;stroke-width:1;"/><text fill="#000000" font-family="sans-serif" font-size="14" lengthAdjust="spacing" textLength="171.917" x="91.46" y="497.9301">getPreferencias(): String</text><ellipse cx="82.46" cy="510.8803" fill="#84BE84" rx="3" ry="3" style="stroke:#038048;stroke-width:1;"/><text fill="#000000" font-family="sans-serif" font-size="14" lengthAdjust="spacing" textLength="180.7764" x="91.46" y="514.227">getMesaAsignada(): Mesa</text><ellipse cx="82.46" cy="527.1772" fill="#84BE84" rx="3" ry="3" style="stroke:#038048;stroke-width:1;"/><text fill="#000000" font-family="sans-serif" font-size="14" lengthAdjust="spacing" textLength="221.9971" x="91.46" y="530.5239">asignarMesa(mesa: Mesa): void</text></g><!--class Pedido--><g class="entity" data-entity="Pedido" data-source-line="27" data-uid="ent0004" id="entity_Pedido"><rect fill="#F1F1F1" height="162.0781" rx="2.5" ry="2.5" style="stroke:#181818;stroke-width:0.5;" width="245.2832" x="354.82" y="343.16"/><ellipse cx="449.5695" cy="359.16" fill="#ADD1B2" rx="11" ry="11" style="stroke:#181818;stroke-width:1;"/><path d="M452.5383,364.8006 Q451.9601,365.0975 451.3195,365.2381 Q450.6789,365.3944 449.9758,365.3944 Q447.4758,365.3944 446.1476,363.7538 Q444.8351,362.0975 444.8351,358.9725 Q444.8351,355.8475 446.1476,354.1913 Q447.4758,352.535 449.9758,352.535 Q450.6789,352.535 451.3195,352.6913 Q451.9758,352.8475 452.5383,353.1444 L452.5383,355.8631 Q451.9133,355.285 451.3195,355.0194 Q450.7258,354.7381 450.1008,354.7381 Q448.757,354.7381 448.0695,355.8163 Q447.382,356.8788 447.382,358.9725 Q447.382,361.0663 448.0695,362.1444 Q448.757,363.2069 450.1008,363.2069 Q450.7258,363.2069 451.3195,362.9413 Q451.9133,362.66 452.5383,362.0819 L452.5383,364.8006 Z " fill="#000000"/><text fill="#000000" font-family="sans-serif" font-size="14" lengthAdjust="spacing" textLength="47.2842" x="470.0695" y="364.0067">Pedido</text><line style="stroke:#181818;stroke-width:0.5;" x1="355.82" x2="599.1032" y1="375.16" y2="375.16"/><rect fill="none" height="6" style="stroke:#C82930;stroke-width:1;" width="6" x="362.82" y="385.8084"/><text fill="#000000" font-family="sans-serif" font-size="14" lengthAdjust="spacing" textLength="83.8564" x="374.82" y="392.1551">mesa: Mesa</text><rect fill="none" height="6" style="stroke:#C82930;stroke-width:1;" width="6" x="362.82" y="402.1053"/><text fill="#000000" font-family="sans-serif" font-size="14" lengthAdjust="spacing" textLength="134.7705" x="374.82" y="408.452">platos: List&lt;Plato&gt;</text><rect fill="none" height="6" style="stroke:#C82930;stroke-width:1;" width="6" x="362.82" y="418.4022"/><text fill="#000000" font-family="sans-serif" font-size="14" lengthAdjust="spacing" textLength="116.4297" x="374.82" y="424.7489">servido: boolean</text><line style="stroke:#181818;stroke-width:0.5;" x1="355.82" x2="599.1032" y1="432.0506" y2="432.0506"/><ellipse cx="365.82" cy="445.6991" fill="#84BE84" rx="3" ry="3" style="stroke:#038048;stroke-width:1;"/><text fill="#000000" font-family="sans-serif" font-size="14" lengthAdjust="spacing" textLength="219.2832" x="374.82" y="449.0457">agregarPlato(plato: Plato): void</text><ellipse cx="365.82" cy="461.9959" fill="#84BE84" rx="3" ry="3" style="stroke:#038048;stroke-width:1;"/><text fill="#000000" font-family="sans-serif" font-size="14" lengthAdjust="spacing" textLength="157.8418" x="374.82" y="465.3426">calcularTotal(): double</text><ellipse cx="365.82" cy="478.2928" fill="#84BE84" rx="3" ry="3" style="stroke:#038048;stroke-width:1;"/><text fill="#000000" font-family="sans-serif" font-size="14" lengthAdjust="spacing" textLength="193.1494" x="374.82" y="481.6395">marcarComoServido(): void</text><ellipse cx="365.82" cy="494.5897" fill="#84BE84" rx="3" ry="3" style="stroke:#038048;stroke-width:1;"/><text fill="#000000" font-family="sans-serif" font-size="14" lengthAdjust="spacing" textLength="140.1299" x="374.82" y="497.9364">isServido(): boolean</text></g><!--class Plato--><g class="entity" data-entity="Plato" data-source-line="37" data-uid="ent0005" id="entity_Plato"><rect fill="#F1F1F1" height="145.7813" rx="2.5" ry="2.5" style="stroke:#181818;stroke-width:0.5;" width="223.1143" x="365.91" y="622.27"/><ellipse cx="455.7342" cy="638.27" fill="#ADD1B2" rx="11" ry="11" style="stroke:#181818;stroke-width:1;"/><path d="M458.703,643.9106 Q458.1248,644.2075 457.4842,644.3481 Q456.8436,644.5044 456.1405,644.5044 Q453.6405,644.5044 452.3123,642.8638 Q450.9998,641.2075 450.9998,638.0825 Q450.9998,634.9575 452.3123,633.3013 Q453.6405,631.645 456.1405,631.645 Q456.8436,631.645 457.4842,631.8013 Q458.1405,631.9575 458.703,632.2544 L458.703,634.9731 Q458.078,634.395 457.4842,634.1294 Q456.8905,633.8481 456.2655,633.8481 Q454.9217,633.8481 454.2342,634.9263 Q453.5467,635.9888 453.5467,638.0825 Q453.5467,640.1763 454.2342,641.2544 Q454.9217,642.3169 456.2655,642.3169 Q456.8905,642.3169 457.4842,642.0513 Q458.078,641.77 458.703,641.1919 L458.703,643.9106 Z " fill="#000000"/><text fill="#000000" font-family="sans-serif" font-size="14" lengthAdjust="spacing" textLength="34.9658" x="476.2342" y="643.1167">Plato</text><line style="stroke:#181818;stroke-width:0.5;" x1="366.91" x2="588.0243" y1="654.27" y2="654.27"/><rect fill="none" height="6" style="stroke:#C82930;stroke-width:1;" width="6" x="373.91" y="664.9184"/><text fill="#000000" font-family="sans-serif" font-size="14" lengthAdjust="spacing" textLength="105.2803" x="385.91" y="671.2651">nombre: String</text><rect fill="none" height="6" style="stroke:#C82930;stroke-width:1;" width="6" x="373.91" y="681.2153"/><text fill="#000000" font-family="sans-serif" font-size="14" lengthAdjust="spacing" textLength="100.29" x="385.91" y="687.562">precio: double</text><rect fill="none" height="6" style="stroke:#C82930;stroke-width:1;" width="6" x="373.91" y="697.5122"/><text fill="#000000" font-family="sans-serif" font-size="14" lengthAdjust="spacing" textLength="160.1387" x="385.91" y="703.8589">tiempoPreparacion: int</text><line style="stroke:#181818;stroke-width:0.5;" x1="366.91" x2="588.0243" y1="711.1606" y2="711.1606"/><ellipse cx="376.91" cy="724.8091" fill="#84BE84" rx="3" ry="3" style="stroke:#038048;stroke-width:1;"/><text fill="#000000" font-family="sans-serif" font-size="14" lengthAdjust="spacing" textLength="140.793" x="385.91" y="728.1557">getNombre(): String</text><ellipse cx="376.91" cy="741.1059" fill="#84BE84" rx="3" ry="3" style="stroke:#038048;stroke-width:1;"/><text fill="#000000" font-family="sans-serif" font-size="14" lengthAdjust="spacing" textLength="133.7588" x="385.91" y="744.4526">getPrecio(): double</text><ellipse cx="376.91" cy="757.4028" fill="#84BE84" rx="3" ry="3" style="stroke:#038048;stroke-width:1;"/><text fill="#000000" font-family="sans-serif" font-size="14" lengthAdjust="spacing" textLength="197.1143" x="385.91" y="760.7495">getTiempoPreparacion(): int</text></g><!--class Personal--><g class="entity" data-entity="Personal" data-source-line="46" data-uid="ent0006" id="entity_Personal"><rect fill="#F1F1F1" height="145.7813" rx="2.5" ry="2.5" style="stroke:#181818;stroke-width:0.5;" width="180.8613" x="635.03" y="351.3"/><ellipse cx="691.2043" cy="367.3" fill="#ADD1B2" rx="11" ry="11" style="stroke:#181818;stroke-width:1;"/><path d="M694.1731,372.9406 Q693.5949,373.2375 692.9543,373.3781 Q692.3137,373.5344 691.6106,373.5344 Q689.1106,373.5344 687.7824,371.8938 Q686.4699,370.2375 686.4699,367.1125 Q686.4699,363.9875 687.7824,362.3313 Q689.1106,360.675 691.6106,360.675 Q692.3137,360.675 692.9543,360.8313 Q693.6106,360.9875 694.1731,361.2844 L694.1731,364.0031 Q693.5481,363.425 692.9543,363.1594 Q692.3606,362.8781 691.7356,362.8781 Q690.3918,362.8781 689.7043,363.9563 Q689.0168,365.0188 689.0168,367.1125 Q689.0168,369.2063 689.7043,370.2844 Q690.3918,371.3469 691.7356,371.3469 Q692.3606,371.3469 692.9543,371.0813 Q693.5481,370.8 694.1731,370.2219 L694.1731,372.9406 Z " fill="#000000"/><text fill="#000000" font-family="sans-serif" font-size="14" lengthAdjust="spacing" textLength="60.0127" x="711.7043" y="372.1467">Personal</text><line style="stroke:#181818;stroke-width:0.5;" x1="636.03" x2="814.8913" y1="383.3" y2="383.3"/><rect fill="none" height="6" style="stroke:#C82930;stroke-width:1;" width="6" x="643.03" y="393.9484"/><text fill="#000000" font-family="sans-serif" font-size="14" lengthAdjust="spacing" textLength="105.2803" x="655.03" y="400.2951">nombre: String</text><rect fill="none" height="6" style="stroke:#C82930;stroke-width:1;" width="6" x="643.03" y="410.2453"/><text fill="#000000" font-family="sans-serif" font-size="14" lengthAdjust="spacing" textLength="69.1592" x="655.03" y="416.592">rol: String</text><rect fill="none" height="6" style="stroke:#C82930;stroke-width:1;" width="6" x="643.03" y="426.5422"/><text fill="#000000" font-family="sans-serif" font-size="14" lengthAdjust="spacing" textLength="119.2939" x="655.03" y="432.8889">horasTrabajo: int</text><line style="stroke:#181818;stroke-width:0.5;" x1="636.03" x2="814.8913" y1="440.1906" y2="440.1906"/><ellipse cx="646.03" cy="453.8391" fill="#84BE84" rx="3" ry="3" style="stroke:#038048;stroke-width:1;"/><text fill="#000000" font-family="sans-serif" font-size="14" lengthAdjust="spacing" textLength="140.793" x="655.03" y="457.1857">getNombre(): String</text><ellipse cx="646.03" cy="470.1359" fill="#84BE84" rx="3" ry="3" style="stroke:#038048;stroke-width:1;"/><text fill="#000000" font-family="sans-serif" font-size="14" lengthAdjust="spacing" textLength="107.0439" x="655.03" y="473.4826">getRol(): String</text><ellipse cx="646.03" cy="486.4328" fill="#84BE84" rx="3" ry="3" style="stroke:#038048;stroke-width:1;"/><text fill="#000000" font-family="sans-serif" font-size="14" lengthAdjust="spacing" textLength="154.8613" x="655.03" y="489.7795">getHorasTrabajo(): int</text></g><!--class Restaurante--><g class="entity" data-entity="Restaurante" data-source-line="55" data-uid="ent0007" id="entity_Restaurante"><rect fill="#F1F1F1" height="243.5625" rx="2.5" ry="2.5" style="stroke:#181818;stroke-width:0.5;" width="371.0029" x="150.96" y="7"/><ellipse cx="289.2681" cy="23" fill="#ADD1B2" rx="11" ry="11" style="stroke:#181818;stroke-width:1;"/><path d="M292.2369,28.6406 Q291.6587,28.9375 291.0181,29.0781 Q290.3775,29.2344 289.6744,29.2344 Q287.1744,29.2344 285.8462,27.5938 Q284.5337,25.9375 284.5337,22.8125 Q284.5337,19.6875 285.8462,18.0313 Q287.1744,16.375 289.6744,16.375 Q290.3775,16.375 291.0181,16.5313 Q291.6744,16.6875 292.2369,16.9844 L292.2369,19.7031 Q291.6119,19.125 291.0181,18.8594 Q290.4244,18.5781 289.7994,18.5781 Q288.4556,18.5781 287.7681,19.6563 Q287.0806,20.7188 287.0806,22.8125 Q287.0806,24.9063 287.7681,25.9844 Q288.4556,27.0469 289.7994,27.0469 Q290.4244,27.0469 291.0181,26.7813 Q291.6119,26.5 292.2369,25.9219 L292.2369,28.6406 Z " fill="#000000"/><text fill="#000000" font-family="sans-serif" font-size="14" lengthAdjust="spacing" textLength="85.8867" x="309.7681" y="27.8467">Restaurante</text><line style="stroke:#181818;stroke-width:0.5;" x1="151.96" x2="520.9629" y1="39" y2="39"/><rect fill="none" height="6" style="stroke:#C82930;stroke-width:1;" width="6" x="158.96" y="49.6484"/><text fill="#000000" font-family="sans-serif" font-size="14" lengthAdjust="spacing" textLength="139.084" x="170.96" y="55.9951">mesas: List&lt;Mesa&gt;</text><rect fill="none" height="6" style="stroke:#C82930;stroke-width:1;" width="6" x="158.96" y="65.9453"/><text fill="#000000" font-family="sans-serif" font-size="14" lengthAdjust="spacing" textLength="174.1592" x="170.96" y="72.292">reservas: List&lt;Reserva&gt;</text><rect fill="none" height="6" style="stroke:#C82930;stroke-width:1;" width="6" x="158.96" y="82.2422"/><text fill="#000000" font-family="sans-serif" font-size="14" lengthAdjust="spacing" textLength="159.4072" x="170.96" y="88.5889">pedidos: List&lt;Pedido&gt;</text><rect fill="none" height="6" style="stroke:#C82930;stroke-width:1;" width="6" x="158.96" y="98.5391"/><text fill="#000000" font-family="sans-serif" font-size="14" lengthAdjust="spacing" textLength="194.0791" x="170.96" y="104.8857">empleados: List&lt;Personal&gt;</text><line style="stroke:#181818;stroke-width:0.5;" x1="151.96" x2="520.9629" y1="112.1875" y2="112.1875"/><ellipse cx="161.96" cy="125.8359" fill="#84BE84" rx="3" ry="3" style="stroke:#038048;stroke-width:1;"/><text fill="#000000" font-family="sans-serif" font-size="14" lengthAdjust="spacing" textLength="225.1963" x="170.96" y="129.1826">agregarMesa(mesa: Mesa): void</text><ellipse cx="161.96" cy="142.1328" fill="#84BE84" rx="3" ry="3" style="stroke:#038048;stroke-width:1;"/><text fill="#000000" font-family="sans-serif" font-size="14" lengthAdjust="spacing" textLength="345.0029" x="170.96" y="145.4795">obtenerMesaPorNumero(numeroMesa: int): Mesa</text><ellipse cx="161.96" cy="158.4297" fill="#84BE84" rx="3" ry="3" style="stroke:#038048;stroke-width:1;"/><text fill="#000000" font-family="sans-serif" font-size="14" lengthAdjust="spacing" textLength="313.5303" x="170.96" y="161.7764">agregarEmpleado(empleado: Personal): void</text><ellipse cx="161.96" cy="174.7266" fill="#84BE84" rx="3" ry="3" style="stroke:#038048;stroke-width:1;"/><text fill="#000000" font-family="sans-serif" font-size="14" lengthAdjust="spacing" textLength="311.8828" x="170.96" y="178.0732">registrarReserva(reserva: Reserva): boolean</text><ellipse cx="161.96" cy="191.0234" fill="#84BE84" rx="3" ry="3" style="stroke:#038048;stroke-width:1;"/><text fill="#000000" font-family="sans-serif" font-size="14" lengthAdjust="spacing" textLength="256.2383" x="170.96" y="194.3701">agregarPedido(pedido: Pedido): void</text><ellipse cx="161.96" cy="207.3203" fill="#84BE84" rx="3" ry="3" style="stroke:#038048;stroke-width:1;"/><text fill="#000000" font-family="sans-serif" font-size="14" lengthAdjust="spacing" textLength="148.6543" x="170.96" y="210.667">mostrarMesas(): void</text><ellipse cx="161.96" cy="223.6172" fill="#84BE84" rx="3" ry="3" style="stroke:#038048;stroke-width:1;"/><text fill="#000000" font-family="sans-serif" font-size="14" lengthAdjust="spacing" textLength="168.957" x="170.96" y="226.9639">mostrarReservas(): void</text><ellipse cx="161.96" cy="239.9141" fill="#84BE84" rx="3" ry="3" style="stroke:#038048;stroke-width:1;"/><text fill="#000000" font-family="sans-serif" font-size="14" lengthAdjust="spacing" textLength="159.373" x="170.96" y="243.2607">mostrarPedidos(): void</text></g><!--link Restaurante to Mesa--><g class="link" data-entity-1="Restaurante" data-entity-2="Mesa" data-source-line="70" data-uid="lnk8" id="link_Restaurante_Mesa"><path codeLine="70" d="M150.79,211.24 C112.24,237.19 76.64,270 54.46,310.56 C6,399.19 18.23,443.55 54.46,537.83 C62.59,558.98 75.05,579.06 89.27,597.34 " fill="none" id="Restaurante-Mesa" style="stroke:#181818;stroke-width:1;"/><text fill="#000000" font-family="sans-serif" font-size="13" lengthAdjust="spacing" textLength="8.271" x="134.794" y="211.472">1</text><text fill="#000000" font-family="sans-serif" font-size="13" lengthAdjust="spacing" textLength="6.5" x="75.2693" y="586.6769">*</text></g><!--link Restaurante to Reserva--><g class="link" data-entity-1="Restaurante" data-entity-2="Reserva" data-source-line="71" data-uid="lnk9" id="link_Restaurante_Reserva"><path codeLine="71" d="M278.3,250.82 C268.82,270.55 259.03,290.92 249.64,310.45 " fill="none" id="Restaurante-Reserva" style="stroke:#181818;stroke-width:1;"/><text fill="#000000" font-family="sans-serif" font-size="13" lengthAdjust="spacing" textLength="8.271" x="266.5203" y="270.7847">1</text><text fill="#000000" font-family="sans-serif" font-size="13" lengthAdjust="spacing" textLength="6.5" x="247.0956" y="299.3754">*</text></g><!--link Restaurante to Pedido--><g class="link" data-entity-1="Restaurante" data-entity-2="Pedido" data-source-line="72" data-uid="lnk10" id="link_Restaurante_Pedido"><path codeLine="72" d="M394.63,250.82 C409.57,281.92 425.28,314.6 438.95,343.05 " fill="none" id="Restaurante-Pedido" style="stroke:#181818;stroke-width:1;"/><text fill="#000000" font-family="sans-serif" font-size="13" lengthAdjust="spacing" textLength="8.271" x="389.9392" y="270.7847">1</text><text fill="#000000" font-family="sans-serif" font-size="13" lengthAdjust="spacing" textLength="6.5" x="429.2751" y="332.2275">*</text></g><!--link Restaurante to Personal--><g class="link" data-entity-1="Restaurante" data-entity-2="Personal" data-source-line="73" data-uid="lnk11" id="link_Restaurante_Personal"><path codeLine="73" d="M522.23,240.48 C554.92,262.41 587.91,286.22 617.46,310.56 C632.31,322.79 647.23,336.9 661.04,350.91 " fill="none" id="Restaurante-Personal" style="stroke:#181818;stroke-width:1;"/><text fill="#000000" font-family="sans-serif" font-size="13" lengthAdjust="spacing" textLength="8.271" x="530.2416" y="241.9456">1</text><text fill="#000000" font-family="sans-serif" font-size="13" lengthAdjust="spacing" textLength="6.5" x="648.6378" y="340.2838">*</text></g><!--link Reserva to Mesa--><g class="link" data-entity-1="Reserva" data-entity-2="Mesa" data-source-line="74" data-uid="lnk12" id="link_Reserva_Mesa"><path codeLine="74" d="M195.46,538.09 C195.46,557.79 195.46,578.12 195.46,597.33 " fill="none" id="Reserva-Mesa" style="stroke:#181818;stroke-width:1;"/><text fill="#000000" font-family="sans-serif" font-size="13" lengthAdjust="spacing" textLength="8.271" x="187.2125" y="557.9382">1</text><text fill="#000000" font-family="sans-serif" font-size="13" lengthAdjust="spacing" textLength="8.271" x="187.1758" y="586.6662">1</text></g><!--link Pedido to Mesa--><g class="link" data-entity-1="Pedido" data-entity-2="Mesa" data-source-line="75" data-uid="lnk13" id="link_Pedido_Mesa"><path codeLine="75" d="M393.23,505.53 C362.97,534.4 328.51,567.27 296.93,597.39 " fill="none" id="Pedido-Mesa" style="stroke:#181818;stroke-width:1;"/><text fill="#000000" font-family="sans-serif" font-size="13" lengthAdjust="spacing" textLength="8.271" x="377.6592" y="525.2365">1</text><text fill="#000000" font-family="sans-serif" font-size="13" lengthAdjust="spacing" textLength="8.271" x="296.0975" y="586.7306">1</text></g><!--link Pedido to Plato--><g class="link" data-entity-1="Pedido" data-entity-2="Plato" data-source-line="76" data-uid="lnk14" id="link_Pedido_Plato"><path codeLine="76" d="M477.46,505.53 C477.46,542.53 477.46,586.09 477.46,622.02 " fill="none" id="Pedido-Plato" style="stroke:#181818;stroke-width:1;"/><text fill="#000000" font-family="sans-serif" font-size="13" lengthAdjust="spacing" textLength="8.271" x="469.1278" y="525.2365">1</text><text fill="#000000" font-family="sans-serif" font-size="13" lengthAdjust="spacing" textLength="6.5" x="471.1886" y="611.1554">*</text></g><!--SRC=[ZLHDRzim3BtdLmWvkHjowDKO2WnTXnsM8aYp7q3Bggj15WrAwMNOVvy-RTcEj_acFlazyf4KLs0CEme3xDUEkU_0zBKNX3MJsgO8Xm6uRA4jWzT6SXT5NRCNIr9tAIwCXHPdmO-i4_Ovq5Pt4qS8FsRk5V8Z2tXaoVOKL5Q86P5v6kxUEyfsztktuw7Yip22tgUYkP92Mx6evLNmDwZP5x1YPiuZza8RKCAKZWmaNWK9pIMO1L7l3FviPAUXTNpUxiA1A7shogzUtmDZ1eMLKn8hwqv59hTuZqKw7YyIWX0c7wbyrX5S-NSIhMnnj6-wcRrGOD6vy5qQ- -da3my9yRvBtva6KGdGMRSZqG65grNuksRXaANZDGwANnNG1IqedtgBrqPbRteW3kICmPUeKit_bgQ8P_sf9YythG7s3Iq7mhNOJUHCzS2i5Fs0plC1A6t4h1lFWUbM7qw1RbM6GovBpjpZeWDaK8FwUyA4QX5vGm9p8MZW9_vtecTKjyBV2gvLWcU_WbS2DzkpESbJuQSb3mN5TSnGsiwC3c7OncaAfumvcrmNIpJQyZ2VgurvZdUmiKABSEU4b1wgkEd7y8khQx4baVKfYLSvYtfiorp1tNR94L2gh4e5r_aXkjlQXr1i5HseqzhDkNiCp3uxKzs4aiO66Zadq3MmRDt-ViyE1xR_i8y6R619OmkE8jjeD6sNd-MCtIVHzDpy8-oP_0x_0G00]--></g></svg>