<svg xmlns="http://www.w3.org/2000/svg" xmlns:xlink="http://www.w3.org/1999/xlink" contentStyleType="text/css" data-diagram-type="STATE" height="972px" preserveAspectRatio="none" style="width:406px;height:972px;background:#FFFFFF;" version="1.1" viewBox="0 0 406 972" width="406px" zoomAndPan="magnify"><defs/><g><path d="M23.5,7 L316.2061,7 A12.5,12.5 0 0 1 328.7061,19.5 L328.7061,33.2969 L11,33.2969 L11,19.5 A12.5,12.5 0 0 1 23.5,7 " fill="#F1F1F1" style="stroke:#F1F1F1;stroke-width:1;"/><rect fill="transparent" height="419.2969" rx="12.5" ry="12.5" style="stroke:#181818;stroke-width:0.5;" width="317.7061" x="11" y="7"/><line style="stroke:#181818;stroke-width:0.5;" x1="11" x2="328.7061" y1="33.2969" y2="33.2969"/><text fill="#000000" font-family="sans-serif" font-size="14" lengthAdjust="spacing" textLength="56.8682" x="141.4189" y="24.9951">Reserva</text><ellipse cx="141.5" cy="54.2969" fill="#222222" rx="10" ry="10" style="stroke:#222222;stroke-width:1;"/><g id="Reserva.Pendiente"><rect fill="#F1F1F1" height="50" rx="12.5" ry="12.5" style="stroke:#181818;stroke-width:0.5;" width="90.2939" x="96.5" y="101.2969"/><line style="stroke:#181818;stroke-width:0.5;" x1="96.5" x2="186.7939" y1="127.5938" y2="127.5938"/><text fill="#000000" font-family="sans-serif" font-size="14" lengthAdjust="spacing" textLength="70.2939" x="106.5" y="119.292">Pendiente</text></g><g id="Reserva.Confirmada"><rect fill="#F1F1F1" height="50" rx="12.5" ry="12.5" style="stroke:#181818;stroke-width:0.5;" width="101.4707" x="91" y="204.2969"/><line style="stroke:#181818;stroke-width:0.5;" x1="91" x2="192.4707" y1="230.5938" y2="230.5938"/><text fill="#000000" font-family="sans-serif" font-size="14" lengthAdjust="spacing" textLength="81.4707" x="101" y="222.292">Confirmada</text></g><g id="Reserva.Cancelada"><rect fill="#F1F1F1" height="50" rx="12.5" ry="12.5" style="stroke:#181818;stroke-width:0.5;" width="93.4727" x="23" y="307.2969"/><line style="stroke:#181818;stroke-width:0.5;" x1="23" x2="116.4727" y1="333.5938" y2="333.5938"/><text fill="#000000" font-family="sans-serif" font-size="14" lengthAdjust="spacing" textLength="73.4727" x="33" y="325.292">Cancelada</text></g><g id="Reserva.Completada"><rect fill="#F1F1F1" height="50" rx="12.5" ry="12.5" style="stroke:#181818;stroke-width:0.5;" width="104.9023" x="162" y="307.2969"/><line style="stroke:#181818;stroke-width:0.5;" x1="162" x2="266.9023" y1="333.5938" y2="333.5938"/><text fill="#000000" font-family="sans-serif" font-size="14" lengthAdjust="spacing" textLength="84.9023" x="172" y="325.292">Completada</text></g><ellipse cx="141.5" cy="405.2969" fill="transparent" rx="11" ry="11" style="stroke:#222222;stroke-width:1;"/><ellipse cx="141.5" cy="405.2969" fill="#222222" rx="6" ry="6" style="stroke:#222222;stroke-width:1;"/><!--link *start*Reserva to Pendiente--><g id="link_*start*Reserva_Pendiente"><path d="M141.5,64.4469 C141.5,73.7169 141.5,82.4369 141.5,95.0769 " fill="transparent" id="*start*Reserva-to-Pendiente" style="stroke:#181818;stroke-width:1;"/><polygon fill="#181818" points="141.5,101.0769,145.5,92.0769,141.5,96.0769,137.5,92.0769,141.5,101.0769" style="stroke:#181818;stroke-width:1;"/></g><!--link Pendiente to Confirmada--><g id="link_Pendiente_Confirmada"><path d="M141.5,151.4869 C141.5,167.3669 141.5,182.0469 141.5,197.9569 " fill="transparent" id="Pendiente-to-Confirmada" style="stroke:#181818;stroke-width:1;"/><polygon fill="#181818" points="141.5,203.9569,145.5,194.9569,141.5,198.9569,137.5,194.9569,141.5,203.9569" style="stroke:#181818;stroke-width:1;"/><text fill="#000000" font-family="sans-serif" font-size="13" lengthAdjust="spacing" textLength="156.2856" x="142.5" y="182.3638">confirmaci&#243;n del cliente</text></g><!--link Confirmada to Cancelada--><g id="link_Confirmada_Cancelada"><path d="M90.94,244.2969 C77.43,250.5869 64.4,259.5769 56.5,272.2969 C50.02,282.7169 50.0618,290.3232 54.3218,301.6132 " fill="transparent" id="Confirmada-to-Cancelada" style="stroke:#181818;stroke-width:1;"/><polygon fill="#181818" points="56.44,307.2269,57.0052,297.3942,54.6749,302.5488,49.5203,300.2185,56.44,307.2269" style="stroke:#181818;stroke-width:1;"/><text fill="#000000" font-family="sans-serif" font-size="13" lengthAdjust="spacing" textLength="148.8589" x="57.5" y="285.3638">cancelaci&#243;n del cliente</text></g><!--link Confirmada to Completada--><g id="link_Confirmada_Completada"><path d="M189.86,254.4869 C196.31,259.5669 202.18,265.4969 206.5,272.2969 C212.99,282.5069 214.9402,289.7129 215.4502,301.0429 " fill="transparent" id="Confirmada-to-Completada" style="stroke:#181818;stroke-width:1;"/><polygon fill="#181818" points="215.72,307.0369,219.3112,297.8661,215.4952,302.0419,211.3193,298.2258,215.72,307.0369" style="stroke:#181818;stroke-width:1;"/><text fill="#000000" font-family="sans-serif" font-size="13" lengthAdjust="spacing" textLength="105.2061" x="213.5" y="285.3638">cliente atendido</text></g><!--link Cancelada to *end*Reserva--><g id="link_Cancelada_*end*Reserva"><path d="M93.88,357.3369 C107.91,371.1769 120.3058,383.406 129.7458,392.706 " fill="transparent" id="Cancelada-to-*end*Reserva" style="stroke:#181818;stroke-width:1;"/><polygon fill="#181818" points="134.02,396.9169,130.4159,387.7512,130.4582,393.4079,124.8015,393.4501,134.02,396.9169" style="stroke:#181818;stroke-width:1;"/></g><!--link Completada to *end*Reserva--><g id="link_Completada_*end*Reserva"><path d="M189.79,357.3369 C175.56,371.1769 162.9507,383.4331 153.3907,392.7331 " fill="transparent" id="Completada-to-*end*Reserva" style="stroke:#181818;stroke-width:1;"/><polygon fill="#181818" points="149.09,396.9169,158.3303,393.5084,152.6739,393.4304,152.7519,387.7741,149.09,396.9169" style="stroke:#181818;stroke-width:1;"/></g><path d="M19.5,503 L320.5933,503 A12.5,12.5 0 0 1 333.0933,515.5 L333.0933,529.2969 L7,529.2969 L7,515.5 A12.5,12.5 0 0 1 19.5,503 " fill="#F1F1F1" style="stroke:#F1F1F1;stroke-width:1;"/><rect fill="transparent" height="463.2969" rx="12.5" ry="12.5" style="stroke:#181818;stroke-width:0.5;" width="326.0933" x="7" y="503"/><line style="stroke:#181818;stroke-width:0.5;" x1="7" x2="333.0933" y1="529.2969" y2="529.2969"/><text fill="#000000" font-family="sans-serif" font-size="14" lengthAdjust="spacing" textLength="36.5654" x="151.7639" y="520.9951">Mesa</text><ellipse cx="160.5" cy="550.2969" fill="#222222" rx="10" ry="10" style="stroke:#222222;stroke-width:1;"/><g id="Mesa.Libre"><rect fill="#F1F1F1" height="50" rx="12.5" ry="12.5" style="stroke:#181818;stroke-width:0.5;" width="54.9453" x="133" y="597.2969"/><line style="stroke:#181818;stroke-width:0.5;" x1="133" x2="187.9453" y1="623.5938" y2="623.5938"/><text fill="#000000" font-family="sans-serif" font-size="14" lengthAdjust="spacing" textLength="34.9453" x="143" y="615.292">Libre</text></g><g id="Mesa.Reservada"><rect fill="#F1F1F1" height="50" rx="12.5" ry="12.5" style="stroke:#181818;stroke-width:0.5;" width="94.334" x="38.5" y="700.2969"/><line style="stroke:#181818;stroke-width:0.5;" x1="38.5" x2="132.834" y1="726.5938" y2="726.5938"/><text fill="#000000" font-family="sans-serif" font-size="14" lengthAdjust="spacing" textLength="74.334" x="48.5" y="718.292">Reservada</text></g><g id="Mesa.Ocupada"><rect fill="#F1F1F1" height="50" rx="12.5" ry="12.5" style="stroke:#181818;stroke-width:0.5;" width="82.5215" x="19" y="803.2969"/><line style="stroke:#181818;stroke-width:0.5;" x1="19" x2="101.5215" y1="829.5938" y2="829.5938"/><text fill="#000000" font-family="sans-serif" font-size="14" lengthAdjust="spacing" textLength="62.5215" x="29" y="821.292">Ocupada</text></g><g id="Mesa.EnPreparacion"><rect fill="#F1F1F1" height="50" rx="12.5" ry="12.5" style="stroke:#181818;stroke-width:0.5;" width="121.3564" x="85" y="906.2969"/><line style="stroke:#181818;stroke-width:0.5;" x1="85" x2="206.3564" y1="932.5938" y2="932.5938"/><text fill="#000000" font-family="sans-serif" font-size="14" lengthAdjust="spacing" textLength="101.3564" x="95" y="924.292">EnPreparacion</text></g><!--link *start*Mesa to Libre--><g id="link_*start*Mesa_Libre"><path d="M160.5,560.4469 C160.5,569.7169 160.5,578.4369 160.5,591.0769 " fill="transparent" id="*start*Mesa-to-Libre" style="stroke:#181818;stroke-width:1;"/><polygon fill="#181818" points="160.5,597.0769,164.5,588.0769,160.5,592.0769,156.5,588.0769,160.5,597.0769" style="stroke:#181818;stroke-width:1;"/></g><!--link Libre to Reservada--><g id="link_Libre_Reservada"><path d="M132.98,633.3869 C118.52,640.1569 101.9,650.5569 92.5,665.2969 C85.95,675.5569 84.0968,682.8984 83.8368,694.2984 " fill="transparent" id="Libre-to-Reservada" style="stroke:#181818;stroke-width:1;"/><polygon fill="#181818" points="83.7,700.2969,87.9042,691.3904,83.814,695.2982,79.9062,691.208,83.7,700.2969" style="stroke:#181818;stroke-width:1;"/><text fill="#000000" font-family="sans-serif" font-size="13" lengthAdjust="spacing" textLength="126.9722" x="93.5" y="678.3638">reserva confirmada</text></g><!--link Reservada to Ocupada--><g id="link_Reservada_Ocupada"><path d="M79.51,750.4869 C75.58,766.3669 71.8988,781.222 67.9688,797.132 " fill="transparent" id="Reservada-to-Ocupada" style="stroke:#181818;stroke-width:1;"/><polygon fill="#181818" points="66.53,802.9569,72.5715,795.1787,67.729,798.1028,64.805,793.2603,66.53,802.9569" style="stroke:#181818;stroke-width:1;"/><text fill="#000000" font-family="sans-serif" font-size="13" lengthAdjust="spacing" textLength="94.2881" x="75.5" y="781.3638">clientes llegan</text></g><!--link Ocupada to EnPreparacion--><g id="link_Ocupada_EnPreparacion"><path d="M53.78,853.3169 C51.99,864.7169 52.07,878.0569 58.5,888.2969 C64.83,898.3869 69.1143,903.1587 79.5543,909.0487 " fill="transparent" id="Ocupada-to-EnPreparacion" style="stroke:#181818;stroke-width:1;"/><polygon fill="#181818" points="84.78,911.9969,78.9069,904.0907,80.4252,909.54,74.976,911.0584,84.78,911.9969" style="stroke:#181818;stroke-width:1;"/><text fill="#000000" font-family="sans-serif" font-size="13" lengthAdjust="spacing" textLength="160.2148" x="59.5" y="884.3638">clientes se van, limpieza</text></g><!--link EnPreparacion to Libre--><g id="link_EnPreparacion_Libre"><path d="M204.29,906.0969 C210.73,901.1369 216.42,895.2469 220.5,888.2969 C270.62,802.7869 266.27,753.2069 220.5,665.2969 C213.63,652.0969 205.7412,645.1354 193.5112,638.2654 " fill="transparent" id="EnPreparacion-to-Libre" style="stroke:#181818;stroke-width:1;"/><polygon fill="#181818" points="188.28,635.3269,194.1677,643.2221,192.6393,637.7756,198.0858,636.2472,188.28,635.3269" style="stroke:#181818;stroke-width:1;"/><text fill="#000000" font-family="sans-serif" font-size="13" lengthAdjust="spacing" textLength="66.5933" x="256.5" y="781.3638">mesa lista</text></g><!--link Reserva to Mesa--><g id="link_Reserva_Mesa"><path d="M57.48,426.12 C54.24,436.08 51.38,446.07 49,456 C45.3,471.46 43.8365,481.1593 44.7065,496.7893 " fill="transparent" id="Reserva-to-Mesa" style="stroke:#181818;stroke-width:1;"/><polygon fill="#181818" points="45.04,502.78,48.5336,493.5716,44.7621,497.7877,40.546,494.0162,45.04,502.78" style="stroke:#181818;stroke-width:1;"/><text fill="#000000" font-family="sans-serif" font-size="13" lengthAdjust="spacing" textLength="195.0254" x="50" y="469.0669">asignaci&#243;n de reserva a mesa</text></g><!--link Mesa to Reserva--><g id="link_Mesa_Reserva"><path d="M252.57,502.77 C253.23,487.03 252.5,471.34 250,456 C248.4,446.19 247.7516,442.1071 245.5316,432.1171 " fill="transparent" id="Mesa-to-Reserva" style="stroke:#181818;stroke-width:1;"/><polygon fill="#181818" points="244.23,426.26,242.2776,435.9134,245.3147,431.1409,250.0871,434.178,244.23,426.26" style="stroke:#181818;stroke-width:1;"/><text fill="#000000" font-family="sans-serif" font-size="13" lengthAdjust="spacing" textLength="146.0723" x="252" y="469.0669">cliente ocupa su mesa</text></g><!--SRC=[ZP4n3W8X44NxFSN4qkW5B6oCdKPZQon6TZGaxB21rKBZgJo25nC65bShjnhWVVZ_h- -m8nZjo9ExuWZGGvxXNa7uzkC3JATps1BNchWZsIqhELjOFcdNO8qm0vKNIh-U33KPKEOZ7A2YH5PaiZ3D_-biqnhgiZ1n4984LxLDWd9pv4EAV4tHzTkFglAfX3Nvr40SVkAlzD4b9pB9NYvAFBXScYe-1VuWKR1Hb_RBiWTZw8miR7yQoILl7RNeGXkMXxmdk29FmEYcrNHBhtpJnMxGDJ69qI5WpDd_sKX8nbb8gyzSEYynK9ILG8EeWx9jT0l-8k0R]--></g></svg>