<svg xmlns="http://www.w3.org/2000/svg" xmlns:xlink="http://www.w3.org/1999/xlink" contentStyleType="text/css" data-diagram-type="CLASS" height="600px" preserveAspectRatio="none" style="width:835px;height:600px;background:#FFFFFF;" version="1.1" viewBox="0 0 835 600" width="835px" zoomAndPan="magnify"><defs/><g><!--cluster Restaurante--><g id="cluster_Restaurante"><rect fill="transparent" height="587" rx="2.5" ry="2.5" style="stroke:#000000;stroke-width:1.5;" width="822" x="7" y="7"/><text fill="#000000" font-family="sans-serif" font-size="14" font-weight="bold" lengthAdjust="spacing" textLength="97.2207" x="369.3896" y="21.9951">Restaurante</text></g><!--cluster Controlador--><g id="cluster_Controlador"><rect fill="transparent" height="245" rx="2.5" ry="2.5" style="stroke:#000000;stroke-width:1.5;" width="158" x="312" y="50"/><text fill="#000000" font-family="sans-serif" font-size="14" font-weight="bold" lengthAdjust="spacing" textLength="93.8643" x="344.0679" y="64.9951">Controlador</text></g><!--cluster Modelo--><g id="cluster_Modelo"><rect fill="transparent" height="226" rx="2.5" ry="2.5" style="stroke:#000000;stroke-width:1.5;" width="362" x="31" y="344"/><text fill="#000000" font-family="sans-serif" font-size="14" font-weight="bold" lengthAdjust="spacing" textLength="57.4834" x="183.2583" y="358.9951">Modelo</text></g><!--cluster Util--><g id="cluster_Util"><rect fill="transparent" height="99" rx="2.5" ry="2.5" style="stroke:#000000;stroke-width:1.5;" width="280" x="525" y="344"/><text fill="#000000" font-family="sans-serif" font-size="14" font-weight="bold" lengthAdjust="spacing" textLength="27.6582" x="651.1709" y="358.9951">Util</text></g><!--cluster Vista--><g id="cluster_Vista"><rect fill="transparent" height="99" rx="2.5" ry="2.5" style="stroke:#000000;stroke-width:1.5;" width="154" x="572" y="196"/><text fill="#000000" font-family="sans-serif" font-size="14" font-weight="bold" lengthAdjust="spacing" textLength="40.1064" x="628.9468" y="210.9951">Vista</text></g><!--class Main--><g id="elem_Main"><rect codeLine="7" fill="#F1F1F1" height="48" id="Main" rx="2.5" ry="2.5" style="stroke:#181818;stroke-width:0.5;" width="65.4209" x="374.5" y="85"/><ellipse cx="389.5" cy="101" fill="#ADD1B2" rx="11" ry="11" style="stroke:#181818;stroke-width:1;"/><path d="M392.4688,106.6406 Q391.8906,106.9375 391.25,107.0781 Q390.6094,107.2344 389.9063,107.2344 Q387.4063,107.2344 386.0781,105.5938 Q384.7656,103.9375 384.7656,100.8125 Q384.7656,97.6875 386.0781,96.0313 Q387.4063,94.375 389.9063,94.375 Q390.6094,94.375 391.25,94.5313 Q391.9063,94.6875 392.4688,94.9844 L392.4688,97.7031 Q391.8438,97.125 391.25,96.8594 Q390.6563,96.5781 390.0313,96.5781 Q388.6875,96.5781 388,97.6563 Q387.3125,98.7188 387.3125,100.8125 Q387.3125,102.9063 388,103.9844 Q388.6875,105.0469 390.0313,105.0469 Q390.6563,105.0469 391.25,104.7813 Q391.8438,104.5 392.4688,103.9219 L392.4688,106.6406 Z " fill="#000000"/><text fill="#000000" font-family="sans-serif" font-size="14" lengthAdjust="spacing" textLength="33.4209" x="403.5" y="105.8467">Main</text><line style="stroke:#181818;stroke-width:0.5;" x1="375.5" x2="438.9209" y1="117" y2="117"/><line style="stroke:#181818;stroke-width:0.5;" x1="375.5" x2="438.9209" y1="125" y2="125"/></g><!--class Restaurante_--><g id="elem_Restaurante_"><rect codeLine="8" fill="#F1F1F1" height="48" id="Restaurante_" rx="2.5" ry="2.5" style="stroke:#181818;stroke-width:0.5;" width="124.8867" x="328.5" y="231"/><ellipse cx="343.5" cy="247" fill="#ADD1B2" rx="11" ry="11" style="stroke:#181818;stroke-width:1;"/><path d="M346.4688,252.6406 Q345.8906,252.9375 345.25,253.0781 Q344.6094,253.2344 343.9063,253.2344 Q341.4063,253.2344 340.0781,251.5938 Q338.7656,249.9375 338.7656,246.8125 Q338.7656,243.6875 340.0781,242.0313 Q341.4063,240.375 343.9063,240.375 Q344.6094,240.375 345.25,240.5313 Q345.9063,240.6875 346.4688,240.9844 L346.4688,243.7031 Q345.8438,243.125 345.25,242.8594 Q344.6563,242.5781 344.0313,242.5781 Q342.6875,242.5781 342,243.6563 Q341.3125,244.7188 341.3125,246.8125 Q341.3125,248.9063 342,249.9844 Q342.6875,251.0469 344.0313,251.0469 Q344.6563,251.0469 345.25,250.7813 Q345.8438,250.5 346.4688,249.9219 L346.4688,252.6406 Z " fill="#000000"/><text fill="#000000" font-family="sans-serif" font-size="14" lengthAdjust="spacing" textLength="92.8867" x="357.5" y="251.8467">Restaurante_</text><line style="stroke:#181818;stroke-width:0.5;" x1="329.5" x2="452.3867" y1="263" y2="263"/><line style="stroke:#181818;stroke-width:0.5;" x1="329.5" x2="452.3867" y1="271" y2="271"/></g><!--class Mesa--><g id="elem_Mesa"><rect codeLine="12" fill="#F1F1F1" height="48" id="Mesa" rx="2.5" ry="2.5" style="stroke:#181818;stroke-width:0.5;" width="68.5654" x="298.5" y="506"/><ellipse cx="313.5" cy="522" fill="#ADD1B2" rx="11" ry="11" style="stroke:#181818;stroke-width:1;"/><path d="M316.4688,527.6406 Q315.8906,527.9375 315.25,528.0781 Q314.6094,528.2344 313.9063,528.2344 Q311.4063,528.2344 310.0781,526.5938 Q308.7656,524.9375 308.7656,521.8125 Q308.7656,518.6875 310.0781,517.0313 Q311.4063,515.375 313.9063,515.375 Q314.6094,515.375 315.25,515.5313 Q315.9063,515.6875 316.4688,515.9844 L316.4688,518.7031 Q315.8438,518.125 315.25,517.8594 Q314.6563,517.5781 314.0313,517.5781 Q312.6875,517.5781 312,518.6563 Q311.3125,519.7188 311.3125,521.8125 Q311.3125,523.9063 312,524.9844 Q312.6875,526.0469 314.0313,526.0469 Q314.6563,526.0469 315.25,525.7813 Q315.8438,525.5 316.4688,524.9219 L316.4688,527.6406 Z " fill="#000000"/><text fill="#000000" font-family="sans-serif" font-size="14" lengthAdjust="spacing" textLength="36.5654" x="327.5" y="526.8467">Mesa</text><line style="stroke:#181818;stroke-width:0.5;" x1="299.5" x2="366.0654" y1="538" y2="538"/><line style="stroke:#181818;stroke-width:0.5;" x1="299.5" x2="366.0654" y1="546" y2="546"/></g><!--class Reserva--><g id="elem_Reserva"><rect codeLine="13" fill="#F1F1F1" height="48" id="Reserva" rx="2.5" ry="2.5" style="stroke:#181818;stroke-width:0.5;" width="88.8682" x="288.5" y="379"/><ellipse cx="303.5" cy="395" fill="#ADD1B2" rx="11" ry="11" style="stroke:#181818;stroke-width:1;"/><path d="M306.4688,400.6406 Q305.8906,400.9375 305.25,401.0781 Q304.6094,401.2344 303.9063,401.2344 Q301.4063,401.2344 300.0781,399.5938 Q298.7656,397.9375 298.7656,394.8125 Q298.7656,391.6875 300.0781,390.0313 Q301.4063,388.375 303.9063,388.375 Q304.6094,388.375 305.25,388.5313 Q305.9063,388.6875 306.4688,388.9844 L306.4688,391.7031 Q305.8438,391.125 305.25,390.8594 Q304.6563,390.5781 304.0313,390.5781 Q302.6875,390.5781 302,391.6563 Q301.3125,392.7188 301.3125,394.8125 Q301.3125,396.9063 302,397.9844 Q302.6875,399.0469 304.0313,399.0469 Q304.6563,399.0469 305.25,398.7813 Q305.8438,398.5 306.4688,397.9219 L306.4688,400.6406 Z " fill="#000000"/><text fill="#000000" font-family="sans-serif" font-size="14" lengthAdjust="spacing" textLength="56.8682" x="317.5" y="399.8467">Reserva</text><line style="stroke:#181818;stroke-width:0.5;" x1="289.5" x2="376.3682" y1="411" y2="411"/><line style="stroke:#181818;stroke-width:0.5;" x1="289.5" x2="376.3682" y1="419" y2="419"/></g><!--class Pedido--><g id="elem_Pedido"><rect codeLine="14" fill="#F1F1F1" height="48" id="Pedido" rx="2.5" ry="2.5" style="stroke:#181818;stroke-width:0.5;" width="79.2842" x="46.5" y="379"/><ellipse cx="61.5" cy="395" fill="#ADD1B2" rx="11" ry="11" style="stroke:#181818;stroke-width:1;"/><path d="M64.4688,400.6406 Q63.8906,400.9375 63.25,401.0781 Q62.6094,401.2344 61.9063,401.2344 Q59.4063,401.2344 58.0781,399.5938 Q56.7656,397.9375 56.7656,394.8125 Q56.7656,391.6875 58.0781,390.0313 Q59.4063,388.375 61.9063,388.375 Q62.6094,388.375 63.25,388.5313 Q63.9063,388.6875 64.4688,388.9844 L64.4688,391.7031 Q63.8438,391.125 63.25,390.8594 Q62.6563,390.5781 62.0313,390.5781 Q60.6875,390.5781 60,391.6563 Q59.3125,392.7188 59.3125,394.8125 Q59.3125,396.9063 60,397.9844 Q60.6875,399.0469 62.0313,399.0469 Q62.6563,399.0469 63.25,398.7813 Q63.8438,398.5 64.4688,397.9219 L64.4688,400.6406 Z " fill="#000000"/><text fill="#000000" font-family="sans-serif" font-size="14" lengthAdjust="spacing" textLength="47.2842" x="75.5" y="399.8467">Pedido</text><line style="stroke:#181818;stroke-width:0.5;" x1="47.5" x2="124.7842" y1="411" y2="411"/><line style="stroke:#181818;stroke-width:0.5;" x1="47.5" x2="124.7842" y1="419" y2="419"/></g><!--class Plato--><g id="elem_Plato"><rect codeLine="15" fill="#F1F1F1" height="48" id="Plato" rx="2.5" ry="2.5" style="stroke:#181818;stroke-width:0.5;" width="66.9658" x="52.5" y="506"/><ellipse cx="67.5" cy="522" fill="#ADD1B2" rx="11" ry="11" style="stroke:#181818;stroke-width:1;"/><path d="M70.4688,527.6406 Q69.8906,527.9375 69.25,528.0781 Q68.6094,528.2344 67.9063,528.2344 Q65.4063,528.2344 64.0781,526.5938 Q62.7656,524.9375 62.7656,521.8125 Q62.7656,518.6875 64.0781,517.0313 Q65.4063,515.375 67.9063,515.375 Q68.6094,515.375 69.25,515.5313 Q69.9063,515.6875 70.4688,515.9844 L70.4688,518.7031 Q69.8438,518.125 69.25,517.8594 Q68.6563,517.5781 68.0313,517.5781 Q66.6875,517.5781 66,518.6563 Q65.3125,519.7188 65.3125,521.8125 Q65.3125,523.9063 66,524.9844 Q66.6875,526.0469 68.0313,526.0469 Q68.6563,526.0469 69.25,525.7813 Q69.8438,525.5 70.4688,524.9219 L70.4688,527.6406 Z " fill="#000000"/><text fill="#000000" font-family="sans-serif" font-size="14" lengthAdjust="spacing" textLength="34.9658" x="81.5" y="526.8467">Plato</text><line style="stroke:#181818;stroke-width:0.5;" x1="53.5" x2="118.4658" y1="538" y2="538"/><line style="stroke:#181818;stroke-width:0.5;" x1="53.5" x2="118.4658" y1="546" y2="546"/></g><!--class Personal--><g id="elem_Personal"><rect codeLine="16" fill="#F1F1F1" height="48" id="Personal" rx="2.5" ry="2.5" style="stroke:#181818;stroke-width:0.5;" width="92.0127" x="161" y="379"/><ellipse cx="176" cy="395" fill="#ADD1B2" rx="11" ry="11" style="stroke:#181818;stroke-width:1;"/><path d="M178.9688,400.6406 Q178.3906,400.9375 177.75,401.0781 Q177.1094,401.2344 176.4063,401.2344 Q173.9063,401.2344 172.5781,399.5938 Q171.2656,397.9375 171.2656,394.8125 Q171.2656,391.6875 172.5781,390.0313 Q173.9063,388.375 176.4063,388.375 Q177.1094,388.375 177.75,388.5313 Q178.4063,388.6875 178.9688,388.9844 L178.9688,391.7031 Q178.3438,391.125 177.75,390.8594 Q177.1563,390.5781 176.5313,390.5781 Q175.1875,390.5781 174.5,391.6563 Q173.8125,392.7188 173.8125,394.8125 Q173.8125,396.9063 174.5,397.9844 Q175.1875,399.0469 176.5313,399.0469 Q177.1563,399.0469 177.75,398.7813 Q178.3438,398.5 178.9688,397.9219 L178.9688,400.6406 Z " fill="#000000"/><text fill="#000000" font-family="sans-serif" font-size="14" lengthAdjust="spacing" textLength="60.0127" x="190" y="399.8467">Personal</text><line style="stroke:#181818;stroke-width:0.5;" x1="162" x2="252.0127" y1="411" y2="411"/><line style="stroke:#181818;stroke-width:0.5;" x1="162" x2="252.0127" y1="419" y2="419"/></g><!--class Constantes--><g id="elem_Constantes"><rect codeLine="20" fill="#F1F1F1" height="48" id="Constantes" rx="2.5" ry="2.5" style="stroke:#181818;stroke-width:0.5;" width="110.8457" x="678.5" y="379"/><ellipse cx="693.5" cy="395" fill="#ADD1B2" rx="11" ry="11" style="stroke:#181818;stroke-width:1;"/><path d="M696.4688,400.6406 Q695.8906,400.9375 695.25,401.0781 Q694.6094,401.2344 693.9063,401.2344 Q691.4063,401.2344 690.0781,399.5938 Q688.7656,397.9375 688.7656,394.8125 Q688.7656,391.6875 690.0781,390.0313 Q691.4063,388.375 693.9063,388.375 Q694.6094,388.375 695.25,388.5313 Q695.9063,388.6875 696.4688,388.9844 L696.4688,391.7031 Q695.8438,391.125 695.25,390.8594 Q694.6563,390.5781 694.0313,390.5781 Q692.6875,390.5781 692,391.6563 Q691.3125,392.7188 691.3125,394.8125 Q691.3125,396.9063 692,397.9844 Q692.6875,399.0469 694.0313,399.0469 Q694.6563,399.0469 695.25,398.7813 Q695.8438,398.5 696.4688,397.9219 L696.4688,400.6406 Z " fill="#000000"/><text fill="#000000" font-family="sans-serif" font-size="14" lengthAdjust="spacing" textLength="78.8457" x="707.5" y="399.8467">Constantes</text><line style="stroke:#181818;stroke-width:0.5;" x1="679.5" x2="788.3457" y1="411" y2="411"/><line style="stroke:#181818;stroke-width:0.5;" x1="679.5" x2="788.3457" y1="419" y2="419"/></g><!--class Utilidades--><g id="elem_Utilidades"><rect codeLine="21" fill="#F1F1F1" height="48" id="Utilidades" rx="2.5" ry="2.5" style="stroke:#181818;stroke-width:0.5;" width="101.665" x="541" y="379"/><ellipse cx="556" cy="395" fill="#ADD1B2" rx="11" ry="11" style="stroke:#181818;stroke-width:1;"/><path d="M558.9688,400.6406 Q558.3906,400.9375 557.75,401.0781 Q557.1094,401.2344 556.4063,401.2344 Q553.9063,401.2344 552.5781,399.5938 Q551.2656,397.9375 551.2656,394.8125 Q551.2656,391.6875 552.5781,390.0313 Q553.9063,388.375 556.4063,388.375 Q557.1094,388.375 557.75,388.5313 Q558.4063,388.6875 558.9688,388.9844 L558.9688,391.7031 Q558.3438,391.125 557.75,390.8594 Q557.1563,390.5781 556.5313,390.5781 Q555.1875,390.5781 554.5,391.6563 Q553.8125,392.7188 553.8125,394.8125 Q553.8125,396.9063 554.5,397.9844 Q555.1875,399.0469 556.5313,399.0469 Q557.1563,399.0469 557.75,398.7813 Q558.3438,398.5 558.9688,397.9219 L558.9688,400.6406 Z " fill="#000000"/><text fill="#000000" font-family="sans-serif" font-size="14" lengthAdjust="spacing" textLength="69.665" x="570" y="399.8467">Utilidades</text><line style="stroke:#181818;stroke-width:0.5;" x1="542" x2="641.665" y1="411" y2="411"/><line style="stroke:#181818;stroke-width:0.5;" x1="542" x2="641.665" y1="419" y2="419"/></g><!--class VistaConsola--><g id="elem_VistaConsola"><rect codeLine="25" fill="#F1F1F1" height="48" id="VistaConsola" rx="2.5" ry="2.5" style="stroke:#181818;stroke-width:0.5;" width="122.3711" x="588" y="231"/><ellipse cx="603" cy="247" fill="#ADD1B2" rx="11" ry="11" style="stroke:#181818;stroke-width:1;"/><path d="M605.9688,252.6406 Q605.3906,252.9375 604.75,253.0781 Q604.1094,253.2344 603.4063,253.2344 Q600.9063,253.2344 599.5781,251.5938 Q598.2656,249.9375 598.2656,246.8125 Q598.2656,243.6875 599.5781,242.0313 Q600.9063,240.375 603.4063,240.375 Q604.1094,240.375 604.75,240.5313 Q605.4063,240.6875 605.9688,240.9844 L605.9688,243.7031 Q605.3438,243.125 604.75,242.8594 Q604.1563,242.5781 603.5313,242.5781 Q602.1875,242.5781 601.5,243.6563 Q600.8125,244.7188 600.8125,246.8125 Q600.8125,248.9063 601.5,249.9844 Q602.1875,251.0469 603.5313,251.0469 Q604.1563,251.0469 604.75,250.7813 Q605.3438,250.5 605.9688,249.9219 L605.9688,252.6406 Z " fill="#000000"/><text fill="#000000" font-family="sans-serif" font-size="14" lengthAdjust="spacing" textLength="90.3711" x="617" y="251.8467">VistaConsola</text><line style="stroke:#181818;stroke-width:0.5;" x1="589" x2="709.3711" y1="263" y2="263"/><line style="stroke:#181818;stroke-width:0.5;" x1="589" x2="709.3711" y1="271" y2="271"/></g><!--link Main to Restaurante_--><g id="link_Main_Restaurante_"><path codeLine="28" d="M404.43,133.14 C401.44,160.01 397.2141,198.1069 394.2241,224.9569 " fill="transparent" id="Main-to-Restaurante_" style="stroke:#181818;stroke-width:1;"/><polygon fill="#181818" points="393.56,230.92,398.5315,222.418,394.1134,225.9507,390.5807,221.5326,393.56,230.92" style="stroke:#181818;stroke-width:1;"/><text fill="#000000" font-family="sans-serif" font-size="13" lengthAdjust="spacing" textLength="56.2847" x="401" y="176.0669">contiene</text></g><!--link Main to VistaConsola--><g id="link_Main_VistaConsola"><path codeLine="29" d="M439.64,129.42 C483.89,155.75 557.6541,199.6413 604.9341,227.7813 " fill="transparent" id="Main-to-VistaConsola" style="stroke:#181818;stroke-width:1;"/><polygon fill="#181818" points="610.09,230.85,604.4019,222.8097,605.7934,228.2928,600.3104,229.6843,610.09,230.85" style="stroke:#181818;stroke-width:1;"/><text fill="#000000" font-family="sans-serif" font-size="13" lengthAdjust="spacing" textLength="22.9785" x="521" y="176.0669">usa</text></g><!--link Restaurante_ to Mesa--><g id="link_Restaurante__Mesa"><path codeLine="31" d="M414.59,279.07 C422.33,288.21 429.97,299.31 434,311 C436.46,318.14 435.16,320.53 434,328 C423.4,396.47 422.87,417.97 385,476 C377.96,486.8 372.7704,493.0457 363.8404,501.7757 " fill="transparent" id="Restaurante_-to-Mesa" style="stroke:#181818;stroke-width:1;"/><polygon fill="#181818" points="359.55,505.97,368.7818,502.5388,363.1253,502.4747,363.1894,496.8182,359.55,505.97" style="stroke:#181818;stroke-width:1;"/><text fill="#000000" font-family="sans-serif" font-size="13" lengthAdjust="spacing" textLength="56.2847" x="433" y="407.5669">contiene</text></g><!--link Restaurante_ to Reserva--><g id="link_Restaurante__Reserva"><path codeLine="32" d="M381.81,279.13 C370.95,306.47 355.205,346.1038 344.365,373.3938 " fill="transparent" id="Restaurante_-to-Reserva" style="stroke:#181818;stroke-width:1;"/><polygon fill="#181818" points="342.15,378.97,349.1899,372.0823,343.9958,374.3232,341.755,369.1291,342.15,378.97" style="stroke:#181818;stroke-width:1;"/><text fill="#000000" font-family="sans-serif" font-size="13" lengthAdjust="spacing" textLength="56.2847" x="369" y="324.0669">contiene</text></g><!--link Restaurante_ to Pedido--><g id="link_Restaurante__Pedido"><path codeLine="33" d="M328.46,265.78 C275.44,276.39 199.26,297.26 143,336 C126.42,347.42 115.2341,359.9559 104.9041,374.0059 " fill="transparent" id="Restaurante_-to-Pedido" style="stroke:#181818;stroke-width:1;"/><polygon fill="#181818" points="101.35,378.84,109.9039,373.9584,104.3118,374.8116,103.4585,369.2195,101.35,378.84" style="stroke:#181818;stroke-width:1;"/><text fill="#000000" font-family="sans-serif" font-size="13" lengthAdjust="spacing" textLength="56.2847" x="186" y="324.0669">contiene</text></g><!--link Restaurante_ to Personal--><g id="link_Restaurante__Personal"><path codeLine="34" d="M346.57,279.13 C330.43,288.27 312.38,299.37 297,311 C284.21,320.67 282.36,324.69 271,336 C256.86,350.08 245.4253,361.8117 233.1753,374.5717 " fill="transparent" id="Restaurante_-to-Personal" style="stroke:#181818;stroke-width:1;"/><polygon fill="#181818" points="229.02,378.9,238.1384,375.1778,232.4827,375.2931,232.3674,369.6374,229.02,378.9" style="stroke:#181818;stroke-width:1;"/><text fill="#000000" font-family="sans-serif" font-size="13" lengthAdjust="spacing" textLength="56.2847" x="298" y="324.0669">contiene</text></g><!--link Reserva to Mesa--><g id="link_Reserva_Mesa"><path codeLine="36" d="M333,427.22 C333,449.67 333,477.5 333,499.91 " fill="transparent" id="Reserva-to-Mesa" style="stroke:#181818;stroke-width:1;"/><polygon fill="#181818" points="333,505.91,337,496.91,333,500.91,329,496.91,333,505.91" style="stroke:#181818;stroke-width:1;"/><text fill="#000000" font-family="sans-serif" font-size="13" lengthAdjust="spacing" textLength="42.8086" x="334" y="472.0669">asigna</text></g><!--link Pedido to Mesa--><g id="link_Pedido_Mesa"><path codeLine="37" d="M110.6,427.02 C120.22,435.28 131.67,444.21 143,451 C193.94,481.5 253.2911,503.4431 292.5511,516.3731 " fill="transparent" id="Pedido-to-Mesa" style="stroke:#181818;stroke-width:1;"/><polygon fill="#181818" points="298.25,518.25,290.9529,511.6354,293.5009,516.6859,288.4504,519.2339,298.25,518.25" style="stroke:#181818;stroke-width:1;"/><text fill="#000000" font-family="sans-serif" font-size="13" lengthAdjust="spacing" textLength="29.5293" x="188" y="472.0669">para</text></g><!--link Pedido to Plato--><g id="link_Pedido_Plato"><path codeLine="38" d="M86,427.22 C86,449.67 86,477.5 86,499.91 " fill="transparent" id="Pedido-to-Plato" style="stroke:#181818;stroke-width:1;"/><polygon fill="#181818" points="86,505.91,90,496.91,86,500.91,82,496.91,86,505.91" style="stroke:#181818;stroke-width:1;"/><text fill="#000000" font-family="sans-serif" font-size="13" lengthAdjust="spacing" textLength="46.541" x="87" y="472.0669">incluye</text></g><!--link VistaConsola to Constantes--><g id="link_VistaConsola_Constantes"><path codeLine="40" d="M662.47,279.13 C678.38,306.47 701.6923,346.4941 717.5723,373.7841 " fill="transparent" id="VistaConsola-to-Constantes" style="stroke:#181818;stroke-width:1;stroke-dasharray:7.0,7.0;"/><polygon fill="#181818" points="720.59,378.97,719.5208,369.1794,718.0753,374.6484,712.6062,373.2029,720.59,378.97" style="stroke:#181818;stroke-width:1;"/><text fill="#000000" font-family="sans-serif" font-size="13" lengthAdjust="spacing" textLength="22.9785" x="689" y="324.0669">usa</text></g><!--link Restaurante_ to Utilidades--><g id="link_Restaurante__Utilidades"><path codeLine="41" d="M429.24,279.14 C453.95,294.51 486.51,315.55 514,336 C532.08,349.44 546.8979,361.8351 561.7979,374.8951 " fill="transparent" id="Restaurante_-to-Utilidades" style="stroke:#181818;stroke-width:1;stroke-dasharray:7.0,7.0;"/><polygon fill="#181818" points="566.31,378.85,562.1785,369.9096,562.5499,375.5543,556.9053,375.9257,566.31,378.85" style="stroke:#181818;stroke-width:1;"/><text fill="#000000" font-family="sans-serif" font-size="13" lengthAdjust="spacing" textLength="22.9785" x="502" y="324.0669">usa</text></g><!--SRC=[ZP8nQyCm48Lt_ueZUqBd3e7IgKEWDAHhk5g74L6b89qBISb_xqcMMragj1xllVly_CxXfEqPFRx36ViJ3hJdYo7mr3FQmL0NlWszmH0UcBr-6vcUUcVt-afmrtLv5LOl51X7ZvPf1PzT1_BCugEpx9r1vRn8a9y4XHrgMuqAr359joLkvnGPrv8eO4iY_r5FdqbfvUgXGMvcv8EpQ7uBSM1jcWZoeH9TSeTAY6wjK6MXOhrgsMfWQHg9qbov5Hk3zNgxw0dkGQx2cYmjJIL5JADqb0oBvMYCzTMKnfGB_TCtLVmFsrHmQPoTwJr5C0nwi5CHcLw8yJUjfNHHqRJjpNZ9u4KTcyssE5bkfmaQNJ_tcpkyVG40]--></g></svg>