<svg xmlns="http://www.w3.org/2000/svg" xmlns:xlink="http://www.w3.org/1999/xlink" contentStyleType="text/css" data-diagram-type="CLASS" height="614px" preserveAspectRatio="none" style="width:595px;height:614px;background:#FFFFFF;" version="1.1" viewBox="0 0 595 614" width="595px" zoomAndPan="magnify"><defs/><g><!--cluster core--><g class="cluster" data-entity="core" data-source-line="4" data-uid="ent0003" id="cluster_core"><path d="M28.84,242 L64.1564,242 A3.75,3.75 0 0 1 66.6564,244.5 L73.6564,264.2969 L416.84,264.2969 A2.5,2.5 0 0 1 419.34,266.7969 L419.34,604.5 A2.5,2.5 0 0 1 416.84,607 L28.84,607 A2.5,2.5 0 0 1 26.34,604.5 L26.34,244.5 A2.5,2.5 0 0 1 28.84,242" fill="none" style="stroke:#000000;stroke-width:1.5;"/><line style="stroke:#000000;stroke-width:1.5;" x1="26.34" x2="73.6564" y1="264.2969" y2="264.2969"/><text fill="#000000" font-family="sans-serif" font-size="14" font-weight="bold" lengthAdjust="spacing" textLength="34.3164" x="30.34" y="256.9951">core</text></g><!--cluster auth--><g class="cluster" data-entity="auth" data-source-line="29" data-uid="ent0020" id="cluster_auth"><path d="M29.84,102 L66.9132,102 A3.75,3.75 0 0 1 69.4132,104.5 L76.4132,124.2969 L196.84,124.2969 A2.5,2.5 0 0 1 199.34,126.7969 L199.34,198.5 A2.5,2.5 0 0 1 196.84,201 L29.84,201 A2.5,2.5 0 0 1 27.34,198.5 L27.34,104.5 A2.5,2.5 0 0 1 29.84,102" fill="none" style="stroke:#000000;stroke-width:1.5;"/><line style="stroke:#000000;stroke-width:1.5;" x1="27.34" x2="76.4132" y1="124.2969" y2="124.2969"/><text fill="#000000" font-family="sans-serif" font-size="14" font-weight="bold" lengthAdjust="spacing" textLength="36.0732" x="31.34" y="116.9951">auth</text></g><!--cluster ui--><g class="cluster" data-entity="ui" data-source-line="34" data-uid="ent0022" id="cluster_ui"><path d="M225.84,102 L241.6056,102 A3.75,3.75 0 0 1 244.1056,104.5 L251.1056,124.2969 L585.84,124.2969 A2.5,2.5 0 0 1 588.34,126.7969 L588.34,198.5 A2.5,2.5 0 0 1 585.84,201 L225.84,201 A2.5,2.5 0 0 1 223.34,198.5 L223.34,104.5 A2.5,2.5 0 0 1 225.84,102" fill="none" style="stroke:#000000;stroke-width:1.5;"/><line style="stroke:#000000;stroke-width:1.5;" x1="223.34" x2="251.1056" y1="124.2969" y2="124.2969"/><text fill="#000000" font-family="sans-serif" font-size="14" font-weight="bold" lengthAdjust="spacing" textLength="14.7656" x="227.34" y="116.9951">ui</text></g><!--class Personaje--><g class="entity" data-entity="Personaje" data-source-line="5" data-uid="ent0004" id="entity_Personaje"><rect fill="#F1F1F1" height="48" rx="2.5" ry="2.5" style="stroke:#181818;stroke-width:0.5;" width="100.626" x="170.03" y="285"/><ellipse cx="185.03" cy="301" fill="#A9DCDF" rx="11" ry="11" style="stroke:#181818;stroke-width:1;"/><path d="M185.1394,296.3438 L183.9831,301.4219 L186.3113,301.4219 L185.1394,296.3438 Z M183.655,294.1094 L186.6394,294.1094 L189.9988,306.5 L187.5456,306.5 L186.78,303.4375 L183.4988,303.4375 L182.7488,306.5 L180.3113,306.5 L183.655,294.1094 Z " fill="#000000"/><text fill="#000000" font-family="sans-serif" font-size="14" font-style="italic" lengthAdjust="spacing" textLength="68.626" x="199.03" y="305.8467">Personaje</text><line style="stroke:#181818;stroke-width:0.5;" x1="171.03" x2="269.656" y1="317" y2="317"/><line style="stroke:#181818;stroke-width:0.5;" x1="171.03" x2="269.656" y1="325" y2="325"/></g><!--class Guerrero--><g class="entity" data-entity="Guerrero" data-source-line="6" data-uid="ent0005" id="entity_Guerrero"><rect fill="#F1F1F1" height="48" rx="2.5" ry="2.5" style="stroke:#181818;stroke-width:0.5;" width="94.7813" x="300.95" y="410"/><ellipse cx="315.95" cy="426" fill="#ADD1B2" rx="11" ry="11" style="stroke:#181818;stroke-width:1;"/><path d="M318.9188,431.6406 Q318.3406,431.9375 317.7,432.0781 Q317.0594,432.2344 316.3563,432.2344 Q313.8563,432.2344 312.5281,430.5938 Q311.2156,428.9375 311.2156,425.8125 Q311.2156,422.6875 312.5281,421.0313 Q313.8563,419.375 316.3563,419.375 Q317.0594,419.375 317.7,419.5313 Q318.3563,419.6875 318.9188,419.9844 L318.9188,422.7031 Q318.2938,422.125 317.7,421.8594 Q317.1063,421.5781 316.4813,421.5781 Q315.1375,421.5781 314.45,422.6563 Q313.7625,423.7188 313.7625,425.8125 Q313.7625,427.9063 314.45,428.9844 Q315.1375,430.0469 316.4813,430.0469 Q317.1063,430.0469 317.7,429.7813 Q318.2938,429.5 318.9188,428.9219 L318.9188,431.6406 Z " fill="#000000"/><text fill="#000000" font-family="sans-serif" font-size="14" lengthAdjust="spacing" textLength="62.7813" x="329.95" y="430.8467">Guerrero</text><line style="stroke:#181818;stroke-width:0.5;" x1="301.95" x2="394.7313" y1="442" y2="442"/><line style="stroke:#181818;stroke-width:0.5;" x1="301.95" x2="394.7313" y1="450" y2="450"/></g><!--class Vampiro--><g class="entity" data-entity="Vampiro" data-source-line="7" data-uid="ent0006" id="entity_Vampiro"><rect fill="#F1F1F1" height="48" rx="2.5" ry="2.5" style="stroke:#181818;stroke-width:0.5;" width="90.8916" x="174.89" y="410"/><ellipse cx="189.89" cy="426" fill="#ADD1B2" rx="11" ry="11" style="stroke:#181818;stroke-width:1;"/><path d="M192.8588,431.6406 Q192.2806,431.9375 191.64,432.0781 Q190.9994,432.2344 190.2963,432.2344 Q187.7963,432.2344 186.4681,430.5938 Q185.1556,428.9375 185.1556,425.8125 Q185.1556,422.6875 186.4681,421.0313 Q187.7963,419.375 190.2963,419.375 Q190.9994,419.375 191.64,419.5313 Q192.2963,419.6875 192.8588,419.9844 L192.8588,422.7031 Q192.2338,422.125 191.64,421.8594 Q191.0463,421.5781 190.4213,421.5781 Q189.0775,421.5781 188.39,422.6563 Q187.7025,423.7188 187.7025,425.8125 Q187.7025,427.9063 188.39,428.9844 Q189.0775,430.0469 190.4213,430.0469 Q191.0463,430.0469 191.64,429.7813 Q192.2338,429.5 192.8588,428.9219 L192.8588,431.6406 Z " fill="#000000"/><text fill="#000000" font-family="sans-serif" font-size="14" lengthAdjust="spacing" textLength="58.8916" x="203.89" y="430.8467">Vampiro</text><line style="stroke:#181818;stroke-width:0.5;" x1="175.89" x2="264.7816" y1="442" y2="442"/><line style="stroke:#181818;stroke-width:0.5;" x1="175.89" x2="264.7816" y1="450" y2="450"/></g><!--class Ataque--><g class="entity" data-entity="Ataque" data-source-line="12" data-uid="ent0009" id="entity_Ataque"><rect fill="#F1F1F1" height="48" rx="2.5" ry="2.5" style="stroke:#181818;stroke-width:0.5;" width="82.0186" x="58.33" y="410"/><ellipse cx="73.33" cy="426" fill="#A9DCDF" rx="11" ry="11" style="stroke:#181818;stroke-width:1;"/><path d="M73.4394,421.3438 L72.2831,426.4219 L74.6113,426.4219 L73.4394,421.3438 Z M71.955,419.1094 L74.9394,419.1094 L78.2988,431.5 L75.8456,431.5 L75.08,428.4375 L71.7988,428.4375 L71.0488,431.5 L68.6113,431.5 L71.955,419.1094 Z " fill="#000000"/><text fill="#000000" font-family="sans-serif" font-size="14" font-style="italic" lengthAdjust="spacing" textLength="50.0186" x="87.33" y="430.8467">Ataque</text><line style="stroke:#181818;stroke-width:0.5;" x1="59.33" x2="139.3486" y1="442" y2="442"/><line style="stroke:#181818;stroke-width:0.5;" x1="59.33" x2="139.3486" y1="450" y2="450"/></g><!--class Arma--><g class="entity" data-entity="Arma" data-source-line="13" data-uid="ent0010" id="entity_Arma"><rect fill="#F1F1F1" height="48" rx="2.5" ry="2.5" style="stroke:#181818;stroke-width:0.5;" width="69.5498" x="60.57" y="535"/><ellipse cx="75.57" cy="551" fill="#ADD1B2" rx="11" ry="11" style="stroke:#181818;stroke-width:1;"/><path d="M78.5388,556.6406 Q77.9606,556.9375 77.32,557.0781 Q76.6794,557.2344 75.9763,557.2344 Q73.4763,557.2344 72.1481,555.5938 Q70.8356,553.9375 70.8356,550.8125 Q70.8356,547.6875 72.1481,546.0313 Q73.4763,544.375 75.9763,544.375 Q76.6794,544.375 77.32,544.5313 Q77.9763,544.6875 78.5388,544.9844 L78.5388,547.7031 Q77.9138,547.125 77.32,546.8594 Q76.7263,546.5781 76.1013,546.5781 Q74.7575,546.5781 74.07,547.6563 Q73.3825,548.7188 73.3825,550.8125 Q73.3825,552.9063 74.07,553.9844 Q74.7575,555.0469 76.1013,555.0469 Q76.7263,555.0469 77.32,554.7813 Q77.9138,554.5 78.5388,553.9219 L78.5388,556.6406 Z " fill="#000000"/><text fill="#000000" font-family="sans-serif" font-size="14" lengthAdjust="spacing" textLength="37.5498" x="89.57" y="555.8467">Arma</text><line style="stroke:#181818;stroke-width:0.5;" x1="61.57" x2="129.1198" y1="567" y2="567"/><line style="stroke:#181818;stroke-width:0.5;" x1="61.57" x2="129.1198" y1="575" y2="575"/></g><!--class Mordida--><g class="entity" data-entity="Mordida" data-source-line="14" data-uid="ent0011" id="entity_Mordida"><rect fill="#F1F1F1" height="48" rx="2.5" ry="2.5" style="stroke:#181818;stroke-width:0.5;" width="88.6426" x="165.02" y="535"/><ellipse cx="180.02" cy="551" fill="#ADD1B2" rx="11" ry="11" style="stroke:#181818;stroke-width:1;"/><path d="M182.9888,556.6406 Q182.4106,556.9375 181.77,557.0781 Q181.1294,557.2344 180.4263,557.2344 Q177.9263,557.2344 176.5981,555.5938 Q175.2856,553.9375 175.2856,550.8125 Q175.2856,547.6875 176.5981,546.0313 Q177.9263,544.375 180.4263,544.375 Q181.1294,544.375 181.77,544.5313 Q182.4263,544.6875 182.9888,544.9844 L182.9888,547.7031 Q182.3638,547.125 181.77,546.8594 Q181.1763,546.5781 180.5513,546.5781 Q179.2075,546.5781 178.52,547.6563 Q177.8325,548.7188 177.8325,550.8125 Q177.8325,552.9063 178.52,553.9844 Q179.2075,555.0469 180.5513,555.0469 Q181.1763,555.0469 181.77,554.7813 Q182.3638,554.5 182.9888,553.9219 L182.9888,556.6406 Z " fill="#000000"/><text fill="#000000" font-family="sans-serif" font-size="14" lengthAdjust="spacing" textLength="56.6426" x="194.02" y="555.8467">Mordida</text><line style="stroke:#181818;stroke-width:0.5;" x1="166.02" x2="252.6626" y1="567" y2="567"/><line style="stroke:#181818;stroke-width:0.5;" x1="166.02" x2="252.6626" y1="575" y2="575"/></g><!--class Pocion--><g class="entity" data-entity="Pocion" data-source-line="15" data-uid="ent0012" id="entity_Pocion"><rect fill="#F1F1F1" height="48" rx="2.5" ry="2.5" style="stroke:#181818;stroke-width:0.5;" width="78.0332" x="309.32" y="535"/><ellipse cx="324.32" cy="551" fill="#ADD1B2" rx="11" ry="11" style="stroke:#181818;stroke-width:1;"/><path d="M327.2888,556.6406 Q326.7106,556.9375 326.07,557.0781 Q325.4294,557.2344 324.7263,557.2344 Q322.2263,557.2344 320.8981,555.5938 Q319.5856,553.9375 319.5856,550.8125 Q319.5856,547.6875 320.8981,546.0313 Q322.2263,544.375 324.7263,544.375 Q325.4294,544.375 326.07,544.5313 Q326.7263,544.6875 327.2888,544.9844 L327.2888,547.7031 Q326.6638,547.125 326.07,546.8594 Q325.4763,546.5781 324.8513,546.5781 Q323.5075,546.5781 322.82,547.6563 Q322.1325,548.7188 322.1325,550.8125 Q322.1325,552.9063 322.82,553.9844 Q323.5075,555.0469 324.8513,555.0469 Q325.4763,555.0469 326.07,554.7813 Q326.6638,554.5 327.2888,553.9219 L327.2888,556.6406 Z " fill="#000000"/><text fill="#000000" font-family="sans-serif" font-size="14" lengthAdjust="spacing" textLength="46.0332" x="338.32" y="555.8467">Pocion</text><line style="stroke:#181818;stroke-width:0.5;" x1="310.32" x2="386.3532" y1="567" y2="567"/><line style="stroke:#181818;stroke-width:0.5;" x1="310.32" x2="386.3532" y1="575" y2="575"/></g><!--class Batalla--><g class="entity" data-entity="Batalla" data-source-line="23" data-uid="ent0017" id="entity_Batalla"><rect fill="#F1F1F1" height="48" rx="2.5" ry="2.5" style="stroke:#181818;stroke-width:0.5;" width="80.6104" x="307.03" y="285"/><ellipse cx="322.03" cy="301" fill="#ADD1B2" rx="11" ry="11" style="stroke:#181818;stroke-width:1;"/><path d="M324.9988,306.6406 Q324.4206,306.9375 323.78,307.0781 Q323.1394,307.2344 322.4363,307.2344 Q319.9363,307.2344 318.6081,305.5938 Q317.2956,303.9375 317.2956,300.8125 Q317.2956,297.6875 318.6081,296.0313 Q319.9363,294.375 322.4363,294.375 Q323.1394,294.375 323.78,294.5313 Q324.4363,294.6875 324.9988,294.9844 L324.9988,297.7031 Q324.3738,297.125 323.78,296.8594 Q323.1863,296.5781 322.5613,296.5781 Q321.2175,296.5781 320.53,297.6563 Q319.8425,298.7188 319.8425,300.8125 Q319.8425,302.9063 320.53,303.9844 Q321.2175,305.0469 322.5613,305.0469 Q323.1863,305.0469 323.78,304.7813 Q324.3738,304.5 324.9988,303.9219 L324.9988,306.6406 Z " fill="#000000"/><text fill="#000000" font-family="sans-serif" font-size="14" lengthAdjust="spacing" textLength="48.6104" x="336.03" y="305.8467">Batalla</text><line style="stroke:#181818;stroke-width:0.5;" x1="308.03" x2="386.6404" y1="317" y2="317"/><line style="stroke:#181818;stroke-width:0.5;" x1="308.03" x2="386.6404" y1="325" y2="325"/></g><!--class GestorUsuarios--><g class="entity" data-entity="GestorUsuarios" data-source-line="30" data-uid="ent0021" id="entity_GestorUsuarios"><rect fill="#F1F1F1" height="48" rx="2.5" ry="2.5" style="stroke:#181818;stroke-width:0.5;" width="139.0645" x="43.81" y="137"/><ellipse cx="58.81" cy="153" fill="#ADD1B2" rx="11" ry="11" style="stroke:#181818;stroke-width:1;"/><path d="M61.7788,158.6406 Q61.2006,158.9375 60.56,159.0781 Q59.9194,159.2344 59.2163,159.2344 Q56.7163,159.2344 55.3881,157.5938 Q54.0756,155.9375 54.0756,152.8125 Q54.0756,149.6875 55.3881,148.0313 Q56.7163,146.375 59.2163,146.375 Q59.9194,146.375 60.56,146.5313 Q61.2163,146.6875 61.7788,146.9844 L61.7788,149.7031 Q61.1538,149.125 60.56,148.8594 Q59.9663,148.5781 59.3413,148.5781 Q57.9975,148.5781 57.31,149.6563 Q56.6225,150.7188 56.6225,152.8125 Q56.6225,154.9063 57.31,155.9844 Q57.9975,157.0469 59.3413,157.0469 Q59.9663,157.0469 60.56,156.7813 Q61.1538,156.5 61.7788,155.9219 L61.7788,158.6406 Z " fill="#000000"/><text fill="#000000" font-family="sans-serif" font-size="14" lengthAdjust="spacing" textLength="107.0645" x="72.81" y="157.8467">GestorUsuarios</text><line style="stroke:#181818;stroke-width:0.5;" x1="44.81" x2="181.8745" y1="169" y2="169"/><line style="stroke:#181818;stroke-width:0.5;" x1="44.81" x2="181.8745" y1="177" y2="177"/></g><!--class VistaConsola--><g class="entity" data-entity="VistaConsola" data-source-line="35" data-uid="ent0023" id="entity_VistaConsola"><rect fill="#F1F1F1" height="48" rx="2.5" ry="2.5" style="stroke:#181818;stroke-width:0.5;" width="122.3711" x="239.15" y="137"/><ellipse cx="254.15" cy="153" fill="#ADD1B2" rx="11" ry="11" style="stroke:#181818;stroke-width:1;"/><path d="M257.1188,158.6406 Q256.5406,158.9375 255.9,159.0781 Q255.2594,159.2344 254.5563,159.2344 Q252.0563,159.2344 250.7281,157.5938 Q249.4156,155.9375 249.4156,152.8125 Q249.4156,149.6875 250.7281,148.0313 Q252.0563,146.375 254.5563,146.375 Q255.2594,146.375 255.9,146.5313 Q256.5563,146.6875 257.1188,146.9844 L257.1188,149.7031 Q256.4938,149.125 255.9,148.8594 Q255.3063,148.5781 254.6813,148.5781 Q253.3375,148.5781 252.65,149.6563 Q251.9625,150.7188 251.9625,152.8125 Q251.9625,154.9063 252.65,155.9844 Q253.3375,157.0469 254.6813,157.0469 Q255.3063,157.0469 255.9,156.7813 Q256.4938,156.5 257.1188,155.9219 L257.1188,158.6406 Z " fill="#000000"/><text fill="#000000" font-family="sans-serif" font-size="14" lengthAdjust="spacing" textLength="90.3711" x="268.15" y="157.8467">VistaConsola</text><line style="stroke:#181818;stroke-width:0.5;" x1="240.15" x2="360.5211" y1="169" y2="169"/><line style="stroke:#181818;stroke-width:0.5;" x1="240.15" x2="360.5211" y1="177" y2="177"/></g><!--class CredencialesUsuario--><g class="entity" data-entity="CredencialesUsuario" data-source-line="36" data-uid="ent0024" id="entity_CredencialesUsuario"><rect fill="#F1F1F1" height="48" rx="2.5" ry="2.5" style="stroke:#181818;stroke-width:0.5;" width="175.6846" x="396.5" y="137"/><ellipse cx="411.5" cy="153" fill="#ADD1B2" rx="11" ry="11" style="stroke:#181818;stroke-width:1;"/><path d="M414.4688,158.6406 Q413.8906,158.9375 413.25,159.0781 Q412.6094,159.2344 411.9063,159.2344 Q409.4063,159.2344 408.0781,157.5938 Q406.7656,155.9375 406.7656,152.8125 Q406.7656,149.6875 408.0781,148.0313 Q409.4063,146.375 411.9063,146.375 Q412.6094,146.375 413.25,146.5313 Q413.9063,146.6875 414.4688,146.9844 L414.4688,149.7031 Q413.8438,149.125 413.25,148.8594 Q412.6563,148.5781 412.0313,148.5781 Q410.6875,148.5781 410,149.6563 Q409.3125,150.7188 409.3125,152.8125 Q409.3125,154.9063 410,155.9844 Q410.6875,157.0469 412.0313,157.0469 Q412.6563,157.0469 413.25,156.7813 Q413.8438,156.5 414.4688,155.9219 L414.4688,158.6406 Z " fill="#000000"/><text fill="#000000" font-family="sans-serif" font-size="14" lengthAdjust="spacing" textLength="143.6846" x="425.5" y="157.8467">CredencialesUsuario</text><line style="stroke:#181818;stroke-width:0.5;" x1="397.5" x2="571.1846" y1="169" y2="169"/><line style="stroke:#181818;stroke-width:0.5;" x1="397.5" x2="571.1846" y1="177" y2="177"/></g><!--class JuegoVampiros--><g class="entity" data-entity="JuegoVampiros" data-source-line="1" data-uid="ent0002" id="entity_JuegoVampiros"><rect fill="#F1F1F1" height="48" rx="2.5" ry="2.5" style="stroke:#181818;stroke-width:0.5;" width="137.2529" x="44.71" y="7"/><ellipse cx="59.71" cy="23" fill="#ADD1B2" rx="11" ry="11" style="stroke:#181818;stroke-width:1;"/><path d="M62.6787,28.6406 Q62.1006,28.9375 61.46,29.0781 Q60.8194,29.2344 60.1162,29.2344 Q57.6162,29.2344 56.2881,27.5938 Q54.9756,25.9375 54.9756,22.8125 Q54.9756,19.6875 56.2881,18.0313 Q57.6162,16.375 60.1162,16.375 Q60.8194,16.375 61.46,16.5313 Q62.1162,16.6875 62.6787,16.9844 L62.6787,19.7031 Q62.0537,19.125 61.46,18.8594 Q60.8662,18.5781 60.2412,18.5781 Q58.8975,18.5781 58.21,19.6563 Q57.5225,20.7188 57.5225,22.8125 Q57.5225,24.9063 58.21,25.9844 Q58.8975,27.0469 60.2412,27.0469 Q60.8662,27.0469 61.46,26.7813 Q62.0537,26.5 62.6787,25.9219 L62.6787,28.6406 Z " fill="#000000"/><text fill="#000000" font-family="sans-serif" font-size="14" lengthAdjust="spacing" textLength="105.2529" x="73.71" y="27.8467">JuegoVampiros</text><line style="stroke:#181818;stroke-width:0.5;" x1="45.71" x2="180.9629" y1="39" y2="39"/><line style="stroke:#181818;stroke-width:0.5;" x1="45.71" x2="180.9629" y1="47" y2="47"/></g><!--reverse link Personaje to Guerrero--><g class="link" data-entity-1="Personaje" data-entity-2="Guerrero" data-source-line="9" data-uid="lnk7" id="link_Personaje_Guerrero"><path codeLine="9" d="M257.6962,345.8947 C280.4662,367.7847 301.31,387.8 324.05,409.66" fill="none" id="Personaje-backto-Guerrero" style="stroke:#181818;stroke-width:1;"/><polygon fill="none" points="244.72,333.42,253.538,350.2201,261.8544,341.5693,244.72,333.42" style="stroke:#181818;stroke-width:1;"/></g><!--reverse link Personaje to Vampiro--><g class="link" data-entity-1="Personaje" data-entity-2="Vampiro" data-source-line="10" data-uid="lnk8" id="link_Personaje_Vampiro"><path codeLine="10" d="M220.34,351.42 C220.34,373.31 220.34,387.8 220.34,409.66" fill="none" id="Personaje-backto-Vampiro" style="stroke:#181818;stroke-width:1;"/><polygon fill="none" points="220.34,333.42,214.34,351.42,226.34,351.42,220.34,333.42" style="stroke:#181818;stroke-width:1;"/></g><!--reverse link Ataque to Arma--><g class="link" data-entity-1="Ataque" data-entity-2="Arma" data-source-line="17" data-uid="lnk13" id="link_Ataque_Arma"><path codeLine="17" d="M97.9965,476.4105 C97.2865,498.3005 96.81,512.8 96.1,534.66" fill="none" id="Ataque-backto-Arma" style="stroke:#181818;stroke-width:1;"/><polygon fill="none" points="98.58,458.42,91.9996,476.216,103.9933,476.605,98.58,458.42" style="stroke:#181818;stroke-width:1;"/></g><!--reverse link Ataque to Mordida--><g class="link" data-entity-1="Ataque" data-entity-2="Mordida" data-source-line="18" data-uid="lnk14" id="link_Ataque_Mordida"><path codeLine="18" d="M132.2869,471.8392 C151.8569,493.7292 168.92,512.8 188.47,534.66" fill="none" id="Ataque-backto-Mordida" style="stroke:#181818;stroke-width:1;"/><polygon fill="none" points="120.29,458.42,127.8139,475.8381,136.76,467.8402,120.29,458.42" style="stroke:#181818;stroke-width:1;"/></g><!--reverse link Personaje to Ataque--><g class="link" data-entity-1="Personaje" data-entity-2="Ataque" data-source-line="20" data-uid="lnk15" id="link_Personaje_Ataque"><path codeLine="20" d="M188.8854,341.9753 C167.3554,363.8653 143.8,387.8 122.3,409.66" fill="none" id="Personaje-backto-Ataque" style="stroke:#181818;stroke-width:1;"/><polygon fill="none" points="197.3,333.42,190.2409,334.8928,188.8854,341.9753,195.9445,340.5025,197.3,333.42" style="stroke:#181818;stroke-width:1;"/><text fill="#000000" font-family="sans-serif" font-size="13" lengthAdjust="spacing" textLength="38.9746" x="167.34" y="376.0669">posee</text></g><!--link Guerrero to Pocion--><g class="link" data-entity-1="Guerrero" data-entity-2="Pocion" data-source-line="21" data-uid="lnk16" id="link_Guerrero_Pocion"><path codeLine="21" d="M348.34,458.42 C348.34,480.31 348.34,506.8 348.34,528.66" fill="none" id="Guerrero-to-Pocion" style="stroke:#181818;stroke-width:1;stroke-dasharray:7.0,7.0;"/><polygon fill="#181818" points="348.34,534.66,352.34,525.66,348.34,529.66,344.34,525.66,348.34,534.66" style="stroke:#181818;stroke-width:1;"/><text fill="#000000" font-family="sans-serif" font-size="13" lengthAdjust="spacing" textLength="22.9785" x="349.34" y="501.0669">usa</text></g><!--reverse link Batalla to Guerrero--><g class="link" data-entity-1="Batalla" data-entity-2="Guerrero" data-source-line="24" data-uid="lnk18" id="link_Batalla_Guerrero"><path codeLine="24" d="M347.6287,345.4196 C347.8087,367.3096 347.97,387.8 348.15,409.66" fill="none" id="Batalla-backto-Guerrero" style="stroke:#181818;stroke-width:1;"/><polygon fill="none" points="347.53,333.42,343.5795,339.4527,347.6287,345.4196,351.5792,339.3869,347.53,333.42" style="stroke:#181818;stroke-width:1;"/></g><!--reverse link Batalla to Vampiro--><g class="link" data-entity-1="Batalla" data-entity-2="Vampiro" data-source-line="25" data-uid="lnk19" id="link_Batalla_Vampiro"><path codeLine="25" d="M314.5322,341.7707 C291.9422,363.6607 267.01,387.8 244.44,409.66" fill="none" id="Batalla-backto-Vampiro" style="stroke:#181818;stroke-width:1;"/><polygon fill="none" points="323.15,333.42,316.0576,334.7228,314.5322,341.7707,321.6247,340.4679,323.15,333.42" style="stroke:#181818;stroke-width:1;"/></g><!--link VistaConsola to Personaje--><g class="link" data-entity-1="VistaConsola" data-entity-2="Personaje" data-source-line="37" data-uid="lnk25" id="link_VistaConsola_Personaje"><path codeLine="37" d="M287.49,185.46 C272.56,212.7 250.9639,252.1185 236.0439,279.3385" fill="none" id="VistaConsola-to-Personaje" style="stroke:#181818;stroke-width:1;"/><polygon fill="#181818" points="233.16,284.6,240.9935,278.6304,235.5633,280.2155,233.9783,274.7852,233.16,284.6" style="stroke:#181818;stroke-width:1;"/></g><!--reverse link JuegoVampiros to VistaConsola--><g class="link" data-entity-1="JuegoVampiros" data-entity-2="VistaConsola" data-source-line="40" data-uid="lnk26" id="link_JuegoVampiros_VistaConsola"><path codeLine="40" d="M157.543,62.2572 C191.283,85.3472 232.59,113.63 266.26,136.67" fill="none" id="JuegoVampiros-backto-VistaConsola" style="stroke:#181818;stroke-width:1;"/><polygon fill="#181818" points="147.64,55.48,150.3325,62.1696,157.543,62.2572,154.8506,55.5676,147.64,55.48" style="stroke:#181818;stroke-width:1;"/></g><!--reverse link JuegoVampiros to GestorUsuarios--><g class="link" data-entity-1="JuegoVampiros" data-entity-2="GestorUsuarios" data-source-line="41" data-uid="lnk27" id="link_JuegoVampiros_GestorUsuarios"><path codeLine="41" d="M113.34,67.48 C113.34,90.57 113.34,113.63 113.34,136.67" fill="none" id="JuegoVampiros-backto-GestorUsuarios" style="stroke:#181818;stroke-width:1;"/><polygon fill="#181818" points="113.34,55.48,109.34,61.48,113.34,67.48,117.34,61.48,113.34,55.48" style="stroke:#181818;stroke-width:1;"/></g><!--reverse link JuegoVampiros to core--><g class="link" data-entity-1="JuegoVampiros" data-entity-2="core" data-source-line="42" data-uid="lnk28" id="link_JuegoVampiros_core"><path codeLine="42" d="M54.866,61.9469 C40.066,71.6869 35.56,77.94 27.34,94 C6,135.695 7.3625,188.1875 14.2488,230.7488 C15.9703,241.3891 18.0371,251.4087 20.1807,260.4837 C21.2525,265.0212 22.3435,269.3226 23.4202,273.3473 C23.9585,275.3597 24.4933,277.3029 25.0202,279.1719 C25.2837,280.1063 25.5453,281.0223 25.8043,281.919 C25.9339,282.3674 26.0628,282.811 26.191,283.2497" fill="none" id="JuegoVampiros-backto-core" style="stroke:#181818;stroke-width:1;"/><polygon fill="#181818" points="64.89,55.35,57.679,55.3071,54.866,61.9469,62.077,61.9898,64.89,55.35" style="stroke:#181818;stroke-width:1;"/></g><!--SRC=[RLBBJWCn3BpdAtn3Gjf-04ALIWz8I4XxeNUJjKeWNM_jv0JzTvf7Lzc5d9BnZCUFM8-gy1Bfo0SyJKvOZRc37i-H0e5b8JEX_S9ZUS2tWUl1Tms2De3D-fv4USHFoi62FKSI8U46gWucGxC67d-wRabVnHQwbVKkf58RavsSi7c-iWnkQ96UhUEn92lguZ8BM_0cNvN5YLze3p2nKgdWrWHiDjlgSur7hVhY_uG1lIzMzPxpBIRG1kRsBsRU1SRmKNTHnqqQMDuqehYqmuORtO9vS1fmpwEoRyUo5nfej0uzQKsJeoqTkcxRBFjIsbhy7hXF5Qyj_b9MzVvFIZ_k5m00]--></g></svg>