<svg xmlns="http://www.w3.org/2000/svg" xmlns:xlink="http://www.w3.org/1999/xlink" contentStyleType="text/css" data-diagram-type="STATE" height="968px" preserveAspectRatio="none" style="width:767px;height:968px;background:#FFFFFF;" version="1.1" viewBox="0 0 767 968" width="767px" zoomAndPan="magnify"><defs/><g><ellipse cx="610" cy="16" fill="#222222" rx="10" ry="10" style="stroke:#222222;stroke-width:1;"/><rect fill="#F1F1F1" height="40" rx="12.5" ry="12.5" style="stroke:#181818;stroke-width:0.5;" width="133.0742" x="543.5" y="103"/><text fill="#000000" font-family="sans-serif" font-size="14" lengthAdjust="spacing" textLength="123.0742" x="548.5" y="127.8467">FueraUniversidad</text><rect fill="#F1F1F1" height="40" rx="12.5" ry="12.5" style="stroke:#181818;stroke-width:0.5;" width="110.9189" x="347.5" y="220"/><text fill="#000000" font-family="sans-serif" font-size="14" lengthAdjust="spacing" textLength="100.9189" x="352.5" y="244.8467">EnUniversidad</text><rect fill="#F1F1F1" height="40" rx="12.5" ry="12.5" style="stroke:#181818;stroke-width:0.5;" width="71.5713" x="259" y="337"/><text fill="#000000" font-family="sans-serif" font-size="14" lengthAdjust="spacing" textLength="61.5713" x="264" y="361.8467">EnPlanta</text><rect fill="#F1F1F1" height="40" rx="12.5" ry="12.5" style="stroke:#181818;stroke-width:0.5;" width="150.8818" x="11.5" y="454"/><text fill="#000000" font-family="sans-serif" font-size="14" lengthAdjust="spacing" textLength="140.8818" x="16.5" y="478.8467">SolicitandoAscensor</text><rect fill="#F1F1F1" height="40" rx="12.5" ry="12.5" style="stroke:#181818;stroke-width:0.5;" width="147.9697" x="7" y="571"/><text fill="#000000" font-family="sans-serif" font-size="14" lengthAdjust="spacing" textLength="137.9697" x="12" y="595.8467">EsperandoAscensor</text><rect fill="#F1F1F1" height="40" rx="12.5" ry="12.5" style="stroke:#181818;stroke-width:0.5;" width="91.3887" x="36.5" y="688"/><text fill="#000000" font-family="sans-serif" font-size="14" lengthAdjust="spacing" textLength="81.3887" x="41.5" y="712.8467">EnAscensor</text><rect fill="#F1F1F1" height="40" rx="12.5" ry="12.5" style="stroke:#181818;stroke-width:0.5;" width="155.4824" x="19.5" y="805"/><text fill="#000000" font-family="sans-serif" font-size="14" lengthAdjust="spacing" textLength="145.4824" x="24.5" y="829.8467">SeleccionandoPlanta</text><rect fill="#F1F1F1" height="40" rx="12.5" ry="12.5" style="stroke:#181818;stroke-width:0.5;" width="109.6064" x="127" y="922"/><text fill="#000000" font-family="sans-serif" font-size="14" lengthAdjust="spacing" textLength="99.6064" x="132" y="946.8467">EnMovimiento</text><rect fill="#F1F1F1" height="40" rx="12.5" ry="12.5" style="stroke:#181818;stroke-width:0.5;" width="153.3838" x="426.5" y="454"/><text fill="#000000" font-family="sans-serif" font-size="14" lengthAdjust="spacing" textLength="143.3838" x="431.5" y="478.8467">SaliendoUniversidad</text><ellipse cx="674" cy="240" fill="transparent" rx="11" ry="11" style="stroke:#222222;stroke-width:1;"/><ellipse cx="674" cy="240" fill="#222222" rx="6" ry="6" style="stroke:#222222;stroke-width:1;"/><!--link *start* to FueraUniversidad--><g id="link_*start*_FueraUniversidad"><path d="M610,26.32 C610,43.38 610,73.98 610,96.64 " fill="transparent" id="*start*-to-FueraUniversidad" style="stroke:#181818;stroke-width:1;"/><polygon fill="#181818" points="610,102.64,614,93.64,610,97.64,606,93.64,610,102.64" style="stroke:#181818;stroke-width:1;"/><text fill="#000000" font-family="sans-serif" font-size="13" lengthAdjust="spacing" textLength="34.1758" x="611" y="69.0669">inicio</text></g><!--link FueraUniversidad to EnUniversidad--><g id="link_FueraUniversidad_EnUniversidad"><path d="M543.17,131.09 C509.35,137.5 469.37,149.72 440,173 C424.87,184.99 417.0712,199.3828 411.3412,214.2228 " fill="transparent" id="FueraUniversidad-to-EnUniversidad" style="stroke:#181818;stroke-width:1;"/><polygon fill="#181818" points="409.18,219.82,416.1533,212.8649,410.981,215.1556,408.6903,209.9833,409.18,219.82" style="stroke:#181818;stroke-width:1;"/><text fill="#000000" font-family="sans-serif" font-size="13" lengthAdjust="spacing" textLength="142.5684" x="441" y="186.0669">entra a la universidad</text></g><!--link EnUniversidad to EnPlanta--><g id="link_EnUniversidad_EnPlanta"><path d="M384.92,260.25 C364.99,281.48 337.2078,311.0667 317.2478,332.3167 " fill="transparent" id="EnUniversidad-to-EnPlanta" style="stroke:#181818;stroke-width:1;"/><polygon fill="#181818" points="313.14,336.69,322.2173,332.8686,316.5632,333.0456,316.3862,327.3915,313.14,336.69" style="stroke:#181818;stroke-width:1;"/><text fill="#000000" font-family="sans-serif" font-size="13" lengthAdjust="spacing" textLength="179.3848" x="357" y="303.0669">se encuentra en una planta</text></g><!--link EnPlanta to SolicitandoAscensor--><g id="link_EnPlanta_SolicitandoAscensor"><path d="M258.71,361.13 C204.45,366.66 106.29,380.17 85,407 C74.67,420.02 75.1916,433.6575 78.8816,448.0675 " fill="transparent" id="EnPlanta-to-SolicitandoAscensor" style="stroke:#181818;stroke-width:1;"/><polygon fill="#181818" points="80.37,453.88,82.0124,444.169,79.1297,449.0363,74.2624,446.1536,80.37,453.88" style="stroke:#181818;stroke-width:1;"/><text fill="#000000" font-family="sans-serif" font-size="13" lengthAdjust="spacing" textLength="153.7847" x="86" y="420.0669">decide usar el ascensor</text></g><!--link SolicitandoAscensor to EsperandoAscensor--><g id="link_SolicitandoAscensor_EsperandoAscensor"><path d="M86,494.25 C84.89,515.48 83.433,543.4482 82.323,564.6982 " fill="transparent" id="SolicitandoAscensor-to-EsperandoAscensor" style="stroke:#181818;stroke-width:1;"/><polygon fill="#181818" points="82.01,570.69,86.474,561.9109,82.2708,565.6968,78.4849,561.4936,82.01,570.69" style="stroke:#181818;stroke-width:1;"/><text fill="#000000" font-family="sans-serif" font-size="13" lengthAdjust="spacing" textLength="116.7969" x="86" y="537.0669">espera que llegue</text></g><!--link EsperandoAscensor to EnAscensor--><g id="link_EsperandoAscensor_EnAscensor"><path d="M78.72,611.06 C77.42,624.24 76.19,642.18 77,658 C77.5,667.91 77.908,672.9377 78.928,681.9877 " fill="transparent" id="EsperandoAscensor-to-EnAscensor" style="stroke:#181818;stroke-width:1;"/><polygon fill="#181818" points="79.6,687.95,82.5669,678.5586,79.04,682.9815,74.6172,679.4546,79.6,687.95" style="stroke:#181818;stroke-width:1;"/><text fill="#000000" font-family="sans-serif" font-size="13" lengthAdjust="spacing" textLength="144.3711" x="78" y="654.0669">ascensor llega y entra</text></g><!--link EnAscensor to SeleccionandoPlanta--><g id="link_EnAscensor_SeleccionandoPlanta"><path d="M84.51,728.25 C87.28,749.48 90.9344,777.4903 93.7044,798.7403 " fill="transparent" id="EnAscensor-to-SeleccionandoPlanta" style="stroke:#181818;stroke-width:1;"/><polygon fill="#181818" points="94.48,804.69,97.2831,795.2485,93.8337,799.7319,89.3502,796.2825,94.48,804.69" style="stroke:#181818;stroke-width:1;"/><text fill="#000000" font-family="sans-serif" font-size="13" lengthAdjust="spacing" textLength="130.5459" x="92" y="771.0669">elige a qu&#233; planta ir</text></g><!--link SeleccionandoPlanta to EnMovimiento--><g id="link_SeleccionandoPlanta_EnMovimiento"><path d="M92.16,845.23 C89.75,859.15 88.86,877.91 97,892 C104.41,904.83 111.3938,911.635 124.2538,918.945 " fill="transparent" id="SeleccionandoPlanta-to-EnMovimiento" style="stroke:#181818;stroke-width:1;"/><polygon fill="#181818" points="129.47,921.91,123.6224,913.985,125.1232,919.4391,119.669,920.9399,129.47,921.91" style="stroke:#181818;stroke-width:1;"/><text fill="#000000" font-family="sans-serif" font-size="13" lengthAdjust="spacing" textLength="141.5654" x="98" y="888.0669">el ascensor se mueve</text></g><!--link EnMovimiento to EnPlanta--><g id="link_EnMovimiento_EnPlanta"><path d="M213.27,921.81 C224.26,913.76 235.88,903.57 244,892 C261.76,866.69 266,856.92 266,826 C266,473 266,473 266,473 C266,438.41 276.3525,405.2963 284.9425,382.7663 " fill="transparent" id="EnMovimiento-to-EnPlanta" style="stroke:#181818;stroke-width:1;"/><polygon fill="#181818" points="287.08,377.16,280.1362,384.1445,285.2987,381.8319,287.6113,386.9945,287.08,377.16" style="stroke:#181818;stroke-width:1;"/><text fill="#000000" font-family="sans-serif" font-size="13" lengthAdjust="spacing" textLength="191.0898" x="267" y="654.0669">llega a la nueva planta y sale</text></g><!--link EnPlanta to SaliendoUniversidad--><g id="link_EnPlanta_SaliendoUniversidad"><path d="M297.78,377.15 C300.93,391.97 307.5,411.94 321,424 C349.79,449.73 384.7903,461.1714 420.5403,467.0814 " fill="transparent" id="EnPlanta-to-SaliendoUniversidad" style="stroke:#181818;stroke-width:1;"/><polygon fill="#181818" points="426.46,468.06,418.2329,462.6457,421.527,467.2445,416.9281,470.5385,426.46,468.06" style="stroke:#181818;stroke-width:1;"/><text fill="#000000" font-family="sans-serif" font-size="13" lengthAdjust="spacing" textLength="261.0728" x="322" y="420.0669">finaliza su jornada y se dirige a la salida</text></g><!--link SaliendoUniversidad to FueraUniversidad--><g id="link_SaliendoUniversidad_FueraUniversidad"><path d="M554.48,453.79 C567.5,446.45 580.03,436.7 588,424 C645.33,332.66 625.6811,199.3606 615.4711,148.9506 " fill="transparent" id="SaliendoUniversidad-to-FueraUniversidad" style="stroke:#181818;stroke-width:1;"/><polygon fill="#181818" points="614.28,143.07,612.1462,152.6849,615.2725,147.9705,619.987,151.0969,614.28,143.07" style="stroke:#181818;stroke-width:1;"/><text fill="#000000" font-family="sans-serif" font-size="13" lengthAdjust="spacing" textLength="133.1357" x="626" y="303.0669">sale definitivamente</text></g><!--link FueraUniversidad to *end*--><g id="link_FueraUniversidad_*end*"><path d="M620.71,143.25 C634.73,168.44 655.8118,206.3175 666.1318,224.8575 " fill="transparent" id="FueraUniversidad-to-*end*" style="stroke:#181818;stroke-width:1;"/><polygon fill="#181818" points="669.05,230.1,668.1678,220.2907,666.6182,225.7312,661.1777,224.1816,669.05,230.1" style="stroke:#181818;stroke-width:1;"/><text fill="#000000" font-family="sans-serif" font-size="13" lengthAdjust="spacing" textLength="95.9766" x="646" y="186.0669">fin del proceso</text></g><!--SRC=[TL8xJWGn3Erp2jT8Um4A90hea90G5QAm4hCOPPmXdv6M6t4EBeQJpB8pkqCRlw-TTtO4D8pv08wIZJnc3cBCozKhx7OtS5yeuhFmH36nGmVNmCAMWxcOLFYThB4aEI8WU8Ho6XYpndNceqV9gAIaYSIMpYLH9iBOXfKumohdANYDab5Sk4sM98MeT4UsbYe98v07d2Tc2zsSqwXDrXhKtk2p47XF-qBc4jLJBqX7fqP1EFJsPe5feScJrGLA5VlhJ9xt1DNnvtik2woPDy3Tzo5CFB0wXCO-cUlsXaAJ9bvYpbRS4xQxY8AF-zNC2JsThnczYhYmFkqRYxv_8QG27o4AkaOdS1nx5nLNDOMRBOL_VbVrrnEgEcUUSD3qccVpizK_sd8etiCOWwKKVW40]--></g></svg>