<svg xmlns="http://www.w3.org/2000/svg" xmlns:xlink="http://www.w3.org/1999/xlink" contentStyleType="text/css" height="523px" preserveAspectRatio="none" style="width:852px;height:523px;background:#FFFFFF;" version="1.1" viewBox="0 0 852 523" width="852px" zoomAndPan="magnify"><defs/><g><ellipse cx="328.5" cy="31.34" fill="#222222" rx="10" ry="10" style="stroke:#222222;stroke-width:1.0;"/><rect fill="#F1F1F1" height="40" rx="12.5" ry="12.5" style="stroke:#181818;stroke-width:0.5;" width="68.043" x="294.5" y="120.34"/><text fill="#000000" font-family="sans-serif" font-size="12" lengthAdjust="spacing" textLength="58.043" x="299.5" y="145.3087">Esperando</text><rect fill="#F1F1F1" height="40" rx="12.5" ry="12.5" style="stroke:#181818;stroke-width:0.5;" width="62.7051" x="7" y="239.34"/><text fill="#000000" font-family="sans-serif" font-size="12" lengthAdjust="spacing" textLength="52.7051" x="12" y="264.3088">Cargando</text><rect fill="#F1F1F1" height="40" rx="12.5" ry="12.5" style="stroke:#181818;stroke-width:0.5;" width="74.7051" x="207" y="358.34"/><text fill="#000000" font-family="sans-serif" font-size="12" lengthAdjust="spacing" textLength="64.7051" x="212" y="383.3088">Movi&#233;ndose</text><rect fill="#F1F1F1" height="40" rx="12.5" ry="12.5" style="stroke:#181818;stroke-width:0.5;" width="81.3789" x="204" y="477.34"/><text fill="#000000" font-family="sans-serif" font-size="12" lengthAdjust="spacing" textLength="71.3789" x="209" y="502.3088">Descargando</text><rect fill="#F1F1F1" height="40" rx="12.5" ry="12.5" style="stroke:#181818;stroke-width:0.5;" width="58.0469" x="460.5" y="239.34"/><text fill="#000000" font-family="sans-serif" font-size="12" lengthAdjust="spacing" textLength="48.0469" x="465.5" y="264.3088">Apagado</text><ellipse cx="489.5" cy="378.34" fill="none" rx="11" ry="11" style="stroke:#222222;stroke-width:1.0;"/><ellipse cx="489.5" cy="378.34" fill="#222222" rx="6" ry="6" style="stroke:#222222;stroke-width:1.0;"/><!--link *start* to Esperando--><g id="link_*start*_Esperando"><path d="M328.5,41.46 C328.5,58.85 328.5,91.06 328.5,114.26 " fill="none" id="*start*-to-Esperando" style="stroke:#181818;stroke-width:1.0;"/><polygon fill="#181818" points="328.5,120.26,332.5,111.26,328.5,115.26,324.5,111.26,328.5,120.26" style="stroke:#181818;stroke-width:1.0;"/><text fill="#000000" font-family="sans-serif" font-size="13" lengthAdjust="spacing" textLength="145.9644" x="329.5" y="86.3683">sin llamadas ni pasajeros</text></g><!--link Esperando to Cargando--><g id="link_Esperando_Cargando"><path d="M294.49,141.62 C223.29,142.99 62.33,150.53 28.5,190.34 C17.14,203.71 19.7908,218.6105 26.1008,233.5905 " fill="none" id="Esperando-to-Cargando" style="stroke:#181818;stroke-width:1.0;"/><polygon fill="#181818" points="28.43,239.12,28.6226,229.273,26.489,234.5121,21.2499,232.3786,28.43,239.12" style="stroke:#181818;stroke-width:1.0;"/><text fill="#000000" font-family="sans-serif" font-size="13" lengthAdjust="spacing" textLength="213.9351" x="29.5" y="205.3683">personas esperando en planta actual</text></g><!--link Esperando to Movi?ndose--><g id="link_Esperando_Movi&#233;ndose"><path d="M319.5,160.61 C310.53,180.19 296.66,211.52 286.5,239.34 C271.29,280.98 258.6209,325.222 251.2709,352.132 " fill="none" id="Esperando-to-Movi&#233;ndose" style="stroke:#181818;stroke-width:1.0;"/><polygon fill="#181818" points="249.69,357.92,255.92,350.2919,251.0074,353.0967,248.2027,348.1841,249.69,357.92" style="stroke:#181818;stroke-width:1.0;"/><text fill="#000000" font-family="sans-serif" font-size="13" lengthAdjust="spacing" textLength="154.6479" x="287.5" y="264.8683">tiene llamadas o pasajeros</text></g><!--link Cargando to Cargando--><g id="link_Cargando_Cargando"><path d="M70.32,249.02 C88.33,247.01 105,250.45 105,259.34 C105,268.23 94.293,272.3355 76.283,270.3255 " fill="none" id="Cargando-to-Cargando" style="stroke:#181818;stroke-width:1.0;"/><polygon fill="#181818" points="70.32,269.66,78.8208,274.6336,75.2891,270.2146,79.7081,266.6829,70.32,269.66" style="stroke:#181818;stroke-width:1.0;"/><text fill="#000000" font-family="sans-serif" font-size="13" lengthAdjust="spacing" textLength="99.0171" x="111" y="264.8683">sigue recogiendo</text></g><!--link Cargando to Movi?ndose--><g id="link_Cargando_Movi&#233;ndose"><path d="M66.3,279.42 C87.38,293.58 117.26,313 144.5,328.34 C164.71,339.73 182.5275,348.6316 201.5075,357.6216 " fill="none" id="Cargando-to-Movi&#233;ndose" style="stroke:#181818;stroke-width:1.0;"/><polygon fill="#181818" points="206.93,360.19,200.5085,352.7224,202.4113,358.0497,197.084,359.9524,206.93,360.19" style="stroke:#181818;stroke-width:1.0;"/><text fill="#000000" font-family="sans-serif" font-size="13" lengthAdjust="spacing" textLength="97.5508" x="145.5" y="324.3683">puertas cerradas</text></g><!--link Movi?ndose to Movi?ndose--><g id="link_Movi&#233;ndose_Movi&#233;ndose"><path d="M282.17,367.76 C300.63,366.37 317,369.9 317,378.34 C317,386.78 306.6131,390.7605 288.1531,389.3705 " fill="none" id="Movi&#233;ndose-to-Movi&#233;ndose" style="stroke:#181818;stroke-width:1.0;"/><polygon fill="#181818" points="282.17,388.92,290.8443,393.5845,287.1559,389.2954,291.4449,385.6071,282.17,388.92" style="stroke:#181818;stroke-width:1.0;"/><text fill="#000000" font-family="sans-serif" font-size="13" lengthAdjust="spacing" textLength="129.3716" x="323" y="383.8683">contin&#250;a hacia destino</text></g><!--link Movi?ndose to Descargando--><g id="link_Movi&#233;ndose_Descargando"><path d="M244.5,398.4 C244.5,420.16 244.5,449.54 244.5,471.29 " fill="none" id="Movi&#233;ndose-to-Descargando" style="stroke:#181818;stroke-width:1.0;"/><polygon fill="#181818" points="244.5,477.29,248.5,468.29,244.5,472.29,240.5,468.29,244.5,477.29" style="stroke:#181818;stroke-width:1.0;"/><text fill="#000000" font-family="sans-serif" font-size="13" lengthAdjust="spacing" textLength="122.8716" x="245.5" y="443.3683">llega a planta destino</text></g><!--link Descargando to Descargando--><g id="link_Descargando_Descargando"><path d="M285.28,486.66 C303.85,485.57 320,489.13 320,497.34 C320,505.55 309.8397,509.4616 291.2697,508.3716 " fill="none" id="Descargando-to-Descargando" style="stroke:#181818;stroke-width:1.0;"/><polygon fill="#181818" points="285.28,508.02,294.0302,512.5405,290.2714,508.313,294.4989,504.5542,285.28,508.02" style="stroke:#181818;stroke-width:1.0;"/><text fill="#000000" font-family="sans-serif" font-size="13" lengthAdjust="spacing" textLength="88.8989" x="326" y="502.8683">personas bajan</text></g><!--link Descargando to Cargando--><g id="link_Descargando_Cargando"><path d="M203.82,485.85 C161.53,472.71 96.81,445.94 62.5,398.34 C36.76,362.63 35.1213,314.4226 36.5513,285.7326 " fill="none" id="Descargando-to-Cargando" style="stroke:#181818;stroke-width:1.0;"/><polygon fill="#181818" points="36.85,279.74,32.4069,288.5297,36.6011,284.7338,40.397,288.928,36.85,279.74" style="stroke:#181818;stroke-width:1.0;"/><text fill="#000000" font-family="sans-serif" font-size="13" lengthAdjust="spacing" textLength="125.0107" x="63.5" y="383.8683">recoge m&#225;s personas</text></g><!--link Descargando to Esperando--><g id="link_Descargando_Esperando"><path d="M285.19,494.21 C345.97,488.7 459.62,468.96 518.5,398.34 C845.58,6 586.18,236.05 549.5,190.34 C526.44,161.61 424.5876,149.1982 368.5276,144.3382 " fill="none" id="Descargando-to-Esperando" style="stroke:#181818;stroke-width:1.0;"/><polygon fill="#181818" points="362.55,143.82,371.1709,148.5824,367.5313,144.2518,371.8618,140.6123,362.55,143.82" style="stroke:#181818;stroke-width:1.0;"/><text fill="#000000" font-family="sans-serif" font-size="13" lengthAdjust="spacing" textLength="56.3608" x="589.5" y="324.3683">sin tareas</text></g><!--link Esperando to Apagado--><g id="link_Esperando_Apagado"><path d="M341.16,160.61 C351.65,175.42 367.69,195.61 385.5,209.34 C408.26,226.89 432.707,238.0801 454.657,246.3701 " fill="none" id="Esperando-to-Apagado" style="stroke:#181818;stroke-width:1.0;"/><polygon fill="#181818" points="460.27,248.49,453.2637,241.5681,455.5925,246.7234,450.4372,249.0522,460.27,248.49" style="stroke:#181818;stroke-width:1.0;"/><text fill="#000000" font-family="sans-serif" font-size="13" lengthAdjust="spacing" textLength="158.9707" x="386.5" y="205.3683">universidad cerrada y vac&#237;a</text></g><!--link Apagado to *end*--><g id="link_Apagado_*end*"><path d="M489.5,279.4 C489.5,304.52 489.5,341.81 489.5,361.31 " fill="none" id="Apagado-to-*end*" style="stroke:#181818;stroke-width:1.0;"/><polygon fill="#181818" points="489.5,367.31,493.5,358.31,489.5,362.31,485.5,358.31,489.5,367.31" style="stroke:#181818;stroke-width:1.0;"/></g><!--SRC=[PPA_JWCn38VtF8Kt9AGEC7P0gYXiJ1qHWqcigylLYUBSIULj61bu0TPxCNmLzwUzCSdt-HSxkO4jOvNnY108dhHWYBg6ZNeIZTdjsRRfcCh9pjLdJeMZEFrWIMWQc57eEKhPyIV1tRrphxTli5ezMB546IL4M8EoG5rRIa05OKYeUA0SrRa9wwL7pDM_OziQnNWQ2H98DKf1G5yQhA_abzXozsqh9VCBaz2K6kUXOynLfdBL46JoiJ8xn4lmidvgA1Shx2ddFi6v-VcIzpOabkuNOO-U-tchhUF2sjgSfnlLDLNMxj3t8BavjRJ6sRtZ0MK1ppe-zqfmxBvqj1RyzLCMp8IBjziahF3CDCAjrUA0OHWFdA15t_sW6x1UiR_Y_W00]--></g></svg>