<svg xmlns="http://www.w3.org/2000/svg" xmlns:xlink="http://www.w3.org/1999/xlink" contentStyleType="text/css" height="772px" preserveAspectRatio="none" style="width:821px;height:772px;background:#FFFFFF;" version="1.1" viewBox="0 0 821 772" width="821px" zoomAndPan="magnify"><defs/><g><ellipse cx="424.5" cy="78.43" fill="#222222" rx="10" ry="10" style="stroke:#222222;stroke-width:1.0;"/><rect fill="#F1F1F1" height="40" rx="12.5" ry="12.5" style="stroke:#181818;stroke-width:0.5;" width="90.0625" x="379.5" y="167.43"/><text fill="#000000" font-family="sans-serif" font-size="12" lengthAdjust="spacing" textLength="80.0625" x="384.5" y="192.3987">Reci&#233;nLlegada</text><rect fill="#F1F1F1" height="40" rx="12.5" ry="12.5" style="stroke:#181818;stroke-width:0.5;" width="118.0645" x="225.5" y="286.43"/><text fill="#000000" font-family="sans-serif" font-size="12" lengthAdjust="spacing" textLength="108.0645" x="230.5" y="311.3987">EsperandoAscensor</text><rect fill="#F1F1F1" height="40" rx="12.5" ry="12.5" style="stroke:#181818;stroke-width:0.5;" width="58.7031" x="350" y="524.43"/><text fill="#000000" font-family="sans-serif" font-size="12" lengthAdjust="spacing" textLength="48.7031" x="355" y="549.3988">EnPlanta</text><rect fill="#F1F1F1" height="40" rx="12.5" ry="12.5" style="stroke:#181818;stroke-width:0.5;" width="74.6992" x="126" y="405.43"/><text fill="#000000" font-family="sans-serif" font-size="12" lengthAdjust="spacing" textLength="64.6992" x="131" y="430.3987">EnAscensor</text><rect fill="#F1F1F1" height="40" rx="12.5" ry="12.5" style="stroke:#181818;stroke-width:0.5;" width="50.6992" x="34" y="524.43"/><text fill="#000000" font-family="sans-serif" font-size="12" lengthAdjust="spacing" textLength="40.6992" x="39" y="549.3988">Planta0</text><rect fill="#F1F1F1" height="40" rx="12.5" ry="12.5" style="stroke:#181818;stroke-width:0.5;" width="104.7109" x="7" y="643.43"/><text fill="#000000" font-family="sans-serif" font-size="12" lengthAdjust="spacing" textLength="94.7109" x="12" y="668.3988">FueraUniversidad</text><ellipse cx="59.5" cy="755.43" fill="none" rx="11" ry="11" style="stroke:#222222;stroke-width:1.0;"/><ellipse cx="59.5" cy="755.43" fill="#222222" rx="6" ry="6" style="stroke:#222222;stroke-width:1.0;"/><!--link *start* to Reci?nLlegada--><g id="link_*start*_Reci&#233;nLlegada"><path d="M424.5,88.55 C424.5,105.94 424.5,138.15 424.5,161.35 " fill="none" id="*start*-to-Reci&#233;nLlegada" style="stroke:#181818;stroke-width:1.0;"/><polygon fill="#181818" points="424.5,167.35,428.5,158.35,424.5,162.35,420.5,158.35,424.5,167.35" style="stroke:#181818;stroke-width:1.0;"/><text fill="#000000" font-family="sans-serif" font-size="13" lengthAdjust="spacing" textLength="68.6499" x="425.5" y="133.4583">se instancia</text></g><!--link Reci?nLlegada to EsperandoAscensor--><g id="link_Reci&#233;nLlegada_EsperandoAscensor"><path d="M401.69,207.49 C375.66,229.25 337.9342,260.7828 311.9042,282.5328 " fill="none" id="Reci&#233;nLlegada-to-EsperandoAscensor" style="stroke:#181818;stroke-width:1.0;"/><polygon fill="#181818" points="307.3,286.38,316.7712,283.6787,311.1369,283.174,311.6416,277.5397,307.3,286.38" style="stroke:#181818;stroke-width:1.0;"/><text fill="#000000" font-family="sans-serif" font-size="13" lengthAdjust="spacing" textLength="184.647" x="363.5" y="252.4583">si plantaDestino != planta actual</text></g><!--link Reci?nLlegada to EnPlanta--><g id="link_Reci&#233;nLlegada_EnPlanta"><path d="M469.53,192.24 C499.58,197.4 537.03,209.43 556.5,237.43 C583.64,276.46 814.71,6 551.5,445.43 C520.15,497.76 455.3577,522.9868 415.0277,534.5468 " fill="none" id="Reci&#233;nLlegada-to-EnPlanta" style="stroke:#181818;stroke-width:1.0;"/><polygon fill="#181818" points="409.26,536.2,419.0138,537.5653,414.0664,534.8223,416.8094,529.875,409.26,536.2" style="stroke:#181818;stroke-width:1.0;"/><text fill="#000000" font-family="sans-serif" font-size="13" lengthAdjust="spacing" textLength="181.0352" x="599.5" y="371.4583">si plantaDestino = planta actual</text></g><!--link EsperandoAscensor to EnAscensor--><g id="link_EsperandoAscensor_EnAscensor"><path d="M225.41,313.17 C170.31,319.89 93.93,333.17 75.5,356.43 C56.67,380.19 88.4217,398.2477 120.1417,410.3077 " fill="none" id="EsperandoAscensor-to-EnAscensor" style="stroke:#181818;stroke-width:1.0;"/><polygon fill="#181818" points="125.75,412.44,118.759,405.5027,121.0764,410.6631,115.916,412.9804,125.75,412.44" style="stroke:#181818;stroke-width:1.0;"/><text fill="#000000" font-family="sans-serif" font-size="13" lengthAdjust="spacing" textLength="128.6289" x="76.5" y="371.4583">recogida por ascensor</text></g><!--link EsperandoAscensor to EnAscensor--><g id="link_EsperandoAscensor_EnAscensor"><path d="M264.79,326.49 C242.29,348.25 210.0139,379.4599 187.5139,401.2099 " fill="none" id="EsperandoAscensor-to-EnAscensor-1" style="stroke:#181818;stroke-width:1.0;"/><polygon fill="#181818" points="183.2,405.38,192.451,402.0008,186.7949,401.9049,186.8908,396.2488,183.2,405.38" style="stroke:#181818;stroke-width:1.0;"/><text fill="#000000" font-family="sans-serif" font-size="13" lengthAdjust="spacing" textLength="106.9453" x="232.5" y="371.4583">recogida para salir</text></g><!--link EnAscensor to EnPlanta--><g id="link_EnAscensor_EnPlanta"><path d="M185.24,445.59 C202.77,460.34 228.53,480.5 253.5,494.43 C284.86,511.93 318.0326,524.1591 344.2426,532.6591 " fill="none" id="EnAscensor-to-EnPlanta" style="stroke:#181818;stroke-width:1.0;"/><polygon fill="#181818" points="349.95,534.51,342.6229,527.9287,345.1939,532.9676,340.155,535.5385,349.95,534.51" style="stroke:#181818;stroke-width:1.0;"/><text fill="#000000" font-family="sans-serif" font-size="13" lengthAdjust="spacing" textLength="98.2998" x="254.5" y="490.4583">llegada a destino</text></g><!--link EnPlanta to EsperandoAscensor--><g id="link_EnPlanta_EsperandoAscensor"><path d="M380.59,524.38 C381.75,488.74 379.99,410.68 347.5,356.43 C340.38,344.54 334.0852,337.9675 323.1152,330.0975 " fill="none" id="EnPlanta-to-EsperandoAscensor" style="stroke:#181818;stroke-width:1.0;"/><polygon fill="#181818" points="318.24,326.6,323.2211,335.0964,322.3027,329.5146,327.8844,328.5961,318.24,326.6" style="stroke:#181818;stroke-width:1.0;"/><text fill="#000000" font-family="sans-serif" font-size="13" lengthAdjust="spacing" textLength="166.9307" x="376.5" y="430.9583">tiempo agotado y quiere salir</text></g><!--link EnAscensor to Planta0--><g id="link_EnAscensor_Planta0"><path d="M125.97,432.94 C101.63,439.32 71.73,451.7 56.5,475.43 C47.24,489.85 47.9838,503.9294 51.6238,518.4794 " fill="none" id="EnAscensor-to-Planta0" style="stroke:#181818;stroke-width:1.0;"/><polygon fill="#181818" points="53.08,524.3,54.7762,514.5983,51.8665,519.4495,47.0154,516.5398,53.08,524.3" style="stroke:#181818;stroke-width:1.0;"/><text fill="#000000" font-family="sans-serif" font-size="13" lengthAdjust="spacing" textLength="155.3906" x="57.5" y="490.4583">llega a planta 0 para salida</text></g><!--link Planta0 to FueraUniversidad--><g id="link_Planta0_FueraUniversidad"><path d="M59.5,564.49 C59.5,586.25 59.5,615.63 59.5,637.38 " fill="none" id="Planta0-to-FueraUniversidad" style="stroke:#181818;stroke-width:1.0;"/><polygon fill="#181818" points="59.5,643.38,63.5,634.38,59.5,638.38,55.5,634.38,59.5,643.38" style="stroke:#181818;stroke-width:1.0;"/><text fill="#000000" font-family="sans-serif" font-size="13" lengthAdjust="spacing" textLength="52.0381" x="60.5" y="609.4583">ha salido</text></g><!--link FueraUniversidad to *end*--><g id="link_FueraUniversidad_*end*"><path d="M59.5,683.52 C59.5,702.09 59.5,723.6 59.5,738.3 " fill="none" id="FueraUniversidad-to-*end*" style="stroke:#181818;stroke-width:1.0;"/><polygon fill="#181818" points="59.5,744.3,63.5,735.3,59.5,739.3,55.5,735.3,59.5,744.3" style="stroke:#181818;stroke-width:1.0;"/></g><!--SRC=[bPB1JiCm38RlUGfp6Y1DsZWY3Gbfsud31EA4E5Y9rLbqJaZIIUEDU0vU38UsOdJhWTmQ_z_lltOci1WxPW9BnYhY3i4Hh596vnDSRYWcBtYbzN5souhGBkI3iib63fczcFJ64b0jGTqohRta9_uWcDyOytBz2jFf7JoIvQzFUQYfGeTm2uc0HVLY6SsWMe1L2XHHdBzFbYJvM1Y6KADaN5BAB1uk5jq5eCqDrcUDPDDApl13t9nsRIsEGaIolc8r3_g9tRqvaWoQrbsMCk-VhjgbhuxzQ6QTiWUiV5aF7E2zOOe42MkE_mkfU-cnln7R2BC-eURhPZ7xXHoQNbQGTQDzduNt-bYqvfJTTa9lJeg5qFMRRm00]--></g></svg>