<svg xmlns="http://www.w3.org/2000/svg" xmlns:xlink="http://www.w3.org/1999/xlink" contentStyleType="text/css" data-diagram-type="STATE" height="266px" preserveAspectRatio="none" style="width:233px;height:266px;background:#FFFFFF;" version="1.1" viewBox="0 0 233 266" width="233px" zoomAndPan="magnify"><defs/><g><ellipse cx="97.69" cy="16" fill="#222222" rx="10" ry="10" style="stroke:#222222;stroke-width:1;"/><rect fill="#F1F1F1" height="40" rx="12.5" ry="12.5" style="stroke:#181818;stroke-width:0.5;" width="65.9453" x="64.69" y="103"/><text fill="#000000" font-family="sans-serif" font-size="14" lengthAdjust="spacing" textLength="55.9453" x="69.69" y="127.8467">Cerrada</text><rect fill="#F1F1F1" height="40" rx="12.5" ry="12.5" style="stroke:#181818;stroke-width:0.5;" width="60.791" x="67.19" y="220"/><text fill="#000000" font-family="sans-serif" font-size="14" lengthAdjust="spacing" textLength="50.791" x="72.19" y="244.8467">Abierta</text><!--link *start* to Cerrada--><g id="link_*start*_Cerrada"><path d="M97.69,26.32 C97.69,43.38 97.69,73.98 97.69,96.64 " fill="transparent" id="*start*-to-Cerrada" style="stroke:#181818;stroke-width:1;"/><polygon fill="#181818" points="97.69,102.64,101.69,93.64,97.69,97.64,93.69,93.64,97.69,102.64" style="stroke:#181818;stroke-width:1;"/><text fill="#000000" font-family="sans-serif" font-size="13" lengthAdjust="spacing" textLength="105.0537" x="98.69" y="69.0669">fuera de horario</text></g><!--link Cerrada to Abierta--><g id="link_Cerrada_Abierta"><path d="M64.51,135.81 C47.88,143.61 29.28,155.64 19.69,173 C6,197.76 34.0884,215.0141 61.4084,226.2141 " fill="transparent" id="Cerrada-to-Abierta" style="stroke:#181818;stroke-width:1;"/><polygon fill="#181818" points="66.96,228.49,60.1499,221.3751,62.3337,226.5934,57.1153,228.7772,66.96,228.49" style="stroke:#181818;stroke-width:1;"/><text fill="#000000" font-family="sans-serif" font-size="13" lengthAdjust="spacing" textLength="108.0244" x="20.69" y="186.0669">inicio de jornada</text></g><!--link Abierta to Cerrada--><g id="link_Abierta_Cerrada"><path d="M117.89,219.93 C128.86,207.18 139.17,189.74 133.69,173 C130.13,162.17 126.9598,156.4016 120.0998,147.9816 " fill="transparent" id="Abierta-to-Cerrada" style="stroke:#181818;stroke-width:1;"/><polygon fill="#181818" points="116.31,143.33,118.8936,152.8339,119.4682,147.2063,125.0958,147.7809,116.31,143.33" style="stroke:#181818;stroke-width:1;"/><text fill="#000000" font-family="sans-serif" font-size="13" lengthAdjust="spacing" textLength="90.2764" x="135.69" y="186.0669">fin de jornada</text></g><!--SRC=[NSmn2e0m34RXFQV8BFG23e9u376eRQI_O2En3jvUEmZY_3vUGXIMRIyNHpc2OI_GJ3Gs4plNyI1cFdfkUJd5_8CugNc34hsjkdw6MAaE6G5QuQgMdqvl-_sGF-W6]--></g></svg>