<svg xmlns="http://www.w3.org/2000/svg" xmlns:xlink="http://www.w3.org/1999/xlink" contentStyleType="text/css" data-diagram-type="CLASS" height="494px" preserveAspectRatio="none" style="width:414px;height:494px;background:#FFFFFF;" version="1.1" viewBox="0 0 414 494" width="414px" zoomAndPan="magnify"><defs/><g><!--class Personaje--><g class="entity" data-entity="Personaje" data-source-line="2" data-uid="ent0002" id="entity_Personaje"><rect fill="#F1F1F1" height="48" rx="2.5" ry="2.5" style="stroke:#181818;stroke-width:0.5;" width="100.626" x="45.6" y="115"/><ellipse cx="60.6" cy="131" fill="#A9DCDF" rx="11" ry="11" style="stroke:#181818;stroke-width:1;"/><path d="M60.7094,126.3438 L59.5531,131.4219 L61.8813,131.4219 L60.7094,126.3438 Z M59.225,124.1094 L62.2094,124.1094 L65.5688,136.5 L63.1156,136.5 L62.35,133.4375 L59.0688,133.4375 L58.3188,136.5 L55.8813,136.5 L59.225,124.1094 Z " fill="#000000"/><text fill="#000000" font-family="sans-serif" font-size="14" font-style="italic" lengthAdjust="spacing" textLength="68.626" x="74.6" y="135.8467">Personaje</text><line style="stroke:#181818;stroke-width:0.5;" x1="46.6" x2="145.226" y1="147" y2="147"/><line style="stroke:#181818;stroke-width:0.5;" x1="46.6" x2="145.226" y1="155" y2="155"/></g><!--class Ataque--><g class="entity" data-entity="Ataque" data-source-line="3" data-uid="ent0003" id="entity_Ataque"><rect fill="#F1F1F1" height="48" rx="2.5" ry="2.5" style="stroke:#181818;stroke-width:0.5;" width="82.0186" x="112.91" y="331"/><ellipse cx="127.91" cy="347" fill="#ADD1B2" rx="11" ry="11" style="stroke:#181818;stroke-width:1;"/><path d="M130.8788,352.6406 Q130.3006,352.9375 129.66,353.0781 Q129.0194,353.2344 128.3163,353.2344 Q125.8163,353.2344 124.4881,351.5938 Q123.1756,349.9375 123.1756,346.8125 Q123.1756,343.6875 124.4881,342.0313 Q125.8163,340.375 128.3163,340.375 Q129.0194,340.375 129.66,340.5313 Q130.3163,340.6875 130.8788,340.9844 L130.8788,343.7031 Q130.2538,343.125 129.66,342.8594 Q129.0663,342.5781 128.4413,342.5781 Q127.0975,342.5781 126.41,343.6563 Q125.7225,344.7188 125.7225,346.8125 Q125.7225,348.9063 126.41,349.9844 Q127.0975,351.0469 128.4413,351.0469 Q129.0663,351.0469 129.66,350.7813 Q130.2538,350.5 130.8788,349.9219 L130.8788,352.6406 Z " fill="#000000"/><text fill="#000000" font-family="sans-serif" font-size="14" lengthAdjust="spacing" textLength="50.0186" x="141.91" y="351.8467">Ataque</text><line style="stroke:#181818;stroke-width:0.5;" x1="113.91" x2="193.9286" y1="363" y2="363"/><line style="stroke:#181818;stroke-width:0.5;" x1="113.91" x2="193.9286" y1="371" y2="371"/></g><!--class Arma--><g class="entity" data-entity="Arma" data-source-line="4" data-uid="ent0004" id="entity_Arma"><rect fill="#F1F1F1" height="48" rx="2.5" ry="2.5" style="stroke:#181818;stroke-width:0.5;" width="69.5498" x="213.14" y="439"/><ellipse cx="228.14" cy="455" fill="#ADD1B2" rx="11" ry="11" style="stroke:#181818;stroke-width:1;"/><path d="M231.1088,460.6406 Q230.5306,460.9375 229.89,461.0781 Q229.2494,461.2344 228.5463,461.2344 Q226.0463,461.2344 224.7181,459.5938 Q223.4056,457.9375 223.4056,454.8125 Q223.4056,451.6875 224.7181,450.0313 Q226.0463,448.375 228.5463,448.375 Q229.2494,448.375 229.89,448.5313 Q230.5463,448.6875 231.1088,448.9844 L231.1088,451.7031 Q230.4838,451.125 229.89,450.8594 Q229.2963,450.5781 228.6713,450.5781 Q227.3275,450.5781 226.64,451.6563 Q225.9525,452.7188 225.9525,454.8125 Q225.9525,456.9063 226.64,457.9844 Q227.3275,459.0469 228.6713,459.0469 Q229.2963,459.0469 229.89,458.7813 Q230.4838,458.5 231.1088,457.9219 L231.1088,460.6406 Z " fill="#000000"/><text fill="#000000" font-family="sans-serif" font-size="14" lengthAdjust="spacing" textLength="37.5498" x="242.14" y="459.8467">Arma</text><line style="stroke:#181818;stroke-width:0.5;" x1="214.14" x2="281.6898" y1="471" y2="471"/><line style="stroke:#181818;stroke-width:0.5;" x1="214.14" x2="281.6898" y1="479" y2="479"/></g><!--class Mordida--><g class="entity" data-entity="Mordida" data-source-line="5" data-uid="ent0005" id="entity_Mordida"><rect fill="#F1F1F1" height="48" rx="2.5" ry="2.5" style="stroke:#181818;stroke-width:0.5;" width="88.6426" x="52.59" y="439"/><ellipse cx="67.59" cy="455" fill="#ADD1B2" rx="11" ry="11" style="stroke:#181818;stroke-width:1;"/><path d="M70.5588,460.6406 Q69.9806,460.9375 69.34,461.0781 Q68.6994,461.2344 67.9963,461.2344 Q65.4963,461.2344 64.1681,459.5938 Q62.8556,457.9375 62.8556,454.8125 Q62.8556,451.6875 64.1681,450.0313 Q65.4963,448.375 67.9963,448.375 Q68.6994,448.375 69.34,448.5313 Q69.9963,448.6875 70.5588,448.9844 L70.5588,451.7031 Q69.9338,451.125 69.34,450.8594 Q68.7463,450.5781 68.1213,450.5781 Q66.7775,450.5781 66.09,451.6563 Q65.4025,452.7188 65.4025,454.8125 Q65.4025,456.9063 66.09,457.9844 Q66.7775,459.0469 68.1213,459.0469 Q68.7463,459.0469 69.34,458.7813 Q69.9338,458.5 70.5588,457.9219 L70.5588,460.6406 Z " fill="#000000"/><text fill="#000000" font-family="sans-serif" font-size="14" lengthAdjust="spacing" textLength="56.6426" x="81.59" y="459.8467">Mordida</text><line style="stroke:#181818;stroke-width:0.5;" x1="53.59" x2="140.2326" y1="471" y2="471"/><line style="stroke:#181818;stroke-width:0.5;" x1="53.59" x2="140.2326" y1="479" y2="479"/></g><!--class Guerrero--><g class="entity" data-entity="Guerrero" data-source-line="6" data-uid="ent0006" id="entity_Guerrero"><rect fill="#F1F1F1" height="48" rx="2.5" ry="2.5" style="stroke:#181818;stroke-width:0.5;" width="94.7813" x="210.53" y="223"/><ellipse cx="225.53" cy="239" fill="#ADD1B2" rx="11" ry="11" style="stroke:#181818;stroke-width:1;"/><path d="M228.4988,244.6406 Q227.9206,244.9375 227.28,245.0781 Q226.6394,245.2344 225.9363,245.2344 Q223.4363,245.2344 222.1081,243.5938 Q220.7956,241.9375 220.7956,238.8125 Q220.7956,235.6875 222.1081,234.0313 Q223.4363,232.375 225.9363,232.375 Q226.6394,232.375 227.28,232.5313 Q227.9363,232.6875 228.4988,232.9844 L228.4988,235.7031 Q227.8738,235.125 227.28,234.8594 Q226.6863,234.5781 226.0613,234.5781 Q224.7175,234.5781 224.03,235.6563 Q223.3425,236.7188 223.3425,238.8125 Q223.3425,240.9063 224.03,241.9844 Q224.7175,243.0469 226.0613,243.0469 Q226.6863,243.0469 227.28,242.7813 Q227.8738,242.5 228.4988,241.9219 L228.4988,244.6406 Z " fill="#000000"/><text fill="#000000" font-family="sans-serif" font-size="14" lengthAdjust="spacing" textLength="62.7813" x="239.53" y="243.8467">Guerrero</text><line style="stroke:#181818;stroke-width:0.5;" x1="211.53" x2="304.3113" y1="255" y2="255"/><line style="stroke:#181818;stroke-width:0.5;" x1="211.53" x2="304.3113" y1="263" y2="263"/></g><!--class Vampiro--><g class="entity" data-entity="Vampiro" data-source-line="7" data-uid="ent0007" id="entity_Vampiro"><rect fill="#F1F1F1" height="48" rx="2.5" ry="2.5" style="stroke:#181818;stroke-width:0.5;" width="90.8916" x="14.47" y="223"/><ellipse cx="29.47" cy="239" fill="#ADD1B2" rx="11" ry="11" style="stroke:#181818;stroke-width:1;"/><path d="M32.4388,244.6406 Q31.8606,244.9375 31.22,245.0781 Q30.5794,245.2344 29.8763,245.2344 Q27.3763,245.2344 26.0481,243.5938 Q24.7356,241.9375 24.7356,238.8125 Q24.7356,235.6875 26.0481,234.0313 Q27.3763,232.375 29.8763,232.375 Q30.5794,232.375 31.22,232.5313 Q31.8763,232.6875 32.4388,232.9844 L32.4388,235.7031 Q31.8138,235.125 31.22,234.8594 Q30.6263,234.5781 30.0013,234.5781 Q28.6575,234.5781 27.97,235.6563 Q27.2825,236.7188 27.2825,238.8125 Q27.2825,240.9063 27.97,241.9844 Q28.6575,243.0469 30.0013,243.0469 Q30.6263,243.0469 31.22,242.7813 Q31.8138,242.5 32.4388,241.9219 L32.4388,244.6406 Z " fill="#000000"/><text fill="#000000" font-family="sans-serif" font-size="14" lengthAdjust="spacing" textLength="58.8916" x="43.47" y="243.8467">Vampiro</text><line style="stroke:#181818;stroke-width:0.5;" x1="15.47" x2="104.3616" y1="255" y2="255"/><line style="stroke:#181818;stroke-width:0.5;" x1="15.47" x2="104.3616" y1="263" y2="263"/></g><!--class Pocion--><g class="entity" data-entity="Pocion" data-source-line="8" data-uid="ent0008" id="entity_Pocion"><rect fill="#F1F1F1" height="48" rx="2.5" ry="2.5" style="stroke:#181818;stroke-width:0.5;" width="78.0332" x="300.9" y="331"/><ellipse cx="315.9" cy="347" fill="#ADD1B2" rx="11" ry="11" style="stroke:#181818;stroke-width:1;"/><path d="M318.8688,352.6406 Q318.2906,352.9375 317.65,353.0781 Q317.0094,353.2344 316.3063,353.2344 Q313.8063,353.2344 312.4781,351.5938 Q311.1656,349.9375 311.1656,346.8125 Q311.1656,343.6875 312.4781,342.0313 Q313.8063,340.375 316.3063,340.375 Q317.0094,340.375 317.65,340.5313 Q318.3063,340.6875 318.8688,340.9844 L318.8688,343.7031 Q318.2438,343.125 317.65,342.8594 Q317.0563,342.5781 316.4313,342.5781 Q315.0875,342.5781 314.4,343.6563 Q313.7125,344.7188 313.7125,346.8125 Q313.7125,348.9063 314.4,349.9844 Q315.0875,351.0469 316.4313,351.0469 Q317.0563,351.0469 317.65,350.7813 Q318.2438,350.5 318.8688,349.9219 L318.8688,352.6406 Z " fill="#000000"/><text fill="#000000" font-family="sans-serif" font-size="14" lengthAdjust="spacing" textLength="46.0332" x="329.9" y="351.8467">Pocion</text><line style="stroke:#181818;stroke-width:0.5;" x1="301.9" x2="377.9332" y1="363" y2="363"/><line style="stroke:#181818;stroke-width:0.5;" x1="301.9" x2="377.9332" y1="371" y2="371"/></g><!--class Batalla--><g class="entity" data-entity="Batalla" data-source-line="9" data-uid="ent0009" id="entity_Batalla"><rect fill="#F1F1F1" height="48" rx="2.5" ry="2.5" style="stroke:#181818;stroke-width:0.5;" width="80.6104" x="181.61" y="115"/><ellipse cx="196.61" cy="131" fill="#ADD1B2" rx="11" ry="11" style="stroke:#181818;stroke-width:1;"/><path d="M199.5787,136.6406 Q199.0006,136.9375 198.36,137.0781 Q197.7194,137.2344 197.0162,137.2344 Q194.5162,137.2344 193.1881,135.5938 Q191.8756,133.9375 191.8756,130.8125 Q191.8756,127.6875 193.1881,126.0313 Q194.5162,124.375 197.0162,124.375 Q197.7194,124.375 198.36,124.5313 Q199.0162,124.6875 199.5787,124.9844 L199.5787,127.7031 Q198.9537,127.125 198.36,126.8594 Q197.7662,126.5781 197.1412,126.5781 Q195.7975,126.5781 195.11,127.6563 Q194.4225,128.7188 194.4225,130.8125 Q194.4225,132.9063 195.11,133.9844 Q195.7975,135.0469 197.1412,135.0469 Q197.7662,135.0469 198.36,134.7813 Q198.9537,134.5 199.5787,133.9219 L199.5787,136.6406 Z " fill="#000000"/><text fill="#000000" font-family="sans-serif" font-size="14" lengthAdjust="spacing" textLength="48.6104" x="210.61" y="135.8467">Batalla</text><line style="stroke:#181818;stroke-width:0.5;" x1="182.61" x2="261.2204" y1="147" y2="147"/><line style="stroke:#181818;stroke-width:0.5;" x1="182.61" x2="261.2204" y1="155" y2="155"/></g><!--class JuegoVampiros--><g class="entity" data-entity="JuegoVampiros" data-source-line="10" data-uid="ent0010" id="entity_JuegoVampiros"><rect fill="#F1F1F1" height="48" rx="2.5" ry="2.5" style="stroke:#181818;stroke-width:0.5;" width="137.2529" x="153.29" y="7"/><ellipse cx="168.29" cy="23" fill="#ADD1B2" rx="11" ry="11" style="stroke:#181818;stroke-width:1;"/><path d="M171.2588,28.6406 Q170.6806,28.9375 170.04,29.0781 Q169.3994,29.2344 168.6963,29.2344 Q166.1963,29.2344 164.8681,27.5938 Q163.5556,25.9375 163.5556,22.8125 Q163.5556,19.6875 164.8681,18.0313 Q166.1963,16.375 168.6963,16.375 Q169.3994,16.375 170.04,16.5313 Q170.6963,16.6875 171.2588,16.9844 L171.2588,19.7031 Q170.6338,19.125 170.04,18.8594 Q169.4463,18.5781 168.8213,18.5781 Q167.4775,18.5781 166.79,19.6563 Q166.1025,20.7188 166.1025,22.8125 Q166.1025,24.9063 166.79,25.9844 Q167.4775,27.0469 168.8213,27.0469 Q169.4463,27.0469 170.04,26.7813 Q170.6338,26.5 171.2588,25.9219 L171.2588,28.6406 Z " fill="#000000"/><text fill="#000000" font-family="sans-serif" font-size="14" lengthAdjust="spacing" textLength="105.2529" x="182.29" y="27.8467">JuegoVampiros</text><line style="stroke:#181818;stroke-width:0.5;" x1="154.29" x2="289.5429" y1="39" y2="39"/><line style="stroke:#181818;stroke-width:0.5;" x1="154.29" x2="289.5429" y1="47" y2="47"/></g><!--reverse link Personaje to Guerrero--><g class="link" data-entity-1="Personaje" data-entity-2="Guerrero" data-source-line="13" data-uid="lnk11" id="link_Personaje_Guerrero"><path codeLine="13" d="M146.5316,173.1164 C173.4416,190.7264 195.2,204.97 222.17,222.61" fill="none" id="Personaje-backto-Guerrero" style="stroke:#181818;stroke-width:1;"/><polygon fill="none" points="131.47,163.26,143.2462,178.1369,149.8171,168.0958,131.47,163.26" style="stroke:#181818;stroke-width:1;"/></g><!--reverse link Personaje to Vampiro--><g class="link" data-entity-1="Personaje" data-entity-2="Vampiro" data-source-line="14" data-uid="lnk12" id="link_Personaje_Vampiro"><path codeLine="14" d="M82.2268,180.3023 C76.2168,197.9823 73.8,205.13 67.8,222.79" fill="none" id="Personaje-backto-Vampiro" style="stroke:#181818;stroke-width:1;"/><polygon fill="none" points="88.02,163.26,76.546,178.3712,87.9075,182.2333,88.02,163.26" style="stroke:#181818;stroke-width:1;"/></g><!--reverse link Ataque to Arma--><g class="link" data-entity-1="Ataque" data-entity-2="Arma" data-source-line="15" data-uid="lnk13" id="link_Ataque_Arma"><path codeLine="15" d="M186.4834,392.7268 C202.1634,410.4068 211.67,421.13 227.34,438.79" fill="none" id="Ataque-backto-Arma" style="stroke:#181818;stroke-width:1;"/><polygon fill="none" points="174.54,379.26,181.9945,396.7079,190.9723,388.7457,174.54,379.26" style="stroke:#181818;stroke-width:1;"/></g><!--reverse link Ataque to Mordida--><g class="link" data-entity-1="Ataque" data-entity-2="Mordida" data-source-line="16" data-uid="lnk14" id="link_Ataque_Mordida"><path codeLine="16" d="M132.8832,395.1122 C123.3732,412.7922 118.89,421.13 109.4,438.79" fill="none" id="Ataque-backto-Mordida" style="stroke:#181818;stroke-width:1;"/><polygon fill="none" points="141.41,379.26,127.5991,392.2699,138.1672,397.9545,141.41,379.26" style="stroke:#181818;stroke-width:1;"/></g><!--reverse link Guerrero to Pocion--><g class="link" data-entity-1="Guerrero" data-entity-2="Pocion" data-source-line="19" data-uid="lnk15" id="link_Guerrero_Pocion"><path codeLine="19" d="M283.2501,280.7533 C296.9201,298.4333 308.3,313.13 321.96,330.79" fill="none" id="Guerrero-backto-Pocion" style="stroke:#181818;stroke-width:1;"/><polygon fill="#181818" points="275.91,271.26,276.4156,278.4534,283.2501,280.7533,282.7445,273.5599,275.91,271.26" style="stroke:#181818;stroke-width:1;"/></g><!--reverse link Guerrero to Arma--><g class="link" data-entity-1="Guerrero" data-entity-2="Arma" data-source-line="20" data-uid="lnk16" id="link_Guerrero_Arma"><path codeLine="20" d="M256.2679,283.2968 C254.3379,324.4568 250.93,397.58 249,438.72" fill="none" id="Guerrero-backto-Arma" style="stroke:#181818;stroke-width:1;"/><polygon fill="none" points="256.83,271.31,252.5534,277.1161,256.2679,283.2968,260.5446,277.4908,256.83,271.31" style="stroke:#181818;stroke-width:1;"/></g><!--reverse link Vampiro to Mordida--><g class="link" data-entity-1="Vampiro" data-entity-2="Mordida" data-source-line="21" data-uid="lnk17" id="link_Vampiro_Mordida"><path codeLine="21" d="M65.9926,283.1349 C73.1026,324.2949 85.78,397.58 92.89,438.72" fill="none" id="Vampiro-backto-Mordida" style="stroke:#181818;stroke-width:1;"/><polygon fill="none" points="63.95,271.31,61.0297,277.9033,65.9926,283.1349,68.9129,276.5416,63.95,271.31" style="stroke:#181818;stroke-width:1;"/></g><!--reverse link Batalla to Guerrero--><g class="link" data-entity-1="Batalla" data-entity-2="Guerrero" data-source-line="22" data-uid="lnk18" id="link_Batalla_Guerrero"><path codeLine="22" d="M233.6764,174.6235 C239.6764,192.3035 244.04,205.13 250.03,222.79" fill="none" id="Batalla-backto-Guerrero" style="stroke:#181818;stroke-width:1;"/><polygon fill="#181818" points="229.82,163.26,227.9604,170.2272,233.6764,174.6235,235.536,167.6563,229.82,163.26" style="stroke:#181818;stroke-width:1;"/></g><!--reverse link Batalla to Vampiro--><g class="link" data-entity-1="Batalla" data-entity-2="Vampiro" data-source-line="23" data-uid="lnk19" id="link_Batalla_Vampiro"><path codeLine="23" d="M176.3189,169.8309 C149.4089,187.4409 122.63,204.97 95.66,222.61" fill="none" id="Batalla-backto-Vampiro" style="stroke:#181818;stroke-width:1;"/><polygon fill="#181818" points="186.36,163.26,179.1492,163.1984,176.3189,169.8309,183.5298,169.8925,186.36,163.26" style="stroke:#181818;stroke-width:1;"/></g><!--link JuegoVampiros to Batalla--><g class="link" data-entity-1="JuegoVampiros" data-entity-2="Batalla" data-source-line="26" data-uid="lnk20" id="link_JuegoVampiros_Batalla"><path codeLine="26" d="M221.92,55.26 C221.92,72.94 221.92,91.13 221.92,108.79" fill="none" id="JuegoVampiros-to-Batalla" style="stroke:#181818;stroke-width:1;stroke-dasharray:7.0,7.0;"/><polygon fill="#181818" points="221.92,114.79,225.92,105.79,221.92,109.79,217.92,105.79,221.92,114.79" style="stroke:#181818;stroke-width:1;"/></g><!--link JuegoVampiros to Guerrero--><g class="link" data-entity-1="JuegoVampiros" data-entity-2="Guerrero" data-source-line="27" data-uid="lnk21" id="link_JuegoVampiros_Guerrero"><path codeLine="27" d="M244.06,55.27 C257.28,70.84 272.84,92.53 279.92,115 C291.48,151.74 280.77,190.7 270.42,217.24" fill="none" id="JuegoVampiros-to-Guerrero" style="stroke:#181818;stroke-width:1;stroke-dasharray:7.0,7.0;"/><polygon fill="#181818" points="268.24,222.83,275.2366,215.8984,270.0566,218.1717,267.7833,212.9917,268.24,222.83" style="stroke:#181818;stroke-width:1;"/></g><!--link JuegoVampiros to Vampiro--><g class="link" data-entity-1="JuegoVampiros" data-entity-2="Vampiro" data-source-line="28" data-uid="lnk22" id="link_JuegoVampiros_Vampiro"><path codeLine="28" d="M153.05,41.98 C109.17,52.28 55.56,73.11 27.92,115 C6,148.22 24.1932,189.957 40.9832,217.697" fill="none" id="JuegoVampiros-to-Vampiro" style="stroke:#181818;stroke-width:1;stroke-dasharray:7.0,7.0;"/><polygon fill="#181818" points="44.09,222.83,42.8518,213.0593,41.501,218.5525,36.0078,217.2017,44.09,222.83" style="stroke:#181818;stroke-width:1;"/></g><!--link Batalla to Ataque--><g class="link" data-entity-1="Batalla" data-entity-2="Ataque" data-source-line="29" data-uid="lnk23" id="link_Batalla_Ataque"><path codeLine="29" d="M213.5,163.16 C207.55,179.75 199.49,202.67 192.92,223 C180.8,260.48 169.6486,298.6609 162.1386,324.9409" fill="none" id="Batalla-to-Ataque" style="stroke:#181818;stroke-width:1;stroke-dasharray:7.0,7.0;"/><polygon fill="#181818" points="160.49,330.71,166.809,323.1555,161.8638,325.9024,159.1169,320.9573,160.49,330.71" style="stroke:#181818;stroke-width:1;"/></g><!--link Batalla to Arma--><g class="link" data-entity-1="Batalla" data-entity-2="Arma" data-source-line="30" data-uid="lnk24" id="link_Batalla_Arma"><path codeLine="30" d="M257.15,163.23 C301.24,194.88 373.76,256.25 396.92,331 C403.23,351.38 407.72,360.61 396.92,379 C372.46,420.61 324.4892,441.1633 288.6892,451.8533" fill="none" id="Batalla-to-Arma" style="stroke:#181818;stroke-width:1;stroke-dasharray:7.0,7.0;"/><polygon fill="#181818" points="282.94,453.57,292.7082,454.8277,287.731,452.1394,290.4193,447.1621,282.94,453.57" style="stroke:#181818;stroke-width:1;"/></g><!--link Guerrero to Ataque--><g class="link" data-entity-1="Guerrero" data-entity-2="Ataque" data-source-line="31" data-uid="lnk25" id="link_Guerrero_Ataque"><path codeLine="31" d="M235.09,271.26 C217.75,288.94 198.2112,308.8463 180.8912,326.5063" fill="none" id="Guerrero-to-Ataque" style="stroke:#181818;stroke-width:1;stroke-dasharray:7.0,7.0;"/><polygon fill="#181818" points="176.69,330.79,185.8476,327.1653,180.191,327.2203,180.136,321.5637,176.69,330.79" style="stroke:#181818;stroke-width:1;"/></g><!--link Vampiro to Ataque--><g class="link" data-entity-1="Vampiro" data-entity-2="Ataque" data-source-line="32" data-uid="lnk26" id="link_Vampiro_Ataque"><path codeLine="32" d="M80.54,271.26 C96.22,288.94 113.6878,308.642 129.3578,326.302" fill="none" id="Vampiro-to-Ataque" style="stroke:#181818;stroke-width:1;stroke-dasharray:7.0,7.0;"/><polygon fill="#181818" points="133.34,330.79,130.3586,321.4032,130.0215,327.05,124.3747,326.7129,133.34,330.79" style="stroke:#181818;stroke-width:1;"/></g><!--SRC=[PP5DQiCm48NtEiNi30Nx1AMGPb48548MsK-amL6mDSx8NXHwgnwX5wj_D8fJx_IUHlhUamhODnWf6hp4Nj3sO4STuKWIEU2DpA9tFTw7BAJ5jFnaSTwf-XX8X8IJF6FR-QoER3s79DwnnwRHSuU1QaxJqPW2JjJWD4qH7C6LX8BrQ78gUFqkomVkdw_S9VJYpPdNXYRVq2ot7KTl_UzFW2_0MgZ6MHa5mijuGUgJFLPAmi-6KbBV-M2ElJOryoQEeuw2M_e_lHDKrLj-n-rEfcotbANyoKiV_6HDPNAzrP0MV5X_]--></g></svg>