<svg xmlns="http://www.w3.org/2000/svg" xmlns:xlink="http://www.w3.org/1999/xlink" contentStyleType="text/css" height="829px" preserveAspectRatio="none" style="width:680px;height:829px;background:#FFFFFF;" version="1.1" viewBox="0 0 680 829" width="680px" zoomAndPan="magnify"><defs/><g><!--cluster modelo--><g id="cluster_modelo"><path d="M159.5,326.0137 L210.2793,326.0137 A3.75,3.75 0 0 1 212.7793,328.5137 L219.7793,350.6348 L397.5,350.6348 A2.5,2.5 0 0 1 400,353.1348 L400,819.5137 A2.5,2.5 0 0 1 397.5,822.0137 L159.5,822.0137 A2.5,2.5 0 0 1 157,819.5137 L157,328.5137 A2.5,2.5 0 0 1 159.5,326.0137 " fill="none" style="stroke:#000000;stroke-width:1.5;"/><line style="stroke:#000000;stroke-width:1.5;" x1="157" x2="219.7793" y1="350.6348" y2="350.6348"/><text fill="#000000" font-family="sans-serif" font-size="14" font-weight="bold" lengthAdjust="spacing" textLength="49.7793" x="161" y="343.1211">modelo</text></g><!--cluster controlador--><g id="cluster_controlador"><path d="M116.5,211.0137 L195.2793,211.0137 A3.75,3.75 0 0 1 197.7793,213.5137 L204.7793,235.6348 L337.5,235.6348 A2.5,2.5 0 0 1 340,238.1348 L340,290.5137 A2.5,2.5 0 0 1 337.5,293.0137 L116.5,293.0137 A2.5,2.5 0 0 1 114,290.5137 L114,213.5137 A2.5,2.5 0 0 1 116.5,211.0137 " fill="none" style="stroke:#000000;stroke-width:1.5;"/><line style="stroke:#000000;stroke-width:1.5;" x1="114" x2="204.7793" y1="235.6348" y2="235.6348"/><text fill="#000000" font-family="sans-serif" font-size="14" font-weight="bold" lengthAdjust="spacing" textLength="77.7793" x="118" y="228.1211">controlador</text></g><!--cluster vista--><g id="cluster_vista"><path d="M275.5,6.0137 L308.4102,6.0137 A3.75,3.75 0 0 1 310.9102,8.5137 L317.9102,30.6348 L670.5,30.6348 A2.5,2.5 0 0 1 673,33.1348 L673,85.5137 A2.5,2.5 0 0 1 670.5,88.0137 L275.5,88.0137 A2.5,2.5 0 0 1 273,85.5137 L273,8.5137 A2.5,2.5 0 0 1 275.5,6.0137 " fill="none" style="stroke:#000000;stroke-width:1.5;"/><line style="stroke:#000000;stroke-width:1.5;" x1="273" x2="317.9102" y1="30.6348" y2="30.6348"/><text fill="#000000" font-family="sans-serif" font-size="14" font-weight="bold" lengthAdjust="spacing" textLength="31.9102" x="277" y="23.1211">vista</text></g><!--class Universidad--><g id="elem_Universidad"><rect codeLine="6" fill="#F1F1F1" height="28.6211" id="Universidad" rx="2.5" ry="2.5" style="stroke:#181818;stroke-width:0.5;" width="79.9238" x="173" y="363.0137"/><text fill="#000000" font-family="sans-serif" font-size="14" lengthAdjust="spacing" textLength="73.9238" x="176" y="383.1211">Universidad</text></g><!--class Planta--><g id="elem_Planta"><rect codeLine="10" fill="#F1F1F1" height="28.6211" id="Planta" rx="2.5" ry="2.5" style="stroke:#181818;stroke-width:0.5;" width="45.6963" x="173" y="561.0137"/><text fill="#000000" font-family="sans-serif" font-size="14" lengthAdjust="spacing" textLength="39.6963" x="176" y="581.1211">Planta</text></g><!--class Persona--><g id="elem_Persona"><rect codeLine="14" fill="#F1F1F1" height="28.6211" id="Persona" rx="2.5" ry="2.5" style="stroke:#181818;stroke-width:0.5;" width="58.1445" x="236" y="669.0137"/><text fill="#000000" font-family="sans-serif" font-size="14" lengthAdjust="spacing" textLength="52.1445" x="239" y="689.1211">Persona</text></g><!--class Llamada--><g id="elem_Llamada"><rect codeLine="18" fill="#F1F1F1" height="28.6211" id="Llamada" rx="2.5" ry="2.5" style="stroke:#181818;stroke-width:0.5;" width="59.7031" x="271" y="777.0137"/><text fill="#000000" font-family="sans-serif" font-size="14" lengthAdjust="spacing" textLength="53.7031" x="274" y="797.1211">Llamada</text></g><!--class Ascensor--><g id="elem_Ascensor"><rect codeLine="22" fill="#F1F1F1" height="28.6211" id="Ascensor" rx="2.5" ry="2.5" style="stroke:#181818;stroke-width:0.5;" width="64.3584" x="320" y="453.0137"/><text fill="#000000" font-family="sans-serif" font-size="14" lengthAdjust="spacing" textLength="58.3584" x="323" y="473.1211">Ascensor</text></g><!--class Tiempo--><g id="elem_Tiempo"><rect codeLine="26" fill="#F1F1F1" height="28.6211" id="Tiempo" rx="2.5" ry="2.5" style="stroke:#181818;stroke-width:0.5;" width="52.6826" x="231.5" y="453.0137"/><text fill="#000000" font-family="sans-serif" font-size="14" lengthAdjust="spacing" textLength="46.6826" x="234.5" y="473.1211">Tiempo</text></g><!--class ControlAscensor--><g id="elem_ControlAscensor"><rect codeLine="30" fill="#F1F1F1" height="28.6211" id="ControlAscensor" rx="2.5" ry="2.5" style="stroke:#181818;stroke-width:0.5;" width="109.4893" x="130.5" y="248.0137"/><text fill="#000000" font-family="sans-serif" font-size="14" lengthAdjust="spacing" textLength="103.4893" x="133.5" y="268.1211">ControlAscensor</text></g><!--class Mundo--><g id="elem_Mundo"><rect codeLine="34" fill="#F1F1F1" height="28.6211" id="Mundo" rx="2.5" ry="2.5" style="stroke:#181818;stroke-width:0.5;" width="48.8066" x="274.5" y="248.0137"/><text fill="#000000" font-family="sans-serif" font-size="14" lengthAdjust="spacing" textLength="42.8066" x="277.5" y="268.1211">Mundo</text></g><!--class ConsolaVista--><g id="elem_ConsolaVista"><rect codeLine="40" fill="#F1F1F1" height="28.6211" id="ConsolaVista" rx="2.5" ry="2.5" style="stroke:#181818;stroke-width:0.5;" width="88.4893" x="289" y="43.0137"/><text fill="#000000" font-family="sans-serif" font-size="14" lengthAdjust="spacing" textLength="82.4893" x="292" y="63.1211">ConsolaVista</text></g><!--class LineaVista--><g id="elem_LineaVista"><rect codeLine="41" fill="#F1F1F1" height="28.6211" id="LineaVista" rx="2.5" ry="2.5" style="stroke:#181818;stroke-width:0.5;" width="71.3789" x="412.5" y="43.0137"/><text fill="#000000" font-family="sans-serif" font-size="14" lengthAdjust="spacing" textLength="65.3789" x="415.5" y="63.1211">LineaVista</text></g><!--class RepresentadorPlanta--><g id="elem_RepresentadorPlanta"><rect codeLine="42" fill="#F1F1F1" height="28.6211" id="RepresentadorPlanta" rx="2.5" ry="2.5" style="stroke:#181818;stroke-width:0.5;" width="138.3096" x="519" y="43.0137"/><text fill="#000000" font-family="sans-serif" font-size="14" lengthAdjust="spacing" textLength="132.3096" x="522" y="63.1211">RepresentadorPlanta</text></g><!--class Main--><g id="elem_Main"><rect codeLine="45" fill="#F1F1F1" height="28.6211" id="Main" rx="2.5" ry="2.5" style="stroke:#181818;stroke-width:0.5;" width="36.3447" x="217" y="135.0137"/><text fill="#000000" font-family="sans-serif" font-size="14" lengthAdjust="spacing" textLength="30.3447" x="220" y="155.1211">Main</text></g><!--reverse link Universidad to Planta--><g id="link_Universidad_Planta"><path codeLine="48" d="M210.7662,404.2491 C207.6462,440.3291 200.27,525.2437 197.17,561.0037 " fill="none" id="Universidad-backto-Planta" style="stroke:#181818;stroke-width:1.0;"/><polygon fill="#181818" points="211.8,392.2937,207.298,397.9268,210.7662,404.2491,215.2682,398.616,211.8,392.2937" style="stroke:#181818;stroke-width:1.0;"/><text fill="#000000" font-family="sans-serif" font-size="13" lengthAdjust="spacing" textLength="7.23" x="203.4075" y="413.5541">1</text><text fill="#000000" font-family="sans-serif" font-size="13" lengthAdjust="spacing" textLength="5.0591" x="191.7465" y="549.6706">*</text></g><!--reverse link Universidad to Ascensor--><g id="link_Universidad_Ascensor"><path codeLine="49" d="M244.5493,398.492 C270.5993,414.982 304.17,436.2337 330.33,452.7937 " fill="none" id="Universidad-backto-Ascensor" style="stroke:#181818;stroke-width:1.0;"/><polygon fill="#181818" points="234.41,392.0737,237.3402,398.6626,244.5493,398.492,241.6191,391.9031,234.41,392.0737" style="stroke:#181818;stroke-width:1.0;"/><text fill="#000000" font-family="sans-serif" font-size="13" lengthAdjust="spacing" textLength="7.23" x="233.1676" y="413.5591">1</text><text fill="#000000" font-family="sans-serif" font-size="13" lengthAdjust="spacing" textLength="5.0591" x="316.6661" y="441.6692">*</text></g><!--reverse link Universidad to ControlAscensor--><g id="link_Universidad_ControlAscensor"><path codeLine="50" d="M206.7411,351.2466 C201.3711,329.5966 193.84,299.1737 188.43,277.3737 " fill="none" id="Universidad-backto-ControlAscensor" style="stroke:#181818;stroke-width:1.0;"/><polygon fill="none" points="209.63,362.8937,212.0679,356.1072,206.7411,351.2466,204.3032,358.0331,209.63,362.8937" style="stroke:#181818;stroke-width:1.0;"/><text fill="#000000" font-family="sans-serif" font-size="13" lengthAdjust="spacing" textLength="7.23" x="200.2371" y="351.8048">1</text><text fill="#000000" font-family="sans-serif" font-size="13" lengthAdjust="spacing" textLength="7.23" x="181.3689" y="298.6586">1</text></g><!--reverse link Universidad to Tiempo--><g id="link_Universidad_Tiempo"><path codeLine="51" d="M225.4971,402.9459 C233.9571,419.4759 242.59,436.3737 251.02,452.8637 " fill="none" id="Universidad-backto-Tiempo" style="stroke:#181818;stroke-width:1.0;"/><polygon fill="none" points="220.03,392.2637,219.2028,399.4272,225.4971,402.9459,226.3243,395.7824,220.03,392.2637" style="stroke:#181818;stroke-width:1.0;"/><text fill="#000000" font-family="sans-serif" font-size="13" lengthAdjust="spacing" textLength="7.23" x="214.204" y="413.8097">1</text><text fill="#000000" font-family="sans-serif" font-size="13" lengthAdjust="spacing" textLength="7.23" x="240.384" y="441.7641">1</text></g><!--reverse link Planta to Persona--><g id="link_Planta_Persona"><path codeLine="53" d="M207.4345,601.2345 C213.5645,614.2145 218.37,623.0937 229,639.0137 C236.07,649.6137 245.25,660.6637 252.56,668.9737 " fill="none" id="Planta-backto-Persona" style="stroke:#181818;stroke-width:1.0;"/><polygon fill="#181818" points="202.31,590.3837,201.2553,597.5172,207.4345,601.2345,208.4892,594.1009,202.31,590.3837" style="stroke:#181818;stroke-width:1.0;"/><text fill="#000000" font-family="sans-serif" font-size="13" lengthAdjust="spacing" textLength="49.1499" x="230" y="635.042">contiene</text><text fill="#000000" font-family="sans-serif" font-size="13" lengthAdjust="spacing" textLength="7.23" x="196.2523" y="611.6716">1</text><text fill="#000000" font-family="sans-serif" font-size="13" lengthAdjust="spacing" textLength="5.0591" x="242.0351" y="657.6295">*</text></g><!--reverse link Ascensor to Persona--><g id="link_Ascensor_Persona"><path codeLine="54" d="M342.3457,493.4636 C331.0857,522.5336 308.2,581.0837 284,639.0137 C279.81,649.0537 274.89,660.3037 271.1,668.8437 " fill="none" id="Ascensor-backto-Persona" style="stroke:#181818;stroke-width:1.0;"/><polygon fill="#181818" points="346.68,482.2737,340.7829,486.4239,342.3457,493.4636,348.2428,489.3134,346.68,482.2737" style="stroke:#181818;stroke-width:1.0;"/><text fill="#000000" font-family="sans-serif" font-size="13" lengthAdjust="spacing" textLength="56.3672" x="316" y="581.042">pasajeros</text><text fill="#000000" font-family="sans-serif" font-size="13" lengthAdjust="spacing" textLength="5.0591" x="339.2393" y="503.5279">*</text><text fill="#000000" font-family="sans-serif" font-size="13" lengthAdjust="spacing" textLength="5.0591" x="267.3673" y="657.737">*</text></g><!--reverse link Ascensor to Llamada--><g id="link_Ascensor_Llamada"><path codeLine="55" d="M363.1124,493.3111 C372.7424,515.7511 384.47,550.6337 378,590.0137 C366.06,662.6837 354.68,679.6137 325,747.0137 C320.48,757.2737 314.36,768.3337 309.43,776.7337 " fill="none" id="Ascensor-backto-Llamada" style="stroke:#181818;stroke-width:1.0;"/><polygon fill="#181818" points="358.38,482.2837,357.0704,489.3749,363.1124,493.3111,364.422,486.2199,358.38,482.2837" style="stroke:#181818;stroke-width:1.0;"/><text fill="#000000" font-family="sans-serif" font-size="13" lengthAdjust="spacing" textLength="52.0254" x="373" y="635.042">llamadas</text><text fill="#000000" font-family="sans-serif" font-size="13" lengthAdjust="spacing" textLength="5.0591" x="354.5224" y="503.541">*</text><text fill="#000000" font-family="sans-serif" font-size="13" lengthAdjust="spacing" textLength="5.0591" x="306.5296" y="765.8746">*</text></g><!--link Persona to Llamada--><g id="link_Persona_Llamada"><path codeLine="56" d="M267.06,698.2037 C269.23,711.0437 273.14,730.6837 279,747.0137 C282.71,757.3737 285.4284,763.1719 290.0584,771.5519 " fill="none" id="Persona-to-Llamada" style="stroke:#181818;stroke-width:1.0;"/><polygon fill="#181818" points="292.96,776.8037,292.1087,766.9917,290.542,772.4272,285.1064,770.8605,292.96,776.8037" style="stroke:#181818;stroke-width:1.0;"/><text fill="#000000" font-family="sans-serif" font-size="13" lengthAdjust="spacing" textLength="40.479" x="280" y="743.042">genera</text><text fill="#000000" font-family="sans-serif" font-size="13" lengthAdjust="spacing" textLength="7.23" x="259.6146" y="719.7306">1</text><text fill="#000000" font-family="sans-serif" font-size="13" lengthAdjust="spacing" textLength="21.6836" x="265.5298" y="765.6828">0..1</text></g><!--link Ascensor to Planta--><g id="link_Ascensor_Planta"><path codeLine="57" d="M319.57,480.1737 C300.71,487.7537 276.99,498.6937 258,512.0137 C237.85,526.1437 222.3913,542.6297 210.8213,556.3297 " fill="none" id="Ascensor-to-Planta" style="stroke:#181818;stroke-width:1.0;stroke-dasharray:7.0,7.0;"/><polygon fill="#181818" points="206.95,560.9137,215.813,556.6185,210.1761,557.0937,209.701,551.4568,206.95,560.9137" style="stroke:#181818;stroke-width:1.0;"/><text fill="#000000" font-family="sans-serif" font-size="13" lengthAdjust="spacing" textLength="20.96" x="259" y="527.042">usa</text><text fill="#000000" font-family="sans-serif" font-size="13" lengthAdjust="spacing" textLength="7.23" x="304.6963" y="478.1853">1</text></g><!--link Mundo to Universidad--><g id="link_Mundo_Universidad"><path codeLine="60" d="M288.45,277.3737 C271.86,299.1737 243.4741,336.4695 226.9941,358.1195 " fill="none" id="Mundo-to-Universidad" style="stroke:#181818;stroke-width:1.0;stroke-dasharray:7.0,7.0;"/><polygon fill="#181818" points="223.36,362.8937,231.994,358.1551,226.3884,358.9152,225.6284,353.3096,223.36,362.8937" style="stroke:#181818;stroke-width:1.0;"/></g><!--link Mundo to Tiempo--><g id="link_Mundo_Tiempo"><path codeLine="61" d="M296.25,277.1437 C288.78,314.1337 269.3886,410.1426 261.9286,447.0526 " fill="none" id="Mundo-to-Tiempo" style="stroke:#181818;stroke-width:1.0;stroke-dasharray:7.0,7.0;"/><polygon fill="#181818" points="260.74,452.9337,266.4437,444.9045,261.7305,448.0328,258.6022,443.3196,260.74,452.9337" style="stroke:#181818;stroke-width:1.0;"/></g><!--link Mundo to ConsolaVista--><g id="link_Mundo_ConsolaVista"><path codeLine="62" d="M301.27,247.9337 C307.46,211.0237 323.5282,115.0511 329.7282,78.0611 " fill="none" id="Mundo-to-ConsolaVista" style="stroke:#181818;stroke-width:1.0;stroke-dasharray:7.0,7.0;"/><polygon fill="#181818" points="330.72,72.1437,325.2873,80.3586,329.8935,77.0749,333.1772,81.6811,330.72,72.1437" style="stroke:#181818;stroke-width:1.0;"/></g><!--link ConsolaVista to Planta--><g id="link_ConsolaVista_Planta"><path codeLine="64" d="M288.9,61.4137 C199.64,68.4837 6,90.5137 6,148.5137 C6,148.5137 6,148.5137 6,468.5137 C6,544.0537 116.0129,565.5474 166.7429,571.6474 " fill="none" id="ConsolaVista-to-Planta" style="stroke:#181818;stroke-width:1.0;stroke-dasharray:7.0,7.0;"/><polygon fill="#181818" points="172.7,572.3637,164.2419,567.3178,167.7358,571.7667,163.2868,575.2606,172.7,572.3637" style="stroke:#181818;stroke-width:1.0;"/></g><!--link ConsolaVista to Ascensor--><g id="link_ConsolaVista_Ascensor"><path codeLine="65" d="M344.56,72.1537 C357.6,88.9637 377,118.9437 377,148.5137 C377,148.5137 377,148.5137 377,378.5137 C377,405.6737 368.2451,430.3124 360.8351,447.3324 " fill="none" id="ConsolaVista-to-Ascensor" style="stroke:#181818;stroke-width:1.0;stroke-dasharray:7.0,7.0;"/><polygon fill="#181818" points="358.44,452.8337,365.7001,446.1785,360.4359,448.2493,358.3651,442.9851,358.44,452.8337" style="stroke:#181818;stroke-width:1.0;"/></g><!--link ConsolaVista to Tiempo--><g id="link_ConsolaVista_Tiempo"><path codeLine="66" d="M288.99,64.7237 C215.8,76.3037 77,104.1137 77,148.5137 C77,148.5137 77,148.5137 77,378.5137 C77,446.2937 174.955,461.4593 225.305,465.0293 " fill="none" id="ConsolaVista-to-Tiempo" style="stroke:#181818;stroke-width:1.0;stroke-dasharray:7.0,7.0;"/><polygon fill="#181818" points="231.29,465.4537,222.5954,460.8272,226.3025,465.1,222.0296,468.8071,231.29,465.4537" style="stroke:#181818;stroke-width:1.0;"/></g><!--link LineaVista to Planta--><g id="link_LineaVista_Planta"><path codeLine="68" d="M468.54,72.0937 C489.51,87.7837 519,115.6737 519,148.5137 C519,148.5137 519,148.5137 519,468.5137 C519,500.0937 299.1464,551.6389 225.0864,568.1389 " fill="none" id="LineaVista-to-Planta" style="stroke:#181818;stroke-width:1.0;stroke-dasharray:7.0,7.0;"/><polygon fill="#181818" points="219.23,569.4437,228.8845,571.3908,224.1103,568.3564,227.1448,563.5822,219.23,569.4437" style="stroke:#181818;stroke-width:1.0;"/></g><!--link LineaVista to Ascensor--><g id="link_LineaVista_Ascensor"><path codeLine="69" d="M448,72.2337 C448,89.8837 448,121.4837 448,148.5137 C448,148.5137 448,148.5137 448,378.5137 C448,413.8937 417.4746,436.1966 389.5846,450.2966 " fill="none" id="LineaVista-to-Ascensor" style="stroke:#181818;stroke-width:1.0;stroke-dasharray:7.0,7.0;"/><polygon fill="#181818" points="384.23,453.0037,394.0666,452.5128,388.6922,450.7478,390.4572,445.3733,384.23,453.0037" style="stroke:#181818;stroke-width:1.0;"/></g><!--link RepresentadorPlanta to Planta--><g id="link_RepresentadorPlanta_Planta"><path codeLine="71" d="M588.49,72.2337 C589.09,89.8837 590,121.4737 590,148.5137 C590,148.5137 590,148.5137 590,468.5137 C590,544.8537 503.41,510.0537 430,531.0137 C354.31,552.6237 267.6401,565.3912 225.2001,570.9012 " fill="none" id="RepresentadorPlanta-to-Planta" style="stroke:#181818;stroke-width:1.0;stroke-dasharray:7.0,7.0;"/><polygon fill="#181818" points="219.25,571.6737,228.6901,574.4816,224.2084,571.0299,227.6601,566.5482,219.25,571.6737" style="stroke:#181818;stroke-width:1.0;"/></g><!--link Main to Mundo--><g id="link_Main_Mundo"><path codeLine="73" d="M242.85,164.1237 C255.13,185.4237 275.7733,221.2256 288.0933,242.5956 " fill="none" id="Main-to-Mundo" style="stroke:#181818;stroke-width:1.0;stroke-dasharray:7.0,7.0;"/><polygon fill="#181818" points="291.09,247.7937,290.0603,237.9988,288.5927,243.462,283.1296,241.9944,291.09,247.7937" style="stroke:#181818;stroke-width:1.0;"/></g><!--SRC=[ZLDDJyCm3BtxLrYz824j6bSEI1DSa412VDszra2sDAcIRj90- - -uJLiosZ4kwsG_lsS_En-wOEIogdTOShba7-2Z2UNQvuOXhBMjo5E9kQ4G5dNjzN9Jystkx9F-P9m3L9IlwPsnT0KRXr-04OmlLc-5K1TKj554-Td3a7ymP6kQJacTizEvEqCb5TEvHSZP1kSdayzQ1fK6zx3_wLe6gRqpL7H54NeTeuTqXspt6rkuL2SXtUhG3JRG1T5uZU7zpoZQyZZwo9NdmEADDDMRrF9togGjm9dW3ENQMGvOUMrpNP7X074FAdK_kyZmV3R3x3phrgGYxp_1lG_7uAw1opSnK_soy5Hfbuux0ZZeShB_xa8kMr7Dbk5NiotwQ5L5WLRiNVXFMNzobsZYlw6g9smwdCskC9ihTJ5HzouDUXfh2LQfgyEb27mJgDdm3LTi2vRLKa1vbMzcitAuY_S5gTln6XEgnEU_WPtZqvXMIANd2p2E2NGqn4dOS1YdWFr9H5poP9GwhdiSDkXsoAdNDcQ5vj6ryP5Htm00]--></g></svg>