<svg xmlns="http://www.w3.org/2000/svg" xmlns:xlink="http://www.w3.org/1999/xlink" contentStyleType="text/css" data-diagram-type="CLASS" height="451px" preserveAspectRatio="none" style="width:296px;height:451px;background:#FFFFFF;" version="1.1" viewBox="0 0 296 451" width="296px" zoomAndPan="magnify"><defs/><g><!--class Mundo--><g id="elem_Mundo"><rect codeLine="4" fill="#F1F1F1" height="26.2969" id="Mundo" rx="2.5" ry="2.5" style="stroke:#181818;stroke-width:0.5;" width="53.2773" x="26.5" y="7"/><text fill="#000000" font-family="sans-serif" font-size="14" lengthAdjust="spacing" textLength="47.2773" x="29.5" y="24.9951">Mundo</text></g><!--class Universidad--><g id="elem_Universidad"><rect codeLine="5" fill="#F1F1F1" height="26.2969" id="Universidad" rx="2.5" ry="2.5" style="stroke:#181818;stroke-width:0.5;" width="89.2002" x="106.5" y="110"/><text fill="#000000" font-family="sans-serif" font-size="14" lengthAdjust="spacing" textLength="83.2002" x="109.5" y="127.9951">Universidad</text></g><!--class Persona--><g id="elem_Persona"><rect codeLine="6" fill="#F1F1F1" height="26.2969" id="Persona" rx="2.5" ry="2.5" style="stroke:#181818;stroke-width:0.5;" width="62.123" x="7" y="213"/><text fill="#000000" font-family="sans-serif" font-size="14" lengthAdjust="spacing" textLength="56.123" x="10" y="230.9951">Persona</text></g><!--class Ascensor--><g id="elem_Ascensor"><rect codeLine="7" fill="#F1F1F1" height="26.2969" id="Ascensor" rx="2.5" ry="2.5" style="stroke:#181818;stroke-width:0.5;" width="69.6699" x="113" y="316"/><text fill="#000000" font-family="sans-serif" font-size="14" lengthAdjust="spacing" textLength="63.6699" x="116" y="333.9951">Ascensor</text></g><!--class Planta--><g id="elem_Planta"><rect codeLine="8" fill="#F1F1F1" height="26.2969" id="Planta" rx="2.5" ry="2.5" style="stroke:#181818;stroke-width:0.5;" width="49.8525" x="123" y="419"/><text fill="#000000" font-family="sans-serif" font-size="14" lengthAdjust="spacing" textLength="43.8525" x="126" y="436.9951">Planta</text></g><!--reverse link Mundo to Persona--><g id="link_Mundo_Persona"><path codeLine="10" d="M49.4185,44.9315 C46.8985,62.0115 44.18,82.37 42,110 C39.04,147.44 38.27,191.91 38.07,212.89 " fill="transparent" id="Mundo-backto-Persona" style="stroke:#181818;stroke-width:1;"/><polygon fill="#181818" points="51.17,33.06,46.3371,38.4119,49.4185,44.9315,54.2514,39.5796,51.17,33.06" style="stroke:#181818;stroke-width:1;"/><text fill="#000000" font-family="sans-serif" font-size="13" lengthAdjust="spacing" textLength="45.7983" x="43" y="127.5669">genera</text></g><!--reverse link Mundo to Universidad--><g id="link_Mundo_Universidad"><path codeLine="11" d="M73.3762,41.9925 C92.2862,61.4825 120.41,90.47 139.19,109.83 " fill="transparent" id="Mundo-backto-Universidad" style="stroke:#181818;stroke-width:1;"/><polygon fill="#181818" points="65.02,33.38,66.3273,40.4716,73.3762,41.9925,72.0689,34.9008,65.02,33.38" style="stroke:#181818;stroke-width:1;"/><text fill="#000000" font-family="sans-serif" font-size="13" lengthAdjust="spacing" textLength="28.4565" x="109" y="76.0669">crea</text></g><!--reverse link Universidad to Planta--><g id="link_Universidad_Planta"><path codeLine="13" d="M167.3072,145.9155 C195.8472,185.1655 270.55,300.99 220,389 C209.98,406.44 189.62,417.33 173.09,423.63 " fill="transparent" id="Universidad-backto-Planta" style="stroke:#181818;stroke-width:1;"/><polygon fill="#181818" points="160.25,136.21,160.5434,143.4151,167.3072,145.9155,167.0137,138.7103,160.25,136.21" style="stroke:#181818;stroke-width:1;"/><text fill="#000000" font-family="sans-serif" font-size="13" lengthAdjust="spacing" textLength="56.2847" x="232" y="282.0669">contiene</text></g><!--reverse link Universidad to Persona--><g id="link_Universidad_Persona"><path codeLine="14" d="M115.5648,141.8001 C101.6948,149.2701 95.17,154.01 82,166 C66.69,179.93 53.14,199.86 45.25,212.61 " fill="transparent" id="Universidad-backto-Persona" style="stroke:#181818;stroke-width:1;"/><polygon fill="transparent" points="126.13,136.11,118.9507,135.4333,115.5648,141.8001,122.7441,142.4768,126.13,136.11" style="stroke:#181818;stroke-width:1;"/><text fill="#000000" font-family="sans-serif" font-size="13" lengthAdjust="spacing" textLength="39.3174" x="83" y="179.0669">acoge</text></g><!--reverse link Universidad to Ascensor--><g id="link_Universidad_Ascensor"><path codeLine="15" d="M150.6447,148.1487 C150.1147,184.4287 148.71,279.71 148.18,315.91 " fill="transparent" id="Universidad-backto-Ascensor" style="stroke:#181818;stroke-width:1;"/><polygon fill="#181818" points="150.82,136.15,146.7328,142.0909,150.6447,148.1487,154.7319,142.2078,150.82,136.15" style="stroke:#181818;stroke-width:1;"/><text fill="#000000" font-family="sans-serif" font-size="13" lengthAdjust="spacing" textLength="38.9746" x="150" y="230.5669">posee</text></g><!--reverse link Persona to Ascensor--><g id="link_Persona_Ascensor"><path codeLine="17" d="M52.0552,249.3738 C60.2352,262.0538 67.68,271.83 83,286 C95.72,297.77 112.13,308.34 125.27,315.94 " fill="transparent" id="Persona-backto-Ascensor" style="stroke:#181818;stroke-width:1;"/><polygon fill="transparent" points="45.55,239.29,45.4413,246.5003,52.0552,249.3738,52.1638,242.1635,45.55,239.29" style="stroke:#181818;stroke-width:1;"/><text fill="#000000" font-family="sans-serif" font-size="13" lengthAdjust="spacing" textLength="38.9619" x="84" y="282.0669">utiliza</text></g><!--link Ascensor to Planta--><g id="link_Ascensor_Planta"><path codeLine="18" d="M148,342.38 C148,361.87 148,399.47 148,418.83 " fill="transparent" id="Ascensor-Planta" style="stroke:#181818;stroke-width:1;"/><text fill="#000000" font-family="sans-serif" font-size="13" lengthAdjust="spacing" textLength="62.9688" x="149" y="385.0669">comunica</text></g><!--reverse link Persona to Planta--><g id="link_Persona_Planta"><path codeLine="19" d="M33.9847,251.0619 C30.6347,272.9519 28.15,307.94 45,342 C62.4,377.16 100.54,404.14 125.21,418.77 " fill="transparent" id="Persona-backto-Planta" style="stroke:#181818;stroke-width:1;"/><polygon fill="transparent" points="35.8,239.2,30.9384,244.5258,33.9847,251.0619,38.8463,245.7361,35.8,239.2" style="stroke:#181818;stroke-width:1;"/><text fill="#000000" font-family="sans-serif" font-size="13" lengthAdjust="spacing" textLength="48.2041" x="46" y="333.5669">está en</text></g><!--SRC=[POxD3S8m38NldY9df2x0ZG6Gk320IQpMKc9NIOe4Y66OXSL8AneQSOlVztuoi2DZELfFCCnl2cE-cK3XGZ41M8yfcUCaJX_FxtKMlXR83btLJaLGmNeVaYL96dy6Zv9d3akPsNNT6Z9xqvDGn0tQR1Hi8o70LblYI-MCLJANXiQXpG1QxUclOVrbCOoQY03MXBPqokpvZb2bTZvCmXQRSAMKyljbI3u0]--></g></svg>