<svg xmlns="http://www.w3.org/2000/svg" xmlns:xlink="http://www.w3.org/1999/xlink" contentStyleType="text/css" data-diagram-type="CLASS" height="566px" preserveAspectRatio="none" style="width:229px;height:566px;background:#FFFFFF;" version="1.1" viewBox="0 0 229 566" width="229px" zoomAndPan="magnify"><defs/><g><!--class Mundo--><g id="elem_Mundo"><rect codeLine="6" fill="#F1F1F1" height="26.2969" id="Mundo" rx="2.5" ry="2.5" style="stroke:#181818;stroke-width:0.5;" width="53.2773" x="31.5" y="7"/><text fill="#000000" font-family="sans-serif" font-size="14" lengthAdjust="spacing" textLength="47.2773" x="34.5" y="24.9951">Mundo</text></g><!--class Universidad--><g id="elem_Universidad"><rect codeLine="7" fill="#F1F1F1" height="26.2969" id="Universidad" rx="2.5" ry="2.5" style="stroke:#181818;stroke-width:0.5;" width="89.2002" x="84.5" y="93"/><text fill="#000000" font-family="sans-serif" font-size="14" lengthAdjust="spacing" textLength="83.2002" x="87.5" y="110.9951">Universidad</text></g><!--class Persona--><g id="elem_Persona"><rect codeLine="8" fill="#F1F1F1" height="26.2969" id="Persona" rx="2.5" ry="2.5" style="stroke:#181818;stroke-width:0.5;" width="62.123" x="7" y="240"/><text fill="#000000" font-family="sans-serif" font-size="14" lengthAdjust="spacing" textLength="56.123" x="10" y="257.9951">Persona</text></g><!--class Ascensor--><g id="elem_Ascensor"><rect codeLine="9" fill="#F1F1F1" height="26.2969" id="Ascensor" rx="2.5" ry="2.5" style="stroke:#181818;stroke-width:0.5;" width="69.6699" x="80" y="448"/><text fill="#000000" font-family="sans-serif" font-size="14" lengthAdjust="spacing" textLength="63.6699" x="83" y="465.9951">Ascensor</text></g><!--class Planta--><g id="elem_Planta"><rect codeLine="10" fill="#F1F1F1" height="26.2969" id="Planta" rx="2.5" ry="2.5" style="stroke:#181818;stroke-width:0.5;" width="49.8525" x="90" y="534"/><text fill="#000000" font-family="sans-serif" font-size="14" lengthAdjust="spacing" textLength="43.8525" x="93" y="551.9951">Planta</text></g><!--link Mundo to Persona--><g id="link_Mundo_Persona"><path codeLine="12" d="M56.95,33.09 C53.5,72.92 42.53,199.69 39.06,239.75 " fill="transparent" id="Mundo-Persona" style="stroke:#181818;stroke-width:1;"/><text fill="#000000" font-family="sans-serif" font-size="13" lengthAdjust="spacing" textLength="8.271" x="46.8656" y="53.6164">1</text><text fill="#000000" font-family="sans-serif" font-size="13" lengthAdjust="spacing" textLength="23.0356" x="12.0631" y="228.8747">0..*</text></g><!--link Mundo to Universidad--><g id="link_Mundo_Universidad"><path codeLine="13" d="M68.17,33.04 C81.67,49 105.36,77.03 118.85,92.99 " fill="transparent" id="Mundo-Universidad" style="stroke:#181818;stroke-width:1;"/><text fill="#000000" font-family="sans-serif" font-size="13" lengthAdjust="spacing" textLength="8.271" x="62.7138" y="53.5458">1</text><text fill="#000000" font-family="sans-serif" font-size="13" lengthAdjust="spacing" textLength="8.271" x="105.2924" y="81.9488">1</text></g><!--link Universidad to Planta--><g id="link_Universidad_Planta"><path codeLine="15" d="M143.94,119.25 C170.23,142.28 222,194.88 222,252 C222,252 222,252 222,388 C222,452.27 160.55,509.87 130.79,534 " fill="transparent" id="Universidad-Planta" style="stroke:#181818;stroke-width:1;"/><text fill="#000000" font-family="sans-serif" font-size="13" lengthAdjust="spacing" textLength="8.271" x="140.2616" y="139.4549">1</text><text fill="#000000" font-family="sans-serif" font-size="13" lengthAdjust="spacing" textLength="23.0356" x="141.5715" y="522.9627">1..*</text></g><!--link Universidad to Persona--><g id="link_Universidad_Persona"><path codeLine="16" d="M121.24,119.36 C104.05,146.76 62.91,212.3 45.74,239.67 " fill="transparent" id="Universidad-Persona" style="stroke:#181818;stroke-width:1;"/><text fill="#000000" font-family="sans-serif" font-size="13" lengthAdjust="spacing" textLength="8.271" x="108.77" y="139.3485">1</text><text fill="#000000" font-family="sans-serif" font-size="13" lengthAdjust="spacing" textLength="23.0356" x="52.8186" y="229.0256">0..*</text></g><!--link Universidad to Ascensor--><g id="link_Universidad_Ascensor"><path codeLine="17" d="M132.15,119.32 C138.24,144.21 151,202.35 151,252 C151,252 151,252 151,327 C151,372.93 130.75,424.78 120.62,447.83 " fill="transparent" id="Universidad-Ascensor" style="stroke:#181818;stroke-width:1;"/><text fill="#000000" font-family="sans-serif" font-size="13" lengthAdjust="spacing" textLength="8.271" x="123.8394" y="139.2932">1</text><text fill="#000000" font-family="sans-serif" font-size="13" lengthAdjust="spacing" textLength="23.0356" x="127.2167" y="436.9852">1..*</text></g><!--link Persona to Ascensor--><g id="link_Persona_Ascensor"><path codeLine="19" d="M42.59,266.27 C56.28,302.91 96.77,411.24 110.44,447.79 " fill="transparent" id="Persona-Ascensor" style="stroke:#181818;stroke-width:1;"/><text fill="#000000" font-family="sans-serif" font-size="13" lengthAdjust="spacing" textLength="23.0356" x="48.9082" y="286.4828">0..*</text><text fill="#000000" font-family="sans-serif" font-size="13" lengthAdjust="spacing" textLength="24.8066" x="80.3432" y="436.9299">0..1</text></g><!--link Ascensor to Planta--><g id="link_Ascensor_Planta"><path codeLine="20" d="M115,474.04 C115,490 115,518.03 115,533.99 " fill="transparent" id="Ascensor-Planta" style="stroke:#181818;stroke-width:1;"/><text fill="#000000" font-family="sans-serif" font-size="13" lengthAdjust="spacing" textLength="8.271" x="105.474" y="494.5458">1</text><text fill="#000000" font-family="sans-serif" font-size="13" lengthAdjust="spacing" textLength="23.0356" x="87.5079" y="522.9488">2..*</text></g><!--link Persona to Planta--><g id="link_Persona_Planta"><path codeLine="22" d="M37.15,266.45 C35.27,300.84 32.98,399.54 62,474 C71.24,497.72 90.39,520.6 102.97,533.98 " fill="transparent" id="Persona-Planta" style="stroke:#181818;stroke-width:1;"/><text fill="#000000" font-family="sans-serif" font-size="13" lengthAdjust="spacing" textLength="23.0356" x="9.4249" y="286.4728">0..*</text><text fill="#000000" font-family="sans-serif" font-size="13" lengthAdjust="spacing" textLength="8.271" x="88.7406" y="522.9348">1</text></g><!--SRC=[RKvT2i8m37xFAKeVXGth3Jo0u8i7g6rWXVx8EWKPtjrsDbtLvINvylqaWz78b1cLHHZoZEusFPb3TyKnGYfbPOpiTFSwpA-2Bjuy4csqr7LtJelWPSN7gD37CAu2A_sKULZ261USTHtZ-xxVSRB_SAarjm0Qi6e-_YLzK_1zu5-HYsBeQu2Y9ti94es4Xdheq7wo5I28VGC0]--></g></svg>