<svg xmlns="http://www.w3.org/2000/svg" xmlns:xlink="http://www.w3.org/1999/xlink" contentStyleType="text/css" height="479px" preserveAspectRatio="none" style="width:442px;height:479px;background:#FFFFFF;" version="1.1" viewBox="0 0 442 479" width="442px" zoomAndPan="magnify"><defs/><g><!--class Mundo--><g id="elem_Mundo"><rect codeLine="5" fill="#F1F1F1" height="28.6211" id="Mundo" rx="2.5" ry="2.5" style="stroke:#181818;stroke-width:0.5;" width="48.8066" x="323" y="12.54"/><text fill="#000000" font-family="sans-serif" font-size="14" lengthAdjust="spacing" textLength="42.8066" x="326" y="32.6474">Mundo</text></g><!--class Universidad--><g id="elem_Universidad"><rect codeLine="6" fill="#F1F1F1" height="28.6211" id="Universidad" rx="2.5" ry="2.5" style="stroke:#181818;stroke-width:0.5;" width="79.9238" x="256.5" y="120.54"/><text fill="#000000" font-family="sans-serif" font-size="14" lengthAdjust="spacing" textLength="73.9238" x="259.5" y="140.6474">Universidad</text></g><!--class Persona--><g id="elem_Persona"><rect codeLine="7" fill="#F1F1F1" height="28.6211" id="Persona" rx="2.5" ry="2.5" style="stroke:#181818;stroke-width:0.5;" width="58.1445" x="254.5" y="228.54"/><text fill="#000000" font-family="sans-serif" font-size="14" lengthAdjust="spacing" textLength="52.1445" x="257.5" y="248.6474">Persona</text></g><!--class Ascensor--><g id="elem_Ascensor"><rect codeLine="8" fill="#F1F1F1" height="28.6211" id="Ascensor" rx="2.5" ry="2.5" style="stroke:#181818;stroke-width:0.5;" width="64.3584" x="136.5" y="336.54"/><text fill="#000000" font-family="sans-serif" font-size="14" lengthAdjust="spacing" textLength="58.3584" x="139.5" y="356.6474">Ascensor</text></g><!--class Planta--><g id="elem_Planta"><rect codeLine="9" fill="#F1F1F1" height="28.6211" id="Planta" rx="2.5" ry="2.5" style="stroke:#181818;stroke-width:0.5;" width="45.6963" x="250.5" y="444.54"/><text fill="#000000" font-family="sans-serif" font-size="14" lengthAdjust="spacing" textLength="39.6963" x="253.5" y="464.6474">Planta</text></g><!--class ControlAscensor--><g id="elem_ControlAscensor"><rect codeLine="10" fill="#F1F1F1" height="28.6211" id="ControlAscensor" rx="2.5" ry="2.5" style="stroke:#181818;stroke-width:0.5;" width="109.4893" x="7" y="120.54"/><text fill="#000000" font-family="sans-serif" font-size="14" lengthAdjust="spacing" textLength="103.4893" x="10" y="140.6474">ControlAscensor</text></g><!--class Llamada--><g id="elem_Llamada"><rect codeLine="11" fill="#F1F1F1" height="28.6211" id="Llamada" rx="2.5" ry="2.5" style="stroke:#181818;stroke-width:0.5;" width="59.7031" x="31.5" y="228.54"/><text fill="#000000" font-family="sans-serif" font-size="14" lengthAdjust="spacing" textLength="53.7031" x="34.5" y="248.6474">Llamada</text></g><!--reverse link Mundo to Persona--><g id="link_Mundo_Persona"><path codeLine="13" d="M358.0367,52.9817 C361.3967,61.3817 360.78,61.3 362.5,71.54 C372.02,128.36 369.45,151.27 336.5,198.54 C328.26,210.36 315.97,220.72 305.3,228.37 " fill="none" id="Mundo-backto-Persona" style="stroke:#181818;stroke-width:1.0;"/><polygon fill="#181818" points="353.58,41.84,352.0944,48.8964,358.0367,52.9817,359.5223,45.9253,353.58,41.84" style="stroke:#181818;stroke-width:1.0;"/><text fill="#000000" font-family="sans-serif" font-size="13" lengthAdjust="spacing" textLength="40.479" x="368.5" y="140.5683">genera</text></g><!--reverse link Mundo to Universidad--><g id="link_Mundo_Universidad"><path codeLine="14" d="M335.625,52.7124 C325.795,73.1324 312.74,100.28 303.01,120.51 " fill="none" id="Mundo-backto-Universidad" style="stroke:#181818;stroke-width:1.0;"/><polygon fill="#181818" points="340.83,41.9,334.6234,45.5712,335.625,52.7124,341.8316,49.0412,340.83,41.9" style="stroke:#181818;stroke-width:1.0;"/><text fill="#000000" font-family="sans-serif" font-size="13" lengthAdjust="spacing" textLength="25.2891" x="328.5" y="86.5683">crea</text></g><!--reverse link Universidad to Planta--><g id="link_Universidad_Planta"><path codeLine="16" d="M323.0483,157.8031 C331.5383,165.5231 331.95,167.88 336.5,179.54 C349.14,211.96 435.73,6 331.5,365.54 C322.48,396.67 299.63,427.48 285.45,444.52 " fill="none" id="Universidad-backto-Planta" style="stroke:#181818;stroke-width:1.0;"/><polygon fill="#181818" points="314.17,149.73,315.9181,156.726,323.0483,157.8031,321.3002,150.8071,314.17,149.73" style="stroke:#181818;stroke-width:1.0;"/><text fill="#000000" font-family="sans-serif" font-size="13" lengthAdjust="spacing" textLength="49.1499" x="353.5" y="302.5683">contiene</text></g><!--reverse link Universidad to Persona--><g id="link_Universidad_Persona"><path codeLine="17" d="M293.3417,161.8111 C290.8417,182.2311 287.64,208.28 285.16,228.51 " fill="none" id="Universidad-backto-Persona" style="stroke:#181818;stroke-width:1.0;"/><polygon fill="none" points="294.8,149.9,290.1005,155.3694,293.3417,161.8111,298.0412,156.3416,294.8,149.9" style="stroke:#181818;stroke-width:1.0;"/><text fill="#000000" font-family="sans-serif" font-size="13" lengthAdjust="spacing" textLength="35.4199" x="292.5" y="194.5683">acoge</text></g><!--reverse link Universidad to Ascensor--><g id="link_Universidad_Ascensor"><path codeLine="18" d="M266.9131,156.7327 C244.7431,172.9427 219.13,195 199.5,228.54 C178.83,263.86 171.8,312.83 169.52,336.35 " fill="none" id="Universidad-backto-Ascensor" style="stroke:#181818;stroke-width:1.0;"/><polygon fill="#181818" points="276.6,149.65,269.3957,149.9624,266.9131,156.7327,274.1175,156.4203,276.6,149.65" style="stroke:#181818;stroke-width:1.0;"/><text fill="#000000" font-family="sans-serif" font-size="13" lengthAdjust="spacing" textLength="35.4199" x="200.5" y="248.5683">posee</text></g><!--reverse link Persona to Ascensor--><g id="link_Persona_Ascensor"><path codeLine="20" d="M247.844,263.7866 C234.654,271.5666 229.03,275.96 216.5,287.54 C200.42,302.39 185.69,323.1 176.9,336.53 " fill="none" id="Persona-backto-Ascensor" style="stroke:#181818;stroke-width:1.0;"/><polygon fill="none" points="258.18,257.69,250.9798,257.293,247.844,263.7866,255.0442,264.1836,258.18,257.69" style="stroke:#181818;stroke-width:1.0;"/><text fill="#000000" font-family="sans-serif" font-size="13" lengthAdjust="spacing" textLength="33.2363" x="217.5" y="302.5683">utiliza</text></g><!--link Ascensor to Planta--><g id="link_Ascensor_Planta"><path codeLine="21" d="M170.33,365.69 C172.8,379.42 178.38,400.53 190.5,414.54 C206.36,432.87 231.88,444.6 250.43,451.2 " fill="none" id="Ascensor-Planta" style="stroke:#181818;stroke-width:1.0;"/><text fill="#000000" font-family="sans-serif" font-size="13" lengthAdjust="spacing" textLength="55.6372" x="191.5" y="410.5683">comunica</text></g><!--reverse link Persona to Planta--><g id="link_Persona_Planta"><path codeLine="22" d="M282.2986,269.7369 C280.4886,308.3869 275.94,405.93 274.14,444.44 " fill="none" id="Persona-backto-Planta" style="stroke:#181818;stroke-width:1.0;"/><polygon fill="none" points="282.86,257.75,278.5837,263.5563,282.2986,269.7369,286.5749,263.9305,282.86,257.75" style="stroke:#181818;stroke-width:1.0;"/><text fill="#000000" font-family="sans-serif" font-size="13" lengthAdjust="spacing" textLength="42.6436" x="280.5" y="356.5683">est&#225; en</text></g><!--reverse link ControlAscensor to Llamada--><g id="link_ControlAscensor_Llamada"><path codeLine="24" d="M61.5,161.9 C61.5,182.32 61.5,208.28 61.5,228.51 " fill="none" id="ControlAscensor-backto-Llamada" style="stroke:#181818;stroke-width:1.0;"/><polygon fill="none" points="61.5,149.9,57.5,155.9,61.5,161.9,65.5,155.9,61.5,149.9" style="stroke:#181818;stroke-width:1.0;"/><text fill="#000000" font-family="sans-serif" font-size="13" lengthAdjust="spacing" textLength="49.1499" x="62.5" y="194.5683">gestiona</text></g><!--reverse link Llamada to Ascensor--><g id="link_Llamada_Ascensor"><path codeLine="25" d="M71.3796,268.8468 C77.0896,282.4668 82.66,292.24 96.5,306.54 C108.38,318.82 124.44,328.96 138.38,336.35 " fill="none" id="Llamada-backto-Ascensor" style="stroke:#181818;stroke-width:1.0;"/><polygon fill="none" points="66.74,257.78,65.3709,264.8599,71.3796,268.8468,72.7487,261.7669,66.74,257.78" style="stroke:#181818;stroke-width:1.0;"/><text fill="#000000" font-family="sans-serif" font-size="13" lengthAdjust="spacing" textLength="37.5781" x="97.5" y="302.5683">invoca</text></g><!--SRC=[PP112W8n34NtEKNNWXTm9suLt7Y0s8Onq2RITWGL3-DPl9YTuenJtRN__PyVSc97ndAqdk0ql2cSyzK42aUA2S1wJCdiUd5wVtn-1-5BWUpGJTg-22eu_TV9aYIDNuD7oL- -KSbH_Pzjwp6W6tnGIyrYkHo7cvNfI2ZY3CrsATX6Ge2vLkErUi2bbCk4ng5D0Lhjw6_2k6Ond3KH0Om9RMcVsVCDOPBQ-j0BMsp24wMKNqz30l1pcshxtAMU86KkQHYbdnLOBbewtW00]--></g></svg>