<svg xmlns="http://www.w3.org/2000/svg" xmlns:xlink="http://www.w3.org/1999/xlink" contentStyleType="text/css" data-diagram-type="CLASS" height="312px" preserveAspectRatio="none" style="width:368px;height:312px;background:#FFFFFF;" version="1.1" viewBox="0 0 368 312" width="368px" zoomAndPan="magnify"><defs/><g><!--class Jornada--><g class="entity" data-entity="Jornada" data-source-line="1" data-uid="ent0002" id="entity_Jornada"><rect fill="#F1F1F1" height="48" rx="2.5" ry="2.5" style="stroke:#181818;stroke-width:0.5;" width="85.3682" x="80.79" y="7"/><ellipse cx="95.79" cy="23" fill="#ADD1B2" rx="11" ry="11" style="stroke:#181818;stroke-width:1;"/><path d="M98.7588,28.6406 Q98.1806,28.9375 97.54,29.0781 Q96.8994,29.2344 96.1963,29.2344 Q93.6963,29.2344 92.3681,27.5938 Q91.0556,25.9375 91.0556,22.8125 Q91.0556,19.6875 92.3681,18.0313 Q93.6963,16.375 96.1963,16.375 Q96.8994,16.375 97.54,16.5313 Q98.1963,16.6875 98.7588,16.9844 L98.7588,19.7031 Q98.1338,19.125 97.54,18.8594 Q96.9463,18.5781 96.3213,18.5781 Q94.9775,18.5781 94.29,19.6563 Q93.6025,20.7188 93.6025,22.8125 Q93.6025,24.9063 94.29,25.9844 Q94.9775,27.0469 96.3213,27.0469 Q96.9463,27.0469 97.54,26.7813 Q98.1338,26.5 98.7588,25.9219 L98.7588,28.6406 Z " fill="#000000"/><text fill="#000000" font-family="sans-serif" font-size="14" lengthAdjust="spacing" textLength="53.3682" x="109.79" y="27.8467">Jornada</text><line style="stroke:#181818;stroke-width:0.5;" x1="81.79" x2="165.1582" y1="39" y2="39"/><line style="stroke:#181818;stroke-width:0.5;" x1="81.79" x2="165.1582" y1="47" y2="47"/></g><!--class Caja--><g class="entity" data-entity="Caja" data-source-line="3" data-uid="ent0003" id="entity_Caja"><rect fill="#F1F1F1" height="48" rx="2.5" ry="2.5" style="stroke:#181818;stroke-width:0.5;" width="62.8232" x="38.79" y="132"/><ellipse cx="53.79" cy="148" fill="#ADD1B2" rx="11" ry="11" style="stroke:#181818;stroke-width:1;"/><path d="M56.7588,153.6406 Q56.1806,153.9375 55.54,154.0781 Q54.8994,154.2344 54.1963,154.2344 Q51.6963,154.2344 50.3681,152.5938 Q49.0556,150.9375 49.0556,147.8125 Q49.0556,144.6875 50.3681,143.0313 Q51.6963,141.375 54.1963,141.375 Q54.8994,141.375 55.54,141.5313 Q56.1963,141.6875 56.7588,141.9844 L56.7588,144.7031 Q56.1338,144.125 55.54,143.8594 Q54.9463,143.5781 54.3213,143.5781 Q52.9775,143.5781 52.29,144.6563 Q51.6025,145.7188 51.6025,147.8125 Q51.6025,149.9063 52.29,150.9844 Q52.9775,152.0469 54.3213,152.0469 Q54.9463,152.0469 55.54,151.7813 Q56.1338,151.5 56.7588,150.9219 L56.7588,153.6406 Z " fill="#000000"/><text fill="#000000" font-family="sans-serif" font-size="14" lengthAdjust="spacing" textLength="30.8232" x="67.79" y="152.8467">Caja</text><line style="stroke:#181818;stroke-width:0.5;" x1="39.79" x2="100.6132" y1="164" y2="164"/><line style="stroke:#181818;stroke-width:0.5;" x1="39.79" x2="100.6132" y1="172" y2="172"/></g><!--class Cola--><g class="entity" data-entity="Cola" data-source-line="5" data-uid="ent0004" id="entity_Cola"><rect fill="#F1F1F1" height="48" rx="2.5" ry="2.5" style="stroke:#181818;stroke-width:0.5;" width="62.8096" x="74.79" y="257"/><ellipse cx="89.79" cy="273" fill="#ADD1B2" rx="11" ry="11" style="stroke:#181818;stroke-width:1;"/><path d="M92.7588,278.6406 Q92.1806,278.9375 91.54,279.0781 Q90.8994,279.2344 90.1963,279.2344 Q87.6963,279.2344 86.3681,277.5938 Q85.0556,275.9375 85.0556,272.8125 Q85.0556,269.6875 86.3681,268.0313 Q87.6963,266.375 90.1963,266.375 Q90.8994,266.375 91.54,266.5313 Q92.1963,266.6875 92.7588,266.9844 L92.7588,269.7031 Q92.1338,269.125 91.54,268.8594 Q90.9463,268.5781 90.3213,268.5781 Q88.9775,268.5781 88.29,269.6563 Q87.6025,270.7188 87.6025,272.8125 Q87.6025,274.9063 88.29,275.9844 Q88.9775,277.0469 90.3213,277.0469 Q90.9463,277.0469 91.54,276.7813 Q92.1338,276.5 92.7588,275.9219 L92.7588,278.6406 Z " fill="#000000"/><text fill="#000000" font-family="sans-serif" font-size="14" lengthAdjust="spacing" textLength="30.8096" x="103.79" y="277.8467">Cola</text><line style="stroke:#181818;stroke-width:0.5;" x1="75.79" x2="136.5996" y1="289" y2="289"/><line style="stroke:#181818;stroke-width:0.5;" x1="75.79" x2="136.5996" y1="297" y2="297"/></g><!--class Cliente--><g class="entity" data-entity="Cliente" data-source-line="7" data-uid="ent0005" id="entity_Cliente"><rect fill="#F1F1F1" height="48" rx="2.5" ry="2.5" style="stroke:#181818;stroke-width:0.5;" width="81.1436" x="187.79" y="132"/><ellipse cx="202.79" cy="148" fill="#ADD1B2" rx="11" ry="11" style="stroke:#181818;stroke-width:1;"/><path d="M205.7588,153.6406 Q205.1806,153.9375 204.54,154.0781 Q203.8994,154.2344 203.1963,154.2344 Q200.6963,154.2344 199.3681,152.5938 Q198.0556,150.9375 198.0556,147.8125 Q198.0556,144.6875 199.3681,143.0313 Q200.6963,141.375 203.1963,141.375 Q203.8994,141.375 204.54,141.5313 Q205.1963,141.6875 205.7588,141.9844 L205.7588,144.7031 Q205.1338,144.125 204.54,143.8594 Q203.9463,143.5781 203.3213,143.5781 Q201.9775,143.5781 201.29,144.6563 Q200.6025,145.7188 200.6025,147.8125 Q200.6025,149.9063 201.29,150.9844 Q201.9775,152.0469 203.3213,152.0469 Q203.9463,152.0469 204.54,151.7813 Q205.1338,151.5 205.7588,150.9219 L205.7588,153.6406 Z " fill="#000000"/><text fill="#000000" font-family="sans-serif" font-size="14" lengthAdjust="spacing" textLength="49.1436" x="216.79" y="152.8467">Cliente</text><line style="stroke:#181818;stroke-width:0.5;" x1="188.79" x2="267.9336" y1="164" y2="164"/><line style="stroke:#181818;stroke-width:0.5;" x1="188.79" x2="267.9336" y1="172" y2="172"/></g><!--class Productos--><g class="entity" data-entity="Productos" data-source-line="9" data-uid="ent0006" id="entity_Productos"><rect fill="#F1F1F1" height="48" rx="2.5" ry="2.5" style="stroke:#181818;stroke-width:0.5;" width="101.5693" x="260.29" y="257"/><ellipse cx="275.29" cy="273" fill="#ADD1B2" rx="11" ry="11" style="stroke:#181818;stroke-width:1;"/><path d="M278.2588,278.6406 Q277.6806,278.9375 277.04,279.0781 Q276.3994,279.2344 275.6963,279.2344 Q273.1963,279.2344 271.8681,277.5938 Q270.5556,275.9375 270.5556,272.8125 Q270.5556,269.6875 271.8681,268.0313 Q273.1963,266.375 275.6963,266.375 Q276.3994,266.375 277.04,266.5313 Q277.6963,266.6875 278.2588,266.9844 L278.2588,269.7031 Q277.6338,269.125 277.04,268.8594 Q276.4463,268.5781 275.8213,268.5781 Q274.4775,268.5781 273.79,269.6563 Q273.1025,270.7188 273.1025,272.8125 Q273.1025,274.9063 273.79,275.9844 Q274.4775,277.0469 275.8213,277.0469 Q276.4463,277.0469 277.04,276.7813 Q277.6338,276.5 278.2588,275.9219 L278.2588,278.6406 Z " fill="#000000"/><text fill="#000000" font-family="sans-serif" font-size="14" lengthAdjust="spacing" textLength="69.5693" x="289.29" y="277.8467">Productos</text><line style="stroke:#181818;stroke-width:0.5;" x1="261.29" x2="360.8593" y1="289" y2="289"/><line style="stroke:#181818;stroke-width:0.5;" x1="261.29" x2="360.8593" y1="297" y2="297"/></g><!--link Jornada to Caja--><g class="link" data-entity-1="Jornada" data-entity-2="Caja" data-source-line="12" data-uid="lnk7" id="link_Jornada_Caja"><path codeLine="12" d="M108.82,55.23 C103.52,64.31 97.73,74.94 93.29,85 C86.56,100.21 82.4331,112.2668 78.3331,126.1168" fill="none" id="Jornada-to-Caja" style="stroke:#181818;stroke-width:1;"/><polygon fill="#181818" points="76.63,131.87,83.0201,124.3756,78.0493,127.0757,75.3492,122.1048,76.63,131.87" style="stroke:#181818;stroke-width:1;"/><text fill="#000000" font-family="sans-serif" font-size="13" lengthAdjust="spacing" textLength="30.4878" x="94.29" y="98.0669">Abre</text></g><!--link Jornada to Cliente--><g class="link" data-entity-1="Jornada" data-entity-2="Cliente" data-source-line="13" data-uid="lnk8" id="link_Jornada_Cliente"><path codeLine="13" d="M143.03,55.14 C161.81,77.13 185.9852,105.446 204.7252,127.406" fill="none" id="Jornada-to-Cliente" style="stroke:#181818;stroke-width:1;"/><polygon fill="#181818" points="208.62,131.97,205.8205,122.5274,205.3743,128.1666,199.7351,127.7205,208.62,131.97" style="stroke:#181818;stroke-width:1;"/><text fill="#000000" font-family="sans-serif" font-size="13" lengthAdjust="spacing" textLength="32.8999" x="183.29" y="98.0669">Sirve</text></g><!--reverse link Cliente to Productos--><g class="link" data-entity-1="Cliente" data-entity-2="Productos" data-source-line="14" data-uid="lnk9" id="link_Cliente_Productos"><path codeLine="14" d="M256.7471,189.1488 C264.4571,198.2088 265.26,199.74 272.29,210 C282.58,225.04 292.56,243.01 299.84,256.98" fill="none" id="Cliente-backto-Productos" style="stroke:#181818;stroke-width:1;"/><polygon fill="#181818" points="248.97,180.01,249.8123,187.1717,256.7471,189.1488,255.9048,181.987,248.97,180.01" style="stroke:#181818;stroke-width:1;"/><text fill="#000000" font-family="sans-serif" font-size="13" lengthAdjust="spacing" textLength="35.7881" x="283.29" y="223.0669">Tiene</text></g><!--link Cliente to Cola--><g class="link" data-entity-1="Cliente" data-entity-2="Cola" data-source-line="15" data-uid="lnk10" id="link_Cliente_Cola"><path codeLine="15" d="M218.86,180.29 C212.15,194.89 202.07,213.43 189.29,227 C174.75,242.43 165.3223,249.5448 148.6423,258.7648" fill="none" id="Cliente-to-Cola" style="stroke:#181818;stroke-width:1;"/><polygon fill="none" points="138.14,264.57,145.3263,265.1682,148.6423,258.7648,141.4561,258.1666,138.14,264.57" style="stroke:#181818;stroke-width:1;"/><text fill="#000000" font-family="sans-serif" font-size="13" lengthAdjust="spacing" textLength="41.4058" x="203.29" y="223.0669">Forma</text></g><!--link Caja to Cola--><g class="link" data-entity-1="Caja" data-entity-2="Cola" data-source-line="16" data-uid="lnk11" id="link_Caja_Cola"><path codeLine="16" d="M38.61,177.08 C21.58,190.53 6,209.01 16.29,227 C28.7,248.72 48.2999,260.2505 68.8699,268.2705" fill="none" id="Caja-to-Cola" style="stroke:#181818;stroke-width:1;stroke-dasharray:7.0,7.0;"/><polygon fill="#181818" points="74.46,270.45,67.5278,263.4539,69.8016,268.6337,64.6218,270.9075,74.46,270.45" style="stroke:#181818;stroke-width:1;"/><text fill="#000000" font-family="sans-serif" font-size="13" lengthAdjust="spacing" textLength="167.2734" x="17.29" y="223.0669">Gestiona dependiendo de</text></g><!--SRC=[LOv12W8n34NtFKNfKiWSmCM020gk1Br0RBEer4RIwaQykt76aNQN_nxvYKzOYZsmP0neN-Pj_4IsUEqYfowcIBbIGux2uU4hbucPfH1WdAlMrcqkGgutlngLfoXFjGjP0JILwi_A6m_0yq-gTYmtLFKzCmpZd- -frCWPRQ0xvQ2BWNLs7m00]--></g></svg>