<svg xmlns="http://www.w3.org/2000/svg" xmlns:xlink="http://www.w3.org/1999/xlink" contentStyleType="text/css" height="416px" preserveAspectRatio="none" style="width:759px;height:416px;background:#FFFFFF;" version="1.1" viewBox="0 0 759 416" width="759px" zoomAndPan="magnify"><defs/><g><rect fill="#DDDDDD" height="404.902" style="stroke:#181818;stroke-width:0.5;" width="155.4936" x="284" y="6"/><text fill="#000000" font-family="sans-serif" font-size="13" font-weight="bold" lengthAdjust="spacing" textLength="129.4281" x="297.0327" y="19.897">repo SDD@mmasias</text><rect fill="#DDDDDD" height="404.902" style="stroke:#181818;stroke-width:0.5;" width="198.4782" x="555.254" y="6"/><text fill="#000000" font-family="sans-serif" font-size="13" font-weight="bold" lengthAdjust="spacing" textLength="192.4782" x="558.254" y="19.897">repo SDD@CoordinadorGrupo</text><rect fill="#FFFFFF" height="293.0602" style="stroke:#181818;stroke-width:1.0;" width="10" x="306.6039" y="71.7739"/><rect fill="#FFFFFF" height="164.5301" style="stroke:#181818;stroke-width:1.0;" width="10" x="385.3507" y="200.304"/><rect fill="#FFFFFF" height="293.0602" style="stroke:#181818;stroke-width:1.0;" width="10" x="649.4931" y="71.7739"/><line style="stroke:#181818;stroke-width:0.5;stroke-dasharray:5.0,5.0;" x1="311" x2="311" y1="61.7739" y2="373.8341"/><line style="stroke:#181818;stroke-width:0.5;stroke-dasharray:5.0,5.0;" x1="390.2079" x2="390.2079" y1="61.7739" y2="373.8341"/><line style="stroke:#181818;stroke-width:0.5;stroke-dasharray:5.0,5.0;" x1="653.8383" x2="653.8383" y1="61.7739" y2="373.8341"/><rect fill="#E2E2F0" height="33.0679" rx="2.5" ry="2.5" style="stroke:#181818;stroke-width:0.5;" width="47.2079" x="288" y="27.706"/><text fill="#000000" font-family="sans-serif" font-size="14" lengthAdjust="spacing" textLength="33.2079" x="295" y="49.672">main</text><rect fill="#E2E2F0" height="33.0679" rx="2.5" ry="2.5" style="stroke:#181818;stroke-width:0.5;" width="47.2079" x="288" y="372.8341"/><text fill="#000000" font-family="sans-serif" font-size="14" lengthAdjust="spacing" textLength="33.2079" x="295" y="394.8">main</text><rect fill="#E2E2F0" height="33.0679" rx="2.5" ry="2.5" style="stroke:#181818;stroke-width:0.5;" width="90.2857" x="345.2079" y="27.706"/><text fill="#000000" font-family="sans-serif" font-size="14" lengthAdjust="spacing" textLength="76.2857" x="352.2079" y="49.672">ramaGrupo</text><rect fill="#E2E2F0" height="33.0679" rx="2.5" ry="2.5" style="stroke:#181818;stroke-width:0.5;" width="90.2857" x="345.2079" y="372.8341"/><text fill="#000000" font-family="sans-serif" font-size="14" lengthAdjust="spacing" textLength="76.2857" x="352.2079" y="394.8">ramaGrupo</text><rect fill="#E2E2F0" height="33.0679" rx="2.5" ry="2.5" style="stroke:#181818;stroke-width:0.5;" width="93.3097" x="607.8383" y="27.706"/><text fill="#000000" font-family="sans-serif" font-size="14" lengthAdjust="spacing" textLength="79.3097" x="614.8383" y="49.672">participante</text><rect fill="#E2E2F0" height="33.0679" rx="2.5" ry="2.5" style="stroke:#181818;stroke-width:0.5;" width="93.3097" x="607.8383" y="372.8341"/><text fill="#000000" font-family="sans-serif" font-size="14" lengthAdjust="spacing" textLength="79.3097" x="614.8383" y="394.8">participante</text><rect fill="#FFFFFF" height="293.0602" style="stroke:#181818;stroke-width:1.0;" width="10" x="306.6039" y="71.7739"/><rect fill="#FFFFFF" height="164.5301" style="stroke:#181818;stroke-width:1.0;" width="10" x="385.3507" y="200.304"/><rect fill="#FFFFFF" height="293.0602" style="stroke:#181818;stroke-width:1.0;" width="10" x="649.4931" y="71.7739"/><path d="M80,76.7739 L80,139.7739 L301,139.7739 L301,86.7739 L291,76.7739 L80,76.7739 " fill="#FEFFDD" style="stroke:#181818;stroke-width:0.5;"/><path d="M291,76.7739 L291,86.7739 L301,86.7739 L291,76.7739 " fill="#FEFFDD" style="stroke:#181818;stroke-width:0.5;"/><text fill="#000000" font-family="sans-serif" font-size="13" lengthAdjust="spacing" textLength="142.2721" x="86" y="95.6709">Cada grupo tendr&#225; una</text><text fill="#000000" font-family="sans-serif" font-size="13" lengthAdjust="spacing" textLength="157.7031" x="86" y="113.377">rama asignada dentro del</text><text fill="#000000" font-family="sans-serif" font-size="13" lengthAdjust="spacing" textLength="200.0182" x="86" y="131.083">repositorio principal de entregas</text><polygon fill="#181818" points="637.4931,164.598,647.4931,168.598,637.4931,172.598,641.4931,168.598" style="stroke:#181818;stroke-width:1.0;"/><line style="stroke:#181818;stroke-width:1.0;stroke-dasharray:2.0,2.0;" x1="390.3507" x2="643.4931" y1="168.598" y2="168.598"/><text fill="#000000" font-family="sans-serif" font-size="13" lengthAdjust="spacing" textLength="24.648" x="397.3507" y="162.789">fork</text><polygon fill="#181818" points="406.3507,196.304,396.3507,200.304,406.3507,204.304,402.3507,200.304" style="stroke:#181818;stroke-width:1.0;"/><line style="stroke:#181818;stroke-width:1.0;stroke-dasharray:2.0,2.0;" x1="400.3507" x2="648.4931" y1="200.304" y2="200.304"/><text fill="#000000" font-family="sans-serif" font-size="13" lengthAdjust="spacing" textLength="180.6871" x="412.3507" y="194.495">aportes / avances / revisiones</text><line style="stroke:#181818;stroke-width:1.0;" x1="395.3507" x2="437.3507" y1="232.01" y2="232.01"/><line style="stroke:#181818;stroke-width:1.0;" x1="437.3507" x2="437.3507" y1="232.01" y2="245.01"/><line style="stroke:#181818;stroke-width:1.0;" x1="396.3507" x2="437.3507" y1="245.01" y2="245.01"/><polygon fill="#181818" points="406.3507,241.01,396.3507,245.01,406.3507,249.01,402.3507,245.01" style="stroke:#181818;stroke-width:1.0;"/><text fill="#000000" font-family="sans-serif" font-size="13" lengthAdjust="spacing" textLength="181.5582" x="402.3507" y="226.201">propuesta de revisi&#243;n / ajuste</text><path d="M198,258.01 L198,303.01 L502,303.01 L502,268.01 L492,258.01 L198,258.01 " fill="#FEFFDD" style="stroke:#181818;stroke-width:0.5;"/><path d="M492,258.01 L492,268.01 L502,268.01 L492,258.01 " fill="#FEFFDD" style="stroke:#181818;stroke-width:0.5;"/><text fill="#000000" font-family="sans-serif" font-size="13" lengthAdjust="spacing" textLength="198.7832" x="204" y="276.907">Durante el cuatrimestre, la rama</text><text fill="#000000" font-family="sans-serif" font-size="13" lengthAdjust="spacing" textLength="279.7473" x="207.38" y="294.6131">del grupo se va actualizando con sus avances.</text><path d="M5,313.4221 L5,358.4221 L301,358.4221 L301,323.4221 L291,313.4221 L5,313.4221 " fill="#FEFFDD" style="stroke:#181818;stroke-width:0.5;"/><path d="M291,313.4221 L291,323.4221 L301,323.4221 L291,313.4221 " fill="#FEFFDD" style="stroke:#181818;stroke-width:0.5;"/><text fill="#000000" font-family="sans-serif" font-size="13" lengthAdjust="spacing" textLength="194.5712" x="11" y="332.3191">Al final del cuatrimestre, el repo</text><text fill="#000000" font-family="sans-serif" font-size="13" lengthAdjust="spacing" textLength="275.6652" x="11" y="350.0251">contiene las ramas de todos los participantes</text><!--SRC=[PL91KiCm3Bpx5PfUk1Iuzy3GeGmFuCf5ITGYS2oFx6GOViCRU48_XkoMD85SOalohdQbHZvWfHG5ddUx-xx7n9XMuC2-Y9gvvOWXmwf73Yl01ELGqzXc7Z7J9HB4RfxskOOsy80Tma47GyyKEZr-mH0GNe9YZuR5Xr0gEWfPnNxUCjPAuYpA0b4v57flAIWrTC3qlxC2zbH8QdlJpHaZDFBXNBFG-22Y7HknwFbLXRmwTQzyUCqW-pa5RU3HBmBGAc7Lqg96ohWsKHSTuAT4kMN51j-abBGIW3piHNlCOfHzexIDv3rtyb_QdBEgcmUMGrXa9kbkiWEkh-_-YB8ktjr2LgcPNcm0esYc1BU08uQsdfH6JYo1afkuBvxFw1P8KIKEb4v-d22Etw40lmt96dRLV1b9w-givsztWzRcpBTsmApS6v3IkhXS5wbQxy-BbWX6BBOCwFaJGoVLz3IaNn4tPxRPecvj9BOIlk8iIInGLkSb64fc2cMuforBTRRIIG8loz4azmC0]--></g></svg>