<svg xmlns="http://www.w3.org/2000/svg" xmlns:xlink="http://www.w3.org/1999/xlink" contentStyleType="text/css" data-diagram-type="CLASS" height="503px" preserveAspectRatio="none" style="width:886px;height:503px;background:#FFFFFF;" version="1.1" viewBox="0 0 886 503" width="886px" zoomAndPan="magnify"><defs/><g><!--cluster JuegoVampiro2--><g class="cluster" data-entity="JuegoVampiro2" data-source-line="2" data-uid="ent0004" id="cluster_JuegoVampiro2"><path d="M8.5,6 L129.7646,6 A3.75,3.75 0 0 1 132.2646,8.5 L139.2646,28.2969 L876.5,28.2969 A2.5,2.5 0 0 1 879,30.7969 L879,493.5 A2.5,2.5 0 0 1 876.5,496 L8.5,496 A2.5,2.5 0 0 1 6,493.5 L6,8.5 A2.5,2.5 0 0 1 8.5,6" fill="none" style="stroke:#000000;stroke-width:1.5;"/><line style="stroke:#000000;stroke-width:1.5;" x1="6" x2="139.2646" y1="28.2969" y2="28.2969"/><text fill="#000000" font-family="sans-serif" font-size="14" font-weight="bold" lengthAdjust="spacing" textLength="120.2646" x="10" y="20.9951">JuegoVampiro2</text></g><!--cluster auth--><g class="cluster" data-entity="auth" data-source-line="1" data-uid="ent0002" id="cluster_auth"><path d="M672.5,157 L709.5732,157 A3.75,3.75 0 0 1 712.0732,159.5 L719.0732,179.2969 L839.5,179.2969 A2.5,2.5 0 0 1 842,181.7969 L842,253.5 A2.5,2.5 0 0 1 839.5,256 L672.5,256 A2.5,2.5 0 0 1 670,253.5 L670,159.5 A2.5,2.5 0 0 1 672.5,157" fill="none" style="stroke:#000000;stroke-width:1.5;"/><line style="stroke:#000000;stroke-width:1.5;" x1="670" x2="719.0732" y1="179.2969" y2="179.2969"/><text fill="#000000" font-family="sans-serif" font-size="14" font-weight="bold" lengthAdjust="spacing" textLength="36.0732" x="674" y="171.9951">auth</text></g><!--cluster core--><g class="cluster" data-entity="core" data-source-line="5" data-uid="ent0005" id="cluster_core"><path d="M32.5,49 L67.8164,49 A3.75,3.75 0 0 1 70.3164,51.5 L77.3164,71.2969 L395.5,71.2969 A2.5,2.5 0 0 1 398,73.7969 L398,469.5 A2.5,2.5 0 0 1 395.5,472 L32.5,472 A2.5,2.5 0 0 1 30,469.5 L30,51.5 A2.5,2.5 0 0 1 32.5,49" fill="none" style="stroke:#000000;stroke-width:1.5;"/><line style="stroke:#000000;stroke-width:1.5;" x1="30" x2="77.3164" y1="71.2969" y2="71.2969"/><text fill="#000000" font-family="sans-serif" font-size="14" font-weight="bold" lengthAdjust="spacing" textLength="34.3164" x="34" y="63.9951">core</text></g><!--cluster ui--><g class="cluster" data-entity="ui" data-source-line="17" data-uid="ent0015" id="cluster_ui"><path d="M440.5,157 L456.2656,157 A3.75,3.75 0 0 1 458.7656,159.5 L465.7656,179.2969 L643.5,179.2969 A2.5,2.5 0 0 1 646,181.7969 L646,361.5 A2.5,2.5 0 0 1 643.5,364 L440.5,364 A2.5,2.5 0 0 1 438,361.5 L438,159.5 A2.5,2.5 0 0 1 440.5,157" fill="none" style="stroke:#000000;stroke-width:1.5;"/><line style="stroke:#000000;stroke-width:1.5;" x1="438" x2="465.7656" y1="179.2969" y2="179.2969"/><text fill="#000000" font-family="sans-serif" font-size="14" font-weight="bold" lengthAdjust="spacing" textLength="14.7656" x="442" y="171.9951">ui</text></g><!--class GestorUsuarios--><g class="entity" data-entity="GestorUsuarios" data-source-line="2" data-uid="ent0003" id="entity_GestorUsuarios"><rect fill="#F1F1F1" height="48" rx="2.5" ry="2.5" style="stroke:#181818;stroke-width:0.5;" width="139.0645" x="686.47" y="192"/><ellipse cx="701.47" cy="208" fill="#ADD1B2" rx="11" ry="11" style="stroke:#181818;stroke-width:1;"/><path d="M704.4388,213.6406 Q703.8606,213.9375 703.22,214.0781 Q702.5794,214.2344 701.8763,214.2344 Q699.3763,214.2344 698.0481,212.5938 Q696.7356,210.9375 696.7356,207.8125 Q696.7356,204.6875 698.0481,203.0313 Q699.3763,201.375 701.8763,201.375 Q702.5794,201.375 703.22,201.5313 Q703.8763,201.6875 704.4388,201.9844 L704.4388,204.7031 Q703.8138,204.125 703.22,203.8594 Q702.6263,203.5781 702.0013,203.5781 Q700.6575,203.5781 699.97,204.6563 Q699.2825,205.7188 699.2825,207.8125 Q699.2825,209.9063 699.97,210.9844 Q700.6575,212.0469 702.0013,212.0469 Q702.6263,212.0469 703.22,211.7813 Q703.8138,211.5 704.4388,210.9219 L704.4388,213.6406 Z " fill="#000000"/><text fill="#000000" font-family="sans-serif" font-size="14" lengthAdjust="spacing" textLength="107.0645" x="715.47" y="212.8467">GestorUsuarios</text><line style="stroke:#181818;stroke-width:0.5;" x1="687.47" x2="824.5345" y1="224" y2="224"/><line style="stroke:#181818;stroke-width:0.5;" x1="687.47" x2="824.5345" y1="232" y2="232"/></g><!--class Personaje--><g class="entity" data-entity="Personaje" data-source-line="6" data-uid="ent0006" id="entity_Personaje"><rect fill="#F1F1F1" height="48" rx="2.5" ry="2.5" style="stroke:#181818;stroke-width:0.5;" width="100.626" x="96.69" y="192"/><ellipse cx="111.69" cy="208" fill="#A9DCDF" rx="11" ry="11" style="stroke:#181818;stroke-width:1;"/><path d="M111.7994,203.3438 L110.6431,208.4219 L112.9713,208.4219 L111.7994,203.3438 Z M110.315,201.1094 L113.2994,201.1094 L116.6588,213.5 L114.2056,213.5 L113.44,210.4375 L110.1588,210.4375 L109.4088,213.5 L106.9713,213.5 L110.315,201.1094 Z " fill="#000000"/><text fill="#000000" font-family="sans-serif" font-size="14" font-style="italic" lengthAdjust="spacing" textLength="68.626" x="125.69" y="212.8467">Personaje</text><line style="stroke:#181818;stroke-width:0.5;" x1="97.69" x2="196.316" y1="224" y2="224"/><line style="stroke:#181818;stroke-width:0.5;" x1="97.69" x2="196.316" y1="232" y2="232"/></g><!--class Ataque--><g class="entity" data-entity="Ataque" data-source-line="7" data-uid="ent0007" id="entity_Ataque"><rect fill="#F1F1F1" height="48" rx="2.5" ry="2.5" style="stroke:#181818;stroke-width:0.5;" width="82.0186" x="170.99" y="300"/><ellipse cx="185.99" cy="316" fill="#A9DCDF" rx="11" ry="11" style="stroke:#181818;stroke-width:1;"/><path d="M186.0994,311.3438 L184.9431,316.4219 L187.2713,316.4219 L186.0994,311.3438 Z M184.615,309.1094 L187.5994,309.1094 L190.9588,321.5 L188.5056,321.5 L187.74,318.4375 L184.4588,318.4375 L183.7088,321.5 L181.2713,321.5 L184.615,309.1094 Z " fill="#000000"/><text fill="#000000" font-family="sans-serif" font-size="14" font-style="italic" lengthAdjust="spacing" textLength="50.0186" x="199.99" y="320.8467">Ataque</text><line style="stroke:#181818;stroke-width:0.5;" x1="171.99" x2="252.0086" y1="332" y2="332"/><line style="stroke:#181818;stroke-width:0.5;" x1="171.99" x2="252.0086" y1="340" y2="340"/></g><!--class Arma--><g class="entity" data-entity="Arma" data-source-line="8" data-uid="ent0008" id="entity_Arma"><rect fill="#F1F1F1" height="48" rx="2.5" ry="2.5" style="stroke:#181818;stroke-width:0.5;" width="69.5498" x="195.23" y="408"/><ellipse cx="210.23" cy="424" fill="#ADD1B2" rx="11" ry="11" style="stroke:#181818;stroke-width:1;"/><path d="M213.1988,429.6406 Q212.6206,429.9375 211.98,430.0781 Q211.3394,430.2344 210.6363,430.2344 Q208.1363,430.2344 206.8081,428.5938 Q205.4956,426.9375 205.4956,423.8125 Q205.4956,420.6875 206.8081,419.0313 Q208.1363,417.375 210.6363,417.375 Q211.3394,417.375 211.98,417.5313 Q212.6363,417.6875 213.1988,417.9844 L213.1988,420.7031 Q212.5738,420.125 211.98,419.8594 Q211.3863,419.5781 210.7613,419.5781 Q209.4175,419.5781 208.73,420.6563 Q208.0425,421.7188 208.0425,423.8125 Q208.0425,425.9063 208.73,426.9844 Q209.4175,428.0469 210.7613,428.0469 Q211.3863,428.0469 211.98,427.7813 Q212.5738,427.5 213.1988,426.9219 L213.1988,429.6406 Z " fill="#000000"/><text fill="#000000" font-family="sans-serif" font-size="14" lengthAdjust="spacing" textLength="37.5498" x="224.23" y="428.8467">Arma</text><line style="stroke:#181818;stroke-width:0.5;" x1="196.23" x2="263.7798" y1="440" y2="440"/><line style="stroke:#181818;stroke-width:0.5;" x1="196.23" x2="263.7798" y1="448" y2="448"/></g><!--class Mordida--><g class="entity" data-entity="Mordida" data-source-line="9" data-uid="ent0009" id="entity_Mordida"><rect fill="#F1F1F1" height="48" rx="2.5" ry="2.5" style="stroke:#181818;stroke-width:0.5;" width="88.6426" x="56.68" y="408"/><ellipse cx="71.68" cy="424" fill="#ADD1B2" rx="11" ry="11" style="stroke:#181818;stroke-width:1;"/><path d="M74.6488,429.6406 Q74.0706,429.9375 73.43,430.0781 Q72.7894,430.2344 72.0863,430.2344 Q69.5863,430.2344 68.2581,428.5938 Q66.9456,426.9375 66.9456,423.8125 Q66.9456,420.6875 68.2581,419.0313 Q69.5863,417.375 72.0863,417.375 Q72.7894,417.375 73.43,417.5313 Q74.0863,417.6875 74.6488,417.9844 L74.6488,420.7031 Q74.0238,420.125 73.43,419.8594 Q72.8363,419.5781 72.2113,419.5781 Q70.8675,419.5781 70.18,420.6563 Q69.4925,421.7188 69.4925,423.8125 Q69.4925,425.9063 70.18,426.9844 Q70.8675,428.0469 72.2113,428.0469 Q72.8363,428.0469 73.43,427.7813 Q74.0238,427.5 74.6488,426.9219 L74.6488,429.6406 Z " fill="#000000"/><text fill="#000000" font-family="sans-serif" font-size="14" lengthAdjust="spacing" textLength="56.6426" x="85.68" y="428.8467">Mordida</text><line style="stroke:#181818;stroke-width:0.5;" x1="57.68" x2="144.3226" y1="440" y2="440"/><line style="stroke:#181818;stroke-width:0.5;" x1="57.68" x2="144.3226" y1="448" y2="448"/></g><!--class Pocion--><g class="entity" data-entity="Pocion" data-source-line="10" data-uid="ent0010" id="entity_Pocion"><rect fill="#F1F1F1" height="48" rx="2.5" ry="2.5" style="stroke:#181818;stroke-width:0.5;" width="78.0332" x="299.98" y="408"/><ellipse cx="314.98" cy="424" fill="#ADD1B2" rx="11" ry="11" style="stroke:#181818;stroke-width:1;"/><path d="M317.9488,429.6406 Q317.3706,429.9375 316.73,430.0781 Q316.0894,430.2344 315.3863,430.2344 Q312.8863,430.2344 311.5581,428.5938 Q310.2456,426.9375 310.2456,423.8125 Q310.2456,420.6875 311.5581,419.0313 Q312.8863,417.375 315.3863,417.375 Q316.0894,417.375 316.73,417.5313 Q317.3863,417.6875 317.9488,417.9844 L317.9488,420.7031 Q317.3238,420.125 316.73,419.8594 Q316.1363,419.5781 315.5113,419.5781 Q314.1675,419.5781 313.48,420.6563 Q312.7925,421.7188 312.7925,423.8125 Q312.7925,425.9063 313.48,426.9844 Q314.1675,428.0469 315.5113,428.0469 Q316.1363,428.0469 316.73,427.7813 Q317.3238,427.5 317.9488,426.9219 L317.9488,429.6406 Z " fill="#000000"/><text fill="#000000" font-family="sans-serif" font-size="14" lengthAdjust="spacing" textLength="46.0332" x="328.98" y="428.8467">Pocion</text><line style="stroke:#181818;stroke-width:0.5;" x1="300.98" x2="377.0132" y1="440" y2="440"/><line style="stroke:#181818;stroke-width:0.5;" x1="300.98" x2="377.0132" y1="448" y2="448"/></g><!--class Guerrero--><g class="entity" data-entity="Guerrero" data-source-line="11" data-uid="ent0011" id="entity_Guerrero"><rect fill="#F1F1F1" height="48" rx="2.5" ry="2.5" style="stroke:#181818;stroke-width:0.5;" width="94.7813" x="287.61" y="300"/><ellipse cx="302.61" cy="316" fill="#ADD1B2" rx="11" ry="11" style="stroke:#181818;stroke-width:1;"/><path d="M305.5788,321.6406 Q305.0006,321.9375 304.36,322.0781 Q303.7194,322.2344 303.0163,322.2344 Q300.5163,322.2344 299.1881,320.5938 Q297.8756,318.9375 297.8756,315.8125 Q297.8756,312.6875 299.1881,311.0313 Q300.5163,309.375 303.0163,309.375 Q303.7194,309.375 304.36,309.5313 Q305.0163,309.6875 305.5788,309.9844 L305.5788,312.7031 Q304.9538,312.125 304.36,311.8594 Q303.7663,311.5781 303.1413,311.5781 Q301.7975,311.5781 301.11,312.6563 Q300.4225,313.7188 300.4225,315.8125 Q300.4225,317.9063 301.11,318.9844 Q301.7975,320.0469 303.1413,320.0469 Q303.7663,320.0469 304.36,319.7813 Q304.9538,319.5 305.5788,318.9219 L305.5788,321.6406 Z " fill="#000000"/><text fill="#000000" font-family="sans-serif" font-size="14" lengthAdjust="spacing" textLength="62.7813" x="316.61" y="320.8467">Guerrero</text><line style="stroke:#181818;stroke-width:0.5;" x1="288.61" x2="381.3913" y1="332" y2="332"/><line style="stroke:#181818;stroke-width:0.5;" x1="288.61" x2="381.3913" y1="340" y2="340"/></g><!--class Vampiro--><g class="entity" data-entity="Vampiro" data-source-line="12" data-uid="ent0012" id="entity_Vampiro"><rect fill="#F1F1F1" height="48" rx="2.5" ry="2.5" style="stroke:#181818;stroke-width:0.5;" width="90.8916" x="45.55" y="300"/><ellipse cx="60.55" cy="316" fill="#ADD1B2" rx="11" ry="11" style="stroke:#181818;stroke-width:1;"/><path d="M63.5188,321.6406 Q62.9406,321.9375 62.3,322.0781 Q61.6594,322.2344 60.9563,322.2344 Q58.4563,322.2344 57.1281,320.5938 Q55.8156,318.9375 55.8156,315.8125 Q55.8156,312.6875 57.1281,311.0313 Q58.4563,309.375 60.9563,309.375 Q61.6594,309.375 62.3,309.5313 Q62.9563,309.6875 63.5188,309.9844 L63.5188,312.7031 Q62.8938,312.125 62.3,311.8594 Q61.7063,311.5781 61.0813,311.5781 Q59.7375,311.5781 59.05,312.6563 Q58.3625,313.7188 58.3625,315.8125 Q58.3625,317.9063 59.05,318.9844 Q59.7375,320.0469 61.0813,320.0469 Q61.7063,320.0469 62.3,319.7813 Q62.8938,319.5 63.5188,318.9219 L63.5188,321.6406 Z " fill="#000000"/><text fill="#000000" font-family="sans-serif" font-size="14" lengthAdjust="spacing" textLength="58.8916" x="74.55" y="320.8467">Vampiro</text><line style="stroke:#181818;stroke-width:0.5;" x1="46.55" x2="135.4416" y1="332" y2="332"/><line style="stroke:#181818;stroke-width:0.5;" x1="46.55" x2="135.4416" y1="340" y2="340"/></g><!--class Batalla--><g class="entity" data-entity="Batalla" data-source-line="13" data-uid="ent0013" id="entity_Batalla"><rect fill="#F1F1F1" height="48" rx="2.5" ry="2.5" style="stroke:#181818;stroke-width:0.5;" width="80.6104" x="283.69" y="192"/><ellipse cx="298.69" cy="208" fill="#ADD1B2" rx="11" ry="11" style="stroke:#181818;stroke-width:1;"/><path d="M301.6588,213.6406 Q301.0806,213.9375 300.44,214.0781 Q299.7994,214.2344 299.0963,214.2344 Q296.5963,214.2344 295.2681,212.5938 Q293.9556,210.9375 293.9556,207.8125 Q293.9556,204.6875 295.2681,203.0313 Q296.5963,201.375 299.0963,201.375 Q299.7994,201.375 300.44,201.5313 Q301.0963,201.6875 301.6588,201.9844 L301.6588,204.7031 Q301.0338,204.125 300.44,203.8594 Q299.8463,203.5781 299.2213,203.5781 Q297.8775,203.5781 297.19,204.6563 Q296.5025,205.7188 296.5025,207.8125 Q296.5025,209.9063 297.19,210.9844 Q297.8775,212.0469 299.2213,212.0469 Q299.8463,212.0469 300.44,211.7813 Q301.0338,211.5 301.6588,210.9219 L301.6588,213.6406 Z " fill="#000000"/><text fill="#000000" font-family="sans-serif" font-size="14" lengthAdjust="spacing" textLength="48.6104" x="312.69" y="212.8467">Batalla</text><line style="stroke:#181818;stroke-width:0.5;" x1="284.69" x2="363.3004" y1="224" y2="224"/><line style="stroke:#181818;stroke-width:0.5;" x1="284.69" x2="363.3004" y1="232" y2="232"/></g><!--class JuegoVampiros--><g class="entity" data-entity="JuegoVampiros" data-source-line="14" data-uid="ent0014" id="entity_JuegoVampiros"><rect fill="#F1F1F1" height="48" rx="2.5" ry="2.5" style="stroke:#181818;stroke-width:0.5;" width="137.2529" x="244.37" y="84"/><ellipse cx="259.37" cy="100" fill="#ADD1B2" rx="11" ry="11" style="stroke:#181818;stroke-width:1;"/><path d="M262.3388,105.6406 Q261.7606,105.9375 261.12,106.0781 Q260.4794,106.2344 259.7763,106.2344 Q257.2763,106.2344 255.9481,104.5938 Q254.6356,102.9375 254.6356,99.8125 Q254.6356,96.6875 255.9481,95.0313 Q257.2763,93.375 259.7763,93.375 Q260.4794,93.375 261.12,93.5313 Q261.7763,93.6875 262.3388,93.9844 L262.3388,96.7031 Q261.7138,96.125 261.12,95.8594 Q260.5263,95.5781 259.9013,95.5781 Q258.5575,95.5781 257.87,96.6563 Q257.1825,97.7188 257.1825,99.8125 Q257.1825,101.9063 257.87,102.9844 Q258.5575,104.0469 259.9013,104.0469 Q260.5263,104.0469 261.12,103.7813 Q261.7138,103.5 262.3388,102.9219 L262.3388,105.6406 Z " fill="#000000"/><text fill="#000000" font-family="sans-serif" font-size="14" lengthAdjust="spacing" textLength="105.2529" x="273.37" y="104.8467">JuegoVampiros</text><line style="stroke:#181818;stroke-width:0.5;" x1="245.37" x2="380.6229" y1="116" y2="116"/><line style="stroke:#181818;stroke-width:0.5;" x1="245.37" x2="380.6229" y1="124" y2="124"/></g><!--class CredencialesUsuario--><g class="entity" data-entity="CredencialesUsuario" data-source-line="18" data-uid="ent0016" id="entity_CredencialesUsuario"><rect fill="#F1F1F1" height="48" rx="2.5" ry="2.5" style="stroke:#181818;stroke-width:0.5;" width="175.6846" x="454.16" y="300"/><ellipse cx="469.16" cy="316" fill="#ADD1B2" rx="11" ry="11" style="stroke:#181818;stroke-width:1;"/><path d="M472.1288,321.6406 Q471.5506,321.9375 470.91,322.0781 Q470.2694,322.2344 469.5663,322.2344 Q467.0663,322.2344 465.7381,320.5938 Q464.4256,318.9375 464.4256,315.8125 Q464.4256,312.6875 465.7381,311.0313 Q467.0663,309.375 469.5663,309.375 Q470.2694,309.375 470.91,309.5313 Q471.5663,309.6875 472.1288,309.9844 L472.1288,312.7031 Q471.5038,312.125 470.91,311.8594 Q470.3163,311.5781 469.6913,311.5781 Q468.3475,311.5781 467.66,312.6563 Q466.9725,313.7188 466.9725,315.8125 Q466.9725,317.9063 467.66,318.9844 Q468.3475,320.0469 469.6913,320.0469 Q470.3163,320.0469 470.91,319.7813 Q471.5038,319.5 472.1288,318.9219 L472.1288,321.6406 Z " fill="#000000"/><text fill="#000000" font-family="sans-serif" font-size="14" lengthAdjust="spacing" textLength="143.6846" x="483.16" y="320.8467">CredencialesUsuario</text><line style="stroke:#181818;stroke-width:0.5;" x1="455.16" x2="628.8446" y1="332" y2="332"/><line style="stroke:#181818;stroke-width:0.5;" x1="455.16" x2="628.8446" y1="340" y2="340"/></g><!--class VistaConsola--><g class="entity" data-entity="VistaConsola" data-source-line="19" data-uid="ent0017" id="entity_VistaConsola"><rect fill="#F1F1F1" height="48" rx="2.5" ry="2.5" style="stroke:#181818;stroke-width:0.5;" width="122.3711" x="453.81" y="192"/><ellipse cx="468.81" cy="208" fill="#ADD1B2" rx="11" ry="11" style="stroke:#181818;stroke-width:1;"/><path d="M471.7788,213.6406 Q471.2006,213.9375 470.56,214.0781 Q469.9194,214.2344 469.2163,214.2344 Q466.7163,214.2344 465.3881,212.5938 Q464.0756,210.9375 464.0756,207.8125 Q464.0756,204.6875 465.3881,203.0313 Q466.7163,201.375 469.2163,201.375 Q469.9194,201.375 470.56,201.5313 Q471.2163,201.6875 471.7788,201.9844 L471.7788,204.7031 Q471.1538,204.125 470.56,203.8594 Q469.9663,203.5781 469.3413,203.5781 Q467.9975,203.5781 467.31,204.6563 Q466.6225,205.7188 466.6225,207.8125 Q466.6225,209.9063 467.31,210.9844 Q467.9975,212.0469 469.3413,212.0469 Q469.9663,212.0469 470.56,211.7813 Q471.1538,211.5 471.7788,210.9219 L471.7788,213.6406 Z " fill="#000000"/><text fill="#000000" font-family="sans-serif" font-size="14" lengthAdjust="spacing" textLength="90.3711" x="482.81" y="212.8467">VistaConsola</text><line style="stroke:#181818;stroke-width:0.5;" x1="454.81" x2="575.1811" y1="224" y2="224"/><line style="stroke:#181818;stroke-width:0.5;" x1="454.81" x2="575.1811" y1="232" y2="232"/></g><!--reverse link Ataque to Arma--><g class="link" data-entity-1="Ataque" data-entity-2="Arma" data-source-line="23" data-uid="lnk18" id="link_Ataque_Arma"><path codeLine="23" d="M218.9613,366.0063 C221.9613,383.6863 223.06,390.13 226.06,407.79" fill="none" id="Ataque-backto-Arma" style="stroke:#181818;stroke-width:1;"/><polygon fill="none" points="215.95,348.26,213.0458,367.0101,224.8767,365.0026,215.95,348.26" style="stroke:#181818;stroke-width:1;"/></g><!--reverse link Ataque to Mordida--><g class="link" data-entity-1="Ataque" data-entity-2="Mordida" data-source-line="24" data-uid="lnk19" id="link_Ataque_Mordida"><path codeLine="24" d="M174.6236,360.6927 C156.1136,378.3727 143.8,390.13 125.3,407.79" fill="none" id="Ataque-backto-Mordida" style="stroke:#181818;stroke-width:1;"/><polygon fill="none" points="187.64,348.26,170.4793,356.3539,178.7678,365.0315,187.64,348.26" style="stroke:#181818;stroke-width:1;"/></g><!--reverse link Personaje to Guerrero--><g class="link" data-entity-1="Personaje" data-entity-2="Guerrero" data-source-line="25" data-uid="lnk20" id="link_Personaje_Guerrero"><path codeLine="25" d="M203.9391,249.1011 C235.1691,266.7111 262.22,281.97 293.51,299.61" fill="none" id="Personaje-backto-Guerrero" style="stroke:#181818;stroke-width:1;"/><polygon fill="none" points="188.26,240.26,200.9921,254.3275,206.8861,243.8748,188.26,240.26" style="stroke:#181818;stroke-width:1;"/></g><!--reverse link Personaje to Vampiro--><g class="link" data-entity-1="Personaje" data-entity-2="Vampiro" data-source-line="26" data-uid="lnk21" id="link_Personaje_Vampiro"><path codeLine="26" d="M126.3021,256.1756 C116.9621,273.8556 112.59,282.13 103.26,299.79" fill="none" id="Personaje-backto-Vampiro" style="stroke:#181818;stroke-width:1;"/><polygon fill="none" points="134.71,240.26,120.9969,253.373,131.6073,258.9783,134.71,240.26" style="stroke:#181818;stroke-width:1;"/></g><!--link JuegoVampiros to GestorUsuarios--><g class="link" data-entity-1="JuegoVampiros" data-entity-2="GestorUsuarios" data-source-line="29" data-uid="lnk22" id="link_JuegoVampiros_GestorUsuarios"><path codeLine="29" d="M381.82,108.94 C450.49,110.78 558.14,118.91 646,149 C674.65,158.81 698.9879,173.3988 720.1179,188.1288" fill="none" id="JuegoVampiros-to-GestorUsuarios" style="stroke:#181818;stroke-width:1;"/><polygon fill="#181818" points="725.04,191.56,719.9444,183.1318,720.9383,188.7006,715.3694,189.6945,725.04,191.56" style="stroke:#181818;stroke-width:1;"/></g><!--link JuegoVampiros to VistaConsola--><g class="link" data-entity-1="JuegoVampiros" data-entity-2="VistaConsola" data-source-line="30" data-uid="lnk23" id="link_JuegoVampiros_VistaConsola"><path codeLine="30" d="M364.09,132.29 C375.34,137.63 387.13,143.39 398,149 C424.01,162.43 447.4339,175.55 469.8639,188.5" fill="none" id="JuegoVampiros-to-VistaConsola" style="stroke:#181818;stroke-width:1;"/><polygon fill="#181818" points="475.06,191.5,469.2658,183.5359,470.7299,189,465.2658,190.4641,475.06,191.5" style="stroke:#181818;stroke-width:1;"/></g><!--link JuegoVampiros to Batalla--><g class="link" data-entity-1="JuegoVampiros" data-entity-2="Batalla" data-source-line="31" data-uid="lnk24" id="link_JuegoVampiros_Batalla"><path codeLine="31" d="M315.41,132.26 C317.25,149.94 319.1416,168.162 320.9716,185.822" fill="none" id="JuegoVampiros-to-Batalla" style="stroke:#181818;stroke-width:1;"/><polygon fill="#181818" points="321.59,191.79,324.641,182.4256,321.0746,186.8166,316.6837,183.2502,321.59,191.79" style="stroke:#181818;stroke-width:1;"/></g><!--link Batalla to Guerrero--><g class="link" data-entity-1="Batalla" data-entity-2="Guerrero" data-source-line="32" data-uid="lnk25" id="link_Batalla_Guerrero"><path codeLine="32" d="M326.41,240.26 C328.25,257.94 330.1416,276.162 331.9716,293.822" fill="none" id="Batalla-to-Guerrero" style="stroke:#181818;stroke-width:1;"/><polygon fill="#181818" points="332.59,299.79,335.641,290.4256,332.0746,294.8166,327.6837,291.2502,332.59,299.79" style="stroke:#181818;stroke-width:1;"/></g><!--link Batalla to Vampiro--><g class="link" data-entity-1="Batalla" data-entity-2="Vampiro" data-source-line="33" data-uid="lnk26" id="link_Batalla_Vampiro"><path codeLine="33" d="M283.41,235.46 C242.47,254.09 184.8412,280.3051 142.1612,299.7251" fill="none" id="Batalla-to-Vampiro" style="stroke:#181818;stroke-width:1;"/><polygon fill="#181818" points="136.7,302.21,146.5485,302.1234,141.251,300.1392,143.2352,294.8418,136.7,302.21" style="stroke:#181818;stroke-width:1;"/></g><!--link Batalla to VistaConsola--><g class="link" data-entity-1="Batalla" data-entity-2="VistaConsola" data-source-line="34" data-uid="lnk27" id="link_Batalla_VistaConsola"><path codeLine="34" d="M364.66,216 C394.22,216 417.78,216 447.34,216" fill="none" id="Batalla-to-VistaConsola" style="stroke:#181818;stroke-width:1;"/><polygon fill="#181818" points="453.34,216,444.34,212,448.34,216,444.34,220,453.34,216" style="stroke:#181818;stroke-width:1;"/></g><!--link Guerrero to Arma--><g class="link" data-entity-1="Guerrero" data-entity-2="Arma" data-source-line="35" data-uid="lnk28" id="link_Guerrero_Arma"><path codeLine="35" d="M311.96,348.26 C294.45,365.94 274.7021,385.8669 257.2121,403.5269" fill="none" id="Guerrero-to-Arma" style="stroke:#181818;stroke-width:1;"/><polygon fill="#181818" points="252.99,407.79,262.1652,404.21,256.5084,404.2374,256.481,398.5806,252.99,407.79" style="stroke:#181818;stroke-width:1;"/></g><!--link Guerrero to Pocion--><g class="link" data-entity-1="Guerrero" data-entity-2="Pocion" data-source-line="36" data-uid="lnk29" id="link_Guerrero_Pocion"><path codeLine="36" d="M335.88,348.26 C336.54,365.94 337.2359,384.1342 337.8959,401.7942" fill="none" id="Guerrero-to-Pocion" style="stroke:#181818;stroke-width:1;"/><polygon fill="#181818" points="338.12,407.79,341.7811,398.6469,337.9333,402.7935,333.7867,398.9457,338.12,407.79" style="stroke:#181818;stroke-width:1;"/></g><!--link Vampiro to Mordida--><g class="link" data-entity-1="Vampiro" data-entity-2="Mordida" data-source-line="37" data-uid="lnk30" id="link_Vampiro_Mordida"><path codeLine="37" d="M93.19,348.26 C94.86,365.94 96.5751,384.1566 98.2451,401.8166" fill="none" id="Vampiro-to-Mordida" style="stroke:#181818;stroke-width:1;"/><polygon fill="#181818" points="98.81,407.79,101.9449,398.4534,98.3393,402.8122,93.9805,399.2065,98.81,407.79" style="stroke:#181818;stroke-width:1;"/></g><!--link JuegoVampiros to CredencialesUsuario--><g class="link" data-entity-1="JuegoVampiros" data-entity-2="CredencialesUsuario" data-source-line="40" data-uid="lnk31" id="link_JuegoVampiros_CredencialesUsuario"><path codeLine="40" d="M382.02,109.11 C518.28,110.06 811.35,115.95 842,149 C876.75,186.48 874.47,224.53 842,264 C815.53,296.18 714.6683,310.5701 635.9983,317.2801" fill="none" id="JuegoVampiros-to-CredencialesUsuario" style="stroke:#181818;stroke-width:1;"/><polygon fill="#181818" points="630.02,317.79,639.3274,321.0107,635.0019,317.3651,638.6475,313.0396,630.02,317.79" style="stroke:#181818;stroke-width:1;"/></g><!--link VistaConsola to CredencialesUsuario--><g class="link" data-entity-1="VistaConsola" data-entity-2="CredencialesUsuario" data-source-line="41" data-uid="lnk32" id="link_VistaConsola_CredencialesUsuario"><path codeLine="41" d="M520.93,240.26 C525.43,257.94 530.1085,276.3158 534.6085,293.9758" fill="none" id="VistaConsola-to-CredencialesUsuario" style="stroke:#181818;stroke-width:1;"/><polygon fill="#181818" points="536.09,299.79,537.7438,290.081,534.8554,294.9448,529.9916,292.0564,536.09,299.79" style="stroke:#181818;stroke-width:1;"/></g><!--link VistaConsola to Guerrero--><g class="link" data-entity-1="VistaConsola" data-entity-2="Guerrero" data-source-line="42" data-uid="lnk33" id="link_VistaConsola_Guerrero"><path codeLine="42" d="M475.5,240.26 C445.59,257.87 409.8504,278.9258 379.8904,296.5658" fill="none" id="VistaConsola-to-Guerrero" style="stroke:#181818;stroke-width:1;"/><polygon fill="#181818" points="374.72,299.61,384.505,298.4906,379.0286,297.0731,380.4461,291.5967,374.72,299.61" style="stroke:#181818;stroke-width:1;"/></g><!--link VistaConsola to Vampiro--><g class="link" data-entity-1="VistaConsola" data-entity-2="Vampiro" data-source-line="43" data-uid="lnk34" id="link_VistaConsola_Vampiro"><path codeLine="43" d="M464.35,240.39 C444.08,248.93 420.29,257.98 398,264 C291.75,292.71 259.62,272.71 153,300 C147.66,301.37 147.8463,301.1452 142.4063,302.9452" fill="none" id="VistaConsola-to-Vampiro" style="stroke:#181818;stroke-width:1;"/><polygon fill="#181818" points="136.71,304.83,146.5109,305.8003,141.4569,303.2593,143.9979,298.2053,136.71,304.83" style="stroke:#181818;stroke-width:1;"/></g><!--link VistaConsola to Arma--><g class="link" data-entity-1="VistaConsola" data-entity-2="Arma" data-source-line="44" data-uid="lnk35" id="link_VistaConsola_Arma"><path codeLine="44" d="M489.51,240.48 C473.24,256.3 452.39,278.19 437,300 C416.26,329.4 427.61,348.93 400,372 C357.93,407.16 333.39,388.88 282,408 C276.45,410.07 276.1594,410.0771 270.5294,412.4771" fill="none" id="VistaConsola-to-Arma" style="stroke:#181818;stroke-width:1;"/><polygon fill="#181818" points="265.01,414.83,274.8577,414.9803,269.6095,412.8693,271.7206,407.6211,265.01,414.83" style="stroke:#181818;stroke-width:1;"/></g><!--link GestorUsuarios to CredencialesUsuario--><g class="link" data-entity-1="GestorUsuarios" data-entity-2="CredencialesUsuario" data-source-line="45" data-uid="lnk36" id="link_GestorUsuarios_CredencialesUsuario"><path codeLine="45" d="M708.77,240.39 C673.2,258.01 630.0262,279.3961 594.4862,297.0061" fill="none" id="GestorUsuarios-to-CredencialesUsuario" style="stroke:#181818;stroke-width:1;"/><polygon fill="#181818" points="589.11,299.67,598.9502,299.2583,593.5902,297.4501,595.3984,292.09,589.11,299.67" style="stroke:#181818;stroke-width:1;"/></g><!--SRC=[ZP51IyGm48Nl-HMvUQe7poAiUn04OH7qFgQpkz5iKsSI4DJ_RjecPRAjOY-bRpepxtlJWtc30-hxY0V_3AVUah-wX1YE-bFfz1W7pFeEENXwuWXaFQjlfVhLHkC9SoEyS20m8K_O8R7lu1NNYfi0xn75lWsTG7m-U6fjAvMTDzPtqc548YGlfEnAABSGm3avHzh_WolQAeujOOkTiU2GSoXoh-K0Mz-nJwlIo0lzY0u6lyYwHNr46flLXAsllvfc8fP2OPw3c-IPyqmliFMsdcpQr0y-DNuaNzW5P5LHwwQvEJ_myeSAQbakoURtDBDObMBnMMboTkaQAsCgbP8FdyUCKacgHj-32p3GQfjk5UpU6cXX3MtjcjBI_t-QYHULWhqeJ8HL-h_j-m40]--></g></svg>