<?xml version="1.0" encoding="UTF-8" standalone="no"?><svg xmlns="http://www.w3.org/2000/svg" xmlns:xlink="http://www.w3.org/1999/xlink" contentStyleType="text/css" height="722px" preserveAspectRatio="none" style="width:678px;height:722px;background:#FFFFFF;" version="1.1" viewBox="0 0 678 722" width="678px" zoomAndPan="magnify"><defs/><g><g id="elem_Validar"><polygon fill="#F1F1F1" points="371,427,383,439,371,451,359,439,371,427" style="stroke:#181818;stroke-width:0.5;"/></g><g id="elem_ValidarRegistro"><polygon fill="#F1F1F1" points="237,568,249,580,237,592,225,580,237,568" style="stroke:#181818;stroke-width:0.5;"/></g><ellipse cx="423" cy="16" fill="#222222" rx="10" ry="10" style="stroke:none;stroke-width:1.0;"/><g id="OpenGame"><rect fill="#F1F1F1" height="50" rx="12.5" ry="12.5" style="stroke:#181818;stroke-width:0.5;" width="94" x="376" y="87"/><line style="stroke:#181818;stroke-width:0.5;" x1="376" x2="470" y1="113.0986" y2="113.0986"/><text fill="#000000" font-family="sans-serif" font-size="14" lengthAdjust="spacing" textLength="74" x="386" y="105.1318">OpenGame</text></g><g id="Login"><rect fill="#F1F1F1" height="50" rx="12.5" ry="12.5" style="stroke:#181818;stroke-width:0.5;" width="55" x="395.5" y="243"/><line style="stroke:#181818;stroke-width:0.5;" x1="395.5" x2="450.5" y1="269.0986" y2="269.0986"/><text fill="#000000" font-family="sans-serif" font-size="14" lengthAdjust="spacing" textLength="35" x="405.5" y="261.1318">Login</text></g><g id="Register"><rect fill="#F1F1F1" height="50" rx="12.5" ry="12.5" style="stroke:#181818;stroke-width:0.5;" width="73" x="179.5" y="243"/><line style="stroke:#181818;stroke-width:0.5;" x1="179.5" x2="252.5" y1="269.0986" y2="269.0986"/><text fill="#000000" font-family="sans-serif" font-size="14" lengthAdjust="spacing" textLength="53" x="189.5" y="261.1318">Register</text></g><g id="ShowGameSpecification"><rect fill="#F1F1F1" height="50" rx="12.5" ry="12.5" style="stroke:#181818;stroke-width:0.5;" width="174" x="284" y="555"/><line style="stroke:#181818;stroke-width:0.5;" x1="284" x2="458" y1="581.0986" y2="581.0986"/><text fill="#000000" font-family="sans-serif" font-size="14" lengthAdjust="spacing" textLength="154" x="294" y="573.1318">ShowGameSpecification</text></g><g id="ClosedGame"><rect fill="#F1F1F1" height="50" rx="12.5" ry="12.5" style="stroke:#181818;stroke-width:0.5;" width="103" x="319.5" y="666"/><line style="stroke:#181818;stroke-width:0.5;" x1="319.5" x2="422.5" y1="692.0986" y2="692.0986"/><text fill="#000000" font-family="sans-serif" font-size="14" lengthAdjust="spacing" textLength="83" x="329.5" y="684.1318">ClosedGame</text></g><g id="WrongPassword"><rect fill="#F1F1F1" height="50" rx="12.5" ry="12.5" style="stroke:#181818;stroke-width:0.5;" width="124" x="518" y="414"/><line style="stroke:#181818;stroke-width:0.5;" x1="518" x2="642" y1="440.0986" y2="440.0986"/><text fill="#000000" font-family="sans-serif" font-size="14" lengthAdjust="spacing" textLength="104" x="528" y="432.1318">WrongPassword</text></g><g id="ValidateRegister"><rect fill="#F1F1F1" height="50" rx="12.5" ry="12.5" style="stroke:#181818;stroke-width:0.5;" width="124" x="7" y="414"/><line style="stroke:#181818;stroke-width:0.5;" x1="7" x2="131" y1="440.0986" y2="440.0986"/><text fill="#000000" font-family="sans-serif" font-size="14" lengthAdjust="spacing" textLength="104" x="17" y="432.1318">ValidateRegister</text></g><g id="ShowError"><rect fill="#F1F1F1" height="50" rx="12.5" ry="12.5" style="stroke:#181818;stroke-width:0.5;" width="87" x="197.5" y="414"/><line style="stroke:#181818;stroke-width:0.5;" x1="197.5" x2="284.5" y1="440.0986" y2="440.0986"/><text fill="#000000" font-family="sans-serif" font-size="14" lengthAdjust="spacing" textLength="67" x="207.5" y="432.1318">ShowError</text></g><!--MD5=[bee9fcace4e4f5b29cbcc458b557d12c]
link *start to OpenGame--><g id="link_*start_OpenGame"><path d="M423,26.01 C423,38.7 423,62.41 423,81.57 " fill="none" id="*start-to-OpenGame" style="stroke:#181818;stroke-width:1.0;"/><polygon fill="#181818" points="423,86.84,427,77.84,423,81.84,419,77.84,423,86.84" style="stroke:#181818;stroke-width:1.0;"/></g><!--MD5=[e5e851791916a401abd939f1e73af5ff]
link OpenGame to Login--><g id="link_OpenGame_Login"><path d="M423,137.06 C423,164.22 423,208.4 423,237.59 " fill="none" id="OpenGame-to-Login" style="stroke:#181818;stroke-width:1.0;"/><polygon fill="#181818" points="423,242.85,427,233.85,423,237.85,419,233.85,423,242.85" style="stroke:#181818;stroke-width:1.0;"/><text fill="#000000" font-family="sans-serif" font-size="13" lengthAdjust="spacing" textLength="109" x="430.5" y="180.1938">El sistema permite</text><text fill="#000000" font-family="sans-serif" font-size="13" lengthAdjust="spacing" textLength="72" x="449" y="195.1426">ingresar U:P</text><text fill="#000000" font-family="sans-serif" font-size="13" lengthAdjust="spacing" textLength="122" x="424" y="210.0913">o registrar un usuario</text></g><!--MD5=[5e4204337c81b024a7ec4d85d8d3693f]
reverse link Register to Login--><g id="link_Register_Login"><path d="M257.68,268 C298.69,268 360.15,268 395.43,268 " fill="none" id="Register-backto-Login" style="stroke:#181818;stroke-width:1.0;"/><polygon fill="#181818" points="252.53,268,261.53,272,257.53,268,261.53,264,252.53,268" style="stroke:#181818;stroke-width:1.0;"/><text fill="#000000" font-family="sans-serif" font-size="13" lengthAdjust="spacing" textLength="58" x="295" y="247.1938">El jugador</text><text fill="#000000" font-family="sans-serif" font-size="13" lengthAdjust="spacing" textLength="106" x="271" y="262.1426">solicita registrarse</text></g><!--MD5=[877bf8a77dac96919e67f2f5e972bd6b]
link Login to Validar--><g id="link_Login_Validar"><path d="M415.55,293.21 C404.45,329.3 383.92,396 375.15,424.51 " fill="none" id="Login-to-Validar" style="stroke:#181818;stroke-width:1.0;"/><polygon fill="#181818" points="373.66,429.37,380.108,421.9253,375.1164,424.5868,372.4549,419.5951,373.66,429.37" style="stroke:#181818;stroke-width:1.0;"/><text fill="#000000" font-family="sans-serif" font-size="13" lengthAdjust="spacing" textLength="130" x="408" y="358.6938">El jugador ingresa U:P</text></g><!--MD5=[f956f962e5495fb2fe2e35af8f72b774]
link Validar to ShowGameSpecification--><g id="link_Validar_ShowGameSpecification"><path d="M371,451.37 C371,472.64 371,519.04 371,549.65 " fill="none" id="Validar-to-ShowGameSpecification" style="stroke:#181818;stroke-width:1.0;"/><polygon fill="#181818" points="371,554.79,375,545.79,371,549.79,367,545.79,371,554.79" style="stroke:#181818;stroke-width:1.0;"/></g><!--MD5=[662114739ce37922884dca88fc302457]
link ShowGameSpecification to ClosedGame--><g id="link_ShowGameSpecification_ClosedGame"><path d="M371,605.19 C371,621.56 371,643.28 371,660.64 " fill="none" id="ShowGameSpecification-to-ClosedGame" style="stroke:#181818;stroke-width:1.0;"/><polygon fill="#181818" points="371,665.88,375,656.88,371,660.88,367,656.88,371,665.88" style="stroke:#181818;stroke-width:1.0;"/></g><!--MD5=[faa0d59da47ff211a4a6942d5674f5eb]
link Validar to WrongPassword--><g id="link_Validar_WrongPassword"><path d="M383.14,439 C407.94,439 466,439 512.68,439 " fill="none" id="Validar-to-WrongPassword" style="stroke:#181818;stroke-width:1.0;"/><polygon fill="#181818" points="517.74,439,508.74,435,512.74,439,508.74,443,517.74,439" style="stroke:#181818;stroke-width:1.0;"/><text fill="#000000" font-family="sans-serif" font-size="13" lengthAdjust="spacing" textLength="98" x="401.5" y="433.1938">[U:P incorrectos]</text></g><!--MD5=[3bda9a8d6d6ba1b9d2fa00019e56cdff]
reverse link OpenGame to WrongPassword--><g id="link_OpenGame_WrongPassword"><path d="M474.99,121.9 C501.98,129.32 532.99,142.76 551,167 C606.74,242.01 593.74,362.58 584.88,413.76 " fill="none" id="OpenGame-backto-WrongPassword" style="stroke:#181818;stroke-width:1.0;"/><polygon fill="#181818" points="470,120.59,477.6848,126.7499,474.8352,121.8632,479.7219,119.0136,470,120.59" style="stroke:#181818;stroke-width:1.0;"/><text fill="#000000" font-family="sans-serif" font-size="13" lengthAdjust="spacing" textLength="62" x="600.5" y="265.6938">El sistema</text><text fill="#000000" font-family="sans-serif" font-size="13" lengthAdjust="spacing" textLength="77" x="593" y="280.6426">muestra error</text></g><!--MD5=[7c74ad0bb6ddc917b4e21aea4e7516d7]
link Register to ValidateRegister--><g id="link_Register_ValidateRegister"><path d="M179.49,283.07 C151.31,294.59 115.42,310.9 105,323 C84.23,347.13 75.43,383.21 71.71,408.5 " fill="none" id="Register-to-ValidateRegister" style="stroke:#181818;stroke-width:1.0;"/><polygon fill="#181818" points="70.99,413.73,76.1618,405.3483,71.6611,408.7752,68.2342,404.2746,70.99,413.73" style="stroke:#181818;stroke-width:1.0;"/><text fill="#000000" font-family="sans-serif" font-size="13" lengthAdjust="spacing" textLength="109" x="106.5" y="336.1938">El sistema permite</text><text fill="#000000" font-family="sans-serif" font-size="13" lengthAdjust="spacing" textLength="72" x="125" y="351.1426">ingresar U:P</text><text fill="#000000" font-family="sans-serif" font-size="13" lengthAdjust="spacing" textLength="110" x="106" y="366.0913">e invoca el registro</text><text fill="#000000" font-family="sans-serif" font-size="13" lengthAdjust="spacing" textLength="60" x="131" y="381.04">o cancelar</text></g><!--MD5=[bd86f44c4471914f6e87e3169d203761]
reverse link OpenGame to ValidateRegister--><g id="link_OpenGame_ValidateRegister"><path d="M370.63,114.48 C289.51,119.93 135.59,143.6 66,243 C29.88,294.59 47.83,374.15 60.35,413.81 " fill="none" id="OpenGame-backto-ValidateRegister" style="stroke:#181818;stroke-width:1.0;"/><polygon fill="#181818" points="375.87,114.14,366.6368,110.7125,370.8798,114.4537,367.1387,118.6967,375.87,114.14" style="stroke:#181818;stroke-width:1.0;"/><text fill="#000000" font-family="sans-serif" font-size="13" lengthAdjust="spacing" textLength="58" x="85" y="265.6938">El usuario</text><text fill="#000000" font-family="sans-serif" font-size="13" lengthAdjust="spacing" textLength="94" x="67" y="280.6426">solicita cancelar</text></g><!--MD5=[53566619e188dc6f96da69007a20a776]
link ValidateRegister to ValidarRegistro--><g id="link_ValidateRegister_ValidarRegistro"><path d="M71.99,464.11 C75.49,482.89 83.01,508.46 99,525 C133.2,560.37 193.32,573.03 221.54,577.17 " fill="none" id="ValidateRegister-to-ValidarRegistro" style="stroke:#181818;stroke-width:1.0;"/><polygon fill="#181818" points="226.75,577.89,218.383,572.6945,221.7972,577.2049,217.2868,580.6191,226.75,577.89" style="stroke:#181818;stroke-width:1.0;"/><text fill="#000000" font-family="sans-serif" font-size="13" lengthAdjust="spacing" textLength="130" x="100" y="507.1938">El jugador ingresa U:P</text><text fill="#000000" font-family="sans-serif" font-size="13" lengthAdjust="spacing" textLength="117" x="106.5" y="522.1426">y solicita registrarse</text></g><!--MD5=[519c801a8179565d7e4b79b169f88009]
link ValidarRegistro to ShowGameSpecification--><g id="link_ValidarRegistro_ShowGameSpecification"><path d="M249.04,580 C258.91,580 268.78,580 278.65,580 " fill="none" id="ValidarRegistro-to-ShowGameSpecification" style="stroke:#181818;stroke-width:1.0;"/><polygon fill="#181818" points="283.82,580,274.82,576,278.82,580,274.82,584,283.82,580" style="stroke:#181818;stroke-width:1.0;"/></g><!--MD5=[61b5c7a2db8cc9c943655abd06405391]
reverse link ShowError to ValidarRegistro--><g id="link_ShowError_ValidarRegistro"><path d="M240.15,469.39 C239.27,500.2 237.92,547.01 237.31,568.06 " fill="none" id="ShowError-backto-ValidarRegistro" style="stroke:#181818;stroke-width:1.0;"/><polygon fill="#181818" points="240.3,464.21,236.0446,473.0921,240.1572,469.208,244.0413,473.3206,240.3,464.21" style="stroke:#181818;stroke-width:1.0;"/><text fill="#000000" font-family="sans-serif" font-size="13" lengthAdjust="spacing" textLength="67" x="241" y="514.6938">[U repetido]</text></g><!--MD5=[3f9a42abd491a7a00cf33a951fb606aa]
reverse link Register to ShowError--><g id="link_Register_ShowError"><path d="M220.33,298.29 C225.17,331 232.92,383.36 237.42,413.83 " fill="none" id="Register-backto-ShowError" style="stroke:#181818;stroke-width:1.0;"/><polygon fill="#181818" points="219.58,293.21,216.962,302.7045,220.3231,298.1545,224.8732,301.5156,219.58,293.21" style="stroke:#181818;stroke-width:1.0;"/></g><!--MD5=[d5811498700ad6a7a0057a2dab8dcf2d]
@startuml
State Validar <<choice>>
State ValidarRegistro <<choice>>

[*] -d-> OpenGame
OpenGame -d-> Login: El sistema permite\ningresar U:P\no registrar un usuario
Login -l-> Register: El jugador\nsolicita registrarse
Login -d-> Validar: El jugador ingresa U:P
Validar -d-> ShowGameSpecification
ShowGameSpecification -d-> ClosedGame
Validar - - -r-> WrongPassword: [U:P incorrectos]
WrongPassword - -u-> OpenGame: El sistema\nmuestra error
Register -d-> ValidateRegister: El sistema permite\ningresar U:P\ne invoca el registro\no cancelar
ValidateRegister -u-> OpenGame: El usuario\nsolicita cancelar
ValidateRegister -d-> ValidarRegistro: El jugador ingresa U:P\ny solicita registrarse
ValidarRegistro -r-> ShowGameSpecification
ValidarRegistro -u-> ShowError: [U repetido]
ShowError -u-> Register
@enduml

PlantUML version 1.2022.7(Mon Aug 22 19:01:30 CEST 2022)
(GPL source distribution)
Java Runtime: OpenJDK Runtime Environment
JVM: OpenJDK 64-Bit Server VM
Default Encoding: UTF-8
Language: es
Country: ES
--></g></svg>