<?xml version="1.0" encoding="UTF-8" standalone="no"?><svg xmlns="http://www.w3.org/2000/svg" xmlns:xlink="http://www.w3.org/1999/xlink" contentStyleType="text/css" height="722px" preserveAspectRatio="none" style="width:624px;height:722px;background:#FFFFFF;" version="1.1" viewBox="0 0 624 722" width="624px" zoomAndPan="magnify"><defs/><g><g id="Login"><rect fill="#F1F1F1" height="50" rx="12.5" ry="12.5" style="stroke:#181818;stroke-width:0.5;" width="50" x="348.5" y="243"/><line style="stroke:#181818;stroke-width:0.5;" x1="348.5" x2="398.5" y1="269.0986" y2="269.0986"/><text fill="#000000" font-family="sans-serif" font-size="14" lengthAdjust="spacing" textLength="4" x="371.5" y="261.1318"> </text></g><g id="WrongPassword"><rect fill="#F1F1F1" height="50" rx="12.5" ry="12.5" style="stroke:#181818;stroke-width:0.5;" width="50" x="497.5" y="414"/><line style="stroke:#181818;stroke-width:0.5;" x1="497.5" x2="547.5" y1="440.0986" y2="440.0986"/><text fill="#000000" font-family="sans-serif" font-size="14" lengthAdjust="spacing" textLength="4" x="520.5" y="432.1318"> </text></g><g id="Register"><rect fill="#F1F1F1" height="50" rx="12.5" ry="12.5" style="stroke:#181818;stroke-width:0.5;" width="50" x="155.5" y="243"/><line style="stroke:#181818;stroke-width:0.5;" x1="155.5" x2="205.5" y1="269.0986" y2="269.0986"/><text fill="#000000" font-family="sans-serif" font-size="14" lengthAdjust="spacing" textLength="4" x="178.5" y="261.1318"> </text></g><g id="ValidateRegister"><rect fill="#F1F1F1" height="50" rx="12.5" ry="12.5" style="stroke:#181818;stroke-width:0.5;" width="50" x="20.5" y="414"/><line style="stroke:#181818;stroke-width:0.5;" x1="20.5" x2="70.5" y1="440.0986" y2="440.0986"/><text fill="#000000" font-family="sans-serif" font-size="14" lengthAdjust="spacing" textLength="4" x="43.5" y="432.1318"> </text></g><g id="elem_Validar"><polygon fill="#F1F1F1" points="350.5,427,362.5,439,350.5,451,338.5,439,350.5,427" style="stroke:#181818;stroke-width:0.5;"/></g><g id="elem_ValidarRegistro"><polygon fill="#F1F1F1" points="216.5,568,228.5,580,216.5,592,204.5,580,216.5,568" style="stroke:#181818;stroke-width:0.5;"/></g><ellipse cx="373.5" cy="16" fill="#222222" rx="10" ry="10" style="stroke:none;stroke-width:1.0;"/><g id="OpenGame"><rect fill="#F1F1F1" height="50" rx="12.5" ry="12.5" style="stroke:#181818;stroke-width:0.5;" width="94" x="326.5" y="87"/><line style="stroke:#181818;stroke-width:0.5;" x1="326.5" x2="420.5" y1="113.0986" y2="113.0986"/><text fill="#000000" font-family="sans-serif" font-size="14" lengthAdjust="spacing" textLength="74" x="336.5" y="105.1318">OpenGame</text></g><g id="ShowGameSpecification"><rect fill="#F1F1F1" height="50" rx="12.5" ry="12.5" style="stroke:#181818;stroke-width:0.5;" width="174" x="263.5" y="555"/><line style="stroke:#181818;stroke-width:0.5;" x1="263.5" x2="437.5" y1="581.0986" y2="581.0986"/><text fill="#000000" font-family="sans-serif" font-size="14" lengthAdjust="spacing" textLength="154" x="273.5" y="573.1318">ShowGameSpecification</text></g><g id="ClosedGame"><rect fill="#F1F1F1" height="50" rx="12.5" ry="12.5" style="stroke:#181818;stroke-width:0.5;" width="103" x="299" y="666"/><line style="stroke:#181818;stroke-width:0.5;" x1="299" x2="402" y1="692.0986" y2="692.0986"/><text fill="#000000" font-family="sans-serif" font-size="14" lengthAdjust="spacing" textLength="83" x="309" y="684.1318">ClosedGame</text></g><g id="ShowError"><rect fill="#F1F1F1" height="50" rx="12.5" ry="12.5" style="stroke:#181818;stroke-width:0.5;" width="87" x="174" y="414"/><line style="stroke:#181818;stroke-width:0.5;" x1="174" x2="261" y1="440.0986" y2="440.0986"/><text fill="#000000" font-family="sans-serif" font-size="14" lengthAdjust="spacing" textLength="67" x="184" y="432.1318">ShowError</text></g><!--MD5=[bee9fcace4e4f5b29cbcc458b557d12c]
link *start to OpenGame--><g id="link_*start_OpenGame"><path d="M373.5,26.01 C373.5,38.7 373.5,62.41 373.5,81.57 " fill="none" id="*start-to-OpenGame" style="stroke:#181818;stroke-width:1.0;"/><polygon fill="#181818" points="373.5,86.84,377.5,77.84,373.5,81.84,369.5,77.84,373.5,86.84" style="stroke:#181818;stroke-width:1.0;"/></g><!--MD5=[e5e851791916a401abd939f1e73af5ff]
link OpenGame to Login--><g id="link_OpenGame_Login"><path d="M372.41,137.19 C372.04,146.5 371.68,157.24 371.5,167 C371.12,187.44 371.12,192.56 371.5,213 C371.65,220.93 371.91,229.5 372.21,237.44 " fill="none" id="OpenGame-to-Login" style="stroke:#181818;stroke-width:1.0;"/><polygon fill="#181818" points="372.41,242.81,376.0732,233.6677,372.2244,237.8134,368.0787,233.9647,372.41,242.81" style="stroke:#181818;stroke-width:1.0;"/><text fill="#000000" font-family="sans-serif" font-size="13" lengthAdjust="spacing" textLength="109" x="379" y="180.1938">El sistema permite</text><text fill="#000000" font-family="sans-serif" font-size="13" lengthAdjust="spacing" textLength="72" x="397.5" y="195.1426">ingresar U:P</text><text fill="#000000" font-family="sans-serif" font-size="13" lengthAdjust="spacing" textLength="122" x="372.5" y="210.0913">o registrar un usuario</text></g><!--MD5=[5e4204337c81b024a7ec4d85d8d3693f]
reverse link Register to Login--><g id="link_Register_Login"><path d="M211.13,268 C249.08,268 313,268 348.26,268 " fill="none" id="Register-backto-Login" style="stroke:#181818;stroke-width:1.0;"/><polygon fill="#181818" points="205.73,268,214.73,272,210.73,268,214.73,264,205.73,268" style="stroke:#181818;stroke-width:1.0;"/><text fill="#000000" font-family="sans-serif" font-size="13" lengthAdjust="spacing" textLength="58" x="248" y="247.1938">El jugador</text><text fill="#000000" font-family="sans-serif" font-size="13" lengthAdjust="spacing" textLength="106" x="224" y="262.1426">solicita registrarse</text></g><!--MD5=[877bf8a77dac96919e67f2f5e972bd6b]
link Login to Validar--><g id="link_Login_Validar"><path d="M368.65,293.13 C366.88,302.44 364.96,313.19 363.5,323 C358.21,358.54 353.96,400.55 351.89,422.64 " fill="none" id="Login-to-Validar" style="stroke:#181818;stroke-width:1.0;"/><polygon fill="#181818" points="351.41,427.82,356.2173,419.2241,351.8678,422.841,348.2509,418.4915,351.41,427.82" style="stroke:#181818;stroke-width:1.0;"/><text fill="#000000" font-family="sans-serif" font-size="13" lengthAdjust="spacing" textLength="130" x="364.5" y="358.6938">El jugador ingresa U:P</text></g><!--MD5=[f956f962e5495fb2fe2e35af8f72b774]
link Validar to ShowGameSpecification--><g id="link_Validar_ShowGameSpecification"><path d="M350.5,451.37 C350.5,472.64 350.5,519.04 350.5,549.65 " fill="none" id="Validar-to-ShowGameSpecification" style="stroke:#181818;stroke-width:1.0;"/><polygon fill="#181818" points="350.5,554.79,354.5,545.79,350.5,549.79,346.5,545.79,350.5,554.79" style="stroke:#181818;stroke-width:1.0;"/></g><!--MD5=[662114739ce37922884dca88fc302457]
link ShowGameSpecification to ClosedGame--><g id="link_ShowGameSpecification_ClosedGame"><path d="M350.5,605.19 C350.5,621.56 350.5,643.28 350.5,660.64 " fill="none" id="ShowGameSpecification-to-ClosedGame" style="stroke:#181818;stroke-width:1.0;"/><polygon fill="#181818" points="350.5,665.88,354.5,656.88,350.5,660.88,346.5,656.88,350.5,665.88" style="stroke:#181818;stroke-width:1.0;"/></g><!--MD5=[faa0d59da47ff211a4a6942d5674f5eb]
link Validar to WrongPassword--><g id="link_Validar_WrongPassword"><path d="M362.59,439 C389.31,439 454,439 492.42,439 " fill="none" id="Validar-to-WrongPassword" style="stroke:#181818;stroke-width:1.0;"/><polygon fill="#181818" points="497.43,439,488.43,435,492.43,439,488.43,443,497.43,439" style="stroke:#181818;stroke-width:1.0;"/><text fill="#000000" font-family="sans-serif" font-size="13" lengthAdjust="spacing" textLength="98" x="381" y="433.1938">[U:P incorrectos]</text></g><!--MD5=[3bda9a8d6d6ba1b9d2fa00019e56cdff]
reverse link OpenGame to WrongPassword--><g id="link_OpenGame_WrongPassword"><path d="M425.5,122.13 C452,129.6 482.19,143.02 499.5,167 C554.08,242.61 538.14,362.85 528,413.86 " fill="none" id="OpenGame-backto-WrongPassword" style="stroke:#181818;stroke-width:1.0;"/><polygon fill="#181818" points="420.61,120.81,428.2435,127.0333,425.4345,122.1232,430.3446,119.3141,420.61,120.81" style="stroke:#181818;stroke-width:1.0;"/><text fill="#000000" font-family="sans-serif" font-size="13" lengthAdjust="spacing" textLength="62" x="547" y="265.6938">El sistema</text><text fill="#000000" font-family="sans-serif" font-size="13" lengthAdjust="spacing" textLength="77" x="539.5" y="280.6426">muestra error</text></g><!--MD5=[7c74ad0bb6ddc917b4e21aea4e7516d7]
link Register to ValidateRegister--><g id="link_Register_ValidateRegister"><path d="M155.27,280.64 C125.99,294.36 80.98,316.16 75.5,323 C55.87,347.5 48.97,383.51 46.61,408.69 " fill="none" id="Register-to-ValidateRegister" style="stroke:#181818;stroke-width:1.0;"/><polygon fill="#181818" points="46.17,413.89,50.9015,405.2521,46.584,408.9072,42.929,404.5897,46.17,413.89" style="stroke:#181818;stroke-width:1.0;"/><text fill="#000000" font-family="sans-serif" font-size="13" lengthAdjust="spacing" textLength="109" x="77" y="336.1938">El sistema permite</text><text fill="#000000" font-family="sans-serif" font-size="13" lengthAdjust="spacing" textLength="72" x="95.5" y="351.1426">ingresar U:P</text><text fill="#000000" font-family="sans-serif" font-size="13" lengthAdjust="spacing" textLength="110" x="76.5" y="366.0913">e invoca el registro</text><text fill="#000000" font-family="sans-serif" font-size="13" lengthAdjust="spacing" textLength="60" x="101.5" y="381.04">o cancelar</text></g><!--MD5=[bd86f44c4471914f6e87e3169d203761]
reverse link OpenGame to ValidateRegister--><g id="link_OpenGame_ValidateRegister"><path d="M320.85,116.12 C244.32,123.81 104.62,150.5 41.5,243 C6,295.02 24.2,374.39 36.8,413.9 " fill="none" id="OpenGame-backto-ValidateRegister" style="stroke:#181818;stroke-width:1.0;"/><polygon fill="#181818" points="326.25,115.6,316.9126,112.4675,321.2723,116.072,317.6678,120.4318,326.25,115.6" style="stroke:#181818;stroke-width:1.0;"/><text fill="#000000" font-family="sans-serif" font-size="13" lengthAdjust="spacing" textLength="58" x="60.5" y="265.6938">El usuario</text><text fill="#000000" font-family="sans-serif" font-size="13" lengthAdjust="spacing" textLength="94" x="42.5" y="280.6426">solicita cancelar</text></g><!--MD5=[53566619e188dc6f96da69007a20a776]
link ValidateRegister to ValidarRegistro--><g id="link_ValidateRegister_ValidarRegistro"><path d="M49.1,464.15 C53.06,482.94 61.2,508.52 77.5,525 C112.33,560.19 172.7,572.94 201.01,577.14 " fill="none" id="ValidateRegister-to-ValidarRegistro" style="stroke:#181818;stroke-width:1.0;"/><polygon fill="#181818" points="206.22,577.87,197.853,572.6745,201.2672,577.1849,196.7568,580.5991,206.22,577.87" style="stroke:#181818;stroke-width:1.0;"/><text fill="#000000" font-family="sans-serif" font-size="13" lengthAdjust="spacing" textLength="130" x="78.5" y="507.1938">El jugador ingresa U:P</text><text fill="#000000" font-family="sans-serif" font-size="13" lengthAdjust="spacing" textLength="117" x="85" y="522.1426">y solicita registrarse</text></g><!--MD5=[519c801a8179565d7e4b79b169f88009]
link ValidarRegistro to ShowGameSpecification--><g id="link_ValidarRegistro_ShowGameSpecification"><path d="M228.54,580 C238.41,580 248.28,580 258.15,580 " fill="none" id="ValidarRegistro-to-ShowGameSpecification" style="stroke:#181818;stroke-width:1.0;"/><polygon fill="#181818" points="263.32,580,254.32,576,258.32,580,254.32,584,263.32,580" style="stroke:#181818;stroke-width:1.0;"/></g><!--MD5=[61b5c7a2db8cc9c943655abd06405391]
reverse link ShowError to ValidarRegistro--><g id="link_ShowError_ValidarRegistro"><path d="M217.29,469.39 C217.07,500.2 216.73,547.01 216.58,568.06 " fill="none" id="ShowError-backto-ValidarRegistro" style="stroke:#181818;stroke-width:1.0;"/><polygon fill="#181818" points="217.33,464.21,213.2786,473.187,217.3014,469.2099,221.2785,473.2327,217.33,464.21" style="stroke:#181818;stroke-width:1.0;"/><text fill="#000000" font-family="sans-serif" font-size="13" lengthAdjust="spacing" textLength="67" x="218.5" y="514.6938">[U repetido]</text></g><!--MD5=[3f9a42abd491a7a00cf33a951fb606aa]
reverse link Register to ShowError--><g id="link_Register_ShowError"><path d="M189.03,298 C191.27,306.06 193.59,314.84 195.5,323 C202.78,354.07 209.4,390.29 213.44,413.65 " fill="none" id="Register-backto-ShowError" style="stroke:#181818;stroke-width:1.0;"/><polygon fill="#181818" points="187.64,293.08,186.232,302.8277,188.9966,297.8924,193.9319,300.6571,187.64,293.08" style="stroke:#181818;stroke-width:1.0;"/></g><!--MD5=[47892955606f17aa53f4ccf943f2a06c]
@startuml
State Login as " "
State WrongPassword as " "
State Register as " "
State ValidateRegister as " "
State Validar <<choice>>
State ValidarRegistro <<choice>>

[*] -d-> OpenGame
OpenGame -d-> Login: El sistema permite\ningresar U:P\no registrar un usuario
Login -l-> Register: El jugador\nsolicita registrarse
Login -d-> Validar: El jugador ingresa U:P
Validar -d-> ShowGameSpecification
ShowGameSpecification -d-> ClosedGame
Validar - - -r-> WrongPassword: [U:P incorrectos]
WrongPassword - -u-> OpenGame: El sistema\nmuestra error
Register -d-> ValidateRegister: El sistema permite\ningresar U:P\ne invoca el registro\no cancelar
ValidateRegister -u-> OpenGame: El usuario\nsolicita cancelar
ValidateRegister -d-> ValidarRegistro: El jugador ingresa U:P\ny solicita registrarse
ValidarRegistro -r-> ShowGameSpecification
ValidarRegistro -u-> ShowError: [U repetido]
ShowError -u-> Register
@enduml

PlantUML version 1.2022.7(Mon Aug 22 19:01:30 CEST 2022)
(GPL source distribution)
Java Runtime: OpenJDK Runtime Environment
JVM: OpenJDK 64-Bit Server VM
Default Encoding: UTF-8
Language: es
Country: ES
--></g></svg>