<svg xmlns="http://www.w3.org/2000/svg" xmlns:xlink="http://www.w3.org/1999/xlink" contentStyleType="text/css" data-diagram-type="CLASS" height="437px" preserveAspectRatio="none" style="width:581px;height:437px;background:#FFFFFF;" version="1.1" viewBox="0 0 581 437" width="581px" zoomAndPan="magnify"><defs/><g><!--class Simulacion--><g class="entity" data-entity="Simulacion" data-source-line="1" data-uid="ent0002" id="entity_Simulacion"><rect fill="#F1F1F1" height="48" rx="2.5" ry="2.5" style="stroke:#181818;stroke-width:0.5;" width="108.7813" x="289.95" y="7"/><ellipse cx="304.95" cy="23" fill="#ADD1B2" rx="11" ry="11" style="stroke:#181818;stroke-width:1;"/><path d="M307.9188,28.6406 Q307.3406,28.9375 306.7,29.0781 Q306.0594,29.2344 305.3563,29.2344 Q302.8563,29.2344 301.5281,27.5938 Q300.2156,25.9375 300.2156,22.8125 Q300.2156,19.6875 301.5281,18.0313 Q302.8563,16.375 305.3563,16.375 Q306.0594,16.375 306.7,16.5313 Q307.3563,16.6875 307.9188,16.9844 L307.9188,19.7031 Q307.2938,19.125 306.7,18.8594 Q306.1063,18.5781 305.4813,18.5781 Q304.1375,18.5781 303.45,19.6563 Q302.7625,20.7188 302.7625,22.8125 Q302.7625,24.9063 303.45,25.9844 Q304.1375,27.0469 305.4813,27.0469 Q306.1063,27.0469 306.7,26.7813 Q307.2938,26.5 307.9188,25.9219 L307.9188,28.6406 Z " fill="#000000"/><text fill="#000000" font-family="sans-serif" font-size="14" lengthAdjust="spacing" textLength="76.7813" x="318.95" y="27.8467">Simulacion</text><line style="stroke:#181818;stroke-width:0.5;" x1="290.95" x2="397.7313" y1="39" y2="39"/><line style="stroke:#181818;stroke-width:0.5;" x1="290.95" x2="397.7313" y1="47" y2="47"/></g><!--class Cola--><g class="entity" data-entity="Cola" data-source-line="3" data-uid="ent0003" id="entity_Cola"><rect fill="#F1F1F1" height="48" rx="2.5" ry="2.5" style="stroke:#181818;stroke-width:0.5;" width="62.8096" x="361.94" y="132"/><ellipse cx="376.94" cy="148" fill="#ADD1B2" rx="11" ry="11" style="stroke:#181818;stroke-width:1;"/><path d="M379.9088,153.6406 Q379.3306,153.9375 378.69,154.0781 Q378.0494,154.2344 377.3463,154.2344 Q374.8463,154.2344 373.5181,152.5938 Q372.2056,150.9375 372.2056,147.8125 Q372.2056,144.6875 373.5181,143.0313 Q374.8463,141.375 377.3463,141.375 Q378.0494,141.375 378.69,141.5313 Q379.3463,141.6875 379.9088,141.9844 L379.9088,144.7031 Q379.2838,144.125 378.69,143.8594 Q378.0963,143.5781 377.4713,143.5781 Q376.1275,143.5781 375.44,144.6563 Q374.7525,145.7188 374.7525,147.8125 Q374.7525,149.9063 375.44,150.9844 Q376.1275,152.0469 377.4713,152.0469 Q378.0963,152.0469 378.69,151.7813 Q379.2838,151.5 379.9088,150.9219 L379.9088,153.6406 Z " fill="#000000"/><text fill="#000000" font-family="sans-serif" font-size="14" lengthAdjust="spacing" textLength="30.8096" x="390.94" y="152.8467">Cola</text><line style="stroke:#181818;stroke-width:0.5;" x1="362.94" x2="423.7496" y1="164" y2="164"/><line style="stroke:#181818;stroke-width:0.5;" x1="362.94" x2="423.7496" y1="172" y2="172"/></g><!--class Caja--><g class="entity" data-entity="Caja" data-source-line="5" data-uid="ent0004" id="entity_Caja"><rect fill="#F1F1F1" height="48" rx="2.5" ry="2.5" style="stroke:#181818;stroke-width:0.5;" width="62.8232" x="263.93" y="132"/><ellipse cx="278.93" cy="148" fill="#ADD1B2" rx="11" ry="11" style="stroke:#181818;stroke-width:1;"/><path d="M281.8988,153.6406 Q281.3206,153.9375 280.68,154.0781 Q280.0394,154.2344 279.3363,154.2344 Q276.8363,154.2344 275.5081,152.5938 Q274.1956,150.9375 274.1956,147.8125 Q274.1956,144.6875 275.5081,143.0313 Q276.8363,141.375 279.3363,141.375 Q280.0394,141.375 280.68,141.5313 Q281.3363,141.6875 281.8988,141.9844 L281.8988,144.7031 Q281.2738,144.125 280.68,143.8594 Q280.0863,143.5781 279.4613,143.5781 Q278.1175,143.5781 277.43,144.6563 Q276.7425,145.7188 276.7425,147.8125 Q276.7425,149.9063 277.43,150.9844 Q278.1175,152.0469 279.4613,152.0469 Q280.0863,152.0469 280.68,151.7813 Q281.2738,151.5 281.8988,150.9219 L281.8988,153.6406 Z " fill="#000000"/><text fill="#000000" font-family="sans-serif" font-size="14" lengthAdjust="spacing" textLength="30.8232" x="292.93" y="152.8467">Caja</text><line style="stroke:#181818;stroke-width:0.5;" x1="264.93" x2="325.7532" y1="164" y2="164"/><line style="stroke:#181818;stroke-width:0.5;" x1="264.93" x2="325.7532" y1="172" y2="172"/></g><!--class Estadisticas--><g class="entity" data-entity="Estadisticas" data-source-line="7" data-uid="ent0005" id="entity_Estadisticas"><rect fill="#F1F1F1" height="48" rx="2.5" ry="2.5" style="stroke:#181818;stroke-width:0.5;" width="115.2275" x="459.73" y="132"/><ellipse cx="474.73" cy="148" fill="#ADD1B2" rx="11" ry="11" style="stroke:#181818;stroke-width:1;"/><path d="M477.6988,153.6406 Q477.1206,153.9375 476.48,154.0781 Q475.8394,154.2344 475.1363,154.2344 Q472.6363,154.2344 471.3081,152.5938 Q469.9956,150.9375 469.9956,147.8125 Q469.9956,144.6875 471.3081,143.0313 Q472.6363,141.375 475.1363,141.375 Q475.8394,141.375 476.48,141.5313 Q477.1363,141.6875 477.6988,141.9844 L477.6988,144.7031 Q477.0738,144.125 476.48,143.8594 Q475.8863,143.5781 475.2613,143.5781 Q473.9175,143.5781 473.23,144.6563 Q472.5425,145.7188 472.5425,147.8125 Q472.5425,149.9063 473.23,150.9844 Q473.9175,152.0469 475.2613,152.0469 Q475.8863,152.0469 476.48,151.7813 Q477.0738,151.5 477.6988,150.9219 L477.6988,153.6406 Z " fill="#000000"/><text fill="#000000" font-family="sans-serif" font-size="14" lengthAdjust="spacing" textLength="83.2275" x="488.73" y="152.8467">Estadisticas</text><line style="stroke:#181818;stroke-width:0.5;" x1="460.73" x2="573.9575" y1="164" y2="164"/><line style="stroke:#181818;stroke-width:0.5;" x1="460.73" x2="573.9575" y1="172" y2="172"/></g><!--class GestorCajas--><g class="entity" data-entity="GestorCajas" data-source-line="9" data-uid="ent0006" id="entity_GestorCajas"><rect fill="#F1F1F1" height="48" rx="2.5" ry="2.5" style="stroke:#181818;stroke-width:0.5;" width="116.6836" x="7" y="132"/><ellipse cx="22" cy="148" fill="#ADD1B2" rx="11" ry="11" style="stroke:#181818;stroke-width:1;"/><path d="M24.9688,153.6406 Q24.3906,153.9375 23.75,154.0781 Q23.1094,154.2344 22.4063,154.2344 Q19.9063,154.2344 18.5781,152.5938 Q17.2656,150.9375 17.2656,147.8125 Q17.2656,144.6875 18.5781,143.0313 Q19.9063,141.375 22.4063,141.375 Q23.1094,141.375 23.75,141.5313 Q24.4063,141.6875 24.9688,141.9844 L24.9688,144.7031 Q24.3438,144.125 23.75,143.8594 Q23.1563,143.5781 22.5313,143.5781 Q21.1875,143.5781 20.5,144.6563 Q19.8125,145.7188 19.8125,147.8125 Q19.8125,149.9063 20.5,150.9844 Q21.1875,152.0469 22.5313,152.0469 Q23.1563,152.0469 23.75,151.7813 Q24.3438,151.5 24.9688,150.9219 L24.9688,153.6406 Z " fill="#000000"/><text fill="#000000" font-family="sans-serif" font-size="14" lengthAdjust="spacing" textLength="84.6836" x="36" y="152.8467">GestorCajas</text><line style="stroke:#181818;stroke-width:0.5;" x1="8" x2="122.6836" y1="164" y2="164"/><line style="stroke:#181818;stroke-width:0.5;" x1="8" x2="122.6836" y1="172" y2="172"/></g><!--class Cliente--><g class="entity" data-entity="Cliente" data-source-line="11" data-uid="ent0007" id="entity_Cliente"><rect fill="#F1F1F1" height="48" rx="2.5" ry="2.5" style="stroke:#181818;stroke-width:0.5;" width="81.1436" x="332.77" y="257"/><ellipse cx="347.77" cy="273" fill="#ADD1B2" rx="11" ry="11" style="stroke:#181818;stroke-width:1;"/><path d="M350.7388,278.6406 Q350.1606,278.9375 349.52,279.0781 Q348.8794,279.2344 348.1763,279.2344 Q345.6763,279.2344 344.3481,277.5938 Q343.0356,275.9375 343.0356,272.8125 Q343.0356,269.6875 344.3481,268.0313 Q345.6763,266.375 348.1763,266.375 Q348.8794,266.375 349.52,266.5313 Q350.1763,266.6875 350.7388,266.9844 L350.7388,269.7031 Q350.1138,269.125 349.52,268.8594 Q348.9263,268.5781 348.3013,268.5781 Q346.9575,268.5781 346.27,269.6563 Q345.5825,270.7188 345.5825,272.8125 Q345.5825,274.9063 346.27,275.9844 Q346.9575,277.0469 348.3013,277.0469 Q348.9263,277.0469 349.52,276.7813 Q350.1138,276.5 350.7388,275.9219 L350.7388,278.6406 Z " fill="#000000"/><text fill="#000000" font-family="sans-serif" font-size="14" lengthAdjust="spacing" textLength="49.1436" x="361.77" y="277.8467">Cliente</text><line style="stroke:#181818;stroke-width:0.5;" x1="333.77" x2="412.9136" y1="289" y2="289"/><line style="stroke:#181818;stroke-width:0.5;" x1="333.77" x2="412.9136" y1="297" y2="297"/></g><!--class Item--><g class="entity" data-entity="Item" data-source-line="21" data-uid="ent0015" id="entity_Item"><rect fill="#F1F1F1" height="48" rx="2.5" ry="2.5" style="stroke:#181818;stroke-width:0.5;" width="63.8691" x="241.41" y="382"/><ellipse cx="256.41" cy="398" fill="#ADD1B2" rx="11" ry="11" style="stroke:#181818;stroke-width:1;"/><path d="M259.3787,403.6406 Q258.8006,403.9375 258.16,404.0781 Q257.5194,404.2344 256.8162,404.2344 Q254.3162,404.2344 252.9881,402.5938 Q251.6756,400.9375 251.6756,397.8125 Q251.6756,394.6875 252.9881,393.0313 Q254.3162,391.375 256.8162,391.375 Q257.5194,391.375 258.16,391.5313 Q258.8162,391.6875 259.3787,391.9844 L259.3787,394.7031 Q258.7537,394.125 258.16,393.8594 Q257.5662,393.5781 256.9412,393.5781 Q255.5975,393.5781 254.91,394.6563 Q254.2225,395.7188 254.2225,397.8125 Q254.2225,399.9063 254.91,400.9844 Q255.5975,402.0469 256.9412,402.0469 Q257.5662,402.0469 258.16,401.7813 Q258.7537,401.5 259.3787,400.9219 L259.3787,403.6406 Z " fill="#000000"/><text fill="#000000" font-family="sans-serif" font-size="14" lengthAdjust="spacing" textLength="31.8691" x="270.41" y="402.8467">Item</text><line style="stroke:#181818;stroke-width:0.5;" x1="242.41" x2="304.2791" y1="414" y2="414"/><line style="stroke:#181818;stroke-width:0.5;" x1="242.41" x2="304.2791" y1="422" y2="422"/></g><!--link Simulacion to Cola--><g class="link" data-entity-1="Simulacion" data-entity-2="Cola" data-source-line="14" data-uid="lnk8" id="link_Simulacion_Cola"><path codeLine="14" d="M353.67,55.42 C362.39,77.31 373.1213,104.2253 381.8213,126.0853 " fill="none" id="Simulacion-to-Cola" style="stroke:#181818;stroke-width:1;"/><polygon fill="#181818" points="384.04,131.66,384.4285,121.8188,382.1911,127.0144,376.9955,124.777,384.04,131.66" style="stroke:#181818;stroke-width:1;"/><text fill="#000000" font-family="sans-serif" font-size="13" lengthAdjust="spacing" textLength="28.4565" x="373.34" y="98.0669">crea</text></g><!--link Simulacion to Caja--><g class="link" data-entity-1="Simulacion" data-entity-2="Caja" data-source-line="15" data-uid="lnk9" id="link_Simulacion_Caja"><path codeLine="15" d="M335.01,55.42 C326.29,77.31 315.5709,104.2262 306.8609,126.0862 " fill="none" id="Simulacion-to-Caja" style="stroke:#181818;stroke-width:1;"/><polygon fill="#181818" points="304.64,131.66,311.6872,124.7798,306.4907,127.0151,304.2554,121.8187,304.64,131.66" style="stroke:#181818;stroke-width:1;"/><text fill="#000000" font-family="sans-serif" font-size="13" lengthAdjust="spacing" textLength="28.4565" x="324.34" y="98.0669">crea</text></g><!--link Simulacion to Estadisticas--><g class="link" data-entity-1="Simulacion" data-entity-2="Estadisticas" data-source-line="16" data-uid="lnk10" id="link_Simulacion_Estadisticas"><path codeLine="16" d="M377.29,55.42 C408.07,77.31 448.8798,106.3236 479.6298,128.1836 " fill="none" id="Simulacion-to-Estadisticas" style="stroke:#181818;stroke-width:1;"/><polygon fill="#181818" points="484.52,131.66,479.5023,123.1852,480.4448,128.763,474.867,129.7055,484.52,131.66" style="stroke:#181818;stroke-width:1;"/><text fill="#000000" font-family="sans-serif" font-size="13" lengthAdjust="spacing" textLength="100.0835" x="442.34" y="98.0669">permite acceso</text></g><!--link Simulacion to GestorCajas--><g class="link" data-entity-1="Simulacion" data-entity-2="GestorCajas" data-source-line="17" data-uid="lnk11" id="link_Simulacion_GestorCajas"><path codeLine="17" d="M291.21,55.42 C241.56,77.31 173.3501,107.3794 123.7701,129.2394 " fill="none" id="Simulacion-to-GestorCajas" style="stroke:#181818;stroke-width:1;"/><polygon fill="#181818" points="118.28,131.66,128.1288,131.6892,122.855,129.6428,124.9014,124.3691,118.28,131.66" style="stroke:#181818;stroke-width:1;"/><text fill="#000000" font-family="sans-serif" font-size="13" lengthAdjust="spacing" textLength="28.4565" x="223.34" y="98.0669">crea</text></g><!--link GestorCajas to Caja--><g class="link" data-entity-1="GestorCajas" data-entity-2="Caja" data-source-line="18" data-uid="lnk12" id="link_GestorCajas_Caja"><path codeLine="18" d="M123.98,156 C168.43,156 221.81,156 257.73,156 " fill="none" id="GestorCajas-to-Caja" style="stroke:#181818;stroke-width:1;"/><polygon fill="#181818" points="263.73,156,254.73,152,258.73,156,254.73,160,263.73,156" style="stroke:#181818;stroke-width:1;"/><text fill="#000000" font-family="sans-serif" font-size="13" lengthAdjust="spacing" textLength="104.0635" x="141.81" y="149.0669">gestiona estado</text></g><!--link Cola to Cliente--><g class="link" data-entity-1="Cola" data-entity-2="Cliente" data-source-line="19" data-uid="lnk13" id="link_Cola_Cliente"><path codeLine="19" d="M389.53,180.42 C385.97,202.31 381.6518,228.8776 378.1018,250.7376 " fill="none" id="Cola-to-Cliente" style="stroke:#181818;stroke-width:1;"/><polygon fill="#181818" points="377.14,256.66,382.5309,248.4176,377.9415,251.7247,374.6344,247.1352,377.14,256.66" style="stroke:#181818;stroke-width:1;"/><text fill="#000000" font-family="sans-serif" font-size="13" lengthAdjust="spacing" textLength="63.5591" x="386.34" y="223.0669">almacena</text></g><!--link Caja to Cliente--><g class="link" data-entity-1="Caja" data-entity-2="Cliente" data-source-line="20" data-uid="lnk14" id="link_Caja_Cliente"><path codeLine="20" d="M302.25,180.43 C307,194.56 314.11,212.55 323.34,227 C330.08,237.55 334.892,243.5832 343.402,252.2732 " fill="none" id="Caja-to-Cliente" style="stroke:#181818;stroke-width:1;"/><polygon fill="#181818" points="347.6,256.56,344.1609,247.3311,344.1017,252.9877,338.4451,252.9285,347.6,256.56" style="stroke:#181818;stroke-width:1;"/><text fill="#000000" font-family="sans-serif" font-size="13" lengthAdjust="spacing" textLength="49.1626" x="324.34" y="223.0669">atiende</text></g><!--reverse link Item to Caja--><g class="link" data-entity-1="Item" data-entity-2="Caja" data-source-line="21" data-uid="lnk16" id="link_Item_Caja"><path codeLine="21" d="M267.124,375.6366 C261.524,346.3266 255.33,300.63 262.34,257 C266.69,229.92 277.28,200.25 285.29,180.31 " fill="none" id="Item-backto-Caja" style="stroke:#181818;stroke-width:1;"/><polygon fill="#181818" points="268.25,381.53,270.4899,371.9392,267.3117,376.6188,262.6321,373.4406,268.25,381.53" style="stroke:#181818;stroke-width:1;"/><text fill="#000000" font-family="sans-serif" font-size="13" lengthAdjust="spacing" textLength="51.4351" x="263.34" y="285.5669">procesa</text></g><!--link Cliente to Item--><g class="link" data-entity-1="Cliente" data-entity-2="Item" data-source-line="22" data-uid="lnk17" id="link_Cliente_Item"><path codeLine="22" d="M354.3,305.42 C336.5,327.31 313.8747,355.1442 296.1047,377.0042 " fill="none" id="Cliente-to-Item" style="stroke:#181818;stroke-width:1;"/><polygon fill="#181818" points="292.32,381.66,301.1009,377.1995,295.4739,377.7802,294.8932,372.1532,292.32,381.66" style="stroke:#181818;stroke-width:1;"/><text fill="#000000" font-family="sans-serif" font-size="13" lengthAdjust="spacing" textLength="26.4063" x="330.34" y="348.0669">trae</text></g><!--SRC=[TK_D2i8m3BxtAKhlVG4HBqF4iqyGiY2LTXrjF8dlRjgD4HtUck-_6A5MUmlf6G53dkpBl0rsSCWHz0aFVPuhmnWg1uIgu0jLpgLfDJh4G1DJHumgy_wqr1oimqBWTcGh_KT-JH3HJ2K5QG54gdadrzEsI0sglhl0uWDBhKEo-ig-QFsAY20cG9eafTj-MPRdICvScP8zUh-5poNBm6PRrStPLK9o0N8V]--></g></svg>