<svg xmlns="http://www.w3.org/2000/svg" xmlns:xlink="http://www.w3.org/1999/xlink" contentStyleType="text/css" data-diagram-type="STATE" height="682px" preserveAspectRatio="none" style="width:278px;height:682px;background:#FFFFFF;" version="1.1" viewBox="0 0 278 682" width="278px" zoomAndPan="magnify"><defs/><g><ellipse cx="90.48" cy="32.14" fill="#222222" rx="10" ry="10" style="stroke:#222222;stroke-width:1;"/><g id="Limpia"><rect fill="#F1F1F1" height="50" rx="12.5" ry="12.5" style="stroke:#181818;stroke-width:0.5;" width="66.6826" x="57.14" y="118.27"/><line style="stroke:#181818;stroke-width:0.5;" x1="57.14" x2="123.8226" y1="144.5669" y2="144.5669"/><text fill="#000000" font-family="sans-serif" font-size="14" lengthAdjust="spacing" textLength="46.6826" x="67.14" y="136.2651">Limpia</text></g><g id="LigeraSuciedad"><rect fill="#F1F1F1" height="50" rx="12.5" ry="12.5" style="stroke:#181818;stroke-width:0.5;" width="127.8369" x="26.57" y="245.27"/><line style="stroke:#181818;stroke-width:0.5;" x1="26.57" x2="154.4069" y1="271.5669" y2="271.5669"/><text fill="#000000" font-family="sans-serif" font-size="14" lengthAdjust="spacing" textLength="107.8369" x="36.57" y="263.2651">LigeraSuciedad</text></g><g id="ModeradaSuciedad"><rect fill="#F1F1F1" height="50" rx="12.5" ry="12.5" style="stroke:#181818;stroke-width:0.5;" width="154.2578" x="13.36" y="372.27"/><line style="stroke:#181818;stroke-width:0.5;" x1="13.36" x2="167.6178" y1="398.5669" y2="398.5669"/><text fill="#000000" font-family="sans-serif" font-size="14" lengthAdjust="spacing" textLength="134.2578" x="23.36" y="390.2651">ModeradaSuciedad</text></g><g id="AltaSuciedad"><rect fill="#F1F1F1" height="50" rx="12.5" ry="12.5" style="stroke:#181818;stroke-width:0.5;" width="111.8477" x="34.56" y="499.27"/><line style="stroke:#181818;stroke-width:0.5;" x1="34.56" x2="146.4077" y1="525.5669" y2="525.5669"/><text fill="#000000" font-family="sans-serif" font-size="14" lengthAdjust="spacing" textLength="91.8477" x="44.56" y="517.2651">AltaSuciedad</text></g><g id="MuySucia"><rect fill="#F1F1F1" height="50" rx="12.5" ry="12.5" style="stroke:#181818;stroke-width:0.5;" width="87.1631" x="46.9" y="626.27"/><line style="stroke:#181818;stroke-width:0.5;" x1="46.9" x2="134.0631" y1="652.5669" y2="652.5669"/><text fill="#000000" font-family="sans-serif" font-size="14" lengthAdjust="spacing" textLength="67.1631" x="56.9" y="644.2651">MuySucia</text></g><g id="ZonaRecarga"><rect fill="#F1F1F1" height="50.2656" rx="12.5" ry="12.5" style="stroke:#181818;stroke-width:0.5;" width="136.5723" x="135.2" y="7"/><line style="stroke:#181818;stroke-width:0.5;" x1="135.2" x2="271.7723" y1="33.2969" y2="33.2969"/><text fill="#000000" font-family="sans-serif" font-size="14" lengthAdjust="spacing" textLength="93.4473" x="156.7625" y="24.9951">ZonaRecarga</text><text fill="#000000" font-family="sans-serif" font-size="12" lengthAdjust="spacing" textLength="116.5723" x="140.2" y="49.4355">"Nunca se ensucia"</text></g><!--link *start* to Limpia--><g class="link" data-entity-1="*start*" data-entity-2="Limpia" data-source-line="1" data-uid="lnk4" id="link_*start*_Limpia"><path d="M90.48,42.44 C90.48,59.04 90.48,88.24 90.48,112.09" fill="none" id="*start*-to-Limpia" style="stroke:#181818;stroke-width:1;"/><polygon fill="#181818" points="90.48,118.09,94.48,109.09,90.48,113.09,86.48,109.09,90.48,118.09" style="stroke:#181818;stroke-width:1;"/></g><!--link Limpia to LigeraSuciedad--><g class="link" data-entity-1="Limpia" data-entity-2="LigeraSuciedad" data-source-line="3" data-uid="lnk6" id="link_Limpia_LigeraSuciedad"><path d="M56.71,160.51 C42.13,169.45 26.59,182.06 18.48,198.27 C9.46,216.33 18.1428,229.0662 35.8728,241.3862" fill="none" id="Limpia-to-LigeraSuciedad" style="stroke:#181818;stroke-width:1;"/><polygon fill="#181818" points="40.8,244.81,35.6917,236.3895,36.694,241.9568,31.1266,242.9592,40.8,244.81" style="stroke:#181818;stroke-width:1;"/><text fill="#000000" font-family="sans-serif" font-size="13" lengthAdjust="spacing" textLength="97.1572" x="19.48" y="211.3369">"Gato ensucia"</text></g><!--link LigeraSuciedad to Limpia--><g class="link" data-entity-1="LigeraSuciedad" data-entity-2="Limpia" data-source-line="11" data-uid="lnk16" id="link_LigeraSuciedad_Limpia"><path d="M108.05,244.92 C113.47,236.03 118.73,225.61 121.48,215.27 C125.78,199.16 121.8522,187.0577 113.3522,173.6477" fill="none" id="LigeraSuciedad-to-Limpia" style="stroke:#181818;stroke-width:1;"/><polygon fill="#181818" points="110.14,168.58,111.5798,178.323,112.8168,172.8031,118.3368,174.0401,110.14,168.58" style="stroke:#181818;stroke-width:1;"/><text fill="#000000" font-family="sans-serif" font-size="13" lengthAdjust="spacing" textLength="126.166" x="123.48" y="211.3369">"Aspiradora limpia"</text></g><!--link LigeraSuciedad to ModeradaSuciedad--><g class="link" data-entity-1="LigeraSuciedad" data-entity-2="ModeradaSuciedad" data-source-line="4" data-uid="lnk8" id="link_LigeraSuciedad_ModeradaSuciedad"><path d="M43.36,295.51 C32.59,303.45 22.54,313.36 16.48,325.27 C7.21,343.52 16.225,356.346 34.455,368.636" fill="none" id="LigeraSuciedad-to-ModeradaSuciedad" style="stroke:#181818;stroke-width:1;"/><polygon fill="#181818" points="39.43,371.99,34.2035,363.6424,35.2841,369.195,29.7315,370.2757,39.43,371.99" style="stroke:#181818;stroke-width:1;"/><text fill="#000000" font-family="sans-serif" font-size="13" lengthAdjust="spacing" textLength="100.2866" x="17.48" y="338.3369">"M&#225;s suciedad"</text></g><!--link ModeradaSuciedad to LigeraSuciedad--><g class="link" data-entity-1="ModeradaSuciedad" data-entity-2="LigeraSuciedad" data-source-line="10" data-uid="lnk15" id="link_ModeradaSuciedad_LigeraSuciedad"><path d="M110.77,372 C119.55,358.6 126.92,341.44 122.48,325.27 C119.63,314.87 117.3964,309.5077 111.8064,300.6277" fill="none" id="ModeradaSuciedad-to-LigeraSuciedad" style="stroke:#181818;stroke-width:1;"/><polygon fill="#181818" points="108.61,295.55,110.0195,305.2975,111.2737,299.7814,116.7898,301.0356,108.61,295.55" style="stroke:#181818;stroke-width:1;"/><text fill="#000000" font-family="sans-serif" font-size="13" lengthAdjust="spacing" textLength="126.166" x="124.48" y="338.3369">"Aspiradora limpia"</text></g><!--link ModeradaSuciedad to AltaSuciedad--><g class="link" data-entity-1="ModeradaSuciedad" data-entity-2="AltaSuciedad" data-source-line="5" data-uid="lnk10" id="link_ModeradaSuciedad_AltaSuciedad"><path d="M43.36,422.51 C32.59,430.45 22.54,440.36 16.48,452.27 C7.21,470.52 16.225,483.346 34.455,495.636" fill="none" id="ModeradaSuciedad-to-AltaSuciedad" style="stroke:#181818;stroke-width:1;"/><polygon fill="#181818" points="39.43,498.99,34.2035,490.6424,35.2841,496.195,29.7315,497.2757,39.43,498.99" style="stroke:#181818;stroke-width:1;"/><text fill="#000000" font-family="sans-serif" font-size="13" lengthAdjust="spacing" textLength="100.2866" x="17.48" y="465.3369">"M&#225;s suciedad"</text></g><!--link AltaSuciedad to ModeradaSuciedad--><g class="link" data-entity-1="AltaSuciedad" data-entity-2="ModeradaSuciedad" data-source-line="9" data-uid="lnk14" id="link_AltaSuciedad_ModeradaSuciedad"><path d="M110.77,499 C119.55,485.6 126.92,468.44 122.48,452.27 C119.63,441.87 117.3964,436.5077 111.8064,427.6277" fill="none" id="AltaSuciedad-to-ModeradaSuciedad" style="stroke:#181818;stroke-width:1;"/><polygon fill="#181818" points="108.61,422.55,110.0195,432.2975,111.2737,426.7814,116.7898,428.0356,108.61,422.55" style="stroke:#181818;stroke-width:1;"/><text fill="#000000" font-family="sans-serif" font-size="13" lengthAdjust="spacing" textLength="126.166" x="124.48" y="465.3369">"Aspiradora limpia"</text></g><!--link AltaSuciedad to MuySucia--><g class="link" data-entity-1="AltaSuciedad" data-entity-2="MuySucia" data-source-line="6" data-uid="lnk12" id="link_AltaSuciedad_MuySucia"><path d="M43.36,549.51 C32.59,557.45 22.54,567.36 16.48,579.27 C6,599.9 20.0863,614.8345 41.5663,627.5445" fill="none" id="AltaSuciedad-to-MuySucia" style="stroke:#181818;stroke-width:1;"/><polygon fill="#181818" points="46.73,630.6,41.0214,622.5743,42.4269,628.0538,36.9474,629.4593,46.73,630.6" style="stroke:#181818;stroke-width:1;"/><text fill="#000000" font-family="sans-serif" font-size="13" lengthAdjust="spacing" textLength="100.2866" x="17.48" y="592.3369">"M&#225;s suciedad"</text></g><!--link MuySucia to AltaSuciedad--><g class="link" data-entity-1="MuySucia" data-entity-2="AltaSuciedad" data-source-line="8" data-uid="lnk13" id="link_MuySucia_AltaSuciedad"><path d="M110.77,626 C119.55,612.6 126.92,595.44 122.48,579.27 C119.63,568.87 117.3964,563.5077 111.8064,554.6277" fill="none" id="MuySucia-to-AltaSuciedad" style="stroke:#181818;stroke-width:1;"/><polygon fill="#181818" points="108.61,549.55,110.0195,559.2975,111.2737,553.7814,116.7898,555.0356,108.61,549.55" style="stroke:#181818;stroke-width:1;"/><text fill="#000000" font-family="sans-serif" font-size="13" lengthAdjust="spacing" textLength="126.166" x="124.48" y="592.3369">"Aspiradora limpia"</text></g><!--SRC=[YzQALT3LjLFmoSmjo4paueBGKA7qrAB4uDBapDIKn1G5AmKbzyIIV8NKl6AWKA8I5veyI8jlVWfGA0L5a-_XXSKAnL019IuC9I1zZZab-FIWI8FjAQq4yHEngEM2os4psB6u81DeUtvHea8EsAVO3CVY2Ipwi7e4CyomwCGISD1WnwwUAoe_Bp4eDJcnA1sinAyqBpbHeJWL7XK0]--></g></svg>