<svg xmlns="http://www.w3.org/2000/svg" xmlns:xlink="http://www.w3.org/1999/xlink" contentStyleType="text/css" data-diagram-type="STATE" height="1159px" preserveAspectRatio="none" style="width:402px;height:1159px;background:#FFFFFF;" version="1.1" viewBox="0 0 402 1159" width="402px" zoomAndPan="magnify"><defs/><g><ellipse cx="199.61" cy="16" fill="#222222" rx="10" ry="10" style="stroke:#222222;stroke-width:1;"/><g id="Carga_Completa"><rect fill="#F1F1F1" height="50" rx="12.5" ry="12.5" style="stroke:#181818;stroke-width:0.5;" width="136.0127" x="131.6" y="87"/><line style="stroke:#181818;stroke-width:0.5;" x1="131.6" x2="267.6127" y1="113.2969" y2="113.2969"/><text fill="#000000" font-family="sans-serif" font-size="14" lengthAdjust="spacing" textLength="116.0127" x="141.6" y="104.9951">Carga_Completa</text></g><g id="Alta"><rect fill="#F1F1F1" height="50" rx="12.5" ry="12.5" style="stroke:#181818;stroke-width:0.5;" width="50" x="97.61" y="214"/><line style="stroke:#181818;stroke-width:0.5;" x1="97.61" x2="147.61" y1="240.2969" y2="240.2969"/><text fill="#000000" font-family="sans-serif" font-size="14" lengthAdjust="spacing" textLength="27.5352" x="108.8424" y="231.9951">Alta</text></g><g id="Media"><rect fill="#F1F1F1" height="50" rx="12.5" ry="12.5" style="stroke:#181818;stroke-width:0.5;" width="62.0479" x="91.58" y="341"/><line style="stroke:#181818;stroke-width:0.5;" x1="91.58" x2="153.6279" y1="367.2969" y2="367.2969"/><text fill="#000000" font-family="sans-serif" font-size="14" lengthAdjust="spacing" textLength="42.0479" x="101.58" y="358.9951">Media</text></g><g id="Baja"><rect fill="#F1F1F1" height="50" rx="12.5" ry="12.5" style="stroke:#181818;stroke-width:0.5;" width="50.6523" x="95.28" y="468"/><line style="stroke:#181818;stroke-width:0.5;" x1="95.28" x2="145.9323" y1="494.2969" y2="494.2969"/><text fill="#000000" font-family="sans-serif" font-size="14" lengthAdjust="spacing" textLength="30.6523" x="105.28" y="485.9951">Baja</text></g><g id="Critica"><rect fill="#F1F1F1" height="50" rx="12.5" ry="12.5" style="stroke:#181818;stroke-width:0.5;" width="65.0762" x="81.07" y="595"/><line style="stroke:#181818;stroke-width:0.5;" x1="81.07" x2="146.1462" y1="621.2969" y2="621.2969"/><text fill="#000000" font-family="sans-serif" font-size="14" lengthAdjust="spacing" textLength="45.0762" x="91.07" y="612.9951">Critica</text></g><g id="Sin_Bateria"><rect fill="#F1F1F1" height="50" rx="12.5" ry="12.5" style="stroke:#181818;stroke-width:0.5;" width="99.1602" x="35.03" y="722"/><line style="stroke:#181818;stroke-width:0.5;" x1="35.03" x2="134.1902" y1="748.2969" y2="748.2969"/><text fill="#000000" font-family="sans-serif" font-size="14" lengthAdjust="spacing" textLength="79.1602" x="45.03" y="739.9951">Sin_Bateria</text></g><g id="Buscando_Recarga"><rect fill="#F1F1F1" height="50" rx="12.5" ry="12.5" style="stroke:#181818;stroke-width:0.5;" width="153.2119" x="7" y="849"/><line style="stroke:#181818;stroke-width:0.5;" x1="7" x2="160.2119" y1="875.2969" y2="875.2969"/><text fill="#000000" font-family="sans-serif" font-size="14" lengthAdjust="spacing" textLength="133.2119" x="17" y="866.9951">Buscando_Recarga</text></g><g id="Zona_Recarga"><rect fill="#F1F1F1" height="50" rx="12.5" ry="12.5" style="stroke:#181818;stroke-width:0.5;" width="120.4473" x="37.38" y="976"/><line style="stroke:#181818;stroke-width:0.5;" x1="37.38" x2="157.8273" y1="1002.2969" y2="1002.2969"/><text fill="#000000" font-family="sans-serif" font-size="14" lengthAdjust="spacing" textLength="100.4473" x="47.38" y="993.9951">Zona_Recarga</text></g><g id="Cargando"><rect fill="#F1F1F1" height="50" rx="12.5" ry="12.5" style="stroke:#181818;stroke-width:0.5;" width="87.9014" x="142.66" y="1103"/><line style="stroke:#181818;stroke-width:0.5;" x1="142.66" x2="230.5614" y1="1129.2969" y2="1129.2969"/><text fill="#000000" font-family="sans-serif" font-size="14" lengthAdjust="spacing" textLength="67.9014" x="152.66" y="1120.9951">Cargando</text></g><!--link *start* to Carga_Completa--><g class="link" data-entity-1="*start*" data-entity-2="Carga_Completa" data-source-line="1" data-uid="lnk4" id="link_*start*_Carga_Completa"><path d="M199.61,26.36 C199.61,40.29 199.61,60.95 199.61,80.65" fill="none" id="*start*-to-Carga_Completa" style="stroke:#181818;stroke-width:1;"/><polygon fill="#181818" points="199.61,86.65,203.61,77.65,199.61,81.65,195.61,77.65,199.61,86.65" style="stroke:#181818;stroke-width:1;"/></g><!--link Carga_Completa to Alta--><g class="link" data-entity-1="Carga_Completa" data-entity-2="Alta" data-source-line="3" data-uid="lnk6" id="link_Carga_Completa_Alta"><path d="M147.5,137.4 C136.32,145.21 125.98,155.01 119.61,167 C112.08,181.16 111.862,193.3532 114.562,207.7232" fill="none" id="Carga_Completa-to-Alta" style="stroke:#181818;stroke-width:1;"/><polygon fill="#181818" points="115.67,213.62,117.9393,204.0361,114.7467,208.706,110.0768,205.5134,115.67,213.62" style="stroke:#181818;stroke-width:1;"/><text fill="#000000" font-family="sans-serif" font-size="13" lengthAdjust="spacing" textLength="129.7842" x="120.61" y="180.0669">"Aspiradora en uso"</text></g><!--link Alta to Media--><g class="link" data-entity-1="Alta" data-entity-2="Media" data-source-line="4" data-uid="lnk8" id="link_Alta_Media"><path d="M120.96,264.45 C120.41,273.7 119.87,284.33 119.61,294 C119.17,309.54 119.5187,320.9915 120.3687,334.7015" fill="none" id="Alta-to-Media" style="stroke:#181818;stroke-width:1;"/><polygon fill="#181818" points="120.74,340.69,124.1754,331.4597,120.4306,335.6996,116.1907,331.9548,120.74,340.69" style="stroke:#181818;stroke-width:1;"/><text fill="#000000" font-family="sans-serif" font-size="13" lengthAdjust="spacing" textLength="129.7842" x="120.61" y="307.0669">"Aspiradora en uso"</text></g><!--link Media to Baja--><g class="link" data-entity-1="Media" data-entity-2="Baja" data-source-line="5" data-uid="lnk10" id="link_Media_Baja"><path d="M120.96,391.45 C120.41,400.7 119.87,411.33 119.61,421 C119.17,436.53 119.2569,447.972 119.6069,461.682" fill="none" id="Media-to-Baja" style="stroke:#181818;stroke-width:1;"/><polygon fill="#181818" points="119.76,467.68,123.529,458.5808,119.6324,462.6816,115.5316,458.785,119.76,467.68" style="stroke:#181818;stroke-width:1;"/><text fill="#000000" font-family="sans-serif" font-size="13" lengthAdjust="spacing" textLength="129.7842" x="120.61" y="434.0669">"Aspiradora en uso"</text></g><!--link Baja to Critica--><g class="link" data-entity-1="Baja" data-entity-2="Critica" data-source-line="6" data-uid="lnk12" id="link_Baja_Critica"><path d="M119.24,518.4 C118.01,540.42 116.5349,566.6694 115.3049,588.6694" fill="none" id="Baja-to-Critica" style="stroke:#181818;stroke-width:1;"/><polygon fill="#181818" points="114.97,594.66,119.4662,585.8973,115.2491,589.6678,111.4786,585.4507,114.97,594.66" style="stroke:#181818;stroke-width:1;"/><text fill="#000000" font-family="sans-serif" font-size="13" lengthAdjust="spacing" textLength="129.7842" x="118.61" y="561.0669">"Aspiradora en uso"</text></g><!--link Critica to Sin_Bateria--><g class="link" data-entity-1="Critica" data-entity-2="Sin_Bateria" data-source-line="8" data-uid="lnk14" id="link_Critica_Sin_Bateria"><path d="M107.95,645.4 C102.84,667.42 96.7175,693.8156 91.6075,715.8156" fill="none" id="Critica-to-Sin_Bateria" style="stroke:#181818;stroke-width:1;"/><polygon fill="#181818" points="90.25,721.66,96.1825,713.7984,91.3812,716.7897,88.39,711.9884,90.25,721.66" style="stroke:#181818;stroke-width:1;"/><text fill="#000000" font-family="sans-serif" font-size="13" lengthAdjust="spacing" textLength="129.7842" x="102.61" y="688.0669">"Aspiradora en uso"</text></g><!--link Sin_Bateria to Buscando_Recarga--><g class="link" data-entity-1="Sin_Bateria" data-entity-2="Buscando_Recarga" data-source-line="10" data-uid="lnk16" id="link_Sin_Bateria_Buscando_Recarga"><path d="M82.41,772.44 C81.68,781.69 80.96,792.32 80.61,802 C80.03,817.53 80.3657,828.9923 81.2457,842.7023" fill="none" id="Sin_Bateria-to-Buscando_Recarga" style="stroke:#181818;stroke-width:1;"/><polygon fill="#181818" points="81.63,848.69,85.0453,839.4523,81.3097,843.7003,77.0617,839.9647,81.63,848.69" style="stroke:#181818;stroke-width:1;"/><text fill="#000000" font-family="sans-serif" font-size="13" lengthAdjust="spacing" textLength="168.1938" x="81.61" y="815.0669">"Modo ahorro de energ&#237;a"</text></g><!--link Buscando_Recarga to Zona_Recarga--><g class="link" data-entity-1="Buscando_Recarga" data-entity-2="Zona_Recarga" data-source-line="11" data-uid="lnk18" id="link_Buscando_Recarga_Zona_Recarga"><path d="M80.24,899.45 C78.93,913.2 78.24,930.64 80.61,946 C82.13,955.91 83.2314,960.8016 86.3014,969.9516" fill="none" id="Buscando_Recarga-to-Zona_Recarga" style="stroke:#181818;stroke-width:1;"/><polygon fill="#181818" points="88.21,975.64,89.1394,965.8351,86.6195,970.8997,81.5549,968.3798,88.21,975.64" style="stroke:#181818;stroke-width:1;"/><text fill="#000000" font-family="sans-serif" font-size="13" lengthAdjust="spacing" textLength="168.7778" x="81.61" y="942.0669">"Llega a zona de recarga"</text></g><!--link Zona_Recarga to Cargando--><g class="link" data-entity-1="Zona_Recarga" data-entity-2="Cargando" data-source-line="12" data-uid="lnk20" id="link_Zona_Recarga_Cargando"><path d="M96.71,1026.35 C97.26,1040.88 99.93,1059.15 108.61,1073 C116.82,1086.12 124.5007,1093.6027 137.2807,1101.9727" fill="none" id="Zona_Recarga-to-Cargando" style="stroke:#181818;stroke-width:1;"/><polygon fill="#181818" points="142.3,1105.26,136.9625,1096.9828,138.1172,1102.5206,132.5795,1103.6753,142.3,1105.26" style="stroke:#181818;stroke-width:1;"/><text fill="#000000" font-family="sans-serif" font-size="13" lengthAdjust="spacing" textLength="140.48" x="109.61" y="1069.0669">"Recargando bater&#237;a"</text></g><!--link Cargando to Carga_Completa--><g class="link" data-entity-1="Cargando" data-entity-2="Carga_Completa" data-source-line="14" data-uid="lnk21" id="link_Cargando_Carga_Completa"><path d="M225.28,1102.73 C236.03,1094.42 246.86,1084.32 254.61,1073 C273.26,1045.74 276.61,1035.04 276.61,1002 C276.61,238 276.61,238 276.61,238 C276.61,204.96 271.8,195.21 254.61,167 C247.99,156.15 243.0665,150.0357 234.0065,141.4557" fill="none" id="Cargando-to-Carga_Completa" style="stroke:#181818;stroke-width:1;"/><polygon fill="#181818" points="229.65,137.33,233.4343,146.4228,233.2804,140.7681,238.9352,140.6142,229.65,137.33" style="stroke:#181818;stroke-width:1;"/><text fill="#000000" font-family="sans-serif" font-size="13" lengthAdjust="spacing" textLength="117.3237" x="277.61" y="624.5669">"Carga finalizada"</text></g><!--SRC=[TP513e8m44NtFSM4fGaNS642R6MZEuqX8wrOWnqom8OxUGelPgSe4GsxplptPtxRu-e4SRo13Bd28gDxKviEbPhN0KbgVrX3bBIDPTJ42CP1trAaWYHCRhHTWaPDg1HlIr2GGY2sdIsNCFMH1TrRLwJO6LvShRwHaA1lItIQYfqfvQRYoqaJu9MO2RJnNiFLyu4-qoyi4mxayDkzhOq_80o-BtOUfKZDmEcf_JXnlVjIdILUsASculzdn1GwSB4EQpkWnkW5]--></g></svg>