<svg xmlns="http://www.w3.org/2000/svg" xmlns:xlink="http://www.w3.org/1999/xlink" contentStyleType="text/css" data-diagram-type="CLASS" height="507px" preserveAspectRatio="none" style="width:847px;height:507px;background:#FFFFFF;" version="1.1" viewBox="0 0 847 507" width="847px" zoomAndPan="magnify"><defs/><g><!--class Superficie--><g class="entity" data-entity="Superficie" data-source-line="1" data-uid="ent0002" id="entity_Superficie"><rect fill="#F1F1F1" height="48" rx="2.5" ry="2.5" style="stroke:#181818;stroke-width:0.5;" width="102.0342" x="68.4" y="55.89"/><ellipse cx="83.4" cy="71.89" fill="#ADD1B2" rx="11" ry="11" style="stroke:#181818;stroke-width:1;"/><path d="M86.3688,77.5306 Q85.7906,77.8275 85.15,77.9681 Q84.5094,78.1244 83.8063,78.1244 Q81.3063,78.1244 79.9781,76.4837 Q78.6656,74.8275 78.6656,71.7025 Q78.6656,68.5775 79.9781,66.9212 Q81.3063,65.265 83.8063,65.265 Q84.5094,65.265 85.15,65.4212 Q85.8063,65.5775 86.3688,65.8744 L86.3688,68.5931 Q85.7438,68.015 85.15,67.7494 Q84.5563,67.4681 83.9313,67.4681 Q82.5875,67.4681 81.9,68.5462 Q81.2125,69.6087 81.2125,71.7025 Q81.2125,73.7962 81.9,74.8744 Q82.5875,75.9369 83.9313,75.9369 Q84.5563,75.9369 85.15,75.6712 Q85.7438,75.39 86.3688,74.8119 L86.3688,77.5306 Z " fill="#000000"/><text fill="#000000" font-family="sans-serif" font-size="14" lengthAdjust="spacing" textLength="70.0342" x="97.4" y="76.7367">Superficie</text><line style="stroke:#181818;stroke-width:0.5;" x1="69.4" x2="169.4342" y1="87.89" y2="87.89"/><line style="stroke:#181818;stroke-width:0.5;" x1="69.4" x2="169.4342" y1="95.89" y2="95.89"/></g><!--class Zona--><g class="entity" data-entity="Zona" data-source-line="4" data-uid="ent0003" id="entity_Zona"><rect fill="#F1F1F1" height="113.1875" rx="2.5" ry="2.5" style="stroke:#181818;stroke-width:0.5;" width="188.4971" x="156.17" y="229.78"/><ellipse cx="228.3643" cy="245.78" fill="#ADD1B2" rx="11" ry="11" style="stroke:#181818;stroke-width:1;"/><path d="M231.3331,251.4206 Q230.755,251.7175 230.1143,251.8581 Q229.4737,252.0144 228.7706,252.0144 Q226.2706,252.0144 224.9425,250.3738 Q223.63,248.7175 223.63,245.5925 Q223.63,242.4675 224.9425,240.8113 Q226.2706,239.155 228.7706,239.155 Q229.4737,239.155 230.1143,239.3113 Q230.7706,239.4675 231.3331,239.7644 L231.3331,242.4831 Q230.7081,241.905 230.1143,241.6394 Q229.5206,241.3581 228.8956,241.3581 Q227.5518,241.3581 226.8643,242.4363 Q226.1768,243.4988 226.1768,245.5925 Q226.1768,247.6863 226.8643,248.7644 Q227.5518,249.8269 228.8956,249.8269 Q229.5206,249.8269 230.1143,249.5613 Q230.7081,249.28 231.3331,248.7019 L231.3331,251.4206 Z " fill="#000000"/><text fill="#000000" font-family="sans-serif" font-size="14" lengthAdjust="spacing" textLength="35.6084" x="248.8643" y="250.6267">Zona</text><line style="stroke:#181818;stroke-width:0.5;" x1="157.17" x2="343.6671" y1="261.78" y2="261.78"/><rect fill="none" height="6" style="stroke:#C82930;stroke-width:1;" width="6" x="164.17" y="272.4284"/><text fill="#000000" font-family="sans-serif" font-size="14" lengthAdjust="spacing" textLength="125.2822" x="176.17" y="278.7751">nivelSuciedad: int</text><line style="stroke:#181818;stroke-width:0.5;" x1="157.17" x2="343.6671" y1="286.0769" y2="286.0769"/><ellipse cx="167.17" cy="299.7253" fill="#84BE84" rx="3" ry="3" style="stroke:#038048;stroke-width:1;"/><text fill="#000000" font-family="sans-serif" font-size="14" lengthAdjust="spacing" textLength="70.499" x="176.17" y="303.072">ensuciar()</text><ellipse cx="167.17" cy="316.0222" fill="#84BE84" rx="3" ry="3" style="stroke:#038048;stroke-width:1;"/><text fill="#000000" font-family="sans-serif" font-size="14" lengthAdjust="spacing" textLength="59.4521" x="176.17" y="319.3689">limpiar()</text><ellipse cx="167.17" cy="332.3191" fill="#84BE84" rx="3" ry="3" style="stroke:#038048;stroke-width:1;"/><text fill="#000000" font-family="sans-serif" font-size="14" lengthAdjust="spacing" textLength="162.4971" x="176.17" y="335.6657">tieneMueble(): boolean</text></g><!--class ZonaRecarga--><g class="entity" data-entity="ZonaRecarga" data-source-line="11" data-uid="ent0004" id="entity_ZonaRecarga"><rect fill="#F1F1F1" height="64.2969" rx="2.5" ry="2.5" style="stroke:#181818;stroke-width:0.5;" width="251.5381" x="505.65" y="428.11"/><ellipse cx="580.4454" cy="444.11" fill="#ADD1B2" rx="11" ry="11" style="stroke:#181818;stroke-width:1;"/><path d="M583.4142,449.7506 Q582.836,450.0475 582.1954,450.1881 Q581.5548,450.3444 580.8517,450.3444 Q578.3517,450.3444 577.0235,448.7038 Q575.711,447.0475 575.711,443.9225 Q575.711,440.7975 577.0235,439.1413 Q578.3517,437.485 580.8517,437.485 Q581.5548,437.485 582.1954,437.6413 Q582.8517,437.7975 583.4142,438.0944 L583.4142,440.8131 Q582.7892,440.235 582.1954,439.9694 Q581.6017,439.6881 580.9767,439.6881 Q579.6329,439.6881 578.9454,440.7663 Q578.2579,441.8288 578.2579,443.9225 Q578.2579,446.0163 578.9454,447.0944 Q579.6329,448.1569 580.9767,448.1569 Q581.6017,448.1569 582.1954,447.8913 Q582.7892,447.61 583.4142,447.0319 L583.4142,449.7506 Z " fill="#000000"/><text fill="#000000" font-family="sans-serif" font-size="14" lengthAdjust="spacing" textLength="93.4473" x="600.9454" y="448.9567">ZonaRecarga</text><line style="stroke:#181818;stroke-width:0.5;" x1="506.65" x2="756.1881" y1="460.11" y2="460.11"/><line style="stroke:#181818;stroke-width:0.5;" x1="506.65" x2="756.1881" y1="468.11" y2="468.11"/><ellipse cx="516.65" cy="481.7584" fill="#84BE84" rx="3" ry="3" style="stroke:#038048;stroke-width:1;"/><text fill="#000000" font-family="sans-serif" font-size="14" lengthAdjust="spacing" textLength="225.5381" x="525.65" y="485.1051">recargar(Aspiradora aspiradora)</text></g><!--class Aspiradora--><g class="entity" data-entity="Aspiradora" data-source-line="15" data-uid="ent0005" id="entity_Aspiradora"><rect fill="#F1F1F1" height="145.7813" rx="2.5" ry="2.5" style="stroke:#181818;stroke-width:0.5;" width="197.5342" x="363.65" y="7"/><ellipse cx="420.2823" cy="23" fill="#ADD1B2" rx="11" ry="11" style="stroke:#181818;stroke-width:1;"/><path d="M423.2511,28.6406 Q422.6729,28.9375 422.0323,29.0781 Q421.3917,29.2344 420.6886,29.2344 Q418.1886,29.2344 416.8604,27.5938 Q415.5479,25.9375 415.5479,22.8125 Q415.5479,19.6875 416.8604,18.0313 Q418.1886,16.375 420.6886,16.375 Q421.3917,16.375 422.0323,16.5313 Q422.6886,16.6875 423.2511,16.9844 L423.2511,19.7031 Q422.6261,19.125 422.0323,18.8594 Q421.4386,18.5781 420.8136,18.5781 Q419.4698,18.5781 418.7823,19.6563 Q418.0948,20.7188 418.0948,22.8125 Q418.0948,24.9063 418.7823,25.9844 Q419.4698,27.0469 420.8136,27.0469 Q421.4386,27.0469 422.0323,26.7813 Q422.6261,26.5 423.2511,25.9219 L423.2511,28.6406 Z " fill="#000000"/><text fill="#000000" font-family="sans-serif" font-size="14" lengthAdjust="spacing" textLength="75.7695" x="440.7823" y="27.8467">Aspiradora</text><line style="stroke:#181818;stroke-width:0.5;" x1="364.65" x2="560.1842" y1="39" y2="39"/><rect fill="none" height="6" style="stroke:#C82930;stroke-width:1;" width="6" x="371.65" y="49.6484"/><text fill="#000000" font-family="sans-serif" font-size="14" lengthAdjust="spacing" textLength="77.2119" x="383.65" y="55.9951">bateria: int</text><rect fill="none" height="6" style="stroke:#C82930;stroke-width:1;" width="6" x="371.65" y="65.9453"/><text fill="#000000" font-family="sans-serif" font-size="14" lengthAdjust="spacing" textLength="64.6338" x="383.65" y="72.292">bolsa: int</text><line style="stroke:#181818;stroke-width:0.5;" x1="364.65" x2="560.1842" y1="79.5938" y2="79.5938"/><ellipse cx="374.65" cy="93.2422" fill="#84BE84" rx="3" ry="3" style="stroke:#038048;stroke-width:1;"/><text fill="#000000" font-family="sans-serif" font-size="14" lengthAdjust="spacing" textLength="55.7813" x="383.65" y="96.5889">mover()</text><ellipse cx="374.65" cy="109.5391" fill="#84BE84" rx="3" ry="3" style="stroke:#038048;stroke-width:1;"/><text fill="#000000" font-family="sans-serif" font-size="14" lengthAdjust="spacing" textLength="107.7959" x="383.65" y="112.8857">limpiar(Zona x)</text><ellipse cx="374.65" cy="125.8359" fill="#84BE84" rx="3" ry="3" style="stroke:#038048;stroke-width:1;"/><text fill="#000000" font-family="sans-serif" font-size="14" lengthAdjust="spacing" textLength="115.8486" x="383.65" y="129.1826">buscarRecarga()</text><ellipse cx="374.65" cy="142.1328" fill="#84BE84" rx="3" ry="3" style="stroke:#038048;stroke-width:1;"/><text fill="#000000" font-family="sans-serif" font-size="14" lengthAdjust="spacing" textLength="171.5342" x="383.65" y="145.4795">detectarZonaMasSucia()</text></g><!--class Bateria--><g class="entity" data-entity="Bateria" data-source-line="24" data-uid="ent0006" id="entity_Bateria"><rect fill="#F1F1F1" height="96.8906" rx="2.5" ry="2.5" style="stroke:#181818;stroke-width:0.5;" width="101.5098" x="738.67" y="237.93"/><ellipse cx="762.2196" cy="253.93" fill="#ADD1B2" rx="11" ry="11" style="stroke:#181818;stroke-width:1;"/><path d="M765.1883,259.5706 Q764.6102,259.8675 763.9696,260.0081 Q763.3289,260.1644 762.6258,260.1644 Q760.1258,260.1644 758.7977,258.5238 Q757.4852,256.8675 757.4852,253.7425 Q757.4852,250.6175 758.7977,248.9613 Q760.1258,247.305 762.6258,247.305 Q763.3289,247.305 763.9696,247.4613 Q764.6258,247.6175 765.1883,247.9144 L765.1883,250.6331 Q764.5633,250.055 763.9696,249.7894 Q763.3758,249.5081 762.7508,249.5081 Q761.4071,249.5081 760.7196,250.5863 Q760.0321,251.6488 760.0321,253.7425 Q760.0321,255.8363 760.7196,256.9144 Q761.4071,257.9769 762.7508,257.9769 Q763.3758,257.9769 763.9696,257.7113 Q764.5633,257.43 765.1883,256.8519 L765.1883,259.5706 Z " fill="#000000"/><text fill="#000000" font-family="sans-serif" font-size="14" lengthAdjust="spacing" textLength="50.5107" x="778.1195" y="258.7767">Bateria</text><line style="stroke:#181818;stroke-width:0.5;" x1="739.67" x2="839.1798" y1="269.93" y2="269.93"/><rect fill="none" height="6" style="stroke:#C82930;stroke-width:1;" width="6" x="746.67" y="280.5784"/><text fill="#000000" font-family="sans-serif" font-size="14" lengthAdjust="spacing" textLength="66.917" x="758.67" y="286.9251">carga: int</text><line style="stroke:#181818;stroke-width:0.5;" x1="739.67" x2="839.1798" y1="294.2269" y2="294.2269"/><ellipse cx="749.67" cy="307.8753" fill="#84BE84" rx="3" ry="3" style="stroke:#038048;stroke-width:1;"/><text fill="#000000" font-family="sans-serif" font-size="14" lengthAdjust="spacing" textLength="75.5098" x="758.67" y="311.222">consumir()</text><ellipse cx="749.67" cy="324.1722" fill="#84BE84" rx="3" ry="3" style="stroke:#038048;stroke-width:1;"/><text fill="#000000" font-family="sans-serif" font-size="14" lengthAdjust="spacing" textLength="70.5469" x="758.67" y="327.5189">recargar()</text></g><!--class Mueble--><g class="entity" data-entity="Mueble" data-source-line="30" data-uid="ent0007" id="entity_Mueble"><rect fill="#F1F1F1" height="64.2969" rx="2.5" ry="2.5" style="stroke:#181818;stroke-width:0.5;" width="107.1426" x="223.85" y="428.11"/><ellipse cx="249.7344" cy="444.11" fill="#ADD1B2" rx="11" ry="11" style="stroke:#181818;stroke-width:1;"/><path d="M252.7031,449.7506 Q252.125,450.0475 251.4844,450.1881 Q250.8438,450.3444 250.1406,450.3444 Q247.6406,450.3444 246.3125,448.7038 Q245,447.0475 245,443.9225 Q245,440.7975 246.3125,439.1413 Q247.6406,437.485 250.1406,437.485 Q250.8438,437.485 251.4844,437.6413 Q252.1406,437.7975 252.7031,438.0944 L252.7031,440.8131 Q252.0781,440.235 251.4844,439.9694 Q250.8906,439.6881 250.2656,439.6881 Q248.9219,439.6881 248.2344,440.7663 Q247.5469,441.8288 247.5469,443.9225 Q247.5469,446.0163 248.2344,447.0944 Q248.9219,448.1569 250.2656,448.1569 Q250.8906,448.1569 251.4844,447.8913 Q252.0781,447.61 252.7031,447.0319 L252.7031,449.7506 Z " fill="#000000"/><text fill="#000000" font-family="sans-serif" font-size="14" lengthAdjust="spacing" textLength="50.9551" x="266.1531" y="448.9567">Mueble</text><line style="stroke:#181818;stroke-width:0.5;" x1="224.85" x2="329.9926" y1="460.11" y2="460.11"/><rect fill="none" height="6" style="stroke:#C82930;stroke-width:1;" width="6" x="231.85" y="470.7584"/><text fill="#000000" font-family="sans-serif" font-size="14" lengthAdjust="spacing" textLength="81.1426" x="243.85" y="477.1051">tama&#241;o: int</text><line style="stroke:#181818;stroke-width:0.5;" x1="224.85" x2="329.9926" y1="484.4069" y2="484.4069"/></g><!--class Gato--><g class="entity" data-entity="Gato" data-source-line="34" data-uid="ent0008" id="entity_Gato"><rect fill="#F1F1F1" height="80.5938" rx="2.5" ry="2.5" style="stroke:#181818;stroke-width:0.5;" width="144.8428" x="7" y="419.97"/><ellipse cx="58.4302" cy="435.97" fill="#ADD1B2" rx="11" ry="11" style="stroke:#181818;stroke-width:1;"/><path d="M61.3989,441.6106 Q60.8208,441.9075 60.1802,442.0481 Q59.5396,442.2044 58.8364,442.2044 Q56.3364,442.2044 55.0083,440.5637 Q53.6958,438.9075 53.6958,435.7825 Q53.6958,432.6575 55.0083,431.0012 Q56.3364,429.345 58.8364,429.345 Q59.5396,429.345 60.1802,429.5012 Q60.8364,429.6575 61.3989,429.9544 L61.3989,432.6731 Q60.7739,432.095 60.1802,431.8294 Q59.5864,431.5481 58.9614,431.5481 Q57.6177,431.5481 56.9302,432.6262 Q56.2427,433.6887 56.2427,435.7825 Q56.2427,437.8762 56.9302,438.9544 Q57.6177,440.0169 58.9614,440.0169 Q59.5864,440.0169 60.1802,439.7512 Q60.7739,439.47 61.3989,438.8919 L61.3989,441.6106 Z " fill="#000000"/><text fill="#000000" font-family="sans-serif" font-size="14" lengthAdjust="spacing" textLength="33.4824" x="78.9302" y="440.8167">Gato</text><line style="stroke:#181818;stroke-width:0.5;" x1="8" x2="150.8428" y1="451.97" y2="451.97"/><line style="stroke:#181818;stroke-width:0.5;" x1="8" x2="150.8428" y1="459.97" y2="459.97"/><ellipse cx="18" cy="473.6184" fill="#84BE84" rx="3" ry="3" style="stroke:#038048;stroke-width:1;"/><text fill="#000000" font-family="sans-serif" font-size="14" lengthAdjust="spacing" textLength="55.7813" x="27" y="476.9651">mover()</text><ellipse cx="18" cy="489.9153" fill="#84BE84" rx="3" ry="3" style="stroke:#038048;stroke-width:1;"/><text fill="#000000" font-family="sans-serif" font-size="14" lengthAdjust="spacing" textLength="118.8428" x="27" y="493.262">ensuciar(Zona x)</text></g><!--reverse link Superficie to Zona--><g class="link" data-entity-1="Superficie" data-entity-2="Zona" data-source-line="39" data-uid="lnk9" id="link_Superficie_Zona"><path codeLine="39" d="M109.4309,115.5895 C103.1109,140.7895 100.05,169.9 116.42,199.78 C125.71,216.73 139.93,230.8 155.7,242.32" fill="none" id="Superficie-backto-Zona" style="stroke:#181818;stroke-width:1;"/><polygon fill="#181818" points="112.35,103.95,107.0106,108.7967,109.4309,115.5895,114.7703,110.7428,112.35,103.95" style="stroke:#181818;stroke-width:1;"/><text fill="#000000" font-family="sans-serif" font-size="13" lengthAdjust="spacing" textLength="112.3726" x="117.42" y="195.8469">est&#225; formada por</text><text fill="#000000" font-family="sans-serif" font-size="13" lengthAdjust="spacing" textLength="6.5" x="141.6284" y="235.1231">*</text></g><!--reverse link Zona to Gato--><g class="link" data-entity-1="Zona" data-entity-2="Gato" data-source-line="40" data-uid="lnk10" id="link_Zona_Gato"><path codeLine="40" d="M155.1744,350.9573 C143.7644,360.1473 142.05,362.57 132.42,372.97 C119.64,386.77 108.28,404.11 99.39,419.62" fill="none" id="Zona-backto-Gato" style="stroke:#181818;stroke-width:1;"/><polygon fill="none" points="164.52,343.43,157.3381,344.0784,155.1744,350.9573,162.3563,350.3088,164.52,343.43" style="stroke:#181818;stroke-width:1;"/><text fill="#000000" font-family="sans-serif" font-size="13" lengthAdjust="spacing" textLength="102.8892" x="133.42" y="386.0369">puede contener</text></g><!--link Gato to Zona--><g class="link" data-entity-1="Gato" data-entity-2="Zona" data-source-line="53" data-uid="lnk19" id="link_Gato_Zona"><path codeLine="53" d="M59.21,419.58 C54.23,404.06 52.55,386.73 61.42,372.97 C82.7,339.97 114.4556,321.5285 150.4156,308.9685" fill="none" id="Gato-to-Zona" style="stroke:#181818;stroke-width:1;"/><polygon fill="#181818" points="156.08,306.99,146.2644,306.1814,151.3596,308.6387,148.9023,313.734,156.08,306.99" style="stroke:#181818;stroke-width:1;"/><text fill="#000000" font-family="sans-serif" font-size="13" lengthAdjust="spacing" textLength="49.9751" x="62.42" y="386.0369">ensucia</text></g><!--reverse link Zona to ZonaRecarga--><g class="link" data-entity-1="Zona" data-entity-2="ZonaRecarga" data-source-line="41" data-uid="lnk11" id="link_Zona_ZonaRecarga"><path codeLine="41" d="M361.4972,337.4829 C428.6072,367.7629 500.76,400.31 561.52,427.73" fill="none" id="Zona-backto-ZonaRecarga" style="stroke:#181818;stroke-width:1;"/><polygon fill="none" points="345.09,330.08,359.0296,342.952,363.9649,332.0139,345.09,330.08" style="stroke:#181818;stroke-width:1;"/><text fill="#000000" font-family="sans-serif" font-size="13" lengthAdjust="spacing" textLength="43.3481" x="475.42" y="386.0369">es una</text></g><!--link Aspiradora to Zona--><g class="link" data-entity-1="Aspiradora" data-entity-2="Zona" data-source-line="43" data-uid="lnk12" id="link_Aspiradora_Zona"><path codeLine="43" d="M382.84,153.04 C372.2,162.95 361.49,173.06 351.42,182.78 C335.96,197.71 323.699,209.914 308.639,225.214" fill="none" id="Aspiradora-to-Zona" style="stroke:#181818;stroke-width:1;"/><polygon fill="#181818" points="304.43,229.49,313.5942,225.8819,307.9375,225.9266,307.8928,220.27,304.43,229.49" style="stroke:#181818;stroke-width:1;"/><text fill="#000000" font-family="sans-serif" font-size="13" lengthAdjust="spacing" textLength="83.8652" x="352.42" y="195.8469">se mueve en</text></g><!--link Aspiradora to Zona--><g class="link" data-entity-1="Aspiradora" data-entity-2="Zona" data-source-line="44" data-uid="lnk13" id="link_Aspiradora_Zona"><path codeLine="44" d="M363.55,121.5 C335.15,137.13 306.26,157.45 285.42,182.78 C274.42,196.15 268.6363,207.4479 263.3963,223.7479" fill="none" id="Aspiradora-to-Zona-1" style="stroke:#181818;stroke-width:1;"/><polygon fill="#181818" points="261.56,229.46,268.1225,222.116,263.0902,224.6999,260.5064,219.6677,261.56,229.46" style="stroke:#181818;stroke-width:1;"/><text fill="#000000" font-family="sans-serif" font-size="13" lengthAdjust="spacing" textLength="39.7173" x="286.42" y="195.8469">limpia</text></g><!--link Aspiradora to Mueble--><g class="link" data-entity-1="Aspiradora" data-entity-2="Mueble" data-source-line="45" data-uid="lnk14" id="link_Aspiradora_Mueble"><path codeLine="45" d="M461.2,153.17 C459.16,238.47 453.84,371.17 440.42,389.97 C415.23,425.26 374.1863,441.3405 337.1463,449.8905" fill="none" id="Aspiradora-to-Mueble" style="stroke:#181818;stroke-width:1;"/><polygon fill="#181818" points="331.3,451.24,340.9691,453.1133,336.1719,450.1154,339.1697,445.3182,331.3,451.24" style="stroke:#181818;stroke-width:1;"/><text fill="#000000" font-family="sans-serif" font-size="13" lengthAdjust="spacing" textLength="97.8809" x="459.42" y="290.9369">detecta y evita</text></g><!--link Aspiradora to ZonaRecarga--><g class="link" data-entity-1="Aspiradora" data-entity-2="ZonaRecarga" data-source-line="46" data-uid="lnk15" id="link_Aspiradora_ZonaRecarga"><path codeLine="46" d="M522.15,152.96 C539.31,176.37 556.79,203.18 569.42,229.78 C601.21,296.69 617.891,376.6754 625.631,422.0454" fill="none" id="Aspiradora-to-ZonaRecarga" style="stroke:#181818;stroke-width:1;"/><polygon fill="#181818" points="626.64,427.96,629.0695,418.4155,625.7992,423.0312,621.1835,419.7608,626.64,427.96" style="stroke:#181818;stroke-width:1;"/><text fill="#000000" font-family="sans-serif" font-size="13" lengthAdjust="spacing" textLength="70.3892" x="608.42" y="290.9369">recarga en</text></g><!--reverse link Aspiradora to Bateria--><g class="link" data-entity-1="Aspiradora" data-entity-2="Bateria" data-source-line="48" data-uid="lnk16" id="link_Aspiradora_Bateria"><path codeLine="48" d="M572.2377,133.8356 C603.5677,149.9756 627.21,163.37 657.42,182.78 C685.26,200.66 714.48,222.97 738.33,242.2" fill="none" id="Aspiradora-backto-Bateria" style="stroke:#181818;stroke-width:1;"/><polygon fill="#181818" points="561.57,128.34,565.072,134.6437,572.2377,133.8356,568.7357,127.5319,561.57,128.34" style="stroke:#181818;stroke-width:1;"/><text fill="#000000" font-family="sans-serif" font-size="13" lengthAdjust="spacing" textLength="61.5215" x="680.42" y="195.8469">tiene una</text></g><!--link Bateria to ZonaRecarga--><g class="link" data-entity-1="Bateria" data-entity-2="ZonaRecarga" data-source-line="49" data-uid="lnk17" id="link_Bateria_ZonaRecarga"><path codeLine="49" d="M745.41,335.25 C718.29,364.76 688.3414,397.3435 664.5514,423.2135" fill="none" id="Bateria-to-ZonaRecarga" style="stroke:#181818;stroke-width:1;"/><polygon fill="#181818" points="660.49,427.63,669.5264,423.7129,663.8745,423.9496,663.6378,418.2977,660.49,427.63" style="stroke:#181818;stroke-width:1;"/><text fill="#000000" font-family="sans-serif" font-size="13" lengthAdjust="spacing" textLength="89.2925" x="711.42" y="386.0369">se recarga en</text></g><!--link Zona to Mueble--><g class="link" data-entity-1="Zona" data-entity-2="Mueble" data-source-line="51" data-uid="lnk18" id="link_Zona_Mueble"><path codeLine="51" d="M244.09,343.43 C243.64,358.65 244.33,375.05 247.42,389.97 C250.08,402.8 252.7358,410.7376 258.0358,422.2776" fill="none" id="Zona-to-Mueble" style="stroke:#181818;stroke-width:1;"/><polygon fill="#181818" points="260.54,427.73,260.4187,417.8819,258.4532,423.1863,253.1488,421.2208,260.54,427.73" style="stroke:#181818;stroke-width:1;"/><text fill="#000000" font-family="sans-serif" font-size="13" lengthAdjust="spacing" textLength="102.8892" x="248.42" y="386.0369">puede contener</text></g><!--SRC=[TL9BJiGm3Dtd55PMyr4lK24asB2Q3RDZvxOU5Abjgdmg470OZi0PvcAuITfcXc7NsCz-p- -rRj5QEFg1p4dLYk13V0bHX-gBxf7V00NqQgJsw1dGO5E2wXsNzq2zvHgQpJOyMzKDwyifwkdWgMffiosXqhebx2_NFrEDvZMoxC74bzays44PRBH1mELpkuvc_QYlGaT6uQoC2xgrk0hjz4ZNAiDvRx5MUSlKIKt2DUIeTcWct07jTFtKMaGyHiwa84okXBLcQperSowNPVFHcZJkiCFpZuuB5iWJEfsyoIzOR9zFu84imbrHWDp9c5y9agmxVyD9cmuRX44RAK9BCoumC6RmrD2asd5eC-3kan5vJ64P-1wb45a6HN6_a5c2pjD8B5B-Xua9_6adGnYGh8Tte54vlBaeqvJS3PGvT39YJebXuOUCwkVgZMLymCM-8FfIthLP8hYONvWIahy0]--></g></svg>