<svg xmlns="http://www.w3.org/2000/svg" xmlns:xlink="http://www.w3.org/1999/xlink" contentStyleType="text/css" data-diagram-type="CLASS" height="296px" preserveAspectRatio="none" style="width:237px;height:296px;background:#FFFFFF;" version="1.1" viewBox="0 0 237 296" width="237px" zoomAndPan="magnify"><defs/><g><!--class Jornada--><g class="entity" data-entity="Jornada" data-source-line="1" data-uid="ent0002" id="entity_Jornada"><rect fill="#F1F1F1" height="48" rx="2.5" ry="2.5" style="stroke:#181818;stroke-width:0.5;" width="85.3682" x="54.37" y="7"/><ellipse cx="69.37" cy="23" fill="#ADD1B2" rx="11" ry="11" style="stroke:#181818;stroke-width:1;"/><path d="M72.3388,28.6406 Q71.7606,28.9375 71.12,29.0781 Q70.4794,29.2344 69.7763,29.2344 Q67.2763,29.2344 65.9481,27.5938 Q64.6356,25.9375 64.6356,22.8125 Q64.6356,19.6875 65.9481,18.0313 Q67.2763,16.375 69.7763,16.375 Q70.4794,16.375 71.12,16.5313 Q71.7763,16.6875 72.3388,16.9844 L72.3388,19.7031 Q71.7138,19.125 71.12,18.8594 Q70.5263,18.5781 69.9013,18.5781 Q68.5575,18.5781 67.87,19.6563 Q67.1825,20.7188 67.1825,22.8125 Q67.1825,24.9063 67.87,25.9844 Q68.5575,27.0469 69.9013,27.0469 Q70.5263,27.0469 71.12,26.7813 Q71.7138,26.5 72.3388,25.9219 L72.3388,28.6406 Z " fill="#000000"/><text fill="#000000" font-family="sans-serif" font-size="14" lengthAdjust="spacing" textLength="53.3682" x="83.37" y="27.8467">Jornada</text><line style="stroke:#181818;stroke-width:0.5;" x1="55.37" x2="138.7382" y1="39" y2="39"/><line style="stroke:#181818;stroke-width:0.5;" x1="55.37" x2="138.7382" y1="47" y2="47"/></g><!--class Cajas--><g class="entity" data-entity="Cajas" data-source-line="1" data-uid="ent0003" id="entity_Cajas"><rect fill="#F1F1F1" height="48" rx="2.5" ry="2.5" style="stroke:#181818;stroke-width:0.5;" width="70.1172" x="7" y="116"/><ellipse cx="22" cy="132" fill="#ADD1B2" rx="11" ry="11" style="stroke:#181818;stroke-width:1;"/><path d="M24.9688,137.6406 Q24.3906,137.9375 23.75,138.0781 Q23.1094,138.2344 22.4063,138.2344 Q19.9063,138.2344 18.5781,136.5938 Q17.2656,134.9375 17.2656,131.8125 Q17.2656,128.6875 18.5781,127.0313 Q19.9063,125.375 22.4063,125.375 Q23.1094,125.375 23.75,125.5313 Q24.4063,125.6875 24.9688,125.9844 L24.9688,128.7031 Q24.3438,128.125 23.75,127.8594 Q23.1563,127.5781 22.5313,127.5781 Q21.1875,127.5781 20.5,128.6563 Q19.8125,129.7188 19.8125,131.8125 Q19.8125,133.9063 20.5,134.9844 Q21.1875,136.0469 22.5313,136.0469 Q23.1563,136.0469 23.75,135.7813 Q24.3438,135.5 24.9688,134.9219 L24.9688,137.6406 Z " fill="#000000"/><text fill="#000000" font-family="sans-serif" font-size="14" lengthAdjust="spacing" textLength="38.1172" x="36" y="136.8467">Cajas</text><line style="stroke:#181818;stroke-width:0.5;" x1="8" x2="76.1172" y1="148" y2="148"/><line style="stroke:#181818;stroke-width:0.5;" x1="8" x2="76.1172" y1="156" y2="156"/></g><!--class Cliente--><g class="entity" data-entity="Cliente" data-source-line="2" data-uid="ent0005" id="entity_Cliente"><rect fill="#F1F1F1" height="48" rx="2.5" ry="2.5" style="stroke:#181818;stroke-width:0.5;" width="81.1436" x="112.49" y="116"/><ellipse cx="127.49" cy="132" fill="#ADD1B2" rx="11" ry="11" style="stroke:#181818;stroke-width:1;"/><path d="M130.4588,137.6406 Q129.8806,137.9375 129.24,138.0781 Q128.5994,138.2344 127.8963,138.2344 Q125.3963,138.2344 124.0681,136.5938 Q122.7556,134.9375 122.7556,131.8125 Q122.7556,128.6875 124.0681,127.0313 Q125.3963,125.375 127.8963,125.375 Q128.5994,125.375 129.24,125.5313 Q129.8963,125.6875 130.4588,125.9844 L130.4588,128.7031 Q129.8338,128.125 129.24,127.8594 Q128.6463,127.5781 128.0213,127.5781 Q126.6775,127.5781 125.99,128.6563 Q125.3025,129.7188 125.3025,131.8125 Q125.3025,133.9063 125.99,134.9844 Q126.6775,136.0469 128.0213,136.0469 Q128.6463,136.0469 129.24,135.7813 Q129.8338,135.5 130.4588,134.9219 L130.4588,137.6406 Z " fill="#000000"/><text fill="#000000" font-family="sans-serif" font-size="14" lengthAdjust="spacing" textLength="49.1436" x="141.49" y="136.8467">Cliente</text><line style="stroke:#181818;stroke-width:0.5;" x1="113.49" x2="192.6336" y1="148" y2="148"/><line style="stroke:#181818;stroke-width:0.5;" x1="113.49" x2="192.6336" y1="156" y2="156"/></g><!--class Productos--><g class="entity" data-entity="Productos" data-source-line="3" data-uid="ent0007" id="entity_Productos"><rect fill="#F1F1F1" height="48" rx="2.5" ry="2.5" style="stroke:#181818;stroke-width:0.5;" width="101.5693" x="129.27" y="241"/><ellipse cx="144.27" cy="257" fill="#ADD1B2" rx="11" ry="11" style="stroke:#181818;stroke-width:1;"/><path d="M147.2387,262.6406 Q146.6606,262.9375 146.02,263.0781 Q145.3794,263.2344 144.6762,263.2344 Q142.1762,263.2344 140.8481,261.5938 Q139.5356,259.9375 139.5356,256.8125 Q139.5356,253.6875 140.8481,252.0313 Q142.1762,250.375 144.6762,250.375 Q145.3794,250.375 146.02,250.5313 Q146.6762,250.6875 147.2387,250.9844 L147.2387,253.7031 Q146.6137,253.125 146.02,252.8594 Q145.4262,252.5781 144.8012,252.5781 Q143.4575,252.5781 142.77,253.6563 Q142.0825,254.7188 142.0825,256.8125 Q142.0825,258.9063 142.77,259.9844 Q143.4575,261.0469 144.8012,261.0469 Q145.4262,261.0469 146.02,260.7813 Q146.6137,260.5 147.2387,259.9219 L147.2387,262.6406 Z " fill="#000000"/><text fill="#000000" font-family="sans-serif" font-size="14" lengthAdjust="spacing" textLength="69.5693" x="158.27" y="261.8467">Productos</text><line style="stroke:#181818;stroke-width:0.5;" x1="130.27" x2="229.8393" y1="273" y2="273"/><line style="stroke:#181818;stroke-width:0.5;" x1="130.27" x2="229.8393" y1="281" y2="281"/></g><!--class Cola--><g class="entity" data-entity="Cola" data-source-line="4" data-uid="ent0009" id="entity_Cola"><rect fill="#F1F1F1" height="48" rx="2.5" ry="2.5" style="stroke:#181818;stroke-width:0.5;" width="62.8096" x="21.65" y="241"/><ellipse cx="36.65" cy="257" fill="#ADD1B2" rx="11" ry="11" style="stroke:#181818;stroke-width:1;"/><path d="M39.6188,262.6406 Q39.0406,262.9375 38.4,263.0781 Q37.7594,263.2344 37.0563,263.2344 Q34.5563,263.2344 33.2281,261.5938 Q31.9156,259.9375 31.9156,256.8125 Q31.9156,253.6875 33.2281,252.0313 Q34.5563,250.375 37.0563,250.375 Q37.7594,250.375 38.4,250.5313 Q39.0563,250.6875 39.6188,250.9844 L39.6188,253.7031 Q38.9938,253.125 38.4,252.8594 Q37.8063,252.5781 37.1813,252.5781 Q35.8375,252.5781 35.15,253.6563 Q34.4625,254.7188 34.4625,256.8125 Q34.4625,258.9063 35.15,259.9844 Q35.8375,261.0469 37.1813,261.0469 Q37.8063,261.0469 38.4,260.7813 Q38.9938,260.5 39.6188,259.9219 L39.6188,262.6406 Z " fill="#000000"/><text fill="#000000" font-family="sans-serif" font-size="14" lengthAdjust="spacing" textLength="30.8096" x="50.65" y="261.8467">Cola</text><line style="stroke:#181818;stroke-width:0.5;" x1="22.65" x2="83.4596" y1="273" y2="273"/><line style="stroke:#181818;stroke-width:0.5;" x1="22.65" x2="83.4596" y1="281" y2="281"/></g><!--link Jornada to Cajas--><g class="link" data-entity-1="Jornada" data-entity-2="Cajas" data-source-line="1" data-uid="lnk4" id="link_Jornada_Cajas"><path codeLine="1" d="M84.99,55.48 C75.82,73.32 71.489,81.7411 62.329,99.5611 " fill="none" id="Jornada-to-Cajas" style="stroke:#181818;stroke-width:1;"/><polygon fill="none" points="54.1,115.57,67.6653,102.3042,56.9927,96.8181,54.1,115.57" style="stroke:#181818;stroke-width:1;"/></g><!--link Jornada to Cliente--><g class="link" data-entity-1="Jornada" data-entity-2="Cliente" data-source-line="2" data-uid="lnk6" id="link_Jornada_Cliente"><path codeLine="2" d="M109.35,55.48 C118.68,73.32 123.1209,81.8035 132.4509,99.6235 " fill="none" id="Jornada-to-Cliente" style="stroke:#181818;stroke-width:1;"/><polygon fill="none" points="140.8,115.57,137.7664,96.8404,127.1354,102.4065,140.8,115.57" style="stroke:#181818;stroke-width:1;"/></g><!--link Cliente to Productos--><g class="link" data-entity-1="Cliente" data-entity-2="Productos" data-source-line="3" data-uid="lnk8" id="link_Cliente_Productos"><path codeLine="3" d="M158.2,164.42 C163,186.31 166.2795,201.2188 171.0795,223.0788 " fill="none" id="Cliente-to-Productos" style="stroke:#181818;stroke-width:1;"/><polygon fill="none" points="174.94,240.66,176.9399,221.792,165.2192,224.3657,174.94,240.66" style="stroke:#181818;stroke-width:1;"/><text fill="#000000" font-family="sans-serif" font-size="13" lengthAdjust="spacing" textLength="32.9443" x="170.06" y="207.0669">tiene</text></g><!--link Cliente to Cola--><g class="link" data-entity-1="Cliente" data-entity-2="Cola" data-source-line="4" data-uid="lnk10" id="link_Cliente_Cola"><path codeLine="4" d="M134.01,164.42 C116.22,186.31 101.154,204.8327 83.384,226.6927 " fill="none" id="Cliente-to-Cola" style="stroke:#181818;stroke-width:1;"/><polygon fill="none" points="72.03,240.66,88.0398,230.4774,78.7283,222.908,72.03,240.66" style="stroke:#181818;stroke-width:1;"/><text fill="#000000" font-family="sans-serif" font-size="13" lengthAdjust="spacing" textLength="38.5049" x="110.06" y="207.0669">forma</text></g><!--link Cajas to Cola--><g class="link" data-entity-1="Cajas" data-entity-2="Cola" data-source-line="5" data-uid="lnk11" id="link_Cajas_Cola"><path codeLine="5" d="M44.15,164.42 C46.11,186.31 47.4207,200.8712 49.3707,222.7312 " fill="none" id="Cajas-to-Cola" style="stroke:#181818;stroke-width:1;stroke-dasharray:7.0,7.0;"/><polygon fill="none" points="50.97,240.66,55.3469,222.1981,43.3944,223.2643,50.97,240.66" style="stroke:#181818;stroke-width:1;"/></g><!--SRC=[yyeloajCILJGrQsnKt1Ep4eivl924Sh9JCqhIUM2qX31WABybDBaalnY1Ik54g0uchHpVauYK2OjloWtaGjifeAU7bGS0000]--></g></svg>