<svg xmlns="http://www.w3.org/2000/svg" xmlns:xlink="http://www.w3.org/1999/xlink" contentStyleType="text/css" data-diagram-type="STATE" height="524px" preserveAspectRatio="none" style="width:1149px;height:524px;background:#FFFFFF;" version="1.1" viewBox="0 0 1149 524" width="1149px" zoomAndPan="magnify"><defs/><g><ellipse cx="569.71" cy="16" fill="#222222" rx="10" ry="10" style="stroke:#222222;stroke-width:1;"/><g id="Inactivo"><rect fill="#F1F1F1" height="50" rx="12.5" ry="12.5" style="stroke:#181818;stroke-width:0.5;" width="75.5078" x="531.96" y="87"/><line style="stroke:#181818;stroke-width:0.5;" x1="531.96" x2="607.4678" y1="113.2969" y2="113.2969"/><text fill="#000000" font-family="sans-serif" font-size="14" lengthAdjust="spacing" textLength="55.5078" x="541.96" y="104.9951">Inactivo</text></g><g id="Explorando"><rect fill="#F1F1F1" height="50" rx="12.5" ry="12.5" style="stroke:#181818;stroke-width:0.5;" width="99.1328" x="520.15" y="214"/><line style="stroke:#181818;stroke-width:0.5;" x1="520.15" x2="619.2828" y1="240.2969" y2="240.2969"/><text fill="#000000" font-family="sans-serif" font-size="14" lengthAdjust="spacing" textLength="79.1328" x="530.15" y="231.9951">Explorando</text></g><g id="Limpiando"><rect fill="#F1F1F1" height="50" rx="12.5" ry="12.5" style="stroke:#181818;stroke-width:0.5;" width="93.0078" x="65.21" y="341"/><line style="stroke:#181818;stroke-width:0.5;" x1="65.21" x2="158.2178" y1="367.2969" y2="367.2969"/><text fill="#000000" font-family="sans-serif" font-size="14" lengthAdjust="spacing" textLength="73.0078" x="75.21" y="358.9951">Limpiando</text></g><g id="Evadiendo"><rect fill="#F1F1F1" height="50" rx="12.5" ry="12.5" style="stroke:#181818;stroke-width:0.5;" width="93.4248" x="359" y="341"/><line style="stroke:#181818;stroke-width:0.5;" x1="359" x2="452.4248" y1="367.2969" y2="367.2969"/><text fill="#000000" font-family="sans-serif" font-size="14" lengthAdjust="spacing" textLength="73.4248" x="369" y="358.9951">Evadiendo</text></g><g id="EsperandoVaciado"><rect fill="#F1F1F1" height="50" rx="12.5" ry="12.5" style="stroke:#181818;stroke-width:0.5;" width="150.0742" x="582.68" y="341"/><line style="stroke:#181818;stroke-width:0.5;" x1="582.68" x2="732.7542" y1="367.2969" y2="367.2969"/><text fill="#000000" font-family="sans-serif" font-size="14" lengthAdjust="spacing" textLength="130.0742" x="592.68" y="358.9951">EsperandoVaciado</text></g><g id="Movi&#233;ndoseARecarga"><rect fill="#F1F1F1" height="50" rx="12.5" ry="12.5" style="stroke:#181818;stroke-width:0.5;" width="171.0811" x="795.17" y="341"/><line style="stroke:#181818;stroke-width:0.5;" x1="795.17" x2="966.2511" y1="367.2969" y2="367.2969"/><text fill="#000000" font-family="sans-serif" font-size="14" lengthAdjust="spacing" textLength="151.0811" x="805.17" y="358.9951">Movi&#233;ndoseARecarga</text></g><g id="Cargando"><rect fill="#F1F1F1" height="50" rx="12.5" ry="12.5" style="stroke:#181818;stroke-width:0.5;" width="87.9014" x="914.76" y="468"/><line style="stroke:#181818;stroke-width:0.5;" x1="914.76" x2="1002.6614" y1="494.2969" y2="494.2969"/><text fill="#000000" font-family="sans-serif" font-size="14" lengthAdjust="spacing" textLength="67.9014" x="924.76" y="485.9951">Cargando</text></g><!--link *start* to Inactivo--><g class="link" data-entity-1="*start*" data-entity-2="Inactivo" data-source-line="1" data-uid="lnk4" id="link_*start*_Inactivo"><path d="M569.71,26.36 C569.71,40.29 569.71,60.95 569.71,80.65" fill="none" id="*start*-to-Inactivo" style="stroke:#181818;stroke-width:1;"/><polygon fill="#181818" points="569.71,86.65,573.71,77.65,569.71,81.65,565.71,77.65,569.71,86.65" style="stroke:#181818;stroke-width:1;"/></g><!--link Inactivo to Explorando--><g class="link" data-entity-1="Inactivo" data-entity-2="Explorando" data-source-line="3" data-uid="lnk6" id="link_Inactivo_Explorando"><path d="M569.71,137.4 C569.71,159.42 569.71,185.66 569.71,207.66" fill="none" id="Inactivo-to-Explorando" style="stroke:#181818;stroke-width:1;"/><polygon fill="#181818" points="569.71,213.66,573.71,204.66,569.71,208.66,565.71,204.66,569.71,213.66" style="stroke:#181818;stroke-width:1;"/><text fill="#000000" font-family="sans-serif" font-size="13" lengthAdjust="spacing" textLength="79.8662" x="570.71" y="180.0669">"Encendido"</text></g><!--link Explorando to Limpiando--><g class="link" data-entity-1="Explorando" data-entity-2="Limpiando" data-source-line="4" data-uid="lnk8" id="link_Explorando_Limpiando"><path d="M519.7,241.21 C391.26,244.83 57.63,257.66 24.71,294 C6,314.66 29.8756,331.9121 59.4256,345.3121" fill="none" id="Explorando-to-Limpiando" style="stroke:#181818;stroke-width:1;"/><polygon fill="#181818" points="64.89,347.79,58.3453,340.4301,60.3363,345.725,55.0414,347.716,64.89,347.79" style="stroke:#181818;stroke-width:1;"/><text fill="#000000" font-family="sans-serif" font-size="13" lengthAdjust="spacing" textLength="125.6455" x="25.71" y="307.0669">"Detecta suciedad"</text></g><!--link Limpiando to Explorando--><g class="link" data-entity-1="Limpiando" data-entity-2="Explorando" data-source-line="5" data-uid="lnk9" id="link_Limpiando_Explorando"><path d="M140.67,340.73 C161.17,324.87 190.02,305.1 218.71,294 C320.77,254.5 444.055,244.0643 513.735,241.2243" fill="none" id="Limpiando-to-Explorando" style="stroke:#181818;stroke-width:1;"/><polygon fill="#181818" points="519.73,240.98,510.5746,237.3498,514.7341,241.1836,510.9004,245.3432,519.73,240.98" style="stroke:#181818;stroke-width:1;"/><text fill="#000000" font-family="sans-serif" font-size="13" lengthAdjust="spacing" textLength="88.8735" x="219.71" y="307.0669">"Zona limpia"</text></g><!--link Explorando to Evadiendo--><g class="link" data-entity-1="Explorando" data-entity-2="Evadiendo" data-source-line="7" data-uid="lnk11" id="link_Explorando_Evadiendo"><path d="M519.88,243.63 C454.75,249.52 346.11,263.72 321.71,294 C305.06,314.67 325.8538,331.2175 353.2738,344.4175" fill="none" id="Explorando-to-Evadiendo" style="stroke:#181818;stroke-width:1;"/><polygon fill="#181818" points="358.68,347.02,352.3058,339.5121,354.1748,344.8512,348.8357,346.7203,358.68,347.02" style="stroke:#181818;stroke-width:1;"/><text fill="#000000" font-family="sans-serif" font-size="13" lengthAdjust="spacing" textLength="130.3999" x="322.71" y="307.0669">"Detecta obst&#225;culo"</text></g><!--link Evadiendo to Explorando--><g class="link" data-entity-1="Evadiendo" data-entity-2="Explorando" data-source-line="8" data-uid="lnk12" id="link_Evadiendo_Explorando"><path d="M435.09,340.55 C452.03,326.65 473.84,309.05 493.71,294 C506.87,284.03 516.7055,276.8862 529.6755,267.7462" fill="none" id="Evadiendo-to-Explorando" style="stroke:#181818;stroke-width:1;"/><polygon fill="#181818" points="534.58,264.29,524.919,266.2047,530.4929,267.1702,529.5274,272.744,534.58,264.29" style="stroke:#181818;stroke-width:1;"/><text fill="#000000" font-family="sans-serif" font-size="13" lengthAdjust="spacing" textLength="105.2822" x="494.71" y="307.0669">"Nuevo camino"</text></g><!--link Explorando to EsperandoVaciado--><g class="link" data-entity-1="Explorando" data-entity-2="EsperandoVaciado" data-source-line="10" data-uid="lnk14" id="link_Explorando_EsperandoVaciado"><path d="M586.89,264.4 C602.4,286.42 621.6358,313.7541 637.1258,335.7541" fill="none" id="Explorando-to-EsperandoVaciado" style="stroke:#181818;stroke-width:1;"/><polygon fill="#181818" points="640.58,340.66,638.6693,330.9983,637.7015,336.5717,632.128,335.6039,640.58,340.66" style="stroke:#181818;stroke-width:1;"/><text fill="#000000" font-family="sans-serif" font-size="13" lengthAdjust="spacing" textLength="82.7417" x="620.71" y="307.0669">"Bolsa llena"</text></g><!--link EsperandoVaciado to Explorando--><g class="link" data-entity-1="EsperandoVaciado" data-entity-2="Explorando" data-source-line="11" data-uid="lnk15" id="link_EsperandoVaciado_Explorando"><path d="M694.3,340.77 C710.09,327.24 722.7,309.94 711.71,294 C691.13,264.14 657.5888,251.8771 625.4888,245.9071" fill="none" id="EsperandoVaciado-to-Explorando" style="stroke:#181818;stroke-width:1;"/><polygon fill="#181818" points="619.59,244.81,627.7069,250.3882,624.5057,245.7242,629.1697,242.523,619.59,244.81" style="stroke:#181818;stroke-width:1;"/><text fill="#000000" font-family="sans-serif" font-size="13" lengthAdjust="spacing" textLength="85.6997" x="717.71" y="307.0669">"Bolsa vac&#237;a"</text></g><!--link Explorando to Movi?ndoseARecarga--><g class="link" data-entity-1="Explorando" data-entity-2="Movi&#233;ndoseARecarga" data-source-line="13" data-uid="lnk17" id="link_Explorando_Movi&#233;ndoseARecarga"><path d="M619.49,242.78 C670.6,247.47 751.03,260.08 811.71,294 C832.27,305.49 846.8338,320.3312 859.4138,336.0012" fill="none" id="Explorando-to-Movi&#233;ndoseARecarga" style="stroke:#181818;stroke-width:1;"/><polygon fill="#181818" points="863.17,340.68,860.6549,331.1577,860.0399,336.781,854.4165,336.1659,863.17,340.68" style="stroke:#181818;stroke-width:1;"/><text fill="#000000" font-family="sans-serif" font-size="13" lengthAdjust="spacing" textLength="90.7905" x="834.71" y="307.0669">"Bater&#237;a baja"</text></g><!--link Movi?ndoseARecarga to Cargando--><g class="link" data-entity-1="Movi&#233;ndoseARecarga" data-entity-2="Cargando" data-source-line="14" data-uid="lnk19" id="link_Movi&#233;ndoseARecarga_Cargando"><path d="M864.26,391.23 C856.73,405.55 851.18,423.63 859.71,438 C871.66,458.12 888.4554,468.9762 908.9154,477.2262" fill="none" id="Movi&#233;ndoseARecarga-to-Cargando" style="stroke:#181818;stroke-width:1;"/><polygon fill="#181818" points="914.48,479.47,907.6289,472.3945,909.8428,477.6002,904.6372,479.8141,914.48,479.47" style="stroke:#181818;stroke-width:1;"/><text fill="#000000" font-family="sans-serif" font-size="13" lengthAdjust="spacing" textLength="168.7778" x="860.71" y="434.0669">"Llega a zona de recarga"</text></g><!--link Cargando to Explorando--><g class="link" data-entity-1="Cargando" data-entity-2="Explorando" data-source-line="15" data-uid="lnk20" id="link_Cargando_Explorando"><path d="M1002.86,471.88 C1022.44,459.7 1039.84,442.37 1033.71,421 C1013.91,351.94 998.38,325.31 933.71,294 C879.23,267.62 711.9403,251.1955 625.5903,244.1855" fill="none" id="Cargando-to-Explorando" style="stroke:#181818;stroke-width:1;"/><polygon fill="#181818" points="619.61,243.7,628.2568,248.4151,624.5936,244.1046,628.9041,240.4414,619.61,243.7" style="stroke:#181818;stroke-width:1;"/><text fill="#000000" font-family="sans-serif" font-size="13" lengthAdjust="spacing" textLength="115.8892" x="1025.71" y="370.5669">"Bater&#237;a cargada"</text></g><!--SRC=[RP0zJiGm48LxdsBa4calG874GWgaXOA2OX75x7Y41dazKUn4YDjGKd2AN0pR8GlQf9kVxxrvzlF52smsLt0Na98CQinSrN7ptdhjC3Y5Ix1D80vEd5hpRr6udHnRcR5RJam98VOaxD1PyxTUckur8FWAM7FksmpeXCzyzH3J-4czBpbEmDBveUVy3CAZ15snZYtNxWb9S59irSSSndF8MHR0yiB43qZZzqhuUnra_CfTvEj79knUiOemSPS5SC2th5gZYlgcLBztTfxp5E6Z_9LZw2REcXEqacq-Kr67zWS0]--></g></svg>