<svg xmlns="http://www.w3.org/2000/svg" xmlns:xlink="http://www.w3.org/1999/xlink" contentStyleType="text/css" data-diagram-type="CLASS" height="318px" preserveAspectRatio="none" style="width:991px;height:318px;background:#FFFFFF;" version="1.1" viewBox="0 0 991 318" width="991px" zoomAndPan="magnify"><defs/><g><g class="entity" data-entity="Superficie" data-source-line="1" data-uid="ent0002" id="entity_Superficie"><rect fill="#F1F1F1" height="36.2969" rx="2.5" ry="2.5" style="stroke:#181818;stroke-width:0.5;" width="84.0342" x="267.68" y="19.3"/><text fill="#000000" font-family="sans-serif" font-size="14" lengthAdjust="spacing" textLength="70.0342" x="274.68" y="34.2951">Superficie</text><line style="stroke:#181818;stroke-width:0.5;" x1="268.68" x2="350.7142" y1="39.5969" y2="39.5969"/></g><g class="entity" data-entity="Zona1" data-source-line="3" data-uid="ent0003" id="entity_Zona1"><rect fill="#F1F1F1" height="44.5938" rx="2.5" ry="2.5" style="stroke:#181818;stroke-width:0.5;" width="139.4014" x="479" y="144.89"/><text fill="#000000" font-family="sans-serif" font-size="14" lengthAdjust="spacing" textLength="44.5156" x="526.4429" y="159.8851">Zona1</text><line style="stroke:#181818;stroke-width:0.5;" x1="480" x2="617.4014" y1="165.1869" y2="165.1869"/><text fill="#000000" font-family="sans-serif" font-size="14" lengthAdjust="spacing" textLength="127.4014" x="485" y="182.182">nivelSuciedad = 3</text></g><g class="entity" data-entity="Zona2" data-source-line="7" data-uid="ent0004" id="entity_Zona2"><rect fill="#F1F1F1" height="44.5938" rx="2.5" ry="2.5" style="stroke:#181818;stroke-width:0.5;" width="139.4014" x="7" y="144.89"/><text fill="#000000" font-family="sans-serif" font-size="14" lengthAdjust="spacing" textLength="44.5156" x="54.4429" y="159.8851">Zona2</text><line style="stroke:#181818;stroke-width:0.5;" x1="8" x2="145.4014" y1="165.1869" y2="165.1869"/><text fill="#000000" font-family="sans-serif" font-size="14" lengthAdjust="spacing" textLength="127.4014" x="13" y="182.182">nivelSuciedad = 0</text></g><g class="entity" data-entity="Zona3" data-source-line="11" data-uid="ent0005" id="entity_Zona3"><rect fill="#F1F1F1" height="44.5938" rx="2.5" ry="2.5" style="stroke:#181818;stroke-width:0.5;" width="139.4014" x="181" y="144.89"/><text fill="#000000" font-family="sans-serif" font-size="14" lengthAdjust="spacing" textLength="44.5156" x="228.4429" y="159.8851">Zona3</text><line style="stroke:#181818;stroke-width:0.5;" x1="182" x2="319.4014" y1="165.1869" y2="165.1869"/><text fill="#000000" font-family="sans-serif" font-size="14" lengthAdjust="spacing" textLength="127.4014" x="187" y="182.182">nivelSuciedad = 0</text></g><g class="entity" data-entity="ZonaRecarga" data-source-line="15" data-uid="ent0006" id="entity_ZonaRecarga"><rect fill="#F1F1F1" height="44.5938" rx="2.5" ry="2.5" style="stroke:#181818;stroke-width:0.5;" width="139.4014" x="700" y="266.49"/><text fill="#000000" font-family="sans-serif" font-size="14" lengthAdjust="spacing" textLength="93.4473" x="722.9771" y="281.4851">ZonaRecarga</text><line style="stroke:#181818;stroke-width:0.5;" x1="701" x2="838.4014" y1="286.7869" y2="286.7869"/><text fill="#000000" font-family="sans-serif" font-size="14" lengthAdjust="spacing" textLength="127.4014" x="706" y="303.782">nivelSuciedad = 0</text></g><g class="entity" data-entity="Aspiradora" data-source-line="19" data-uid="ent0007" id="entity_Aspiradora"><rect fill="#F1F1F1" height="60.8906" rx="2.5" ry="2.5" style="stroke:#181818;stroke-width:0.5;" width="113.541" x="639.93" y="7"/><text fill="#000000" font-family="sans-serif" font-size="14" lengthAdjust="spacing" textLength="75.7695" x="658.8157" y="21.9951">Aspiradora</text><line style="stroke:#181818;stroke-width:0.5;" x1="640.93" x2="752.471" y1="27.2969" y2="27.2969"/><text fill="#000000" font-family="sans-serif" font-size="14" lengthAdjust="spacing" textLength="101.541" x="645.93" y="44.292">bateria = 10%</text><text fill="#000000" font-family="sans-serif" font-size="14" lengthAdjust="spacing" textLength="89.2842" x="645.93" y="60.5889">bolsa = 5/10</text></g><g class="entity" data-entity="Bateria" data-source-line="24" data-uid="ent0008" id="entity_Bateria"><rect fill="#F1F1F1" height="44.5938" rx="2.5" ry="2.5" style="stroke:#181818;stroke-width:0.5;" width="103.2461" x="653.08" y="144.89"/><text fill="#000000" font-family="sans-serif" font-size="14" lengthAdjust="spacing" textLength="50.5107" x="679.4477" y="159.8851">Bateria</text><line style="stroke:#181818;stroke-width:0.5;" x1="654.08" x2="755.3261" y1="165.1869" y2="165.1869"/><text fill="#000000" font-family="sans-serif" font-size="14" lengthAdjust="spacing" textLength="91.2461" x="659.08" y="182.182">carga = 10%</text></g><g class="entity" data-entity="Mueble" data-source-line="28" data-uid="ent0009" id="entity_Mueble"><rect fill="#F1F1F1" height="44.5938" rx="2.5" ry="2.5" style="stroke:#181818;stroke-width:0.5;" width="250.0752" x="125.66" y="266.49"/><text fill="#000000" font-family="sans-serif" font-size="14" lengthAdjust="spacing" textLength="50.9551" x="225.2201" y="281.4851">Mueble</text><line style="stroke:#181818;stroke-width:0.5;" x1="126.66" x2="374.7352" y1="286.7869" y2="286.7869"/><text fill="#000000" font-family="sans-serif" font-size="14" lengthAdjust="spacing" textLength="238.0752" x="131.66" y="303.782">tama&#241;o = 2 // Sof&#225; ocupa 2 zonas</text></g><g class="entity" data-entity="Gato" data-source-line="32" data-uid="ent0010" id="entity_Gato"><rect fill="#F1F1F1" height="36.2969" rx="2.5" ry="2.5" style="stroke:#181818;stroke-width:0.5;" width="47.4824" x="19.96" y="270.63"/><text fill="#000000" font-family="sans-serif" font-size="14" lengthAdjust="spacing" textLength="33.4824" x="26.96" y="285.6251">Gato</text><line style="stroke:#181818;stroke-width:0.5;" x1="20.96" x2="66.4424" y1="290.9269" y2="290.9269"/></g><!--reverse link Superficie to Zona1--><g class="link" data-entity-1="Superficie" data-entity-2="Zona1" data-source-line="34" data-uid="lnk11" id="link_Superficie_Zona1"><path codeLine="34" d="M363.2865,58.1773 C391.6065,69.0973 418.12,80.53 449.7,97.89 C474.77,111.68 501.36,130.27 520.66,144.57" fill="none" id="Superficie-backto-Zona1" style="stroke:#181818;stroke-width:1;"/><polygon fill="#181818" points="352.09,53.86,356.2491,59.7508,363.2865,58.1773,359.1273,52.2865,352.09,53.86" style="stroke:#181818;stroke-width:1;"/></g><!--reverse link Superficie to Zona2--><g class="link" data-entity-1="Superficie" data-entity-2="Zona2" data-source-line="35" data-uid="lnk12" id="link_Superficie_Zona2"><path codeLine="35" d="M267.268,61.7096 C225.268,84.7396 161.96,119.45 116.4,144.43" fill="none" id="Superficie-backto-Zona2" style="stroke:#181818;stroke-width:1;"/><polygon fill="#181818" points="277.79,55.94,270.6058,55.3174,267.268,61.7096,274.4522,62.3321,277.79,55.94" style="stroke:#181818;stroke-width:1;"/></g><!--reverse link Superficie to Zona3--><g class="link" data-entity-1="Superficie" data-entity-2="Zona3" data-source-line="36" data-uid="lnk13" id="link_Superficie_Zona3"><path codeLine="36" d="M256.5106,58.8505 C236.7706,68.3205 226.01,77.47 214.7,97.89 C206.13,113.37 215.97,131.04 227.51,144.53" fill="none" id="Superficie-backto-Zona3" style="stroke:#181818;stroke-width:1;"/><polygon fill="#181818" points="267.33,53.66,260.1902,52.6488,256.5106,58.8505,263.6505,59.8617,267.33,53.66" style="stroke:#181818;stroke-width:1;"/></g><!--reverse link Superficie to ZonaRecarga--><g class="link" data-entity-1="Superficie" data-entity-2="ZonaRecarga" data-source-line="37" data-uid="lnk14" id="link_Superficie_ZonaRecarga"><path codeLine="37" d="M355.8907,61.8863 C374.6707,72.3163 386.77,80.97 403.7,97.89 C437.78,131.95 423.57,160.03 461.7,189.49 C531.89,243.69 632.76,268.43 699.71,279.43" fill="none" id="Superficie-backto-ZonaRecarga" style="stroke:#181818;stroke-width:1;"/><polygon fill="#181818" points="345.4,56.06,348.7032,62.47,355.8907,61.8863,352.5874,55.4763,345.4,56.06" style="stroke:#181818;stroke-width:1;"/></g><!--link Zona3 to Mueble--><g class="link" data-entity-1="Zona3" data-entity-2="Mueble" data-source-line="39" data-uid="lnk15" id="link_Zona3_Mueble"><path codeLine="39" d="M250.7,189.85 C250.7,211.52 250.7,238.67 250.7,260.29" fill="none" id="Zona3-to-Mueble" style="stroke:#181818;stroke-width:1;"/><polygon fill="#181818" points="250.7,266.29,254.7,257.29,250.7,261.29,246.7,257.29,250.7,266.29" style="stroke:#181818;stroke-width:1;"/><text fill="#000000" font-family="sans-serif" font-size="13" lengthAdjust="spacing" textLength="56.2847" x="251.7" y="232.5569">contiene</text></g><!--link Aspiradora to Zona1--><g class="link" data-entity-1="Aspiradora" data-entity-2="Zona1" data-source-line="41" data-uid="lnk16" id="link_Aspiradora_Zona1"><path codeLine="41" d="M639.47,42.28 C601.26,48.16 553.61,62.65 528.7,97.89 C518.93,111.71 522.3884,125.0762 530.4684,139.3762" fill="none" id="Aspiradora-to-Zona1" style="stroke:#181818;stroke-width:1;"/><polygon fill="#181818" points="533.42,144.6,532.4751,134.7966,530.9603,140.2468,525.51,138.7321,533.42,144.6" style="stroke:#181818;stroke-width:1;"/><text fill="#000000" font-family="sans-serif" font-size="13" lengthAdjust="spacing" textLength="83.8652" x="529.7" y="110.9569">se mueve en</text></g><!--link Aspiradora to Zona1--><g class="link" data-entity-1="Aspiradora" data-entity-2="Zona1" data-source-line="42" data-uid="lnk17" id="link_Aspiradora_Zona1"><path codeLine="42" d="M667.91,68.06 C653.3,82.64 635.01,100.19 617.7,114.89 C605.64,125.14 596.5898,132.1574 584.4398,141.0074" fill="none" id="Aspiradora-to-Zona1-1" style="stroke:#181818;stroke-width:1;"/><polygon fill="#181818" points="579.59,144.54,589.2198,142.4743,583.6315,141.5962,584.5097,136.0079,579.59,144.54" style="stroke:#181818;stroke-width:1;"/><text fill="#000000" font-family="sans-serif" font-size="13" lengthAdjust="spacing" textLength="39.7173" x="636.7" y="110.9569">limpia</text></g><!--link Aspiradora to ZonaRecarga--><g class="link" data-entity-1="Aspiradora" data-entity-2="ZonaRecarga" data-source-line="43" data-uid="lnk18" id="link_Aspiradora_ZonaRecarga"><path codeLine="43" d="M743.93,68.37 C754.32,76.83 764.39,86.79 771.7,97.89 C806.55,150.76 823.37,175.98 804.7,236.49 C801.43,247.1 798.6859,252.6446 792.3159,261.2646" fill="none" id="Aspiradora-to-ZonaRecarga" style="stroke:#181818;stroke-width:1;"/><polygon fill="#181818" points="788.75,266.09,797.3157,261.2291,791.7216,262.0688,790.8819,256.4746,788.75,266.09" style="stroke:#181818;stroke-width:1;"/><text fill="#000000" font-family="sans-serif" font-size="13" lengthAdjust="spacing" textLength="83.8652" x="812.7" y="171.7569">se mueve en</text></g><!--link Aspiradora to ZonaRecarga--><g class="link" data-entity-1="Aspiradora" data-entity-2="ZonaRecarga" data-source-line="44" data-uid="lnk19" id="link_Aspiradora_ZonaRecarga"><path codeLine="44" d="M753.93,50.3 C803.46,63.9 872.11,91.6 904.7,144.89 C934.61,193.81 872.4511,237.2876 822.5111,263.3076" fill="none" id="Aspiradora-to-ZonaRecarga-1" style="stroke:#181818;stroke-width:1;"/><polygon fill="#181818" points="817.19,266.08,827.0199,265.4688,821.6242,263.7697,823.3233,258.374,817.19,266.08" style="stroke:#181818;stroke-width:1;"/><text fill="#000000" font-family="sans-serif" font-size="13" lengthAdjust="spacing" textLength="70.3892" x="912.7" y="171.7569">recarga en</text></g><!--link Aspiradora to Zona3--><g class="link" data-entity-1="Aspiradora" data-entity-2="Zona3" data-source-line="45" data-uid="lnk20" id="link_Aspiradora_Zona3"><path codeLine="45" d="M639.54,42.37 C572.03,48.43 457.23,63.23 364.7,97.89 C334.02,109.39 307.2354,125.728 285.0754,141.048" fill="none" id="Aspiradora-to-Zona3" style="stroke:#FF0000;stroke-width:1;"/><polygon fill="#FF0000" points="280.14,144.46,289.8178,142.6322,284.2528,141.6167,285.2684,136.0517,280.14,144.46" style="stroke:#FF0000;stroke-width:1;"/><text fill="#000000" font-family="sans-serif" font-size="13" lengthAdjust="spacing" textLength="150.7759" x="365.7" y="110.9569">detecta y evita mueble</text></g><!--reverse link Aspiradora to Bateria--><g class="link" data-entity-1="Aspiradora" data-entity-2="Bateria" data-source-line="47" data-uid="lnk21" id="link_Aspiradora_Bateria"><path codeLine="47" d="M699.306,80.0468 C700.766,103.4868 702.04,123.68 703.35,144.7" fill="none" id="Aspiradora-backto-Bateria" style="stroke:#181818;stroke-width:1;"/><polygon fill="#181818" points="698.56,68.07,694.9407,74.3071,699.306,80.0468,702.9253,73.8097,698.56,68.07" style="stroke:#181818;stroke-width:1;"/><text fill="#000000" font-family="sans-serif" font-size="13" lengthAdjust="spacing" textLength="61.5215" x="701.7" y="110.9569">tiene una</text></g><!--link Bateria to ZonaRecarga--><g class="link" data-entity-1="Bateria" data-entity-2="ZonaRecarga" data-source-line="48" data-uid="lnk22" id="link_Bateria_ZonaRecarga"><path codeLine="48" d="M702.14,189.94 C701.46,203.95 702.46,222.16 709.7,236.49 C715.58,248.1 720.6822,254.3902 730.6622,262.4502" fill="none" id="Bateria-to-ZonaRecarga" style="stroke:#181818;stroke-width:1;"/><polygon fill="#181818" points="735.33,266.22,730.8415,257.4534,731.4401,263.0785,725.8151,263.6772,735.33,266.22" style="stroke:#181818;stroke-width:1;"/><text fill="#000000" font-family="sans-serif" font-size="13" lengthAdjust="spacing" textLength="89.2925" x="710.7" y="232.5569">se recarga en</text></g><!--reverse link Zona2 to Gato--><g class="link" data-entity-1="Zona2" data-entity-2="Gato" data-source-line="50" data-uid="lnk23" id="link_Zona2_Gato"><path codeLine="50" d="M32.8155,197.4968 C23.0855,205.5068 22.99,207.88 17.7,219.49 C9.97,236.46 19.69,256.46 29.37,270.41" fill="none" id="Zona2-backto-Gato" style="stroke:#181818;stroke-width:1;"/><polygon fill="none" points="42.08,189.87,34.9055,190.5952,32.8155,197.4968,39.99,196.7716,42.08,189.87" style="stroke:#181818;stroke-width:1;"/><text fill="#000000" font-family="sans-serif" font-size="13" lengthAdjust="spacing" textLength="56.2847" x="18.7" y="232.5569">contiene</text></g><!--link Gato to Zona2--><g class="link" data-entity-1="Gato" data-entity-2="Zona2" data-source-line="51" data-uid="lnk24" id="link_Gato_Zona2"><path codeLine="51" d="M60.06,270.27 C67.61,260.99 75.77,248.94 79.7,236.49 C84.46,221.43 84.3492,209.5237 82.2992,195.8437" fill="none" id="Gato-to-Zona2" style="stroke:#181818;stroke-width:1;"/><polygon fill="#181818" points="81.41,189.91,78.788,199.4034,82.151,194.8548,86.6996,198.2178,81.41,189.91" style="stroke:#181818;stroke-width:1;"/><text fill="#000000" font-family="sans-serif" font-size="13" lengthAdjust="spacing" textLength="49.9751" x="84.7" y="232.5569">ensucia</text></g><!--SRC=[ZPB1JeGm48RlVOe9nei9OO5uCT54Bvwyo4tZOO1PKmCjAIs96X_6H_0PziMSKiYo6unxWlxppNJcd-hoZIeBXUl8R6KbIGWTf2UjC8LF0Q3aG4tXE5XZ3TUGYwy3AbkbDaTKVXBrI1MQL_oNlUqxQR3M9g0bMZ8I6Ketv_wiczwVBfDqcNKtOJubt1CIziI3exAX4R3Oukv7Cv91aa2Xjxjlq9Nha8KFxhLVvDsZrKBiROIBE0uMhedPcfYlYPCVGWGBu_XcRl4AeaehAqbH9CJ23y-4vJ7I4xIE1W9IqPzG8zjEucfytiS9fHQecNwFoUSpG_NBnEUUhCcoVGZlG8FaRpiETpYGzsBU7AUC8uDJtF2ihdUxx4A4Xwgvb5_LeNkZCjV8V8nKp-yEery0]--></g></svg>