<svg xmlns="http://www.w3.org/2000/svg" xmlns:xlink="http://www.w3.org/1999/xlink" contentStyleType="text/css" data-diagram-type="STATE" height="576px" preserveAspectRatio="none" style="width:696px;height:576px;background:#FFFFFF;" version="1.1" viewBox="0 0 696 576" width="696px" zoomAndPan="magnify"><defs/><g><ellipse cx="429.04" cy="68.54" fill="#222222" rx="10" ry="10" style="stroke:#222222;stroke-width:1;"/><g id="No_Existe"><rect fill="#F1F1F1" height="50" rx="12.5" ry="12.5" style="stroke:#181818;stroke-width:0.5;" width="88.4551" x="384.81" y="139.54"/><line style="stroke:#181818;stroke-width:0.5;" x1="384.81" x2="473.2651" y1="165.8369" y2="165.8369"/><text fill="#000000" font-family="sans-serif" font-size="14" lengthAdjust="spacing" textLength="68.4551" x="394.81" y="157.5351">No_Existe</text></g><g id="Apareciendo"><rect fill="#F1F1F1" height="50" rx="12.5" ry="12.5" style="stroke:#181818;stroke-width:0.5;" width="107.9375" x="262.07" y="266.54"/><line style="stroke:#181818;stroke-width:0.5;" x1="262.07" x2="370.0075" y1="292.8369" y2="292.8369"/><text fill="#000000" font-family="sans-serif" font-size="14" lengthAdjust="spacing" textLength="87.9375" x="272.07" y="284.5351">Apareciendo</text></g><g id="Caminando"><rect fill="#F1F1F1" height="50" rx="12.5" ry="12.5" style="stroke:#181818;stroke-width:0.5;" width="99.6592" x="162.21" y="393.54"/><line style="stroke:#181818;stroke-width:0.5;" x1="162.21" x2="261.8692" y1="419.8369" y2="419.8369"/><text fill="#000000" font-family="sans-serif" font-size="14" lengthAdjust="spacing" textLength="79.6592" x="172.21" y="411.5351">Caminando</text></g><g id="Ensuciando"><rect fill="#F1F1F1" height="50" rx="12.5" ry="12.5" style="stroke:#181818;stroke-width:0.5;" width="100.377" x="53.85" y="520.54"/><line style="stroke:#181818;stroke-width:0.5;" x1="53.85" x2="154.227" y1="546.8369" y2="546.8369"/><text fill="#000000" font-family="sans-serif" font-size="14" lengthAdjust="spacing" textLength="80.377" x="63.85" y="538.5351">Ensuciando</text></g><g id="Desapareciendo"><rect fill="#F1F1F1" height="50" rx="12.5" ry="12.5" style="stroke:#181818;stroke-width:0.5;" width="133.627" x="386.23" y="520.54"/><line style="stroke:#181818;stroke-width:0.5;" x1="386.23" x2="519.857" y1="546.8369" y2="546.8369"/><text fill="#000000" font-family="sans-serif" font-size="14" lengthAdjust="spacing" textLength="113.627" x="396.23" y="538.5351">Desapareciendo</text></g><!--link *start* to No_Existe--><g class="link" data-entity-1="*start*" data-entity-2="No_Existe" data-source-line="1" data-uid="lnk4" id="link_*start*_No_Existe"><path d="M429.04,78.9 C429.04,92.83 429.04,113.49 429.04,133.19" fill="none" id="*start*-to-No_Existe" style="stroke:#181818;stroke-width:1;"/><polygon fill="#181818" points="429.04,139.19,433.04,130.19,429.04,134.19,425.04,130.19,429.04,139.19" style="stroke:#181818;stroke-width:1;"/></g><!--link No_Existe to Apareciendo--><g class="link" data-entity-1="No_Existe" data-entity-2="Apareciendo" data-source-line="3" data-uid="lnk6" id="link_No_Existe_Apareciendo"><path d="M390.74,189.84 C379.08,198.35 366.79,208.55 357.04,219.54 C344.67,233.49 336.9018,246.3927 329.6518,260.9027" fill="none" id="No_Existe-to-Apareciendo" style="stroke:#181818;stroke-width:1;"/><polygon fill="#181818" points="326.97,266.27,334.5709,260.0069,329.2048,261.7972,327.4145,256.4312,326.97,266.27" style="stroke:#181818;stroke-width:1;"/><text fill="#000000" font-family="sans-serif" font-size="13" lengthAdjust="spacing" textLength="143.8252" x="358.04" y="232.6069">"Tiempo transcurrido"</text></g><!--link Apareciendo to Caminando--><g class="link" data-entity-1="Apareciendo" data-entity-2="Caminando" data-source-line="4" data-uid="lnk8" id="link_Apareciendo_Caminando"><path d="M295.74,316.94 C277.42,338.96 254.4382,366.5883 236.1282,388.5883" fill="none" id="Apareciendo-to-Caminando" style="stroke:#181818;stroke-width:1;"/><polygon fill="#181818" points="232.29,393.2,241.1218,388.8412,235.4885,389.3569,234.9728,383.7236,232.29,393.2" style="stroke:#181818;stroke-width:1;"/><text fill="#000000" font-family="sans-serif" font-size="13" lengthAdjust="spacing" textLength="185.5928" x="272.04" y="359.6069">"Gato entra en la superficie"</text></g><!--link Caminando to Ensuciando--><g class="link" data-entity-1="Caminando" data-entity-2="Ensuciando" data-source-line="5" data-uid="lnk10" id="link_Caminando_Ensuciando"><path d="M161.91,426.8 C111.23,435.28 38.04,451.07 21.04,473.54 C6,493.43 22.9742,508.8761 48.2342,521.8661" fill="none" id="Caminando-to-Ensuciando" style="stroke:#181818;stroke-width:1;"/><polygon fill="#181818" points="53.57,524.61,47.3956,516.9369,49.1235,522.3234,43.737,524.0513,53.57,524.61" style="stroke:#181818;stroke-width:1;"/><text fill="#000000" font-family="sans-serif" font-size="13" lengthAdjust="spacing" textLength="117.1143" x="22.04" y="486.6069">"Pisa zona limpia"</text></g><!--link Ensuciando to Caminando--><g class="link" data-entity-1="Ensuciando" data-entity-2="Caminando" data-source-line="6" data-uid="lnk11" id="link_Ensuciando_Caminando"><path d="M125.07,520.2 C144.08,498.2 168.0068,470.4996 187.0368,448.4796" fill="none" id="Ensuciando-to-Caminando" style="stroke:#181818;stroke-width:1;"/><polygon fill="#181818" points="190.96,443.94,182.0487,448.134,187.6906,447.723,188.1016,453.3649,190.96,443.94" style="stroke:#181818;stroke-width:1;"/><text fill="#000000" font-family="sans-serif" font-size="13" lengthAdjust="spacing" textLength="154.6416" x="166.04" y="486.6069">"Se mueve a otra zona"</text></g><!--link Caminando to Desapareciendo--><g class="link" data-entity-1="Caminando" data-entity-2="Desapareciendo" data-source-line="8" data-uid="lnk13" id="link_Caminando_Desapareciendo"><path d="M262.32,441.58 C283.17,451.02 307.47,462.41 329.04,473.54 C357.37,488.15 383.3311,502.9334 407.3211,517.0734" fill="none" id="Caminando-to-Desapareciendo" style="stroke:#181818;stroke-width:1;"/><polygon fill="#181818" points="412.49,520.12,406.7677,512.1041,408.1825,517.5811,402.7055,518.996,412.49,520.12" style="stroke:#181818;stroke-width:1;"/><text fill="#000000" font-family="sans-serif" font-size="13" lengthAdjust="spacing" textLength="124.0078" x="362.04" y="486.6069">"Camina 25 pasos"</text></g><!--link Desapareciendo to No_Existe--><g class="link" data-entity-1="Desapareciendo" data-entity-2="No_Existe" data-source-line="9" data-uid="lnk14" id="link_Desapareciendo_No_Existe"><path d="M477.14,520.17 C484.22,511.51 491.11,501.24 495.04,490.54 C673.1,6 518.45,243.4 506.04,219.54 C498.88,205.78 491.4652,198.0683 478.6352,189.6983" fill="none" id="Desapareciendo-to-No_Existe" style="stroke:#181818;stroke-width:1;"/><polygon fill="#181818" points="473.61,186.42,478.9622,194.6876,477.7977,189.1519,483.3333,187.9874,473.61,186.42" style="stroke:#181818;stroke-width:1;"/><text fill="#000000" font-family="sans-serif" font-size="13" lengthAdjust="spacing" textLength="143.5649" x="545.04" y="359.6069">"Sale de la superficie"</text></g><!--SRC=[PP0z2y9038Rt-nNXHg6BuE8WY8gR2Bg9I6WZ17gNuz8JyTVRgrzjNKBWVHvUajFa34MnW9rSDdVMXepvhbsm31YfPFALm1piaSa5WIQYrpB5o9LOqsUoiqB77j_65Xi1ygtHJgWHD0MALsvvQtvazZPUKyaVSS-Ay12FKBCBZDRqyh-Q0u5BT2D0aDoLHMj61MjI7Dxpoc4wWu0gQiq86Vocwy6QeABH8Ky0]--></g></svg>