<svg xmlns="http://www.w3.org/2000/svg" xmlns:xlink="http://www.w3.org/1999/xlink" contentStyleType="text/css" data-diagram-type="CLASS" height="723px" preserveAspectRatio="none" style="width:1307px;height:723px;background:#FFFFFF;" version="1.1" viewBox="0 0 1307 723" width="1307px" zoomAndPan="magnify"><defs/><g><!--cluster CCCF--><g class="cluster" data-entity="CCCF" data-source-line="1" data-uid="ent0002" id="cluster_CCCF"><path d="M8.5,6 L49.8867,6 A3.75,3.75 0 0 1 52.3867,8.5 L59.3867,28.2969 L1297.5,28.2969 A2.5,2.5 0 0 1 1300,30.7969 L1300,714.17 A2.5,2.5 0 0 1 1297.5,716.67 L8.5,716.67 A2.5,2.5 0 0 1 6,714.17 L6,8.5 A2.5,2.5 0 0 1 8.5,6" fill="none" style="stroke:#000000;stroke-width:1.5;"/><line style="stroke:#000000;stroke-width:1.5;" x1="6" x2="59.3867" y1="28.2969" y2="28.2969"/><text fill="#000000" font-family="sans-serif" font-size="14" font-weight="bold" lengthAdjust="spacing" textLength="40.3867" x="10" y="20.9951">CCCF</text></g><!--cluster Controlador--><g class="cluster" data-entity="Controlador" data-source-line="2" data-uid="ent0003" id="cluster_Controlador"><path d="M358.5,49 L453.3643,49 A3.75,3.75 0 0 1 455.8643,51.5 L462.8643,71.2969 L577.5,71.2969 A2.5,2.5 0 0 1 580,73.7969 L580,178.09 A2.5,2.5 0 0 1 577.5,180.59 L358.5,180.59 A2.5,2.5 0 0 1 356,178.09 L356,51.5 A2.5,2.5 0 0 1 358.5,49" fill="none" style="stroke:#000000;stroke-width:1.5;"/><line style="stroke:#000000;stroke-width:1.5;" x1="356" x2="462.8643" y1="71.2969" y2="71.2969"/><text fill="#000000" font-family="sans-serif" font-size="14" font-weight="bold" lengthAdjust="spacing" textLength="93.8643" x="360" y="63.9951">Controlador</text></g><!--cluster Vista--><g class="cluster" data-entity="Vista" data-source-line="9" data-uid="ent0005" id="cluster_Vista"><path d="M32.5,245.89 L73.6064,245.89 A3.75,3.75 0 0 1 76.1064,248.39 L83.1064,268.1869 L253.5,268.1869 A2.5,2.5 0 0 1 256,270.6869 L256,358.69 A2.5,2.5 0 0 1 253.5,361.19 L32.5,361.19 A2.5,2.5 0 0 1 30,358.69 L30,248.39 A2.5,2.5 0 0 1 32.5,245.89" fill="none" style="stroke:#000000;stroke-width:1.5;"/><line style="stroke:#000000;stroke-width:1.5;" x1="30" x2="83.1064" y1="268.1869" y2="268.1869"/><text fill="#000000" font-family="sans-serif" font-size="14" font-weight="bold" lengthAdjust="spacing" textLength="40.1064" x="34" y="260.8851">Vista</text></g><!--cluster Modelo--><g class="cluster" data-entity="Modelo" data-source-line="15" data-uid="ent0007" id="cluster_Modelo"><path d="M373.5,229.59 L431.9834,229.59 A3.75,3.75 0 0 1 434.4834,232.09 L441.4834,251.8869 L746.5,251.8869 A2.5,2.5 0 0 1 749,254.3869 L749,690.17 A2.5,2.5 0 0 1 746.5,692.67 L373.5,692.67 A2.5,2.5 0 0 1 371,690.17 L371,232.09 A2.5,2.5 0 0 1 373.5,229.59" fill="none" style="stroke:#000000;stroke-width:1.5;"/><line style="stroke:#000000;stroke-width:1.5;" x1="371" x2="441.4834" y1="251.8869" y2="251.8869"/><text fill="#000000" font-family="sans-serif" font-size="14" font-weight="bold" lengthAdjust="spacing" textLength="57.4834" x="375" y="244.5851">Modelo</text></g><!--cluster Utilidades--><g class="cluster" data-entity="Utilidades" data-source-line="45" data-uid="ent0013" id="cluster_Utilidades"><path d="M775.5,237.74 L856.2754,237.74 A3.75,3.75 0 0 1 858.7754,240.24 L865.7754,260.0369 L1273.5,260.0369 A2.5,2.5 0 0 1 1276,262.5369 L1276,366.83 A2.5,2.5 0 0 1 1273.5,369.33 L775.5,369.33 A2.5,2.5 0 0 1 773,366.83 L773,240.24 A2.5,2.5 0 0 1 775.5,237.74" fill="none" style="stroke:#000000;stroke-width:1.5;"/><line style="stroke:#000000;stroke-width:1.5;" x1="773" x2="865.7754" y1="260.0369" y2="260.0369"/><text fill="#000000" font-family="sans-serif" font-size="14" font-weight="bold" lengthAdjust="spacing" textLength="79.7754" x="777" y="252.7351">Utilidades</text></g><!--class ControladorSimulacion--><g class="entity" data-entity="ControladorSimulacion" data-source-line="3" data-uid="ent0004" id="entity_ControladorSimulacion"><rect fill="#F1F1F1" height="80.5938" rx="2.5" ry="2.5" style="stroke:#181818;stroke-width:0.5;" width="191.4824" x="372.26" y="84"/><ellipse cx="387.26" cy="100" fill="#ADD1B2" rx="11" ry="11" style="stroke:#181818;stroke-width:1;"/><path d="M390.2288,105.6406 Q389.6506,105.9375 389.01,106.0781 Q388.3694,106.2344 387.6663,106.2344 Q385.1663,106.2344 383.8381,104.5938 Q382.5256,102.9375 382.5256,99.8125 Q382.5256,96.6875 383.8381,95.0313 Q385.1663,93.375 387.6663,93.375 Q388.3694,93.375 389.01,93.5313 Q389.6663,93.6875 390.2288,93.9844 L390.2288,96.7031 Q389.6038,96.125 389.01,95.8594 Q388.4163,95.5781 387.7913,95.5781 Q386.4475,95.5781 385.76,96.6563 Q385.0725,97.7188 385.0725,99.8125 Q385.0725,101.9063 385.76,102.9844 Q386.4475,104.0469 387.7913,104.0469 Q388.4163,104.0469 389.01,103.7813 Q389.6038,103.5 390.2288,102.9219 L390.2288,105.6406 Z " fill="#000000"/><text fill="#000000" font-family="sans-serif" font-size="14" lengthAdjust="spacing" textLength="159.4824" x="401.26" y="104.8467">ControladorSimulacion</text><line style="stroke:#181818;stroke-width:0.5;" x1="373.26" x2="562.7424" y1="116" y2="116"/><line style="stroke:#181818;stroke-width:0.5;" x1="373.26" x2="562.7424" y1="124" y2="124"/><ellipse cx="383.26" cy="137.6484" fill="#84BE84" rx="3" ry="3" style="stroke:#038048;stroke-width:1;"/><text fill="#000000" font-family="sans-serif" font-size="14" lengthAdjust="spacing" textLength="130.2793" x="392.26" y="140.9951">iniciarSimulacion()</text><ellipse cx="383.26" cy="153.9453" fill="#84BE84" rx="3" ry="3" style="stroke:#038048;stroke-width:1;"/><text fill="#000000" font-family="sans-serif" font-size="14" lengthAdjust="spacing" textLength="122.9102" x="392.26" y="157.292">coordinarLogica()</text></g><!--class VisualizadorSimulacion--><g class="entity" data-entity="VisualizadorSimulacion" data-source-line="10" data-uid="ent0006" id="entity_VisualizadorSimulacion"><rect fill="#F1F1F1" height="64.2969" rx="2.5" ry="2.5" style="stroke:#181818;stroke-width:0.5;" width="193.9092" x="46.05" y="280.89"/><ellipse cx="61.05" cy="296.89" fill="#ADD1B2" rx="11" ry="11" style="stroke:#181818;stroke-width:1;"/><path d="M64.0188,302.5306 Q63.4406,302.8275 62.8,302.9681 Q62.1594,303.1244 61.4563,303.1244 Q58.9563,303.1244 57.6281,301.4838 Q56.3156,299.8275 56.3156,296.7025 Q56.3156,293.5775 57.6281,291.9213 Q58.9563,290.265 61.4563,290.265 Q62.1594,290.265 62.8,290.4213 Q63.4563,290.5775 64.0188,290.8744 L64.0188,293.5931 Q63.3938,293.015 62.8,292.7494 Q62.2063,292.4681 61.5813,292.4681 Q60.2375,292.4681 59.55,293.5463 Q58.8625,294.6088 58.8625,296.7025 Q58.8625,298.7963 59.55,299.8744 Q60.2375,300.9369 61.5813,300.9369 Q62.2063,300.9369 62.8,300.6713 Q63.3938,300.39 64.0188,299.8119 L64.0188,302.5306 Z " fill="#000000"/><text fill="#000000" font-family="sans-serif" font-size="14" lengthAdjust="spacing" textLength="161.9092" x="75.05" y="301.7367">VisualizadorSimulacion</text><line style="stroke:#181818;stroke-width:0.5;" x1="47.05" x2="238.9592" y1="312.89" y2="312.89"/><line style="stroke:#181818;stroke-width:0.5;" x1="47.05" x2="238.9592" y1="320.89" y2="320.89"/><ellipse cx="57.05" cy="334.5384" fill="#84BE84" rx="3" ry="3" style="stroke:#038048;stroke-width:1;"/><text fill="#000000" font-family="sans-serif" font-size="14" lengthAdjust="spacing" textLength="113.6611" x="66.05" y="337.8851">mostrarEstado()</text></g><!--class Cola--><g class="entity" data-entity="Cola" data-source-line="16" data-uid="ent0008" id="entity_Cola"><rect fill="#F1F1F1" height="96.8906" rx="2.5" ry="2.5" style="stroke:#181818;stroke-width:0.5;" width="163.4502" x="387.27" y="438.48"/><ellipse cx="449.3403" cy="454.48" fill="#ADD1B2" rx="11" ry="11" style="stroke:#181818;stroke-width:1;"/><path d="M452.3091,460.1206 Q451.7309,460.4175 451.0903,460.5581 Q450.4497,460.7144 449.7466,460.7144 Q447.2466,460.7144 445.9184,459.0737 Q444.6059,457.4175 444.6059,454.2925 Q444.6059,451.1675 445.9184,449.5112 Q447.2466,447.855 449.7466,447.855 Q450.4497,447.855 451.0903,448.0112 Q451.7466,448.1675 452.3091,448.4644 L452.3091,451.1831 Q451.6841,450.605 451.0903,450.3394 Q450.4966,450.0581 449.8716,450.0581 Q448.5278,450.0581 447.8403,451.1362 Q447.1528,452.1987 447.1528,454.2925 Q447.1528,456.3862 447.8403,457.4644 Q448.5278,458.5269 449.8716,458.5269 Q450.4966,458.5269 451.0903,458.2612 Q451.6841,457.98 452.3091,457.4019 L452.3091,460.1206 Z " fill="#000000"/><text fill="#000000" font-family="sans-serif" font-size="14" lengthAdjust="spacing" textLength="30.8096" x="469.8403" y="459.3267">Cola</text><line style="stroke:#181818;stroke-width:0.5;" x1="388.27" x2="549.7202" y1="470.48" y2="470.48"/><line style="stroke:#181818;stroke-width:0.5;" x1="388.27" x2="549.7202" y1="478.48" y2="478.48"/><ellipse cx="398.27" cy="492.1284" fill="#84BE84" rx="3" ry="3" style="stroke:#038048;stroke-width:1;"/><text fill="#000000" font-family="sans-serif" font-size="14" lengthAdjust="spacing" textLength="115.124" x="407.27" y="495.4751">agregarCliente()</text><ellipse cx="398.27" cy="508.4253" fill="#84BE84" rx="3" ry="3" style="stroke:#038048;stroke-width:1;"/><text fill="#000000" font-family="sans-serif" font-size="14" lengthAdjust="spacing" textLength="131.7354" x="407.27" y="511.772">obtenerSiguiente()</text><ellipse cx="398.27" cy="524.7222" fill="#84BE84" rx="3" ry="3" style="stroke:#038048;stroke-width:1;"/><text fill="#000000" font-family="sans-serif" font-size="14" lengthAdjust="spacing" textLength="137.4502" x="407.27" y="528.0689">verificarColaVacia()</text></g><!--class Caja--><g class="entity" data-entity="Caja" data-source-line="22" data-uid="ent0009" id="entity_Caja"><rect fill="#F1F1F1" height="96.8906" rx="2.5" ry="2.5" style="stroke:#181818;stroke-width:0.5;" width="147.2148" x="585.39" y="438.48"/><ellipse cx="639.3358" cy="454.48" fill="#ADD1B2" rx="11" ry="11" style="stroke:#181818;stroke-width:1;"/><path d="M642.3046,460.1206 Q641.7264,460.4175 641.0858,460.5581 Q640.4452,460.7144 639.7421,460.7144 Q637.2421,460.7144 635.9139,459.0737 Q634.6014,457.4175 634.6014,454.2925 Q634.6014,451.1675 635.9139,449.5112 Q637.2421,447.855 639.7421,447.855 Q640.4452,447.855 641.0858,448.0112 Q641.7421,448.1675 642.3046,448.4644 L642.3046,451.1831 Q641.6796,450.605 641.0858,450.3394 Q640.4921,450.0581 639.8671,450.0581 Q638.5233,450.0581 637.8358,451.1362 Q637.1483,452.1987 637.1483,454.2925 Q637.1483,456.3862 637.8358,457.4644 Q638.5233,458.5269 639.8671,458.5269 Q640.4921,458.5269 641.0858,458.2612 Q641.6796,457.98 642.3046,457.4019 L642.3046,460.1206 Z " fill="#000000"/><text fill="#000000" font-family="sans-serif" font-size="14" lengthAdjust="spacing" textLength="30.8232" x="659.8358" y="459.3267">Caja</text><line style="stroke:#181818;stroke-width:0.5;" x1="586.39" x2="731.6048" y1="470.48" y2="470.48"/><line style="stroke:#181818;stroke-width:0.5;" x1="586.39" x2="731.6048" y1="478.48" y2="478.48"/><ellipse cx="596.39" cy="492.1284" fill="#84BE84" rx="3" ry="3" style="stroke:#038048;stroke-width:1;"/><text fill="#000000" font-family="sans-serif" font-size="14" lengthAdjust="spacing" textLength="111.9248" x="605.39" y="495.4751">asignarCliente()</text><ellipse cx="596.39" cy="508.4253" fill="#84BE84" rx="3" ry="3" style="stroke:#038048;stroke-width:1;"/><text fill="#000000" font-family="sans-serif" font-size="14" lengthAdjust="spacing" textLength="121.2148" x="605.39" y="511.772">procesarCliente()</text><ellipse cx="596.39" cy="524.7222" fill="#84BE84" rx="3" ry="3" style="stroke:#038048;stroke-width:1;"/><text fill="#000000" font-family="sans-serif" font-size="14" lengthAdjust="spacing" textLength="58.3516" x="605.39" y="528.0689">estado()</text></g><!--class GestorCajas--><g class="entity" data-entity="GestorCajas" data-source-line="28" data-uid="ent0010" id="entity_GestorCajas"><rect fill="#F1F1F1" height="96.8906" rx="2.5" ry="2.5" style="stroke:#181818;stroke-width:0.5;" width="145.2188" x="395.39" y="264.59"/><ellipse cx="423.2308" cy="280.59" fill="#ADD1B2" rx="11" ry="11" style="stroke:#181818;stroke-width:1;"/><path d="M426.1996,286.2306 Q425.6214,286.5275 424.9808,286.6681 Q424.3402,286.8244 423.6371,286.8244 Q421.1371,286.8244 419.8089,285.1838 Q418.4964,283.5275 418.4964,280.4025 Q418.4964,277.2775 419.8089,275.6213 Q421.1371,273.965 423.6371,273.965 Q424.3402,273.965 424.9808,274.1213 Q425.6371,274.2775 426.1996,274.5744 L426.1996,277.2931 Q425.5746,276.715 424.9808,276.4494 Q424.3871,276.1681 423.7621,276.1681 Q422.4183,276.1681 421.7308,277.2463 Q421.0433,278.3088 421.0433,280.4025 Q421.0433,282.4963 421.7308,283.5744 Q422.4183,284.6369 423.7621,284.6369 Q424.3871,284.6369 424.9808,284.3713 Q425.5746,284.09 426.1996,283.5119 L426.1996,286.2306 Z " fill="#000000"/><text fill="#000000" font-family="sans-serif" font-size="14" lengthAdjust="spacing" textLength="84.6836" x="440.0843" y="285.4367">GestorCajas</text><line style="stroke:#181818;stroke-width:0.5;" x1="396.39" x2="539.6088" y1="296.59" y2="296.59"/><line style="stroke:#181818;stroke-width:0.5;" x1="396.39" x2="539.6088" y1="304.59" y2="304.59"/><ellipse cx="406.39" cy="318.2384" fill="#84BE84" rx="3" ry="3" style="stroke:#038048;stroke-width:1;"/><text fill="#000000" font-family="sans-serif" font-size="14" lengthAdjust="spacing" textLength="110.1885" x="415.39" y="321.5851">procesarCajas()</text><ellipse cx="406.39" cy="334.5353" fill="#84BE84" rx="3" ry="3" style="stroke:#038048;stroke-width:1;"/><text fill="#000000" font-family="sans-serif" font-size="14" lengthAdjust="spacing" textLength="119.2188" x="415.39" y="337.882">asignarClientes()</text><ellipse cx="406.39" cy="350.8322" fill="#84BE84" rx="3" ry="3" style="stroke:#038048;stroke-width:1;"/><text fill="#000000" font-family="sans-serif" font-size="14" lengthAdjust="spacing" textLength="113.6611" x="415.39" y="354.1789">mostrarEstado()</text></g><!--class Cliente--><g class="entity" data-entity="Cliente" data-source-line="34" data-uid="ent0011" id="entity_Cliente"><rect fill="#F1F1F1" height="64.2969" rx="2.5" ry="2.5" style="stroke:#181818;stroke-width:0.5;" width="141.1445" x="470.43" y="612.37"/><ellipse cx="512.4304" cy="628.37" fill="#ADD1B2" rx="11" ry="11" style="stroke:#181818;stroke-width:1;"/><path d="M515.3992,634.0106 Q514.8211,634.3075 514.1804,634.4481 Q513.5398,634.6044 512.8367,634.6044 Q510.3367,634.6044 509.0086,632.9638 Q507.6961,631.3075 507.6961,628.1825 Q507.6961,625.0575 509.0086,623.4013 Q510.3367,621.745 512.8367,621.745 Q513.5398,621.745 514.1804,621.9013 Q514.8367,622.0575 515.3992,622.3544 L515.3992,625.0731 Q514.7742,624.495 514.1804,624.2294 Q513.5867,623.9481 512.9617,623.9481 Q511.6179,623.9481 510.9304,625.0263 Q510.2429,626.0888 510.2429,628.1825 Q510.2429,630.2763 510.9304,631.3544 Q511.6179,632.4169 512.9617,632.4169 Q513.5867,632.4169 514.1804,632.1513 Q514.7742,631.87 515.3992,631.2919 L515.3992,634.0106 Z " fill="#000000"/><text fill="#000000" font-family="sans-serif" font-size="14" lengthAdjust="spacing" textLength="49.1436" x="532.4305" y="633.2167">Cliente</text><line style="stroke:#181818;stroke-width:0.5;" x1="471.43" x2="610.5745" y1="644.37" y2="644.37"/><line style="stroke:#181818;stroke-width:0.5;" x1="471.43" x2="610.5745" y1="652.37" y2="652.37"/><ellipse cx="481.43" cy="666.0184" fill="#84BE84" rx="3" ry="3" style="stroke:#038048;stroke-width:1;"/><text fill="#000000" font-family="sans-serif" font-size="14" lengthAdjust="spacing" textLength="115.1445" x="490.43" y="669.3651">generarCliente()</text></g><!--class Estadisticas--><g class="entity" data-entity="Estadisticas" data-source-line="38" data-uid="ent0012" id="entity_Estadisticas"><rect fill="#F1F1F1" height="96.8906" rx="2.5" ry="2.5" style="stroke:#181818;stroke-width:0.5;" width="157.6328" x="575.18" y="264.59"/><ellipse cx="609.2624" cy="280.59" fill="#ADD1B2" rx="11" ry="11" style="stroke:#181818;stroke-width:1;"/><path d="M612.2311,286.2306 Q611.653,286.5275 611.0124,286.6681 Q610.3717,286.8244 609.6686,286.8244 Q607.1686,286.8244 605.8405,285.1838 Q604.528,283.5275 604.528,280.4025 Q604.528,277.2775 605.8405,275.6213 Q607.1686,273.965 609.6686,273.965 Q610.3717,273.965 611.0124,274.1213 Q611.6686,274.2775 612.2311,274.5744 L612.2311,277.2931 Q611.6061,276.715 611.0124,276.4494 Q610.4186,276.1681 609.7936,276.1681 Q608.4499,276.1681 607.7624,277.2463 Q607.0749,278.3088 607.0749,280.4025 Q607.0749,282.4963 607.7624,283.5744 Q608.4499,284.6369 609.7936,284.6369 Q610.4186,284.6369 611.0124,284.3713 Q611.6061,284.09 612.2311,283.5119 L612.2311,286.2306 Z " fill="#000000"/><text fill="#000000" font-family="sans-serif" font-size="14" lengthAdjust="spacing" textLength="83.2275" x="627.5029" y="285.4367">Estadisticas</text><line style="stroke:#181818;stroke-width:0.5;" x1="576.18" x2="731.8128" y1="296.59" y2="296.59"/><line style="stroke:#181818;stroke-width:0.5;" x1="576.18" x2="731.8128" y1="304.59" y2="304.59"/><ellipse cx="586.18" cy="318.2384" fill="#84BE84" rx="3" ry="3" style="stroke:#038048;stroke-width:1;"/><text fill="#000000" font-family="sans-serif" font-size="14" lengthAdjust="spacing" textLength="118.7129" x="595.18" y="321.5851">registrarMinuto()</text><ellipse cx="586.18" cy="334.5353" fill="#84BE84" rx="3" ry="3" style="stroke:#038048;stroke-width:1;"/><text fill="#000000" font-family="sans-serif" font-size="14" lengthAdjust="spacing" textLength="120.0869" x="595.18" y="337.882">registrarCliente()</text><ellipse cx="586.18" cy="350.8322" fill="#84BE84" rx="3" ry="3" style="stroke:#038048;stroke-width:1;"/><text fill="#000000" font-family="sans-serif" font-size="14" lengthAdjust="spacing" textLength="131.6328" x="595.18" y="354.1789">mostrarResumen()</text></g><!--class GeneradorClientes--><g class="entity" data-entity="GeneradorClientes" data-source-line="46" data-uid="ent0014" id="entity_GeneradorClientes"><rect fill="#F1F1F1" height="64.2969" rx="2.5" ry="2.5" style="stroke:#181818;stroke-width:0.5;" width="218.6572" x="788.67" y="280.89"/><ellipse cx="828.7478" cy="296.89" fill="#ADD1B2" rx="11" ry="11" style="stroke:#181818;stroke-width:1;"/><path d="M831.7166,302.5306 Q831.1385,302.8275 830.4978,302.9681 Q829.8572,303.1244 829.1541,303.1244 Q826.6541,303.1244 825.326,301.4838 Q824.0135,299.8275 824.0135,296.7025 Q824.0135,293.5775 825.326,291.9213 Q826.6541,290.265 829.1541,290.265 Q829.8572,290.265 830.4978,290.4213 Q831.1541,290.5775 831.7166,290.8744 L831.7166,293.5931 Q831.0916,293.015 830.4978,292.7494 Q829.9041,292.4681 829.2791,292.4681 Q827.9353,292.4681 827.2478,293.5463 Q826.5603,294.6088 826.5603,296.7025 Q826.5603,298.7963 827.2478,299.8744 Q827.9353,300.9369 829.2791,300.9369 Q829.9041,300.9369 830.4978,300.6713 Q831.0916,300.39 831.7166,299.8119 L831.7166,302.5306 Z " fill="#000000"/><text fill="#000000" font-family="sans-serif" font-size="14" lengthAdjust="spacing" textLength="130.9287" x="848.3207" y="301.7367">GeneradorClientes</text><line style="stroke:#181818;stroke-width:0.5;" x1="789.67" x2="1006.3272" y1="312.89" y2="312.89"/><line style="stroke:#181818;stroke-width:0.5;" x1="789.67" x2="1006.3272" y1="320.89" y2="320.89"/><ellipse cx="799.67" cy="334.5384" fill="#84BE84" rx="3" ry="3" style="stroke:#038048;stroke-width:1;"/><text fill="#000000" font-family="sans-serif" font-size="14" lengthAdjust="spacing" textLength="192.6572" x="808.67" y="337.8851">generarClientesAleatorios()</text></g><!--class Constantes--><g class="entity" data-entity="Constantes" data-source-line="50" data-uid="ent0015" id="entity_Constantes"><rect fill="#F1F1F1" height="80.5938" rx="2.5" ry="2.5" style="stroke:#181818;stroke-width:0.5;" width="217.96" x="1042.02" y="272.74"/><ellipse cx="1107.3271" cy="288.74" fill="#ADD1B2" rx="11" ry="11" style="stroke:#181818;stroke-width:1;"/><path d="M1110.2959,294.3806 Q1109.7178,294.6775 1109.0771,294.8181 Q1108.4365,294.9744 1107.7334,294.9744 Q1105.2334,294.9744 1103.9053,293.3337 Q1102.5928,291.6775 1102.5928,288.5525 Q1102.5928,285.4275 1103.9053,283.7712 Q1105.2334,282.115 1107.7334,282.115 Q1108.4365,282.115 1109.0771,282.2712 Q1109.7334,282.4275 1110.2959,282.7244 L1110.2959,285.4431 Q1109.6709,284.865 1109.0771,284.5994 Q1108.4834,284.3181 1107.8584,284.3181 Q1106.5146,284.3181 1105.8271,285.3962 Q1105.1396,286.4587 1105.1396,288.5525 Q1105.1396,290.6462 1105.8271,291.7244 Q1106.5146,292.7869 1107.8584,292.7869 Q1108.4834,292.7869 1109.0771,292.5212 Q1109.6709,292.24 1110.2959,291.6619 L1110.2959,294.3806 Z " fill="#000000"/><text fill="#000000" font-family="sans-serif" font-size="14" lengthAdjust="spacing" textLength="78.8457" x="1127.8271" y="293.5867">Constantes</text><line style="stroke:#181818;stroke-width:0.5;" x1="1043.02" x2="1258.98" y1="304.74" y2="304.74"/><ellipse cx="1053.02" cy="318.3884" fill="none" rx="3" ry="3" style="stroke:#038048;stroke-width:1;"/><text fill="#000000" font-family="sans-serif" font-size="14" lengthAdjust="spacing" textLength="107.0918" x="1062.02" y="321.7351">tama&#241;oJornada</text><ellipse cx="1053.02" cy="334.6853" fill="none" rx="3" ry="3" style="stroke:#038048;stroke-width:1;"/><text fill="#000000" font-family="sans-serif" font-size="14" lengthAdjust="spacing" textLength="191.96" x="1062.02" y="338.032">probabilidadLlegadaCliente</text><line style="stroke:#181818;stroke-width:0.5;" x1="1043.02" x2="1258.98" y1="345.3337" y2="345.3337"/></g><!--link ControladorSimulacion to VisualizadorSimulacion--><g class="link" data-entity-1="ControladorSimulacion" data-entity-2="VisualizadorSimulacion" data-source-line="57" data-uid="lnk16" id="link_ControladorSimulacion_VisualizadorSimulacion"><path codeLine="57" d="M372.03,143.36 C330.05,154.27 281.68,171.14 243,196.59 C209.66,218.53 184.3758,249.6372 166.3858,275.6172" fill="none" id="ControladorSimulacion-to-VisualizadorSimulacion" style="stroke:#181818;stroke-width:1;"/><polygon fill="#181818" points="162.97,280.55,171.3822,275.428,165.8165,276.4393,164.8051,270.8736,162.97,280.55" style="stroke:#181818;stroke-width:1;"/><text fill="#000000" font-family="sans-serif" font-size="13" lengthAdjust="spacing" textLength="56.4688" x="244" y="209.6569">coordina</text></g><!--link ControladorSimulacion to Cola--><g class="link" data-entity-1="ControladorSimulacion" data-entity-2="Cola" data-source-line="58" data-uid="lnk17" id="link_ControladorSimulacion_Cola"><path codeLine="58" d="M382.97,164.86 C361.1,179.42 340.29,198.22 328,221.59 C295.78,282.86 297.44,315.23 328,377.33 C340.89,403.53 358.6171,421.6755 381.9871,438.5655" fill="none" id="ControladorSimulacion-to-Cola" style="stroke:#181818;stroke-width:1;"/><polygon fill="#181818" points="386.85,442.08,381.8986,433.5662,382.7976,439.1512,377.2126,440.0501,386.85,442.08" style="stroke:#181818;stroke-width:1;"/><text fill="#000000" font-family="sans-serif" font-size="13" lengthAdjust="spacing" textLength="48.4453" x="329" y="317.6069">maneja</text></g><!--link ControladorSimulacion to GestorCajas--><g class="link" data-entity-1="ControladorSimulacion" data-entity-2="GestorCajas" data-source-line="59" data-uid="lnk18" id="link_ControladorSimulacion_GestorCajas"><path codeLine="59" d="M468,164.9 C468,193.91 468,227.43 468,258.21" fill="none" id="ControladorSimulacion-to-GestorCajas" style="stroke:#181818;stroke-width:1;"/><polygon fill="#181818" points="468,264.21,472,255.21,468,259.21,464,255.21,468,264.21" style="stroke:#181818;stroke-width:1;"/><text fill="#000000" font-family="sans-serif" font-size="13" lengthAdjust="spacing" textLength="56.4688" x="469" y="209.6569">coordina</text></g><!--link ControladorSimulacion to Estadisticas--><g class="link" data-entity-1="ControladorSimulacion" data-entity-2="Estadisticas" data-source-line="60" data-uid="lnk19" id="link_ControladorSimulacion_Estadisticas"><path codeLine="60" d="M507.45,164.9 C536.34,193.91 571.4763,229.1784 602.1263,259.9584" fill="none" id="ControladorSimulacion-to-Estadisticas" style="stroke:#181818;stroke-width:1;"/><polygon fill="#181818" points="606.36,264.21,602.8439,255.0102,602.832,260.667,597.1751,260.655,606.36,264.21" style="stroke:#181818;stroke-width:1;"/><text fill="#000000" font-family="sans-serif" font-size="13" lengthAdjust="spacing" textLength="50.3877" x="556" y="209.6569">registra</text></g><!--link Cola to Cliente--><g class="link" data-entity-1="Cola" data-entity-2="Cliente" data-source-line="62" data-uid="lnk20" id="link_Cola_Cliente"><path codeLine="62" d="M490.99,535.46 C502.49,560.3 513.7184,584.5856 523.8984,606.5656" fill="none" id="Cola-to-Cliente" style="stroke:#181818;stroke-width:1;"/><polygon fill="#181818" points="526.42,612.01,526.2673,602.1623,524.3187,607.473,519.008,605.5244,526.42,612.01" style="stroke:#181818;stroke-width:1;"/><text fill="#000000" font-family="sans-serif" font-size="13" lengthAdjust="spacing" textLength="56.2847" x="512" y="578.4369">contiene</text></g><!--link GestorCajas to Caja--><g class="link" data-entity-1="GestorCajas" data-entity-2="Caja" data-source-line="63" data-uid="lnk21" id="link_GestorCajas_Caja"><path codeLine="63" d="M535.72,361.88 C543.22,367.12 550.76,372.35 558,377.33 C567.27,383.72 570.62,383.97 579,391.48 C594.69,405.53 606.2711,418.0422 619.3011,433.8322" fill="none" id="GestorCajas-to-Caja" style="stroke:#181818;stroke-width:1;"/><polygon fill="#181818" points="623.12,438.46,620.4769,428.9724,619.9376,434.6035,614.3065,434.0643,623.12,438.46" style="stroke:#181818;stroke-width:1;"/><text fill="#000000" font-family="sans-serif" font-size="13" lengthAdjust="spacing" textLength="55.8911" x="596" y="404.5469">gestiona</text></g><!--link Caja to Cliente--><g class="link" data-entity-1="Caja" data-entity-2="Cliente" data-source-line="64" data-uid="lnk22" id="link_Caja_Cliente"><path codeLine="64" d="M622.95,535.46 C604.11,560.3 585.1957,585.2494 568.5257,607.2294" fill="none" id="Caja-to-Cliente" style="stroke:#181818;stroke-width:1;"/><polygon fill="#181818" points="564.9,612.01,573.5256,607.2562,567.9214,608.0262,567.1515,602.4219,564.9,612.01" style="stroke:#181818;stroke-width:1;"/><text fill="#000000" font-family="sans-serif" font-size="13" lengthAdjust="spacing" textLength="51.4351" x="601" y="578.4369">procesa</text></g><!--link ControladorSimulacion to GeneradorClientes--><g class="link" data-entity-1="ControladorSimulacion" data-entity-2="GeneradorClientes" data-source-line="66" data-uid="lnk23" id="link_ControladorSimulacion_GeneradorClientes"><path codeLine="66" d="M563.99,152.55 C619.24,169.62 689.33,193.66 749,221.59 C784.9,238.4 818.0551,258.4112 846.7751,277.1512" fill="none" id="ControladorSimulacion-to-GeneradorClientes" style="stroke:#181818;stroke-width:1;"/><polygon fill="#181818" points="851.8,280.43,846.4485,272.1619,847.6126,277.6977,842.0768,278.8618,851.8,280.43" style="stroke:#181818;stroke-width:1;"/><text fill="#000000" font-family="sans-serif" font-size="13" lengthAdjust="spacing" textLength="38.9619" x="728" y="209.6569">utiliza</text></g><!--link GestorCajas to Cola--><g class="link" data-entity-1="GestorCajas" data-entity-2="Cola" data-source-line="67" data-uid="lnk24" id="link_GestorCajas_Cola"><path codeLine="67" d="M468.28,361.92 C468.42,385.66 468.5446,408.2601 468.6846,432.0101" fill="none" id="GestorCajas-to-Cola" style="stroke:#181818;stroke-width:1;"/><polygon fill="#181818" points="468.72,438.01,472.6669,428.9866,468.6905,433.0101,464.667,429.0337,468.72,438.01" style="stroke:#181818;stroke-width:1;"/><text fill="#000000" font-family="sans-serif" font-size="13" lengthAdjust="spacing" textLength="101.5562" x="469" y="404.5469">obtieneClientes</text></g><!--SRC=[ZLDBJiCm4Dtx55OtW10No089HO24saqHtK-J8HfmF9Nji6ZLGt46BiOuJLkxf1LU9NwUzzxyLb1zGeEwBCkdZLeDVvEIRN1ie6OtqHkbvLG6lDS9y4fjPw0YjiEBU6x9KaMGWDStHx1YTZLPS5Dkg881sggjEaelo0V8HUMg0qFhywej- -30FKfepQEqCwxHy6ao1b8MQ1msu4f3Q0EcndaPqAA8DzqVx0iTlKisBj8jnDenhrGBFd8jJuqTrLevhj2FGfZdbz0_2yGkYlXKvS0LWPGfby-WyLgcgUo2KfqcLkVKSXRKqqbhfL2PGwauzNepibtWrCW16gd4O7AElclHZdRyBP2X6chqUTUVUwyoIllapoVY7mo2r9NOZnQ2hMHrIX6WXPzlVc5deOQi5qjOxZnDZGnQ3OFCmVnMNUavxiORlHfVjhkx-tCRKUZzXbs8xQU-q2rO_BZqBXsfVn5dBIxqldrAzOgzz30vaSu6-KQLglHFufuKkf5huHMv-9_73aEjBde_xN6XkpWFQ_YhkAk7h7Wqj0_u1G00]--></g></svg>