<svg xmlns="http://www.w3.org/2000/svg" xmlns:xlink="http://www.w3.org/1999/xlink" contentStyleType="text/css" height="316px" preserveAspectRatio="none" style="width:355px;height:316px;background:#FFFFFF;" version="1.1" viewBox="0 0 355 316" width="355px" zoomAndPan="magnify"><defs/><g><!--class Jornada--><g id="elem_Jornada"><rect codeLine="2" fill="#F1F1F1" height="48" id="Jornada" rx="2.5" ry="2.5" style="stroke:#181818;stroke-width:0.5;" width="83.0438" x="76.58" y="7"/><ellipse cx="91.58" cy="23" fill="#ADD1B2" rx="11" ry="11" style="stroke:#181818;stroke-width:1.0;"/><path d="M94.5488,28.6406 Q93.9706,28.9375 93.33,29.0781 Q92.6894,29.2344 91.9863,29.2344 Q89.4863,29.2344 88.1581,27.5938 Q86.8456,25.9375 86.8456,22.8125 Q86.8456,19.6875 88.1581,18.0313 Q89.4863,16.375 91.9863,16.375 Q92.6894,16.375 93.33,16.5313 Q93.9863,16.6875 94.5488,16.9844 L94.5488,19.7031 Q93.9238,19.125 93.33,18.8594 Q92.7363,18.5781 92.1113,18.5781 Q90.7675,18.5781 90.08,19.6563 Q89.3925,20.7188 89.3925,22.8125 Q89.3925,24.9063 90.08,25.9844 Q90.7675,27.0469 92.1113,27.0469 Q92.7363,27.0469 93.33,26.7813 Q93.9238,26.5 94.5488,25.9219 L94.5488,28.6406 Z " fill="#000000"/><text fill="#000000" font-family="sans-serif" font-size="14" lengthAdjust="spacing" textLength="51.0438" x="105.58" y="28.432">Jornada</text><line style="stroke:#181818;stroke-width:0.5;" x1="77.58" x2="158.6238" y1="39" y2="39"/><line style="stroke:#181818;stroke-width:0.5;" x1="77.58" x2="158.6238" y1="47" y2="47"/></g><!--class Caja--><g id="elem_Caja"><rect codeLine="4" fill="#F1F1F1" height="48" id="Caja" rx="2.5" ry="2.5" style="stroke:#181818;stroke-width:0.5;" width="60.1679" x="37.08" y="134"/><ellipse cx="52.08" cy="150" fill="#ADD1B2" rx="11" ry="11" style="stroke:#181818;stroke-width:1.0;"/><path d="M55.0488,155.6406 Q54.4706,155.9375 53.83,156.0781 Q53.1894,156.2344 52.4863,156.2344 Q49.9863,156.2344 48.6581,154.5938 Q47.3456,152.9375 47.3456,149.8125 Q47.3456,146.6875 48.6581,145.0313 Q49.9863,143.375 52.4863,143.375 Q53.1894,143.375 53.83,143.5313 Q54.4863,143.6875 55.0488,143.9844 L55.0488,146.7031 Q54.4238,146.125 53.83,145.8594 Q53.2363,145.5781 52.6113,145.5781 Q51.2675,145.5781 50.58,146.6563 Q49.8925,147.7188 49.8925,149.8125 Q49.8925,151.9063 50.58,152.9844 Q51.2675,154.0469 52.6113,154.0469 Q53.2363,154.0469 53.83,153.7813 Q54.4238,153.5 55.0488,152.9219 L55.0488,155.6406 Z " fill="#000000"/><text fill="#000000" font-family="sans-serif" font-size="14" lengthAdjust="spacing" textLength="28.1679" x="66.08" y="155.432">Caja</text><line style="stroke:#181818;stroke-width:0.5;" x1="38.08" x2="96.2479" y1="166" y2="166"/><line style="stroke:#181818;stroke-width:0.5;" x1="38.08" x2="96.2479" y1="174" y2="174"/></g><!--class Cola--><g id="elem_Cola"><rect codeLine="6" fill="#F1F1F1" height="48" id="Cola" rx="2.5" ry="2.5" style="stroke:#181818;stroke-width:0.5;" width="60.7839" x="71.58" y="261"/><ellipse cx="86.58" cy="277" fill="#ADD1B2" rx="11" ry="11" style="stroke:#181818;stroke-width:1.0;"/><path d="M89.5488,282.6406 Q88.9706,282.9375 88.33,283.0781 Q87.6894,283.2344 86.9863,283.2344 Q84.4863,283.2344 83.1581,281.5938 Q81.8456,279.9375 81.8456,276.8125 Q81.8456,273.6875 83.1581,272.0313 Q84.4863,270.375 86.9863,270.375 Q87.6894,270.375 88.33,270.5313 Q88.9863,270.6875 89.5488,270.9844 L89.5488,273.7031 Q88.9238,273.125 88.33,272.8594 Q87.7363,272.5781 87.1113,272.5781 Q85.7675,272.5781 85.08,273.6563 Q84.3925,274.7188 84.3925,276.8125 Q84.3925,278.9063 85.08,279.9844 Q85.7675,281.0469 87.1113,281.0469 Q87.7363,281.0469 88.33,280.7813 Q88.9238,280.5 89.5488,279.9219 L89.5488,282.6406 Z " fill="#000000"/><text fill="#000000" font-family="sans-serif" font-size="14" lengthAdjust="spacing" textLength="28.7839" x="100.58" y="282.432">Cola</text><line style="stroke:#181818;stroke-width:0.5;" x1="72.58" x2="131.3639" y1="293" y2="293"/><line style="stroke:#181818;stroke-width:0.5;" x1="72.58" x2="131.3639" y1="301" y2="301"/></g><!--class Productos--><g id="elem_Productos"><rect codeLine="8" fill="#F1F1F1" height="48" id="Productos" rx="2.5" ry="2.5" style="stroke:#181818;stroke-width:0.5;" width="98.9338" x="249.58" y="261"/><ellipse cx="264.58" cy="277" fill="#ADD1B2" rx="11" ry="11" style="stroke:#181818;stroke-width:1.0;"/><path d="M267.5488,282.6406 Q266.9706,282.9375 266.33,283.0781 Q265.6894,283.2344 264.9863,283.2344 Q262.4863,283.2344 261.1581,281.5938 Q259.8456,279.9375 259.8456,276.8125 Q259.8456,273.6875 261.1581,272.0313 Q262.4863,270.375 264.9863,270.375 Q265.6894,270.375 266.33,270.5313 Q266.9863,270.6875 267.5488,270.9844 L267.5488,273.7031 Q266.9238,273.125 266.33,272.8594 Q265.7363,272.5781 265.1113,272.5781 Q263.7675,272.5781 263.08,273.6563 Q262.3925,274.7188 262.3925,276.8125 Q262.3925,278.9063 263.08,279.9844 Q263.7675,281.0469 265.1113,281.0469 Q265.7363,281.0469 266.33,280.7813 Q266.9238,280.5 267.5488,279.9219 L267.5488,282.6406 Z " fill="#000000"/><text fill="#000000" font-family="sans-serif" font-size="14" lengthAdjust="spacing" textLength="66.9338" x="278.58" y="282.432">Productos</text><line style="stroke:#181818;stroke-width:0.5;" x1="250.58" x2="347.5138" y1="293" y2="293"/><line style="stroke:#181818;stroke-width:0.5;" x1="250.58" x2="347.5138" y1="301" y2="301"/></g><!--class Cliente--><g id="elem_Cliente"><rect fill="#F1F1F1" height="48" id="Cliente" rx="2.5" ry="2.5" style="stroke:#181818;stroke-width:0.5;" width="77.5698" x="179.08" y="134"/><ellipse cx="194.08" cy="150" fill="#ADD1B2" rx="11" ry="11" style="stroke:#181818;stroke-width:1.0;"/><path d="M197.0488,155.6406 Q196.4706,155.9375 195.83,156.0781 Q195.1894,156.2344 194.4863,156.2344 Q191.9863,156.2344 190.6581,154.5938 Q189.3456,152.9375 189.3456,149.8125 Q189.3456,146.6875 190.6581,145.0313 Q191.9863,143.375 194.4863,143.375 Q195.1894,143.375 195.83,143.5313 Q196.4863,143.6875 197.0488,143.9844 L197.0488,146.7031 Q196.4238,146.125 195.83,145.8594 Q195.2363,145.5781 194.6113,145.5781 Q193.2675,145.5781 192.58,146.6563 Q191.8925,147.7188 191.8925,149.8125 Q191.8925,151.9063 192.58,152.9844 Q193.2675,154.0469 194.6113,154.0469 Q195.2363,154.0469 195.83,153.7813 Q196.4238,153.5 197.0488,152.9219 L197.0488,155.6406 Z " fill="#000000"/><text fill="#000000" font-family="sans-serif" font-size="14" lengthAdjust="spacing" textLength="45.5698" x="208.08" y="155.432">Cliente</text><line style="stroke:#181818;stroke-width:0.5;" x1="180.08" x2="255.6498" y1="166" y2="166"/><line style="stroke:#181818;stroke-width:0.5;" x1="180.08" x2="255.6498" y1="174" y2="174"/></g><!--link Jornada to Caja--><g id="link_Jornada_Caja"><path codeLine="11" d="M103.43,55.15 C98.11,64.22 92.36,74.87 88.08,85 C81.4,100.83 77.4952,113.6642 73.8552,128.0142 " fill="none" id="Jornada-to-Caja" style="stroke:#181818;stroke-width:1.0;"/><polygon fill="#181818" points="72.38,133.83,78.4701,126.0898,73.6094,128.9835,70.7156,124.1228,72.38,133.83" style="stroke:#181818;stroke-width:1.0;"/><text fill="#000000" font-family="sans-serif" font-size="13" lengthAdjust="spacing" textLength="29.003" x="89.08" y="99.897">Abre</text></g><!--link Jornada to Cliente--><g id="link_Jornada_Cliente"><path codeLine="12" d="M136.65,55.22 C154.62,77.67 177.9328,106.814 195.8528,129.224 " fill="none" id="Jornada-to-Cliente" style="stroke:#181818;stroke-width:1.0;"/><polygon fill="#181818" points="199.6,133.91,197.1033,124.3829,196.4774,130.005,190.8553,129.3791,199.6,133.91" style="stroke:#181818;stroke-width:1.0;"/><text fill="#000000" font-family="sans-serif" font-size="13" lengthAdjust="spacing" textLength="29.796" x="174.08" y="99.897">Sirve</text></g><!--link Cliente to Productos--><g id="link_Cliente_Productos"><path codeLine="13" d="M237.8,182.09 C245.16,191.15 253.36,201.81 260.08,212 C270.41,227.66 277.7426,240.9706 285.0526,255.3606 " fill="none" id="Cliente-to-Productos" style="stroke:#181818;stroke-width:1.0;"/><polygon fill="#181818" points="287.77,260.71,287.2601,250.8744,285.5055,256.2522,280.1276,254.4976,287.77,260.71" style="stroke:#181818;stroke-width:1.0;"/><text fill="#000000" font-family="sans-serif" font-size="13" lengthAdjust="spacing" textLength="33.28" x="271.08" y="226.897">Tiene</text></g><!--link Cliente to Cola--><g id="link_Cliente_Cola"><path codeLine="14" d="M208.93,182.15 C202.2,197.2 192,216.62 179.08,231 C165.95,245.6 153.1571,255.1234 137.9071,264.3934 " fill="none" id="Cliente-to-Cola" style="stroke:#181818;stroke-width:1.0;"/><polygon fill="#181818" points="132.78,267.51,142.5483,266.2532,137.0526,264.9128,138.3929,259.4171,132.78,267.51" style="stroke:#181818;stroke-width:1.0;"/><text fill="#000000" font-family="sans-serif" font-size="13" lengthAdjust="spacing" textLength="39.429" x="193.08" y="226.897">Forma</text></g><!--link Caja to Cola--><g id="link_Caja_Cola"><path codeLine="15" d="M36.91,179.95 C20.73,193.91 6,212.94 16.08,231 C27.79,251.98 51.6,265.68 71.2,273.89 " fill="none" id="Caja-Cola" style="stroke:#181818;stroke-width:1.0;stroke-dasharray:7.0,7.0;"/><text fill="#000000" font-family="sans-serif" font-size="13" lengthAdjust="spacing" textLength="157.6121" x="17.08" y="226.897">Gestiona dependiendo de</text></g><!--SRC=[Iyv9B2vMyCeloajCILIevghbIWQBE2TceN3pSv2v0KNvAQN99Vd5O34kc7PTNJk8HYi59SUaebGbL9cSpDIyabIGP71cKHbG5YO2aaKO2PGF0OgZoODT09Hooo_AJGHAWQpHquCBkwSMbsJcvoKgfAGMfEQb0FMbv0FPIbm0]--></g></svg>