<?xml version="1.0" encoding="UTF-8" standalone="no"?><svg xmlns="http://www.w3.org/2000/svg" xmlns:xlink="http://www.w3.org/1999/xlink" contentStyleType="text/css" height="274px" preserveAspectRatio="none" style="width:357px;height:274px;background:#FFFFFF;" version="1.1" viewBox="0 0 357 274" width="357px" zoomAndPan="magnify"><defs/><g><g id="elem_heman"><rect fill="#F1F1F1" height="44.1973" style="stroke:#181818;stroke-width:0.5;" width="124" x="30" y="103"/><text fill="#000000" font-family="sans-serif" font-size="14" lengthAdjust="spacing" textLength="110" x="37" y="118.1318">heman: Guerrero</text><line style="stroke:#181818;stroke-width:0.5;" x1="31" x2="153" y1="123.0986" y2="123.0986"/><text fill="#000000" font-family="sans-serif" font-size="14" lengthAdjust="spacing" textLength="80" x="36" y="140.2305">energia = 20</text></g><g id="elem_arma"><rect fill="#F1F1F1" height="60.2959" style="stroke:#181818;stroke-width:0.5;" width="154" x="7" y="207"/><text fill="#000000" font-family="sans-serif" font-size="14" lengthAdjust="spacing" textLength="75" x="46.5" y="222.1318">arma: Arma</text><line style="stroke:#181818;stroke-width:0.5;" x1="8" x2="160" y1="227.0986" y2="227.0986"/><text fill="#000000" font-family="sans-serif" font-size="14" lengthAdjust="spacing" textLength="56" x="13" y="244.2305">da単o = 4</text><text fill="#000000" font-family="sans-serif" font-size="14" lengthAdjust="spacing" textLength="142" x="13" y="260.3291">porcentajeExito = 50%</text></g><g id="elem_dracula"><rect fill="#F1F1F1" height="44.1973" style="stroke:#181818;stroke-width:0.5;" width="122" x="204" y="103"/><text fill="#000000" font-family="sans-serif" font-size="14" lengthAdjust="spacing" textLength="108" x="211" y="118.1318">dracula: Vampiro</text><line style="stroke:#181818;stroke-width:0.5;" x1="205" x2="325" y1="123.0986" y2="123.0986"/><text fill="#000000" font-family="sans-serif" font-size="14" lengthAdjust="spacing" textLength="80" x="210" y="140.2305">energia = 10</text></g><g id="elem_mordida"><rect fill="#F1F1F1" height="60.2959" style="stroke:#181818;stroke-width:0.5;" width="154" x="196" y="207"/><text fill="#000000" font-family="sans-serif" font-size="14" lengthAdjust="spacing" textLength="112" x="217" y="222.1318">mordida: Mordida</text><line style="stroke:#181818;stroke-width:0.5;" x1="197" x2="349" y1="227.0986" y2="227.0986"/><text fill="#000000" font-family="sans-serif" font-size="14" lengthAdjust="spacing" textLength="56" x="202" y="244.2305">da単o = 2</text><text fill="#000000" font-family="sans-serif" font-size="14" lengthAdjust="spacing" textLength="142" x="202" y="260.3291">porcentajeExito = 50%</text></g><g id="elem_batalla"><rect fill="#F1F1F1" height="36.0986" style="stroke:#181818;stroke-width:0.5;" width="56" x="150" y="7"/><text fill="#000000" font-family="sans-serif" font-size="14" lengthAdjust="spacing" textLength="42" x="157" y="22.1318">batalla</text><line style="stroke:#181818;stroke-width:0.5;" x1="151" x2="205" y1="27.0986" y2="27.0986"/></g><!--MD5=[135bf4bd3fe575970169003222382373]
reverse link batalla to heman--><g id="link_batalla_heman"><path codeLine="22" d="M154.14,53.19 C140.43,68.82 123.45,88.16 110.71,102.68 " fill="none" id="batalla-backto-heman" style="stroke:#181818;stroke-width:1.0;"/><polygon fill="#181818" points="163.02,43.07,156.0563,44.9428,155.1067,52.0911,162.0704,50.2183,163.02,43.07" style="stroke:#181818;stroke-width:1.0;"/></g><!--MD5=[4a33fe73dc98aa6bd2498ff5cb100ab9]
reverse link batalla to dracula--><g id="link_batalla_dracula"><path codeLine="23" d="M202.14,53.19 C216.01,68.82 233.19,88.16 246.08,102.68 " fill="none" id="batalla-backto-dracula" style="stroke:#181818;stroke-width:1.0;"/><polygon fill="#181818" points="193.15,43.07,194.1387,50.213,201.1125,52.0476,200.1238,44.9046,193.15,43.07" style="stroke:#181818;stroke-width:1.0;"/></g><!--MD5=[743fbe3ebb4cebbada5a64daa7a72b3b]
reverse link heman to arma--><g id="link_heman_arma"><path codeLine="25" d="M89.48,160.61 C88.4,175.51 87.15,192.73 86.11,206.95 " fill="none" id="heman-backto-arma" style="stroke:#181818;stroke-width:1.0;"/><polygon fill="#181818" points="90.46,147.21,86.0351,152.9039,89.5891,159.1784,94.014,153.4845,90.46,147.21" style="stroke:#181818;stroke-width:1.0;"/></g><!--MD5=[fc57bbf9ff043f5bd0d5b89cc6d6dc8a]
reverse link dracula to mordida--><g id="link_dracula_mordida"><path codeLine="26" d="M267.52,160.61 C268.6,175.51 269.85,192.73 270.89,206.95 " fill="none" id="dracula-backto-mordida" style="stroke:#181818;stroke-width:1.0;"/><polygon fill="#181818" points="266.54,147.21,262.986,153.4845,267.4109,159.1784,270.9649,152.9039,266.54,147.21" style="stroke:#181818;stroke-width:1.0;"/></g><!--MD5=[d3a6244761dd7d9647fd3085c0501b0a]
@startuml
object "heman: Guerrero" as heman{
    energia = 20
    
}

object "arma: Arma" as arma {
    da単o = 4
    porcentajeExito = 50%
}

object "dracula: Vampiro" as dracula{
    energia = 10
}

object "mordida: Mordida" as mordida {
    da単o = 2
    porcentajeExito = 50%
}

object batalla

batalla *-d- heman
batalla *-d- dracula

heman *- - arma
dracula *- - mordida
@enduml

PlantUML version 1.2022.7(Mon Aug 22 19:01:30 CEST 2022)
(GPL source distribution)
Java Runtime: OpenJDK Runtime Environment
JVM: OpenJDK 64-Bit Server VM
Default Encoding: UTF-8
Language: es
Country: ES
--></g></svg>