<svg xmlns="http://www.w3.org/2000/svg" xmlns:xlink="http://www.w3.org/1999/xlink" contentStyleType="text/css" data-diagram-type="CLASS" height="633px" preserveAspectRatio="none" style="width:1251px;height:633px;background:#FFFFFF;" version="1.1" viewBox="0 0 1251 633" width="1251px" zoomAndPan="magnify"><defs/><g><!--cluster implementacion--><g class="cluster" data-entity="implementacion" data-source-line="7" data-uid="ent0004" id="cluster_implementacion"><rect fill="none" height="482" rx="2.5" ry="2.5" style="stroke:#000000;stroke-width:1.5;" width="1003.93" x="7" y="7"/><text fill="#000000" font-family="sans-serif" font-size="14" font-weight="bold" lengthAdjust="spacing" textLength="126.5742" x="445.6779" y="21.9951">implementacion</text></g><!--cluster modelo--><g class="cluster" data-entity="modelo" data-source-line="6" data-uid="ent0002" id="cluster_modelo"><rect fill="none" height="415" rx="2.5" ry="2.5" style="stroke:#000000;stroke-width:1.5;" width="955.93" x="31" y="50"/><text fill="#000000" font-family="sans-serif" font-size="14" font-weight="bold" lengthAdjust="spacing" textLength="58.1396" x="479.8952" y="64.9951">modelo</text></g><!--cluster interfaces--><g class="cluster" data-entity="interfaces" data-source-line="50" data-uid="ent0011" id="cluster_interfaces"><rect fill="none" height="498" rx="2.5" ry="2.5" style="stroke:#000000;stroke-width:1.5;" width="202.02" x="1043.93" y="129"/><text fill="#000000" font-family="sans-serif" font-size="14" font-weight="bold" lengthAdjust="spacing" textLength="79.5225" x="1105.1788" y="143.9951">interfaces</text></g><!--cluster modelo--><g class="cluster" data-entity="modelo" data-source-line="49" data-uid="ent0009" id="cluster_modelo"><rect fill="none" height="431" rx="2.5" ry="2.5" style="stroke:#000000;stroke-width:1.5;" width="154.02" x="1067.93" y="172"/><text fill="#000000" font-family="sans-serif" font-size="14" font-weight="bold" lengthAdjust="spacing" textLength="58.1396" x="1115.8702" y="186.9951">modelo</text></g><!--class Restaurante--><g class="entity" data-entity="Restaurante" data-source-line="7" data-uid="ent0003" id="entity_Restaurante"><rect fill="#F1F1F1" height="162.0781" rx="2.5" ry="2.5" style="stroke:#181818;stroke-width:0.5;" width="288.4727" x="47" y="225.96"/><ellipse cx="144.043" cy="241.96" fill="#ADD1B2" rx="11" ry="11" style="stroke:#181818;stroke-width:1;"/><path d="M147.0117,247.6006 Q146.4336,247.8975 145.793,248.0381 Q145.1523,248.1944 144.4492,248.1944 Q141.9492,248.1944 140.6211,246.5537 Q139.3086,244.8975 139.3086,241.7725 Q139.3086,238.6475 140.6211,236.9912 Q141.9492,235.335 144.4492,235.335 Q145.1523,235.335 145.793,235.4912 Q146.4492,235.6475 147.0117,235.9444 L147.0117,238.6631 Q146.3867,238.085 145.793,237.8194 Q145.1992,237.5381 144.5742,237.5381 Q143.2305,237.5381 142.543,238.6162 Q141.8555,239.6787 141.8555,241.7725 Q141.8555,243.8662 142.543,244.9444 Q143.2305,246.0069 144.5742,246.0069 Q145.1992,246.0069 145.793,245.7412 Q146.3867,245.46 147.0117,244.8819 L147.0117,247.6006 Z " fill="#000000"/><text fill="#000000" font-family="sans-serif" font-size="14" lengthAdjust="spacing" textLength="85.8867" x="164.543" y="246.8067">Restaurante</text><line style="stroke:#181818;stroke-width:0.5;" x1="48" x2="334.4727" y1="257.96" y2="257.96"/><line style="stroke:#181818;stroke-width:0.5;" x1="48" x2="334.4727" y1="265.96" y2="265.96"/><text fill="#000000" font-family="sans-serif" font-size="14" lengthAdjust="spacing" textLength="173.6465" x="53" y="282.9551">+agregarMesa(m: Mesa)</text><text fill="#000000" font-family="sans-serif" font-size="14" lengthAdjust="spacing" textLength="276.4727" x="53" y="299.252">+registrarReserva(r: Reserva): boolean</text><text fill="#000000" font-family="sans-serif" font-size="14" lengthAdjust="spacing" textLength="190.333" x="53" y="315.5489">+agregarPedido(p: Pedido)</text><text fill="#000000" font-family="sans-serif" font-size="14" lengthAdjust="spacing" textLength="274.7227" x="53" y="331.8457">+obtenerMesaPorNumero(n: int): Mesa</text><text fill="#000000" font-family="sans-serif" font-size="14" lengthAdjust="spacing" textLength="183.1689" x="53" y="348.1426">+getMesas(): List&lt;Mesa&gt;</text><text fill="#000000" font-family="sans-serif" font-size="14" lengthAdjust="spacing" textLength="223.7744" x="53" y="364.4395">+getReservas(): List&lt;Reserva&gt;</text><text fill="#000000" font-family="sans-serif" font-size="14" lengthAdjust="spacing" textLength="204.6064" x="53" y="380.7364">+getPedidos(): List&lt;Pedido&gt;</text></g><!--class Mesa--><g class="entity" data-entity="Mesa" data-source-line="17" data-uid="ent0005" id="entity_Mesa"><rect fill="#F1F1F1" height="145.7813" rx="2.5" ry="2.5" style="stroke:#181818;stroke-width:0.5;" width="241.3457" x="729.59" y="85.11"/><ellipse cx="827.7301" cy="101.11" fill="#ADD1B2" rx="11" ry="11" style="stroke:#181818;stroke-width:1;"/><path d="M830.6989,106.7506 Q830.1208,107.0475 829.4801,107.1881 Q828.8395,107.3444 828.1364,107.3444 Q825.6364,107.3444 824.3083,105.7038 Q822.9958,104.0475 822.9958,100.9225 Q822.9958,97.7975 824.3083,96.1413 Q825.6364,94.485 828.1364,94.485 Q828.8395,94.485 829.4801,94.6413 Q830.1364,94.7975 830.6989,95.0944 L830.6989,97.8131 Q830.0739,97.235 829.4801,96.9694 Q828.8864,96.6881 828.2614,96.6881 Q826.9176,96.6881 826.2301,97.7663 Q825.5426,98.8288 825.5426,100.9225 Q825.5426,103.0163 826.2301,104.0944 Q826.9176,105.1569 828.2614,105.1569 Q828.8864,105.1569 829.4801,104.8913 Q830.0739,104.61 830.6989,104.0319 L830.6989,106.7506 Z " fill="#000000"/><text fill="#000000" font-family="sans-serif" font-size="14" lengthAdjust="spacing" textLength="36.5654" x="848.2301" y="105.9567">Mesa</text><line style="stroke:#181818;stroke-width:0.5;" x1="730.59" x2="969.9357" y1="117.11" y2="117.11"/><line style="stroke:#181818;stroke-width:0.5;" x1="730.59" x2="969.9357" y1="125.11" y2="125.11"/><text fill="#000000" font-family="sans-serif" font-size="14" lengthAdjust="spacing" textLength="128.9805" x="735.59" y="142.1051">+getNumero(): int</text><text fill="#000000" font-family="sans-serif" font-size="14" lengthAdjust="spacing" textLength="146.8223" x="735.59" y="158.402">+getCapacidad(): int</text><text fill="#000000" font-family="sans-serif" font-size="14" lengthAdjust="spacing" textLength="186.6963" x="735.59" y="174.6989">+getEstado(): EstadoMesa</text><text fill="#000000" font-family="sans-serif" font-size="14" lengthAdjust="spacing" textLength="229.3457" x="735.59" y="190.9957">+cambiarEstado(e: EstadoMesa)</text><text fill="#000000" font-family="sans-serif" font-size="14" lengthAdjust="spacing" textLength="71.0117" x="735.59" y="207.2926">+ocupar()</text><text fill="#000000" font-family="sans-serif" font-size="14" lengthAdjust="spacing" textLength="68.0244" x="735.59" y="223.5895">+liberar()</text></g><!--class Reserva--><g class="entity" data-entity="Reserva" data-source-line="26" data-uid="ent0006" id="entity_Reserva"><rect fill="#F1F1F1" height="145.7813" rx="2.5" ry="2.5" style="stroke:#181818;stroke-width:0.5;" width="226.1152" x="419.47" y="172.11"/><ellipse cx="499.8435" cy="188.11" fill="#ADD1B2" rx="11" ry="11" style="stroke:#181818;stroke-width:1;"/><path d="M502.8123,193.7506 Q502.2342,194.0475 501.5935,194.1881 Q500.9529,194.3444 500.2498,194.3444 Q497.7498,194.3444 496.4217,192.7038 Q495.1092,191.0475 495.1092,187.9225 Q495.1092,184.7975 496.4217,183.1413 Q497.7498,181.485 500.2498,181.485 Q500.9529,181.485 501.5935,181.6413 Q502.2498,181.7975 502.8123,182.0944 L502.8123,184.8131 Q502.1873,184.235 501.5935,183.9694 Q500.9998,183.6881 500.3748,183.6881 Q499.031,183.6881 498.3435,184.7663 Q497.656,185.8288 497.656,187.9225 Q497.656,190.0163 498.3435,191.0944 Q499.031,192.1569 500.3748,192.1569 Q500.9998,192.1569 501.5935,191.8913 Q502.1873,191.61 502.8123,191.0319 L502.8123,193.7506 Z " fill="#000000"/><text fill="#000000" font-family="sans-serif" font-size="14" lengthAdjust="spacing" textLength="56.8682" x="520.3435" y="192.9567">Reserva</text><line style="stroke:#181818;stroke-width:0.5;" x1="420.47" x2="644.5852" y1="204.11" y2="204.11"/><line style="stroke:#181818;stroke-width:0.5;" x1="420.47" x2="644.5852" y1="212.11" y2="212.11"/><text fill="#000000" font-family="sans-serif" font-size="14" lengthAdjust="spacing" textLength="145.7354" x="425.47" y="229.1051">+getCliente(): String</text><text fill="#000000" font-family="sans-serif" font-size="14" lengthAdjust="spacing" textLength="130.0879" x="425.47" y="245.402">+getFecha(): Date</text><text fill="#000000" font-family="sans-serif" font-size="14" lengthAdjust="spacing" textLength="214.1152" x="425.47" y="261.6989">+getNumeroComensales(): int</text><text fill="#000000" font-family="sans-serif" font-size="14" lengthAdjust="spacing" textLength="183.6475" x="425.47" y="277.9957">+getPreferencias(): String</text><text fill="#000000" font-family="sans-serif" font-size="14" lengthAdjust="spacing" textLength="192.5068" x="425.47" y="294.2926">+getMesaAsignada(): Mesa</text><text fill="#000000" font-family="sans-serif" font-size="14" lengthAdjust="spacing" textLength="170.4473" x="425.47" y="310.5895">+asignarMesa(m: Mesa)</text></g><!--class Pedido--><g class="entity" data-entity="Pedido" data-source-line="35" data-uid="ent0007" id="entity_Pedido"><rect fill="#F1F1F1" height="96.8906" rx="2.5" ry="2.5" style="stroke:#181818;stroke-width:0.5;" width="191.9697" x="436.55" y="352.55"/><ellipse cx="504.6428" cy="368.55" fill="#ADD1B2" rx="11" ry="11" style="stroke:#181818;stroke-width:1;"/><path d="M507.6115,374.1906 Q507.0334,374.4875 506.3928,374.6281 Q505.7521,374.7844 505.049,374.7844 Q502.549,374.7844 501.2209,373.1438 Q499.9084,371.4875 499.9084,368.3625 Q499.9084,365.2375 501.2209,363.5813 Q502.549,361.925 505.049,361.925 Q505.7521,361.925 506.3928,362.0813 Q507.049,362.2375 507.6115,362.5344 L507.6115,365.2531 Q506.9865,364.675 506.3928,364.4094 Q505.799,364.1281 505.174,364.1281 Q503.8303,364.1281 503.1428,365.2063 Q502.4553,366.2688 502.4553,368.3625 Q502.4553,370.4563 503.1428,371.5344 Q503.8303,372.5969 505.174,372.5969 Q505.799,372.5969 506.3928,372.3313 Q506.9865,372.05 507.6115,371.4719 L507.6115,374.1906 Z " fill="#000000"/><text fill="#000000" font-family="sans-serif" font-size="14" lengthAdjust="spacing" textLength="47.2842" x="525.1428" y="373.3967">Pedido</text><line style="stroke:#181818;stroke-width:0.5;" x1="437.55" x2="627.5197" y1="384.55" y2="384.55"/><line style="stroke:#181818;stroke-width:0.5;" x1="437.55" x2="627.5197" y1="392.55" y2="392.55"/><text fill="#000000" font-family="sans-serif" font-size="14" lengthAdjust="spacing" textLength="127.9414" x="442.55" y="409.5451">+getMesa(): Mesa</text><text fill="#000000" font-family="sans-serif" font-size="14" lengthAdjust="spacing" textLength="179.9697" x="442.55" y="425.842">+getPlatos(): List&lt;Plato&gt;</text><text fill="#000000" font-family="sans-serif" font-size="14" lengthAdjust="spacing" textLength="165.6963" x="442.55" y="442.1389">+agregarPlato(p: Plato)</text></g><!--class Plato--><g class="entity" data-entity="Plato" data-source-line="41" data-uid="ent0008" id="entity_Plato"><rect fill="#F1F1F1" height="96.8906" rx="2.5" ry="2.5" style="stroke:#181818;stroke-width:0.5;" width="220.8447" x="739.84" y="265.55"/><ellipse cx="828.5295" cy="281.55" fill="#ADD1B2" rx="11" ry="11" style="stroke:#181818;stroke-width:1;"/><path d="M831.4982,287.1906 Q830.9201,287.4875 830.2795,287.6281 Q829.6388,287.7844 828.9357,287.7844 Q826.4357,287.7844 825.1076,286.1438 Q823.7951,284.4875 823.7951,281.3625 Q823.7951,278.2375 825.1076,276.5813 Q826.4357,274.925 828.9357,274.925 Q829.6388,274.925 830.2795,275.0813 Q830.9357,275.2375 831.4982,275.5344 L831.4982,278.2531 Q830.8732,277.675 830.2795,277.4094 Q829.6857,277.1281 829.0607,277.1281 Q827.717,277.1281 827.0295,278.2063 Q826.342,279.2688 826.342,281.3625 Q826.342,283.4563 827.0295,284.5344 Q827.717,285.5969 829.0607,285.5969 Q829.6857,285.5969 830.2795,285.3313 Q830.8732,285.05 831.4982,284.4719 L831.4982,287.1906 Z " fill="#000000"/><text fill="#000000" font-family="sans-serif" font-size="14" lengthAdjust="spacing" textLength="34.9658" x="849.0295" y="286.3967">Plato</text><line style="stroke:#181818;stroke-width:0.5;" x1="740.84" x2="959.6847" y1="297.55" y2="297.55"/><line style="stroke:#181818;stroke-width:0.5;" x1="740.84" x2="959.6847" y1="305.55" y2="305.55"/><text fill="#000000" font-family="sans-serif" font-size="14" lengthAdjust="spacing" textLength="152.5234" x="745.84" y="322.5451">+getNombre(): String</text><text fill="#000000" font-family="sans-serif" font-size="14" lengthAdjust="spacing" textLength="145.4893" x="745.84" y="338.842">+getPrecio(): double</text><text fill="#000000" font-family="sans-serif" font-size="14" lengthAdjust="spacing" textLength="208.8447" x="745.84" y="355.1389">+getTiempoPreparacion(): int</text></g><!--class IRestaurante--><g class="entity" data-entity="IRestaurante" data-source-line="50" data-uid="ent0010" id="entity_IRestaurante"><rect fill="#F1F1F1" height="48" rx="2.5" ry="2.5" style="stroke:#181818;stroke-width:0.5;" width="122.0156" x="1083.93" y="539"/><ellipse cx="1098.93" cy="555" fill="#B4A7E5" rx="11" ry="11" style="stroke:#181818;stroke-width:1;"/><path d="M1094.8519,550.7656 L1094.8519,548.6094 L1102.2425,548.6094 L1102.2425,550.7656 L1099.7738,550.7656 L1099.7738,558.8438 L1102.2425,558.8438 L1102.2425,561 L1094.8519,561 L1094.8519,558.8438 L1097.3206,558.8438 L1097.3206,550.7656 L1094.8519,550.7656 Z " fill="#000000"/><text fill="#000000" font-family="sans-serif" font-size="14" font-style="italic" lengthAdjust="spacing" textLength="90.0156" x="1112.93" y="559.8467">IRestaurante</text><line style="stroke:#181818;stroke-width:0.5;" x1="1084.93" x2="1204.9456" y1="571" y2="571"/><line style="stroke:#181818;stroke-width:0.5;" x1="1084.93" x2="1204.9456" y1="579" y2="579"/></g><!--class IMesa--><g class="entity" data-entity="IMesa" data-source-line="51" data-uid="ent0012" id="entity_IMesa"><rect fill="#F1F1F1" height="48" rx="2.5" ry="2.5" style="stroke:#181818;stroke-width:0.5;" width="72.6943" x="1108.59" y="207"/><ellipse cx="1123.59" cy="223" fill="#B4A7E5" rx="11" ry="11" style="stroke:#181818;stroke-width:1;"/><path d="M1119.5119,218.7656 L1119.5119,216.6094 L1126.9025,216.6094 L1126.9025,218.7656 L1124.4338,218.7656 L1124.4338,226.8438 L1126.9025,226.8438 L1126.9025,229 L1119.5119,229 L1119.5119,226.8438 L1121.9806,226.8438 L1121.9806,218.7656 L1119.5119,218.7656 Z " fill="#000000"/><text fill="#000000" font-family="sans-serif" font-size="14" font-style="italic" lengthAdjust="spacing" textLength="40.6943" x="1137.59" y="227.8467">IMesa</text><line style="stroke:#181818;stroke-width:0.5;" x1="1109.59" x2="1180.2843" y1="239" y2="239"/><line style="stroke:#181818;stroke-width:0.5;" x1="1109.59" x2="1180.2843" y1="247" y2="247"/></g><!--class IReserva--><g class="entity" data-entity="IReserva" data-source-line="52" data-uid="ent0013" id="entity_IReserva"><rect fill="#F1F1F1" height="48" rx="2.5" ry="2.5" style="stroke:#181818;stroke-width:0.5;" width="92.9971" x="1098.44" y="373"/><ellipse cx="1113.44" cy="389" fill="#B4A7E5" rx="11" ry="11" style="stroke:#181818;stroke-width:1;"/><path d="M1109.3619,384.7656 L1109.3619,382.6094 L1116.7525,382.6094 L1116.7525,384.7656 L1114.2838,384.7656 L1114.2838,392.8438 L1116.7525,392.8438 L1116.7525,395 L1109.3619,395 L1109.3619,392.8438 L1111.8306,392.8438 L1111.8306,384.7656 L1109.3619,384.7656 Z " fill="#000000"/><text fill="#000000" font-family="sans-serif" font-size="14" font-style="italic" lengthAdjust="spacing" textLength="60.9971" x="1127.44" y="393.8467">IReserva</text><line style="stroke:#181818;stroke-width:0.5;" x1="1099.44" x2="1190.4371" y1="405" y2="405"/><line style="stroke:#181818;stroke-width:0.5;" x1="1099.44" x2="1190.4371" y1="413" y2="413"/></g><!--class IPedido--><g class="entity" data-entity="IPedido" data-source-line="53" data-uid="ent0014" id="entity_IPedido"><rect fill="#F1F1F1" height="48" rx="2.5" ry="2.5" style="stroke:#181818;stroke-width:0.5;" width="83.4131" x="1103.23" y="456"/><ellipse cx="1118.23" cy="472" fill="#B4A7E5" rx="11" ry="11" style="stroke:#181818;stroke-width:1;"/><path d="M1114.1519,467.7656 L1114.1519,465.6094 L1121.5425,465.6094 L1121.5425,467.7656 L1119.0738,467.7656 L1119.0738,475.8438 L1121.5425,475.8438 L1121.5425,478 L1114.1519,478 L1114.1519,475.8438 L1116.6206,475.8438 L1116.6206,467.7656 L1114.1519,467.7656 Z " fill="#000000"/><text fill="#000000" font-family="sans-serif" font-size="14" font-style="italic" lengthAdjust="spacing" textLength="51.4131" x="1132.23" y="476.8467">IPedido</text><line style="stroke:#181818;stroke-width:0.5;" x1="1104.23" x2="1185.6431" y1="488" y2="488"/><line style="stroke:#181818;stroke-width:0.5;" x1="1104.23" x2="1185.6431" y1="496" y2="496"/></g><!--class IPlato--><g class="entity" data-entity="IPlato" data-source-line="54" data-uid="ent0015" id="entity_IPlato"><rect fill="#F1F1F1" height="48" rx="2.5" ry="2.5" style="stroke:#181818;stroke-width:0.5;" width="71.0947" x="1109.39" y="290"/><ellipse cx="1124.39" cy="306" fill="#B4A7E5" rx="11" ry="11" style="stroke:#181818;stroke-width:1;"/><path d="M1120.3119,301.7656 L1120.3119,299.6094 L1127.7025,299.6094 L1127.7025,301.7656 L1125.2338,301.7656 L1125.2338,309.8438 L1127.7025,309.8438 L1127.7025,312 L1120.3119,312 L1120.3119,309.8438 L1122.7806,309.8438 L1122.7806,301.7656 L1120.3119,301.7656 Z " fill="#000000"/><text fill="#000000" font-family="sans-serif" font-size="14" font-style="italic" lengthAdjust="spacing" textLength="39.0947" x="1138.39" y="310.8467">IPlato</text><line style="stroke:#181818;stroke-width:0.5;" x1="1110.39" x2="1179.4847" y1="322" y2="322"/><line style="stroke:#181818;stroke-width:0.5;" x1="1110.39" x2="1179.4847" y1="330" y2="330"/></g><!--link Restaurante to Mesa--><g class="link" data-entity-1="Restaurante" data-entity-2="Mesa" data-source-line="58" data-uid="lnk16" id="link_Restaurante_Mesa"><path codeLine="58" d="M286.65,225.65 C325.21,197.52 371.9,169.44 419.47,155 C520.68,124.27 635.6177,127.818 723.3677,137.708" fill="none" id="Restaurante-to-Mesa" style="stroke:#181818;stroke-width:1;stroke-dasharray:7.0,7.0;"/><polygon fill="#181818" points="729.33,138.38,720.8346,133.3972,724.3615,137.82,719.9386,141.3469,729.33,138.38" style="stroke:#181818;stroke-width:1;"/><text fill="#000000" font-family="sans-serif" font-size="13" lengthAdjust="spacing" textLength="22.9785" x="521.53" y="128.0669">usa</text></g><!--link Restaurante to Reserva--><g class="link" data-entity-1="Restaurante" data-entity-2="Reserva" data-source-line="59" data-uid="lnk17" id="link_Restaurante_Reserva"><path codeLine="59" d="M335.64,280.8 C363.49,275.71 386.4079,271.5195 413.0879,266.6395" fill="none" id="Restaurante-to-Reserva" style="stroke:#181818;stroke-width:1;stroke-dasharray:7.0,7.0;"/><polygon fill="#181818" points="418.99,265.56,409.4172,263.2446,414.0716,266.4596,410.8566,271.114,418.99,265.56" style="stroke:#181818;stroke-width:1;"/><text fill="#000000" font-family="sans-serif" font-size="13" lengthAdjust="spacing" textLength="22.9785" x="366.47" y="269.0669">usa</text></g><!--link Restaurante to Pedido--><g class="link" data-entity-1="Restaurante" data-entity-2="Pedido" data-source-line="60" data-uid="lnk18" id="link_Restaurante_Pedido"><path codeLine="60" d="M335.64,346.73 C369.64,356.15 399.2976,364.3689 430.5376,373.0189" fill="none" id="Restaurante-to-Pedido" style="stroke:#181818;stroke-width:1;stroke-dasharray:7.0,7.0;"/><polygon fill="#181818" points="436.32,374.62,428.7137,368.3634,431.5013,373.2858,426.579,376.0733,436.32,374.62" style="stroke:#181818;stroke-width:1;"/><text fill="#000000" font-family="sans-serif" font-size="13" lengthAdjust="spacing" textLength="22.9785" x="366.47" y="353.0669">usa</text></g><!--link Reserva to Mesa--><g class="link" data-entity-1="Reserva" data-entity-2="Mesa" data-source-line="61" data-uid="lnk19" id="link_Reserva_Mesa"><path codeLine="61" d="M645.73,214.08 C672.76,206.63 695.966,200.2455 723.336,192.6955" fill="none" id="Reserva-to-Mesa" style="stroke:#181818;stroke-width:1;stroke-dasharray:7.0,7.0;"/><polygon fill="#181818" points="729.12,191.1,719.3804,189.6373,724.3,192.4296,721.5077,197.3492,729.12,191.1" style="stroke:#181818;stroke-width:1;"/><text fill="#000000" font-family="sans-serif" font-size="13" lengthAdjust="spacing" textLength="22.9785" x="676.59" y="198.0669">usa</text></g><!--link Pedido to Mesa--><g class="link" data-entity-1="Pedido" data-entity-2="Mesa" data-source-line="62" data-uid="lnk20" id="link_Pedido_Mesa"><path codeLine="62" d="M621.62,352.25 C629.93,346.73 638.05,340.94 645.59,335 C687.8,301.72 689.32,283.6 729.59,248 C735.92,242.4 737.9278,240.5813 744.7178,235.0213" fill="none" id="Pedido-to-Mesa" style="stroke:#181818;stroke-width:1;stroke-dasharray:7.0,7.0;"/><polygon fill="#181818" points="749.36,231.22,739.8625,233.8271,745.4915,234.3877,744.9309,240.0167,749.36,231.22" style="stroke:#181818;stroke-width:1;"/><text fill="#000000" font-family="sans-serif" font-size="13" lengthAdjust="spacing" textLength="22.9785" x="676.59" y="276.0669">usa</text></g><!--link Pedido to Plato--><g class="link" data-entity-1="Pedido" data-entity-2="Plato" data-source-line="63" data-uid="lnk21" id="link_Pedido_Plato"><path codeLine="63" d="M628.69,374.78 C663.64,365.15 697.7059,355.765 733.8259,345.805" fill="none" id="Pedido-to-Plato" style="stroke:#181818;stroke-width:1;stroke-dasharray:7.0,7.0;"/><polygon fill="#181818" points="739.61,344.21,729.8705,342.7464,734.7899,345.5391,731.9971,350.4585,739.61,344.21" style="stroke:#181818;stroke-width:1;"/><text fill="#000000" font-family="sans-serif" font-size="13" lengthAdjust="spacing" textLength="22.9785" x="676.59" y="354.0669">usa</text></g><!--link Restaurante to IRestaurante--><g class="link" data-entity-1="Restaurante" data-entity-2="IRestaurante" data-source-line="66" data-uid="lnk22" id="link_Restaurante_IRestaurante"><path codeLine="66" d="M286.07,388.45 C324.91,417.89 371.95,448.42 419.47,467 C652.56,558.11 938.5609,565.9882 1065.8209,564.7282" fill="none" id="Restaurante-to-IRestaurante" style="stroke:#181818;stroke-width:1;stroke-dasharray:7.0,7.0;"/><polygon fill="none" points="1083.82,564.55,1065.7615,558.7285,1065.8803,570.7279,1083.82,564.55" style="stroke:#181818;stroke-width:1;"/></g><!--link Mesa to IMesa--><g class="link" data-entity-1="Mesa" data-entity-2="IMesa" data-source-line="67" data-uid="lnk23" id="link_Mesa_IMesa"><path codeLine="67" d="M971.15,187.9 C1020.56,200.23 1056.6744,209.2364 1090.8544,217.7564" fill="none" id="Mesa-to-IMesa" style="stroke:#181818;stroke-width:1;stroke-dasharray:7.0,7.0;"/><polygon fill="none" points="1108.32,222.11,1092.3056,211.9345,1089.4032,223.5782,1108.32,222.11" style="stroke:#181818;stroke-width:1;"/></g><!--link Reserva to IReserva--><g class="link" data-entity-1="Reserva" data-entity-2="IReserva" data-source-line="68" data-uid="lnk24" id="link_Reserva_IReserva"><path codeLine="68" d="M627.22,318.21 C633.54,323.77 639.72,329.4 645.59,335 C660.16,348.92 658.14,358.91 675.59,369 C812.03,447.92 992.0994,426.8529 1080.5294,410.2429" fill="none" id="Reserva-to-IReserva" style="stroke:#181818;stroke-width:1;stroke-dasharray:7.0,7.0;"/><polygon fill="none" points="1098.22,406.92,1079.4217,404.346,1081.637,416.1397,1098.22,406.92" style="stroke:#181818;stroke-width:1;"/></g><!--link Pedido to IPedido--><g class="link" data-entity-1="Pedido" data-entity-2="IPedido" data-source-line="69" data-uid="lnk25" id="link_Pedido_IPedido"><path codeLine="69" d="M628.85,430.53 C644.36,434.56 660.33,438.24 675.59,441 C831.76,469.22 1002.9862,476.5976 1084.8862,478.7476" fill="none" id="Pedido-to-IPedido" style="stroke:#181818;stroke-width:1;stroke-dasharray:7.0,7.0;"/><polygon fill="none" points="1102.88,479.22,1085.0437,472.7497,1084.7287,484.7456,1102.88,479.22" style="stroke:#181818;stroke-width:1;"/></g><!--link Plato to IPlato--><g class="link" data-entity-1="Plato" data-entity-2="IPlato" data-source-line="70" data-uid="lnk26" id="link_Plato_IPlato"><path codeLine="70" d="M961.08,314 C1013.47,314 1054.53,314 1091,314" fill="none" id="Plato-to-IPlato" style="stroke:#181818;stroke-width:1;stroke-dasharray:7.0,7.0;"/><polygon fill="none" points="1109,314,1091,308,1091,320,1109,314" style="stroke:#181818;stroke-width:1;"/></g><!--SRC=[TLHRRjim4FpNAOZyH4OBezz2OI1mMy10MXXnBx0Irp8HYdH9ga3J-bGzGY_MvICoAIl-CJMpvCuETscVXJg3WO5r4gnzSCw8TdIuwxGwY1Ta7oexXPoXUuOU3-wNH6QmSw1wYPN4esDECoFwasDSU4PeLLNtR0y_HdJ8E8RpqVgL6CuI1rGEEl7lhwhIiUmk9xHQ3vgZr7ViTyNe5_In9xGEHWEA3esu_xs3tc0FvYjQg8U6-V_LbILEM6V0q6uqFw4s3KlBLSDQhIM2kZbiZrnmNPyR5bVPWRfrg32asslpRHpGw5erJ2YtYjcliJqw3zYQc4UIyT5_RGe-QRc69A2CYYgkGV4xnbogp2EV83U7zYQ9go2nOBP0zWiEV8dyJ6Rpi2skoiew65e19WLX7fHxrOtKFNM6ID6YcQ12UYfyfduh1JK5UXq7wa_L5-mNx4xWkK_WSA7ghQQMiY3HBfMuDtX4WweJqV-51BwW1ojw1JpaALs0m2oqNb5OlAnPNM7FKiFi9RZyfltdvhP1FHpwqo-MadfytWbwQCrRLf8PD7cUv7fiPUdcTu73MLE8VmpyWEPsNghBRDw9GNE43krxHeAf2JXOTj96l6YQSEdd7BFPdy9dSpyHR9SD_voQB2p3VJFDuNWLDwZtAXRnX3BKHwyLQJIlJrULlpthzIREMSD6oZodNljucKtDC94XT7PYYdaRZPSROHAzAzxEzD1EdhAQQ-UGCocKnqze1BtU7QvculviIfj3xWW7YwzgKsHmU9BbmUHlr9SWl_uF]--></g></svg>