<?xml version="1.0" encoding="us-ascii" standalone="no"?><svg xmlns="http://www.w3.org/2000/svg" xmlns:xlink="http://www.w3.org/1999/xlink" contentStyleType="text/css" height="730px" preserveAspectRatio="none" style="width:649px;height:730px;background:#FFFFFF;" version="1.1" viewBox="0 0 649 730" width="649px" zoomAndPan="magnify"><defs/><g><!--class Mundo--><g id="elem_Mundo"><rect codeLine="2" fill="#F1F1F1" height="48" id="Mundo" rx="2.5" ry="2.5" style="stroke:#181818;stroke-width:0.5;" width="75" x="86.5" y="7"/><ellipse cx="101.5" cy="23" fill="#ADD1B2" rx="11" ry="11" style="stroke:#181818;stroke-width:1.0;"/><path d="M104.2656,18.875 Q104.4219,18.6563 104.6094,18.5469 Q104.7969,18.4375 105.0156,18.4375 Q105.3906,18.4375 105.625,18.7031 Q105.8594,18.9531 105.8594,19.5625 L105.8594,21.0156 Q105.8594,21.625 105.625,21.8906 Q105.3906,22.1563 105.0156,22.1563 Q104.6719,22.1563 104.4688,21.9531 Q104.2656,21.7656 104.1563,21.25 Q104.1094,20.8906 103.9219,20.7031 Q103.5938,20.3281 102.9844,20.1094 Q102.375,19.8906 101.75,19.8906 Q100.9844,19.8906 100.3438,20.2188 Q99.7188,20.5469 99.2188,21.2969 Q98.7344,22.0469 98.7344,23.0781 L98.7344,24.1719 Q98.7344,25.4063 99.625,26.2344 Q100.5156,27.0469 102.1094,27.0469 Q103.0469,27.0469 103.7031,26.7969 Q104.0938,26.6406 104.5156,26.2031 Q104.7813,25.9375 104.9219,25.8594 Q105.0781,25.7813 105.2813,25.7813 Q105.6094,25.7813 105.8594,26.0469 Q106.125,26.2969 106.125,26.6406 Q106.125,26.9844 105.7813,27.3906 Q105.2813,27.9688 104.4844,28.2969 Q103.4063,28.75 102.1094,28.75 Q100.5938,28.75 99.3906,28.125 Q98.4063,27.625 97.7188,26.5625 Q97.0313,25.4844 97.0313,24.2031 L97.0313,23.0469 Q97.0313,21.7188 97.6406,20.5781 Q98.2656,19.4219 99.3594,18.8125 Q100.4531,18.1875 101.6875,18.1875 Q102.4219,18.1875 103.0625,18.3594 Q103.7188,18.5156 104.2656,18.875 Z " fill="#000000"/><text fill="#000000" font-family="sans-serif" font-size="14" lengthAdjust="spacing" textLength="43" x="115.5" y="27.8535">Mundo</text><line style="stroke:#181818;stroke-width:0.5;" x1="87.5" x2="160.5" y1="39" y2="39"/><line style="stroke:#181818;stroke-width:0.5;" x1="87.5" x2="160.5" y1="47" y2="47"/></g><!--class MundoFactory--><g id="elem_MundoFactory"><rect codeLine="5" fill="#F1F1F1" height="110.5625" id="MundoFactory" rx="2.5" ry="2.5" style="stroke:#181818;stroke-width:0.5;" width="260" x="153" y="131"/><ellipse cx="233.25" cy="147" fill="#ADD1B2" rx="11" ry="11" style="stroke:#181818;stroke-width:1.0;"/><path d="M236.0156,142.875 Q236.1719,142.6563 236.3594,142.5469 Q236.5469,142.4375 236.7656,142.4375 Q237.1406,142.4375 237.375,142.7031 Q237.6094,142.9531 237.6094,143.5625 L237.6094,145.0156 Q237.6094,145.625 237.375,145.8906 Q237.1406,146.1563 236.7656,146.1563 Q236.4219,146.1563 236.2188,145.9531 Q236.0156,145.7656 235.9063,145.25 Q235.8594,144.8906 235.6719,144.7031 Q235.3438,144.3281 234.7344,144.1094 Q234.125,143.8906 233.5,143.8906 Q232.7344,143.8906 232.0938,144.2188 Q231.4688,144.5469 230.9688,145.2969 Q230.4844,146.0469 230.4844,147.0781 L230.4844,148.1719 Q230.4844,149.4063 231.375,150.2344 Q232.2656,151.0469 233.8594,151.0469 Q234.7969,151.0469 235.4531,150.7969 Q235.8438,150.6406 236.2656,150.2031 Q236.5313,149.9375 236.6719,149.8594 Q236.8281,149.7813 237.0313,149.7813 Q237.3594,149.7813 237.6094,150.0469 Q237.875,150.2969 237.875,150.6406 Q237.875,150.9844 237.5313,151.3906 Q237.0313,151.9688 236.2344,152.2969 Q235.1563,152.75 233.8594,152.75 Q232.3438,152.75 231.1406,152.125 Q230.1563,151.625 229.4688,150.5625 Q228.7813,149.4844 228.7813,148.2031 L228.7813,147.0469 Q228.7813,145.7188 229.3906,144.5781 Q230.0156,143.4219 231.1094,142.8125 Q232.2031,142.1875 233.4375,142.1875 Q234.1719,142.1875 234.8125,142.3594 Q235.4688,142.5156 236.0156,142.875 Z " fill="#000000"/><text fill="#000000" font-family="sans-serif" font-size="14" lengthAdjust="spacing" textLength="91" x="253.75" y="151.8535">MundoFactory</text><line style="stroke:#181818;stroke-width:0.5;" x1="154" x2="412" y1="163" y2="163"/><line style="stroke:#181818;stroke-width:0.5;" x1="154" x2="412" y1="171" y2="171"/><ellipse cx="164" cy="184.3203" fill="#84BE84" rx="3" ry="3" style="stroke:#038048;stroke-width:1.0;"/><text fill="#000000" font-family="sans-serif" font-size="14" lengthAdjust="spacing" textLength="141" x="173" y="187.6738">crearBateria(): Bateria</text><ellipse cx="164" cy="199.9609" fill="#84BE84" rx="3" ry="3" style="stroke:#038048;stroke-width:1.0;"/><text fill="#000000" font-family="sans-serif" font-size="14" lengthAdjust="spacing" textLength="183" x="173" y="203.3145">crearHabitacion(): Habitacion</text><ellipse cx="164" cy="215.6016" fill="#84BE84" rx="3" ry="3" style="stroke:#038048;stroke-width:1.0;"/><text fill="#000000" font-family="sans-serif" font-size="14" lengthAdjust="spacing" textLength="179" x="173" y="218.9551">crearGato(Habitacion): Gato</text><ellipse cx="164" cy="231.2422" fill="#84BE84" rx="3" ry="3" style="stroke:#038048;stroke-width:1.0;"/><text fill="#000000" font-family="sans-serif" font-size="14" lengthAdjust="spacing" textLength="234" x="173" y="234.5957">crearAspiradora(Bateria): Aspiradora</text></g><!--class Aspiradora--><g id="elem_Aspiradora"><rect codeLine="12" fill="#F1F1F1" height="48" id="Aspiradora" rx="2.5" ry="2.5" style="stroke:#181818;stroke-width:0.5;" width="101" x="328.5" y="427"/><ellipse cx="343.5" cy="443" fill="#ADD1B2" rx="11" ry="11" style="stroke:#181818;stroke-width:1.0;"/><path d="M346.2656,438.875 Q346.4219,438.6563 346.6094,438.5469 Q346.7969,438.4375 347.0156,438.4375 Q347.3906,438.4375 347.625,438.7031 Q347.8594,438.9531 347.8594,439.5625 L347.8594,441.0156 Q347.8594,441.625 347.625,441.8906 Q347.3906,442.1563 347.0156,442.1563 Q346.6719,442.1563 346.4688,441.9531 Q346.2656,441.7656 346.1563,441.25 Q346.1094,440.8906 345.9219,440.7031 Q345.5938,440.3281 344.9844,440.1094 Q344.375,439.8906 343.75,439.8906 Q342.9844,439.8906 342.3438,440.2188 Q341.7188,440.5469 341.2188,441.2969 Q340.7344,442.0469 340.7344,443.0781 L340.7344,444.1719 Q340.7344,445.4063 341.625,446.2344 Q342.5156,447.0469 344.1094,447.0469 Q345.0469,447.0469 345.7031,446.7969 Q346.0938,446.6406 346.5156,446.2031 Q346.7813,445.9375 346.9219,445.8594 Q347.0781,445.7813 347.2813,445.7813 Q347.6094,445.7813 347.8594,446.0469 Q348.125,446.2969 348.125,446.6406 Q348.125,446.9844 347.7813,447.3906 Q347.2813,447.9688 346.4844,448.2969 Q345.4063,448.75 344.1094,448.75 Q342.5938,448.75 341.3906,448.125 Q340.4063,447.625 339.7188,446.5625 Q339.0313,445.4844 339.0313,444.2031 L339.0313,443.0469 Q339.0313,441.7188 339.6406,440.5781 Q340.2656,439.4219 341.3594,438.8125 Q342.4531,438.1875 343.6875,438.1875 Q344.4219,438.1875 345.0625,438.3594 Q345.7188,438.5156 346.2656,438.875 Z " fill="#000000"/><text fill="#000000" font-family="sans-serif" font-size="14" lengthAdjust="spacing" textLength="69" x="357.5" y="447.8535">Aspiradora</text><line style="stroke:#181818;stroke-width:0.5;" x1="329.5" x2="428.5" y1="459" y2="459"/><line style="stroke:#181818;stroke-width:0.5;" x1="329.5" x2="428.5" y1="467" y2="467"/></g><!--class Gato--><g id="elem_Gato"><rect codeLine="15" fill="#F1F1F1" height="48" id="Gato" rx="2.5" ry="2.5" style="stroke:#181818;stroke-width:0.5;" width="63" x="467.5" y="427"/><ellipse cx="482.5" cy="443" fill="#ADD1B2" rx="11" ry="11" style="stroke:#181818;stroke-width:1.0;"/><path d="M485.2656,438.875 Q485.4219,438.6563 485.6094,438.5469 Q485.7969,438.4375 486.0156,438.4375 Q486.3906,438.4375 486.625,438.7031 Q486.8594,438.9531 486.8594,439.5625 L486.8594,441.0156 Q486.8594,441.625 486.625,441.8906 Q486.3906,442.1563 486.0156,442.1563 Q485.6719,442.1563 485.4688,441.9531 Q485.2656,441.7656 485.1563,441.25 Q485.1094,440.8906 484.9219,440.7031 Q484.5938,440.3281 483.9844,440.1094 Q483.375,439.8906 482.75,439.8906 Q481.9844,439.8906 481.3438,440.2188 Q480.7188,440.5469 480.2188,441.2969 Q479.7344,442.0469 479.7344,443.0781 L479.7344,444.1719 Q479.7344,445.4063 480.625,446.2344 Q481.5156,447.0469 483.1094,447.0469 Q484.0469,447.0469 484.7031,446.7969 Q485.0938,446.6406 485.5156,446.2031 Q485.7813,445.9375 485.9219,445.8594 Q486.0781,445.7813 486.2813,445.7813 Q486.6094,445.7813 486.8594,446.0469 Q487.125,446.2969 487.125,446.6406 Q487.125,446.9844 486.7813,447.3906 Q486.2813,447.9688 485.4844,448.2969 Q484.4063,448.75 483.1094,448.75 Q481.5938,448.75 480.3906,448.125 Q479.4063,447.625 478.7188,446.5625 Q478.0313,445.4844 478.0313,444.2031 L478.0313,443.0469 Q478.0313,441.7188 478.6406,440.5781 Q479.2656,439.4219 480.3594,438.8125 Q481.4531,438.1875 482.6875,438.1875 Q483.4219,438.1875 484.0625,438.3594 Q484.7188,438.5156 485.2656,438.875 Z " fill="#000000"/><text fill="#000000" font-family="sans-serif" font-size="14" lengthAdjust="spacing" textLength="31" x="496.5" y="447.8535">Gato</text><line style="stroke:#181818;stroke-width:0.5;" x1="468.5" x2="529.5" y1="459" y2="459"/><line style="stroke:#181818;stroke-width:0.5;" x1="468.5" x2="529.5" y1="467" y2="467"/></g><!--class Habitacion--><g id="elem_Habitacion"><rect codeLine="18" fill="#F1F1F1" height="48" id="Habitacion" rx="2.5" ry="2.5" style="stroke:#181818;stroke-width:0.5;" width="98" x="7" y="427"/><ellipse cx="22" cy="443" fill="#ADD1B2" rx="11" ry="11" style="stroke:#181818;stroke-width:1.0;"/><path d="M24.7656,438.875 Q24.9219,438.6563 25.1094,438.5469 Q25.2969,438.4375 25.5156,438.4375 Q25.8906,438.4375 26.125,438.7031 Q26.3594,438.9531 26.3594,439.5625 L26.3594,441.0156 Q26.3594,441.625 26.125,441.8906 Q25.8906,442.1563 25.5156,442.1563 Q25.1719,442.1563 24.9688,441.9531 Q24.7656,441.7656 24.6563,441.25 Q24.6094,440.8906 24.4219,440.7031 Q24.0938,440.3281 23.4844,440.1094 Q22.875,439.8906 22.25,439.8906 Q21.4844,439.8906 20.8438,440.2188 Q20.2188,440.5469 19.7188,441.2969 Q19.2344,442.0469 19.2344,443.0781 L19.2344,444.1719 Q19.2344,445.4063 20.125,446.2344 Q21.0156,447.0469 22.6094,447.0469 Q23.5469,447.0469 24.2031,446.7969 Q24.5938,446.6406 25.0156,446.2031 Q25.2813,445.9375 25.4219,445.8594 Q25.5781,445.7813 25.7813,445.7813 Q26.1094,445.7813 26.3594,446.0469 Q26.625,446.2969 26.625,446.6406 Q26.625,446.9844 26.2813,447.3906 Q25.7813,447.9688 24.9844,448.2969 Q23.9063,448.75 22.6094,448.75 Q21.0938,448.75 19.8906,448.125 Q18.9063,447.625 18.2188,446.5625 Q17.5313,445.4844 17.5313,444.2031 L17.5313,443.0469 Q17.5313,441.7188 18.1406,440.5781 Q18.7656,439.4219 19.8594,438.8125 Q20.9531,438.1875 22.1875,438.1875 Q22.9219,438.1875 23.5625,438.3594 Q24.2188,438.5156 24.7656,438.875 Z " fill="#000000"/><text fill="#000000" font-family="sans-serif" font-size="14" lengthAdjust="spacing" textLength="66" x="36" y="447.8535">Habitacion</text><line style="stroke:#181818;stroke-width:0.5;" x1="8" x2="104" y1="459" y2="459"/><line style="stroke:#181818;stroke-width:0.5;" x1="8" x2="104" y1="467" y2="467"/></g><!--class Zona--><g id="elem_Zona"><rect codeLine="21" fill="#F1F1F1" height="48" id="Zona" rx="2.5" ry="2.5" style="stroke:#181818;stroke-width:0.5;" width="64" x="347" y="551"/><ellipse cx="362" cy="567" fill="#ADD1B2" rx="11" ry="11" style="stroke:#181818;stroke-width:1.0;"/><path d="M364.7656,562.875 Q364.9219,562.6563 365.1094,562.5469 Q365.2969,562.4375 365.5156,562.4375 Q365.8906,562.4375 366.125,562.7031 Q366.3594,562.9531 366.3594,563.5625 L366.3594,565.0156 Q366.3594,565.625 366.125,565.8906 Q365.8906,566.1563 365.5156,566.1563 Q365.1719,566.1563 364.9688,565.9531 Q364.7656,565.7656 364.6563,565.25 Q364.6094,564.8906 364.4219,564.7031 Q364.0938,564.3281 363.4844,564.1094 Q362.875,563.8906 362.25,563.8906 Q361.4844,563.8906 360.8438,564.2188 Q360.2188,564.5469 359.7188,565.2969 Q359.2344,566.0469 359.2344,567.0781 L359.2344,568.1719 Q359.2344,569.4063 360.125,570.2344 Q361.0156,571.0469 362.6094,571.0469 Q363.5469,571.0469 364.2031,570.7969 Q364.5938,570.6406 365.0156,570.2031 Q365.2813,569.9375 365.4219,569.8594 Q365.5781,569.7813 365.7813,569.7813 Q366.1094,569.7813 366.3594,570.0469 Q366.625,570.2969 366.625,570.6406 Q366.625,570.9844 366.2813,571.3906 Q365.7813,571.9688 364.9844,572.2969 Q363.9063,572.75 362.6094,572.75 Q361.0938,572.75 359.8906,572.125 Q358.9063,571.625 358.2188,570.5625 Q357.5313,569.4844 357.5313,568.2031 L357.5313,567.0469 Q357.5313,565.7188 358.1406,564.5781 Q358.7656,563.4219 359.8594,562.8125 Q360.9531,562.1875 362.1875,562.1875 Q362.9219,562.1875 363.5625,562.3594 Q364.2188,562.5156 364.7656,562.875 Z " fill="#000000"/><text fill="#000000" font-family="sans-serif" font-size="14" lengthAdjust="spacing" textLength="32" x="376" y="571.8535">Zona</text><line style="stroke:#181818;stroke-width:0.5;" x1="348" x2="410" y1="583" y2="583"/><line style="stroke:#181818;stroke-width:0.5;" x1="348" x2="410" y1="591" y2="591"/></g><!--class Mueble--><g id="elem_Mueble"><rect codeLine="24" fill="#F1F1F1" height="48" id="Mueble" rx="2.5" ry="2.5" style="stroke:#181818;stroke-width:0.5;" width="78" x="340" y="675"/><ellipse cx="355" cy="691" fill="#ADD1B2" rx="11" ry="11" style="stroke:#181818;stroke-width:1.0;"/><path d="M357.7656,686.875 Q357.9219,686.6563 358.1094,686.5469 Q358.2969,686.4375 358.5156,686.4375 Q358.8906,686.4375 359.125,686.7031 Q359.3594,686.9531 359.3594,687.5625 L359.3594,689.0156 Q359.3594,689.625 359.125,689.8906 Q358.8906,690.1563 358.5156,690.1563 Q358.1719,690.1563 357.9688,689.9531 Q357.7656,689.7656 357.6563,689.25 Q357.6094,688.8906 357.4219,688.7031 Q357.0938,688.3281 356.4844,688.1094 Q355.875,687.8906 355.25,687.8906 Q354.4844,687.8906 353.8438,688.2188 Q353.2188,688.5469 352.7188,689.2969 Q352.2344,690.0469 352.2344,691.0781 L352.2344,692.1719 Q352.2344,693.4063 353.125,694.2344 Q354.0156,695.0469 355.6094,695.0469 Q356.5469,695.0469 357.2031,694.7969 Q357.5938,694.6406 358.0156,694.2031 Q358.2813,693.9375 358.4219,693.8594 Q358.5781,693.7813 358.7813,693.7813 Q359.1094,693.7813 359.3594,694.0469 Q359.625,694.2969 359.625,694.6406 Q359.625,694.9844 359.2813,695.3906 Q358.7813,695.9688 357.9844,696.2969 Q356.9063,696.75 355.6094,696.75 Q354.0938,696.75 352.8906,696.125 Q351.9063,695.625 351.2188,694.5625 Q350.5313,693.4844 350.5313,692.2031 L350.5313,691.0469 Q350.5313,689.7188 351.1406,688.5781 Q351.7656,687.4219 352.8594,686.8125 Q353.9531,686.1875 355.1875,686.1875 Q355.9219,686.1875 356.5625,686.3594 Q357.2188,686.5156 357.7656,686.875 Z " fill="#000000"/><text fill="#000000" font-family="sans-serif" font-size="14" lengthAdjust="spacing" textLength="46" x="369" y="695.8535">Mueble</text><line style="stroke:#181818;stroke-width:0.5;" x1="341" x2="417" y1="707" y2="707"/><line style="stroke:#181818;stroke-width:0.5;" x1="341" x2="417" y1="715" y2="715"/></g><!--class ZonaDeRecarga--><g id="elem_ZonaDeRecarga"><rect codeLine="27" fill="#F1F1F1" height="48" id="ZonaDeRecarga" rx="2.5" ry="2.5" style="stroke:#181818;stroke-width:0.5;" width="136" x="176" y="551"/><ellipse cx="191" cy="567" fill="#ADD1B2" rx="11" ry="11" style="stroke:#181818;stroke-width:1.0;"/><path d="M193.7656,562.875 Q193.9219,562.6563 194.1094,562.5469 Q194.2969,562.4375 194.5156,562.4375 Q194.8906,562.4375 195.125,562.7031 Q195.3594,562.9531 195.3594,563.5625 L195.3594,565.0156 Q195.3594,565.625 195.125,565.8906 Q194.8906,566.1563 194.5156,566.1563 Q194.1719,566.1563 193.9688,565.9531 Q193.7656,565.7656 193.6563,565.25 Q193.6094,564.8906 193.4219,564.7031 Q193.0938,564.3281 192.4844,564.1094 Q191.875,563.8906 191.25,563.8906 Q190.4844,563.8906 189.8438,564.2188 Q189.2188,564.5469 188.7188,565.2969 Q188.2344,566.0469 188.2344,567.0781 L188.2344,568.1719 Q188.2344,569.4063 189.125,570.2344 Q190.0156,571.0469 191.6094,571.0469 Q192.5469,571.0469 193.2031,570.7969 Q193.5938,570.6406 194.0156,570.2031 Q194.2813,569.9375 194.4219,569.8594 Q194.5781,569.7813 194.7813,569.7813 Q195.1094,569.7813 195.3594,570.0469 Q195.625,570.2969 195.625,570.6406 Q195.625,570.9844 195.2813,571.3906 Q194.7813,571.9688 193.9844,572.2969 Q192.9063,572.75 191.6094,572.75 Q190.0938,572.75 188.8906,572.125 Q187.9063,571.625 187.2188,570.5625 Q186.5313,569.4844 186.5313,568.2031 L186.5313,567.0469 Q186.5313,565.7188 187.1406,564.5781 Q187.7656,563.4219 188.8594,562.8125 Q189.9531,562.1875 191.1875,562.1875 Q191.9219,562.1875 192.5625,562.3594 Q193.2188,562.5156 193.7656,562.875 Z " fill="#000000"/><text fill="#000000" font-family="sans-serif" font-size="14" lengthAdjust="spacing" textLength="104" x="205" y="571.8535">ZonaDeRecarga</text><line style="stroke:#181818;stroke-width:0.5;" x1="177" x2="311" y1="583" y2="583"/><line style="stroke:#181818;stroke-width:0.5;" x1="177" x2="311" y1="591" y2="591"/></g><!--class Bateria--><g id="elem_Bateria"><rect codeLine="30" fill="#F1F1F1" height="48" id="Bateria" rx="2.5" ry="2.5" style="stroke:#181818;stroke-width:0.5;" width="77" x="161.5" y="427"/><ellipse cx="176.5" cy="443" fill="#ADD1B2" rx="11" ry="11" style="stroke:#181818;stroke-width:1.0;"/><path d="M179.2656,438.875 Q179.4219,438.6563 179.6094,438.5469 Q179.7969,438.4375 180.0156,438.4375 Q180.3906,438.4375 180.625,438.7031 Q180.8594,438.9531 180.8594,439.5625 L180.8594,441.0156 Q180.8594,441.625 180.625,441.8906 Q180.3906,442.1563 180.0156,442.1563 Q179.6719,442.1563 179.4688,441.9531 Q179.2656,441.7656 179.1563,441.25 Q179.1094,440.8906 178.9219,440.7031 Q178.5938,440.3281 177.9844,440.1094 Q177.375,439.8906 176.75,439.8906 Q175.9844,439.8906 175.3438,440.2188 Q174.7188,440.5469 174.2188,441.2969 Q173.7344,442.0469 173.7344,443.0781 L173.7344,444.1719 Q173.7344,445.4063 174.625,446.2344 Q175.5156,447.0469 177.1094,447.0469 Q178.0469,447.0469 178.7031,446.7969 Q179.0938,446.6406 179.5156,446.2031 Q179.7813,445.9375 179.9219,445.8594 Q180.0781,445.7813 180.2813,445.7813 Q180.6094,445.7813 180.8594,446.0469 Q181.125,446.2969 181.125,446.6406 Q181.125,446.9844 180.7813,447.3906 Q180.2813,447.9688 179.4844,448.2969 Q178.4063,448.75 177.1094,448.75 Q175.5938,448.75 174.3906,448.125 Q173.4063,447.625 172.7188,446.5625 Q172.0313,445.4844 172.0313,444.2031 L172.0313,443.0469 Q172.0313,441.7188 172.6406,440.5781 Q173.2656,439.4219 174.3594,438.8125 Q175.4531,438.1875 176.6875,438.1875 Q177.4219,438.1875 178.0625,438.3594 Q178.7188,438.5156 179.2656,438.875 Z " fill="#000000"/><text fill="#000000" font-family="sans-serif" font-size="14" lengthAdjust="spacing" textLength="45" x="190.5" y="447.8535">Bateria</text><line style="stroke:#181818;stroke-width:0.5;" x1="162.5" x2="237.5" y1="459" y2="459"/><line style="stroke:#181818;stroke-width:0.5;" x1="162.5" x2="237.5" y1="467" y2="467"/></g><!--class VistaConsola--><g id="elem_VistaConsola"><rect codeLine="33" fill="#F1F1F1" height="48" id="VistaConsola" rx="2.5" ry="2.5" style="stroke:#181818;stroke-width:0.5;" width="115" x="96.5" y="318"/><ellipse cx="111.5" cy="334" fill="#ADD1B2" rx="11" ry="11" style="stroke:#181818;stroke-width:1.0;"/><path d="M114.2656,329.875 Q114.4219,329.6563 114.6094,329.5469 Q114.7969,329.4375 115.0156,329.4375 Q115.3906,329.4375 115.625,329.7031 Q115.8594,329.9531 115.8594,330.5625 L115.8594,332.0156 Q115.8594,332.625 115.625,332.8906 Q115.3906,333.1563 115.0156,333.1563 Q114.6719,333.1563 114.4688,332.9531 Q114.2656,332.7656 114.1563,332.25 Q114.1094,331.8906 113.9219,331.7031 Q113.5938,331.3281 112.9844,331.1094 Q112.375,330.8906 111.75,330.8906 Q110.9844,330.8906 110.3438,331.2188 Q109.7188,331.5469 109.2188,332.2969 Q108.7344,333.0469 108.7344,334.0781 L108.7344,335.1719 Q108.7344,336.4063 109.625,337.2344 Q110.5156,338.0469 112.1094,338.0469 Q113.0469,338.0469 113.7031,337.7969 Q114.0938,337.6406 114.5156,337.2031 Q114.7813,336.9375 114.9219,336.8594 Q115.0781,336.7813 115.2813,336.7813 Q115.6094,336.7813 115.8594,337.0469 Q116.125,337.2969 116.125,337.6406 Q116.125,337.9844 115.7813,338.3906 Q115.2813,338.9688 114.4844,339.2969 Q113.4063,339.75 112.1094,339.75 Q110.5938,339.75 109.3906,339.125 Q108.4063,338.625 107.7188,337.5625 Q107.0313,336.4844 107.0313,335.2031 L107.0313,334.0469 Q107.0313,332.7188 107.6406,331.5781 Q108.2656,330.4219 109.3594,329.8125 Q110.4531,329.1875 111.6875,329.1875 Q112.4219,329.1875 113.0625,329.3594 Q113.7188,329.5156 114.2656,329.875 Z " fill="#000000"/><text fill="#000000" font-family="sans-serif" font-size="14" lengthAdjust="spacing" textLength="83" x="125.5" y="338.8535">VistaConsola</text><line style="stroke:#181818;stroke-width:0.5;" x1="97.5" x2="210.5" y1="350" y2="350"/><line style="stroke:#181818;stroke-width:0.5;" x1="97.5" x2="210.5" y1="358" y2="358"/></g><!--class UnidadConMovimiento--><g id="elem_UnidadConMovimiento"><rect fill="#F1F1F1" height="48" id="UnidadConMovimiento" rx="2.5" ry="2.5" style="stroke:#181818;stroke-width:0.5;" width="173" x="469.5" y="162.5"/><ellipse cx="484.5" cy="178.5" fill="#ADD1B2" rx="11" ry="11" style="stroke:#181818;stroke-width:1.0;"/><path d="M487.2656,174.375 Q487.4219,174.1563 487.6094,174.0469 Q487.7969,173.9375 488.0156,173.9375 Q488.3906,173.9375 488.625,174.2031 Q488.8594,174.4531 488.8594,175.0625 L488.8594,176.5156 Q488.8594,177.125 488.625,177.3906 Q488.3906,177.6563 488.0156,177.6563 Q487.6719,177.6563 487.4688,177.4531 Q487.2656,177.2656 487.1563,176.75 Q487.1094,176.3906 486.9219,176.2031 Q486.5938,175.8281 485.9844,175.6094 Q485.375,175.3906 484.75,175.3906 Q483.9844,175.3906 483.3438,175.7188 Q482.7188,176.0469 482.2188,176.7969 Q481.7344,177.5469 481.7344,178.5781 L481.7344,179.6719 Q481.7344,180.9063 482.625,181.7344 Q483.5156,182.5469 485.1094,182.5469 Q486.0469,182.5469 486.7031,182.2969 Q487.0938,182.1406 487.5156,181.7031 Q487.7813,181.4375 487.9219,181.3594 Q488.0781,181.2813 488.2813,181.2813 Q488.6094,181.2813 488.8594,181.5469 Q489.125,181.7969 489.125,182.1406 Q489.125,182.4844 488.7813,182.8906 Q488.2813,183.4688 487.4844,183.7969 Q486.4063,184.25 485.1094,184.25 Q483.5938,184.25 482.3906,183.625 Q481.4063,183.125 480.7188,182.0625 Q480.0313,180.9844 480.0313,179.7031 L480.0313,178.5469 Q480.0313,177.2188 480.6406,176.0781 Q481.2656,174.9219 482.3594,174.3125 Q483.4531,173.6875 484.6875,173.6875 Q485.4219,173.6875 486.0625,173.8594 Q486.7188,174.0156 487.2656,174.375 Z " fill="#000000"/><text fill="#000000" font-family="sans-serif" font-size="14" lengthAdjust="spacing" textLength="141" x="498.5" y="183.3535">UnidadConMovimiento</text><line style="stroke:#181818;stroke-width:0.5;" x1="470.5" x2="641.5" y1="194.5" y2="194.5"/><line style="stroke:#181818;stroke-width:0.5;" x1="470.5" x2="641.5" y1="202.5" y2="202.5"/></g><!--reverse link Mundo to Habitacion--><g id="link_Mundo_Habitacion"><path codeLine="36" d="M104.2996,65.5451 C80.4696,107.1851 38.3,187.84 21,272 C14.32,304.51 6.34,291.35 34,397 C36.65,407.12 40.83,417.85 44.83,427 " fill="none" id="Mundo-backto-Habitacion" style="stroke:#181818;stroke-width:1.0;"/><polygon fill="#181818" points="110.26,55.13,103.8081,58.3507,104.2996,65.5451,110.7515,62.3243,110.26,55.13" style="stroke:#181818;stroke-width:1.0;"/><text fill="#000000" font-family="sans-serif" font-size="13" lengthAdjust="spacing" textLength="53" x="22" y="284.7686">compone</text></g><!--link Bateria to Aspiradora--><g id="link_Bateria_Aspiradora"><path codeLine="37" d="M238.84,451 C265.06,451 287.93,451 316.33,451 " fill="none" id="Bateria-to-Aspiradora" style="stroke:#181818;stroke-width:1.0;"/><polygon fill="#181818" points="328.33,451,322.33,447,316.33,451,322.33,455,328.33,451" style="stroke:#181818;stroke-width:1.0;"/><text fill="#000000" font-family="sans-serif" font-size="13" lengthAdjust="spacing" textLength="53" x="257" y="444.7686">compone</text></g><!--reverse link Mundo to UnidadConMovimiento--><g id="link_Mundo_UnidadConMovimiento"><path codeLine="38" d="M173.2671,46.2299 C231.6071,63.2999 335.4,94.85 431,131 C456.13,140.5 483.55,152.29 506.29,162.47 " fill="none" id="Mundo-backto-UnidadConMovimiento" style="stroke:#181818;stroke-width:1.0;"/><polygon fill="#181818" points="161.75,42.86,166.3853,48.384,173.2671,46.2299,168.6318,40.7059,161.75,42.86" style="stroke:#181818;stroke-width:1.0;"/><text fill="#000000" font-family="sans-serif" font-size="13" lengthAdjust="spacing" textLength="53" x="341" y="97.7686">compone</text></g><!--reverse link Habitacion to Zona--><g id="link_Habitacion_Zona"><path codeLine="39" d="M116.6502,472.3559 C171.6902,491.0859 251.81,519.32 329,551 C334.83,553.39 340.98,556.08 346.9,558.76 " fill="none" id="Habitacion-backto-Zona" style="stroke:#181818;stroke-width:1.0;"/><polygon fill="#181818" points="105.29,468.49,109.6815,474.2097,116.6502,472.3559,112.2587,466.6362,105.29,468.49" style="stroke:#181818;stroke-width:1.0;"/><text fill="#000000" font-family="sans-serif" font-size="13" lengthAdjust="spacing" textLength="53" x="249" y="517.7686">compone</text></g><!--reverse link Zona to Mueble--><g id="link_Zona_Mueble"><path codeLine="40" d="M379,611.23 C379,632.94 379,653.17 379,674.85 " fill="none" id="Zona-backto-Mueble" style="stroke:#181818;stroke-width:1.0;"/><polygon fill="none" points="379,599.23,375,605.23,379,611.23,383,605.23,379,599.23" style="stroke:#181818;stroke-width:1.0;"/><text fill="#000000" font-family="sans-serif" font-size="13" lengthAdjust="spacing" textLength="89" x="380" y="641.7686">puede contener</text></g><!--link ZonaDeRecarga to Zona--><g id="link_ZonaDeRecarga_Zona"><path codeLine="41" d="M312.03,575 C323.63,575 317.22,575 328.82,575 " fill="none" id="ZonaDeRecarga-to-Zona" style="stroke:#181818;stroke-width:1.0;"/><polygon fill="none" points="346.82,575,328.82,569,328.82,581,346.82,575" style="stroke:#181818;stroke-width:1.0;"/></g><!--link Aspiradora to Zona--><g id="link_Aspiradora_Zona"><path codeLine="42" d="M379,475.23 C379,496.94 379,523.17 379,544.85 " fill="none" id="Aspiradora-to-Zona" style="stroke:#181818;stroke-width:1.0;stroke-dasharray:7.0,7.0;"/><polygon fill="#181818" points="379,550.85,383,541.85,379,545.85,375,541.85,379,550.85" style="stroke:#181818;stroke-width:1.0;"/><text fill="#000000" font-family="sans-serif" font-size="13" lengthAdjust="spacing" textLength="34" x="380" y="517.7686">limpia</text></g><!--link Gato to Zona--><g id="link_Gato_Zona"><path codeLine="43" d="M476.15,475.23 C454.79,496.94 427.297,524.892 405.977,546.572 " fill="none" id="Gato-to-Zona" style="stroke:#181818;stroke-width:1.0;stroke-dasharray:7.0,7.0;"/><polygon fill="#181818" points="401.77,550.85,410.9325,547.2376,405.2758,547.285,405.2285,541.6283,401.77,550.85" style="stroke:#181818;stroke-width:1.0;"/><text fill="#000000" font-family="sans-serif" font-size="13" lengthAdjust="spacing" textLength="45" x="447" y="517.7686">ensucia</text></g><!--link VistaConsola to Aspiradora--><g id="link_VistaConsola_Aspiradora"><path codeLine="44" d="M202.54,366.09 C240.4,384.09 287.2915,406.3932 325.1215,424.3832 " fill="none" id="VistaConsola-to-Aspiradora" style="stroke:#181818;stroke-width:1.0;stroke-dasharray:7.0,7.0;"/><polygon fill="#181818" points="330.54,426.96,324.1301,419.4825,326.0246,424.8127,320.6944,426.7072,330.54,426.96" style="stroke:#181818;stroke-width:1.0;"/></g><!--link VistaConsola to Bateria--><g id="link_VistaConsola_Bateria"><path codeLine="45" d="M163.98,366.22 C171.7,384.16 179.9609,403.3775 187.6709,421.3175 " fill="none" id="VistaConsola-to-Bateria" style="stroke:#181818;stroke-width:1.0;stroke-dasharray:7.0,7.0;"/><polygon fill="#181818" points="190.04,426.83,190.1614,416.9819,188.0658,422.2363,182.8114,420.1407,190.04,426.83" style="stroke:#181818;stroke-width:1.0;"/></g><!--link VistaConsola to Habitacion--><g id="link_VistaConsola_Habitacion"><path codeLine="46" d="M132.74,366.22 C116.3,384.16 97.7023,404.4652 81.2723,422.4052 " fill="none" id="VistaConsola-to-Habitacion" style="stroke:#181818;stroke-width:1.0;stroke-dasharray:7.0,7.0;"/><polygon fill="#181818" points="77.22,426.83,86.2484,422.8944,80.5969,423.1427,80.3487,417.4913,77.22,426.83" style="stroke:#181818;stroke-width:1.0;"/></g><!--link VistaConsola to Gato--><g id="link_VistaConsola_Gato"><path codeLine="47" d="M211.53,359.04 C290.36,381.08 424.74,418.93 447,427 C453.68,429.42 455.2159,429.9116 461.8759,432.8016 " fill="none" id="VistaConsola-to-Gato" style="stroke:#181818;stroke-width:1.0;stroke-dasharray:7.0,7.0;"/><polygon fill="#181818" points="467.38,435.19,460.7161,427.9379,462.7932,433.1996,457.5315,435.2768,467.38,435.19" style="stroke:#181818;stroke-width:1.0;"/></g><!--reverse link Mundo to VistaConsola--><g id="link_Mundo_VistaConsola"><path codeLine="48" d="M116.4702,67.0357 C108.6402,106.0757 98.43,175.26 112,242 C117.54,269.26 130.86,298.33 141.03,317.86 " fill="none" id="Mundo-backto-VistaConsola" style="stroke:#181818;stroke-width:1.0;"/><polygon fill="#181818" points="118.83,55.27,113.7282,60.3663,116.4702,67.0357,121.572,61.9394,118.83,55.27" style="stroke:#181818;stroke-width:1.0;"/><text fill="#000000" font-family="sans-serif" font-size="13" lengthAdjust="spacing" textLength="21" x="113" y="191.2686">usa</text></g><!--reverse link UnidadConMovimiento to Aspiradora--><g id="link_UnidadConMovimiento_Aspiradora"><path codeLine="49" d="M554.5608,228.576 C552.6808,264.946 545.43,318.33 511,366 C490.64,394.19 457.64,415.19 429.73,429.14 " fill="none" id="UnidadConMovimiento-backto-Aspiradora" style="stroke:#181818;stroke-width:1.0;stroke-dasharray:7.0,7.0;"/><polygon fill="none" points="555.49,210.6,548.5688,228.2663,560.5528,228.8857,555.49,210.6" style="stroke:#181818;stroke-width:1.0;"/></g><!--reverse link UnidadConMovimiento to Gato--><g id="link_UnidadConMovimiento_Gato"><path codeLine="50" d="M573.7795,227.2859 C588.4695,262.2659 603.59,313.42 582,366 C571.64,391.22 549.64,412.91 530.9,427.93 " fill="none" id="UnidadConMovimiento-backto-Gato" style="stroke:#181818;stroke-width:1.0;stroke-dasharray:7.0,7.0;"/><polygon fill="none" points="566.81,210.69,568.2476,229.6091,579.3115,224.9628,566.81,210.69" style="stroke:#181818;stroke-width:1.0;"/></g><!--link Mundo to MundoFactory--><g id="link_Mundo_MundoFactory"><path codeLine="53" d="M148.15,55.31 C168.82,75.27 195.1032,100.6429 221.9232,126.5329 " fill="none" id="Mundo-to-MundoFactory" style="stroke:#181818;stroke-width:1.0;stroke-dasharray:7.0,7.0;"/><polygon fill="#181818" points="226.24,130.7,222.5429,121.5714,222.6426,127.2274,216.9867,127.3272,226.24,130.7" style="stroke:#181818;stroke-width:1.0;"/><text fill="#000000" font-family="sans-serif" font-size="13" lengthAdjust="spacing" textLength="21" x="195" y="97.7686">usa</text></g><!--link MundoFactory to Aspiradora--><g id="link_MundoFactory_Aspiradora"><path codeLine="54" d="M303.01,242.21 C323.83,299.16 353.4093,380.015 368.4393,421.115 " fill="none" id="MundoFactory-to-Aspiradora" style="stroke:#181818;stroke-width:1.0;stroke-dasharray:7.0,7.0;"/><polygon fill="#181818" points="370.5,426.75,371.1656,416.9237,368.7828,422.0541,363.6523,419.6713,370.5,426.75" style="stroke:#181818;stroke-width:1.0;"/><text fill="#000000" font-family="sans-serif" font-size="13" lengthAdjust="spacing" textLength="25" x="350" y="346.7686">crea</text></g><!--link MundoFactory to Bateria--><g id="link_MundoFactory_Bateria"><path codeLine="55" d="M271.86,242.08 C268.44,257.07 264.4,273.25 260,288 C244.96,338.44 224.6132,390.3073 211.8732,421.4273 " fill="none" id="MundoFactory-to-Bateria" style="stroke:#181818;stroke-width:1.0;stroke-dasharray:7.0,7.0;"/><polygon fill="#181818" points="209.6,426.98,216.7116,420.1664,211.4943,422.3527,209.308,417.1355,209.6,426.98" style="stroke:#181818;stroke-width:1.0;"/><text fill="#000000" font-family="sans-serif" font-size="13" lengthAdjust="spacing" textLength="25" x="251" y="346.7686">crea</text></g><!--link MundoFactory to Habitacion--><g id="link_MundoFactory_Habitacion"><path codeLine="56" d="M161.48,242.16 C112.9,266.72 65.29,295.22 52,318 C32.35,351.66 38.9555,393.0485 46.6955,420.9385 " fill="none" id="MundoFactory-to-Habitacion" style="stroke:#181818;stroke-width:1.0;stroke-dasharray:7.0,7.0;"/><polygon fill="#181818" points="48.3,426.72,49.7476,416.9781,46.9629,421.9021,42.039,419.1174,48.3,426.72" style="stroke:#181818;stroke-width:1.0;"/><text fill="#000000" font-family="sans-serif" font-size="13" lengthAdjust="spacing" textLength="25" x="53" y="346.7686">crea</text></g><!--link MundoFactory to Gato--><g id="link_MundoFactory_Gato"><path codeLine="57" d="M328.02,242.21 C374.88,299.16 442.2376,381.0169 476.0576,422.1169 " fill="none" id="MundoFactory-to-Gato" style="stroke:#181818;stroke-width:1.0;stroke-dasharray:7.0,7.0;"/><polygon fill="#181818" points="479.87,426.75,477.2401,417.2588,476.693,422.8891,471.0626,422.342,479.87,426.75" style="stroke:#181818;stroke-width:1.0;"/><text fill="#000000" font-family="sans-serif" font-size="13" lengthAdjust="spacing" textLength="25" x="430" y="346.7686">crea</text></g><!--reverse link MundoFactory to VistaConsola--><g id="link_MundoFactory_VistaConsola"><path codeLine="58" d="M219.1155,250.8977 C210.0255,260.5777 209.14,262.02 201,272 C189.09,286.6 177.16,304.17 168.29,317.92 " fill="none" id="MundoFactory-backto-VistaConsola" style="stroke:#181818;stroke-width:1.0;"/><polygon fill="#181818" points="227.33,242.15,220.3069,243.7857,219.1155,250.8977,226.1386,249.262,227.33,242.15" style="stroke:#181818;stroke-width:1.0;"/><text fill="#000000" font-family="sans-serif" font-size="13" lengthAdjust="spacing" textLength="53" x="202" y="284.7686">compone</text></g><!--SRC=[TLExJiGm4Epp5Uu8GSu7f3Y9Xu3cA92WeDjpLiYIOqTsSX82_frDuk0r2LUTPqRZcVL66GX174VREl5PV1U5Ii0zgC7v3y85_Qw4yWZ-1WRq6ihBHiI_d7s4anv0QMSdGJfnpGCChamKwIQ4Awv3hpsqpaCPxo1H0bFCXF7manq_fxiu-kOiv9NnPF2luWwVKO5_pwGn58TUTHZWrjdWJCINcLPIyliReLpNEui5Yrv98tyzao8Pl5ZTGalkHtVMdKPB_PAEsLUobKknHCz7HownO2Fw4LiatWveqHTvJVbrc1rumBe-hAv6Tpqz-JnY1gCDeo8y6yF4irVRSEl-R0YsDnjktfKqcenln1Zou6DDTNR65mlyInSNucd4CmJXqSn9C8WUo99_6J7752lxO9OS6PJFOdeUMlIjX6t1Bf-lqgvaRhP7xenhtP4V]--></g></svg>