<?xml version="1.0" encoding="us-ascii" standalone="no"?><svg xmlns="http://www.w3.org/2000/svg" xmlns:xlink="http://www.w3.org/1999/xlink" contentStyleType="text/css" height="1151px" preserveAspectRatio="none" style="width:363px;height:1151px;background:#FFFFFF;" version="1.1" viewBox="0 0 363 1151" width="363px" zoomAndPan="magnify"><defs/><g><ellipse cx="182.5" cy="16" fill="#222222" rx="10" ry="10" style="stroke:#222222;stroke-width:1.0;"/><g id="Carga_Completa"><rect fill="#F1F1F1" height="50" rx="12.5" ry="12.5" style="stroke:#181818;stroke-width:0.5;" width="127" x="119" y="87"/><line style="stroke:#181818;stroke-width:0.5;" x1="119" x2="246" y1="112.6406" y2="112.6406"/><text fill="#000000" font-family="sans-serif" font-size="14" lengthAdjust="spacing" textLength="107" x="129" y="104.6738">Carga_Completa</text></g><g id="Alta"><rect fill="#F1F1F1" height="50" rx="12.5" ry="12.5" style="stroke:#181818;stroke-width:0.5;" width="50" x="87.5" y="213"/><line style="stroke:#181818;stroke-width:0.5;" x1="87.5" x2="137.5" y1="238.6406" y2="238.6406"/><text fill="#000000" font-family="sans-serif" font-size="14" lengthAdjust="spacing" textLength="24" x="100.5" y="230.6738">Alta</text></g><g id="Media"><rect fill="#F1F1F1" height="50" rx="12.5" ry="12.5" style="stroke:#181818;stroke-width:0.5;" width="58" x="83.5" y="339"/><line style="stroke:#181818;stroke-width:0.5;" x1="83.5" x2="141.5" y1="364.6406" y2="364.6406"/><text fill="#000000" font-family="sans-serif" font-size="14" lengthAdjust="spacing" textLength="38" x="93.5" y="356.6738">Media</text></g><g id="Baja"><rect fill="#F1F1F1" height="50" rx="12.5" ry="12.5" style="stroke:#181818;stroke-width:0.5;" width="50" x="86.5" y="465"/><line style="stroke:#181818;stroke-width:0.5;" x1="86.5" x2="136.5" y1="490.6406" y2="490.6406"/><text fill="#000000" font-family="sans-serif" font-size="14" lengthAdjust="spacing" textLength="28" x="97.5" y="482.6738">Baja</text></g><g id="Critica"><rect fill="#F1F1F1" height="50" rx="12.5" ry="12.5" style="stroke:#181818;stroke-width:0.5;" width="60" x="75.5" y="591"/><line style="stroke:#181818;stroke-width:0.5;" x1="75.5" x2="135.5" y1="616.6406" y2="616.6406"/><text fill="#000000" font-family="sans-serif" font-size="14" lengthAdjust="spacing" textLength="40" x="85.5" y="608.6738">Critica</text></g><g id="Sin_Bateria"><rect fill="#F1F1F1" height="50" rx="12.5" ry="12.5" style="stroke:#181818;stroke-width:0.5;" width="93" x="36" y="717"/><line style="stroke:#181818;stroke-width:0.5;" x1="36" x2="129" y1="742.6406" y2="742.6406"/><text fill="#000000" font-family="sans-serif" font-size="14" lengthAdjust="spacing" textLength="73" x="46" y="734.6738">Sin_Bateria</text></g><g id="Buscando_Recarga"><rect fill="#F1F1F1" height="50" rx="12.5" ry="12.5" style="stroke:#181818;stroke-width:0.5;" width="145" x="7" y="843"/><line style="stroke:#181818;stroke-width:0.5;" x1="7" x2="152" y1="868.6406" y2="868.6406"/><text fill="#000000" font-family="sans-serif" font-size="14" lengthAdjust="spacing" textLength="125" x="17" y="860.6738">Buscando_Recarga</text></g><g id="Zona_Recarga"><rect fill="#F1F1F1" height="50" rx="12.5" ry="12.5" style="stroke:#181818;stroke-width:0.5;" width="114" x="34.5" y="969"/><line style="stroke:#181818;stroke-width:0.5;" x1="34.5" x2="148.5" y1="994.6406" y2="994.6406"/><text fill="#000000" font-family="sans-serif" font-size="14" lengthAdjust="spacing" textLength="94" x="44.5" y="986.6738">Zona_Recarga</text></g><g id="Cargando"><rect fill="#F1F1F1" height="50" rx="12.5" ry="12.5" style="stroke:#181818;stroke-width:0.5;" width="83" x="130" y="1095"/><line style="stroke:#181818;stroke-width:0.5;" x1="130" x2="213" y1="1120.6406" y2="1120.6406"/><text fill="#000000" font-family="sans-serif" font-size="14" lengthAdjust="spacing" textLength="63" x="140" y="1112.6738">Cargando</text></g><!--link *start* to Carga_Completa--><g id="link_*start*_Carga_Completa"><path d="M182.5,26.01 C182.5,39.89 182.5,60.97 182.5,80.84 " fill="none" id="*start*-to-Carga_Completa" style="stroke:#181818;stroke-width:1.0;"/><polygon fill="#181818" points="182.5,86.84,186.5,77.84,182.5,81.84,178.5,77.84,182.5,86.84" style="stroke:#181818;stroke-width:1.0;"/></g><!--link Carga_Completa to Alta--><g id="link_Carga_Completa_Alta"><path d="M136.37,137.08 C125.61,145.06 115.53,155.03 109.5,167 C102.44,181.01 102.1807,192.776 104.7307,206.856 " fill="none" id="Carga_Completa-to-Alta" style="stroke:#181818;stroke-width:1.0;"/><polygon fill="#181818" points="105.8,212.76,108.1321,203.1912,104.909,207.84,100.2601,204.6169,105.8,212.76" style="stroke:#181818;stroke-width:1.0;"/><text fill="#000000" font-family="sans-serif" font-size="13" lengthAdjust="spacing" textLength="115" x="110.5" y="179.7686">"Aspiradora en uso"</text></g><!--link Alta to Media--><g id="link_Alta_Media"><path d="M110.62,263.29 C109.78,276.76 109.08,293.8 109.5,309 C109.77,318.76 109.9665,323.5104 110.5165,332.8304 " fill="none" id="Alta-to-Media" style="stroke:#181818;stroke-width:1.0;"/><polygon fill="#181818" points="110.87,338.82,114.3329,329.6,110.5754,333.8287,106.3468,330.0713,110.87,338.82" style="stroke:#181818;stroke-width:1.0;"/><text fill="#000000" font-family="sans-serif" font-size="13" lengthAdjust="spacing" textLength="115" x="110.5" y="305.7686">"Aspiradora en uso"</text></g><!--link Media to Baja--><g id="link_Media_Baja"><path d="M110.87,389.18 C110.32,398.5 109.77,409.24 109.5,419 C109.08,434.19 109.2917,445.2456 109.8717,458.7056 " fill="none" id="Media-to-Baja" style="stroke:#181818;stroke-width:1.0;"/><polygon fill="#181818" points="110.13,464.7,113.7388,455.5361,109.9147,459.7046,105.7463,455.8805,110.13,464.7" style="stroke:#181818;stroke-width:1.0;"/><text fill="#000000" font-family="sans-serif" font-size="13" lengthAdjust="spacing" textLength="115" x="110.5" y="431.7686">"Aspiradora en uso"</text></g><!--link Baja to Critica--><g id="link_Baja_Critica"><path d="M110.33,515.2 C109.27,537.05 108.0083,563.0369 106.9583,584.8669 " fill="none" id="Baja-to-Critica" style="stroke:#181818;stroke-width:1.0;"/><polygon fill="#181818" points="106.67,590.86,111.0978,582.0626,106.9102,585.8658,103.107,581.6782,106.67,590.86" style="stroke:#181818;stroke-width:1.0;"/><text fill="#000000" font-family="sans-serif" font-size="13" lengthAdjust="spacing" textLength="115" x="110.5" y="557.7686">"Aspiradora en uso"</text></g><!--link Critica to Sin_Bateria--><g id="link_Critica_Sin_Bateria"><path d="M101.01,641.2 C96.96,663.05 92.1245,689.1307 88.0745,710.9607 " fill="none" id="Critica-to-Sin_Bateria" style="stroke:#181818;stroke-width:1.0;"/><polygon fill="#181818" points="86.98,716.86,92.5546,708.7406,87.8921,711.9439,84.6888,707.2814,86.98,716.86" style="stroke:#181818;stroke-width:1.0;"/><text fill="#000000" font-family="sans-serif" font-size="13" lengthAdjust="spacing" textLength="115" x="96.5" y="683.7686">"Aspiradora en uso"</text></g><!--link Sin_Bateria to Buscando_Recarga--><g id="link_Sin_Bateria_Buscando_Recarga"><path d="M80.33,767.17 C79.59,776.49 78.86,787.23 78.5,797 C77.94,812.18 77.9908,823.2324 78.3708,836.7024 " fill="none" id="Sin_Bateria-to-Buscando_Recarga" style="stroke:#181818;stroke-width:1.0;"/><polygon fill="#181818" points="78.54,842.7,82.2846,833.5908,78.399,837.702,74.2878,833.8164,78.54,842.7" style="stroke:#181818;stroke-width:1.0;"/><text fill="#000000" font-family="sans-serif" font-size="13" lengthAdjust="spacing" textLength="146" x="79.5" y="809.7686">"Modo ahorro de energ&#237;a"</text></g><!--link Buscando_Recarga to Zona_Recarga--><g id="link_Buscando_Recarga_Zona_Recarga"><path d="M75.75,893.08 C74.23,906.63 73.3,923.82 75.5,939 C76.95,948.97 78.0067,953.9406 80.9267,963.1506 " fill="none" id="Buscando_Recarga-to-Zona_Recarga" style="stroke:#181818;stroke-width:1.0;"/><polygon fill="#181818" points="82.74,968.87,83.833,959.082,81.2289,964.1038,76.2071,961.4997,82.74,968.87" style="stroke:#181818;stroke-width:1.0;"/><text fill="#000000" font-family="sans-serif" font-size="13" lengthAdjust="spacing" textLength="149" x="76.5" y="935.7686">"Llega a zona de recarga"</text></g><!--link Zona_Recarga to Cargando--><g id="link_Zona_Recarga_Cargando"><path d="M90.98,1019.16 C91.69,1033.38 94.4,1051.21 102.5,1065 C109.36,1076.67 115.0271,1083.101 125.7171,1091.291 " fill="none" id="Zona_Recarga-to-Cargando" style="stroke:#181818;stroke-width:1.0;"/><polygon fill="#181818" points="130.48,1094.94,125.7684,1086.2913,126.511,1091.8992,120.903,1092.6417,130.48,1094.94" style="stroke:#181818;stroke-width:1.0;"/><text fill="#000000" font-family="sans-serif" font-size="13" lengthAdjust="spacing" textLength="122" x="103.5" y="1061.7686">"Recargando bater&#237;a"</text></g><!--link Cargando to Carga_Completa--><g id="link_Cargando_Carga_Completa"><path d="M203.75,1094.99 C213.46,1086.43 223.41,1076.13 230.5,1065 C248.02,1037.49 252.5,1027.61 252.5,995 C252.5,237 252.5,237 252.5,237 C252.5,204.39 246.58,195.37 230.5,167 C224.44,156.31 220.0513,150.2973 211.9313,141.5073 " fill="none" id="Cargando-to-Carga_Completa" style="stroke:#181818;stroke-width:1.0;"/><polygon fill="#181818" points="207.86,137.1,211.0288,146.4252,211.2528,140.7727,216.9052,140.9967,207.86,137.1" style="stroke:#181818;stroke-width:1.0;"/><text fill="#000000" font-family="sans-serif" font-size="13" lengthAdjust="spacing" textLength="102" x="253.5" y="620.7686">"Carga finalizada"</text></g><!--SRC=[TP513e8m44NtFSM4fGaNS642R6MZEuqX8wrOWnqom8OxUGelPgSe4GsxplptPtxRu-e4SRo13Bd28gDxKviEbPhN0KbgVrX3bBIDPTJ42CP1trAaWYHCRhHTWaPDg1HlIr2GGY2sdIsNCFMH1TrRLwJO6LvShRwHaA1lItIQYfqfvQRYoqaJu9MO2RJnNiFLyu4-qoyi4mxayDkzhOq_80o-BtOUfKZDmEcf_JXnlVjIdILUsASculzdn1GwSB4EQpkWzeuN]--></g></svg>