<?xml version="1.0" encoding="us-ascii" standalone="no"?><svg xmlns="http://www.w3.org/2000/svg" xmlns:xlink="http://www.w3.org/1999/xlink" contentStyleType="text/css" height="678px" preserveAspectRatio="none" style="width:264px;height:678px;background:#FFFFFF;" version="1.1" viewBox="0 0 264 678" width="264px" zoomAndPan="magnify"><defs/><g><ellipse cx="84.72" cy="32" fill="#222222" rx="10" ry="10" style="stroke:#222222;stroke-width:1.0;"/><g id="Limpia"><rect fill="#F1F1F1" height="50" rx="12.5" ry="12.5" style="stroke:#181818;stroke-width:0.5;" width="61" x="54.22" y="118"/><line style="stroke:#181818;stroke-width:0.5;" x1="54.22" x2="115.22" y1="143.6406" y2="143.6406"/><text fill="#000000" font-family="sans-serif" font-size="14" lengthAdjust="spacing" textLength="41" x="64.22" y="135.6738">Limpia</text></g><g id="LigeraSuciedad"><rect fill="#F1F1F1" height="50" rx="12.5" ry="12.5" style="stroke:#181818;stroke-width:0.5;" width="119" x="25.22" y="244"/><line style="stroke:#181818;stroke-width:0.5;" x1="25.22" x2="144.22" y1="269.6406" y2="269.6406"/><text fill="#000000" font-family="sans-serif" font-size="14" lengthAdjust="spacing" textLength="99" x="35.22" y="261.6738">LigeraSuciedad</text></g><g id="ModeradaSuciedad"><rect fill="#F1F1F1" height="50" rx="12.5" ry="12.5" style="stroke:#181818;stroke-width:0.5;" width="143" x="13.22" y="370"/><line style="stroke:#181818;stroke-width:0.5;" x1="13.22" x2="156.22" y1="395.6406" y2="395.6406"/><text fill="#000000" font-family="sans-serif" font-size="14" lengthAdjust="spacing" textLength="123" x="23.22" y="387.6738">ModeradaSuciedad</text></g><g id="AltaSuciedad"><rect fill="#F1F1F1" height="50" rx="12.5" ry="12.5" style="stroke:#181818;stroke-width:0.5;" width="103" x="33.22" y="496"/><line style="stroke:#181818;stroke-width:0.5;" x1="33.22" x2="136.22" y1="521.6406" y2="521.6406"/><text fill="#000000" font-family="sans-serif" font-size="14" lengthAdjust="spacing" textLength="83" x="43.22" y="513.6738">AltaSuciedad</text></g><g id="MuySucia"><rect fill="#F1F1F1" height="50" rx="12.5" ry="12.5" style="stroke:#181818;stroke-width:0.5;" width="81" x="44.22" y="622"/><line style="stroke:#181818;stroke-width:0.5;" x1="44.22" x2="125.22" y1="647.6406" y2="647.6406"/><text fill="#000000" font-family="sans-serif" font-size="14" lengthAdjust="spacing" textLength="61" x="54.22" y="639.6738">MuySucia</text></g><g id="ZonaRecarga"><rect fill="#F1F1F1" height="50" rx="12.5" ry="12.5" style="stroke:#181818;stroke-width:0.5;" width="128" x="129.72" y="7"/><line style="stroke:#181818;stroke-width:0.5;" x1="129.72" x2="257.72" y1="32.6406" y2="32.6406"/><text fill="#000000" font-family="sans-serif" font-size="14" lengthAdjust="spacing" textLength="86" x="150.72" y="24.6738">ZonaRecarga</text><text fill="#000000" font-family="sans-serif" font-size="12" lengthAdjust="spacing" textLength="108" x="134.72" y="48.5039">"Nunca se ensucia"</text></g><!--link *start* to Limpia--><g id="link_*start*_Limpia"><path d="M84.72,42.29 C84.72,58.87 84.72,88.03 84.72,111.85 " fill="none" id="*start*-to-Limpia" style="stroke:#181818;stroke-width:1.0;"/><polygon fill="#181818" points="84.72,117.85,88.72,108.85,84.72,112.85,80.72,108.85,84.72,117.85" style="stroke:#181818;stroke-width:1.0;"/></g><!--link Limpia to LigeraSuciedad--><g id="link_Limpia_LigeraSuciedad"><path d="M53.93,160.29 C40.16,169.38 25.33,182.1 17.72,198 C9.3,215.6 17.4334,228.0793 34.1334,240.3393 " fill="none" id="Limpia-to-LigeraSuciedad" style="stroke:#181818;stroke-width:1.0;"/><polygon fill="#181818" points="38.97,243.89,34.0822,235.3396,34.9395,240.9311,29.348,241.7884,38.97,243.89" style="stroke:#181818;stroke-width:1.0;"/><text fill="#000000" font-family="sans-serif" font-size="13" lengthAdjust="spacing" textLength="87" x="18.72" y="210.7686">"Gato ensucia"</text></g><!--link LigeraSuciedad to Limpia--><g id="link_LigeraSuciedad_Limpia"><path d="M99.2,243.85 C103.84,234.81 108.38,224.25 110.72,214 C114.3,198.33 111.1498,186.6954 104.0198,173.4254 " fill="none" id="LigeraSuciedad-to-Limpia" style="stroke:#181818;stroke-width:1.0;"/><polygon fill="#181818" points="101.18,168.14,101.9162,177.9613,103.5465,172.5445,108.9634,174.1748,101.18,168.14" style="stroke:#181818;stroke-width:1.0;"/><text fill="#000000" font-family="sans-serif" font-size="13" lengthAdjust="spacing" textLength="110" x="112.72" y="210.7686">"Aspiradora limpia"</text></g><!--link LigeraSuciedad to ModeradaSuciedad--><g id="link_LigeraSuciedad_ModeradaSuciedad"><path d="M41.43,294.25 C31.12,302.29 21.45,312.24 15.72,324 C7.12,341.64 15.3046,354.0628 32.2846,366.2428 " fill="none" id="LigeraSuciedad-to-ModeradaSuciedad" style="stroke:#181818;stroke-width:1.0;"/><polygon fill="#181818" points="37.16,369.74,32.1784,361.2439,33.0972,366.8257,27.5154,367.7445,37.16,369.74" style="stroke:#181818;stroke-width:1.0;"/><text fill="#000000" font-family="sans-serif" font-size="13" lengthAdjust="spacing" textLength="91" x="16.72" y="336.7686">"M&#225;s suciedad"</text></g><!--link ModeradaSuciedad to LigeraSuciedad--><g id="link_ModeradaSuciedad_LigeraSuciedad"><path d="M102.44,369.94 C110.12,356.68 116.56,339.77 112.72,324 C110.19,313.64 108.2065,308.2991 103.2065,299.2691 " fill="none" id="ModeradaSuciedad-to-LigeraSuciedad" style="stroke:#181818;stroke-width:1.0;"/><polygon fill="#181818" points="100.3,294.02,101.1603,303.8312,102.722,298.3942,108.159,299.9559,100.3,294.02" style="stroke:#181818;stroke-width:1.0;"/><text fill="#000000" font-family="sans-serif" font-size="13" lengthAdjust="spacing" textLength="110" x="114.72" y="336.7686">"Aspiradora limpia"</text></g><!--link ModeradaSuciedad to AltaSuciedad--><g id="link_ModeradaSuciedad_AltaSuciedad"><path d="M41.43,420.25 C31.12,428.29 21.45,438.24 15.72,450 C7.12,467.64 15.3046,480.0628 32.2846,492.2428 " fill="none" id="ModeradaSuciedad-to-AltaSuciedad" style="stroke:#181818;stroke-width:1.0;"/><polygon fill="#181818" points="37.16,495.74,32.1784,487.2439,33.0972,492.8257,27.5154,493.7445,37.16,495.74" style="stroke:#181818;stroke-width:1.0;"/><text fill="#000000" font-family="sans-serif" font-size="13" lengthAdjust="spacing" textLength="91" x="16.72" y="462.7686">"M&#225;s suciedad"</text></g><!--link AltaSuciedad to ModeradaSuciedad--><g id="link_AltaSuciedad_ModeradaSuciedad"><path d="M102.44,495.94 C110.12,482.68 116.56,465.77 112.72,450 C110.19,439.64 108.2065,434.2991 103.2065,425.2691 " fill="none" id="AltaSuciedad-to-ModeradaSuciedad" style="stroke:#181818;stroke-width:1.0;"/><polygon fill="#181818" points="100.3,420.02,101.1603,429.8312,102.722,424.3942,108.159,425.9559,100.3,420.02" style="stroke:#181818;stroke-width:1.0;"/><text fill="#000000" font-family="sans-serif" font-size="13" lengthAdjust="spacing" textLength="110" x="114.72" y="462.7686">"Aspiradora limpia"</text></g><!--link AltaSuciedad to MuySucia--><g id="link_AltaSuciedad_MuySucia"><path d="M41.43,546.25 C31.12,554.29 21.45,564.24 15.72,576 C6,595.94 18.8754,610.4786 38.8954,623.1086 " fill="none" id="AltaSuciedad-to-MuySucia" style="stroke:#181818;stroke-width:1.0;"/><polygon fill="#181818" points="43.97,626.31,38.4924,618.1249,39.7412,623.6422,34.2239,624.891,43.97,626.31" style="stroke:#181818;stroke-width:1.0;"/><text fill="#000000" font-family="sans-serif" font-size="13" lengthAdjust="spacing" textLength="91" x="16.72" y="588.7686">"M&#225;s suciedad"</text></g><!--link MuySucia to AltaSuciedad--><g id="link_MuySucia_AltaSuciedad"><path d="M102.44,621.94 C110.12,608.68 116.56,591.77 112.72,576 C110.19,565.64 108.2065,560.2991 103.2065,551.2691 " fill="none" id="MuySucia-to-AltaSuciedad" style="stroke:#181818;stroke-width:1.0;"/><polygon fill="#181818" points="100.3,546.02,101.1603,555.8312,102.722,550.3942,108.159,551.9559,100.3,546.02" style="stroke:#181818;stroke-width:1.0;"/><text fill="#000000" font-family="sans-serif" font-size="13" lengthAdjust="spacing" textLength="110" x="114.72" y="588.7686">"Aspiradora limpia"</text></g><!--SRC=[YzQALT3LjLFmoSmjo4paueBGKA7qrAB4uDBapDIKn1G5AmKbzyIIV8NKl6AWKA8I5veyI8jlVWfGA0L5a-_XXSKAnL019IuC9I1zZZab-FIWI8FjAQq4yHEngEM2os4psB6u81DeUtvHea8EsAVO3CVY2Ipwi7e4CyomwCGISD1WnwwUAoe_Bp4eDJcnA1sinAyqBpbHeJWL4HK0]--></g></svg>