<?xml version="1.0" encoding="us-ascii" standalone="no"?><svg xmlns="http://www.w3.org/2000/svg" xmlns:xlink="http://www.w3.org/1999/xlink" contentStyleType="text/css" height="521px" preserveAspectRatio="none" style="width:628px;height:521px;background:#FFFFFF;" version="1.1" viewBox="0 0 628 521" width="628px" zoomAndPan="magnify"><defs/><g><ellipse cx="383.52" cy="16" fill="#222222" rx="10" ry="10" style="stroke:#222222;stroke-width:1.0;"/><g id="No_Existe"><rect fill="#F1F1F1" height="50" rx="12.5" ry="12.5" style="stroke:#181818;stroke-width:0.5;" width="82" x="342.52" y="87"/><line style="stroke:#181818;stroke-width:0.5;" x1="342.52" x2="424.52" y1="112.6406" y2="112.6406"/><text fill="#000000" font-family="sans-serif" font-size="14" lengthAdjust="spacing" textLength="62" x="352.52" y="104.6738">No_Existe</text></g><g id="Apareciendo"><rect fill="#F1F1F1" height="50" rx="12.5" ry="12.5" style="stroke:#181818;stroke-width:0.5;" width="100" x="218.52" y="213"/><line style="stroke:#181818;stroke-width:0.5;" x1="218.52" x2="318.52" y1="238.6406" y2="238.6406"/><text fill="#000000" font-family="sans-serif" font-size="14" lengthAdjust="spacing" textLength="80" x="228.52" y="230.6738">Apareciendo</text></g><g id="Caminando"><rect fill="#F1F1F1" height="50" rx="12.5" ry="12.5" style="stroke:#181818;stroke-width:0.5;" width="92" x="180.52" y="339"/><line style="stroke:#181818;stroke-width:0.5;" x1="180.52" x2="272.52" y1="364.6406" y2="364.6406"/><text fill="#000000" font-family="sans-serif" font-size="14" lengthAdjust="spacing" textLength="72" x="190.52" y="356.6738">Caminando</text></g><g id="Ensuciando"><rect fill="#F1F1F1" height="50" rx="12.5" ry="12.5" style="stroke:#181818;stroke-width:0.5;" width="94" x="50.52" y="465"/><line style="stroke:#181818;stroke-width:0.5;" x1="50.52" x2="144.52" y1="490.6406" y2="490.6406"/><text fill="#000000" font-family="sans-serif" font-size="14" lengthAdjust="spacing" textLength="74" x="60.52" y="482.6738">Ensuciando</text></g><g id="Desapareciendo"><rect fill="#F1F1F1" height="50" rx="12.5" ry="12.5" style="stroke:#181818;stroke-width:0.5;" width="124" x="355.52" y="465"/><line style="stroke:#181818;stroke-width:0.5;" x1="355.52" x2="479.52" y1="490.6406" y2="490.6406"/><text fill="#000000" font-family="sans-serif" font-size="14" lengthAdjust="spacing" textLength="104" x="365.52" y="482.6738">Desapareciendo</text></g><!--link *start* to No_Existe--><g id="link_*start*_No_Existe"><path d="M383.52,26.01 C383.52,39.89 383.52,60.97 383.52,80.84 " fill="none" id="*start*-to-No_Existe" style="stroke:#181818;stroke-width:1.0;"/><polygon fill="#181818" points="383.52,86.84,387.52,77.84,383.52,81.84,379.52,77.84,383.52,86.84" style="stroke:#181818;stroke-width:1.0;"/></g><!--link No_Existe to Apareciendo--><g id="link_No_Existe_Apareciendo"><path d="M361.07,137.2 C340.81,159.05 315.2305,186.6312 294.9805,208.4612 " fill="none" id="No_Existe-to-Apareciendo" style="stroke:#181818;stroke-width:1.0;"/><polygon fill="#181818" points="290.9,212.86,299.9533,208.982,294.3004,209.1943,294.0881,203.5414,290.9,212.86" style="stroke:#181818;stroke-width:1.0;"/><text fill="#000000" font-family="sans-serif" font-size="13" lengthAdjust="spacing" textLength="124" x="334.52" y="179.7686">"Tiempo transcurrido"</text></g><!--link Apareciendo to Caminando--><g id="link_Apareciendo_Caminando"><path d="M260.32,263.2 C252.92,285.05 244.0162,311.3476 236.6162,333.1776 " fill="none" id="Apareciendo-to-Caminando" style="stroke:#181818;stroke-width:1.0;"/><polygon fill="#181818" points="234.69,338.86,241.3676,331.6206,236.2952,334.1247,233.7911,329.0522,234.69,338.86" style="stroke:#181818;stroke-width:1.0;"/><text fill="#000000" font-family="sans-serif" font-size="13" lengthAdjust="spacing" textLength="162" x="251.52" y="305.7686">"Gato entra en la superficie"</text></g><!--link Caminando to Ensuciando--><g id="link_Caminando_Ensuciando"><path d="M180.33,370.56 C125.75,378.2 39.88,393.9 20.52,419 C6,437.81 21.4675,452.8598 45.0475,465.8798 " fill="none" id="Caminando-to-Ensuciando" style="stroke:#181818;stroke-width:1.0;"/><polygon fill="#181818" points="50.3,468.78,44.3548,460.928,45.9229,466.3631,40.4878,467.9313,50.3,468.78" style="stroke:#181818;stroke-width:1.0;"/><text fill="#000000" font-family="sans-serif" font-size="13" lengthAdjust="spacing" textLength="106" x="21.52" y="431.7686">"Pisa zona limpia"</text></g><!--link Ensuciando to Caminando--><g id="link_Ensuciando_Caminando"><path d="M121.66,464.85 C135.32,451.28 152.77,434.09 168.52,419 C178.85,409.1 185.9601,402.4093 195.9801,393.1193 " fill="none" id="Ensuciando-to-Caminando" style="stroke:#181818;stroke-width:1.0;"/><polygon fill="#181818" points="200.38,389.04,191.0606,392.2257,196.7134,392.4394,196.4997,398.0923,200.38,389.04" style="stroke:#181818;stroke-width:1.0;"/><text fill="#000000" font-family="sans-serif" font-size="13" lengthAdjust="spacing" textLength="136" x="169.52" y="431.7686">"Se mueve a otra zona"</text></g><!--link Caminando to Desapareciendo--><g id="link_Caminando_Desapareciendo"><path d="M264.19,389.13 C278.69,398.44 295.39,409.19 310.52,419 C333.98,434.22 355.2524,448.12 375.9024,461.66 " fill="none" id="Caminando-to-Desapareciendo" style="stroke:#181818;stroke-width:1.0;"/><polygon fill="#181818" points="380.92,464.95,375.587,456.67,376.7387,462.2084,371.2003,463.3601,380.92,464.95" style="stroke:#181818;stroke-width:1.0;"/><text fill="#000000" font-family="sans-serif" font-size="13" lengthAdjust="spacing" textLength="111" x="335.52" y="431.7686">"Camina 25 pasos"</text></g><!--link Desapareciendo to No_Existe--><g id="link_Desapareciendo_No_Existe"><path d="M439,464.86 C445.55,456.07 451.95,445.66 455.52,435 C544.67,168.17 469.35,177.97 463.52,167 C455.1,151.17 444.9394,142.1343 429.9194,133.4843 " fill="none" id="Desapareciendo-to-No_Existe" style="stroke:#181818;stroke-width:1.0;"/><polygon fill="#181818" points="424.72,130.49,430.5229,138.4478,429.0528,132.9853,434.5154,131.5152,424.72,130.49" style="stroke:#181818;stroke-width:1.0;"/><text fill="#000000" font-family="sans-serif" font-size="13" lengthAdjust="spacing" textLength="127" x="493.52" y="305.7686">"Sale de la superficie"</text></g><!--SRC=[PP0z2y9038Rt-nNXHg6BuE8WY8gR2Bg9I6WZ17gNuz8JyTVRgrzjNKBWVHvUajFa34MnW9rSDdVMXepvhbsm31YfPFALm1piaSa5WIQYrpB5o9LOqsUoiqB77j_65Xi1ygtHJgWHD0MALsvvQtvazZPUKyaVSS-Ay12FKBCBZDRqyh-Q0u5BT2D0aDoLHMj61MjI7Dxpoc4wWu0gQiq86Vocwy6QeABn8Ky0]--></g></svg>