<?xml version="1.0" encoding="us-ascii" standalone="no"?><svg xmlns="http://www.w3.org/2000/svg" xmlns:xlink="http://www.w3.org/1999/xlink" contentStyleType="text/css" height="311px" preserveAspectRatio="none" style="width:902px;height:311px;background:#FFFFFF;" version="1.1" viewBox="0 0 902 311" width="902px" zoomAndPan="magnify"><defs/><g><g id="elem_Superficie"><rect fill="#F1F1F1" height="35.6406" style="stroke:#181818;stroke-width:0.5;" width="77" x="240.96" y="18.5"/><text fill="#000000" font-family="sans-serif" font-size="14" lengthAdjust="spacing" textLength="63" x="247.96" y="33.1738">Superficie</text><line style="stroke:#181818;stroke-width:0.5;" x1="241.96" x2="316.96" y1="38.1406" y2="38.1406"/></g><g id="elem_Zona1"><rect fill="#F1F1F1" height="43.2813" style="stroke:#181818;stroke-width:0.5;" width="124" x="438.46" y="142"/><text fill="#000000" font-family="sans-serif" font-size="14" lengthAdjust="spacing" textLength="40" x="480.46" y="156.6738">Zona1</text><line style="stroke:#181818;stroke-width:0.5;" x1="439.46" x2="561.46" y1="161.6406" y2="161.6406"/><text fill="#000000" font-family="sans-serif" font-size="14" lengthAdjust="spacing" textLength="112" x="444.46" y="178.3145">nivelSuciedad = 3</text></g><g id="elem_Zona2"><rect fill="#F1F1F1" height="43.2813" style="stroke:#181818;stroke-width:0.5;" width="124" x="9.46" y="142"/><text fill="#000000" font-family="sans-serif" font-size="14" lengthAdjust="spacing" textLength="40" x="51.46" y="156.6738">Zona2</text><line style="stroke:#181818;stroke-width:0.5;" x1="10.46" x2="132.46" y1="161.6406" y2="161.6406"/><text fill="#000000" font-family="sans-serif" font-size="14" lengthAdjust="spacing" textLength="112" x="15.46" y="178.3145">nivelSuciedad = 0</text></g><g id="elem_Zona3"><rect fill="#F1F1F1" height="43.2813" style="stroke:#181818;stroke-width:0.5;" width="124" x="168.46" y="142"/><text fill="#000000" font-family="sans-serif" font-size="14" lengthAdjust="spacing" textLength="40" x="210.46" y="156.6738">Zona3</text><line style="stroke:#181818;stroke-width:0.5;" x1="169.46" x2="291.46" y1="161.6406" y2="161.6406"/><text fill="#000000" font-family="sans-serif" font-size="14" lengthAdjust="spacing" textLength="112" x="174.46" y="178.3145">nivelSuciedad = 0</text></g><g id="elem_ZonaRecarga"><rect fill="#F1F1F1" height="43.2813" style="stroke:#181818;stroke-width:0.5;" width="124" x="645.46" y="261"/><text fill="#000000" font-family="sans-serif" font-size="14" lengthAdjust="spacing" textLength="86" x="664.46" y="275.6738">ZonaRecarga</text><line style="stroke:#181818;stroke-width:0.5;" x1="646.46" x2="768.46" y1="280.6406" y2="280.6406"/><text fill="#000000" font-family="sans-serif" font-size="14" lengthAdjust="spacing" textLength="112" x="651.46" y="297.3145">nivelSuciedad = 0</text></g><g id="elem_Aspiradora"><rect fill="#F1F1F1" height="58.9219" style="stroke:#181818;stroke-width:0.5;" width="100" x="591.46" y="7"/><text fill="#000000" font-family="sans-serif" font-size="14" lengthAdjust="spacing" textLength="69" x="606.96" y="21.6738">Aspiradora</text><line style="stroke:#181818;stroke-width:0.5;" x1="592.46" x2="690.46" y1="26.6406" y2="26.6406"/><text fill="#000000" font-family="sans-serif" font-size="14" lengthAdjust="spacing" textLength="88" x="597.46" y="43.3145">bateria = 10%</text><text fill="#000000" font-family="sans-serif" font-size="14" lengthAdjust="spacing" textLength="78" x="597.46" y="58.9551">bolsa = 5/10</text></g><g id="elem_Bateria"><rect fill="#F1F1F1" height="43.2813" style="stroke:#181818;stroke-width:0.5;" width="92" x="597.46" y="142"/><text fill="#000000" font-family="sans-serif" font-size="14" lengthAdjust="spacing" textLength="45" x="620.96" y="156.6738">Bateria</text><line style="stroke:#181818;stroke-width:0.5;" x1="598.46" x2="688.46" y1="161.6406" y2="161.6406"/><text fill="#000000" font-family="sans-serif" font-size="14" lengthAdjust="spacing" textLength="80" x="603.46" y="178.3145">carga = 10%</text></g><g id="elem_Mueble"><rect fill="#F1F1F1" height="43.2813" style="stroke:#181818;stroke-width:0.5;" width="224" x="118.46" y="261"/><text fill="#000000" font-family="sans-serif" font-size="14" lengthAdjust="spacing" textLength="46" x="207.46" y="275.6738">Mueble</text><line style="stroke:#181818;stroke-width:0.5;" x1="119.46" x2="341.46" y1="280.6406" y2="280.6406"/><text fill="#000000" font-family="sans-serif" font-size="14" lengthAdjust="spacing" textLength="212" x="124.46" y="297.3145">tama&#241;o = 2 // Sof&#225; ocupa 2 zonas</text></g><g id="elem_Gato"><rect fill="#F1F1F1" height="35.6406" style="stroke:#181818;stroke-width:0.5;" width="45" x="15.96" y="264.5"/><text fill="#000000" font-family="sans-serif" font-size="14" lengthAdjust="spacing" textLength="31" x="22.96" y="279.1738">Gato</text><line style="stroke:#181818;stroke-width:0.5;" x1="16.96" x2="59.96" y1="284.1406" y2="284.1406"/></g><!--reverse link Superficie to Zona1--><g id="link_Superficie_Zona1"><path codeLine="34" d="M329.2974,57.5581 C355.1874,68.4081 378.6,79.29 407.46,96 C431.17,109.72 456.34,127.97 474.51,141.89 " fill="none" id="Superficie-backto-Zona1" style="stroke:#181818;stroke-width:1.0;"/><polygon fill="#181818" points="318.23,52.92,322.2177,58.9282,329.2974,57.5581,325.3098,51.5499,318.23,52.92" style="stroke:#181818;stroke-width:1.0;"/></g><!--reverse link Superficie to Zona2--><g id="link_Superficie_Zona2"><path codeLine="35" d="M240.6846,60.8015 C202.8646,83.5315 146.4,117.47 105.82,141.85 " fill="none" id="Superficie-backto-Zona2" style="stroke:#181818;stroke-width:1.0;"/><polygon fill="#181818" points="250.97,54.62,243.7668,54.2823,240.6846,60.8015,247.8878,61.1392,250.97,54.62" style="stroke:#181818;stroke-width:1.0;"/></g><!--reverse link Superficie to Zona3--><g id="link_Superficie_Zona3"><path codeLine="36" d="M230.0322,59.6189 C212.5922,69.1589 204.3,77.29 194.46,96 C186.34,111.46 196.37,128.8 207.89,141.9 " fill="none" id="Superficie-backto-Zona3" style="stroke:#181818;stroke-width:1.0;"/><polygon fill="#181818" points="240.56,53.86,233.3765,53.2302,230.0322,59.6189,237.2157,60.2487,240.56,53.86" style="stroke:#181818;stroke-width:1.0;"/></g><!--reverse link Superficie to ZonaRecarga--><g id="link_Superficie_ZonaRecarga"><path codeLine="37" d="M320.2352,61.0129 C337.2252,71.5229 347.81,79.74 363.46,96 C396.03,129.85 383.43,156.1 420.46,185 C486.97,236.91 582.89,261.66 645.21,272.9 " fill="none" id="Superficie-backto-ZonaRecarga" style="stroke:#181818;stroke-width:1.0;"/><polygon fill="#181818" points="310.03,54.7,313.0283,61.2582,320.2352,61.0129,317.2369,54.4547,310.03,54.7" style="stroke:#181818;stroke-width:1.0;"/></g><!--link Zona3 to Mueble--><g id="link_Zona3_Mueble"><path codeLine="39" d="M230.46,185.15 C230.46,206.4 230.46,233.34 230.46,254.66 " fill="none" id="Zona3-to-Mueble" style="stroke:#181818;stroke-width:1.0;"/><polygon fill="#181818" points="230.46,260.66,234.46,251.66,230.46,255.66,226.46,251.66,230.46,260.66" style="stroke:#181818;stroke-width:1.0;"/><text fill="#000000" font-family="sans-serif" font-size="13" lengthAdjust="spacing" textLength="49" x="231.46" y="227.7686">contiene</text></g><!--link Aspiradora to Zona1--><g id="link_Aspiradora_Zona1"><path codeLine="41" d="M591.26,41.7 C555.26,47.63 509.1,61.88 485.46,96 C476.09,109.52 478.7265,122.5495 485.4565,136.5895 " fill="none" id="Aspiradora-to-Zona1" style="stroke:#181818;stroke-width:1.0;"/><polygon fill="#181818" points="488.05,142,487.7668,132.1552,485.8887,137.4912,480.5527,135.6132,488.05,142" style="stroke:#181818;stroke-width:1.0;"/><text fill="#000000" font-family="sans-serif" font-size="13" lengthAdjust="spacing" textLength="73" x="486.46" y="108.7686">se mueve en</text></g><!--link Aspiradora to Zona1--><g id="link_Aspiradora_Zona1"><path codeLine="42" d="M613.22,66.15 C598.93,80.31 581.12,97.43 564.46,112 C552.74,122.25 544.0112,129.3329 532.4712,138.2829 " fill="none" id="Aspiradora-to-Zona1-1" style="stroke:#181818;stroke-width:1.0;"/><polygon fill="#181818" points="527.73,141.96,537.2932,139.6052,531.681,138.8958,532.3904,133.2836,527.73,141.96" style="stroke:#181818;stroke-width:1.0;"/><text fill="#000000" font-family="sans-serif" font-size="13" lengthAdjust="spacing" textLength="34" x="582.46" y="108.7686">limpia</text></g><!--link Aspiradora to ZonaRecarga--><g id="link_Aspiradora_ZonaRecarga"><path codeLine="43" d="M680.08,66.3 C689.52,74.95 698.81,85.07 705.46,96 C737.5,148.68 753.79,171.54 737.46,231 C734.6,241.42 732.2236,246.8352 726.6036,255.5052 " fill="none" id="Aspiradora-to-ZonaRecarga" style="stroke:#181818;stroke-width:1.0;"/><polygon fill="#181818" points="723.34,260.54,731.5919,255.1636,726.0597,256.3444,724.8789,250.8121,723.34,260.54" style="stroke:#181818;stroke-width:1.0;"/><text fill="#000000" font-family="sans-serif" font-size="13" lengthAdjust="spacing" textLength="73" x="744.46" y="168.2686">se mueve en</text></g><!--link Aspiradora to ZonaRecarga--><g id="link_Aspiradora_ZonaRecarga"><path codeLine="44" d="M691.67,50.4 C735.9,64.73 797.64,92.62 826.46,142 C853.82,188.88 797.1417,232.1824 752.7617,257.8924 " fill="none" id="Aspiradora-to-ZonaRecarga-1" style="stroke:#181818;stroke-width:1.0;"/><polygon fill="#181818" points="747.57,260.9,757.3627,259.8497,751.8964,258.3936,753.3525,252.9274,747.57,260.9" style="stroke:#181818;stroke-width:1.0;"/><text fill="#000000" font-family="sans-serif" font-size="13" lengthAdjust="spacing" textLength="61" x="833.46" y="168.2686">recarga en</text></g><!--link Aspiradora to Zona3--><g id="link_Aspiradora_Zona3"><path codeLine="45" d="M591.42,41.91 C530.65,48.46 425.81,63.65 341.46,96 C311.47,107.5 285.2922,123.4978 263.6622,138.3878 " fill="none" id="Aspiradora-to-Zona3" style="stroke:#FF0000;stroke-width:1.0;"/><polygon fill="#FF0000" points="258.72,141.79,268.4014,139.9815,262.8385,138.9549,263.8652,133.3919,258.72,141.79" style="stroke:#FF0000;stroke-width:1.0;"/><text fill="#000000" font-family="sans-serif" font-size="13" lengthAdjust="spacing" textLength="130" x="342.46" y="108.7686">detecta y evita mueble</text></g><!--reverse link Aspiradora to Bateria--><g id="link_Aspiradora_Bateria"><path codeLine="47" d="M642.1125,78.1785 C642.4825,101.2385 642.8,121.1 643.13,141.75 " fill="none" id="Aspiradora-backto-Bateria" style="stroke:#181818;stroke-width:1.0;"/><polygon fill="#181818" points="641.92,66.18,638.0168,72.2434,642.1125,78.1785,646.0157,72.1151,641.92,66.18" style="stroke:#181818;stroke-width:1.0;"/><text fill="#000000" font-family="sans-serif" font-size="13" lengthAdjust="spacing" textLength="53" x="643.46" y="108.7686">tiene una</text></g><!--link Bateria to ZonaRecarga--><g id="link_Bateria_ZonaRecarga"><path codeLine="48" d="M642.7,185.08 C643.01,198.8 645.07,216.85 652.46,231 C658.46,242.49 663.6054,248.8158 673.2054,257.0058 " fill="none" id="Bateria-to-ZonaRecarga" style="stroke:#181818;stroke-width:1.0;"/><polygon fill="#181818" points="677.77,260.9,673.5192,252.0157,673.9662,257.6549,668.327,258.1018,677.77,260.9" style="stroke:#181818;stroke-width:1.0;"/><text fill="#000000" font-family="sans-serif" font-size="13" lengthAdjust="spacing" textLength="79" x="653.46" y="227.7686">se recarga en</text></g><!--reverse link Zona2 to Gato--><g id="link_Zona2_Gato"><path codeLine="50" d="M29.0148,192.6525 C19.1248,200.6625 18.83,203.21 13.46,215 C6,231.39 15.18,250.71 24.45,264.3 " fill="none" id="Zona2-backto-Gato" style="stroke:#181818;stroke-width:1.0;"/><polygon fill="none" points="38.34,185.1,31.1599,185.7679,29.0148,192.6525,36.1949,191.9847,38.34,185.1" style="stroke:#181818;stroke-width:1.0;"/><text fill="#000000" font-family="sans-serif" font-size="13" lengthAdjust="spacing" textLength="49" x="14.46" y="227.7686">contiene</text></g><!--link Gato to Zona2--><g id="link_Gato_Zona2"><path codeLine="51" d="M51.58,264.27 C57.92,254.95 64.9,242.92 68.46,231 C72.93,216.05 73.7174,204.3768 73.2774,191.0068 " fill="none" id="Gato-to-Zona2" style="stroke:#181818;stroke-width:1.0;"/><polygon fill="#181818" points="73.08,185.01,69.3782,194.1367,73.2445,190.0073,77.3739,193.8736,73.08,185.01" style="stroke:#181818;stroke-width:1.0;"/><text fill="#000000" font-family="sans-serif" font-size="13" lengthAdjust="spacing" textLength="45" x="73.46" y="227.7686">ensucia</text></g><!--SRC=[ZPB1JeGm48RlVOe9nei9OO5uCT54Bvwyo4tZOO1PKmCjAOL4ZG_Z8_WC-s9EAMJPJOrxWlxppNJcd-hoZIeBnT2HsSfAaX3QIqzQOGgV0a39aPfYu62DDLn3BhuEg2n8ROwe_2JgaIeqh_WlUzjtqc2jZKTBj6GaCfHkpjrPDxqxNIRfEkjknboAlySdx8c7WSg69i1YYxiVpKW6IGA5tkw-GLT3XonySA_zAkyUhHPYRoDSnB6tC2Hc8J4FYRCVGdWBu_XcQV4AeaehAqbH9CJA3yVuvJ7I4xG3ZGIaeZ-XHhQTn61ysSS9fLQecN-FoUSpG_NBpEUEhCcoVGZlGAFaRpiDTpYGysBP7ATC8yEWkE553NUxxaBuXwgvb5lLeNkJijJ8N8nKp- -ER_W5]--></g></svg>