<?xml version="1.0" encoding="us-ascii" standalone="no"?><svg xmlns="http://www.w3.org/2000/svg" xmlns:xlink="http://www.w3.org/1999/xlink" contentStyleType="text/css" height="521px" preserveAspectRatio="none" style="width:597px;height:521px;background:#FFFFFF;" version="1.1" viewBox="0 0 597 521" width="597px" zoomAndPan="magnify"><defs/><g><ellipse cx="337.51" cy="16" fill="#222222" rx="10" ry="10" style="stroke:#222222;stroke-width:1.0;"/><g id="Apagada"><rect fill="#F1F1F1" height="50" rx="12.5" ry="12.5" style="stroke:#181818;stroke-width:0.5;" width="77" x="299.01" y="87"/><line style="stroke:#181818;stroke-width:0.5;" x1="299.01" x2="376.01" y1="112.6406" y2="112.6406"/><text fill="#000000" font-family="sans-serif" font-size="14" lengthAdjust="spacing" textLength="57" x="309.01" y="104.6738">Apagada</text></g><g id="EnEspera"><rect fill="#F1F1F1" height="50" rx="12.5" ry="12.5" style="stroke:#181818;stroke-width:0.5;" width="82" x="224.51" y="213"/><line style="stroke:#181818;stroke-width:0.5;" x1="224.51" x2="306.51" y1="238.6406" y2="238.6406"/><text fill="#000000" font-family="sans-serif" font-size="14" lengthAdjust="spacing" textLength="62" x="234.51" y="230.6738">EnEspera</text></g><g id="Moviendose"><rect fill="#F1F1F1" height="50" rx="12.5" ry="12.5" style="stroke:#181818;stroke-width:0.5;" width="96" x="217.51" y="339"/><line style="stroke:#181818;stroke-width:0.5;" x1="217.51" x2="313.51" y1="364.6406" y2="364.6406"/><text fill="#000000" font-family="sans-serif" font-size="14" lengthAdjust="spacing" textLength="76" x="227.51" y="356.6738">Moviendose</text></g><g id="Limpiando"><rect fill="#F1F1F1" height="50" rx="12.5" ry="12.5" style="stroke:#181818;stroke-width:0.5;" width="85" x="60.01" y="465"/><line style="stroke:#181818;stroke-width:0.5;" x1="60.01" x2="145.01" y1="490.6406" y2="490.6406"/><text fill="#000000" font-family="sans-serif" font-size="14" lengthAdjust="spacing" textLength="65" x="70.01" y="482.6738">Limpiando</text></g><g id="EvitandoObstaculo"><rect fill="#F1F1F1" height="50" rx="12.5" ry="12.5" style="stroke:#181818;stroke-width:0.5;" width="139" x="362.01" y="465"/><line style="stroke:#181818;stroke-width:0.5;" x1="362.01" x2="501.01" y1="490.6406" y2="490.6406"/><text fill="#000000" font-family="sans-serif" font-size="14" lengthAdjust="spacing" textLength="119" x="372.01" y="482.6738">EvitandoObstaculo</text></g><ellipse cx="430.51" cy="238" fill="none" rx="11" ry="11" style="stroke:#222222;stroke-width:1.0;"/><ellipse cx="430.51" cy="238" fill="#222222" rx="6" ry="6" style="stroke:#222222;stroke-width:1.0;"/><!--link *start* to Apagada--><g id="link_*start*_Apagada"><path d="M337.51,26.01 C337.51,39.89 337.51,60.97 337.51,80.84 " fill="none" id="*start*-to-Apagada" style="stroke:#181818;stroke-width:1.0;"/><polygon fill="#181818" points="337.51,86.84,341.51,77.84,337.51,81.84,333.51,77.84,337.51,86.84" style="stroke:#181818;stroke-width:1.0;"/></g><!--link Apagada to EnEspera--><g id="link_Apagada_EnEspera"><path d="M298.78,115.49 C264.24,120 215.53,132.51 191.51,167 C177.47,187.17 195.2208,203.2103 219.2008,216.2703 " fill="none" id="Apagada-to-EnEspera" style="stroke:#181818;stroke-width:1.0;"/><polygon fill="#181818" points="224.47,219.14,218.4793,211.3226,220.079,216.7486,214.653,218.3482,224.47,219.14" style="stroke:#181818;stroke-width:1.0;"/><text fill="#000000" font-family="sans-serif" font-size="13" lengthAdjust="spacing" textLength="101" x="192.51" y="179.7686">"Encender bot&#243;n"</text></g><!--link EnEspera to Apagada--><g id="link_EnEspera_Apagada"><path d="M280.51,212.93 C286.23,203.63 292.75,192.87 298.51,183 C307.35,167.86 314.0509,155.9286 321.5009,142.3686 " fill="none" id="EnEspera-to-Apagada" style="stroke:#181818;stroke-width:1.0;"/><polygon fill="#181818" points="324.39,137.11,316.5506,143.0718,321.9824,141.4922,323.562,146.924,324.39,137.11" style="stroke:#181818;stroke-width:1.0;"/><text fill="#000000" font-family="sans-serif" font-size="13" lengthAdjust="spacing" textLength="51" x="308.51" y="179.7686">"Apagar"</text></g><!--link EnEspera to Moviendose--><g id="link_EnEspera_Moviendose"><path d="M224.31,256.49 C209.28,265.14 193.93,277.17 185.51,293 C174.38,313.94 189.2938,328.6617 212.1838,340.9517 " fill="none" id="EnEspera-to-Moviendose" style="stroke:#181818;stroke-width:1.0;"/><polygon fill="#181818" points="217.47,343.79,211.4328,336.0085,213.0648,341.4248,207.6485,343.0568,217.47,343.79" style="stroke:#181818;stroke-width:1.0;"/><text fill="#000000" font-family="sans-serif" font-size="13" lengthAdjust="spacing" textLength="113" x="186.51" y="305.7686">"Iniciar movimiento"</text></g><!--link Moviendose to EnEspera--><g id="link_Moviendose_EnEspera"><path d="M287.96,338.74 C294.63,330.01 301.06,319.67 304.51,309 C309.74,292.85 304.8752,280.8796 294.4352,267.8696 " fill="none" id="Moviendose-to-EnEspera" style="stroke:#181818;stroke-width:1.0;"/><polygon fill="#181818" points="290.68,263.19,293.193,272.7128,293.8093,267.0897,299.4325,267.7059,290.68,263.19" style="stroke:#181818;stroke-width:1.0;"/><text fill="#000000" font-family="sans-serif" font-size="13" lengthAdjust="spacing" textLength="93" x="307.51" y="305.7686">"Pausa manual"</text></g><!--link Moviendose to Limpiando--><g id="link_Moviendose_Limpiando"><path d="M217.48,368.7 C153.75,374.73 46.48,389.12 22.51,419 C6,439.59 27.5065,456.3913 54.4665,469.5313 " fill="none" id="Moviendose-to-Limpiando" style="stroke:#181818;stroke-width:1.0;"/><polygon fill="#181818" points="59.86,472.16,53.5222,464.6212,55.3654,469.9694,50.0173,471.8126,59.86,472.16" style="stroke:#181818;stroke-width:1.0;"/><text fill="#000000" font-family="sans-serif" font-size="13" lengthAdjust="spacing" textLength="111" x="23.51" y="431.7686">"Detecta suciedad"</text></g><!--link Limpiando to Moviendose--><g id="link_Limpiando_Moviendose"><path d="M124.98,464.89 C138.83,450.69 157.37,432.86 175.51,419 C189.56,408.27 200.7052,400.9566 215.5652,392.2366 " fill="none" id="Limpiando-to-Moviendose" style="stroke:#181818;stroke-width:1.0;"/><polygon fill="#181818" points="220.74,389.2,210.9533,390.3051,216.4276,391.7305,215.0022,397.2048,220.74,389.2" style="stroke:#181818;stroke-width:1.0;"/><text fill="#000000" font-family="sans-serif" font-size="13" lengthAdjust="spacing" textLength="133" x="176.51" y="431.7686">"Limpieza completada"</text></g><!--link Moviendose to EvitandoObstaculo--><g id="link_Moviendose_EvitandoObstaculo"><path d="M293.28,389.06 C309.61,402.92 330.86,420.42 350.51,435 C364.22,445.17 374.7093,452.4196 388.4493,461.4696 " fill="none" id="Moviendose-to-EvitandoObstaculo" style="stroke:#181818;stroke-width:1.0;"/><polygon fill="#181818" points="393.46,464.77,388.1441,456.4789,389.2844,462.0197,383.7436,463.1599,393.46,464.77" style="stroke:#181818;stroke-width:1.0;"/><text fill="#000000" font-family="sans-serif" font-size="13" lengthAdjust="spacing" textLength="115" x="351.51" y="431.7686">"Detecta obst&#225;culo"</text></g><!--link EvitandoObstaculo to Moviendose--><g id="link_EvitandoObstaculo_Moviendose"><path d="M459.42,464.96 C472.3,450.96 482.54,433.29 471.51,419 C452.37,394.19 374.2109,379.4003 319.5609,371.6703 " fill="none" id="EvitandoObstaculo-to-Moviendose" style="stroke:#181818;stroke-width:1.0;"/><polygon fill="#181818" points="313.62,370.83,321.9711,376.051,318.5707,371.5303,323.0915,368.1299,313.62,370.83" style="stroke:#181818;stroke-width:1.0;"/><text fill="#000000" font-family="sans-serif" font-size="13" lengthAdjust="spacing" textLength="113" x="476.51" y="431.7686">"Obst&#225;culo evitado"</text></g><!--link Apagada to *end*--><g id="link_Apagada_*end*"><path d="M355.67,137.2 C376.81,165.4 407,205.65 420.77,224.01 " fill="none" id="Apagada-to-*end*" style="stroke:#181818;stroke-width:1.0;"/><polygon fill="#181818" points="424.37,228.81,422.17,219.21,421.37,224.81,415.77,224.01,424.37,228.81" style="stroke:#181818;stroke-width:1.0;"/><text fill="#000000" font-family="sans-serif" font-size="13" lengthAdjust="spacing" textLength="88" x="390.51" y="179.7686">"Fin de sesi&#243;n"</text></g><!--SRC=[PP5D2W8n38NtFKNeKl02BWJ14GH5z-8YqmO9JDjXsfc5j_4C7i6BcGuw_dJNllSbQLvFipFCvqjOjNX1Yqgz3gDO-Igsr24iG5VUaBVKGHtIu-wrcinCxiF0OeT8cTrwDemTE56Tw2bezKNaWXsxbb7kcLzJ8fCGOc-OB5gjFdRPVVJeYc22QnjAyjgYVJLmokM7EYOqVVCp9eZuk6LLjYZ0Sk1Xue4oRijrlfCwOXyH7FeUcx-Otk4ADHux_PFtIJv3h0rxi0IH8ez9Fm40]--></g></svg>