<?xml version="1.0" encoding="us-ascii" standalone="no"?><svg xmlns="http://www.w3.org/2000/svg" xmlns:xlink="http://www.w3.org/1999/xlink" contentStyleType="text/css" height="521px" preserveAspectRatio="none" style="width:1059px;height:521px;background:#FFFFFF;" version="1.1" viewBox="0 0 1059 521" width="1059px" zoomAndPan="magnify"><defs/><g><ellipse cx="529.32" cy="16" fill="#222222" rx="10" ry="10" style="stroke:#222222;stroke-width:1.0;"/><g id="Inactivo"><rect fill="#F1F1F1" height="50" rx="12.5" ry="12.5" style="stroke:#181818;stroke-width:0.5;" width="68" x="495.32" y="87"/><line style="stroke:#181818;stroke-width:0.5;" x1="495.32" x2="563.32" y1="112.6406" y2="112.6406"/><text fill="#000000" font-family="sans-serif" font-size="14" lengthAdjust="spacing" textLength="48" x="505.32" y="104.6738">Inactivo</text></g><g id="Explorando"><rect fill="#F1F1F1" height="50" rx="12.5" ry="12.5" style="stroke:#181818;stroke-width:0.5;" width="91" x="483.82" y="213"/><line style="stroke:#181818;stroke-width:0.5;" x1="483.82" x2="574.82" y1="238.6406" y2="238.6406"/><text fill="#000000" font-family="sans-serif" font-size="14" lengthAdjust="spacing" textLength="71" x="493.82" y="230.6738">Explorando</text></g><g id="Limpiando"><rect fill="#F1F1F1" height="50" rx="12.5" ry="12.5" style="stroke:#181818;stroke-width:0.5;" width="85" x="106.82" y="339"/><line style="stroke:#181818;stroke-width:0.5;" x1="106.82" x2="191.82" y1="364.6406" y2="364.6406"/><text fill="#000000" font-family="sans-serif" font-size="14" lengthAdjust="spacing" textLength="65" x="116.82" y="356.6738">Limpiando</text></g><g id="Evadiendo"><rect fill="#F1F1F1" height="50" rx="12.5" ry="12.5" style="stroke:#181818;stroke-width:0.5;" width="87" x="301.82" y="339"/><line style="stroke:#181818;stroke-width:0.5;" x1="301.82" x2="388.82" y1="364.6406" y2="364.6406"/><text fill="#000000" font-family="sans-serif" font-size="14" lengthAdjust="spacing" textLength="67" x="311.82" y="356.6738">Evadiendo</text></g><g id="EsperandoVaciado"><rect fill="#F1F1F1" height="50" rx="12.5" ry="12.5" style="stroke:#181818;stroke-width:0.5;" width="140" x="538.32" y="339"/><line style="stroke:#181818;stroke-width:0.5;" x1="538.32" x2="678.32" y1="364.6406" y2="364.6406"/><text fill="#000000" font-family="sans-serif" font-size="14" lengthAdjust="spacing" textLength="120" x="548.32" y="356.6738">EsperandoVaciado</text></g><g id="Movi&#233;ndoseARecarga"><rect fill="#F1F1F1" height="50" rx="12.5" ry="12.5" style="stroke:#181818;stroke-width:0.5;" width="159" x="737.82" y="339"/><line style="stroke:#181818;stroke-width:0.5;" x1="737.82" x2="896.82" y1="364.6406" y2="364.6406"/><text fill="#000000" font-family="sans-serif" font-size="14" lengthAdjust="spacing" textLength="139" x="747.82" y="356.6738">Movi&#233;ndoseARecarga</text></g><g id="Cargando"><rect fill="#F1F1F1" height="50" rx="12.5" ry="12.5" style="stroke:#181818;stroke-width:0.5;" width="83" x="850.82" y="465"/><line style="stroke:#181818;stroke-width:0.5;" x1="850.82" x2="933.82" y1="490.6406" y2="490.6406"/><text fill="#000000" font-family="sans-serif" font-size="14" lengthAdjust="spacing" textLength="63" x="860.82" y="482.6738">Cargando</text></g><!--link *start* to Inactivo--><g id="link_*start*_Inactivo"><path d="M529.32,26.01 C529.32,39.89 529.32,60.97 529.32,80.84 " fill="none" id="*start*-to-Inactivo" style="stroke:#181818;stroke-width:1.0;"/><polygon fill="#181818" points="529.32,86.84,533.32,77.84,529.32,81.84,525.32,77.84,529.32,86.84" style="stroke:#181818;stroke-width:1.0;"/></g><!--link Inactivo to Explorando--><g id="link_Inactivo_Explorando"><path d="M529.32,137.2 C529.32,159.05 529.32,185.03 529.32,206.86 " fill="none" id="Inactivo-to-Explorando" style="stroke:#181818;stroke-width:1.0;"/><polygon fill="#181818" points="529.32,212.86,533.32,203.86,529.32,207.86,525.32,203.86,529.32,212.86" style="stroke:#181818;stroke-width:1.0;"/><text fill="#000000" font-family="sans-serif" font-size="13" lengthAdjust="spacing" textLength="71" x="530.32" y="179.7686">"Encendido"</text></g><!--link Explorando to Limpiando--><g id="link_Explorando_Limpiando"><path d="M483.69,240.55 C366.54,245 62.21,259.69 32.32,293 C6,322.33 57.5926,341.6509 100.9526,352.6009 " fill="none" id="Explorando-to-Limpiando" style="stroke:#181818;stroke-width:1.0;"/><polygon fill="#181818" points="106.77,354.07,99.0234,347.9881,101.9222,352.8458,97.0646,355.7446,106.77,354.07" style="stroke:#181818;stroke-width:1.0;"/><text fill="#000000" font-family="sans-serif" font-size="13" lengthAdjust="spacing" textLength="111" x="33.32" y="305.7686">"Detecta suciedad"</text></g><!--link Limpiando to Explorando--><g id="link_Limpiando_Explorando"><path d="M165.12,338.69 C176.58,323.1 193.52,303.81 213.32,293 C259.18,267.97 401.7689,251.1981 477.7189,243.7181 " fill="none" id="Limpiando-to-Explorando" style="stroke:#181818;stroke-width:1.0;"/><polygon fill="#181818" points="483.69,243.13,474.3413,240.0314,478.7141,243.6201,475.1254,247.9928,483.69,243.13" style="stroke:#181818;stroke-width:1.0;"/><text fill="#000000" font-family="sans-serif" font-size="13" lengthAdjust="spacing" textLength="76" x="214.32" y="305.7686">"Zona limpia"</text></g><!--link Explorando to Evadiendo--><g id="link_Explorando_Evadiendo"><path d="M483.6,243.33 C424.17,250.02 325.34,265.09 303.32,293 C292.08,307.24 298.4366,320.4004 311.7466,334.3404 " fill="none" id="Explorando-to-Evadiendo" style="stroke:#181818;stroke-width:1.0;"/><polygon fill="#181818" points="315.89,338.68,312.5679,329.4084,312.4371,335.0637,306.7818,334.9329,315.89,338.68" style="stroke:#181818;stroke-width:1.0;"/><text fill="#000000" font-family="sans-serif" font-size="13" lengthAdjust="spacing" textLength="115" x="304.32" y="305.7686">"Detecta obst&#225;culo"</text></g><!--link Evadiendo to Explorando--><g id="link_Evadiendo_Explorando"><path d="M381.14,338.86 C413.54,317.03 456.0145,288.4033 488.4345,266.5533 " fill="none" id="Evadiendo-to-Explorando" style="stroke:#181818;stroke-width:1.0;"/><polygon fill="#181818" points="493.41,263.2,483.7113,264.913,489.2638,265.9944,488.1823,271.5469,493.41,263.2" style="stroke:#181818;stroke-width:1.0;"/><text fill="#000000" font-family="sans-serif" font-size="13" lengthAdjust="spacing" textLength="91" x="450.32" y="305.7686">"Nuevo camino"</text></g><!--link Explorando to EsperandoVaciado--><g id="link_Explorando_EsperandoVaciado"><path d="M544.74,263.2 C558.66,285.05 575.8057,311.9699 589.7157,333.7999 " fill="none" id="Explorando-to-EsperandoVaciado" style="stroke:#181818;stroke-width:1.0;"/><polygon fill="#181818" points="592.94,338.86,591.477,329.1204,590.2531,334.6433,584.7302,333.4194,592.94,338.86" style="stroke:#181818;stroke-width:1.0;"/><text fill="#000000" font-family="sans-serif" font-size="13" lengthAdjust="spacing" textLength="74" x="575.32" y="305.7686">"Bolsa llena"</text></g><!--link EsperandoVaciado to Explorando--><g id="link_EsperandoVaciado_Explorando"><path d="M642.32,338.98 C656.98,325.6 668.66,308.54 658.32,293 C639.89,265.31 610.0928,253.1107 580.9328,246.5307 " fill="none" id="EsperandoVaciado-to-Explorando" style="stroke:#181818;stroke-width:1.0;"/><polygon fill="#181818" points="575.08,245.21,582.9788,251.0929,579.9574,246.3106,584.7397,243.2892,575.08,245.21" style="stroke:#181818;stroke-width:1.0;"/><text fill="#000000" font-family="sans-serif" font-size="13" lengthAdjust="spacing" textLength="76" x="663.32" y="305.7686">"Bolsa vac&#237;a"</text></g><!--link Explorando to Movi?ndoseARecarga--><g id="link_Explorando_Movi&#233;ndoseARecarga"><path d="M575.2,242.96 C621.48,248.59 693.69,261.92 748.32,293 C768.49,304.47 782.893,318.8807 795.533,334.2107 " fill="none" id="Explorando-to-Movi&#233;ndoseARecarga" style="stroke:#181818;stroke-width:1.0;"/><polygon fill="#181818" points="799.35,338.84,796.7107,329.3514,796.1692,334.9822,790.5383,334.4407,799.35,338.84" style="stroke:#181818;stroke-width:1.0;"/><text fill="#000000" font-family="sans-serif" font-size="13" lengthAdjust="spacing" textLength="79" x="771.32" y="305.7686">"Bater&#237;a baja"</text></g><!--link Movi?ndoseARecarga to Cargando--><g id="link_Movi&#233;ndoseARecarga_Cargando"><path d="M804.08,389.29 C798.29,403.38 794.42,421.05 802.32,435 C812.73,453.39 826.757,463.664 844.917,472.174 " fill="none" id="Movi&#233;ndoseARecarga-to-Cargando" style="stroke:#181818;stroke-width:1.0;"/><polygon fill="#181818" points="850.35,474.72,843.8978,467.279,845.8225,472.5983,840.5031,474.523,850.35,474.72" style="stroke:#181818;stroke-width:1.0;"/><text fill="#000000" font-family="sans-serif" font-size="13" lengthAdjust="spacing" textLength="149" x="803.32" y="431.7686">"Llega a zona de recarga"</text></g><!--link Cargando to Explorando--><g id="link_Cargando_Explorando"><path d="M932.47,464.86 C942.44,456.72 951.84,446.69 957.32,435 C960.34,428.56 959.06,425.9 957.32,419 C940,350.2 923.83,322.53 859.32,293 C764.7,249.68 646.7983,240.6941 581.0083,239.1141 " fill="none" id="Cargando-to-Explorando" style="stroke:#181818;stroke-width:1.0;"/><polygon fill="#181818" points="575.01,238.97,583.9114,243.1849,580.0086,239.09,584.1034,235.1872,575.01,238.97" style="stroke:#181818;stroke-width:1.0;"/><text fill="#000000" font-family="sans-serif" font-size="13" lengthAdjust="spacing" textLength="101" x="950.32" y="368.7686">"Bater&#237;a cargada"</text></g><!--SRC=[RP0zJiGm48LxdsBa4calG874GWgaXOA2OX75x7Y41dazKUn4YDjGKd2AN0pR8GlQf9kVxxrvzlF52smsLt0Na98CQinSrN7ptdhjC3Y5Ix1D80vEd5hpRr6udHnRcR5RJam98VOaxD1PyxTUckur8FWAM7FksmpeXCzyzH3J-4czBpbEmDBveUVy3CAZ15snZYtNxWb9S59irSSSndF8MHR0yiB43qZZzqhuUnra_CfTvEj79knUiOemSPS5SC2th5gZYlgcLBztTfxp5E6Z_9LZw2REcXEqacq-Kr6NuHy0]--></g></svg>