<svg xmlns="http://www.w3.org/2000/svg" xmlns:xlink="http://www.w3.org/1999/xlink" contentStyleType="text/css" data-diagram-type="CLASS" height="518px" preserveAspectRatio="none" style="width:818px;height:518px;background:#FFFFFF;" version="1.1" viewBox="0 0 818 518" width="818px" zoomAndPan="magnify"><defs/><g><!--cluster JuegoVampiro2--><g class="cluster" data-entity="JuegoVampiro2" data-source-line="2" data-uid="ent0004" id="cluster_JuegoVampiro2"><path d="M8.5,6 L129.7646,6 A3.75,3.75 0 0 1 132.2646,8.5 L139.2646,28.2969 L808.5,28.2969 A2.5,2.5 0 0 1 811,30.7969 L811,508.5 A2.5,2.5 0 0 1 808.5,511 L8.5,511 A2.5,2.5 0 0 1 6,508.5 L6,8.5 A2.5,2.5 0 0 1 8.5,6" fill="none" style="stroke:#000000;stroke-width:1.5;"/><line style="stroke:#000000;stroke-width:1.5;" x1="6" x2="139.2646" y1="28.2969" y2="28.2969"/><text fill="#000000" font-family="sans-serif" font-size="14" font-weight="bold" lengthAdjust="spacing" textLength="120.2646" x="10" y="20.9951">JuegoVampiro2</text></g><!--cluster auth--><g class="cluster" data-entity="auth" data-source-line="1" data-uid="ent0002" id="cluster_auth"><path d="M424.5,157 L461.5732,157 A3.75,3.75 0 0 1 464.0732,159.5 L471.0732,179.2969 L591.5,179.2969 A2.5,2.5 0 0 1 594,181.7969 L594,253.5 A2.5,2.5 0 0 1 591.5,256 L424.5,256 A2.5,2.5 0 0 1 422,253.5 L422,159.5 A2.5,2.5 0 0 1 424.5,157" fill="none" style="stroke:#000000;stroke-width:1.5;"/><line style="stroke:#000000;stroke-width:1.5;" x1="422" x2="471.0732" y1="179.2969" y2="179.2969"/><text fill="#000000" font-family="sans-serif" font-size="14" font-weight="bold" lengthAdjust="spacing" textLength="36.0732" x="426" y="171.9951">auth</text></g><!--cluster core--><g class="cluster" data-entity="core" data-source-line="5" data-uid="ent0005" id="cluster_core"><path d="M32.5,49 L67.8164,49 A3.75,3.75 0 0 1 70.3164,51.5 L77.3164,71.2969 L395.5,71.2969 A2.5,2.5 0 0 1 398,73.7969 L398,484.5 A2.5,2.5 0 0 1 395.5,487 L32.5,487 A2.5,2.5 0 0 1 30,484.5 L30,51.5 A2.5,2.5 0 0 1 32.5,49" fill="none" style="stroke:#000000;stroke-width:1.5;"/><line style="stroke:#000000;stroke-width:1.5;" x1="30" x2="77.3164" y1="71.2969" y2="71.2969"/><text fill="#000000" font-family="sans-serif" font-size="14" font-weight="bold" lengthAdjust="spacing" textLength="34.3164" x="34" y="63.9951">core</text></g><!--cluster ui--><g class="cluster" data-entity="ui" data-source-line="17" data-uid="ent0015" id="cluster_ui"><path d="M424.5,280 L440.2656,280 A3.75,3.75 0 0 1 442.7656,282.5 L449.7656,302.2969 L784.5,302.2969 A2.5,2.5 0 0 1 787,304.7969 L787,376.5 A2.5,2.5 0 0 1 784.5,379 L424.5,379 A2.5,2.5 0 0 1 422,376.5 L422,282.5 A2.5,2.5 0 0 1 424.5,280" fill="none" style="stroke:#000000;stroke-width:1.5;"/><line style="stroke:#000000;stroke-width:1.5;" x1="422" x2="449.7656" y1="302.2969" y2="302.2969"/><text fill="#000000" font-family="sans-serif" font-size="14" font-weight="bold" lengthAdjust="spacing" textLength="14.7656" x="426" y="294.9951">ui</text></g><!--class GestorUsuarios--><g class="entity" data-entity="GestorUsuarios" data-source-line="2" data-uid="ent0003" id="entity_GestorUsuarios"><rect fill="#F1F1F1" height="48" rx="2.5" ry="2.5" style="stroke:#181818;stroke-width:0.5;" width="139.0645" x="438.47" y="192"/><ellipse cx="453.47" cy="208" fill="#ADD1B2" rx="11" ry="11" style="stroke:#181818;stroke-width:1;"/><path d="M456.4388,213.6406 Q455.8606,213.9375 455.22,214.0781 Q454.5794,214.2344 453.8763,214.2344 Q451.3763,214.2344 450.0481,212.5938 Q448.7356,210.9375 448.7356,207.8125 Q448.7356,204.6875 450.0481,203.0313 Q451.3763,201.375 453.8763,201.375 Q454.5794,201.375 455.22,201.5313 Q455.8763,201.6875 456.4388,201.9844 L456.4388,204.7031 Q455.8138,204.125 455.22,203.8594 Q454.6263,203.5781 454.0013,203.5781 Q452.6575,203.5781 451.97,204.6563 Q451.2825,205.7188 451.2825,207.8125 Q451.2825,209.9063 451.97,210.9844 Q452.6575,212.0469 454.0013,212.0469 Q454.6263,212.0469 455.22,211.7813 Q455.8138,211.5 456.4388,210.9219 L456.4388,213.6406 Z " fill="#000000"/><text fill="#000000" font-family="sans-serif" font-size="14" lengthAdjust="spacing" textLength="107.0645" x="467.47" y="212.8467">GestorUsuarios</text><line style="stroke:#181818;stroke-width:0.5;" x1="439.47" x2="576.5345" y1="224" y2="224"/><line style="stroke:#181818;stroke-width:0.5;" x1="439.47" x2="576.5345" y1="232" y2="232"/></g><!--class Personaje--><g class="entity" data-entity="Personaje" data-source-line="6" data-uid="ent0006" id="entity_Personaje"><rect fill="#F1F1F1" height="48" rx="2.5" ry="2.5" style="stroke:#181818;stroke-width:0.5;" width="100.626" x="97.69" y="192"/><ellipse cx="112.69" cy="208" fill="#A9DCDF" rx="11" ry="11" style="stroke:#181818;stroke-width:1;"/><path d="M112.7994,203.3438 L111.6431,208.4219 L113.9713,208.4219 L112.7994,203.3438 Z M111.315,201.1094 L114.2994,201.1094 L117.6588,213.5 L115.2056,213.5 L114.44,210.4375 L111.1588,210.4375 L110.4088,213.5 L107.9713,213.5 L111.315,201.1094 Z " fill="#000000"/><text fill="#000000" font-family="sans-serif" font-size="14" font-style="italic" lengthAdjust="spacing" textLength="68.626" x="126.69" y="212.8467">Personaje</text><line style="stroke:#181818;stroke-width:0.5;" x1="98.69" x2="197.316" y1="224" y2="224"/><line style="stroke:#181818;stroke-width:0.5;" x1="98.69" x2="197.316" y1="232" y2="232"/></g><!--class Ataque--><g class="entity" data-entity="Ataque" data-source-line="7" data-uid="ent0007" id="entity_Ataque"><rect fill="#F1F1F1" height="48" rx="2.5" ry="2.5" style="stroke:#181818;stroke-width:0.5;" width="82.0186" x="174.99" y="315"/><ellipse cx="189.99" cy="331" fill="#A9DCDF" rx="11" ry="11" style="stroke:#181818;stroke-width:1;"/><path d="M190.0994,326.3438 L188.9431,331.4219 L191.2713,331.4219 L190.0994,326.3438 Z M188.615,324.1094 L191.5994,324.1094 L194.9588,336.5 L192.5056,336.5 L191.74,333.4375 L188.4588,333.4375 L187.7088,336.5 L185.2713,336.5 L188.615,324.1094 Z " fill="#000000"/><text fill="#000000" font-family="sans-serif" font-size="14" font-style="italic" lengthAdjust="spacing" textLength="50.0186" x="203.99" y="335.8467">Ataque</text><line style="stroke:#181818;stroke-width:0.5;" x1="175.99" x2="256.0086" y1="347" y2="347"/><line style="stroke:#181818;stroke-width:0.5;" x1="175.99" x2="256.0086" y1="355" y2="355"/></g><!--class Arma--><g class="entity" data-entity="Arma" data-source-line="8" data-uid="ent0008" id="entity_Arma"><rect fill="#F1F1F1" height="48" rx="2.5" ry="2.5" style="stroke:#181818;stroke-width:0.5;" width="69.5498" x="174.23" y="423"/><ellipse cx="189.23" cy="439" fill="#ADD1B2" rx="11" ry="11" style="stroke:#181818;stroke-width:1;"/><path d="M192.1988,444.6406 Q191.6206,444.9375 190.98,445.0781 Q190.3394,445.2344 189.6363,445.2344 Q187.1363,445.2344 185.8081,443.5938 Q184.4956,441.9375 184.4956,438.8125 Q184.4956,435.6875 185.8081,434.0313 Q187.1363,432.375 189.6363,432.375 Q190.3394,432.375 190.98,432.5313 Q191.6363,432.6875 192.1988,432.9844 L192.1988,435.7031 Q191.5738,435.125 190.98,434.8594 Q190.3863,434.5781 189.7613,434.5781 Q188.4175,434.5781 187.73,435.6563 Q187.0425,436.7188 187.0425,438.8125 Q187.0425,440.9063 187.73,441.9844 Q188.4175,443.0469 189.7613,443.0469 Q190.3863,443.0469 190.98,442.7813 Q191.5738,442.5 192.1988,441.9219 L192.1988,444.6406 Z " fill="#000000"/><text fill="#000000" font-family="sans-serif" font-size="14" lengthAdjust="spacing" textLength="37.5498" x="203.23" y="443.8467">Arma</text><line style="stroke:#181818;stroke-width:0.5;" x1="175.23" x2="242.7798" y1="455" y2="455"/><line style="stroke:#181818;stroke-width:0.5;" x1="175.23" x2="242.7798" y1="463" y2="463"/></g><!--class Mordida--><g class="entity" data-entity="Mordida" data-source-line="9" data-uid="ent0009" id="entity_Mordida"><rect fill="#F1F1F1" height="48" rx="2.5" ry="2.5" style="stroke:#181818;stroke-width:0.5;" width="88.6426" x="285.68" y="423"/><ellipse cx="300.68" cy="439" fill="#ADD1B2" rx="11" ry="11" style="stroke:#181818;stroke-width:1;"/><path d="M303.6488,444.6406 Q303.0706,444.9375 302.43,445.0781 Q301.7894,445.2344 301.0863,445.2344 Q298.5863,445.2344 297.2581,443.5938 Q295.9456,441.9375 295.9456,438.8125 Q295.9456,435.6875 297.2581,434.0313 Q298.5863,432.375 301.0863,432.375 Q301.7894,432.375 302.43,432.5313 Q303.0863,432.6875 303.6488,432.9844 L303.6488,435.7031 Q303.0238,435.125 302.43,434.8594 Q301.8363,434.5781 301.2113,434.5781 Q299.8675,434.5781 299.18,435.6563 Q298.4925,436.7188 298.4925,438.8125 Q298.4925,440.9063 299.18,441.9844 Q299.8675,443.0469 301.2113,443.0469 Q301.8363,443.0469 302.43,442.7813 Q303.0238,442.5 303.6488,441.9219 L303.6488,444.6406 Z " fill="#000000"/><text fill="#000000" font-family="sans-serif" font-size="14" lengthAdjust="spacing" textLength="56.6426" x="314.68" y="443.8467">Mordida</text><line style="stroke:#181818;stroke-width:0.5;" x1="286.68" x2="373.3226" y1="455" y2="455"/><line style="stroke:#181818;stroke-width:0.5;" x1="286.68" x2="373.3226" y1="463" y2="463"/></g><!--class Pocion--><g class="entity" data-entity="Pocion" data-source-line="10" data-uid="ent0010" id="entity_Pocion"><rect fill="#F1F1F1" height="48" rx="2.5" ry="2.5" style="stroke:#181818;stroke-width:0.5;" width="78.0332" x="53.98" y="423"/><ellipse cx="68.98" cy="439" fill="#ADD1B2" rx="11" ry="11" style="stroke:#181818;stroke-width:1;"/><path d="M71.9487,444.6406 Q71.3706,444.9375 70.73,445.0781 Q70.0894,445.2344 69.3862,445.2344 Q66.8862,445.2344 65.5581,443.5938 Q64.2456,441.9375 64.2456,438.8125 Q64.2456,435.6875 65.5581,434.0313 Q66.8862,432.375 69.3862,432.375 Q70.0894,432.375 70.73,432.5313 Q71.3862,432.6875 71.9487,432.9844 L71.9487,435.7031 Q71.3237,435.125 70.73,434.8594 Q70.1362,434.5781 69.5112,434.5781 Q68.1675,434.5781 67.48,435.6563 Q66.7925,436.7188 66.7925,438.8125 Q66.7925,440.9063 67.48,441.9844 Q68.1675,443.0469 69.5112,443.0469 Q70.1362,443.0469 70.73,442.7813 Q71.3237,442.5 71.9487,441.9219 L71.9487,444.6406 Z " fill="#000000"/><text fill="#000000" font-family="sans-serif" font-size="14" lengthAdjust="spacing" textLength="46.0332" x="82.98" y="443.8467">Pocion</text><line style="stroke:#181818;stroke-width:0.5;" x1="54.98" x2="131.0132" y1="455" y2="455"/><line style="stroke:#181818;stroke-width:0.5;" x1="54.98" x2="131.0132" y1="463" y2="463"/></g><!--class Guerrero--><g class="entity" data-entity="Guerrero" data-source-line="11" data-uid="ent0011" id="entity_Guerrero"><rect fill="#F1F1F1" height="48" rx="2.5" ry="2.5" style="stroke:#181818;stroke-width:0.5;" width="94.7813" x="45.61" y="315"/><ellipse cx="60.61" cy="331" fill="#ADD1B2" rx="11" ry="11" style="stroke:#181818;stroke-width:1;"/><path d="M63.5788,336.6406 Q63.0006,336.9375 62.36,337.0781 Q61.7194,337.2344 61.0163,337.2344 Q58.5163,337.2344 57.1881,335.5938 Q55.8756,333.9375 55.8756,330.8125 Q55.8756,327.6875 57.1881,326.0313 Q58.5163,324.375 61.0163,324.375 Q61.7194,324.375 62.36,324.5313 Q63.0163,324.6875 63.5788,324.9844 L63.5788,327.7031 Q62.9538,327.125 62.36,326.8594 Q61.7663,326.5781 61.1413,326.5781 Q59.7975,326.5781 59.11,327.6563 Q58.4225,328.7188 58.4225,330.8125 Q58.4225,332.9063 59.11,333.9844 Q59.7975,335.0469 61.1413,335.0469 Q61.7663,335.0469 62.36,334.7813 Q62.9538,334.5 63.5788,333.9219 L63.5788,336.6406 Z " fill="#000000"/><text fill="#000000" font-family="sans-serif" font-size="14" lengthAdjust="spacing" textLength="62.7813" x="74.61" y="335.8467">Guerrero</text><line style="stroke:#181818;stroke-width:0.5;" x1="46.61" x2="139.3913" y1="347" y2="347"/><line style="stroke:#181818;stroke-width:0.5;" x1="46.61" x2="139.3913" y1="355" y2="355"/></g><!--class Vampiro--><g class="entity" data-entity="Vampiro" data-source-line="12" data-uid="ent0012" id="entity_Vampiro"><rect fill="#F1F1F1" height="48" rx="2.5" ry="2.5" style="stroke:#181818;stroke-width:0.5;" width="90.8916" x="291.55" y="315"/><ellipse cx="306.55" cy="331" fill="#ADD1B2" rx="11" ry="11" style="stroke:#181818;stroke-width:1;"/><path d="M309.5188,336.6406 Q308.9406,336.9375 308.3,337.0781 Q307.6594,337.2344 306.9563,337.2344 Q304.4563,337.2344 303.1281,335.5938 Q301.8156,333.9375 301.8156,330.8125 Q301.8156,327.6875 303.1281,326.0313 Q304.4563,324.375 306.9563,324.375 Q307.6594,324.375 308.3,324.5313 Q308.9563,324.6875 309.5188,324.9844 L309.5188,327.7031 Q308.8938,327.125 308.3,326.8594 Q307.7063,326.5781 307.0813,326.5781 Q305.7375,326.5781 305.05,327.6563 Q304.3625,328.7188 304.3625,330.8125 Q304.3625,332.9063 305.05,333.9844 Q305.7375,335.0469 307.0813,335.0469 Q307.7063,335.0469 308.3,334.7813 Q308.8938,334.5 309.5188,333.9219 L309.5188,336.6406 Z " fill="#000000"/><text fill="#000000" font-family="sans-serif" font-size="14" lengthAdjust="spacing" textLength="58.8916" x="320.55" y="335.8467">Vampiro</text><line style="stroke:#181818;stroke-width:0.5;" x1="292.55" x2="381.4416" y1="347" y2="347"/><line style="stroke:#181818;stroke-width:0.5;" x1="292.55" x2="381.4416" y1="355" y2="355"/></g><!--class Batalla--><g class="entity" data-entity="Batalla" data-source-line="13" data-uid="ent0013" id="entity_Batalla"><rect fill="#F1F1F1" height="48" rx="2.5" ry="2.5" style="stroke:#181818;stroke-width:0.5;" width="80.6104" x="284.69" y="192"/><ellipse cx="299.69" cy="208" fill="#ADD1B2" rx="11" ry="11" style="stroke:#181818;stroke-width:1;"/><path d="M302.6588,213.6406 Q302.0806,213.9375 301.44,214.0781 Q300.7994,214.2344 300.0963,214.2344 Q297.5963,214.2344 296.2681,212.5938 Q294.9556,210.9375 294.9556,207.8125 Q294.9556,204.6875 296.2681,203.0313 Q297.5963,201.375 300.0963,201.375 Q300.7994,201.375 301.44,201.5313 Q302.0963,201.6875 302.6588,201.9844 L302.6588,204.7031 Q302.0338,204.125 301.44,203.8594 Q300.8463,203.5781 300.2213,203.5781 Q298.8775,203.5781 298.19,204.6563 Q297.5025,205.7188 297.5025,207.8125 Q297.5025,209.9063 298.19,210.9844 Q298.8775,212.0469 300.2213,212.0469 Q300.8463,212.0469 301.44,211.7813 Q302.0338,211.5 302.6588,210.9219 L302.6588,213.6406 Z " fill="#000000"/><text fill="#000000" font-family="sans-serif" font-size="14" lengthAdjust="spacing" textLength="48.6104" x="313.69" y="212.8467">Batalla</text><line style="stroke:#181818;stroke-width:0.5;" x1="285.69" x2="364.3004" y1="224" y2="224"/><line style="stroke:#181818;stroke-width:0.5;" x1="285.69" x2="364.3004" y1="232" y2="232"/></g><!--class JuegoVampiros--><g class="entity" data-entity="JuegoVampiros" data-source-line="14" data-uid="ent0014" id="entity_JuegoVampiros"><rect fill="#F1F1F1" height="48" rx="2.5" ry="2.5" style="stroke:#181818;stroke-width:0.5;" width="137.2529" x="244.37" y="84"/><ellipse cx="259.37" cy="100" fill="#ADD1B2" rx="11" ry="11" style="stroke:#181818;stroke-width:1;"/><path d="M262.3388,105.6406 Q261.7606,105.9375 261.12,106.0781 Q260.4794,106.2344 259.7763,106.2344 Q257.2763,106.2344 255.9481,104.5938 Q254.6356,102.9375 254.6356,99.8125 Q254.6356,96.6875 255.9481,95.0313 Q257.2763,93.375 259.7763,93.375 Q260.4794,93.375 261.12,93.5313 Q261.7763,93.6875 262.3388,93.9844 L262.3388,96.7031 Q261.7138,96.125 261.12,95.8594 Q260.5263,95.5781 259.9013,95.5781 Q258.5575,95.5781 257.87,96.6563 Q257.1825,97.7188 257.1825,99.8125 Q257.1825,101.9063 257.87,102.9844 Q258.5575,104.0469 259.9013,104.0469 Q260.5263,104.0469 261.12,103.7813 Q261.7138,103.5 262.3388,102.9219 L262.3388,105.6406 Z " fill="#000000"/><text fill="#000000" font-family="sans-serif" font-size="14" lengthAdjust="spacing" textLength="105.2529" x="273.37" y="104.8467">JuegoVampiros</text><line style="stroke:#181818;stroke-width:0.5;" x1="245.37" x2="380.6229" y1="116" y2="116"/><line style="stroke:#181818;stroke-width:0.5;" x1="245.37" x2="380.6229" y1="124" y2="124"/></g><!--class CredencialesUsuario--><g class="entity" data-entity="CredencialesUsuario" data-source-line="18" data-uid="ent0016" id="entity_CredencialesUsuario"><rect fill="#F1F1F1" height="48" rx="2.5" ry="2.5" style="stroke:#181818;stroke-width:0.5;" width="175.6846" x="438.16" y="315"/><ellipse cx="453.16" cy="331" fill="#ADD1B2" rx="11" ry="11" style="stroke:#181818;stroke-width:1;"/><path d="M456.1288,336.6406 Q455.5506,336.9375 454.91,337.0781 Q454.2694,337.2344 453.5663,337.2344 Q451.0663,337.2344 449.7381,335.5938 Q448.4256,333.9375 448.4256,330.8125 Q448.4256,327.6875 449.7381,326.0313 Q451.0663,324.375 453.5663,324.375 Q454.2694,324.375 454.91,324.5313 Q455.5663,324.6875 456.1288,324.9844 L456.1288,327.7031 Q455.5038,327.125 454.91,326.8594 Q454.3163,326.5781 453.6913,326.5781 Q452.3475,326.5781 451.66,327.6563 Q450.9725,328.7188 450.9725,330.8125 Q450.9725,332.9063 451.66,333.9844 Q452.3475,335.0469 453.6913,335.0469 Q454.3163,335.0469 454.91,334.7813 Q455.5038,334.5 456.1288,333.9219 L456.1288,336.6406 Z " fill="#000000"/><text fill="#000000" font-family="sans-serif" font-size="14" lengthAdjust="spacing" textLength="143.6846" x="467.16" y="335.8467">CredencialesUsuario</text><line style="stroke:#181818;stroke-width:0.5;" x1="439.16" x2="612.8446" y1="347" y2="347"/><line style="stroke:#181818;stroke-width:0.5;" x1="439.16" x2="612.8446" y1="355" y2="355"/></g><!--class VistaConsola--><g class="entity" data-entity="VistaConsola" data-source-line="19" data-uid="ent0017" id="entity_VistaConsola"><rect fill="#F1F1F1" height="48" rx="2.5" ry="2.5" style="stroke:#181818;stroke-width:0.5;" width="122.3711" x="648.81" y="315"/><ellipse cx="663.81" cy="331" fill="#ADD1B2" rx="11" ry="11" style="stroke:#181818;stroke-width:1;"/><path d="M666.7788,336.6406 Q666.2006,336.9375 665.56,337.0781 Q664.9194,337.2344 664.2163,337.2344 Q661.7163,337.2344 660.3881,335.5938 Q659.0756,333.9375 659.0756,330.8125 Q659.0756,327.6875 660.3881,326.0313 Q661.7163,324.375 664.2163,324.375 Q664.9194,324.375 665.56,324.5313 Q666.2163,324.6875 666.7788,324.9844 L666.7788,327.7031 Q666.1538,327.125 665.56,326.8594 Q664.9663,326.5781 664.3413,326.5781 Q662.9975,326.5781 662.31,327.6563 Q661.6225,328.7188 661.6225,330.8125 Q661.6225,332.9063 662.31,333.9844 Q662.9975,335.0469 664.3413,335.0469 Q664.9663,335.0469 665.56,334.7813 Q666.1538,334.5 666.7788,333.9219 L666.7788,336.6406 Z " fill="#000000"/><text fill="#000000" font-family="sans-serif" font-size="14" lengthAdjust="spacing" textLength="90.3711" x="677.81" y="335.8467">VistaConsola</text><line style="stroke:#181818;stroke-width:0.5;" x1="649.81" x2="770.1811" y1="347" y2="347"/><line style="stroke:#181818;stroke-width:0.5;" x1="649.81" x2="770.1811" y1="355" y2="355"/></g><!--reverse link Ataque to Arma--><g class="link" data-entity-1="Ataque" data-entity-2="Arma" data-source-line="23" data-uid="lnk18" id="link_Ataque_Arma"><path codeLine="23" d="M213.2815,381.2214 C212.1215,398.9014 211.7,405.13 210.53,422.79" fill="none" id="Ataque-backto-Arma" style="stroke:#181818;stroke-width:1;"/><polygon fill="none" points="214.46,363.26,207.2944,380.8286,219.2687,381.6142,214.46,363.26" style="stroke:#181818;stroke-width:1;"/></g><!--reverse link Ataque to Mordida--><g class="link" data-entity-1="Ataque" data-entity-2="Mordida" data-source-line="24" data-uid="lnk19" id="link_Ataque_Mordida"><path codeLine="24" d="M254.2006,375.5185 C273.2106,393.1985 286.05,405.13 305.04,422.79" fill="none" id="Ataque-backto-Mordida" style="stroke:#181818;stroke-width:1;"/><polygon fill="none" points="241.02,363.26,250.1145,379.912,258.2868,371.1249,241.02,363.26" style="stroke:#181818;stroke-width:1;"/></g><!--reverse link Personaje to Guerrero--><g class="link" data-entity-1="Personaje" data-entity-2="Guerrero" data-source-line="25" data-uid="lnk20" id="link_Personaje_Guerrero"><path codeLine="25" d="M129.9521,256.7169 C120.2121,278.1469 113.3,293.34 103.57,314.74" fill="none" id="Personaje-backto-Guerrero" style="stroke:#181818;stroke-width:1;"/><polygon fill="none" points="137.4,240.33,124.4898,254.2342,135.4144,259.1995,137.4,240.33" style="stroke:#181818;stroke-width:1;"/></g><!--reverse link Personaje to Vampiro--><g class="link" data-entity-1="Personaje" data-entity-2="Vampiro" data-source-line="26" data-uid="lnk21" id="link_Personaje_Vampiro"><path codeLine="26" d="M215.5347,239.8975 C239.8347,249.1375 251.8,255.7 275,272 C291.85,283.84 307.69,300.85 319.14,314.63" fill="none" id="Personaje-backto-Vampiro" style="stroke:#181818;stroke-width:1;"/><polygon fill="none" points="198.71,233.5,213.4022,245.5058,217.6672,234.2893,198.71,233.5" style="stroke:#181818;stroke-width:1;"/></g><!--link JuegoVampiros to GestorUsuarios--><g class="link" data-entity-1="JuegoVampiros" data-entity-2="GestorUsuarios" data-source-line="29" data-uid="lnk22" id="link_JuegoVampiros_GestorUsuarios"><path codeLine="29" d="M364.65,132.29 C375.76,137.58 387.35,143.32 398,149 C422.86,162.26 444.9093,175.3705 466.0093,188.4405" fill="none" id="JuegoVampiros-to-GestorUsuarios" style="stroke:#181818;stroke-width:1;"/><polygon fill="#181818" points="471.11,191.6,465.5653,183.4602,466.8594,188.967,461.3526,190.2612,471.11,191.6" style="stroke:#181818;stroke-width:1;"/></g><!--link JuegoVampiros to VistaConsola--><g class="link" data-entity-1="JuegoVampiros" data-entity-2="VistaConsola" data-source-line="30" data-uid="lnk23" id="link_JuegoVampiros_VistaConsola"><path codeLine="30" d="M382.05,112.15 C453.75,116.59 560.12,126.76 594,149 C655.15,189.14 687.5389,268.1158 701.1489,309.0958" fill="none" id="JuegoVampiros-to-VistaConsola" style="stroke:#181818;stroke-width:1;"/><polygon fill="#181818" points="703.04,314.79,703.9995,304.988,701.4641,310.0448,696.4072,307.5095,703.04,314.79" style="stroke:#181818;stroke-width:1;"/></g><!--link JuegoVampiros to Batalla--><g class="link" data-entity-1="JuegoVampiros" data-entity-2="Batalla" data-source-line="31" data-uid="lnk24" id="link_JuegoVampiros_Batalla"><path codeLine="31" d="M315.63,132.26 C317.63,149.94 319.6948,168.1681 321.6948,185.8281" fill="none" id="JuegoVampiros-to-Batalla" style="stroke:#181818;stroke-width:1;"/><polygon fill="#181818" points="322.37,191.79,325.3318,182.397,321.8073,186.8218,317.3826,183.2973,322.37,191.79" style="stroke:#181818;stroke-width:1;"/></g><!--link Batalla to Guerrero--><g class="link" data-entity-1="Batalla" data-entity-2="Guerrero" data-source-line="32" data-uid="lnk25" id="link_Batalla_Guerrero"><path codeLine="32" d="M284.3,237.69 C264.21,247.09 239.33,257.52 216,264 C190.5,271.08 180.62,260.07 157,272 C137.63,281.79 124.4687,295.0756 112.9287,309.8156" fill="none" id="Batalla-to-Guerrero" style="stroke:#181818;stroke-width:1;"/><polygon fill="#181818" points="109.23,314.54,117.9276,309.9193,112.3123,310.603,111.6285,304.9877,109.23,314.54" style="stroke:#181818;stroke-width:1;"/></g><!--link Batalla to Vampiro--><g class="link" data-entity-1="Batalla" data-entity-2="Vampiro" data-source-line="33" data-uid="lnk26" id="link_Batalla_Vampiro"><path codeLine="33" d="M327.31,240.33 C329.44,261.76 331.9785,287.3692 334.0985,308.7692" fill="none" id="Batalla-to-Vampiro" style="stroke:#181818;stroke-width:1;"/><polygon fill="#181818" points="334.69,314.74,337.7833,305.3895,334.1971,309.7644,329.8222,306.1782,334.69,314.74" style="stroke:#181818;stroke-width:1;"/></g><!--link Batalla to VistaConsola--><g class="link" data-entity-1="Batalla" data-entity-2="VistaConsola" data-source-line="34" data-uid="lnk27" id="link_Batalla_VistaConsola"><path codeLine="34" d="M363.71,240.31 C380.93,249.46 401.85,258.97 422,264 C467.09,275.26 587.62,255.32 631,272 C654.02,280.85 671.0165,295.0197 685.6265,310.1797" fill="none" id="Batalla-to-VistaConsola" style="stroke:#181818;stroke-width:1;"/><polygon fill="#181818" points="689.79,314.5,686.4249,305.2439,686.3204,310.8998,680.6645,310.7953,689.79,314.5" style="stroke:#181818;stroke-width:1;"/></g><!--link Guerrero to Arma--><g class="link" data-entity-1="Guerrero" data-entity-2="Arma" data-source-line="35" data-uid="lnk28" id="link_Guerrero_Arma"><path codeLine="35" d="M118.46,363.26 C137.8,380.94 159.8514,401.0819 179.1714,418.7419" fill="none" id="Guerrero-to-Arma" style="stroke:#181818;stroke-width:1;"/><polygon fill="#181818" points="183.6,422.79,179.6558,413.7654,179.9095,419.4166,174.2583,419.6702,183.6,422.79" style="stroke:#181818;stroke-width:1;"/></g><!--link Guerrero to Pocion--><g class="link" data-entity-1="Guerrero" data-entity-2="Pocion" data-source-line="36" data-uid="lnk29" id="link_Guerrero_Pocion"><path codeLine="36" d="M93,363.26 C93,380.94 93,399.13 93,416.79" fill="none" id="Guerrero-to-Pocion" style="stroke:#181818;stroke-width:1;"/><polygon fill="#181818" points="93,422.79,97,413.79,93,417.79,89,413.79,93,422.79" style="stroke:#181818;stroke-width:1;"/></g><!--link Vampiro to Mordida--><g class="link" data-entity-1="Vampiro" data-entity-2="Mordida" data-source-line="37" data-uid="lnk30" id="link_Vampiro_Mordida"><path codeLine="37" d="M335.46,363.26 C334.3,380.94 333.0966,399.1431 331.9266,416.8031" fill="none" id="Vampiro-to-Mordida" style="stroke:#181818;stroke-width:1;"/><polygon fill="#181818" points="331.53,422.79,336.1162,414.0741,331.8605,417.8009,328.1337,413.5453,331.53,422.79" style="stroke:#181818;stroke-width:1;"/></g><!--SRC=[VL4zJyCm4DtzAxmnXO4P8RKTa92GgafbFvnJQt1pxfqz0V-zQM9NvxR2I-HtkVVb2EuRTcZVCkxe0mxHCpqzGavx-sFiU5m04VkAaeYtae4zYVap9jvTTCHO5k5J4eDBXM6DB3J05zuRBX8SCogz1Hz0NT-9UzzhP4tEqw0TPcH69WKLLmfPGe8GD8-s_q-kx9iwLemz3iv3G2cbQ5ql2LOq28rI8-M3tM20iryKswFT8q_BPevjdt-xRawiWPhvKjmCNt9UuJLignRPZqhnxDCqKMtNlLo_wkqFJPBRSQspV6VEwa-3rLo3QUwwDKscAXgal7QXcQ1Ipma0]--></g></svg>