<svg xmlns="http://www.w3.org/2000/svg" xmlns:xlink="http://www.w3.org/1999/xlink" contentStyleType="text/css" data-diagram-type="STATE" height="1016px" preserveAspectRatio="none" style="width:1267px;height:1016px;background:#FFFFFF;" version="1.1" viewBox="0 0 1267 1016" width="1267px" zoomAndPan="magnify"><defs/><g><!--cluster ProcesoDeCompra--><g class="cluster" data-entity="ProcesoDeCompra" data-source-line="5" data-uid="ent0002" id="cluster_ProcesoDeCompra"><path d="M757.5,190 L981.5,190 A12.5,12.5 0 0 1 994,202.5 L994,211.2969 L745,211.2969 L745,202.5 A12.5,12.5 0 0 1 757.5,190 " fill="#F1F1F1" style="stroke:#F1F1F1;stroke-width:1;"/><rect fill="none" height="221" rx="12.5" ry="12.5" style="stroke:#181818;stroke-width:0.5;" width="249" x="745" y="190"/><line style="stroke:#181818;stroke-width:0.5;" x1="745" x2="994" y1="211.2969" y2="211.2969"/><text fill="#000000" font-family="sans-serif" font-size="14" lengthAdjust="spacing" textLength="129.5273" x="804.7363" y="206.9951">ProcesoDeCompra</text></g><!--cluster ProcesandoPago--><g class="cluster" data-entity="ProcesandoPago" data-source-line="11" data-uid="ent0003" id="cluster_ProcesandoPago"><path d="M19.5,328 L701.5,328 A12.5,12.5 0 0 1 714,340.5 L714,349.2969 L7,349.2969 L7,340.5 A12.5,12.5 0 0 1 19.5,328 " fill="#F1F1F1" style="stroke:#F1F1F1;stroke-width:1;"/><rect fill="none" height="493.5" rx="12.5" ry="12.5" style="stroke:#181818;stroke-width:0.5;" width="707" x="7" y="328"/><line style="stroke:#181818;stroke-width:0.5;" x1="7" x2="714" y1="349.2969" y2="349.2969"/><text fill="#000000" font-family="sans-serif" font-size="14" lengthAdjust="spacing" textLength="115.7461" x="302.627" y="344.9951">ProcesandoPago</text></g><rect fill="#F1F1F1" height="40" rx="12.5" ry="12.5" style="stroke:#181818;stroke-width:0.5;" width="176.7695" x="760.62" y="225"/><text fill="#000000" font-family="sans-serif" font-size="14" lengthAdjust="spacing" textLength="166.7695" x="765.62" y="249.8467">IngresandoCodigoCelda</text><rect fill="#F1F1F1" height="40" rx="12.5" ry="12.5" style="stroke:#181818;stroke-width:0.5;" width="172.7979" x="760.6" y="355"/><text fill="#000000" font-family="sans-serif" font-size="14" lengthAdjust="spacing" textLength="162.7979" x="765.6" y="379.8467">EligiendoFormaDePago</text><g class="entity" data-entity="verificandoFondos" data-uid="ent0004" id="entity_verificandoFondos"><polygon fill="#F1F1F1" points="463,591,475,603,463,615,451,603,463,591" style="stroke:#181818;stroke-width:0.5;"/></g><g class="entity" data-entity="verificandoEfectivo" data-uid="ent0005" id="entity_verificandoEfectivo"><polygon fill="#F1F1F1" points="214,363,226,375,214,387,202,375,214,363" style="stroke:#181818;stroke-width:0.5;"/></g><rect fill="#555555" height="8" style="stroke:none;stroke-width:1;" width="80" x="72" y="599"/><rect fill="#555555" height="8" style="stroke:none;stroke-width:1;" width="80" x="150" y="797.5"/><rect fill="#F1F1F1" height="40" rx="12.5" ry="12.5" style="stroke:#181818;stroke-width:0.5;" width="127.127" x="239.44" y="474"/><text fill="#000000" font-family="sans-serif" font-size="14" lengthAdjust="spacing" textLength="117.127" x="244.44" y="498.8467">PagandoEfectivo</text><rect fill="#F1F1F1" height="40" rx="12.5" ry="12.5" style="stroke:#181818;stroke-width:0.5;" width="140.7646" x="401.62" y="474"/><text fill="#000000" font-family="sans-serif" font-size="14" lengthAdjust="spacing" textLength="130.7646" x="406.62" y="498.8467">PagandoMonedero</text><rect fill="#F1F1F1" height="40" rx="12.5" ry="12.5" style="stroke:#181818;stroke-width:0.5;" width="120.2705" x="577.86" y="474"/><text fill="#000000" font-family="sans-serif" font-size="14" lengthAdjust="spacing" textLength="110.2705" x="582.86" y="498.8467">PagandoTarjeta</text><rect fill="#F1F1F1" height="40" rx="12.5" ry="12.5" style="stroke:#181818;stroke-width:0.5;" width="95.4082" x="219.3" y="692"/><text fill="#000000" font-family="sans-serif" font-size="14" lengthAdjust="spacing" textLength="85.4082" x="224.3" y="716.8467">PagoExitoso</text><rect fill="#F1F1F1" height="40" rx="12.5" ry="12.5" style="stroke:#181818;stroke-width:0.5;" width="144.2715" x="22.86" y="474"/><text fill="#000000" font-family="sans-serif" font-size="14" lengthAdjust="spacing" textLength="134.2715" x="27.86" y="498.8467">PreparandoCambio</text><rect fill="#F1F1F1" height="40" rx="12.5" ry="12.5" style="stroke:#181818;stroke-width:0.5;" width="144.7021" x="39.65" y="692"/><text fill="#000000" font-family="sans-serif" font-size="14" lengthAdjust="spacing" textLength="134.7021" x="44.65" y="716.8467">EntregandoCambio</text><rect fill="#F1F1F1" height="40" rx="12.5" ry="12.5" style="stroke:#181818;stroke-width:0.5;" width="116.2715" x="552.86" y="692"/><text fill="#000000" font-family="sans-serif" font-size="14" lengthAdjust="spacing" textLength="106.2715" x="557.86" y="716.8467">PagoDenegado</text><ellipse cx="849" cy="16" fill="#222222" rx="10" ry="10" style="stroke:#222222;stroke-width:1;"/><rect fill="#F1F1F1" height="40" rx="12.5" ry="12.5" style="stroke:#181818;stroke-width:0.5;" width="63.2041" x="817.4" y="87"/><text fill="#000000" font-family="sans-serif" font-size="14" lengthAdjust="spacing" textLength="53.2041" x="822.4" y="111.8467">Usuario</text><rect fill="#F1F1F1" height="40" rx="12.5" ry="12.5" style="stroke:#181818;stroke-width:0.5;" width="144.7705" x="227.61" y="871"/><text fill="#000000" font-family="sans-serif" font-size="14" lengthAdjust="spacing" textLength="134.7705" x="232.61" y="895.8467">ProductoEntregado</text><rect fill="#F1F1F1" height="40" rx="12.5" ry="12.5" style="stroke:#181818;stroke-width:0.5;" width="190.79" x="984.6" y="871"/><text fill="#000000" font-family="sans-serif" font-size="14" lengthAdjust="spacing" textLength="180.79" x="989.6" y="895.8467">CancelandoFormaDePago</text><ellipse cx="743" cy="999" fill="none" rx="11" ry="11" style="stroke:#222222;stroke-width:1;"/><ellipse cx="743" cy="999" fill="#222222" rx="6" ry="6" style="stroke:#222222;stroke-width:1;"/><!--link *start* to Usuario--><g class="link" data-entity-1="*start*" data-entity-2="Usuario" data-source-line="3" data-uid="lnk4" id="link_*start*_Usuario"><path d="M849,26.19 C849,40.4 849,62.02 849,80.74 " fill="none" id="*start*-to-Usuario" style="stroke:#181818;stroke-width:1;"/><polygon fill="#181818" points="849,86.74,853,77.74,849,81.74,845,77.74,849,86.74" style="stroke:#181818;stroke-width:1;"/></g><!--link Usuario to IngresandoCodigoCelda--><g class="link" data-entity-1="Usuario" data-entity-2="IngresandoCodigoCelda" data-source-line="6" data-uid="lnk6" id="link_Usuario_IngresandoCodigoCelda"><path d="M849,127.49 C849,153.34 849,192.72 849,218.55 " fill="none" id="Usuario-to-IngresandoCodigoCelda" style="stroke:#181818;stroke-width:1;"/><polygon fill="#181818" points="849,224.55,853,215.55,849,219.55,845,215.55,849,224.55" style="stroke:#181818;stroke-width:1;"/><text fill="#000000" font-family="sans-serif" font-size="13" lengthAdjust="spacing" textLength="107.9355" x="850" y="170.0669">Decidir Producto</text></g><!--link IngresandoCodigoCelda to EligiendoFormaDePago--><g class="link" data-entity-1="IngresandoCodigoCelda" data-entity-2="EligiendoFormaDePago" data-source-line="8" data-uid="lnk8" id="link_IngresandoCodigoCelda_EligiendoFormaDePago"><path d="M848.7,265.44 C848.32,289.64 847.7746,324.7107 847.3946,348.8007 " fill="none" id="IngresandoCodigoCelda-to-EligiendoFormaDePago" style="stroke:#181818;stroke-width:1;"/><polygon fill="#181818" points="847.3,354.8,851.4415,345.8642,847.3789,349.8006,843.4424,345.738,847.3,354.8" style="stroke:#181818;stroke-width:1;"/><text fill="#000000" font-family="sans-serif" font-size="13" lengthAdjust="spacing" textLength="180.502" x="849" y="308.0669">Mostrar precio del producto</text></g><!--link EligiendoFormaDePago to PagandoEfectivo--><g class="link" data-entity-1="EligiendoFormaDePago" data-entity-2="PagandoEfectivo" data-source-line="12" data-uid="lnk10" id="link_EligiendoFormaDePago_PagandoEfectivo"><path d="M797.92,395.41 C773.17,404.28 742.43,413.93 714,419 C627.3,434.47 602.8,412.06 516,427 C500.64,429.64 426.0715,453.2318 368.5915,471.7318 " fill="none" id="EligiendoFormaDePago-to-PagandoEfectivo" style="stroke:#181818;stroke-width:1;"/><polygon fill="#181818" points="362.88,473.57,372.6727,474.6203,367.6396,472.0381,370.2217,467.005,362.88,473.57" style="stroke:#181818;stroke-width:1;"/><text fill="#000000" font-family="sans-serif" font-size="13" lengthAdjust="spacing" textLength="104.8315" x="517" y="440.0669">Ingresa Efectivo</text></g><!--link EligiendoFormaDePago to PagandoMonedero--><g class="link" data-entity-1="EligiendoFormaDePago" data-entity-2="PagandoMonedero" data-source-line="14" data-uid="lnk12" id="link_EligiendoFormaDePago_PagandoMonedero"><path d="M793.52,395.45 C769.47,403.64 740.56,412.7 714,419 C691.25,424.39 684.19,419.63 662,427 C646.72,432.07 644.87,437.81 630,444 C602.03,455.65 576.035,464.3228 548.365,472.4828 " fill="none" id="EligiendoFormaDePago-to-PagandoMonedero" style="stroke:#181818;stroke-width:1;"/><polygon fill="#181818" points="542.61,474.18,552.3739,475.4709,547.4058,472.7657,550.111,467.7976,542.61,474.18" style="stroke:#181818;stroke-width:1;"/><text fill="#000000" font-family="sans-serif" font-size="13" lengthAdjust="spacing" textLength="136.1191" x="663" y="440.0669">Acercar el monedero</text></g><!--link EligiendoFormaDePago to PagandoTarjeta--><g class="link" data-entity-1="EligiendoFormaDePago" data-entity-2="PagandoTarjeta" data-source-line="16" data-uid="lnk14" id="link_EligiendoFormaDePago_PagandoTarjeta"><path d="M840.49,395.46 C834.4,410.78 823.85,431.57 808,444 C776.71,468.56 739.4806,479.7779 704.4906,485.8879 " fill="none" id="EligiendoFormaDePago-to-PagandoTarjeta" style="stroke:#181818;stroke-width:1;"/><polygon fill="#181818" points="698.58,486.92,708.1339,489.3122,703.5055,486.0599,706.7578,481.4315,698.58,486.92" style="stroke:#181818;stroke-width:1;"/><text fill="#000000" font-family="sans-serif" font-size="13" lengthAdjust="spacing" textLength="112.7661" x="823" y="440.0669">Acercar la tarjeta</text></g><!--link PagandoEfectivo to verificandoEfectivo--><g class="link" data-entity-1="PagandoEfectivo" data-entity-2="verificandoEfectivo" data-source-line="22" data-uid="lnk15" id="link_PagandoEfectivo_verificandoEfectivo"><path d="M333.04,473.66 C349.38,460.65 364.19,443.03 353,427 C322.98,384.01 258.5359,377.3712 231.1559,376.3612 " fill="none" id="PagandoEfectivo-to-verificandoEfectivo" style="stroke:#181818;stroke-width:1;"/><polygon fill="#181818" points="225.16,376.14,234.0064,380.469,230.1566,376.3243,234.3013,372.4745,225.16,376.14" style="stroke:#181818;stroke-width:1;"/><text fill="#000000" font-family="sans-serif" font-size="13" lengthAdjust="spacing" textLength="89.8638" x="358" y="440.0669">Mostrar Saldo</text></g><!--link verificandoEfectivo to PagandoEfectivo--><g class="link" data-entity-1="verificandoEfectivo" data-entity-2="PagandoEfectivo" data-source-line="26" data-uid="lnk18" id="link_verificandoEfectivo_PagandoEfectivo"><path d="M213.76,387.12 C213.97,401.48 216.2,426.66 228,444 C236.31,456.22 243.6681,462.9686 256.0681,470.5886 " fill="none" id="verificandoEfectivo-to-PagandoEfectivo" style="stroke:#181818;stroke-width:1;"/><polygon fill="#181818" points="261.18,473.73,255.6063,465.61,256.9201,471.1122,251.4179,472.4259,261.18,473.73" style="stroke:#181818;stroke-width:1;"/><text fill="#000000" font-family="sans-serif" font-size="13" lengthAdjust="spacing" textLength="115.3115" x="229" y="440.0669">Saldo insuficiente</text></g><!--link verificandoEfectivo to PagoExitoso--><g class="link" data-entity-1="verificandoEfectivo" data-entity-2="PagoExitoso" data-source-line="24" data-uid="lnk17" id="link_verificandoEfectivo_PagoExitoso"><path d="M213.03,386.61 C211.96,400.01 210.56,423.74 212,444 C218.71,538.42 246.8175,642.5107 259.5375,686.0507 " fill="none" id="verificandoEfectivo-to-PagoExitoso" style="stroke:#181818;stroke-width:1;"/><polygon fill="#181818" points="261.22,691.81,262.5357,682.0494,259.8179,687.0106,254.8567,684.2928,261.22,691.81" style="stroke:#181818;stroke-width:1;"/><text fill="#000000" font-family="sans-serif" font-size="13" lengthAdjust="spacing" textLength="103.4604" x="230" y="557.0669">Saldo suficiente</text></g><!--link PagandoMonedero to verificandoFondos--><g class="link" data-entity-1="PagandoMonedero" data-entity-2="verificandoFondos" data-source-line="29" data-uid="lnk19" id="link_PagandoMonedero_verificandoFondos"><path d="M437.23,514.48 C426.83,522.21 416.7,532.12 411,544 C399.31,568.39 432.2111,587.4732 449.5411,595.7932 " fill="none" id="PagandoMonedero-to-verificandoFondos" style="stroke:#181818;stroke-width:1;"/><polygon fill="#181818" points="454.95,598.39,448.5678,590.8888,450.4425,596.226,445.1054,598.1008,454.95,598.39" style="stroke:#181818;stroke-width:1;"/><text fill="#000000" font-family="sans-serif" font-size="13" lengthAdjust="spacing" textLength="120.2754" x="412" y="557.0669">verificando fondos</text></g><!--link PagandoTarjeta to verificandoFondos--><g class="link" data-entity-1="PagandoTarjeta" data-entity-2="verificandoFondos" data-source-line="31" data-uid="lnk20" id="link_PagandoTarjeta_verificandoFondos"><path d="M609.62,514.34 C589.57,527.8 561.94,545.97 537,561 C513.1,575.4 489.2186,588.2137 475.7586,595.3037 " fill="none" id="PagandoTarjeta-to-verificandoFondos" style="stroke:#181818;stroke-width:1;"/><polygon fill="#181818" points="470.45,598.1,480.277,597.4446,474.8738,595.7698,476.5487,590.3666,470.45,598.1" style="stroke:#181818;stroke-width:1;"/><text fill="#000000" font-family="sans-serif" font-size="13" lengthAdjust="spacing" textLength="120.2754" x="564" y="557.0669">verificando fondos</text></g><!--link verificandoFondos to PagoExitoso--><g class="link" data-entity-1="verificandoFondos" data-entity-2="PagoExitoso" data-source-line="33" data-uid="lnk21" id="link_verificandoFondos_PagoExitoso"><path d="M455.56,608.06 C430.8,621.58 355.4065,662.7353 307.9765,688.6253 " fill="none" id="verificandoFondos-to-PagoExitoso" style="stroke:#181818;stroke-width:1;"/><polygon fill="#181818" points="302.71,691.5,312.5262,690.6989,307.0987,689.1044,308.6932,683.6769,302.71,691.5" style="stroke:#181818;stroke-width:1;"/><text fill="#000000" font-family="sans-serif" font-size="13" lengthAdjust="spacing" textLength="120.8467" x="384" y="658.0669">Fondos suficientes</text></g><!--link verificandoEfectivo to PreparandoCambio--><g class="link" data-entity-1="verificandoEfectivo" data-entity-2="PreparandoCambio" data-source-line="36" data-uid="lnk23" id="link_verificandoEfectivo_PreparandoCambio"><path d="M202.77,376.45 C176.58,378.18 111.59,386.54 84,427 C74.71,440.63 76.8354,453.8879 82.5954,467.9479 " fill="none" id="verificandoEfectivo-to-PreparandoCambio" style="stroke:#181818;stroke-width:1;"/><polygon fill="#181818" points="84.87,473.5,85.1596,463.6554,82.9745,468.8732,77.7567,466.6882,84.87,473.5" style="stroke:#181818;stroke-width:1;"/><text fill="#000000" font-family="sans-serif" font-size="13" lengthAdjust="spacing" textLength="99.0742" x="85" y="440.0669">Saldo excedido</text></g><!--link PreparandoCambio to fork_state--><g class="link" data-entity-1="PreparandoCambio" data-entity-2="fork_state" data-source-line="42" data-uid="lnk24" id="link_PreparandoCambio_fork_state"><path d="M98.04,514.13 C102.24,540.58 108.5871,580.5346 110.5571,592.9146 " fill="none" id="PreparandoCambio-to-fork_state" style="stroke:#181818;stroke-width:1;"/><polygon fill="#181818" points="111.5,598.84,114.0359,589.3232,110.7142,593.9021,106.1353,590.5804,111.5,598.84" style="stroke:#181818;stroke-width:1;"/></g><!--link fork_state to EntregandoCambio--><g class="link" data-entity-1="fork_state" data-entity-2="EntregandoCambio" data-source-line="44" data-uid="lnk26" id="link_fork_state_EntregandoCambio"><path d="M112,607.09 C112,619.35 112,659.27 112,685.78 " fill="none" id="fork_state-to-EntregandoCambio" style="stroke:#181818;stroke-width:1;"/><polygon fill="#181818" points="112,691.78,116,682.78,112,686.78,108,682.78,112,691.78" style="stroke:#181818;stroke-width:1;"/></g><!--link fork_state to PagoExitoso--><g class="link" data-entity-1="fork_state" data-entity-2="PagoExitoso" data-source-line="46" data-uid="lnk27" id="link_fork_state_PagoExitoso"><path d="M116.78,607.44 C129.35,616.48 164.42,641.62 194,662 C208.33,671.87 219.38,679.3384 232.77,688.2784 " fill="none" id="fork_state-to-PagoExitoso" style="stroke:#181818;stroke-width:1;"/><polygon fill="#181818" points="237.76,691.61,232.4961,683.2859,233.6017,688.8336,228.0539,689.9392,237.76,691.61" style="stroke:#181818;stroke-width:1;"/></g><!--link EntregandoCambio to join_state--><g class="link" data-entity-1="EntregandoCambio" data-entity-2="join_state" data-source-line="48" data-uid="lnk28" id="link_EntregandoCambio_join_state"><path d="M129.31,732.42 C148.34,753.77 173.4773,781.9714 182.9273,792.5714 " fill="none" id="EntregandoCambio-to-join_state" style="stroke:#181818;stroke-width:1;"/><polygon fill="#181818" points="186.92,797.05,183.9166,787.6702,183.5927,793.3178,177.9451,792.9939,186.92,797.05" style="stroke:#181818;stroke-width:1;"/></g><!--link PagoExitoso to join_state--><g class="link" data-entity-1="PagoExitoso" data-entity-2="join_state" data-source-line="50" data-uid="lnk29" id="link_PagoExitoso_join_state"><path d="M249.91,732.42 C231.13,753.77 206.3342,781.9461 197.0042,792.5461 " fill="none" id="PagoExitoso-to-join_state" style="stroke:#181818;stroke-width:1;"/><polygon fill="#181818" points="193.04,797.05,201.9889,792.937,196.3435,793.2968,195.9838,787.6514,193.04,797.05" style="stroke:#181818;stroke-width:1;"/></g><!--link verificandoFondos to PagoDenegado--><g class="link" data-entity-1="verificandoFondos" data-entity-2="PagoDenegado" data-source-line="52" data-uid="lnk31" id="link_verificandoFondos_PagoDenegado"><path d="M469.74,608.88 C489.65,623.27 544.0876,662.6247 579.2076,688.0147 " fill="none" id="verificandoFondos-to-PagoDenegado" style="stroke:#181818;stroke-width:1;"/><polygon fill="#181818" points="584.07,691.53,579.1199,683.0155,580.018,688.6006,574.4329,689.4987,584.07,691.53" style="stroke:#181818;stroke-width:1;"/><text fill="#000000" font-family="sans-serif" font-size="13" lengthAdjust="spacing" textLength="132.6978" x="543" y="658.0669">Fondos insuficientes</text></g><!--link PagoDenegado to EligiendoFormaDePago--><g class="link" data-entity-1="PagoDenegado" data-entity-2="EligiendoFormaDePago" data-source-line="54" data-uid="lnk32" id="link_PagoDenegado_EligiendoFormaDePago"><path d="M655.93,691.5 C732.31,655.51 884.94,570.58 944,444 C954.09,422.38 940.5635,408.9136 916.7935,397.8936 " fill="none" id="PagoDenegado-to-EligiendoFormaDePago" style="stroke:#181818;stroke-width:1;"/><polygon fill="#181818" points="911.35,395.37,917.8328,402.7844,915.8862,397.473,921.1976,395.5265,911.35,395.37" style="stroke:#181818;stroke-width:1;"/><text fill="#000000" font-family="sans-serif" font-size="13" lengthAdjust="spacing" textLength="145.5518" x="873" y="557.0669">Decidir forma de pago</text></g><!--link join_state to ProductoEntregado--><g class="link" data-entity-1="join_state" data-entity-2="ProductoEntregado" data-source-line="58" data-uid="lnk34" id="link_join_state_ProductoEntregado"><path d="M194.18,805.82 C207.36,816.31 244.1244,845.5548 271.0644,866.9848 " fill="none" id="join_state-to-ProductoEntregado" style="stroke:#181818;stroke-width:1;"/><polygon fill="#181818" points="275.76,870.72,271.2068,861.9868,271.847,867.6073,266.2265,868.2476,275.76,870.72" style="stroke:#181818;stroke-width:1;"/></g><!--link EligiendoFormaDePago to CancelandoFormaDePago--><g class="link" data-entity-1="EligiendoFormaDePago" data-entity-2="CancelandoFormaDePago" data-source-line="60" data-uid="lnk36" id="link_EligiendoFormaDePago_CancelandoFormaDePago"><path d="M933.74,391.58 C1024.53,410.41 1154,445.59 1154,493 C1154,493 1154,493 1154,802.5 C1154,830.95 1135.6733,851.2716 1115.2933,866.8816 " fill="none" id="EligiendoFormaDePago-to-CancelandoFormaDePago" style="stroke:#181818;stroke-width:1;"/><polygon fill="#181818" points="1110.53,870.53,1120.1072,868.2329,1114.4994,867.4896,1115.2427,861.8818,1110.53,870.53" style="stroke:#181818;stroke-width:1;"/><text fill="#000000" font-family="sans-serif" font-size="13" lengthAdjust="spacing" textLength="104.5713" x="1155" y="658.0669">Decide cancelar</text></g><!--link CancelandoFormaDePago to *end*--><g class="link" data-entity-1="CancelandoFormaDePago" data-entity-2="*end*" data-source-line="62" data-uid="lnk38" id="link_CancelandoFormaDePago_*end*"><path d="M1018.19,911.44 C935.15,937.56 799.1137,980.3501 759.3637,992.8501 " fill="none" id="CancelandoFormaDePago-to-*end*" style="stroke:#181818;stroke-width:1;"/><polygon fill="#181818" points="753.64,994.65,763.4254,995.7659,758.4097,993.1501,761.0256,988.1344,753.64,994.65" style="stroke:#181818;stroke-width:1;"/><text fill="#000000" font-family="sans-serif" font-size="13" lengthAdjust="spacing" textLength="121.6846" x="922" y="954.0669">Compra cancelada</text></g><!--link PagoExitoso to ProductoEntregado--><g class="link" data-entity-1="PagoExitoso" data-entity-2="ProductoEntregado" data-source-line="64" data-uid="lnk39" id="link_PagoExitoso_ProductoEntregado"><path d="M270.59,732.28 C276.94,766.33 288.9711,830.8115 295.3111,864.8415 " fill="none" id="PagoExitoso-to-ProductoEntregado" style="stroke:#181818;stroke-width:1;"/><polygon fill="#181818" points="296.41,870.74,298.6939,861.1596,295.4942,865.8246,290.8293,862.6249,296.41,870.74" style="stroke:#181818;stroke-width:1;"/><text fill="#000000" font-family="sans-serif" font-size="13" lengthAdjust="spacing" textLength="151.1694" x="290" y="806.0669">Despachando producto</text></g><!--link ProductoEntregado to *end*--><g class="link" data-entity-1="ProductoEntregado" data-entity-2="*end*" data-source-line="65" data-uid="lnk40" id="link_ProductoEntregado_*end*"><path d="M372.66,909.39 C482.62,935.7 677.8548,982.4134 726.4048,994.0334 " fill="none" id="ProductoEntregado-to-*end*" style="stroke:#181818;stroke-width:1;"/><polygon fill="#181818" points="732.24,995.43,724.4183,989.445,727.3773,994.2662,722.5561,997.2252,732.24,995.43" style="stroke:#181818;stroke-width:1;"/><text fill="#000000" font-family="sans-serif" font-size="13" lengthAdjust="spacing" textLength="118.0156" x="576" y="954.0669">Compra finalizada</text></g><!--SRC=[bLJ1Rjim3BthAtGUq1y8WW13aW4x52YmxJGC0olH3ZjRCYYbw5hqtql9YktPRhPT39bwxv6FadWYYnhRBlxM5eDXwY9vfzJt3p_qpSrEVmjdOF9AXGWHzHrxWy4VSE_RZa6_g0B8uC-kPWpWhDzxIxNVOsD1R_G13LdYnBPd4qLj7PaqZWtLXBBnoNCB1xo3sel4hG-HWNN7ekMbraQMHUtrp-gIQcQzg5Mnb4NBAk6E5Pf8Zob3AKbVGkhlx5llq28dzaU3RAG-gQijqNyG-0hyW14c_0Pqx8CNKu_8L961B2EVeBTRS_9aSBTRmGoEfgYvsrJ36cViynTeh3XO0oLoSd9yekX38cMm3cT1Yjs8LtcpX3sNt9IjvlsTrLlwi9d6T9M30_VIsl-XBd5BhsLZB5Tuxzjbx83pDOVsdaQ_-6JGaXtULUNvryz-kTscd_5i7povOIlzv0ET2wTieuXI4y7ygbnah4Vy0Z0nAVTsXiw8iOxSuw4byxttctX09wfsqiNfiVT7DuAk38FBFAbIL6Q1xYIkqXoODAllVpyYYY5xzKtkmHbiO3qRQjDlirBhmAIHfkP6bzbO21QM_LhKbTE43imfNyXXj2s1YpGLEMZeMVAy0G00]--></g></svg>