<svg xmlns="http://www.w3.org/2000/svg" xmlns:xlink="http://www.w3.org/1999/xlink" contentStyleType="text/css" data-diagram-type="CLASS" height="624px" preserveAspectRatio="none" style="width:410px;height:624px;background:#FFFFFF;" version="1.1" viewBox="0 0 410 624" width="410px" zoomAndPan="magnify"><defs/><g><!--class Mundo--><g id="elem_Mundo"><rect codeLine="4" fill="#F1F1F1" height="50.5938" id="Mundo" rx="2.5" ry="2.5" style="stroke:#181818;stroke-width:0.5;" width="138.376" x="56" y="7"/><text fill="#000000" font-family="sans-serif" font-size="14" lengthAdjust="spacing" textLength="47.2773" x="101.5493" y="24.9951">Mundo</text><line style="stroke:#181818;stroke-width:0.5;" x1="57" x2="193.376" y1="33.2969" y2="33.2969"/><ellipse cx="67" cy="46.9453" fill="transparent" rx="3" ry="3" style="stroke:#038048;stroke-width:1;"/><text fill="#000000" font-family="sans-serif" font-size="14" lengthAdjust="spacing" textLength="112.376" x="76" y="50.292">horario: "12:40"</text></g><!--class Universidad--><g id="elem_Universidad"><rect codeLine="8" fill="#F1F1F1" height="50.5938" id="Universidad" rx="2.5" ry="2.5" style="stroke:#181818;stroke-width:0.5;" width="137.542" x="178" y="135"/><text fill="#000000" font-family="sans-serif" font-size="14" lengthAdjust="spacing" textLength="83.2002" x="205.1709" y="152.9951">Universidad</text><line style="stroke:#181818;stroke-width:0.5;" x1="179" x2="314.542" y1="161.2969" y2="161.2969"/><ellipse cx="189" cy="174.9453" fill="transparent" rx="3" ry="3" style="stroke:#038048;stroke-width:1;"/><text fill="#000000" font-family="sans-serif" font-size="14" lengthAdjust="spacing" textLength="111.542" x="198" y="178.292">capacidad: "30"</text></g><!--class Persona--><g id="elem_Persona"><rect codeLine="12" fill="#F1F1F1" height="66.8906" id="Persona" rx="2.5" ry="2.5" style="stroke:#181818;stroke-width:0.5;" width="135.6621" x="34" y="263"/><text fill="#000000" font-family="sans-serif" font-size="14" lengthAdjust="spacing" textLength="56.123" x="73.7695" y="280.9951">Persona</text><line style="stroke:#181818;stroke-width:0.5;" x1="35" x2="168.6621" y1="289.2969" y2="289.2969"/><ellipse cx="45" cy="302.9453" fill="transparent" rx="3" ry="3" style="stroke:#038048;stroke-width:1;"/><text fill="#000000" font-family="sans-serif" font-size="14" lengthAdjust="spacing" textLength="109.6621" x="54" y="306.292">nombre: "Paco"</text><ellipse cx="45" cy="319.2422" fill="transparent" rx="3" ry="3" style="stroke:#038048;stroke-width:1;"/><text fill="#000000" font-family="sans-serif" font-size="14" lengthAdjust="spacing" textLength="82.8242" x="54" y="322.5889">deseaIr: "2"</text></g><!--class Ascensor--><g id="elem_Ascensor"><rect codeLine="17" fill="#F1F1F1" height="83.1875" id="Ascensor" rx="2.5" ry="2.5" style="stroke:#181818;stroke-width:0.5;" width="213.0244" x="103.5" y="407"/><text fill="#000000" font-family="sans-serif" font-size="14" lengthAdjust="spacing" textLength="63.6699" x="178.1772" y="424.9951">Ascensor</text><line style="stroke:#181818;stroke-width:0.5;" x1="104.5" x2="315.5244" y1="433.2969" y2="433.2969"/><ellipse cx="114.5" cy="446.9453" fill="transparent" rx="3" ry="3" style="stroke:#038048;stroke-width:1;"/><text fill="#000000" font-family="sans-serif" font-size="14" lengthAdjust="spacing" textLength="102.6348" x="123.5" y="450.292">capacidad: "3"</text><ellipse cx="114.5" cy="463.2422" fill="transparent" rx="3" ry="3" style="stroke:#038048;stroke-width:1;"/><text fill="#000000" font-family="sans-serif" font-size="14" lengthAdjust="spacing" textLength="124.4072" x="123.5" y="466.5889">plantaActual: "-1"</text><ellipse cx="114.5" cy="479.5391" fill="transparent" rx="3" ry="3" style="stroke:#038048;stroke-width:1;"/><text fill="#000000" font-family="sans-serif" font-size="14" lengthAdjust="spacing" textLength="187.0244" x="123.5" y="482.8857">movimiento: "ascendente"</text></g><!--class Planta--><g id="elem_Planta"><rect codeLine="23" fill="#F1F1F1" height="50.5938" id="Planta" rx="2.5" ry="2.5" style="stroke:#181818;stroke-width:0.5;" width="111.2715" x="154.5" y="567"/><text fill="#000000" font-family="sans-serif" font-size="14" lengthAdjust="spacing" textLength="43.8525" x="188.2095" y="584.9951">Planta</text><line style="stroke:#181818;stroke-width:0.5;" x1="155.5" x2="264.7715" y1="593.2969" y2="593.2969"/><ellipse cx="165.5" cy="606.9453" fill="transparent" rx="3" ry="3" style="stroke:#038048;stroke-width:1;"/><text fill="#000000" font-family="sans-serif" font-size="14" lengthAdjust="spacing" textLength="85.2715" x="174.5" y="610.292">numero: "0"</text></g><!--reverse link Mundo to Persona--><g id="link_Mundo_Persona"><path codeLine="27" d="M120.2252,69.9827 C117.5952,90.5127 115.46,108.68 113,135 C108.88,179.22 105.63,230.42 103.77,262.88 " fill="transparent" id="Mundo-backto-Persona" style="stroke:#181818;stroke-width:1;"/><polygon fill="#181818" points="121.75,58.08,117.02,63.5231,120.2252,69.9827,124.9552,64.5396,121.75,58.08" style="stroke:#181818;stroke-width:1;"/><text fill="#000000" font-family="sans-serif" font-size="13" lengthAdjust="spacing" textLength="45.7983" x="114" y="165.0669">genera</text></g><!--reverse link Mundo to Universidad--><g id="link_Mundo_Universidad"><path codeLine="28" d="M157.1583,66.7101 C178.6583,88.9101 201.77,112.79 223.25,134.97 " fill="transparent" id="Mundo-backto-Universidad" style="stroke:#181818;stroke-width:1;"/><polygon fill="#181818" points="148.81,58.09,150.1108,65.1828,157.1583,66.7101,155.8575,59.6173,148.81,58.09" style="stroke:#181818;stroke-width:1;"/><text fill="#000000" font-family="sans-serif" font-size="13" lengthAdjust="spacing" textLength="28.4565" x="195" y="101.0669">crea</text></g><!--reverse link Universidad to Planta--><g id="link_Universidad_Planta"><path codeLine="30" d="M271.1919,196.2876 C308.5019,252.3076 381.89,382.16 334,490 C319.04,523.69 286.35,549.7 258.29,566.95 " fill="transparent" id="Universidad-backto-Planta" style="stroke:#181818;stroke-width:1;"/><polygon fill="#181818" points="264.54,186.3,264.5367,193.5111,271.1919,196.2876,271.1951,189.0765,264.54,186.3" style="stroke:#181818;stroke-width:1;"/><text fill="#000000" font-family="sans-serif" font-size="13" lengthAdjust="spacing" textLength="56.2847" x="346" y="373.0669">contiene</text></g><!--reverse link Universidad to Persona--><g id="link_Universidad_Persona"><path codeLine="31" d="M202.9084,193.3944 C190.9984,202.3744 187.38,205.65 176,216 C159.96,230.59 143.4,248.11 130.02,262.99 " fill="transparent" id="Universidad-backto-Persona" style="stroke:#181818;stroke-width:1;"/><polygon fill="transparent" points="212.49,186.17,205.291,186.5883,202.9084,193.3944,210.1073,192.9761,212.49,186.17" style="stroke:#181818;stroke-width:1;"/><text fill="#000000" font-family="sans-serif" font-size="13" lengthAdjust="spacing" textLength="39.3174" x="177" y="229.0669">acoge</text></g><!--reverse link Universidad to Ascensor--><g id="link_Universidad_Ascensor"><path codeLine="32" d="M242.2705,198.0308 C235.8905,247.3508 223.04,346.75 215.24,406.97 " fill="transparent" id="Universidad-backto-Ascensor" style="stroke:#181818;stroke-width:1;"/><polygon fill="#181818" points="243.81,186.13,239.0733,191.5673,242.2705,198.0308,247.0072,192.5936,243.81,186.13" style="stroke:#181818;stroke-width:1;"/><text fill="#000000" font-family="sans-serif" font-size="13" lengthAdjust="spacing" textLength="38.9746" x="234" y="301.0669">posee</text></g><!--reverse link Persona to Ascensor--><g id="link_Persona_Ascensor"><path codeLine="34" d="M132.4515,339.7885 C148.7015,362.3585 163.45,382.85 180.83,406.99 " fill="transparent" id="Persona-backto-Ascensor" style="stroke:#181818;stroke-width:1;"/><polygon fill="transparent" points="125.44,330.05,125.6996,337.2564,132.4515,339.7885,132.1919,332.5821,125.44,330.05" style="stroke:#181818;stroke-width:1;"/><text fill="#000000" font-family="sans-serif" font-size="13" lengthAdjust="spacing" textLength="38.9619" x="161" y="373.0669">utiliza</text></g><!--link Ascensor to Planta--><g id="link_Ascensor_Planta"><path codeLine="35" d="M210,490.19 C210,514.94 210,545.74 210,566.84 " fill="transparent" id="Ascensor-Planta" style="stroke:#181818;stroke-width:1;"/><text fill="#000000" font-family="sans-serif" font-size="13" lengthAdjust="spacing" textLength="62.9688" x="211" y="533.0669">comunica</text></g><!--reverse link Persona to Planta--><g id="link_Persona_Planta"><path codeLine="36" d="M67.6157,339.7192 C38.0657,379.3392 6,437.77 36,490 C61.26,533.97 113.73,560.7 154.48,575.6 " fill="transparent" id="Persona-backto-Planta" style="stroke:#181818;stroke-width:1;"/><polygon fill="transparent" points="74.79,330.1,67.9964,332.5182,67.6157,339.7192,74.4092,337.301,74.79,330.1" style="stroke:#181818;stroke-width:1;"/><text fill="#000000" font-family="sans-serif" font-size="13" lengthAdjust="spacing" textLength="48.2041" x="37" y="453.0669">est&#225; en</text></g><!--SRC=[RP11JiGm34NtEONL9QDApC2gkrcoG9eD1_0arZHIOrT9EX8W3iDPk1ZEb9PKa5No__ksuzux0kkZ7SZqvKvXpAyGA9mf9cFiW2d1yyHEuDtie9U8qKi7pVxGFTutvcDXNjXVDU8TEYL1pmuiZcYBeln33P-K5COLP0ddI4gTq4hp8pfAX4zHrKCLFIPBd2J-tsJ9ZWDongFD4mwgj_l527BrmHFdyWSijPm-g9xj5lqTRGeK2ppFFw_YhctNFtHm8QQ8bLNleWCR2OsfjLjyRgEsSDQ1Q4F8fe4kvK9_AgoRw62KH6JCaf2jEsK_-3SqgxHj7oRs5ZVXrQMKlpw1-1i0]--></g></svg>