<svg xmlns="http://www.w3.org/2000/svg" xmlns:xlink="http://www.w3.org/1999/xlink" contentStyleType="text/css" data-diagram-type="CLASS" height="710px" preserveAspectRatio="none" style="width:645px;height:710px;background:#FFFFFF;" version="1.1" viewBox="0 0 645 710" width="645px" zoomAndPan="magnify"><defs/><g><!--class Caja--><g class="entity" data-entity="Caja" data-source-line="1" data-uid="ent0002" id="entity_Caja"><rect fill="#F1F1F1" height="48" rx="2.5" ry="2.5" style="stroke:#181818;stroke-width:0.5;" width="62.8232" x="278.98" y="439"/><ellipse cx="293.98" cy="455" fill="#ADD1B2" rx="11" ry="11" style="stroke:#181818;stroke-width:1;"/><path d="M296.9488,460.6406 Q296.3706,460.9375 295.73,461.0781 Q295.0894,461.2344 294.3863,461.2344 Q291.8863,461.2344 290.5581,459.5938 Q289.2456,457.9375 289.2456,454.8125 Q289.2456,451.6875 290.5581,450.0313 Q291.8863,448.375 294.3863,448.375 Q295.0894,448.375 295.73,448.5313 Q296.3863,448.6875 296.9488,448.9844 L296.9488,451.7031 Q296.3238,451.125 295.73,450.8594 Q295.1363,450.5781 294.5113,450.5781 Q293.1675,450.5781 292.48,451.6563 Q291.7925,452.7188 291.7925,454.8125 Q291.7925,456.9063 292.48,457.9844 Q293.1675,459.0469 294.5113,459.0469 Q295.1363,459.0469 295.73,458.7813 Q296.3238,458.5 296.9488,457.9219 L296.9488,460.6406 Z " fill="#000000"/><text fill="#000000" font-family="sans-serif" font-size="14" lengthAdjust="spacing" textLength="30.8232" x="307.98" y="459.8467">Caja</text><line style="stroke:#181818;stroke-width:0.5;" x1="279.98" x2="340.8032" y1="471" y2="471"/><line style="stroke:#181818;stroke-width:0.5;" x1="279.98" x2="340.8032" y1="479" y2="479"/></g><!--class Celda--><g class="entity" data-entity="Celda" data-source-line="2" data-uid="ent0003" id="entity_Celda"><rect fill="#F1F1F1" height="48" rx="2.5" ry="2.5" style="stroke:#181818;stroke-width:0.5;" width="71.7441" x="376.52" y="439"/><ellipse cx="391.52" cy="455" fill="#ADD1B2" rx="11" ry="11" style="stroke:#181818;stroke-width:1;"/><path d="M394.4888,460.6406 Q393.9106,460.9375 393.27,461.0781 Q392.6294,461.2344 391.9263,461.2344 Q389.4263,461.2344 388.0981,459.5938 Q386.7856,457.9375 386.7856,454.8125 Q386.7856,451.6875 388.0981,450.0313 Q389.4263,448.375 391.9263,448.375 Q392.6294,448.375 393.27,448.5313 Q393.9263,448.6875 394.4888,448.9844 L394.4888,451.7031 Q393.8638,451.125 393.27,450.8594 Q392.6763,450.5781 392.0513,450.5781 Q390.7075,450.5781 390.02,451.6563 Q389.3325,452.7188 389.3325,454.8125 Q389.3325,456.9063 390.02,457.9844 Q390.7075,459.0469 392.0513,459.0469 Q392.6763,459.0469 393.27,458.7813 Q393.8638,458.5 394.4888,457.9219 L394.4888,460.6406 Z " fill="#000000"/><text fill="#000000" font-family="sans-serif" font-size="14" lengthAdjust="spacing" textLength="39.7441" x="405.52" y="459.8467">Celda</text><line style="stroke:#181818;stroke-width:0.5;" x1="377.52" x2="447.2641" y1="471" y2="471"/><line style="stroke:#181818;stroke-width:0.5;" x1="377.52" x2="447.2641" y1="479" y2="479"/></g><!--class ControladorPago--><g class="entity" data-entity="ControladorPago" data-source-line="3" data-uid="ent0004" id="entity_ControladorPago"><rect fill="#F1F1F1" height="48" rx="2.5" ry="2.5" style="stroke:#181818;stroke-width:0.5;" width="149.1748" x="104.81" y="115"/><ellipse cx="119.81" cy="131" fill="#ADD1B2" rx="11" ry="11" style="stroke:#181818;stroke-width:1;"/><path d="M122.7788,136.6406 Q122.2006,136.9375 121.56,137.0781 Q120.9194,137.2344 120.2163,137.2344 Q117.7163,137.2344 116.3881,135.5938 Q115.0756,133.9375 115.0756,130.8125 Q115.0756,127.6875 116.3881,126.0313 Q117.7163,124.375 120.2163,124.375 Q120.9194,124.375 121.56,124.5313 Q122.2163,124.6875 122.7788,124.9844 L122.7788,127.7031 Q122.1538,127.125 121.56,126.8594 Q120.9663,126.5781 120.3413,126.5781 Q118.9975,126.5781 118.31,127.6563 Q117.6225,128.7188 117.6225,130.8125 Q117.6225,132.9063 118.31,133.9844 Q118.9975,135.0469 120.3413,135.0469 Q120.9663,135.0469 121.56,134.7813 Q122.1538,134.5 122.7788,133.9219 L122.7788,136.6406 Z " fill="#000000"/><text fill="#000000" font-family="sans-serif" font-size="14" lengthAdjust="spacing" textLength="117.1748" x="133.81" y="135.8467">ControladorPago</text><line style="stroke:#181818;stroke-width:0.5;" x1="105.81" x2="252.9848" y1="147" y2="147"/><line style="stroke:#181818;stroke-width:0.5;" x1="105.81" x2="252.9848" y1="155" y2="155"/></g><!--class Efectivo--><g class="entity" data-entity="Efectivo" data-source-line="4" data-uid="ent0005" id="entity_Efectivo"><rect fill="#F1F1F1" height="48" rx="2.5" ry="2.5" style="stroke:#181818;stroke-width:0.5;" width="88.3145" x="186.24" y="547"/><ellipse cx="201.24" cy="563" fill="#ADD1B2" rx="11" ry="11" style="stroke:#181818;stroke-width:1;"/><path d="M204.2088,568.6406 Q203.6306,568.9375 202.99,569.0781 Q202.3494,569.2344 201.6463,569.2344 Q199.1463,569.2344 197.8181,567.5938 Q196.5056,565.9375 196.5056,562.8125 Q196.5056,559.6875 197.8181,558.0313 Q199.1463,556.375 201.6463,556.375 Q202.3494,556.375 202.99,556.5313 Q203.6463,556.6875 204.2088,556.9844 L204.2088,559.7031 Q203.5838,559.125 202.99,558.8594 Q202.3963,558.5781 201.7713,558.5781 Q200.4275,558.5781 199.74,559.6563 Q199.0525,560.7188 199.0525,562.8125 Q199.0525,564.9063 199.74,565.9844 Q200.4275,567.0469 201.7713,567.0469 Q202.3963,567.0469 202.99,566.7813 Q203.5838,566.5 204.2088,565.9219 L204.2088,568.6406 Z " fill="#000000"/><text fill="#000000" font-family="sans-serif" font-size="14" lengthAdjust="spacing" textLength="56.3145" x="215.24" y="567.8467">Efectivo</text><line style="stroke:#181818;stroke-width:0.5;" x1="187.24" x2="273.5545" y1="579" y2="579"/><line style="stroke:#181818;stroke-width:0.5;" x1="187.24" x2="273.5545" y1="587" y2="587"/></g><!--class EfectivoAceptado--><g class="entity" data-entity="EfectivoAceptado" data-source-line="5" data-uid="ent0006" id="entity_EfectivoAceptado"><rect fill="#F1F1F1" height="48" rx="2.5" ry="2.5" style="stroke:#181818;stroke-width:0.5;" width="154.6094" x="165.09" y="655"/><ellipse cx="180.09" cy="671" fill="#ADD1B2" rx="11" ry="11" style="stroke:#181818;stroke-width:1;"/><path d="M183.0588,676.6406 Q182.4806,676.9375 181.84,677.0781 Q181.1994,677.2344 180.4963,677.2344 Q177.9963,677.2344 176.6681,675.5938 Q175.3556,673.9375 175.3556,670.8125 Q175.3556,667.6875 176.6681,666.0313 Q177.9963,664.375 180.4963,664.375 Q181.1994,664.375 181.84,664.5313 Q182.4963,664.6875 183.0588,664.9844 L183.0588,667.7031 Q182.4338,667.125 181.84,666.8594 Q181.2463,666.5781 180.6213,666.5781 Q179.2775,666.5781 178.59,667.6563 Q177.9025,668.7188 177.9025,670.8125 Q177.9025,672.9063 178.59,673.9844 Q179.2775,675.0469 180.6213,675.0469 Q181.2463,675.0469 181.84,674.7813 Q182.4338,674.5 183.0588,673.9219 L183.0588,676.6406 Z " fill="#000000"/><text fill="#000000" font-family="sans-serif" font-size="14" lengthAdjust="spacing" textLength="122.6094" x="194.09" y="675.8467">EfectivoAceptado</text><line style="stroke:#181818;stroke-width:0.5;" x1="166.09" x2="318.6994" y1="687" y2="687"/><line style="stroke:#181818;stroke-width:0.5;" x1="166.09" x2="318.6994" y1="695" y2="695"/></g><!--class Empleado--><g class="entity" data-entity="Empleado" data-source-line="6" data-uid="ent0007" id="entity_Empleado"><rect fill="#F1F1F1" height="48" rx="2.5" ry="2.5" style="stroke:#181818;stroke-width:0.5;" width="101.9043" x="483.44" y="439"/><ellipse cx="498.44" cy="455" fill="#ADD1B2" rx="11" ry="11" style="stroke:#181818;stroke-width:1;"/><path d="M501.4088,460.6406 Q500.8306,460.9375 500.19,461.0781 Q499.5494,461.2344 498.8463,461.2344 Q496.3463,461.2344 495.0181,459.5938 Q493.7056,457.9375 493.7056,454.8125 Q493.7056,451.6875 495.0181,450.0313 Q496.3463,448.375 498.8463,448.375 Q499.5494,448.375 500.19,448.5313 Q500.8463,448.6875 501.4088,448.9844 L501.4088,451.7031 Q500.7838,451.125 500.19,450.8594 Q499.5963,450.5781 498.9713,450.5781 Q497.6275,450.5781 496.94,451.6563 Q496.2525,452.7188 496.2525,454.8125 Q496.2525,456.9063 496.94,457.9844 Q497.6275,459.0469 498.9713,459.0469 Q499.5963,459.0469 500.19,458.7813 Q500.7838,458.5 501.4088,457.9219 L501.4088,460.6406 Z " fill="#000000"/><text fill="#000000" font-family="sans-serif" font-size="14" lengthAdjust="spacing" textLength="69.9043" x="512.44" y="459.8467">Empleado</text><line style="stroke:#181818;stroke-width:0.5;" x1="484.44" x2="584.3443" y1="471" y2="471"/><line style="stroke:#181818;stroke-width:0.5;" x1="484.44" x2="584.3443" y1="479" y2="479"/></g><!--class Main--><g class="entity" data-entity="Main" data-source-line="7" data-uid="ent0008" id="entity_Main"><rect fill="#F1F1F1" height="48" rx="2.5" ry="2.5" style="stroke:#181818;stroke-width:0.5;" width="65.4209" x="330.68" y="7"/><ellipse cx="345.68" cy="23" fill="#ADD1B2" rx="11" ry="11" style="stroke:#181818;stroke-width:1;"/><path d="M348.6488,28.6406 Q348.0706,28.9375 347.43,29.0781 Q346.7894,29.2344 346.0863,29.2344 Q343.5863,29.2344 342.2581,27.5938 Q340.9456,25.9375 340.9456,22.8125 Q340.9456,19.6875 342.2581,18.0313 Q343.5863,16.375 346.0863,16.375 Q346.7894,16.375 347.43,16.5313 Q348.0863,16.6875 348.6488,16.9844 L348.6488,19.7031 Q348.0238,19.125 347.43,18.8594 Q346.8363,18.5781 346.2113,18.5781 Q344.8675,18.5781 344.18,19.6563 Q343.4925,20.7188 343.4925,22.8125 Q343.4925,24.9063 344.18,25.9844 Q344.8675,27.0469 346.2113,27.0469 Q346.8363,27.0469 347.43,26.7813 Q348.0238,26.5 348.6488,25.9219 L348.6488,28.6406 Z " fill="#000000"/><text fill="#000000" font-family="sans-serif" font-size="14" lengthAdjust="spacing" textLength="33.4209" x="359.68" y="27.8467">Main</text><line style="stroke:#181818;stroke-width:0.5;" x1="331.68" x2="395.1009" y1="39" y2="39"/><line style="stroke:#181818;stroke-width:0.5;" x1="331.68" x2="395.1009" y1="47" y2="47"/></g><!--class Maquina--><g class="entity" data-entity="Maquina" data-source-line="8" data-uid="ent0009" id="entity_Maquina"><rect fill="#F1F1F1" height="48" rx="2.5" ry="2.5" style="stroke:#181818;stroke-width:0.5;" width="91.7598" x="363.51" y="331"/><ellipse cx="378.51" cy="347" fill="#ADD1B2" rx="11" ry="11" style="stroke:#181818;stroke-width:1;"/><path d="M381.4788,352.6406 Q380.9006,352.9375 380.26,353.0781 Q379.6194,353.2344 378.9163,353.2344 Q376.4163,353.2344 375.0881,351.5938 Q373.7756,349.9375 373.7756,346.8125 Q373.7756,343.6875 375.0881,342.0313 Q376.4163,340.375 378.9163,340.375 Q379.6194,340.375 380.26,340.5313 Q380.9163,340.6875 381.4788,340.9844 L381.4788,343.7031 Q380.8538,343.125 380.26,342.8594 Q379.6663,342.5781 379.0413,342.5781 Q377.6975,342.5781 377.01,343.6563 Q376.3225,344.7188 376.3225,346.8125 Q376.3225,348.9063 377.01,349.9844 Q377.6975,351.0469 379.0413,351.0469 Q379.6663,351.0469 380.26,350.7813 Q380.8538,350.5 381.4788,349.9219 L381.4788,352.6406 Z " fill="#000000"/><text fill="#000000" font-family="sans-serif" font-size="14" lengthAdjust="spacing" textLength="59.7598" x="392.51" y="351.8467">Maquina</text><line style="stroke:#181818;stroke-width:0.5;" x1="364.51" x2="454.2698" y1="363" y2="363"/><line style="stroke:#181818;stroke-width:0.5;" x1="364.51" x2="454.2698" y1="371" y2="371"/></g><!--class PagoEfectivo--><g class="entity" data-entity="PagoEfectivo" data-source-line="9" data-uid="ent0010" id="entity_PagoEfectivo"><rect fill="#F1F1F1" height="48" rx="2.5" ry="2.5" style="stroke:#181818;stroke-width:0.5;" width="122.7881" x="7" y="655"/><ellipse cx="22" cy="671" fill="#ADD1B2" rx="11" ry="11" style="stroke:#181818;stroke-width:1;"/><path d="M24.9688,676.6406 Q24.3906,676.9375 23.75,677.0781 Q23.1094,677.2344 22.4063,677.2344 Q19.9063,677.2344 18.5781,675.5938 Q17.2656,673.9375 17.2656,670.8125 Q17.2656,667.6875 18.5781,666.0313 Q19.9063,664.375 22.4063,664.375 Q23.1094,664.375 23.75,664.5313 Q24.4063,664.6875 24.9688,664.9844 L24.9688,667.7031 Q24.3438,667.125 23.75,666.8594 Q23.1563,666.5781 22.5313,666.5781 Q21.1875,666.5781 20.5,667.6563 Q19.8125,668.7188 19.8125,670.8125 Q19.8125,672.9063 20.5,673.9844 Q21.1875,675.0469 22.5313,675.0469 Q23.1563,675.0469 23.75,674.7813 Q24.3438,674.5 24.9688,673.9219 L24.9688,676.6406 Z " fill="#000000"/><text fill="#000000" font-family="sans-serif" font-size="14" lengthAdjust="spacing" textLength="90.7881" x="36" y="675.8467">PagoEfectivo</text><line style="stroke:#181818;stroke-width:0.5;" x1="8" x2="128.7881" y1="687" y2="687"/><line style="stroke:#181818;stroke-width:0.5;" x1="8" x2="128.7881" y1="695" y2="695"/></g><!--class PagoTarjeta--><g class="entity" data-entity="PagoTarjeta" data-source-line="10" data-uid="ent0011" id="entity_PagoTarjeta"><rect fill="#F1F1F1" height="48" rx="2.5" ry="2.5" style="stroke:#181818;stroke-width:0.5;" width="115.9316" x="121.43" y="223"/><ellipse cx="136.43" cy="239" fill="#ADD1B2" rx="11" ry="11" style="stroke:#181818;stroke-width:1;"/><path d="M139.3988,244.6406 Q138.8206,244.9375 138.18,245.0781 Q137.5394,245.2344 136.8363,245.2344 Q134.3363,245.2344 133.0081,243.5938 Q131.6956,241.9375 131.6956,238.8125 Q131.6956,235.6875 133.0081,234.0313 Q134.3363,232.375 136.8363,232.375 Q137.5394,232.375 138.18,232.5313 Q138.8363,232.6875 139.3988,232.9844 L139.3988,235.7031 Q138.7738,235.125 138.18,234.8594 Q137.5863,234.5781 136.9613,234.5781 Q135.6175,234.5781 134.93,235.6563 Q134.2425,236.7188 134.2425,238.8125 Q134.2425,240.9063 134.93,241.9844 Q135.6175,243.0469 136.9613,243.0469 Q137.5863,243.0469 138.18,242.7813 Q138.7738,242.5 139.3988,241.9219 L139.3988,244.6406 Z " fill="#000000"/><text fill="#000000" font-family="sans-serif" font-size="14" lengthAdjust="spacing" textLength="83.9316" x="150.43" y="243.8467">PagoTarjeta</text><line style="stroke:#181818;stroke-width:0.5;" x1="122.43" x2="236.3616" y1="255" y2="255"/><line style="stroke:#181818;stroke-width:0.5;" x1="122.43" x2="236.3616" y1="263" y2="263"/></g><!--class Producto--><g class="entity" data-entity="Producto" data-source-line="11" data-uid="ent0012" id="entity_Producto"><rect fill="#F1F1F1" height="48" rx="2.5" ry="2.5" style="stroke:#181818;stroke-width:0.5;" width="94.2754" x="478.26" y="547"/><ellipse cx="493.26" cy="563" fill="#ADD1B2" rx="11" ry="11" style="stroke:#181818;stroke-width:1;"/><path d="M496.2288,568.6406 Q495.6506,568.9375 495.01,569.0781 Q494.3694,569.2344 493.6663,569.2344 Q491.1663,569.2344 489.8381,567.5938 Q488.5256,565.9375 488.5256,562.8125 Q488.5256,559.6875 489.8381,558.0313 Q491.1663,556.375 493.6663,556.375 Q494.3694,556.375 495.01,556.5313 Q495.6663,556.6875 496.2288,556.9844 L496.2288,559.7031 Q495.6038,559.125 495.01,558.8594 Q494.4163,558.5781 493.7913,558.5781 Q492.4475,558.5781 491.76,559.6563 Q491.0725,560.7188 491.0725,562.8125 Q491.0725,564.9063 491.76,565.9844 Q492.4475,567.0469 493.7913,567.0469 Q494.4163,567.0469 495.01,566.7813 Q495.6038,566.5 496.2288,565.9219 L496.2288,568.6406 Z " fill="#000000"/><text fill="#000000" font-family="sans-serif" font-size="14" lengthAdjust="spacing" textLength="62.2754" x="507.26" y="567.8467">Producto</text><line style="stroke:#181818;stroke-width:0.5;" x1="479.26" x2="571.5354" y1="579" y2="579"/><line style="stroke:#181818;stroke-width:0.5;" x1="479.26" x2="571.5354" y1="587" y2="587"/></g><!--class Tarjeta--><g class="entity" data-entity="Tarjeta" data-source-line="12" data-uid="ent0013" id="entity_Tarjeta"><rect fill="#F1F1F1" height="48" rx="2.5" ry="2.5" style="stroke:#181818;stroke-width:0.5;" width="81.458" x="127.67" y="331"/><ellipse cx="142.67" cy="347" fill="#ADD1B2" rx="11" ry="11" style="stroke:#181818;stroke-width:1;"/><path d="M145.6388,352.6406 Q145.0606,352.9375 144.42,353.0781 Q143.7794,353.2344 143.0763,353.2344 Q140.5763,353.2344 139.2481,351.5938 Q137.9356,349.9375 137.9356,346.8125 Q137.9356,343.6875 139.2481,342.0313 Q140.5763,340.375 143.0763,340.375 Q143.7794,340.375 144.42,340.5313 Q145.0763,340.6875 145.6388,340.9844 L145.6388,343.7031 Q145.0138,343.125 144.42,342.8594 Q143.8263,342.5781 143.2013,342.5781 Q141.8575,342.5781 141.17,343.6563 Q140.4825,344.7188 140.4825,346.8125 Q140.4825,348.9063 141.17,349.9844 Q141.8575,351.0469 143.2013,351.0469 Q143.8263,351.0469 144.42,350.7813 Q145.0138,350.5 145.6388,349.9219 L145.6388,352.6406 Z " fill="#000000"/><text fill="#000000" font-family="sans-serif" font-size="14" lengthAdjust="spacing" textLength="49.458" x="156.67" y="351.8467">Tarjeta</text><line style="stroke:#181818;stroke-width:0.5;" x1="128.67" x2="208.128" y1="363" y2="363"/><line style="stroke:#181818;stroke-width:0.5;" x1="128.67" x2="208.128" y1="371" y2="371"/></g><!--class Usuario--><g class="entity" data-entity="Usuario" data-source-line="13" data-uid="ent0014" id="entity_Usuario"><rect fill="#F1F1F1" height="48" rx="2.5" ry="2.5" style="stroke:#181818;stroke-width:0.5;" width="85.2041" x="243.79" y="331"/><ellipse cx="258.79" cy="347" fill="#ADD1B2" rx="11" ry="11" style="stroke:#181818;stroke-width:1;"/><path d="M261.7587,352.6406 Q261.1806,352.9375 260.54,353.0781 Q259.8994,353.2344 259.1962,353.2344 Q256.6962,353.2344 255.3681,351.5938 Q254.0556,349.9375 254.0556,346.8125 Q254.0556,343.6875 255.3681,342.0313 Q256.6962,340.375 259.1962,340.375 Q259.8994,340.375 260.54,340.5313 Q261.1962,340.6875 261.7587,340.9844 L261.7587,343.7031 Q261.1337,343.125 260.54,342.8594 Q259.9462,342.5781 259.3212,342.5781 Q257.9775,342.5781 257.29,343.6563 Q256.6025,344.7188 256.6025,346.8125 Q256.6025,348.9063 257.29,349.9844 Q257.9775,351.0469 259.3212,351.0469 Q259.9462,351.0469 260.54,350.7813 Q261.1337,350.5 261.7587,349.9219 L261.7587,352.6406 Z " fill="#000000"/><text fill="#000000" font-family="sans-serif" font-size="14" lengthAdjust="spacing" textLength="53.2041" x="272.79" y="351.8467">Usuario</text><line style="stroke:#181818;stroke-width:0.5;" x1="244.79" x2="327.9941" y1="363" y2="363"/><line style="stroke:#181818;stroke-width:0.5;" x1="244.79" x2="327.9941" y1="371" y2="371"/></g><!--reverse link Maquina to Caja--><g class="link" data-entity-1="Maquina" data-entity-2="Caja" data-source-line="15" data-uid="lnk16" id="link_Maquina_Caja"><path codeLine="15" d="M379.4799,388.0305 C362.9699,405.7105 348.56,421.13 332.07,438.79" fill="none" id="Maquina-backto-Caja" style="stroke:#181818;stroke-width:1;"/><polygon fill="#181818" points="387.67,379.26,380.6514,380.9152,379.4799,388.0305,386.4984,386.3753,387.67,379.26" style="stroke:#181818;stroke-width:1;"/></g><!--reverse link Caja to Efectivo--><g class="link" data-entity-1="Caja" data-entity-2="Efectivo" data-source-line="16" data-uid="lnk17" id="link_Caja_Efectivo"><path codeLine="16" d="M285.6123,496.8392 C272.2723,514.5192 261.24,529.13 247.91,546.79" fill="none" id="Caja-backto-Efectivo" style="stroke:#181818;stroke-width:1;"/><polygon fill="none" points="292.84,487.26,286.0331,489.6403,285.6123,496.8392,292.4192,494.4588,292.84,487.26" style="stroke:#181818;stroke-width:1;"/></g><!--reverse link Maquina to Celda--><g class="link" data-entity-1="Maquina" data-entity-2="Celda" data-source-line="17" data-uid="lnk19" id="link_Maquina_Celda"><path codeLine="17" d="M410.3892,391.2552 C410.8892,408.9352 411.24,421.13 411.74,438.79" fill="none" id="Maquina-backto-Celda" style="stroke:#181818;stroke-width:1;"/><polygon fill="#181818" points="410.05,379.26,406.2212,385.3707,410.3892,391.2552,414.218,385.1445,410.05,379.26" style="stroke:#181818;stroke-width:1;"/></g><!--reverse link Celda to Producto--><g class="link" data-entity-1="Celda" data-entity-2="Producto" data-source-line="18" data-uid="lnk20" id="link_Celda_Producto"><path codeLine="18" d="M445.9404,495.4716 C464.7804,513.1516 481.83,529.13 500.65,546.79" fill="none" id="Celda-backto-Producto" style="stroke:#181818;stroke-width:1;"/><polygon fill="none" points="437.19,487.26,438.828,494.2826,445.9404,495.4716,444.3024,488.449,437.19,487.26" style="stroke:#181818;stroke-width:1;"/></g><!--link Celda to Empleado--><g class="link" data-entity-1="Celda" data-entity-2="Empleado" data-source-line="19" data-uid="lnk21" id="link_Celda_Empleado"><path codeLine="19" d="M448.61,463 C460.12,463 471.62,463 483.13,463" fill="none" id="Celda-Empleado" style="stroke:#181818;stroke-width:1;stroke-dasharray:7.0,7.0;"/></g><!--link ControladorPago to PagoEfectivo--><g class="link" data-entity-1="ControladorPago" data-entity-2="PagoEfectivo" data-source-line="20" data-uid="lnk22" id="link_ControladorPago_PagoEfectivo"><path codeLine="20" d="M152.69,163.38 C136.57,178.83 116.81,200.35 104.39,223 C75.37,275.95 68.39,293.62 68.39,354 C68.39,354 68.39,354 68.39,464 C68.39,533.29 68.39,609.2 68.39,648.57" fill="none" id="ControladorPago-to-PagoEfectivo" style="stroke:#181818;stroke-width:1;"/><polygon fill="#181818" points="68.39,654.57,72.39,645.57,68.39,649.57,64.39,645.57,68.39,654.57" style="stroke:#181818;stroke-width:1;"/></g><!--link ControladorPago to PagoTarjeta--><g class="link" data-entity-1="ControladorPago" data-entity-2="PagoTarjeta" data-source-line="21" data-uid="lnk23" id="link_ControladorPago_PagoTarjeta"><path codeLine="21" d="M179.39,163.26 C179.39,180.94 179.39,199.13 179.39,216.79" fill="none" id="ControladorPago-to-PagoTarjeta" style="stroke:#181818;stroke-width:1;"/><polygon fill="#181818" points="179.39,222.79,183.39,213.79,179.39,217.79,175.39,213.79,179.39,222.79" style="stroke:#181818;stroke-width:1;"/></g><!--reverse link Usuario to Efectivo--><g class="link" data-entity-1="Usuario" data-entity-2="Efectivo" data-source-line="22" data-uid="lnk25" id="link_Usuario_Efectivo"><path codeLine="22" d="M275.4272,390.6027 C270.2372,407.1927 266.86,418.65 261.39,439 C251.33,476.47 241.28,520.43 235.46,546.7" fill="none" id="Usuario-backto-Efectivo" style="stroke:#181818;stroke-width:1;"/><polygon fill="none" points="279.01,379.15,273.401,383.682,275.4272,390.6027,281.0361,386.0706,279.01,379.15" style="stroke:#181818;stroke-width:1;"/></g><!--reverse link Efectivo to PagoEfectivo--><g class="link" data-entity-1="Efectivo" data-entity-2="PagoEfectivo" data-source-line="23" data-uid="lnk26" id="link_Efectivo_PagoEfectivo"><path codeLine="23" d="M189.8195,598.5455 C162.9095,616.1555 131.11,636.97 104.14,654.61" fill="none" id="Efectivo-backto-PagoEfectivo" style="stroke:#181818;stroke-width:1;stroke-dasharray:7.0,7.0;"/><polygon fill="#181818" points="194.84,595.26,185.1189,596.8412,190.6562,597.9979,189.4995,603.5352,194.84,595.26" style="stroke:#181818;stroke-width:1;"/></g><!--link Efectivo to EfectivoAceptado--><g class="link" data-entity-1="Efectivo" data-entity-2="EfectivoAceptado" data-source-line="24" data-uid="lnk27" id="link_Efectivo_EfectivoAceptado"><path codeLine="24" d="M233.03,595.26 C235.03,612.94 237.0948,631.1681 239.0948,648.8281" fill="none" id="Efectivo-to-EfectivoAceptado" style="stroke:#181818;stroke-width:1;"/><polygon fill="#181818" points="239.77,654.79,242.7318,645.397,239.2073,649.8218,234.7826,646.2973,239.77,654.79" style="stroke:#181818;stroke-width:1;"/></g><!--link Main to ControladorPago--><g class="link" data-entity-1="Main" data-entity-2="ControladorPago" data-source-line="25" data-uid="lnk28" id="link_Main_ControladorPago"><path codeLine="25" d="M330.5,50.95 C299.59,68.76 258.4491,92.4551 225.2391,111.5851" fill="none" id="Main-to-ControladorPago" style="stroke:#181818;stroke-width:1;"/><polygon fill="#181818" points="220.04,114.58,229.8352,113.5538,224.3726,112.0843,225.8421,106.6216,220.04,114.58" style="stroke:#181818;stroke-width:1;"/></g><!--link Main to Maquina--><g class="link" data-entity-1="Main" data-entity-2="Maquina" data-source-line="26" data-uid="lnk29" id="link_Main_Maquina"><path codeLine="26" d="M366.74,55.42 C375.24,114.9 396.7318,265.3503 405.2118,324.7303" fill="none" id="Main-to-Maquina" style="stroke:#181818;stroke-width:1;"/><polygon fill="#181818" points="406.06,330.67,408.7475,321.1949,405.3531,325.7202,400.8278,322.3259,406.06,330.67" style="stroke:#181818;stroke-width:1;"/></g><!--link Main to Producto--><g class="link" data-entity-1="Main" data-entity-2="Producto" data-source-line="27" data-uid="lnk30" id="link_Main_Producto"><path codeLine="27" d="M396.57,40.71 C469.71,62.14 638.39,124.71 638.39,246 C638.39,246 638.39,246 638.39,356 C638.39,416.38 631.77,434.25 602.39,487 C589.68,509.84 573.7837,527.264 557.2237,542.664" fill="none" id="Main-to-Producto" style="stroke:#181818;stroke-width:1;"/><polygon fill="#181818" points="552.83,546.75,562.1446,543.5502,556.4914,543.345,556.6966,537.6919,552.83,546.75" style="stroke:#181818;stroke-width:1;"/></g><!--link Main to Usuario--><g class="link" data-entity-1="Main" data-entity-2="Usuario" data-source-line="28" data-uid="lnk31" id="link_Main_Usuario"><path codeLine="28" d="M357.79,55.42 C343.57,114.9 307.5655,265.4545 293.3655,324.8345" fill="none" id="Main-to-Usuario" style="stroke:#181818;stroke-width:1;"/><polygon fill="#181818" points="291.97,330.67,297.9535,322.8471,293.1329,325.8071,290.1729,320.9865,291.97,330.67" style="stroke:#181818;stroke-width:1;"/></g><!--link Usuario to Maquina--><g class="link" data-entity-1="Usuario" data-entity-2="Maquina" data-source-line="29" data-uid="lnk33" id="link_Usuario_Maquina"><path codeLine="29" d="M329.16,355 C340.54,355 351.93,355 363.32,355" fill="none" id="Usuario-Maquina" style="stroke:#181818;stroke-width:1;"/></g><!--link PagoTarjeta to Tarjeta--><g class="link" data-entity-1="PagoTarjeta" data-entity-2="Tarjeta" data-source-line="30" data-uid="lnk34" id="link_PagoTarjeta_Tarjeta"><path codeLine="30" d="M176.98,271.26 C175.15,288.94 173.2618,307.1623 171.4218,324.8223" fill="none" id="PagoTarjeta-to-Tarjeta" style="stroke:#181818;stroke-width:1;stroke-dasharray:7.0,7.0;"/><polygon fill="#181818" points="170.8,330.79,175.7111,322.253,171.3181,325.8169,167.7542,321.4239,170.8,330.79" style="stroke:#181818;stroke-width:1;"/></g><!--link Tarjeta to Usuario--><g class="link" data-entity-1="Tarjeta" data-entity-2="Usuario" data-source-line="31" data-uid="lnk35" id="link_Tarjeta_Usuario"><path codeLine="31" d="M209.42,355 C220.74,355 220.07,355 231.4,355" fill="none" id="Tarjeta-to-Usuario" style="stroke:#181818;stroke-width:1;"/><polygon fill="none" points="243.4,355,237.4,351,231.4,355,237.4,359,243.4,355" style="stroke:#181818;stroke-width:1;"/></g><!--SRC=[TP713i8W38RlF0Lda_84niGOZoOUz04QXeO5nsJWyplOMXo9j_BrN_l_dNOuJVA4FGgzbCPrNFiX1k-my-6AJx_IyyFeQ3_jywZD66SfuTVeJ7rUq0vSlfCTQ4SUt4pCw8QXDv55mNT9Hn9ic_SfOR1UY9n2Ge8ThoZ40rJF9LuZAYYhUCs2L50rHdCB2N3OUlyd8BCapCizcPOLxvNQ3gmVp9FQAqifyabBh_rDtA2433WW4phUAfNWWDcFUwdKWSzE348DyWK0]--></g></svg>