<svg xmlns="http://www.w3.org/2000/svg" xmlns:xlink="http://www.w3.org/1999/xlink" contentStyleType="text/css" data-diagram-type="CLASS" height="651px" preserveAspectRatio="none" style="width:695px;height:651px;background:#FFFFFF;" version="1.1" viewBox="0 0 695 651" width="695px" zoomAndPan="magnify"><defs/><g><!--cluster moduloMaquina--><g class="cluster" data-entity="moduloMaquina" data-source-line="1" data-uid="ent0002" id="cluster_moduloMaquina"><path d="M363.5,6 L490.6914,6 A3.75,3.75 0 0 1 493.1914,8.5 L500.1914,28.2969 L500.5,28.2969 A2.5,2.5 0 0 1 503,30.7969 L503,102.5 A2.5,2.5 0 0 1 500.5,105 L363.5,105 A2.5,2.5 0 0 1 361,102.5 L361,8.5 A2.5,2.5 0 0 1 363.5,6" fill="none" style="stroke:#000000;stroke-width:1.5;"/><line style="stroke:#000000;stroke-width:1.5;" x1="361" x2="500.1914" y1="28.2969" y2="28.2969"/><text fill="#000000" font-family="sans-serif" font-size="14" font-weight="bold" lengthAdjust="spacing" textLength="126.1914" x="365" y="20.9951">moduloMaquina</text></g><!--cluster moduloInventario--><g class="cluster" data-entity="moduloInventario" data-source-line="5" data-uid="ent0004" id="cluster_moduloInventario"><path d="M8.5,434 L149.3359,434 A3.75,3.75 0 0 1 151.8359,436.5 L158.8359,456.2969 L158.5,456.2969 A2.5,2.5 0 0 1 161,458.7969 L161,641.5 A2.5,2.5 0 0 1 158.5,644 L8.5,644 A2.5,2.5 0 0 1 6,641.5 L6,436.5 A2.5,2.5 0 0 1 8.5,434" fill="none" style="stroke:#000000;stroke-width:1.5;"/><line style="stroke:#000000;stroke-width:1.5;" x1="6" x2="158.8359" y1="456.2969" y2="456.2969"/><text fill="#000000" font-family="sans-serif" font-size="14" font-weight="bold" lengthAdjust="spacing" textLength="139.8359" x="10" y="448.9951">moduloInventario</text></g><!--cluster moduloCaja--><g class="cluster" data-entity="moduloCaja" data-source-line="10" data-uid="ent0007" id="cluster_moduloCaja"><path d="M304.5,434 L398.0791,434 A3.75,3.75 0 0 1 400.5791,436.5 L407.5791,456.2969 L407.5,456.2969 A2.5,2.5 0 0 1 410,458.7969 L410,530.5 A2.5,2.5 0 0 1 407.5,533 L304.5,533 A2.5,2.5 0 0 1 302,530.5 L302,436.5 A2.5,2.5 0 0 1 304.5,434" fill="none" style="stroke:#000000;stroke-width:1.5;"/><line style="stroke:#000000;stroke-width:1.5;" x1="302" x2="407.5791" y1="456.2969" y2="456.2969"/><text fill="#000000" font-family="sans-serif" font-size="14" font-weight="bold" lengthAdjust="spacing" textLength="92.5791" x="306" y="448.9951">moduloCaja</text></g><!--cluster moduloPago--><g class="cluster" data-entity="moduloPago" data-source-line="14" data-uid="ent0009" id="cluster_moduloPago"><path d="M436.5,286 L535.459,286 A3.75,3.75 0 0 1 537.959,288.5 L544.959,308.2969 L668.5,308.2969 A2.5,2.5 0 0 1 671,310.7969 L671,530.5 A2.5,2.5 0 0 1 668.5,533 L436.5,533 A2.5,2.5 0 0 1 434,530.5 L434,288.5 A2.5,2.5 0 0 1 436.5,286" fill="none" style="stroke:#000000;stroke-width:1.5;"/><line style="stroke:#000000;stroke-width:1.5;" x1="434" x2="544.959" y1="308.2969" y2="308.2969"/><text fill="#000000" font-family="sans-serif" font-size="14" font-weight="bold" lengthAdjust="spacing" textLength="97.959" x="438" y="300.9951">moduloPago</text></g><!--cluster moduloUsuario--><g class="cluster" data-entity="moduloUsuario" data-source-line="20" data-uid="ent0013" id="cluster_moduloUsuario"><path d="M435.5,138 L555.5479,138 A3.75,3.75 0 0 1 558.0479,140.5 L565.0479,160.2969 L565.5,160.2969 A2.5,2.5 0 0 1 568,162.7969 L568,234.5 A2.5,2.5 0 0 1 565.5,237 L435.5,237 A2.5,2.5 0 0 1 433,234.5 L433,140.5 A2.5,2.5 0 0 1 435.5,138" fill="none" style="stroke:#000000;stroke-width:1.5;"/><line style="stroke:#000000;stroke-width:1.5;" x1="433" x2="565.0479" y1="160.2969" y2="160.2969"/><text fill="#000000" font-family="sans-serif" font-size="14" font-weight="bold" lengthAdjust="spacing" textLength="119.0479" x="437" y="152.9951">moduloUsuario</text></g><!--cluster moduloEmpleado--><g class="cluster" data-entity="moduloEmpleado" data-source-line="24" data-uid="ent0015" id="cluster_moduloEmpleado"><path d="M137.5,286 L274.665,286 A3.75,3.75 0 0 1 277.165,288.5 L284.165,308.2969 L284.5,308.2969 A2.5,2.5 0 0 1 287,310.7969 L287,382.5 A2.5,2.5 0 0 1 284.5,385 L137.5,385 A2.5,2.5 0 0 1 135,382.5 L135,288.5 A2.5,2.5 0 0 1 137.5,286" fill="none" style="stroke:#000000;stroke-width:1.5;"/><line style="stroke:#000000;stroke-width:1.5;" x1="135" x2="284.165" y1="308.2969" y2="308.2969"/><text fill="#000000" font-family="sans-serif" font-size="14" font-weight="bold" lengthAdjust="spacing" textLength="136.165" x="139" y="300.9951">moduloEmpleado</text></g><!--class Maquina--><g class="entity" data-entity="Maquina" data-source-line="2" data-uid="ent0003" id="entity_Maquina"><rect fill="#F1F1F1" height="48" rx="2.5" ry="2.5" style="stroke:#181818;stroke-width:0.5;" width="91.7598" x="386.12" y="41"/><ellipse cx="401.12" cy="57" fill="#ADD1B2" rx="11" ry="11" style="stroke:#181818;stroke-width:1;"/><path d="M404.0888,62.6406 Q403.5106,62.9375 402.87,63.0781 Q402.2294,63.2344 401.5263,63.2344 Q399.0263,63.2344 397.6981,61.5938 Q396.3856,59.9375 396.3856,56.8125 Q396.3856,53.6875 397.6981,52.0313 Q399.0263,50.375 401.5263,50.375 Q402.2294,50.375 402.87,50.5313 Q403.5263,50.6875 404.0888,50.9844 L404.0888,53.7031 Q403.4638,53.125 402.87,52.8594 Q402.2763,52.5781 401.6513,52.5781 Q400.3075,52.5781 399.62,53.6563 Q398.9325,54.7188 398.9325,56.8125 Q398.9325,58.9063 399.62,59.9844 Q400.3075,61.0469 401.6513,61.0469 Q402.2763,61.0469 402.87,60.7813 Q403.4638,60.5 404.0888,59.9219 L404.0888,62.6406 Z " fill="#000000"/><text fill="#000000" font-family="sans-serif" font-size="14" lengthAdjust="spacing" textLength="59.7598" x="415.12" y="61.8467">Maquina</text><line style="stroke:#181818;stroke-width:0.5;" x1="387.12" x2="476.8798" y1="73" y2="73"/><line style="stroke:#181818;stroke-width:0.5;" x1="387.12" x2="476.8798" y1="81" y2="81"/></g><!--class Celda--><g class="entity" data-entity="Celda" data-source-line="6" data-uid="ent0005" id="entity_Celda"><rect fill="#F1F1F1" height="48" rx="2.5" ry="2.5" style="stroke:#181818;stroke-width:0.5;" width="71.7441" x="47.13" y="469"/><ellipse cx="62.13" cy="485" fill="#ADD1B2" rx="11" ry="11" style="stroke:#181818;stroke-width:1;"/><path d="M65.0988,490.6406 Q64.5206,490.9375 63.88,491.0781 Q63.2394,491.2344 62.5363,491.2344 Q60.0363,491.2344 58.7081,489.5938 Q57.3956,487.9375 57.3956,484.8125 Q57.3956,481.6875 58.7081,480.0313 Q60.0363,478.375 62.5363,478.375 Q63.2394,478.375 63.88,478.5313 Q64.5363,478.6875 65.0988,478.9844 L65.0988,481.7031 Q64.4738,481.125 63.88,480.8594 Q63.2863,480.5781 62.6613,480.5781 Q61.3175,480.5781 60.63,481.6563 Q59.9425,482.7188 59.9425,484.8125 Q59.9425,486.9063 60.63,487.9844 Q61.3175,489.0469 62.6613,489.0469 Q63.2863,489.0469 63.88,488.7813 Q64.4738,488.5 65.0988,487.9219 L65.0988,490.6406 Z " fill="#000000"/><text fill="#000000" font-family="sans-serif" font-size="14" lengthAdjust="spacing" textLength="39.7441" x="76.13" y="489.8467">Celda</text><line style="stroke:#181818;stroke-width:0.5;" x1="48.13" x2="117.8741" y1="501" y2="501"/><line style="stroke:#181818;stroke-width:0.5;" x1="48.13" x2="117.8741" y1="509" y2="509"/></g><!--class Producto--><g class="entity" data-entity="Producto" data-source-line="7" data-uid="ent0006" id="entity_Producto"><rect fill="#F1F1F1" height="48" rx="2.5" ry="2.5" style="stroke:#181818;stroke-width:0.5;" width="94.2754" x="35.86" y="580"/><ellipse cx="50.86" cy="596" fill="#ADD1B2" rx="11" ry="11" style="stroke:#181818;stroke-width:1;"/><path d="M53.8288,601.6406 Q53.2506,601.9375 52.61,602.0781 Q51.9694,602.2344 51.2663,602.2344 Q48.7663,602.2344 47.4381,600.5938 Q46.1256,598.9375 46.1256,595.8125 Q46.1256,592.6875 47.4381,591.0313 Q48.7663,589.375 51.2663,589.375 Q51.9694,589.375 52.61,589.5313 Q53.2663,589.6875 53.8288,589.9844 L53.8288,592.7031 Q53.2038,592.125 52.61,591.8594 Q52.0163,591.5781 51.3913,591.5781 Q50.0475,591.5781 49.36,592.6563 Q48.6725,593.7188 48.6725,595.8125 Q48.6725,597.9063 49.36,598.9844 Q50.0475,600.0469 51.3913,600.0469 Q52.0163,600.0469 52.61,599.7813 Q53.2038,599.5 53.8288,598.9219 L53.8288,601.6406 Z " fill="#000000"/><text fill="#000000" font-family="sans-serif" font-size="14" lengthAdjust="spacing" textLength="62.2754" x="64.86" y="600.8467">Producto</text><line style="stroke:#181818;stroke-width:0.5;" x1="36.86" x2="129.1354" y1="612" y2="612"/><line style="stroke:#181818;stroke-width:0.5;" x1="36.86" x2="129.1354" y1="620" y2="620"/></g><!--class Caja--><g class="entity" data-entity="Caja" data-source-line="11" data-uid="ent0008" id="entity_Caja"><rect fill="#F1F1F1" height="48" rx="2.5" ry="2.5" style="stroke:#181818;stroke-width:0.5;" width="62.8232" x="331.59" y="469"/><ellipse cx="346.59" cy="485" fill="#ADD1B2" rx="11" ry="11" style="stroke:#181818;stroke-width:1;"/><path d="M349.5588,490.6406 Q348.9806,490.9375 348.34,491.0781 Q347.6994,491.2344 346.9963,491.2344 Q344.4963,491.2344 343.1681,489.5938 Q341.8556,487.9375 341.8556,484.8125 Q341.8556,481.6875 343.1681,480.0313 Q344.4963,478.375 346.9963,478.375 Q347.6994,478.375 348.34,478.5313 Q348.9963,478.6875 349.5588,478.9844 L349.5588,481.7031 Q348.9338,481.125 348.34,480.8594 Q347.7463,480.5781 347.1213,480.5781 Q345.7775,480.5781 345.09,481.6563 Q344.4025,482.7188 344.4025,484.8125 Q344.4025,486.9063 345.09,487.9844 Q345.7775,489.0469 347.1213,489.0469 Q347.7463,489.0469 348.34,488.7813 Q348.9338,488.5 349.5588,487.9219 L349.5588,490.6406 Z " fill="#000000"/><text fill="#000000" font-family="sans-serif" font-size="14" lengthAdjust="spacing" textLength="30.8232" x="360.59" y="489.8467">Caja</text><line style="stroke:#181818;stroke-width:0.5;" x1="332.59" x2="393.4132" y1="501" y2="501"/><line style="stroke:#181818;stroke-width:0.5;" x1="332.59" x2="393.4132" y1="509" y2="509"/></g><!--class Pago--><g class="entity" data-entity="Pago" data-source-line="15" data-uid="ent0010" id="entity_Pago"><rect fill="#F1F1F1" height="48" rx="2.5" ry="2.5" style="stroke:#181818;stroke-width:0.5;" width="66.4736" x="580.76" y="469"/><ellipse cx="595.76" cy="485" fill="#B4A7E5" rx="11" ry="11" style="stroke:#181818;stroke-width:1;"/><path d="M591.6819,480.7656 L591.6819,478.6094 L599.0725,478.6094 L599.0725,480.7656 L596.6038,480.7656 L596.6038,488.8438 L599.0725,488.8438 L599.0725,491 L591.6819,491 L591.6819,488.8438 L594.1506,488.8438 L594.1506,480.7656 L591.6819,480.7656 Z " fill="#000000"/><text fill="#000000" font-family="sans-serif" font-size="14" font-style="italic" lengthAdjust="spacing" textLength="34.4736" x="609.76" y="489.8467">Pago</text><line style="stroke:#181818;stroke-width:0.5;" x1="581.76" x2="646.2336" y1="501" y2="501"/><line style="stroke:#181818;stroke-width:0.5;" x1="581.76" x2="646.2336" y1="509" y2="509"/></g><!--class Efectivo--><g class="entity" data-entity="Efectivo" data-source-line="16" data-uid="ent0011" id="entity_Efectivo"><rect fill="#F1F1F1" height="48" rx="2.5" ry="2.5" style="stroke:#181818;stroke-width:0.5;" width="88.3145" x="449.84" y="321"/><ellipse cx="464.84" cy="337" fill="#ADD1B2" rx="11" ry="11" style="stroke:#181818;stroke-width:1;"/><path d="M467.8088,342.6406 Q467.2306,342.9375 466.59,343.0781 Q465.9494,343.2344 465.2463,343.2344 Q462.7463,343.2344 461.4181,341.5938 Q460.1056,339.9375 460.1056,336.8125 Q460.1056,333.6875 461.4181,332.0313 Q462.7463,330.375 465.2463,330.375 Q465.9494,330.375 466.59,330.5313 Q467.2463,330.6875 467.8088,330.9844 L467.8088,333.7031 Q467.1838,333.125 466.59,332.8594 Q465.9963,332.5781 465.3713,332.5781 Q464.0275,332.5781 463.34,333.6563 Q462.6525,334.7188 462.6525,336.8125 Q462.6525,338.9063 463.34,339.9844 Q464.0275,341.0469 465.3713,341.0469 Q465.9963,341.0469 466.59,340.7813 Q467.1838,340.5 467.8088,339.9219 L467.8088,342.6406 Z " fill="#000000"/><text fill="#000000" font-family="sans-serif" font-size="14" lengthAdjust="spacing" textLength="56.3145" x="478.84" y="341.8467">Efectivo</text><line style="stroke:#181818;stroke-width:0.5;" x1="450.84" x2="537.1545" y1="353" y2="353"/><line style="stroke:#181818;stroke-width:0.5;" x1="450.84" x2="537.1545" y1="361" y2="361"/></g><!--class Tarjeta--><g class="entity" data-entity="Tarjeta" data-source-line="17" data-uid="ent0012" id="entity_Tarjeta"><rect fill="#F1F1F1" height="48" rx="2.5" ry="2.5" style="stroke:#181818;stroke-width:0.5;" width="81.458" x="573.27" y="321"/><ellipse cx="588.27" cy="337" fill="#ADD1B2" rx="11" ry="11" style="stroke:#181818;stroke-width:1;"/><path d="M591.2388,342.6406 Q590.6606,342.9375 590.02,343.0781 Q589.3794,343.2344 588.6763,343.2344 Q586.1763,343.2344 584.8481,341.5938 Q583.5356,339.9375 583.5356,336.8125 Q583.5356,333.6875 584.8481,332.0313 Q586.1763,330.375 588.6763,330.375 Q589.3794,330.375 590.02,330.5313 Q590.6763,330.6875 591.2388,330.9844 L591.2388,333.7031 Q590.6138,333.125 590.02,332.8594 Q589.4263,332.5781 588.8013,332.5781 Q587.4575,332.5781 586.77,333.6563 Q586.0825,334.7188 586.0825,336.8125 Q586.0825,338.9063 586.77,339.9844 Q587.4575,341.0469 588.8013,341.0469 Q589.4263,341.0469 590.02,340.7813 Q590.6138,340.5 591.2388,339.9219 L591.2388,342.6406 Z " fill="#000000"/><text fill="#000000" font-family="sans-serif" font-size="14" lengthAdjust="spacing" textLength="49.458" x="602.27" y="341.8467">Tarjeta</text><line style="stroke:#181818;stroke-width:0.5;" x1="574.27" x2="653.728" y1="353" y2="353"/><line style="stroke:#181818;stroke-width:0.5;" x1="574.27" x2="653.728" y1="361" y2="361"/></g><!--class Usuario--><g class="entity" data-entity="Usuario" data-source-line="21" data-uid="ent0014" id="entity_Usuario"><rect fill="#F1F1F1" height="48" rx="2.5" ry="2.5" style="stroke:#181818;stroke-width:0.5;" width="85.2041" x="451.4" y="173"/><ellipse cx="466.4" cy="189" fill="#ADD1B2" rx="11" ry="11" style="stroke:#181818;stroke-width:1;"/><path d="M469.3688,194.6406 Q468.7906,194.9375 468.15,195.0781 Q467.5094,195.2344 466.8063,195.2344 Q464.3063,195.2344 462.9781,193.5938 Q461.6656,191.9375 461.6656,188.8125 Q461.6656,185.6875 462.9781,184.0313 Q464.3063,182.375 466.8063,182.375 Q467.5094,182.375 468.15,182.5313 Q468.8063,182.6875 469.3688,182.9844 L469.3688,185.7031 Q468.7438,185.125 468.15,184.8594 Q467.5563,184.5781 466.9313,184.5781 Q465.5875,184.5781 464.9,185.6563 Q464.2125,186.7188 464.2125,188.8125 Q464.2125,190.9063 464.9,191.9844 Q465.5875,193.0469 466.9313,193.0469 Q467.5563,193.0469 468.15,192.7813 Q468.7438,192.5 469.3688,191.9219 L469.3688,194.6406 Z " fill="#000000"/><text fill="#000000" font-family="sans-serif" font-size="14" lengthAdjust="spacing" textLength="53.2041" x="480.4" y="193.8467">Usuario</text><line style="stroke:#181818;stroke-width:0.5;" x1="452.4" x2="535.6041" y1="205" y2="205"/><line style="stroke:#181818;stroke-width:0.5;" x1="452.4" x2="535.6041" y1="213" y2="213"/></g><!--class Empleado--><g class="entity" data-entity="Empleado" data-source-line="25" data-uid="ent0016" id="entity_Empleado"><rect fill="#F1F1F1" height="48" rx="2.5" ry="2.5" style="stroke:#181818;stroke-width:0.5;" width="101.9043" x="160.05" y="321"/><ellipse cx="175.05" cy="337" fill="#ADD1B2" rx="11" ry="11" style="stroke:#181818;stroke-width:1;"/><path d="M178.0188,342.6406 Q177.4406,342.9375 176.8,343.0781 Q176.1594,343.2344 175.4563,343.2344 Q172.9563,343.2344 171.6281,341.5938 Q170.3156,339.9375 170.3156,336.8125 Q170.3156,333.6875 171.6281,332.0313 Q172.9563,330.375 175.4563,330.375 Q176.1594,330.375 176.8,330.5313 Q177.4563,330.6875 178.0188,330.9844 L178.0188,333.7031 Q177.3938,333.125 176.8,332.8594 Q176.2063,332.5781 175.5813,332.5781 Q174.2375,332.5781 173.55,333.6563 Q172.8625,334.7188 172.8625,336.8125 Q172.8625,338.9063 173.55,339.9844 Q174.2375,341.0469 175.5813,341.0469 Q176.2063,341.0469 176.8,340.7813 Q177.3938,340.5 178.0188,339.9219 L178.0188,342.6406 Z " fill="#000000"/><text fill="#000000" font-family="sans-serif" font-size="14" lengthAdjust="spacing" textLength="69.9043" x="189.05" y="341.8467">Empleado</text><line style="stroke:#181818;stroke-width:0.5;" x1="161.05" x2="260.9543" y1="353" y2="353"/><line style="stroke:#181818;stroke-width:0.5;" x1="161.05" x2="260.9543" y1="361" y2="361"/></g><!--reverse link Maquina to Celda--><g class="link" data-entity-1="Maquina" data-entity-2="Celda" data-source-line="28" data-uid="lnk17" id="link_Maquina_Celda"><path codeLine="28" d="M375.9174,95.1301 C313.6574,129.1201 212.47,191.85 144,278 C106.96,324.6 105.57,343.28 91,401 C85.29,423.6 83.5,450.25 83.01,468.85" fill="none" id="Maquina-backto-Celda" style="stroke:#181818;stroke-width:1;"/><polygon fill="none" points="386.45,89.38,379.267,88.7442,375.9174,95.1301,383.1004,95.7659,386.45,89.38" style="stroke:#181818;stroke-width:1;"/><text fill="#000000" font-family="sans-serif" font-size="13" lengthAdjust="spacing" textLength="56.2847" x="164" y="266.0669">contiene</text><text fill="#000000" font-family="sans-serif" font-size="13" lengthAdjust="spacing" textLength="23.0356" x="57.0697" y="457.8236">1..*</text></g><!--reverse link Maquina to Caja--><g class="link" data-entity-1="Maquina" data-entity-2="Caja" data-source-line="29" data-uid="lnk18" id="link_Maquina_Caja"><path codeLine="29" d="M426.2833,101.3259 C417.1333,157.8759 395.05,294.25 375,418 C372.25,434.96 369.15,454.1 366.78,468.67" fill="none" id="Maquina-backto-Caja" style="stroke:#181818;stroke-width:1;"/><polygon fill="none" points="428.2,89.48,423.293,94.7641,426.2833,101.3259,431.1903,96.0419,428.2,89.48" style="stroke:#181818;stroke-width:1;"/></g><!--link Maquina to Usuario--><g class="link" data-entity-1="Maquina" data-entity-2="Usuario" data-source-line="30" data-uid="lnk19" id="link_Maquina_Usuario"><path codeLine="30" d="M443.08,89.24 C454.3,112.76 468.9682,143.5039 480.2182,167.1039" fill="none" id="Maquina-to-Usuario" style="stroke:#181818;stroke-width:1;"/><polygon fill="#181818" points="482.8,172.52,482.538,162.6746,480.6485,168.0066,475.3165,166.1171,482.8,172.52" style="stroke:#181818;stroke-width:1;"/></g><!--link Maquina to Pago--><g class="link" data-entity-1="Maquina" data-entity-2="Pago" data-source-line="31" data-uid="lnk20" id="link_Maquina_Pago"><path codeLine="31" d="M478.37,85.08 C502.11,96.14 530.64,111.54 553,130 C618.09,183.73 643.96,198.39 672,278 C688.98,326.21 685.39,343.67 672,393 C664.33,421.26 649.8855,444.8623 635.9555,463.9623" fill="none" id="Maquina-to-Pago" style="stroke:#181818;stroke-width:1;stroke-dasharray:7.0,7.0;"/><polygon fill="#181818" points="632.42,468.81,640.9551,463.8955,635.3663,464.7703,634.4915,459.1815,632.42,468.81" style="stroke:#181818;stroke-width:1;"/></g><!--reverse link Celda to Producto--><g class="link" data-entity-1="Celda" data-entity-2="Producto" data-source-line="33" data-uid="lnk21" id="link_Celda_Producto"><path codeLine="33" d="M83,529.38 C83,547.77 83,561.27 83,579.66" fill="none" id="Celda-backto-Producto" style="stroke:#181818;stroke-width:1;"/><polygon fill="#181818" points="83,517.38,79,523.38,83,529.38,87,523.38,83,517.38" style="stroke:#181818;stroke-width:1;"/></g><!--link Efectivo to Caja--><g class="link" data-entity-1="Efectivo" data-entity-2="Caja" data-source-line="34" data-uid="lnk22" id="link_Efectivo_Caja"><path codeLine="34" d="M472.95,369.46 C448.51,396.7 412.4267,436.9139 388.0067,464.1339" fill="none" id="Efectivo-to-Caja" style="stroke:#181818;stroke-width:1;stroke-dasharray:7.0,7.0;"/><polygon fill="#181818" points="384,468.6,392.9875,464.572,387.3389,464.8782,387.0327,459.2297,384,468.6" style="stroke:#181818;stroke-width:1;"/></g><!--reverse link Usuario to Tarjeta--><g class="link" data-entity-1="Usuario" data-entity-2="Tarjeta" data-source-line="35" data-uid="lnk23" id="link_Usuario_Tarjeta"><path codeLine="35" d="M520.8998,230.7303 C543.2898,257.9703 572.39,293.38 594.77,320.6" fill="none" id="Usuario-backto-Tarjeta" style="stroke:#181818;stroke-width:1;"/><polygon fill="none" points="513.28,221.46,513.9998,228.6351,520.8998,230.7303,520.18,223.5552,513.28,221.46" style="stroke:#181818;stroke-width:1;"/></g><!--reverse link Usuario to Efectivo--><g class="link" data-entity-1="Usuario" data-entity-2="Efectivo" data-source-line="36" data-uid="lnk24" id="link_Usuario_Efectivo"><path codeLine="36" d="M494,233.46 C494,260.7 494,293.38 494,320.6" fill="none" id="Usuario-backto-Efectivo" style="stroke:#181818;stroke-width:1;"/><polygon fill="none" points="494,221.46,490,227.46,494,233.46,498,227.46,494,221.46" style="stroke:#181818;stroke-width:1;"/></g><!--link Empleado to Caja--><g class="link" data-entity-1="Empleado" data-entity-2="Caja" data-source-line="38" data-uid="lnk25" id="link_Empleado_Caja"><path codeLine="38" d="M224.69,369.17 C234.11,384.04 247.49,403.26 262,418 C282.89,439.23 305.3274,455.6477 326.3374,469.3777" fill="none" id="Empleado-to-Caja" style="stroke:#181818;stroke-width:1;stroke-dasharray:7.0,7.0;"/><polygon fill="#181818" points="331.36,472.66,326.0143,464.3882,327.1745,469.9248,321.6379,471.085,331.36,472.66" style="stroke:#181818;stroke-width:1;"/><text fill="#000000" font-family="sans-serif" font-size="13" lengthAdjust="spacing" textLength="107.7388" x="263" y="414.0669">recargar / vaciar</text></g><!--link Empleado to Celda--><g class="link" data-entity-1="Empleado" data-entity-2="Celda" data-source-line="39" data-uid="lnk26" id="link_Empleado_Celda"><path codeLine="39" d="M159.69,363.9 C141.4,372.56 122.11,384.69 109,401 C93.35,420.46 87.8624,442.9361 85.3824,462.8261" fill="none" id="Empleado-to-Celda" style="stroke:#181818;stroke-width:1;stroke-dasharray:7.0,7.0;"/><polygon fill="#181818" points="84.64,468.78,89.7228,460.3441,85.2586,463.8184,81.7843,459.3542,84.64,468.78" style="stroke:#181818;stroke-width:1;"/><text fill="#000000" font-family="sans-serif" font-size="13" lengthAdjust="spacing" textLength="111.1665" x="110" y="414.0669">cargar productos</text></g><!--link Tarjeta to Pago--><g class="link" data-entity-1="Tarjeta" data-entity-2="Pago" data-source-line="41" data-uid="lnk27" id="link_Tarjeta_Pago"><path codeLine="41" d="M614,369.46 C614,396.7 614,423.38 614,450.6" fill="none" id="Tarjeta-to-Pago" style="stroke:#181818;stroke-width:1;stroke-dasharray:7.0,7.0;"/><polygon fill="none" points="614,468.6,620,450.6,608,450.6,614,468.6" style="stroke:#181818;stroke-width:1;"/></g><!--link Efectivo to Pago--><g class="link" data-entity-1="Efectivo" data-entity-2="Pago" data-source-line="42" data-uid="lnk28" id="link_Efectivo_Pago"><path codeLine="42" d="M513.28,369.46 C535.67,396.7 560.9584,427.4761 583.3384,454.6961" fill="none" id="Efectivo-to-Pago" style="stroke:#181818;stroke-width:1;stroke-dasharray:7.0,7.0;"/><polygon fill="none" points="594.77,468.6,587.973,450.8856,578.7037,458.5067,594.77,468.6" style="stroke:#181818;stroke-width:1;"/></g><!--SRC=[RP2z3i8m38JtF8NLiLABM1cw80O690Pu02jrgq19Iffs0TwT_ZYXHHrz-iw-SutoZYL1z31vMvaJFbkbCOAN090LDWsm93v2r4lug3lI3gqoStvFLOvXEjiUbSwisFTuMnmQvXNiZ2NlLzgHBL0I35hm7GgIJdK_uOBsHcvjrxLf_-Eoj08V7dL5c2zehmquFmPCaa2qJTCuchh33gJHJf6c1JFsyqAIPE6qrz8qcvg9QK_ScyB_VCkH6bUnVTpjAy-ry1VXKmTl7z6IH5kYXGrqA1NQFyetcQ2QOpH2yAcUUdFSMJIMlW00]--></g></svg>