<?xml version="1.0" encoding="us-ascii" standalone="no"?><svg xmlns="http://www.w3.org/2000/svg" xmlns:xlink="http://www.w3.org/1999/xlink" contentStyleType="text/css" height="447px" preserveAspectRatio="none" style="width:353px;height:447px;background:#FFFFFF;" version="1.1" viewBox="0 0 353 447" width="353px" zoomAndPan="magnify"><defs/><g><!--class Maquina--><g id="elem_Maquina"><rect codeLine="4" fill="#F1F1F1" height="27.6094" id="Maquina" rx="2.5" ry="2.5" style="stroke:#181818;stroke-width:0.5;" width="60" x="229" y="7"/><text fill="#000000" font-family="sans-serif" font-size="14" lengthAdjust="spacing" textLength="54" x="232" y="26.5332">Maquina</text></g><!--class Pago--><g id="elem_Pago"><rect codeLine="5" fill="#F1F1F1" height="27.6094" id="Pago" rx="2.5" ry="2.5" style="stroke:#181818;stroke-width:0.5;" width="39" x="90.5" y="308"/><text fill="#000000" font-family="sans-serif" font-size="14" lengthAdjust="spacing" textLength="33" x="93.5" y="327.5332">Pago</text></g><!--class PagoTarjeta--><g id="elem_PagoTarjeta"><rect codeLine="6" fill="#F1F1F1" height="27.6094" id="PagoTarjeta" rx="2.5" ry="2.5" style="stroke:#181818;stroke-width:0.5;" width="84" x="7" y="414"/><text fill="#000000" font-family="sans-serif" font-size="14" lengthAdjust="spacing" textLength="78" x="10" y="433.5332">PagoTarjeta</text></g><!--class PagoEfectivo--><g id="elem_PagoEfectivo"><rect codeLine="7" fill="#F1F1F1" height="27.6094" id="PagoEfectivo" rx="2.5" ry="2.5" style="stroke:#181818;stroke-width:0.5;" width="89" x="126.5" y="414"/><text fill="#000000" font-family="sans-serif" font-size="14" lengthAdjust="spacing" textLength="83" x="129.5" y="433.5332">PagoEfectivo</text></g><!--class Usuario--><g id="elem_Usuario"><rect codeLine="8" fill="#F1F1F1" height="27.6094" id="Usuario" rx="2.5" ry="2.5" style="stroke:#181818;stroke-width:0.5;" width="54" x="83" y="202"/><text fill="#000000" font-family="sans-serif" font-size="14" lengthAdjust="spacing" textLength="48" x="86" y="221.5332">Usuario</text></g><!--class Productos--><g id="elem_Productos"><rect codeLine="9" fill="#F1F1F1" height="27.6094" id="Productos" rx="2.5" ry="2.5" style="stroke:#181818;stroke-width:0.5;" width="70" x="172" y="202"/><text fill="#000000" font-family="sans-serif" font-size="14" lengthAdjust="spacing" textLength="64" x="175" y="221.5332">Productos</text></g><!--class Celdas--><g id="elem_Celdas"><rect codeLine="10" fill="#F1F1F1" height="27.6094" id="Celdas" rx="2.5" ry="2.5" style="stroke:#181818;stroke-width:0.5;" width="50" x="182" y="96"/><text fill="#000000" font-family="sans-serif" font-size="14" lengthAdjust="spacing" textLength="44" x="185" y="115.5332">Celdas</text></g><!--class Empleado--><g id="elem_Empleado"><rect codeLine="11" fill="#F1F1F1" height="27.6094" id="Empleado" rx="2.5" ry="2.5" style="stroke:#181818;stroke-width:0.5;" width="69" x="277.5" y="202"/><text fill="#000000" font-family="sans-serif" font-size="14" lengthAdjust="spacing" textLength="63" x="280.5" y="221.5332">Empleado</text></g><!--reverse link Maquina to Celdas--><g id="link_Maquina_Celdas"><path codeLine="13" d="M244.9445,45.5109 C235.1145,61.9609 224.59,79.58 214.8,95.95 " fill="none" id="Maquina-backto-Celdas" style="stroke:#181818;stroke-width:1.0;"/><polygon fill="#181818" points="251.1,35.21,244.5886,38.3086,244.9445,45.5109,251.4559,42.4123,251.1,35.21" style="stroke:#181818;stroke-width:1.0;"/></g><!--reverse link Celdas to Productos--><g id="link_Celdas_Productos"><path codeLine="14" d="M207,136.17 C207,156.18 207,181.99 207,201.94 " fill="none" id="Celdas-backto-Productos" style="stroke:#181818;stroke-width:1.0;"/><polygon fill="none" points="207,124.17,203,130.17,207,136.17,211,130.17,207,124.17" style="stroke:#181818;stroke-width:1.0;"/></g><!--reverse link Celdas to Usuario--><g id="link_Celdas_Usuario"><path codeLine="15" d="M176.4331,123.6391 C161.1431,130.8491 147.63,139.32 135,154 C123.05,167.88 116.27,188.24 112.87,201.55 " fill="none" id="Celdas-backto-Usuario" style="stroke:#181818;stroke-width:1.0;"/><polygon fill="#181818" points="181.86,121.08,172.0136,121.3006,177.3376,123.2125,175.4257,128.5365,181.86,121.08" style="stroke:#181818;stroke-width:1.0;"/><text fill="#000000" font-family="sans-serif" font-size="13" lengthAdjust="spacing" textLength="62" x="136" y="168.4951">selecciona</text></g><!--link Usuario to Pago--><g id="link_Usuario_Pago"><path codeLine="16" d="M110,230.17 C110,250.18 110,281.99 110,301.94 " fill="none" id="Usuario-to-Pago" style="stroke:#181818;stroke-width:1.0;"/><polygon fill="#181818" points="110,307.94,114,298.94,110,302.94,106,298.94,110,307.94" style="stroke:#181818;stroke-width:1.0;"/><text fill="#000000" font-family="sans-serif" font-size="13" lengthAdjust="spacing" textLength="42" x="111" y="274.4951">efectua</text></g><!--reverse link Maquina to Empleado--><g id="link_Maquina_Empleado"><path codeLine="17" d="M264.2296,41.0556 C273.9396,76.3956 298.75,166.74 308.4,201.9 " fill="none" id="Maquina-backto-Empleado" style="stroke:#181818;stroke-width:1.0;stroke-dasharray:7.0,7.0;"/><polygon fill="#181818" points="262.64,35.27,261.1674,45.0081,263.9647,40.0913,268.8815,42.8886,262.64,35.27" style="stroke:#181818;stroke-width:1.0;"/><text fill="#000000" font-family="sans-serif" font-size="13" lengthAdjust="spacing" textLength="53" x="287" y="115.4951">abastece</text></g><!--link Pago to PagoEfectivo--><g id="link_Pago_PagoEfectivo"><path codeLine="18" d="M117.73,336.17 C129.46,356.18 148.6047,388.8144 160.3047,408.7644 " fill="none" id="Pago-to-PagoEfectivo" style="stroke:#181818;stroke-width:1.0;"/><polygon fill="#181818" points="163.34,413.94,162.2374,404.1531,160.8106,409.627,155.3366,408.2001,163.34,413.94" style="stroke:#181818;stroke-width:1.0;"/><text fill="#000000" font-family="sans-serif" font-size="13" lengthAdjust="spacing" textLength="42" x="146" y="380.4951">maneja</text></g><!--link Pago to PagoTarjeta--><g id="link_Pago_PagoTarjeta"><path codeLine="19" d="M102.27,336.17 C90.54,356.18 71.3953,388.8144 59.6953,408.7644 " fill="none" id="Pago-to-PagoTarjeta" style="stroke:#181818;stroke-width:1.0;"/><polygon fill="#181818" points="56.66,413.94,64.6634,408.2001,59.1894,409.627,57.7626,404.1531,56.66,413.94" style="stroke:#181818;stroke-width:1.0;"/><text fill="#000000" font-family="sans-serif" font-size="13" lengthAdjust="spacing" textLength="42" x="85" y="380.4951">maneja</text></g><!--SRC=[LP313i8W38RlF4NF9km1FEnYTZJnu1wWW-fOO4mA9hwzJC7D4st_htzRHgC9o2tn1OxSG875k9QK2SeI2w4iCiCP7ydCMB8Btlqkl6AOAEx5xaOgccU5UauOpAybU9rKz5po4rcDDUdSOWcr5wACX8EK5Va-u7DbCodc87lP5X2Em6H9AUEpmKPaODqkoxGkcB9Mvq7JDqrRxym43iYH58bFHssjXsN0uKmJ_ilb9pRr3G00]--></g></svg>