<?xml version="1.0" encoding="us-ascii" standalone="no"?><svg xmlns="http://www.w3.org/2000/svg" xmlns:xlink="http://www.w3.org/1999/xlink" contentStyleType="text/css" height="1275px" preserveAspectRatio="none" style="width:1692px;height:1275px;background:#FFFFFF;" version="1.1" viewBox="0 0 1692 1275" width="1692px" zoomAndPan="magnify"><defs/><g><!--cluster moduloMaquina--><g id="cluster_moduloMaquina"><path d="M841.5,6 L954.5,6 A3.75,3.75 0 0 1 957,8.5 L964,29.6094 L1223.5,29.6094 A2.5,2.5 0 0 1 1226,32.1094 L1226,498.5 A2.5,2.5 0 0 1 1223.5,501 L841.5,501 A2.5,2.5 0 0 1 839,498.5 L839,8.5 A2.5,2.5 0 0 1 841.5,6 " fill="none" style="stroke:#000000;stroke-width:1.5;"/><line style="stroke:#000000;stroke-width:1.5;" x1="839" x2="964" y1="29.6094" y2="29.6094"/><text fill="#000000" font-family="sans-serif" font-size="14" font-weight="bold" lengthAdjust="spacing" textLength="112" x="843" y="22.5332">moduloMaquina</text></g><!--cluster modelo--><g id="cluster_modelo"><path d="M888.5,377 L941.5,377 A3.75,3.75 0 0 1 944,379.5 L951,400.6094 L1001.5,400.6094 A2.5,2.5 0 0 1 1004,403.1094 L1004,474.5 A2.5,2.5 0 0 1 1001.5,477 L888.5,477 A2.5,2.5 0 0 1 886,474.5 L886,379.5 A2.5,2.5 0 0 1 888.5,377 " fill="none" style="stroke:#000000;stroke-width:1.5;"/><line style="stroke:#000000;stroke-width:1.5;" x1="886" x2="951" y1="400.6094" y2="400.6094"/><text fill="#000000" font-family="sans-serif" font-size="14" font-weight="bold" lengthAdjust="spacing" textLength="52" x="890" y="393.5332">modelo</text></g><!--cluster vista--><g id="cluster_vista"><path d="M887.5,50 L922.5,50 A3.75,3.75 0 0 1 925,52.5 L932,73.6094 L1032.5,73.6094 A2.5,2.5 0 0 1 1035,76.1094 L1035,147.5 A2.5,2.5 0 0 1 1032.5,150 L887.5,150 A2.5,2.5 0 0 1 885,147.5 L885,52.5 A2.5,2.5 0 0 1 887.5,50 " fill="none" style="stroke:#000000;stroke-width:1.5;"/><line style="stroke:#000000;stroke-width:1.5;" x1="885" x2="932" y1="73.6094" y2="73.6094"/><text fill="#000000" font-family="sans-serif" font-size="14" font-weight="bold" lengthAdjust="spacing" textLength="34" x="889" y="66.5332">vista</text></g><!--cluster controlador--><g id="cluster_controlador"><path d="M865.5,227 L948.5,227 A3.75,3.75 0 0 1 951,229.5 L958,250.6094 L1054.5,250.6094 A2.5,2.5 0 0 1 1057,253.1094 L1057,324.5 A2.5,2.5 0 0 1 1054.5,327 L865.5,327 A2.5,2.5 0 0 1 863,324.5 L863,229.5 A2.5,2.5 0 0 1 865.5,227 " fill="none" style="stroke:#000000;stroke-width:1.5;"/><line style="stroke:#000000;stroke-width:1.5;" x1="863" x2="958" y1="250.6094" y2="250.6094"/><text fill="#000000" font-family="sans-serif" font-size="14" font-weight="bold" lengthAdjust="spacing" textLength="82" x="867" y="243.5332">controlador</text></g><!--cluster moduloInventario--><g id="cluster_moduloInventario"><path d="M1253.5,183 L1378.5,183 A3.75,3.75 0 0 1 1381,185.5 L1388,206.6094 L1682.5,206.6094 A2.5,2.5 0 0 1 1685,209.1094 L1685,917.5 A2.5,2.5 0 0 1 1682.5,920 L1253.5,920 A2.5,2.5 0 0 1 1251,917.5 L1251,185.5 A2.5,2.5 0 0 1 1253.5,183 " fill="none" style="stroke:#000000;stroke-width:1.5;"/><line style="stroke:#000000;stroke-width:1.5;" x1="1251" x2="1388" y1="206.6094" y2="206.6094"/><text fill="#000000" font-family="sans-serif" font-size="14" font-weight="bold" lengthAdjust="spacing" textLength="124" x="1255" y="199.5332">moduloInventario</text></g><!--cluster modelo--><g id="cluster_modelo"><path d="M1277.5,595 L1330.5,595 A3.75,3.75 0 0 1 1333,597.5 L1340,618.6094 L1394.5,618.6094 A2.5,2.5 0 0 1 1397,621.1094 L1397,893.5 A2.5,2.5 0 0 1 1394.5,896 L1277.5,896 A2.5,2.5 0 0 1 1275,893.5 L1275,597.5 A2.5,2.5 0 0 1 1277.5,595 " fill="none" style="stroke:#000000;stroke-width:1.5;"/><line style="stroke:#000000;stroke-width:1.5;" x1="1275" x2="1340" y1="618.6094" y2="618.6094"/><text fill="#000000" font-family="sans-serif" font-size="14" font-weight="bold" lengthAdjust="spacing" textLength="52" x="1279" y="611.5332">modelo</text></g><!--cluster vista--><g id="cluster_vista"><path d="M1277.5,227 L1312.5,227 A3.75,3.75 0 0 1 1315,229.5 L1322,250.6094 L1432.5,250.6094 A2.5,2.5 0 0 1 1435,253.1094 L1435,474.5 A2.5,2.5 0 0 1 1432.5,477 L1277.5,477 A2.5,2.5 0 0 1 1275,474.5 L1275,229.5 A2.5,2.5 0 0 1 1277.5,227 " fill="none" style="stroke:#000000;stroke-width:1.5;"/><line style="stroke:#000000;stroke-width:1.5;" x1="1275" x2="1322" y1="250.6094" y2="250.6094"/><text fill="#000000" font-family="sans-serif" font-size="14" font-weight="bold" lengthAdjust="spacing" textLength="34" x="1279" y="243.5332">vista</text></g><!--cluster controlador--><g id="cluster_controlador"><path d="M1461.5,377 L1544.5,377 A3.75,3.75 0 0 1 1547,379.5 L1554,400.6094 L1658.5,400.6094 A2.5,2.5 0 0 1 1661,403.1094 L1661,474.5 A2.5,2.5 0 0 1 1658.5,477 L1461.5,477 A2.5,2.5 0 0 1 1459,474.5 L1459,379.5 A2.5,2.5 0 0 1 1461.5,377 " fill="none" style="stroke:#000000;stroke-width:1.5;"/><line style="stroke:#000000;stroke-width:1.5;" x1="1459" x2="1554" y1="400.6094" y2="400.6094"/><text fill="#000000" font-family="sans-serif" font-size="14" font-weight="bold" lengthAdjust="spacing" textLength="82" x="1463" y="393.5332">controlador</text></g><!--cluster moduloCaja--><g id="cluster_moduloCaja"><path d="M893.5,551 L976.5,551 A3.75,3.75 0 0 1 979,553.5 L986,574.6094 L1104.5,574.6094 A2.5,2.5 0 0 1 1107,577.1094 L1107,1091.5 A2.5,2.5 0 0 1 1104.5,1094 L893.5,1094 A2.5,2.5 0 0 1 891,1091.5 L891,553.5 A2.5,2.5 0 0 1 893.5,551 " fill="none" style="stroke:#000000;stroke-width:1.5;"/><line style="stroke:#000000;stroke-width:1.5;" x1="891" x2="986" y1="574.6094" y2="574.6094"/><text fill="#000000" font-family="sans-serif" font-size="14" font-weight="bold" lengthAdjust="spacing" textLength="82" x="895" y="567.5332">moduloCaja</text></g><!--cluster modelo--><g id="cluster_modelo"><path d="M917.5,970 L970.5,970 A3.75,3.75 0 0 1 973,972.5 L980,993.6094 L1006.5,993.6094 A2.5,2.5 0 0 1 1009,996.1094 L1009,1067.5 A2.5,2.5 0 0 1 1006.5,1070 L917.5,1070 A2.5,2.5 0 0 1 915,1067.5 L915,972.5 A2.5,2.5 0 0 1 917.5,970 " fill="none" style="stroke:#000000;stroke-width:1.5;"/><line style="stroke:#000000;stroke-width:1.5;" x1="915" x2="980" y1="993.6094" y2="993.6094"/><text fill="#000000" font-family="sans-serif" font-size="14" font-weight="bold" lengthAdjust="spacing" textLength="52" x="919" y="986.5332">modelo</text></g><!--cluster vista--><g id="cluster_vista"><path d="M938.5,595 L973.5,595 A3.75,3.75 0 0 1 976,597.5 L983,618.6094 L1057.5,618.6094 A2.5,2.5 0 0 1 1060,621.1094 L1060,692.5 A2.5,2.5 0 0 1 1057.5,695 L938.5,695 A2.5,2.5 0 0 1 936,692.5 L936,597.5 A2.5,2.5 0 0 1 938.5,595 " fill="none" style="stroke:#000000;stroke-width:1.5;"/><line style="stroke:#000000;stroke-width:1.5;" x1="936" x2="983" y1="618.6094" y2="618.6094"/><text fill="#000000" font-family="sans-serif" font-size="14" font-weight="bold" lengthAdjust="spacing" textLength="34" x="940" y="611.5332">vista</text></g><!--cluster controlador--><g id="cluster_controlador"><path d="M917.5,796 L1000.5,796 A3.75,3.75 0 0 1 1003,798.5 L1010,819.6094 L1080.5,819.6094 A2.5,2.5 0 0 1 1083,822.1094 L1083,893.5 A2.5,2.5 0 0 1 1080.5,896 L917.5,896 A2.5,2.5 0 0 1 915,893.5 L915,798.5 A2.5,2.5 0 0 1 917.5,796 " fill="none" style="stroke:#000000;stroke-width:1.5;"/><line style="stroke:#000000;stroke-width:1.5;" x1="915" x2="1010" y1="819.6094" y2="819.6094"/><text fill="#000000" font-family="sans-serif" font-size="14" font-weight="bold" lengthAdjust="spacing" textLength="82" x="919" y="812.5332">controlador</text></g><!--cluster moduloPago--><g id="cluster_moduloPago"><path d="M282.5,183 L370.5,183 A3.75,3.75 0 0 1 373,185.5 L380,206.6094 L552.5,206.6094 A2.5,2.5 0 0 1 555,209.1094 L555,917.5 A2.5,2.5 0 0 1 552.5,920 L282.5,920 A2.5,2.5 0 0 1 280,917.5 L280,185.5 A2.5,2.5 0 0 1 282.5,183 " fill="none" style="stroke:#000000;stroke-width:1.5;"/><line style="stroke:#000000;stroke-width:1.5;" x1="280" x2="380" y1="206.6094" y2="206.6094"/><text fill="#000000" font-family="sans-serif" font-size="14" font-weight="bold" lengthAdjust="spacing" textLength="87" x="284" y="199.5332">moduloPago</text></g><!--cluster modelo--><g id="cluster_modelo"><path d="M306.5,595 L359.5,595 A3.75,3.75 0 0 1 362,597.5 L369,618.6094 L528.5,618.6094 A2.5,2.5 0 0 1 531,621.1094 L531,893.5 A2.5,2.5 0 0 1 528.5,896 L306.5,896 A2.5,2.5 0 0 1 304,893.5 L304,597.5 A2.5,2.5 0 0 1 306.5,595 " fill="none" style="stroke:#000000;stroke-width:1.5;"/><line style="stroke:#000000;stroke-width:1.5;" x1="304" x2="369" y1="618.6094" y2="618.6094"/><text fill="#000000" font-family="sans-serif" font-size="14" font-weight="bold" lengthAdjust="spacing" textLength="52" x="308" y="611.5332">modelo</text></g><!--cluster vista--><g id="cluster_vista"><path d="M343.5,227 L378.5,227 A3.75,3.75 0 0 1 381,229.5 L388,250.6094 L466.5,250.6094 A2.5,2.5 0 0 1 469,253.1094 L469,324.5 A2.5,2.5 0 0 1 466.5,327 L343.5,327 A2.5,2.5 0 0 1 341,324.5 L341,229.5 A2.5,2.5 0 0 1 343.5,227 " fill="none" style="stroke:#000000;stroke-width:1.5;"/><line style="stroke:#000000;stroke-width:1.5;" x1="341" x2="388" y1="250.6094" y2="250.6094"/><text fill="#000000" font-family="sans-serif" font-size="14" font-weight="bold" lengthAdjust="spacing" textLength="34" x="345" y="243.5332">vista</text></g><!--cluster controlador--><g id="cluster_controlador"><path d="M321.5,377 L404.5,377 A3.75,3.75 0 0 1 407,379.5 L414,400.6094 L488.5,400.6094 A2.5,2.5 0 0 1 491,403.1094 L491,474.5 A2.5,2.5 0 0 1 488.5,477 L321.5,477 A2.5,2.5 0 0 1 319,474.5 L319,379.5 A2.5,2.5 0 0 1 321.5,377 " fill="none" style="stroke:#000000;stroke-width:1.5;"/><line style="stroke:#000000;stroke-width:1.5;" x1="319" x2="414" y1="400.6094" y2="400.6094"/><text fill="#000000" font-family="sans-serif" font-size="14" font-weight="bold" lengthAdjust="spacing" textLength="82" x="323" y="393.5332">controlador</text></g><!--cluster moduloUsuario--><g id="cluster_moduloUsuario"><path d="M581.5,6 L688.5,6 A3.75,3.75 0 0 1 691,8.5 L698,29.6094 L812.5,29.6094 A2.5,2.5 0 0 1 815,32.1094 L815,716.5 A2.5,2.5 0 0 1 812.5,719 L581.5,719 A2.5,2.5 0 0 1 579,716.5 L579,8.5 A2.5,2.5 0 0 1 581.5,6 " fill="none" style="stroke:#000000;stroke-width:1.5;"/><line style="stroke:#000000;stroke-width:1.5;" x1="579" x2="698" y1="29.6094" y2="29.6094"/><text fill="#000000" font-family="sans-serif" font-size="14" font-weight="bold" lengthAdjust="spacing" textLength="106" x="583" y="22.5332">moduloUsuario</text></g><!--cluster modelo--><g id="cluster_modelo"><path d="M624.5,595 L677.5,595 A3.75,3.75 0 0 1 680,597.5 L687,618.6094 L731.5,618.6094 A2.5,2.5 0 0 1 734,621.1094 L734,692.5 A2.5,2.5 0 0 1 731.5,695 L624.5,695 A2.5,2.5 0 0 1 622,692.5 L622,597.5 A2.5,2.5 0 0 1 624.5,595 " fill="none" style="stroke:#000000;stroke-width:1.5;"/><line style="stroke:#000000;stroke-width:1.5;" x1="622" x2="687" y1="618.6094" y2="618.6094"/><text fill="#000000" font-family="sans-serif" font-size="14" font-weight="bold" lengthAdjust="spacing" textLength="52" x="626" y="611.5332">modelo</text></g><!--cluster vista--><g id="cluster_vista"><path d="M626.5,50 L661.5,50 A3.75,3.75 0 0 1 664,52.5 L671,73.6094 L767.5,73.6094 A2.5,2.5 0 0 1 770,76.1094 L770,324.5 A2.5,2.5 0 0 1 767.5,327 L626.5,327 A2.5,2.5 0 0 1 624,324.5 L624,52.5 A2.5,2.5 0 0 1 626.5,50 " fill="none" style="stroke:#000000;stroke-width:1.5;"/><line style="stroke:#000000;stroke-width:1.5;" x1="624" x2="671" y1="73.6094" y2="73.6094"/><text fill="#000000" font-family="sans-serif" font-size="14" font-weight="bold" lengthAdjust="spacing" textLength="34" x="628" y="66.5332">vista</text></g><!--cluster controlador--><g id="cluster_controlador"><path d="M605.5,377 L688.5,377 A3.75,3.75 0 0 1 691,379.5 L698,400.6094 L788.5,400.6094 A2.5,2.5 0 0 1 791,403.1094 L791,474.5 A2.5,2.5 0 0 1 788.5,477 L605.5,477 A2.5,2.5 0 0 1 603,474.5 L603,379.5 A2.5,2.5 0 0 1 605.5,377 " fill="none" style="stroke:#000000;stroke-width:1.5;"/><line style="stroke:#000000;stroke-width:1.5;" x1="603" x2="698" y1="400.6094" y2="400.6094"/><text fill="#000000" font-family="sans-serif" font-size="14" font-weight="bold" lengthAdjust="spacing" textLength="82" x="607" y="393.5332">controlador</text></g><!--cluster moduloEmpleado--><g id="cluster_moduloEmpleado"><path d="M8.5,752 L130.5,752 A3.75,3.75 0 0 1 133,754.5 L140,775.6094 L253.5,775.6094 A2.5,2.5 0 0 1 256,778.1094 L256,1265.5 A2.5,2.5 0 0 1 253.5,1268 L8.5,1268 A2.5,2.5 0 0 1 6,1265.5 L6,754.5 A2.5,2.5 0 0 1 8.5,752 " fill="none" style="stroke:#000000;stroke-width:1.5;"/><line style="stroke:#000000;stroke-width:1.5;" x1="6" x2="140" y1="775.6094" y2="775.6094"/><text fill="#000000" font-family="sans-serif" font-size="14" font-weight="bold" lengthAdjust="spacing" textLength="121" x="10" y="768.5332">moduloEmpleado</text></g><!--cluster modelo--><g id="cluster_modelo"><path d="M106.5,1144 L159.5,1144 A3.75,3.75 0 0 1 162,1146.5 L169,1167.6094 L229.5,1167.6094 A2.5,2.5 0 0 1 232,1170.1094 L232,1241.5 A2.5,2.5 0 0 1 229.5,1244 L106.5,1244 A2.5,2.5 0 0 1 104,1241.5 L104,1146.5 A2.5,2.5 0 0 1 106.5,1144 " fill="none" style="stroke:#000000;stroke-width:1.5;"/><line style="stroke:#000000;stroke-width:1.5;" x1="104" x2="169" y1="1167.6094" y2="1167.6094"/><text fill="#000000" font-family="sans-serif" font-size="14" font-weight="bold" lengthAdjust="spacing" textLength="52" x="108" y="1160.5332">modelo</text></g><!--cluster vista--><g id="cluster_vista"><path d="M54.5,796 L89.5,796 A3.75,3.75 0 0 1 92,798.5 L99,819.6094 L207.5,819.6094 A2.5,2.5 0 0 1 210,822.1094 L210,893.5 A2.5,2.5 0 0 1 207.5,896 L54.5,896 A2.5,2.5 0 0 1 52,893.5 L52,798.5 A2.5,2.5 0 0 1 54.5,796 " fill="none" style="stroke:#000000;stroke-width:1.5;"/><line style="stroke:#000000;stroke-width:1.5;" x1="52" x2="99" y1="819.6094" y2="819.6094"/><text fill="#000000" font-family="sans-serif" font-size="14" font-weight="bold" lengthAdjust="spacing" textLength="34" x="56" y="812.5332">vista</text></g><!--cluster controlador--><g id="cluster_controlador"><path d="M32.5,970 L115.5,970 A3.75,3.75 0 0 1 118,972.5 L125,993.6094 L229.5,993.6094 A2.5,2.5 0 0 1 232,996.1094 L232,1067.5 A2.5,2.5 0 0 1 229.5,1070 L32.5,1070 A2.5,2.5 0 0 1 30,1067.5 L30,972.5 A2.5,2.5 0 0 1 32.5,970 " fill="none" style="stroke:#000000;stroke-width:1.5;"/><line style="stroke:#000000;stroke-width:1.5;" x1="30" x2="125" y1="993.6094" y2="993.6094"/><text fill="#000000" font-family="sans-serif" font-size="14" font-weight="bold" lengthAdjust="spacing" textLength="82" x="34" y="986.5332">controlador</text></g><!--class MaquinaFactory--><g id="elem_MaquinaFactory"><rect codeLine="11" fill="#F1F1F1" height="48" id="MaquinaFactory" rx="2.5" ry="2.5" style="stroke:#181818;stroke-width:0.5;" width="134" x="1076" y="263"/><ellipse cx="1091" cy="279" fill="#ADD1B2" rx="11" ry="11" style="stroke:#181818;stroke-width:1.0;"/><path d="M1093.7656,274.875 Q1093.9219,274.6563 1094.1094,274.5469 Q1094.2969,274.4375 1094.5156,274.4375 Q1094.8906,274.4375 1095.125,274.7031 Q1095.3594,274.9531 1095.3594,275.5625 L1095.3594,277.0156 Q1095.3594,277.625 1095.125,277.8906 Q1094.8906,278.1563 1094.5156,278.1563 Q1094.1719,278.1563 1093.9688,277.9531 Q1093.7656,277.7656 1093.6563,277.25 Q1093.6094,276.8906 1093.4219,276.7031 Q1093.0938,276.3281 1092.4844,276.1094 Q1091.875,275.8906 1091.25,275.8906 Q1090.4844,275.8906 1089.8438,276.2188 Q1089.2188,276.5469 1088.7188,277.2969 Q1088.2344,278.0469 1088.2344,279.0781 L1088.2344,280.1719 Q1088.2344,281.4063 1089.125,282.2344 Q1090.0156,283.0469 1091.6094,283.0469 Q1092.5469,283.0469 1093.2031,282.7969 Q1093.5938,282.6406 1094.0156,282.2031 Q1094.2813,281.9375 1094.4219,281.8594 Q1094.5781,281.7813 1094.7813,281.7813 Q1095.1094,281.7813 1095.3594,282.0469 Q1095.625,282.2969 1095.625,282.6406 Q1095.625,282.9844 1095.2813,283.3906 Q1094.7813,283.9688 1093.9844,284.2969 Q1092.9063,284.75 1091.6094,284.75 Q1090.0938,284.75 1088.8906,284.125 Q1087.9063,283.625 1087.2188,282.5625 Q1086.5313,281.4844 1086.5313,280.2031 L1086.5313,279.0469 Q1086.5313,277.7188 1087.1406,276.5781 Q1087.7656,275.4219 1088.8594,274.8125 Q1089.9531,274.1875 1091.1875,274.1875 Q1091.9219,274.1875 1092.5625,274.3594 Q1093.2188,274.5156 1093.7656,274.875 Z " fill="#000000"/><text fill="#000000" font-family="sans-serif" font-size="14" lengthAdjust="spacing" textLength="102" x="1105" y="284.7285">MaquinaFactory</text><line style="stroke:#181818;stroke-width:0.5;" x1="1077" x2="1209" y1="295" y2="295"/><line style="stroke:#181818;stroke-width:0.5;" x1="1077" x2="1209" y1="303" y2="303"/></g><!--class Maquina--><g id="elem_Maquina"><rect codeLine="3" fill="#F1F1F1" height="48" id="Maquina" rx="2.5" ry="2.5" style="stroke:#181818;stroke-width:0.5;" width="86" x="902" y="413"/><ellipse cx="917" cy="429" fill="#ADD1B2" rx="11" ry="11" style="stroke:#181818;stroke-width:1.0;"/><path d="M919.7656,424.875 Q919.9219,424.6563 920.1094,424.5469 Q920.2969,424.4375 920.5156,424.4375 Q920.8906,424.4375 921.125,424.7031 Q921.3594,424.9531 921.3594,425.5625 L921.3594,427.0156 Q921.3594,427.625 921.125,427.8906 Q920.8906,428.1563 920.5156,428.1563 Q920.1719,428.1563 919.9688,427.9531 Q919.7656,427.7656 919.6563,427.25 Q919.6094,426.8906 919.4219,426.7031 Q919.0938,426.3281 918.4844,426.1094 Q917.875,425.8906 917.25,425.8906 Q916.4844,425.8906 915.8438,426.2188 Q915.2188,426.5469 914.7188,427.2969 Q914.2344,428.0469 914.2344,429.0781 L914.2344,430.1719 Q914.2344,431.4063 915.125,432.2344 Q916.0156,433.0469 917.6094,433.0469 Q918.5469,433.0469 919.2031,432.7969 Q919.5938,432.6406 920.0156,432.2031 Q920.2813,431.9375 920.4219,431.8594 Q920.5781,431.7813 920.7813,431.7813 Q921.1094,431.7813 921.3594,432.0469 Q921.625,432.2969 921.625,432.6406 Q921.625,432.9844 921.2813,433.3906 Q920.7813,433.9688 919.9844,434.2969 Q918.9063,434.75 917.6094,434.75 Q916.0938,434.75 914.8906,434.125 Q913.9063,433.625 913.2188,432.5625 Q912.5313,431.4844 912.5313,430.2031 L912.5313,429.0469 Q912.5313,427.7188 913.1406,426.5781 Q913.7656,425.4219 914.8594,424.8125 Q915.9531,424.1875 917.1875,424.1875 Q917.9219,424.1875 918.5625,424.3594 Q919.2188,424.5156 919.7656,424.875 Z " fill="#000000"/><text fill="#000000" font-family="sans-serif" font-size="14" lengthAdjust="spacing" textLength="54" x="931" y="434.7285">Maquina</text><line style="stroke:#181818;stroke-width:0.5;" x1="903" x2="987" y1="445" y2="445"/><line style="stroke:#181818;stroke-width:0.5;" x1="903" x2="987" y1="453" y2="453"/></g><!--class VistaMaquina--><g id="elem_VistaMaquina"><rect codeLine="6" fill="#F1F1F1" height="48" id="VistaMaquina" rx="2.5" ry="2.5" style="stroke:#181818;stroke-width:0.5;" width="117" x="901.5" y="86"/><ellipse cx="916.5" cy="102" fill="#ADD1B2" rx="11" ry="11" style="stroke:#181818;stroke-width:1.0;"/><path d="M919.2656,97.875 Q919.4219,97.6563 919.6094,97.5469 Q919.7969,97.4375 920.0156,97.4375 Q920.3906,97.4375 920.625,97.7031 Q920.8594,97.9531 920.8594,98.5625 L920.8594,100.0156 Q920.8594,100.625 920.625,100.8906 Q920.3906,101.1563 920.0156,101.1563 Q919.6719,101.1563 919.4688,100.9531 Q919.2656,100.7656 919.1563,100.25 Q919.1094,99.8906 918.9219,99.7031 Q918.5938,99.3281 917.9844,99.1094 Q917.375,98.8906 916.75,98.8906 Q915.9844,98.8906 915.3438,99.2188 Q914.7188,99.5469 914.2188,100.2969 Q913.7344,101.0469 913.7344,102.0781 L913.7344,103.1719 Q913.7344,104.4063 914.625,105.2344 Q915.5156,106.0469 917.1094,106.0469 Q918.0469,106.0469 918.7031,105.7969 Q919.0938,105.6406 919.5156,105.2031 Q919.7813,104.9375 919.9219,104.8594 Q920.0781,104.7813 920.2813,104.7813 Q920.6094,104.7813 920.8594,105.0469 Q921.125,105.2969 921.125,105.6406 Q921.125,105.9844 920.7813,106.3906 Q920.2813,106.9688 919.4844,107.2969 Q918.4063,107.75 917.1094,107.75 Q915.5938,107.75 914.3906,107.125 Q913.4063,106.625 912.7188,105.5625 Q912.0313,104.4844 912.0313,103.2031 L912.0313,102.0469 Q912.0313,100.7188 912.6406,99.5781 Q913.2656,98.4219 914.3594,97.8125 Q915.4531,97.1875 916.6875,97.1875 Q917.4219,97.1875 918.0625,97.3594 Q918.7188,97.5156 919.2656,97.875 Z " fill="#000000"/><text fill="#000000" font-family="sans-serif" font-size="14" lengthAdjust="spacing" textLength="85" x="930.5" y="107.7285">VistaMaquina</text><line style="stroke:#181818;stroke-width:0.5;" x1="902.5" x2="1017.5" y1="118" y2="118"/><line style="stroke:#181818;stroke-width:0.5;" x1="902.5" x2="1017.5" y1="126" y2="126"/></g><!--class ControladorMaquina--><g id="elem_ControladorMaquina"><rect codeLine="9" fill="#F1F1F1" height="48" id="ControladorMaquina" rx="2.5" ry="2.5" style="stroke:#181818;stroke-width:0.5;" width="161" x="879.5" y="263"/><ellipse cx="894.5" cy="279" fill="#ADD1B2" rx="11" ry="11" style="stroke:#181818;stroke-width:1.0;"/><path d="M897.2656,274.875 Q897.4219,274.6563 897.6094,274.5469 Q897.7969,274.4375 898.0156,274.4375 Q898.3906,274.4375 898.625,274.7031 Q898.8594,274.9531 898.8594,275.5625 L898.8594,277.0156 Q898.8594,277.625 898.625,277.8906 Q898.3906,278.1563 898.0156,278.1563 Q897.6719,278.1563 897.4688,277.9531 Q897.2656,277.7656 897.1563,277.25 Q897.1094,276.8906 896.9219,276.7031 Q896.5938,276.3281 895.9844,276.1094 Q895.375,275.8906 894.75,275.8906 Q893.9844,275.8906 893.3438,276.2188 Q892.7188,276.5469 892.2188,277.2969 Q891.7344,278.0469 891.7344,279.0781 L891.7344,280.1719 Q891.7344,281.4063 892.625,282.2344 Q893.5156,283.0469 895.1094,283.0469 Q896.0469,283.0469 896.7031,282.7969 Q897.0938,282.6406 897.5156,282.2031 Q897.7813,281.9375 897.9219,281.8594 Q898.0781,281.7813 898.2813,281.7813 Q898.6094,281.7813 898.8594,282.0469 Q899.125,282.2969 899.125,282.6406 Q899.125,282.9844 898.7813,283.3906 Q898.2813,283.9688 897.4844,284.2969 Q896.4063,284.75 895.1094,284.75 Q893.5938,284.75 892.3906,284.125 Q891.4063,283.625 890.7188,282.5625 Q890.0313,281.4844 890.0313,280.2031 L890.0313,279.0469 Q890.0313,277.7188 890.6406,276.5781 Q891.2656,275.4219 892.3594,274.8125 Q893.4531,274.1875 894.6875,274.1875 Q895.4219,274.1875 896.0625,274.3594 Q896.7188,274.5156 897.2656,274.875 Z " fill="#000000"/><text fill="#000000" font-family="sans-serif" font-size="14" lengthAdjust="spacing" textLength="129" x="908.5" y="284.7285">ControladorMaquina</text><line style="stroke:#181818;stroke-width:0.5;" x1="880.5" x2="1039.5" y1="295" y2="295"/><line style="stroke:#181818;stroke-width:0.5;" x1="880.5" x2="1039.5" y1="303" y2="303"/></g><!--class Celda--><g id="elem_Celda"><rect codeLine="16" fill="#F1F1F1" height="48" id="Celda" rx="2.5" ry="2.5" style="stroke:#181818;stroke-width:0.5;" width="69" x="1301.5" y="631"/><ellipse cx="1316.5" cy="647" fill="#ADD1B2" rx="11" ry="11" style="stroke:#181818;stroke-width:1.0;"/><path d="M1319.2656,642.875 Q1319.4219,642.6563 1319.6094,642.5469 Q1319.7969,642.4375 1320.0156,642.4375 Q1320.3906,642.4375 1320.625,642.7031 Q1320.8594,642.9531 1320.8594,643.5625 L1320.8594,645.0156 Q1320.8594,645.625 1320.625,645.8906 Q1320.3906,646.1563 1320.0156,646.1563 Q1319.6719,646.1563 1319.4688,645.9531 Q1319.2656,645.7656 1319.1563,645.25 Q1319.1094,644.8906 1318.9219,644.7031 Q1318.5938,644.3281 1317.9844,644.1094 Q1317.375,643.8906 1316.75,643.8906 Q1315.9844,643.8906 1315.3438,644.2188 Q1314.7188,644.5469 1314.2188,645.2969 Q1313.7344,646.0469 1313.7344,647.0781 L1313.7344,648.1719 Q1313.7344,649.4063 1314.625,650.2344 Q1315.5156,651.0469 1317.1094,651.0469 Q1318.0469,651.0469 1318.7031,650.7969 Q1319.0938,650.6406 1319.5156,650.2031 Q1319.7813,649.9375 1319.9219,649.8594 Q1320.0781,649.7813 1320.2813,649.7813 Q1320.6094,649.7813 1320.8594,650.0469 Q1321.125,650.2969 1321.125,650.6406 Q1321.125,650.9844 1320.7813,651.3906 Q1320.2813,651.9688 1319.4844,652.2969 Q1318.4063,652.75 1317.1094,652.75 Q1315.5938,652.75 1314.3906,652.125 Q1313.4063,651.625 1312.7188,650.5625 Q1312.0313,649.4844 1312.0313,648.2031 L1312.0313,647.0469 Q1312.0313,645.7188 1312.6406,644.5781 Q1313.2656,643.4219 1314.3594,642.8125 Q1315.4531,642.1875 1316.6875,642.1875 Q1317.4219,642.1875 1318.0625,642.3594 Q1318.7188,642.5156 1319.2656,642.875 Z " fill="#000000"/><text fill="#000000" font-family="sans-serif" font-size="14" lengthAdjust="spacing" textLength="37" x="1330.5" y="652.7285">Celda</text><line style="stroke:#181818;stroke-width:0.5;" x1="1302.5" x2="1369.5" y1="663" y2="663"/><line style="stroke:#181818;stroke-width:0.5;" x1="1302.5" x2="1369.5" y1="671" y2="671"/></g><!--class Producto--><g id="elem_Producto"><rect codeLine="17" fill="#F1F1F1" height="48" id="Producto" rx="2.5" ry="2.5" style="stroke:#181818;stroke-width:0.5;" width="89" x="1291.5" y="832"/><ellipse cx="1306.5" cy="848" fill="#ADD1B2" rx="11" ry="11" style="stroke:#181818;stroke-width:1.0;"/><path d="M1309.2656,843.875 Q1309.4219,843.6563 1309.6094,843.5469 Q1309.7969,843.4375 1310.0156,843.4375 Q1310.3906,843.4375 1310.625,843.7031 Q1310.8594,843.9531 1310.8594,844.5625 L1310.8594,846.0156 Q1310.8594,846.625 1310.625,846.8906 Q1310.3906,847.1563 1310.0156,847.1563 Q1309.6719,847.1563 1309.4688,846.9531 Q1309.2656,846.7656 1309.1563,846.25 Q1309.1094,845.8906 1308.9219,845.7031 Q1308.5938,845.3281 1307.9844,845.1094 Q1307.375,844.8906 1306.75,844.8906 Q1305.9844,844.8906 1305.3438,845.2188 Q1304.7188,845.5469 1304.2188,846.2969 Q1303.7344,847.0469 1303.7344,848.0781 L1303.7344,849.1719 Q1303.7344,850.4063 1304.625,851.2344 Q1305.5156,852.0469 1307.1094,852.0469 Q1308.0469,852.0469 1308.7031,851.7969 Q1309.0938,851.6406 1309.5156,851.2031 Q1309.7813,850.9375 1309.9219,850.8594 Q1310.0781,850.7813 1310.2813,850.7813 Q1310.6094,850.7813 1310.8594,851.0469 Q1311.125,851.2969 1311.125,851.6406 Q1311.125,851.9844 1310.7813,852.3906 Q1310.2813,852.9688 1309.4844,853.2969 Q1308.4063,853.75 1307.1094,853.75 Q1305.5938,853.75 1304.3906,853.125 Q1303.4063,852.625 1302.7188,851.5625 Q1302.0313,850.4844 1302.0313,849.2031 L1302.0313,848.0469 Q1302.0313,846.7188 1302.6406,845.5781 Q1303.2656,844.4219 1304.3594,843.8125 Q1305.4531,843.1875 1306.6875,843.1875 Q1307.4219,843.1875 1308.0625,843.3594 Q1308.7188,843.5156 1309.2656,843.875 Z " fill="#000000"/><text fill="#000000" font-family="sans-serif" font-size="14" lengthAdjust="spacing" textLength="57" x="1320.5" y="853.7285">Producto</text><line style="stroke:#181818;stroke-width:0.5;" x1="1292.5" x2="1379.5" y1="864" y2="864"/><line style="stroke:#181818;stroke-width:0.5;" x1="1292.5" x2="1379.5" y1="872" y2="872"/></g><!--class IVistaInventario--><g id="elem_IVistaInventario"><rect codeLine="20" fill="#F1F1F1" height="48" id="IVistaInventario" rx="2.5" ry="2.5" style="stroke:#181818;stroke-width:0.5;" width="128" x="1291" y="413"/><ellipse cx="1306" cy="429" fill="#ADD1B2" rx="11" ry="11" style="stroke:#181818;stroke-width:1.0;"/><path d="M1308.7656,424.875 Q1308.9219,424.6563 1309.1094,424.5469 Q1309.2969,424.4375 1309.5156,424.4375 Q1309.8906,424.4375 1310.125,424.7031 Q1310.3594,424.9531 1310.3594,425.5625 L1310.3594,427.0156 Q1310.3594,427.625 1310.125,427.8906 Q1309.8906,428.1563 1309.5156,428.1563 Q1309.1719,428.1563 1308.9688,427.9531 Q1308.7656,427.7656 1308.6563,427.25 Q1308.6094,426.8906 1308.4219,426.7031 Q1308.0938,426.3281 1307.4844,426.1094 Q1306.875,425.8906 1306.25,425.8906 Q1305.4844,425.8906 1304.8438,426.2188 Q1304.2188,426.5469 1303.7188,427.2969 Q1303.2344,428.0469 1303.2344,429.0781 L1303.2344,430.1719 Q1303.2344,431.4063 1304.125,432.2344 Q1305.0156,433.0469 1306.6094,433.0469 Q1307.5469,433.0469 1308.2031,432.7969 Q1308.5938,432.6406 1309.0156,432.2031 Q1309.2813,431.9375 1309.4219,431.8594 Q1309.5781,431.7813 1309.7813,431.7813 Q1310.1094,431.7813 1310.3594,432.0469 Q1310.625,432.2969 1310.625,432.6406 Q1310.625,432.9844 1310.2813,433.3906 Q1309.7813,433.9688 1308.9844,434.2969 Q1307.9063,434.75 1306.6094,434.75 Q1305.0938,434.75 1303.8906,434.125 Q1302.9063,433.625 1302.2188,432.5625 Q1301.5313,431.4844 1301.5313,430.2031 L1301.5313,429.0469 Q1301.5313,427.7188 1302.1406,426.5781 Q1302.7656,425.4219 1303.8594,424.8125 Q1304.9531,424.1875 1306.1875,424.1875 Q1306.9219,424.1875 1307.5625,424.3594 Q1308.2188,424.5156 1308.7656,424.875 Z " fill="#000000"/><text fill="#000000" font-family="sans-serif" font-size="14" lengthAdjust="spacing" textLength="96" x="1320" y="434.7285">IVistaInventario</text><line style="stroke:#181818;stroke-width:0.5;" x1="1292" x2="1418" y1="445" y2="445"/><line style="stroke:#181818;stroke-width:0.5;" x1="1292" x2="1418" y1="453" y2="453"/></g><!--class VistaInventario--><g id="elem_VistaInventario"><rect codeLine="21" fill="#F1F1F1" height="48" id="VistaInventario" rx="2.5" ry="2.5" style="stroke:#181818;stroke-width:0.5;" width="125" x="1293.5" y="263"/><ellipse cx="1308.5" cy="279" fill="#ADD1B2" rx="11" ry="11" style="stroke:#181818;stroke-width:1.0;"/><path d="M1311.2656,274.875 Q1311.4219,274.6563 1311.6094,274.5469 Q1311.7969,274.4375 1312.0156,274.4375 Q1312.3906,274.4375 1312.625,274.7031 Q1312.8594,274.9531 1312.8594,275.5625 L1312.8594,277.0156 Q1312.8594,277.625 1312.625,277.8906 Q1312.3906,278.1563 1312.0156,278.1563 Q1311.6719,278.1563 1311.4688,277.9531 Q1311.2656,277.7656 1311.1563,277.25 Q1311.1094,276.8906 1310.9219,276.7031 Q1310.5938,276.3281 1309.9844,276.1094 Q1309.375,275.8906 1308.75,275.8906 Q1307.9844,275.8906 1307.3438,276.2188 Q1306.7188,276.5469 1306.2188,277.2969 Q1305.7344,278.0469 1305.7344,279.0781 L1305.7344,280.1719 Q1305.7344,281.4063 1306.625,282.2344 Q1307.5156,283.0469 1309.1094,283.0469 Q1310.0469,283.0469 1310.7031,282.7969 Q1311.0938,282.6406 1311.5156,282.2031 Q1311.7813,281.9375 1311.9219,281.8594 Q1312.0781,281.7813 1312.2813,281.7813 Q1312.6094,281.7813 1312.8594,282.0469 Q1313.125,282.2969 1313.125,282.6406 Q1313.125,282.9844 1312.7813,283.3906 Q1312.2813,283.9688 1311.4844,284.2969 Q1310.4063,284.75 1309.1094,284.75 Q1307.5938,284.75 1306.3906,284.125 Q1305.4063,283.625 1304.7188,282.5625 Q1304.0313,281.4844 1304.0313,280.2031 L1304.0313,279.0469 Q1304.0313,277.7188 1304.6406,276.5781 Q1305.2656,275.4219 1306.3594,274.8125 Q1307.4531,274.1875 1308.6875,274.1875 Q1309.4219,274.1875 1310.0625,274.3594 Q1310.7188,274.5156 1311.2656,274.875 Z " fill="#000000"/><text fill="#000000" font-family="sans-serif" font-size="14" lengthAdjust="spacing" textLength="93" x="1322.5" y="284.7285">VistaInventario</text><line style="stroke:#181818;stroke-width:0.5;" x1="1294.5" x2="1417.5" y1="295" y2="295"/><line style="stroke:#181818;stroke-width:0.5;" x1="1294.5" x2="1417.5" y1="303" y2="303"/></g><!--class ControladorInventario--><g id="elem_ControladorInventario"><rect codeLine="24" fill="#F1F1F1" height="48" id="ControladorInventario" rx="2.5" ry="2.5" style="stroke:#181818;stroke-width:0.5;" width="169" x="1475.5" y="413"/><ellipse cx="1490.5" cy="429" fill="#ADD1B2" rx="11" ry="11" style="stroke:#181818;stroke-width:1.0;"/><path d="M1493.2656,424.875 Q1493.4219,424.6563 1493.6094,424.5469 Q1493.7969,424.4375 1494.0156,424.4375 Q1494.3906,424.4375 1494.625,424.7031 Q1494.8594,424.9531 1494.8594,425.5625 L1494.8594,427.0156 Q1494.8594,427.625 1494.625,427.8906 Q1494.3906,428.1563 1494.0156,428.1563 Q1493.6719,428.1563 1493.4688,427.9531 Q1493.2656,427.7656 1493.1563,427.25 Q1493.1094,426.8906 1492.9219,426.7031 Q1492.5938,426.3281 1491.9844,426.1094 Q1491.375,425.8906 1490.75,425.8906 Q1489.9844,425.8906 1489.3438,426.2188 Q1488.7188,426.5469 1488.2188,427.2969 Q1487.7344,428.0469 1487.7344,429.0781 L1487.7344,430.1719 Q1487.7344,431.4063 1488.625,432.2344 Q1489.5156,433.0469 1491.1094,433.0469 Q1492.0469,433.0469 1492.7031,432.7969 Q1493.0938,432.6406 1493.5156,432.2031 Q1493.7813,431.9375 1493.9219,431.8594 Q1494.0781,431.7813 1494.2813,431.7813 Q1494.6094,431.7813 1494.8594,432.0469 Q1495.125,432.2969 1495.125,432.6406 Q1495.125,432.9844 1494.7813,433.3906 Q1494.2813,433.9688 1493.4844,434.2969 Q1492.4063,434.75 1491.1094,434.75 Q1489.5938,434.75 1488.3906,434.125 Q1487.4063,433.625 1486.7188,432.5625 Q1486.0313,431.4844 1486.0313,430.2031 L1486.0313,429.0469 Q1486.0313,427.7188 1486.6406,426.5781 Q1487.2656,425.4219 1488.3594,424.8125 Q1489.4531,424.1875 1490.6875,424.1875 Q1491.4219,424.1875 1492.0625,424.3594 Q1492.7188,424.5156 1493.2656,424.875 Z " fill="#000000"/><text fill="#000000" font-family="sans-serif" font-size="14" lengthAdjust="spacing" textLength="137" x="1504.5" y="434.7285">ControladorInventario</text><line style="stroke:#181818;stroke-width:0.5;" x1="1476.5" x2="1643.5" y1="445" y2="445"/><line style="stroke:#181818;stroke-width:0.5;" x1="1476.5" x2="1643.5" y1="453" y2="453"/></g><!--class Caja--><g id="elem_Caja"><rect codeLine="30" fill="#F1F1F1" height="48" id="Caja" rx="2.5" ry="2.5" style="stroke:#181818;stroke-width:0.5;" width="61" x="931.5" y="1006"/><ellipse cx="946.5" cy="1022" fill="#ADD1B2" rx="11" ry="11" style="stroke:#181818;stroke-width:1.0;"/><path d="M949.2656,1017.875 Q949.4219,1017.6563 949.6094,1017.5469 Q949.7969,1017.4375 950.0156,1017.4375 Q950.3906,1017.4375 950.625,1017.7031 Q950.8594,1017.9531 950.8594,1018.5625 L950.8594,1020.0156 Q950.8594,1020.625 950.625,1020.8906 Q950.3906,1021.1563 950.0156,1021.1563 Q949.6719,1021.1563 949.4688,1020.9531 Q949.2656,1020.7656 949.1563,1020.25 Q949.1094,1019.8906 948.9219,1019.7031 Q948.5938,1019.3281 947.9844,1019.1094 Q947.375,1018.8906 946.75,1018.8906 Q945.9844,1018.8906 945.3438,1019.2188 Q944.7188,1019.5469 944.2188,1020.2969 Q943.7344,1021.0469 943.7344,1022.0781 L943.7344,1023.1719 Q943.7344,1024.4063 944.625,1025.2344 Q945.5156,1026.0469 947.1094,1026.0469 Q948.0469,1026.0469 948.7031,1025.7969 Q949.0938,1025.6406 949.5156,1025.2031 Q949.7813,1024.9375 949.9219,1024.8594 Q950.0781,1024.7813 950.2813,1024.7813 Q950.6094,1024.7813 950.8594,1025.0469 Q951.125,1025.2969 951.125,1025.6406 Q951.125,1025.9844 950.7813,1026.3906 Q950.2813,1026.9688 949.4844,1027.2969 Q948.4063,1027.75 947.1094,1027.75 Q945.5938,1027.75 944.3906,1027.125 Q943.4063,1026.625 942.7188,1025.5625 Q942.0313,1024.4844 942.0313,1023.2031 L942.0313,1022.0469 Q942.0313,1020.7188 942.6406,1019.5781 Q943.2656,1018.4219 944.3594,1017.8125 Q945.4531,1017.1875 946.6875,1017.1875 Q947.4219,1017.1875 948.0625,1017.3594 Q948.7188,1017.5156 949.2656,1017.875 Z " fill="#000000"/><text fill="#000000" font-family="sans-serif" font-size="14" lengthAdjust="spacing" textLength="29" x="960.5" y="1027.7285">Caja</text><line style="stroke:#181818;stroke-width:0.5;" x1="932.5" x2="991.5" y1="1038" y2="1038"/><line style="stroke:#181818;stroke-width:0.5;" x1="932.5" x2="991.5" y1="1046" y2="1046"/></g><!--class VistaCaja--><g id="elem_VistaCaja"><rect codeLine="33" fill="#F1F1F1" height="48" id="VistaCaja" rx="2.5" ry="2.5" style="stroke:#181818;stroke-width:0.5;" width="92" x="952" y="631"/><ellipse cx="967" cy="647" fill="#ADD1B2" rx="11" ry="11" style="stroke:#181818;stroke-width:1.0;"/><path d="M969.7656,642.875 Q969.9219,642.6563 970.1094,642.5469 Q970.2969,642.4375 970.5156,642.4375 Q970.8906,642.4375 971.125,642.7031 Q971.3594,642.9531 971.3594,643.5625 L971.3594,645.0156 Q971.3594,645.625 971.125,645.8906 Q970.8906,646.1563 970.5156,646.1563 Q970.1719,646.1563 969.9688,645.9531 Q969.7656,645.7656 969.6563,645.25 Q969.6094,644.8906 969.4219,644.7031 Q969.0938,644.3281 968.4844,644.1094 Q967.875,643.8906 967.25,643.8906 Q966.4844,643.8906 965.8438,644.2188 Q965.2188,644.5469 964.7188,645.2969 Q964.2344,646.0469 964.2344,647.0781 L964.2344,648.1719 Q964.2344,649.4063 965.125,650.2344 Q966.0156,651.0469 967.6094,651.0469 Q968.5469,651.0469 969.2031,650.7969 Q969.5938,650.6406 970.0156,650.2031 Q970.2813,649.9375 970.4219,649.8594 Q970.5781,649.7813 970.7813,649.7813 Q971.1094,649.7813 971.3594,650.0469 Q971.625,650.2969 971.625,650.6406 Q971.625,650.9844 971.2813,651.3906 Q970.7813,651.9688 969.9844,652.2969 Q968.9063,652.75 967.6094,652.75 Q966.0938,652.75 964.8906,652.125 Q963.9063,651.625 963.2188,650.5625 Q962.5313,649.4844 962.5313,648.2031 L962.5313,647.0469 Q962.5313,645.7188 963.1406,644.5781 Q963.7656,643.4219 964.8594,642.8125 Q965.9531,642.1875 967.1875,642.1875 Q967.9219,642.1875 968.5625,642.3594 Q969.2188,642.5156 969.7656,642.875 Z " fill="#000000"/><text fill="#000000" font-family="sans-serif" font-size="14" lengthAdjust="spacing" textLength="60" x="981" y="652.7285">VistaCaja</text><line style="stroke:#181818;stroke-width:0.5;" x1="953" x2="1043" y1="663" y2="663"/><line style="stroke:#181818;stroke-width:0.5;" x1="953" x2="1043" y1="671" y2="671"/></g><!--class ControladorCaja--><g id="elem_ControladorCaja"><rect codeLine="36" fill="#F1F1F1" height="48" id="ControladorCaja" rx="2.5" ry="2.5" style="stroke:#181818;stroke-width:0.5;" width="136" x="931" y="832"/><ellipse cx="946" cy="848" fill="#ADD1B2" rx="11" ry="11" style="stroke:#181818;stroke-width:1.0;"/><path d="M948.7656,843.875 Q948.9219,843.6563 949.1094,843.5469 Q949.2969,843.4375 949.5156,843.4375 Q949.8906,843.4375 950.125,843.7031 Q950.3594,843.9531 950.3594,844.5625 L950.3594,846.0156 Q950.3594,846.625 950.125,846.8906 Q949.8906,847.1563 949.5156,847.1563 Q949.1719,847.1563 948.9688,846.9531 Q948.7656,846.7656 948.6563,846.25 Q948.6094,845.8906 948.4219,845.7031 Q948.0938,845.3281 947.4844,845.1094 Q946.875,844.8906 946.25,844.8906 Q945.4844,844.8906 944.8438,845.2188 Q944.2188,845.5469 943.7188,846.2969 Q943.2344,847.0469 943.2344,848.0781 L943.2344,849.1719 Q943.2344,850.4063 944.125,851.2344 Q945.0156,852.0469 946.6094,852.0469 Q947.5469,852.0469 948.2031,851.7969 Q948.5938,851.6406 949.0156,851.2031 Q949.2813,850.9375 949.4219,850.8594 Q949.5781,850.7813 949.7813,850.7813 Q950.1094,850.7813 950.3594,851.0469 Q950.625,851.2969 950.625,851.6406 Q950.625,851.9844 950.2813,852.3906 Q949.7813,852.9688 948.9844,853.2969 Q947.9063,853.75 946.6094,853.75 Q945.0938,853.75 943.8906,853.125 Q942.9063,852.625 942.2188,851.5625 Q941.5313,850.4844 941.5313,849.2031 L941.5313,848.0469 Q941.5313,846.7188 942.1406,845.5781 Q942.7656,844.4219 943.8594,843.8125 Q944.9531,843.1875 946.1875,843.1875 Q946.9219,843.1875 947.5625,843.3594 Q948.2188,843.5156 948.7656,843.875 Z " fill="#000000"/><text fill="#000000" font-family="sans-serif" font-size="14" lengthAdjust="spacing" textLength="104" x="960" y="853.7285">ControladorCaja</text><line style="stroke:#181818;stroke-width:0.5;" x1="932" x2="1066" y1="864" y2="864"/><line style="stroke:#181818;stroke-width:0.5;" x1="932" x2="1066" y1="872" y2="872"/></g><!--class Pago--><g id="elem_Pago"><rect codeLine="42" fill="#F1F1F1" height="48" id="Pago" rx="2.5" ry="2.5" style="stroke:#181818;stroke-width:0.5;" width="65" x="441.5" y="631"/><ellipse cx="456.5" cy="647" fill="#B4A7E5" rx="11" ry="11" style="stroke:#181818;stroke-width:1.0;"/><path d="M457.4531,643.6406 L457.4531,650.2969 L459.1719,650.2969 Q459.7813,650.2969 460.0469,650.5313 Q460.3125,650.7656 460.3125,651.1563 Q460.3125,651.5313 460.0469,651.7656 Q459.7813,652 459.1719,652 L454.0313,652 Q453.4219,652 453.1563,651.7656 Q452.8906,651.5313 452.8906,651.1406 Q452.8906,650.7656 453.1563,650.5313 Q453.4219,650.2969 454.0313,650.2969 L455.75,650.2969 L455.75,643.6406 L454.0313,643.6406 Q453.4219,643.6406 453.1563,643.4063 Q452.8906,643.1719 452.8906,642.7813 Q452.8906,642.4063 453.1563,642.1719 Q453.4219,641.9375 454.0313,641.9375 L459.1719,641.9375 Q459.7813,641.9375 460.0469,642.1719 Q460.3125,642.4063 460.3125,642.7813 Q460.3125,643.1719 460.0469,643.4063 Q459.7813,643.6406 459.1719,643.6406 L457.4531,643.6406 Z " fill="#000000"/><text fill="#000000" font-family="sans-serif" font-size="14" font-style="italic" lengthAdjust="spacing" textLength="33" x="470.5" y="652.7285">Pago</text><line style="stroke:#181818;stroke-width:0.5;" x1="442.5" x2="505.5" y1="663" y2="663"/><line style="stroke:#181818;stroke-width:0.5;" x1="442.5" x2="505.5" y1="671" y2="671"/></g><!--class Efectivo--><g id="elem_Efectivo"><rect codeLine="43" fill="#F1F1F1" height="48" id="Efectivo" rx="2.5" ry="2.5" style="stroke:#181818;stroke-width:0.5;" width="82" x="433" y="832"/><ellipse cx="448" cy="848" fill="#ADD1B2" rx="11" ry="11" style="stroke:#181818;stroke-width:1.0;"/><path d="M450.7656,843.875 Q450.9219,843.6563 451.1094,843.5469 Q451.2969,843.4375 451.5156,843.4375 Q451.8906,843.4375 452.125,843.7031 Q452.3594,843.9531 452.3594,844.5625 L452.3594,846.0156 Q452.3594,846.625 452.125,846.8906 Q451.8906,847.1563 451.5156,847.1563 Q451.1719,847.1563 450.9688,846.9531 Q450.7656,846.7656 450.6563,846.25 Q450.6094,845.8906 450.4219,845.7031 Q450.0938,845.3281 449.4844,845.1094 Q448.875,844.8906 448.25,844.8906 Q447.4844,844.8906 446.8438,845.2188 Q446.2188,845.5469 445.7188,846.2969 Q445.2344,847.0469 445.2344,848.0781 L445.2344,849.1719 Q445.2344,850.4063 446.125,851.2344 Q447.0156,852.0469 448.6094,852.0469 Q449.5469,852.0469 450.2031,851.7969 Q450.5938,851.6406 451.0156,851.2031 Q451.2813,850.9375 451.4219,850.8594 Q451.5781,850.7813 451.7813,850.7813 Q452.1094,850.7813 452.3594,851.0469 Q452.625,851.2969 452.625,851.6406 Q452.625,851.9844 452.2813,852.3906 Q451.7813,852.9688 450.9844,853.2969 Q449.9063,853.75 448.6094,853.75 Q447.0938,853.75 445.8906,853.125 Q444.9063,852.625 444.2188,851.5625 Q443.5313,850.4844 443.5313,849.2031 L443.5313,848.0469 Q443.5313,846.7188 444.1406,845.5781 Q444.7656,844.4219 445.8594,843.8125 Q446.9531,843.1875 448.1875,843.1875 Q448.9219,843.1875 449.5625,843.3594 Q450.2188,843.5156 450.7656,843.875 Z " fill="#000000"/><text fill="#000000" font-family="sans-serif" font-size="14" lengthAdjust="spacing" textLength="50" x="462" y="853.7285">Efectivo</text><line style="stroke:#181818;stroke-width:0.5;" x1="434" x2="514" y1="864" y2="864"/><line style="stroke:#181818;stroke-width:0.5;" x1="434" x2="514" y1="872" y2="872"/></g><!--class Tarjeta--><g id="elem_Tarjeta"><rect codeLine="44" fill="#F1F1F1" height="48" id="Tarjeta" rx="2.5" ry="2.5" style="stroke:#181818;stroke-width:0.5;" width="77" x="320.5" y="832"/><ellipse cx="335.5" cy="848" fill="#ADD1B2" rx="11" ry="11" style="stroke:#181818;stroke-width:1.0;"/><path d="M338.2656,843.875 Q338.4219,843.6563 338.6094,843.5469 Q338.7969,843.4375 339.0156,843.4375 Q339.3906,843.4375 339.625,843.7031 Q339.8594,843.9531 339.8594,844.5625 L339.8594,846.0156 Q339.8594,846.625 339.625,846.8906 Q339.3906,847.1563 339.0156,847.1563 Q338.6719,847.1563 338.4688,846.9531 Q338.2656,846.7656 338.1563,846.25 Q338.1094,845.8906 337.9219,845.7031 Q337.5938,845.3281 336.9844,845.1094 Q336.375,844.8906 335.75,844.8906 Q334.9844,844.8906 334.3438,845.2188 Q333.7188,845.5469 333.2188,846.2969 Q332.7344,847.0469 332.7344,848.0781 L332.7344,849.1719 Q332.7344,850.4063 333.625,851.2344 Q334.5156,852.0469 336.1094,852.0469 Q337.0469,852.0469 337.7031,851.7969 Q338.0938,851.6406 338.5156,851.2031 Q338.7813,850.9375 338.9219,850.8594 Q339.0781,850.7813 339.2813,850.7813 Q339.6094,850.7813 339.8594,851.0469 Q340.125,851.2969 340.125,851.6406 Q340.125,851.9844 339.7813,852.3906 Q339.2813,852.9688 338.4844,853.2969 Q337.4063,853.75 336.1094,853.75 Q334.5938,853.75 333.3906,853.125 Q332.4063,852.625 331.7188,851.5625 Q331.0313,850.4844 331.0313,849.2031 L331.0313,848.0469 Q331.0313,846.7188 331.6406,845.5781 Q332.2656,844.4219 333.3594,843.8125 Q334.4531,843.1875 335.6875,843.1875 Q336.4219,843.1875 337.0625,843.3594 Q337.7188,843.5156 338.2656,843.875 Z " fill="#000000"/><text fill="#000000" font-family="sans-serif" font-size="14" lengthAdjust="spacing" textLength="45" x="349.5" y="853.7285">Tarjeta</text><line style="stroke:#181818;stroke-width:0.5;" x1="321.5" x2="396.5" y1="864" y2="864"/><line style="stroke:#181818;stroke-width:0.5;" x1="321.5" x2="396.5" y1="872" y2="872"/></g><!--class VistaPago--><g id="elem_VistaPago"><rect codeLine="47" fill="#F1F1F1" height="48" id="VistaPago" rx="2.5" ry="2.5" style="stroke:#181818;stroke-width:0.5;" width="96" x="357" y="263"/><ellipse cx="372" cy="279" fill="#ADD1B2" rx="11" ry="11" style="stroke:#181818;stroke-width:1.0;"/><path d="M374.7656,274.875 Q374.9219,274.6563 375.1094,274.5469 Q375.2969,274.4375 375.5156,274.4375 Q375.8906,274.4375 376.125,274.7031 Q376.3594,274.9531 376.3594,275.5625 L376.3594,277.0156 Q376.3594,277.625 376.125,277.8906 Q375.8906,278.1563 375.5156,278.1563 Q375.1719,278.1563 374.9688,277.9531 Q374.7656,277.7656 374.6563,277.25 Q374.6094,276.8906 374.4219,276.7031 Q374.0938,276.3281 373.4844,276.1094 Q372.875,275.8906 372.25,275.8906 Q371.4844,275.8906 370.8438,276.2188 Q370.2188,276.5469 369.7188,277.2969 Q369.2344,278.0469 369.2344,279.0781 L369.2344,280.1719 Q369.2344,281.4063 370.125,282.2344 Q371.0156,283.0469 372.6094,283.0469 Q373.5469,283.0469 374.2031,282.7969 Q374.5938,282.6406 375.0156,282.2031 Q375.2813,281.9375 375.4219,281.8594 Q375.5781,281.7813 375.7813,281.7813 Q376.1094,281.7813 376.3594,282.0469 Q376.625,282.2969 376.625,282.6406 Q376.625,282.9844 376.2813,283.3906 Q375.7813,283.9688 374.9844,284.2969 Q373.9063,284.75 372.6094,284.75 Q371.0938,284.75 369.8906,284.125 Q368.9063,283.625 368.2188,282.5625 Q367.5313,281.4844 367.5313,280.2031 L367.5313,279.0469 Q367.5313,277.7188 368.1406,276.5781 Q368.7656,275.4219 369.8594,274.8125 Q370.9531,274.1875 372.1875,274.1875 Q372.9219,274.1875 373.5625,274.3594 Q374.2188,274.5156 374.7656,274.875 Z " fill="#000000"/><text fill="#000000" font-family="sans-serif" font-size="14" lengthAdjust="spacing" textLength="64" x="386" y="284.7285">VistaPago</text><line style="stroke:#181818;stroke-width:0.5;" x1="358" x2="452" y1="295" y2="295"/><line style="stroke:#181818;stroke-width:0.5;" x1="358" x2="452" y1="303" y2="303"/></g><!--class ControladorPago--><g id="elem_ControladorPago"><rect codeLine="50" fill="#F1F1F1" height="48" id="ControladorPago" rx="2.5" ry="2.5" style="stroke:#181818;stroke-width:0.5;" width="140" x="335" y="413"/><ellipse cx="350" cy="429" fill="#ADD1B2" rx="11" ry="11" style="stroke:#181818;stroke-width:1.0;"/><path d="M352.7656,424.875 Q352.9219,424.6563 353.1094,424.5469 Q353.2969,424.4375 353.5156,424.4375 Q353.8906,424.4375 354.125,424.7031 Q354.3594,424.9531 354.3594,425.5625 L354.3594,427.0156 Q354.3594,427.625 354.125,427.8906 Q353.8906,428.1563 353.5156,428.1563 Q353.1719,428.1563 352.9688,427.9531 Q352.7656,427.7656 352.6563,427.25 Q352.6094,426.8906 352.4219,426.7031 Q352.0938,426.3281 351.4844,426.1094 Q350.875,425.8906 350.25,425.8906 Q349.4844,425.8906 348.8438,426.2188 Q348.2188,426.5469 347.7188,427.2969 Q347.2344,428.0469 347.2344,429.0781 L347.2344,430.1719 Q347.2344,431.4063 348.125,432.2344 Q349.0156,433.0469 350.6094,433.0469 Q351.5469,433.0469 352.2031,432.7969 Q352.5938,432.6406 353.0156,432.2031 Q353.2813,431.9375 353.4219,431.8594 Q353.5781,431.7813 353.7813,431.7813 Q354.1094,431.7813 354.3594,432.0469 Q354.625,432.2969 354.625,432.6406 Q354.625,432.9844 354.2813,433.3906 Q353.7813,433.9688 352.9844,434.2969 Q351.9063,434.75 350.6094,434.75 Q349.0938,434.75 347.8906,434.125 Q346.9063,433.625 346.2188,432.5625 Q345.5313,431.4844 345.5313,430.2031 L345.5313,429.0469 Q345.5313,427.7188 346.1406,426.5781 Q346.7656,425.4219 347.8594,424.8125 Q348.9531,424.1875 350.1875,424.1875 Q350.9219,424.1875 351.5625,424.3594 Q352.2188,424.5156 352.7656,424.875 Z " fill="#000000"/><text fill="#000000" font-family="sans-serif" font-size="14" lengthAdjust="spacing" textLength="108" x="364" y="434.7285">ControladorPago</text><line style="stroke:#181818;stroke-width:0.5;" x1="336" x2="474" y1="445" y2="445"/><line style="stroke:#181818;stroke-width:0.5;" x1="336" x2="474" y1="453" y2="453"/></g><!--class Usuario--><g id="elem_Usuario"><rect codeLine="56" fill="#F1F1F1" height="48" id="Usuario" rx="2.5" ry="2.5" style="stroke:#181818;stroke-width:0.5;" width="80" x="638" y="631"/><ellipse cx="653" cy="647" fill="#ADD1B2" rx="11" ry="11" style="stroke:#181818;stroke-width:1.0;"/><path d="M655.7656,642.875 Q655.9219,642.6563 656.1094,642.5469 Q656.2969,642.4375 656.5156,642.4375 Q656.8906,642.4375 657.125,642.7031 Q657.3594,642.9531 657.3594,643.5625 L657.3594,645.0156 Q657.3594,645.625 657.125,645.8906 Q656.8906,646.1563 656.5156,646.1563 Q656.1719,646.1563 655.9688,645.9531 Q655.7656,645.7656 655.6563,645.25 Q655.6094,644.8906 655.4219,644.7031 Q655.0938,644.3281 654.4844,644.1094 Q653.875,643.8906 653.25,643.8906 Q652.4844,643.8906 651.8438,644.2188 Q651.2188,644.5469 650.7188,645.2969 Q650.2344,646.0469 650.2344,647.0781 L650.2344,648.1719 Q650.2344,649.4063 651.125,650.2344 Q652.0156,651.0469 653.6094,651.0469 Q654.5469,651.0469 655.2031,650.7969 Q655.5938,650.6406 656.0156,650.2031 Q656.2813,649.9375 656.4219,649.8594 Q656.5781,649.7813 656.7813,649.7813 Q657.1094,649.7813 657.3594,650.0469 Q657.625,650.2969 657.625,650.6406 Q657.625,650.9844 657.2813,651.3906 Q656.7813,651.9688 655.9844,652.2969 Q654.9063,652.75 653.6094,652.75 Q652.0938,652.75 650.8906,652.125 Q649.9063,651.625 649.2188,650.5625 Q648.5313,649.4844 648.5313,648.2031 L648.5313,647.0469 Q648.5313,645.7188 649.1406,644.5781 Q649.7656,643.4219 650.8594,642.8125 Q651.9531,642.1875 653.1875,642.1875 Q653.9219,642.1875 654.5625,642.3594 Q655.2188,642.5156 655.7656,642.875 Z " fill="#000000"/><text fill="#000000" font-family="sans-serif" font-size="14" lengthAdjust="spacing" textLength="48" x="667" y="652.7285">Usuario</text><line style="stroke:#181818;stroke-width:0.5;" x1="639" x2="717" y1="663" y2="663"/><line style="stroke:#181818;stroke-width:0.5;" x1="639" x2="717" y1="671" y2="671"/></g><!--class VistaUsuario--><g id="elem_VistaUsuario"><rect codeLine="59" fill="#F1F1F1" height="48" id="VistaUsuario" rx="2.5" ry="2.5" style="stroke:#181818;stroke-width:0.5;" width="111" x="641.5" y="263"/><ellipse cx="656.5" cy="279" fill="#ADD1B2" rx="11" ry="11" style="stroke:#181818;stroke-width:1.0;"/><path d="M659.2656,274.875 Q659.4219,274.6563 659.6094,274.5469 Q659.7969,274.4375 660.0156,274.4375 Q660.3906,274.4375 660.625,274.7031 Q660.8594,274.9531 660.8594,275.5625 L660.8594,277.0156 Q660.8594,277.625 660.625,277.8906 Q660.3906,278.1563 660.0156,278.1563 Q659.6719,278.1563 659.4688,277.9531 Q659.2656,277.7656 659.1563,277.25 Q659.1094,276.8906 658.9219,276.7031 Q658.5938,276.3281 657.9844,276.1094 Q657.375,275.8906 656.75,275.8906 Q655.9844,275.8906 655.3438,276.2188 Q654.7188,276.5469 654.2188,277.2969 Q653.7344,278.0469 653.7344,279.0781 L653.7344,280.1719 Q653.7344,281.4063 654.625,282.2344 Q655.5156,283.0469 657.1094,283.0469 Q658.0469,283.0469 658.7031,282.7969 Q659.0938,282.6406 659.5156,282.2031 Q659.7813,281.9375 659.9219,281.8594 Q660.0781,281.7813 660.2813,281.7813 Q660.6094,281.7813 660.8594,282.0469 Q661.125,282.2969 661.125,282.6406 Q661.125,282.9844 660.7813,283.3906 Q660.2813,283.9688 659.4844,284.2969 Q658.4063,284.75 657.1094,284.75 Q655.5938,284.75 654.3906,284.125 Q653.4063,283.625 652.7188,282.5625 Q652.0313,281.4844 652.0313,280.2031 L652.0313,279.0469 Q652.0313,277.7188 652.6406,276.5781 Q653.2656,275.4219 654.3594,274.8125 Q655.4531,274.1875 656.6875,274.1875 Q657.4219,274.1875 658.0625,274.3594 Q658.7188,274.5156 659.2656,274.875 Z " fill="#000000"/><text fill="#000000" font-family="sans-serif" font-size="14" lengthAdjust="spacing" textLength="79" x="670.5" y="284.7285">VistaUsuario</text><line style="stroke:#181818;stroke-width:0.5;" x1="642.5" x2="751.5" y1="295" y2="295"/><line style="stroke:#181818;stroke-width:0.5;" x1="642.5" x2="751.5" y1="303" y2="303"/></g><!--class IVistaUsuario--><g id="elem_IVistaUsuario"><rect codeLine="60" fill="#F1F1F1" height="48" id="IVistaUsuario" rx="2.5" ry="2.5" style="stroke:#181818;stroke-width:0.5;" width="114" x="640" y="86"/><ellipse cx="655" cy="102" fill="#ADD1B2" rx="11" ry="11" style="stroke:#181818;stroke-width:1.0;"/><path d="M657.7656,97.875 Q657.9219,97.6563 658.1094,97.5469 Q658.2969,97.4375 658.5156,97.4375 Q658.8906,97.4375 659.125,97.7031 Q659.3594,97.9531 659.3594,98.5625 L659.3594,100.0156 Q659.3594,100.625 659.125,100.8906 Q658.8906,101.1563 658.5156,101.1563 Q658.1719,101.1563 657.9688,100.9531 Q657.7656,100.7656 657.6563,100.25 Q657.6094,99.8906 657.4219,99.7031 Q657.0938,99.3281 656.4844,99.1094 Q655.875,98.8906 655.25,98.8906 Q654.4844,98.8906 653.8438,99.2188 Q653.2188,99.5469 652.7188,100.2969 Q652.2344,101.0469 652.2344,102.0781 L652.2344,103.1719 Q652.2344,104.4063 653.125,105.2344 Q654.0156,106.0469 655.6094,106.0469 Q656.5469,106.0469 657.2031,105.7969 Q657.5938,105.6406 658.0156,105.2031 Q658.2813,104.9375 658.4219,104.8594 Q658.5781,104.7813 658.7813,104.7813 Q659.1094,104.7813 659.3594,105.0469 Q659.625,105.2969 659.625,105.6406 Q659.625,105.9844 659.2813,106.3906 Q658.7813,106.9688 657.9844,107.2969 Q656.9063,107.75 655.6094,107.75 Q654.0938,107.75 652.8906,107.125 Q651.9063,106.625 651.2188,105.5625 Q650.5313,104.4844 650.5313,103.2031 L650.5313,102.0469 Q650.5313,100.7188 651.1406,99.5781 Q651.7656,98.4219 652.8594,97.8125 Q653.9531,97.1875 655.1875,97.1875 Q655.9219,97.1875 656.5625,97.3594 Q657.2188,97.5156 657.7656,97.875 Z " fill="#000000"/><text fill="#000000" font-family="sans-serif" font-size="14" lengthAdjust="spacing" textLength="82" x="669" y="107.7285">IVistaUsuario</text><line style="stroke:#181818;stroke-width:0.5;" x1="641" x2="753" y1="118" y2="118"/><line style="stroke:#181818;stroke-width:0.5;" x1="641" x2="753" y1="126" y2="126"/></g><!--class ControladorUsuario--><g id="elem_ControladorUsuario"><rect codeLine="63" fill="#F1F1F1" height="48" id="ControladorUsuario" rx="2.5" ry="2.5" style="stroke:#181818;stroke-width:0.5;" width="155" x="619.5" y="413"/><ellipse cx="634.5" cy="429" fill="#ADD1B2" rx="11" ry="11" style="stroke:#181818;stroke-width:1.0;"/><path d="M637.2656,424.875 Q637.4219,424.6563 637.6094,424.5469 Q637.7969,424.4375 638.0156,424.4375 Q638.3906,424.4375 638.625,424.7031 Q638.8594,424.9531 638.8594,425.5625 L638.8594,427.0156 Q638.8594,427.625 638.625,427.8906 Q638.3906,428.1563 638.0156,428.1563 Q637.6719,428.1563 637.4688,427.9531 Q637.2656,427.7656 637.1563,427.25 Q637.1094,426.8906 636.9219,426.7031 Q636.5938,426.3281 635.9844,426.1094 Q635.375,425.8906 634.75,425.8906 Q633.9844,425.8906 633.3438,426.2188 Q632.7188,426.5469 632.2188,427.2969 Q631.7344,428.0469 631.7344,429.0781 L631.7344,430.1719 Q631.7344,431.4063 632.625,432.2344 Q633.5156,433.0469 635.1094,433.0469 Q636.0469,433.0469 636.7031,432.7969 Q637.0938,432.6406 637.5156,432.2031 Q637.7813,431.9375 637.9219,431.8594 Q638.0781,431.7813 638.2813,431.7813 Q638.6094,431.7813 638.8594,432.0469 Q639.125,432.2969 639.125,432.6406 Q639.125,432.9844 638.7813,433.3906 Q638.2813,433.9688 637.4844,434.2969 Q636.4063,434.75 635.1094,434.75 Q633.5938,434.75 632.3906,434.125 Q631.4063,433.625 630.7188,432.5625 Q630.0313,431.4844 630.0313,430.2031 L630.0313,429.0469 Q630.0313,427.7188 630.6406,426.5781 Q631.2656,425.4219 632.3594,424.8125 Q633.4531,424.1875 634.6875,424.1875 Q635.4219,424.1875 636.0625,424.3594 Q636.7188,424.5156 637.2656,424.875 Z " fill="#000000"/><text fill="#000000" font-family="sans-serif" font-size="14" lengthAdjust="spacing" textLength="123" x="648.5" y="434.7285">ControladorUsuario</text><line style="stroke:#181818;stroke-width:0.5;" x1="620.5" x2="773.5" y1="445" y2="445"/><line style="stroke:#181818;stroke-width:0.5;" x1="620.5" x2="773.5" y1="453" y2="453"/></g><!--class Empleado--><g id="elem_Empleado"><rect codeLine="69" fill="#F1F1F1" height="48" id="Empleado" rx="2.5" ry="2.5" style="stroke:#181818;stroke-width:0.5;" width="95" x="120.5" y="1180"/><ellipse cx="135.5" cy="1196" fill="#ADD1B2" rx="11" ry="11" style="stroke:#181818;stroke-width:1.0;"/><path d="M138.2656,1191.875 Q138.4219,1191.6563 138.6094,1191.5469 Q138.7969,1191.4375 139.0156,1191.4375 Q139.3906,1191.4375 139.625,1191.7031 Q139.8594,1191.9531 139.8594,1192.5625 L139.8594,1194.0156 Q139.8594,1194.625 139.625,1194.8906 Q139.3906,1195.1563 139.0156,1195.1563 Q138.6719,1195.1563 138.4688,1194.9531 Q138.2656,1194.7656 138.1563,1194.25 Q138.1094,1193.8906 137.9219,1193.7031 Q137.5938,1193.3281 136.9844,1193.1094 Q136.375,1192.8906 135.75,1192.8906 Q134.9844,1192.8906 134.3438,1193.2188 Q133.7188,1193.5469 133.2188,1194.2969 Q132.7344,1195.0469 132.7344,1196.0781 L132.7344,1197.1719 Q132.7344,1198.4063 133.625,1199.2344 Q134.5156,1200.0469 136.1094,1200.0469 Q137.0469,1200.0469 137.7031,1199.7969 Q138.0938,1199.6406 138.5156,1199.2031 Q138.7813,1198.9375 138.9219,1198.8594 Q139.0781,1198.7813 139.2813,1198.7813 Q139.6094,1198.7813 139.8594,1199.0469 Q140.125,1199.2969 140.125,1199.6406 Q140.125,1199.9844 139.7813,1200.3906 Q139.2813,1200.9688 138.4844,1201.2969 Q137.4063,1201.75 136.1094,1201.75 Q134.5938,1201.75 133.3906,1201.125 Q132.4063,1200.625 131.7188,1199.5625 Q131.0313,1198.4844 131.0313,1197.2031 L131.0313,1196.0469 Q131.0313,1194.7188 131.6406,1193.5781 Q132.2656,1192.4219 133.3594,1191.8125 Q134.4531,1191.1875 135.6875,1191.1875 Q136.4219,1191.1875 137.0625,1191.3594 Q137.7188,1191.5156 138.2656,1191.875 Z " fill="#000000"/><text fill="#000000" font-family="sans-serif" font-size="14" lengthAdjust="spacing" textLength="63" x="149.5" y="1201.7285">Empleado</text><line style="stroke:#181818;stroke-width:0.5;" x1="121.5" x2="214.5" y1="1212" y2="1212"/><line style="stroke:#181818;stroke-width:0.5;" x1="121.5" x2="214.5" y1="1220" y2="1220"/></g><!--class VistaEmpleado--><g id="elem_VistaEmpleado"><rect codeLine="72" fill="#F1F1F1" height="48" id="VistaEmpleado" rx="2.5" ry="2.5" style="stroke:#181818;stroke-width:0.5;" width="126" x="68" y="832"/><ellipse cx="83" cy="848" fill="#ADD1B2" rx="11" ry="11" style="stroke:#181818;stroke-width:1.0;"/><path d="M85.7656,843.875 Q85.9219,843.6563 86.1094,843.5469 Q86.2969,843.4375 86.5156,843.4375 Q86.8906,843.4375 87.125,843.7031 Q87.3594,843.9531 87.3594,844.5625 L87.3594,846.0156 Q87.3594,846.625 87.125,846.8906 Q86.8906,847.1563 86.5156,847.1563 Q86.1719,847.1563 85.9688,846.9531 Q85.7656,846.7656 85.6563,846.25 Q85.6094,845.8906 85.4219,845.7031 Q85.0938,845.3281 84.4844,845.1094 Q83.875,844.8906 83.25,844.8906 Q82.4844,844.8906 81.8438,845.2188 Q81.2188,845.5469 80.7188,846.2969 Q80.2344,847.0469 80.2344,848.0781 L80.2344,849.1719 Q80.2344,850.4063 81.125,851.2344 Q82.0156,852.0469 83.6094,852.0469 Q84.5469,852.0469 85.2031,851.7969 Q85.5938,851.6406 86.0156,851.2031 Q86.2813,850.9375 86.4219,850.8594 Q86.5781,850.7813 86.7813,850.7813 Q87.1094,850.7813 87.3594,851.0469 Q87.625,851.2969 87.625,851.6406 Q87.625,851.9844 87.2813,852.3906 Q86.7813,852.9688 85.9844,853.2969 Q84.9063,853.75 83.6094,853.75 Q82.0938,853.75 80.8906,853.125 Q79.9063,852.625 79.2188,851.5625 Q78.5313,850.4844 78.5313,849.2031 L78.5313,848.0469 Q78.5313,846.7188 79.1406,845.5781 Q79.7656,844.4219 80.8594,843.8125 Q81.9531,843.1875 83.1875,843.1875 Q83.9219,843.1875 84.5625,843.3594 Q85.2188,843.5156 85.7656,843.875 Z " fill="#000000"/><text fill="#000000" font-family="sans-serif" font-size="14" lengthAdjust="spacing" textLength="94" x="97" y="853.7285">VistaEmpleado</text><line style="stroke:#181818;stroke-width:0.5;" x1="69" x2="193" y1="864" y2="864"/><line style="stroke:#181818;stroke-width:0.5;" x1="69" x2="193" y1="872" y2="872"/></g><!--class ControladorEmpleado--><g id="elem_ControladorEmpleado"><rect codeLine="75" fill="#F1F1F1" height="48" id="ControladorEmpleado" rx="2.5" ry="2.5" style="stroke:#181818;stroke-width:0.5;" width="170" x="46" y="1006"/><ellipse cx="61" cy="1022" fill="#ADD1B2" rx="11" ry="11" style="stroke:#181818;stroke-width:1.0;"/><path d="M63.7656,1017.875 Q63.9219,1017.6563 64.1094,1017.5469 Q64.2969,1017.4375 64.5156,1017.4375 Q64.8906,1017.4375 65.125,1017.7031 Q65.3594,1017.9531 65.3594,1018.5625 L65.3594,1020.0156 Q65.3594,1020.625 65.125,1020.8906 Q64.8906,1021.1563 64.5156,1021.1563 Q64.1719,1021.1563 63.9688,1020.9531 Q63.7656,1020.7656 63.6563,1020.25 Q63.6094,1019.8906 63.4219,1019.7031 Q63.0938,1019.3281 62.4844,1019.1094 Q61.875,1018.8906 61.25,1018.8906 Q60.4844,1018.8906 59.8438,1019.2188 Q59.2188,1019.5469 58.7188,1020.2969 Q58.2344,1021.0469 58.2344,1022.0781 L58.2344,1023.1719 Q58.2344,1024.4063 59.125,1025.2344 Q60.0156,1026.0469 61.6094,1026.0469 Q62.5469,1026.0469 63.2031,1025.7969 Q63.5938,1025.6406 64.0156,1025.2031 Q64.2813,1024.9375 64.4219,1024.8594 Q64.5781,1024.7813 64.7813,1024.7813 Q65.1094,1024.7813 65.3594,1025.0469 Q65.625,1025.2969 65.625,1025.6406 Q65.625,1025.9844 65.2813,1026.3906 Q64.7813,1026.9688 63.9844,1027.2969 Q62.9063,1027.75 61.6094,1027.75 Q60.0938,1027.75 58.8906,1027.125 Q57.9063,1026.625 57.2188,1025.5625 Q56.5313,1024.4844 56.5313,1023.2031 L56.5313,1022.0469 Q56.5313,1020.7188 57.1406,1019.5781 Q57.7656,1018.4219 58.8594,1017.8125 Q59.9531,1017.1875 61.1875,1017.1875 Q61.9219,1017.1875 62.5625,1017.3594 Q63.2188,1017.5156 63.7656,1017.875 Z " fill="#000000"/><text fill="#000000" font-family="sans-serif" font-size="14" lengthAdjust="spacing" textLength="138" x="75" y="1027.7285">ControladorEmpleado</text><line style="stroke:#181818;stroke-width:0.5;" x1="47" x2="215" y1="1038" y2="1038"/><line style="stroke:#181818;stroke-width:0.5;" x1="47" x2="215" y1="1046" y2="1046"/></g><!--reverse link Maquina to Celda--><g id="link_Maquina_Celda"><path codeLine="79" d="M999.7712,451.4779 C1046.3212,463.7879 1110.08,483.81 1169,517 C1226.01,549.12 1282.9,601.11 1313.33,630.95 " fill="none" id="Maquina-backto-Celda" style="stroke:#181818;stroke-width:1.0;"/><polygon fill="none" points="988.17,448.41,992.948,453.811,999.7712,451.4779,994.9932,446.0769,988.17,448.41" style="stroke:#181818;stroke-width:1.0;"/><text fill="#000000" font-family="sans-serif" font-size="13" lengthAdjust="spacing" textLength="49" x="1195" y="531.4951">contiene</text></g><!--reverse link Maquina to Caja--><g id="link_Maquina_Caja"><path codeLine="80" d="M936.3151,472.7252 C919.2351,543.5052 876.01,751.79 915,928 C921.27,956.33 936.33,986.13 947.72,1005.96 " fill="none" id="Maquina-backto-Caja" style="stroke:#181818;stroke-width:1.0;"/><polygon fill="none" points="939.13,461.06,933.8341,465.9543,936.3151,472.7252,941.6109,467.8309,939.13,461.06" style="stroke:#181818;stroke-width:1.0;"/></g><!--link Maquina to Usuario--><g id="link_Maquina_Usuario"><path codeLine="81" d="M930.1,461.01 C915.83,481.91 892.84,512.78 868,535 C821.44,576.64 763.893,610.0621 723.473,631.2721 " fill="none" id="Maquina-to-Usuario" style="stroke:#181818;stroke-width:1.0;"/><polygon fill="#181818" points="718.16,634.06,727.988,633.4201,722.5875,631.7367,724.2708,626.3361,718.16,634.06" style="stroke:#181818;stroke-width:1.0;"/></g><!--link Maquina to Pago--><g id="link_Maquina_Pago"><path codeLine="82" d="M901.95,461.15 C871.66,476.61 829.77,496.36 791,509 C718.16,532.76 691.93,511.69 622,543 C573.34,564.79 529.9599,600.9107 502.3699,626.4907 " fill="none" id="Maquina-to-Pago" style="stroke:#181818;stroke-width:1.0;stroke-dasharray:7.0,7.0;"/><polygon fill="#181818" points="497.97,630.57,507.2894,627.3842,501.6366,627.1705,501.8503,621.5177,497.97,630.57" style="stroke:#181818;stroke-width:1.0;"/></g><!--reverse link Celda to Producto--><g id="link_Celda_Producto"><path codeLine="84" d="M1336,691.22 C1336,729.56 1336,793.68 1336,831.93 " fill="none" id="Celda-backto-Producto" style="stroke:#181818;stroke-width:1.0;"/><polygon fill="#181818" points="1336,679.22,1332,685.22,1336,691.22,1340,685.22,1336,679.22" style="stroke:#181818;stroke-width:1.0;"/></g><!--link Efectivo to Caja--><g id="link_Efectivo_Caja"><path codeLine="85" d="M515.19,871.52 C611.01,905.29 841.4711,986.5157 925.8011,1016.2357 " fill="none" id="Efectivo-to-Caja" style="stroke:#181818;stroke-width:1.0;stroke-dasharray:7.0,7.0;"/><polygon fill="#181818" points="931.46,1018.23,924.3013,1011.4659,926.7443,1016.5681,921.6422,1019.0111,931.46,1018.23" style="stroke:#181818;stroke-width:1.0;"/></g><!--reverse link Usuario to Tarjeta--><g id="link_Usuario_Tarjeta"><path codeLine="86" d="M628.2818,684.8046 C599.4118,700.7246 569.2,715.28 531,727 C506.09,734.64 436.14,728.77 415,744 C385.76,765.08 370.84,805.89 364,831.72 " fill="none" id="Usuario-backto-Tarjeta" style="stroke:#181818;stroke-width:1.0;"/><polygon fill="none" points="638.79,679.01,631.6044,678.4046,628.2818,684.8046,635.4674,685.41,638.79,679.01" style="stroke:#181818;stroke-width:1.0;"/></g><!--reverse link Usuario to Efectivo--><g id="link_Usuario_Efectivo"><path codeLine="87" d="M645.6094,687.5986 C606.2994,725.9386 536.86,793.68 497.65,831.93 " fill="none" id="Usuario-backto-Efectivo" style="stroke:#181818;stroke-width:1.0;"/><polygon fill="none" points="654.2,679.22,647.1118,680.5458,645.6094,687.5986,652.6976,686.2729,654.2,679.22" style="stroke:#181818;stroke-width:1.0;"/></g><!--reverse link Caja to Empleado--><g id="link_Caja_Empleado"><path codeLine="89" d="M925.496,1038.9103 C804.226,1065.1803 363.17,1160.72 215.62,1192.68 " fill="none" id="Caja-backto-Empleado" style="stroke:#181818;stroke-width:1.0;stroke-dasharray:7.0,7.0;"/><polygon fill="#181818" points="931.36,1037.64,921.7172,1035.6361,926.4733,1038.6986,923.4109,1043.4547,931.36,1037.64" style="stroke:#181818;stroke-width:1.0;"/><text fill="#000000" font-family="sans-serif" font-size="13" lengthAdjust="spacing" textLength="92" x="590" y="1124.4951">recargar / vaciar</text></g><!--reverse link Celda to Empleado--><g id="link_Celda_Empleado"><path codeLine="90" d="M1362.3428,683.7113 C1376.7328,700.2913 1390.21,719.41 1398,744 C1422.7,821.96 1442.48,859.38 1398,928 C1264.93,1133.31 425.77,1189.77 215.65,1200.77 " fill="none" id="Celda-backto-Empleado" style="stroke:#181818;stroke-width:1.0;stroke-dasharray:7.0,7.0;"/><polygon fill="#181818" points="1358.41,679.18,1361.2883,688.5989,1361.6873,682.9561,1367.3301,683.3551,1358.41,679.18" style="stroke:#181818;stroke-width:1.0;"/><text fill="#000000" font-family="sans-serif" font-size="13" lengthAdjust="spacing" textLength="97" x="1391" y="950.4951">cargar productos</text></g><!--reverse link Pago to Tarjeta--><g id="link_Pago_Tarjeta"><path codeLine="92" d="M447.0592,693.7492 C434.7692,711.2092 428.27,721.29 415,744 C397.79,773.44 380.49,808.82 369.77,831.6 " fill="none" id="Pago-backto-Tarjeta" style="stroke:#181818;stroke-width:1.0;stroke-dasharray:7.0,7.0;"/><polygon fill="none" points="457.42,679.03,442.1528,690.2956,451.9656,697.2028,457.42,679.03" style="stroke:#181818;stroke-width:1.0;"/></g><!--reverse link Pago to Efectivo--><g id="link_Pago_Efectivo"><path codeLine="93" d="M474,697.22 C474,735.56 474,793.68 474,831.93 " fill="none" id="Pago-backto-Efectivo" style="stroke:#181818;stroke-width:1.0;stroke-dasharray:7.0,7.0;"/><polygon fill="none" points="474,679.22,468,697.22,480,697.22,474,679.22" style="stroke:#181818;stroke-width:1.0;"/></g><!--link MaquinaFactory to Maquina--><g id="link_MaquinaFactory_Maquina"><path codeLine="95" d="M1101.09,311.1 C1087.1,318.76 1071.4,327.3 1057,335 C1028.25,350.37 1016.5,347.49 992,369 C977.91,381.37 968.9321,393.6521 960.5621,407.6321 " fill="none" id="MaquinaFactory-to-Maquina" style="stroke:#181818;stroke-width:1.0;"/><polygon fill="#181818" points="957.48,412.78,965.5351,407.1129,960.0484,408.4901,958.6712,403.0034,957.48,412.78" style="stroke:#181818;stroke-width:1.0;"/><text fill="#000000" font-family="sans-serif" font-size="13" lengthAdjust="spacing" textLength="25" x="1039" y="357.4951">crea</text></g><!--link MaquinaFactory to Celda--><g id="link_MaquinaFactory_Celda"><path codeLine="96" d="M1152.89,311.02 C1170.58,351.68 1209.43,438.59 1248,509 C1250.01,512.68 1250.8,513.43 1253,517 C1277.49,556.79 1302.4883,598.2179 1318.9083,625.5279 " fill="none" id="MaquinaFactory-to-Celda" style="stroke:#181818;stroke-width:1.0;"/><polygon fill="#181818" points="1322,630.67,1320.7906,620.8957,1319.4236,626.3849,1313.9344,625.0179,1322,630.67" style="stroke:#181818;stroke-width:1.0;"/><text fill="#000000" font-family="sans-serif" font-size="13" lengthAdjust="spacing" textLength="25" x="1249" y="442.4951">crea</text></g><!--link MaquinaFactory to Producto--><g id="link_MaquinaFactory_Producto"><path codeLine="97" d="M1137.45,311.06 C1127.79,355.45 1110.99,455.44 1134,535 C1169.96,659.33 1266.2044,777.325 1310.5044,827.175 " fill="none" id="MaquinaFactory-to-Producto" style="stroke:#181818;stroke-width:1.0;"/><polygon fill="#181818" points="1314.49,831.66,1311.5015,822.2755,1311.1686,827.9225,1305.5216,827.5897,1314.49,831.66" style="stroke:#181818;stroke-width:1.0;"/><text fill="#000000" font-family="sans-serif" font-size="13" lengthAdjust="spacing" textLength="25" x="1135" y="531.4951">crea</text></g><!--link ControladorMaquina to Maquina--><g id="link_ControladorMaquina_Maquina"><path codeLine="99" d="M957.66,311.12 C954.85,338.77 950.7936,378.7904 947.9836,406.5804 " fill="none" id="ControladorMaquina-to-Maquina" style="stroke:#181818;stroke-width:1.0;"/><polygon fill="#181818" points="947.38,412.55,952.2651,403.9981,947.883,407.5754,944.3057,403.1932,947.38,412.55" style="stroke:#181818;stroke-width:1.0;"/></g><!--link VistaMaquina to ControladorMaquina--><g id="link_VistaMaquina_ControladorMaquina"><path codeLine="100" d="M960,134.24 C960,167.8 960,223.48 960,256.94 " fill="none" id="VistaMaquina-to-ControladorMaquina" style="stroke:#181818;stroke-width:1.0;"/><polygon fill="#181818" points="960,262.94,964,253.94,960,257.94,956,253.94,960,262.94" style="stroke:#181818;stroke-width:1.0;"/></g><!--link ControladorMaquina to VistaMaquina--><g id="link_ControladorMaquina_VistaMaquina"><path codeLine="101" d="M960,262.94 C960,229.48 960,173.8 960,140.24 " fill="none" id="ControladorMaquina-to-VistaMaquina" style="stroke:#181818;stroke-width:1.0;"/><polygon fill="#181818" points="960,134.24,956,143.24,960,139.24,964,143.24,960,134.24" style="stroke:#181818;stroke-width:1.0;"/></g><!--link ControladorInventario to Celda--><g id="link_ControladorInventario_Celda"><path codeLine="103" d="M1525.8,461.06 C1501.41,476.58 1467.34,496.43 1435,509 C1420.13,514.78 1412.42,506.98 1400,517 C1363.95,546.11 1348.5093,594.3468 1341.5693,625.1368 " fill="none" id="ControladorInventario-to-Celda" style="stroke:#181818;stroke-width:1.0;"/><polygon fill="#181818" points="1340.25,630.99,1346.131,623.0898,1341.3494,626.1124,1338.3268,621.3307,1340.25,630.99" style="stroke:#181818;stroke-width:1.0;"/></g><!--link ControladorInventario to Producto--><g id="link_ControladorInventario_Producto"><path codeLine="104" d="M1547.64,461.01 C1508.52,533.83 1390.5595,753.4344 1351.2995,826.5144 " fill="none" id="ControladorInventario-to-Producto" style="stroke:#181818;stroke-width:1.0;"/><polygon fill="#181818" points="1348.46,831.8,1356.243,825.7647,1350.8263,827.3954,1349.1956,821.9786,1348.46,831.8" style="stroke:#181818;stroke-width:1.0;"/></g><!--link VistaInventario to ControladorInventario--><g id="link_VistaInventario_ControladorInventario"><path codeLine="105" d="M1387.88,311.12 C1426.09,338.85 1484.8936,381.5064 1523.1536,409.2664 " fill="none" id="VistaInventario-to-ControladorInventario" style="stroke:#181818;stroke-width:1.0;"/><polygon fill="#181818" points="1528.01,412.79,1523.0745,404.267,1523.963,409.8537,1518.3764,410.7422,1528.01,412.79" style="stroke:#181818;stroke-width:1.0;"/></g><!--link ControladorInventario to VistaInventario--><g id="link_ControladorInventario_VistaInventario"><path codeLine="106" d="M1535.51,412.84 C1514.08,393.15 1481.67,364.69 1451,343 C1434.82,331.56 1421.3398,323.271 1404.8198,313.981 " fill="none" id="ControladorInventario-to-VistaInventario" style="stroke:#181818;stroke-width:1.0;"/><polygon fill="#181818" points="1399.59,311.04,1405.474,318.938,1403.9482,313.4908,1409.3953,311.9649,1399.59,311.04" style="stroke:#181818;stroke-width:1.0;"/></g><!--link VistaInventario to IVistaInventario--><g id="link_VistaInventario_IVistaInventario"><path codeLine="107" d="M1355.84,311.12 C1355.66,338.77 1355.4731,366.7604 1355.2831,394.5504 " fill="none" id="VistaInventario-to-IVistaInventario" style="stroke:#181818;stroke-width:1.0;stroke-dasharray:7.0,7.0;"/><polygon fill="none" points="1355.16,412.55,1361.2829,394.5914,1349.2832,394.5094,1355.16,412.55" style="stroke:#181818;stroke-width:1.0;"/></g><!--link ControladorCaja to Caja--><g id="link_ControladorCaja_Caja"><path codeLine="109" d="M994.01,880.2 C986.93,913.12 975.3017,967.1642 968.2317,1000.0342 " fill="none" id="ControladorCaja-to-Caja" style="stroke:#181818;stroke-width:1.0;"/><polygon fill="#181818" points="966.97,1005.9,972.7731,997.9424,968.0214,1001.0118,964.952,996.2601,966.97,1005.9" style="stroke:#181818;stroke-width:1.0;"/></g><!--link VistaCaja to ControladorCaja--><g id="link_VistaCaja_ControladorCaja"><path codeLine="110" d="M998.12,679.22 C998.31,717.56 998.6602,787.6801 998.8502,825.9301 " fill="none" id="VistaCaja-to-ControladorCaja" style="stroke:#181818;stroke-width:1.0;"/><polygon fill="#181818" points="998.88,831.93,1002.8352,822.9102,998.8552,826.9301,994.8353,822.95,998.88,831.93" style="stroke:#181818;stroke-width:1.0;"/></g><!--link ControladorCaja to VistaCaja--><g id="link_ControladorCaja_VistaCaja"><path codeLine="111" d="M998.88,831.93 C998.69,793.68 998.3397,723.5599 998.1497,685.2199 " fill="none" id="ControladorCaja-to-VistaCaja" style="stroke:#181818;stroke-width:1.0;"/><polygon fill="#181818" points="998.12,679.22,994.1646,688.2397,998.1448,684.2199,1002.1646,688.2001,998.12,679.22" style="stroke:#181818;stroke-width:1.0;"/></g><!--link ControladorPago to Pago--><g id="link_ControladorPago_Pago"><path codeLine="113" d="M412.38,461.12 C425.63,502.58 451.4545,583.4244 464.7345,625.0044 " fill="none" id="ControladorPago-to-Pago" style="stroke:#181818;stroke-width:1.0;"/><polygon fill="#181818" points="466.56,630.72,467.6322,620.9297,465.0388,625.957,460.0114,623.3636,466.56,630.72" style="stroke:#181818;stroke-width:1.0;"/></g><!--link ControladorPago to Efectivo--><g id="link_ControladorPago_Efectivo"><path codeLine="114" d="M404.14,461.19 C402.83,510.69 402.42,630.07 424,727 C432.45,764.96 447.8385,801.049 459.7685,826.199 " fill="none" id="ControladorPago-to-Efectivo" style="stroke:#181818;stroke-width:1.0;"/><polygon fill="#181818" points="462.34,831.62,462.0968,821.7741,460.1971,827.1025,454.8688,825.2028,462.34,831.62" style="stroke:#181818;stroke-width:1.0;"/></g><!--link ControladorPago to Tarjeta--><g id="link_ControladorPago_Tarjeta"><path codeLine="115" d="M402.33,461.16 C400.53,476.9 398.1,498.21 396,517 C382.8,635.21 368.1054,770.7748 362.1654,825.6748 " fill="none" id="ControladorPago-to-Tarjeta" style="stroke:#181818;stroke-width:1.0;"/><polygon fill="#181818" points="361.52,831.64,366.4649,823.1225,362.0578,826.669,358.5113,822.2619,361.52,831.64" style="stroke:#181818;stroke-width:1.0;"/></g><!--link VistaPago to ControladorPago--><g id="link_VistaPago_ControladorPago"><path codeLine="116" d="M405,311.12 C405,338.77 405,378.76 405,406.55 " fill="none" id="VistaPago-to-ControladorPago" style="stroke:#181818;stroke-width:1.0;"/><polygon fill="#181818" points="405,412.55,409,403.55,405,407.55,401,403.55,405,412.55" style="stroke:#181818;stroke-width:1.0;"/></g><!--link ControladorPago to VistaPago--><g id="link_ControladorPago_VistaPago"><path codeLine="117" d="M405,412.55 C405,384.76 405,344.77 405,317.12 " fill="none" id="ControladorPago-to-VistaPago" style="stroke:#181818;stroke-width:1.0;"/><polygon fill="#181818" points="405,311.12,401,320.12,405,316.12,409,320.12,405,311.12" style="stroke:#181818;stroke-width:1.0;"/></g><!--link ControladorUsuario to Usuario--><g id="link_ControladorUsuario_Usuario"><path codeLine="119" d="M694.97,461.12 C691.32,502.58 684.2361,583.1631 680.5761,624.7431 " fill="none" id="ControladorUsuario-to-Usuario" style="stroke:#181818;stroke-width:1.0;"/><polygon fill="#181818" points="680.05,630.72,684.8237,622.1054,680.4884,625.7393,676.8546,621.4039,680.05,630.72" style="stroke:#181818;stroke-width:1.0;"/></g><!--link VistaUsuario to ControladorUsuario--><g id="link_VistaUsuario_ControladorUsuario"><path codeLine="120" d="M697,311.12 C697,338.77 697,378.76 697,406.55 " fill="none" id="VistaUsuario-to-ControladorUsuario" style="stroke:#181818;stroke-width:1.0;"/><polygon fill="#181818" points="697,412.55,701,403.55,697,407.55,693,403.55,697,412.55" style="stroke:#181818;stroke-width:1.0;"/></g><!--link ControladorUsuario to VistaUsuario--><g id="link_ControladorUsuario_VistaUsuario"><path codeLine="121" d="M697,412.55 C697,384.76 697,344.77 697,317.12 " fill="none" id="ControladorUsuario-to-VistaUsuario" style="stroke:#181818;stroke-width:1.0;"/><polygon fill="#181818" points="697,311.12,693,320.12,697,316.12,701,320.12,697,311.12" style="stroke:#181818;stroke-width:1.0;"/></g><!--reverse link IVistaUsuario to VistaUsuario--><g id="link_IVistaUsuario_VistaUsuario"><path codeLine="122" d="M697,152.24 C697,185.8 697,229.48 697,262.94 " fill="none" id="IVistaUsuario-backto-VistaUsuario" style="stroke:#181818;stroke-width:1.0;stroke-dasharray:7.0,7.0;"/><polygon fill="none" points="697,134.24,691,152.24,703,152.24,697,134.24" style="stroke:#181818;stroke-width:1.0;"/></g><!--link ControladorEmpleado to Empleado--><g id="link_ControladorEmpleado_Empleado"><path codeLine="124" d="M135.99,1054.2 C143.07,1087.12 154.6983,1141.1642 161.7683,1174.0342 " fill="none" id="ControladorEmpleado-to-Empleado" style="stroke:#181818;stroke-width:1.0;"/><polygon fill="#181818" points="163.03,1179.9,165.048,1170.2601,161.9786,1175.0118,157.2269,1171.9424,163.03,1179.9" style="stroke:#181818;stroke-width:1.0;"/></g><!--link VistaEmpleado to ControladorEmpleado--><g id="link_VistaEmpleado_ControladorEmpleado"><path codeLine="125" d="M131,880.2 C131,913.12 131,967.03 131,999.9 " fill="none" id="VistaEmpleado-to-ControladorEmpleado" style="stroke:#181818;stroke-width:1.0;"/><polygon fill="#181818" points="131,1005.9,135,996.9,131,1000.9,127,996.9,131,1005.9" style="stroke:#181818;stroke-width:1.0;"/></g><!--link ControladorEmpleado to VistaEmpleado--><g id="link_ControladorEmpleado_VistaEmpleado"><path codeLine="126" d="M131,1005.9 C131,973.03 131,919.12 131,886.2 " fill="none" id="ControladorEmpleado-to-VistaEmpleado" style="stroke:#181818;stroke-width:1.0;"/><polygon fill="#181818" points="131,880.2,127,889.2,131,885.2,135,889.2,131,880.2" style="stroke:#181818;stroke-width:1.0;"/></g><!--SRC=[dLKzRuCm4DtzAwoCbQ1xXonHAcMebA7jVdASY9HWQZwagir_husniS-088ntzzxTiu_d4jWNN3ZTtCIfoSKRV3TP0HlwIwZwIY_BSs73-cCvL1NjwxleFOIqMLL3ZFZKuHaO4qKjHGud8MFmRaZ65C54hy1g8N_8dP0ob7WeMbxK83EnMEMEvoT0iQDKRAh72kc7JllGV-naKFR1mubOucFOmNNvDUlYjNSyXLcgmSF7qn_XikJwigBcyWoCKmr0lVPdpkginU5ta5TUhvRh6ZmeryF7SZ-gPjN2zlLhDVWmlBOpb4ibXXInolsjpBagN2pJ0jRgdCCj5OCub9hUUQX84kCOz8LgjemNF4pgpRQ19DcwwxAnDDsQXIM6vqc1dD_OjUsgEgeUtd7RxVLZRj697PgcJGzMCqhEG5v0qcVQ0ij0uZAhnLIL_I0L8NqpNVRNJpnCDyH8wCcTP2jLqKeEOnMkxKJU7eWj8V7Zu7SY_iDZ6iIFoGH5y6QHKPyTHfx9kpj4Le_7yUnxcWm_5vWprUSVFJa4EQnfhRV8cJQUfikEmGQR9yZ8Z5fzzsC9juzZIRl0pbJnE9EqWmsJs7I2_ymtD4nlQoOe0YyCUCp2XsP9HWp3785rZy2Fy2okQeecGFy3]--></g></svg>