<svg xmlns="http://www.w3.org/2000/svg" xmlns:xlink="http://www.w3.org/1999/xlink" contentStyleType="text/css" data-diagram-type="CLASS" height="436px" preserveAspectRatio="none" style="width:296px;height:436px;background:#FFFFFF;" version="1.1" viewBox="0 0 296 436" width="296px" zoomAndPan="magnify"><defs/><g><!--class Maquina--><g class="entity" data-entity="Maquina" data-source-line="4" data-uid="ent0002" id="entity_Maquina"><rect fill="#F1F1F1" height="26.2969" rx="2.5" ry="2.5" style="stroke:#181818;stroke-width:0.5;" width="65.7598" x="162.28" y="7"/><text fill="#000000" font-family="sans-serif" font-size="14" lengthAdjust="spacing" textLength="59.7598" x="165.28" y="24.9951">Maquina</text></g><!--class Pago--><g class="entity" data-entity="Pago" data-source-line="5" data-uid="ent0003" id="entity_Pago"><rect fill="#F1F1F1" height="26.2969" rx="2.5" ry="2.5" style="stroke:#181818;stroke-width:0.5;" width="40.4736" x="17.92" y="300.89"/><text fill="#000000" font-family="sans-serif" font-size="14" lengthAdjust="spacing" textLength="34.4736" x="20.92" y="318.8851">Pago</text></g><!--class Efectivo--><g class="entity" data-entity="Efectivo" data-source-line="6" data-uid="ent0004" id="entity_Efectivo"><rect fill="#F1F1F1" height="26.2969" rx="2.5" ry="2.5" style="stroke:#181818;stroke-width:0.5;" width="62.3145" x="7" y="404.18"/><text fill="#000000" font-family="sans-serif" font-size="14" lengthAdjust="spacing" textLength="56.3145" x="10" y="422.1751">Efectivo</text></g><!--class Usuario--><g class="entity" data-entity="Usuario" data-source-line="7" data-uid="ent0005" id="entity_Usuario"><rect fill="#F1F1F1" height="26.2969" rx="2.5" ry="2.5" style="stroke:#181818;stroke-width:0.5;" width="59.2041" x="8.56" y="197.59"/><text fill="#000000" font-family="sans-serif" font-size="14" lengthAdjust="spacing" textLength="53.2041" x="11.56" y="215.5851">Usuario</text></g><!--class Productos--><g class="entity" data-entity="Productos" data-source-line="8" data-uid="ent0006" id="entity_Productos"><rect fill="#F1F1F1" height="26.2969" rx="2.5" ry="2.5" style="stroke:#181818;stroke-width:0.5;" width="75.5693" x="102.37" y="197.59"/><text fill="#000000" font-family="sans-serif" font-size="14" lengthAdjust="spacing" textLength="69.5693" x="105.37" y="215.5851">Productos</text></g><!--class Celdas--><g class="entity" data-entity="Celdas" data-source-line="9" data-uid="ent0007" id="entity_Celdas"><rect fill="#F1F1F1" height="26.2969" rx="2.5" ry="2.5" style="stroke:#181818;stroke-width:0.5;" width="53.0381" x="113.64" y="94.29"/><text fill="#000000" font-family="sans-serif" font-size="14" lengthAdjust="spacing" textLength="47.0381" x="116.64" y="112.2851">Celdas</text></g><!--class Empleado--><g class="entity" data-entity="Empleado" data-source-line="10" data-uid="ent0008" id="entity_Empleado"><rect fill="#F1F1F1" height="26.2969" rx="2.5" ry="2.5" style="stroke:#181818;stroke-width:0.5;" width="75.9043" x="213.21" y="197.59"/><text fill="#000000" font-family="sans-serif" font-size="14" lengthAdjust="spacing" textLength="69.9043" x="216.21" y="215.5851">Empleado</text></g><!--reverse link Maquina to Celdas--><g class="link" data-entity-1="Maquina" data-entity-2="Celdas" data-source-line="12" data-uid="lnk9" id="link_Maquina_Celdas"><path codeLine="12" d="M180.5373,43.8154 C170.1373,59.9454 158.72,77.65 148.31,93.8" fill="none" id="Maquina-backto-Celdas" style="stroke:#181818;stroke-width:1;"/><polygon fill="#181818" points="187.04,33.73,180.4269,36.6051,180.5373,43.8154,187.1505,40.9403,187.04,33.73" style="stroke:#181818;stroke-width:1;"/></g><!--reverse link Celdas to Productos--><g class="link" data-entity-1="Celdas" data-entity-2="Productos" data-source-line="13" data-uid="lnk10" id="link_Celdas_Productos"><path codeLine="13" d="M140.16,132.86 C140.16,152.3 140.16,177.71 140.16,197.22" fill="none" id="Celdas-backto-Productos" style="stroke:#181818;stroke-width:1;"/><polygon fill="none" points="140.16,120.86,136.16,126.86,140.16,132.86,144.16,126.86,140.16,120.86" style="stroke:#181818;stroke-width:1;"/></g><!--reverse link Celdas to Usuario--><g class="link" data-entity-1="Celdas" data-entity-2="Usuario" data-source-line="14" data-uid="lnk12" id="link_Celdas_Usuario"><path codeLine="14" d="M107.7199,119.8495 C91.0899,126.6795 75.92,135.23 62.16,150.59 C50.03,164.13 43.59,184.59 40.53,197.56" fill="none" id="Celdas-backto-Usuario" style="stroke:#181818;stroke-width:1;"/><polygon fill="#181818" points="113.27,117.57,103.4251,117.2891,108.6449,119.4696,106.4644,124.6893,113.27,117.57" style="stroke:#181818;stroke-width:1;"/><text fill="#000000" font-family="sans-serif" font-size="13" lengthAdjust="spacing" textLength="68.4468" x="63.16" y="163.6569">selecciona</text></g><!--link Usuario to Pago--><g class="link" data-entity-1="Usuario" data-entity-2="Pago" data-source-line="15" data-uid="lnk13" id="link_Usuario_Pago"><path codeLine="15" d="M38.16,224.16 C38.16,243.6 38.16,275.01 38.16,294.51" fill="none" id="Usuario-to-Pago" style="stroke:#181818;stroke-width:1;"/><polygon fill="#181818" points="38.16,300.51,42.16,291.51,38.16,295.51,34.16,291.51,38.16,300.51" style="stroke:#181818;stroke-width:1;"/><text fill="#000000" font-family="sans-serif" font-size="13" lengthAdjust="spacing" textLength="49.0229" x="39.16" y="266.9569">efectua</text></g><!--reverse link Maquina to Empleado--><g class="link" data-entity-1="Maquina" data-entity-2="Empleado" data-source-line="16" data-uid="lnk15" id="link_Maquina_Empleado"><path codeLine="16" d="M200.5379,39.2718 C210.7079,73.5218 237.44,163.55 247.54,197.56" fill="none" id="Maquina-backto-Empleado" style="stroke:#181818;stroke-width:1;stroke-dasharray:7.0,7.0;"/><polygon fill="#181818" points="198.83,33.52,197.5573,43.2863,200.2533,38.3132,205.2264,41.0091,198.83,33.52" style="stroke:#181818;stroke-width:1;"/><text fill="#000000" font-family="sans-serif" font-size="13" lengthAdjust="spacing" textLength="59.1982" x="225.16" y="112.0069">abastece</text></g><!--link Pago to Efectivo--><g class="link" data-entity-1="Pago" data-entity-2="Efectivo" data-source-line="17" data-uid="lnk16" id="link_Pago_Efectivo"><path codeLine="17" d="M38.16,327.46 C38.16,346.9 38.16,378.31 38.16,397.81" fill="none" id="Pago-to-Efectivo" style="stroke:#181818;stroke-width:1;"/><polygon fill="#181818" points="38.16,403.81,42.16,394.81,38.16,398.81,34.16,394.81,38.16,403.81" style="stroke:#181818;stroke-width:1;"/><text fill="#000000" font-family="sans-serif" font-size="13" lengthAdjust="spacing" textLength="48.4453" x="39.16" y="370.2469">maneja</text></g><!--SRC=[HOyn3iCW34LtJk6v4Zb0XovLnafPSW37k0qLX1H3fTw-q88omVF__hPNQnZOx-a3dlt2KTHQIsGZEHQboA48tF2LxOQD9do4zXtlJCc-EywICTfEKmmcKmhI-ChEO8VHxuxH1ALQE9oqxfR_0w5KZf0M3dhMbsQ4CmWx9hAX11oEOgXB5fdhWhbeVHuCyp1S-aN5WGjAOcBrwwYj_QWYUjpuYLy0]--></g></svg>