<svg xmlns="http://www.w3.org/2000/svg" xmlns:xlink="http://www.w3.org/1999/xlink" contentStyleType="text/css" data-diagram-type="CLASS" height="686px" preserveAspectRatio="none" style="width:741px;height:686px;background:#FFFFFF;" version="1.1" viewBox="0 0 741 686" width="741px" zoomAndPan="magnify"><defs/><g><!--cluster moduloMaquina--><g class="cluster" data-entity="moduloMaquina" data-source-line="1" data-uid="ent0002" id="cluster_moduloMaquina"><path d="M230.48,6 L357.6714,6 A3.75,3.75 0 0 1 360.1714,8.5 L367.1714,28.2969 L401.48,28.2969 A2.5,2.5 0 0 1 403.98,30.7969 L403.98,248.5 A2.5,2.5 0 0 1 401.48,251 L230.48,251 A2.5,2.5 0 0 1 227.98,248.5 L227.98,8.5 A2.5,2.5 0 0 1 230.48,6" fill="none" style="stroke:#000000;stroke-width:1.5;"/><line style="stroke:#000000;stroke-width:1.5;" x1="227.98" x2="367.1714" y1="28.2969" y2="28.2969"/><text fill="#000000" font-family="sans-serif" font-size="14" font-weight="bold" lengthAdjust="spacing" textLength="126.1914" x="231.98" y="20.9951">moduloMaquina</text></g><!--cluster moduloInventario--><g class="cluster" data-entity="moduloInventario" data-source-line="7" data-uid="ent0005" id="cluster_moduloInventario"><path d="M566.48,300 L707.3159,300 A3.75,3.75 0 0 1 709.8159,302.5 L716.8159,322.2969 L716.48,322.2969 A2.5,2.5 0 0 1 718.98,324.7969 L718.98,544.5 A2.5,2.5 0 0 1 716.48,547 L566.48,547 A2.5,2.5 0 0 1 563.98,544.5 L563.98,302.5 A2.5,2.5 0 0 1 566.48,300" fill="none" style="stroke:#000000;stroke-width:1.5;"/><line style="stroke:#000000;stroke-width:1.5;" x1="563.98" x2="716.8159" y1="322.2969" y2="322.2969"/><text fill="#000000" font-family="sans-serif" font-size="14" font-weight="bold" lengthAdjust="spacing" textLength="139.8359" x="567.98" y="314.9951">moduloInventario</text></g><!--cluster moduloCaja--><g class="cluster" data-entity="moduloCaja" data-source-line="12" data-uid="ent0008" id="cluster_moduloCaja"><path d="M287.48,580 L381.0591,580 A3.75,3.75 0 0 1 383.5591,582.5 L390.5591,602.2969 L390.48,602.2969 A2.5,2.5 0 0 1 392.98,604.7969 L392.98,676.5 A2.5,2.5 0 0 1 390.48,679 L287.48,679 A2.5,2.5 0 0 1 284.98,676.5 L284.98,582.5 A2.5,2.5 0 0 1 287.48,580" fill="none" style="stroke:#000000;stroke-width:1.5;"/><line style="stroke:#000000;stroke-width:1.5;" x1="284.98" x2="390.5591" y1="602.2969" y2="602.2969"/><text fill="#000000" font-family="sans-serif" font-size="14" font-weight="bold" lengthAdjust="spacing" textLength="92.5791" x="288.98" y="594.9951">moduloCaja</text></g><!--cluster moduloPago--><g class="cluster" data-entity="moduloPago" data-source-line="16" data-uid="ent0010" id="cluster_moduloPago"><path d="M26.48,448 L125.439,448 A3.75,3.75 0 0 1 127.939,450.5 L134.939,470.2969 L258.48,470.2969 A2.5,2.5 0 0 1 260.98,472.7969 L260.98,676.5 A2.5,2.5 0 0 1 258.48,679 L26.48,679 A2.5,2.5 0 0 1 23.98,676.5 L23.98,450.5 A2.5,2.5 0 0 1 26.48,448" fill="none" style="stroke:#000000;stroke-width:1.5;"/><line style="stroke:#000000;stroke-width:1.5;" x1="23.98" x2="134.939" y1="470.2969" y2="470.2969"/><text fill="#000000" font-family="sans-serif" font-size="14" font-weight="bold" lengthAdjust="spacing" textLength="97.959" x="27.98" y="462.9951">moduloPago</text></g><!--cluster moduloUsuario--><g class="cluster" data-entity="moduloUsuario" data-source-line="22" data-uid="ent0014" id="cluster_moduloUsuario"><path d="M129.48,300 L249.5279,300 A3.75,3.75 0 0 1 252.0279,302.5 L259.0279,322.2969 L259.48,322.2969 A2.5,2.5 0 0 1 261.98,324.7969 L261.98,396.5 A2.5,2.5 0 0 1 259.48,399 L129.48,399 A2.5,2.5 0 0 1 126.98,396.5 L126.98,302.5 A2.5,2.5 0 0 1 129.48,300" fill="none" style="stroke:#000000;stroke-width:1.5;"/><line style="stroke:#000000;stroke-width:1.5;" x1="126.98" x2="259.0279" y1="322.2969" y2="322.2969"/><text fill="#000000" font-family="sans-serif" font-size="14" font-weight="bold" lengthAdjust="spacing" textLength="119.0479" x="130.98" y="314.9951">moduloUsuario</text></g><!--cluster moduloEmpleado--><g class="cluster" data-entity="moduloEmpleado" data-source-line="26" data-uid="ent0016" id="cluster_moduloEmpleado"><path d="M430.48,152 L567.645,152 A3.75,3.75 0 0 1 570.145,154.5 L577.145,174.2969 L577.48,174.2969 A2.5,2.5 0 0 1 579.98,176.7969 L579.98,248.5 A2.5,2.5 0 0 1 577.48,251 L430.48,251 A2.5,2.5 0 0 1 427.98,248.5 L427.98,154.5 A2.5,2.5 0 0 1 430.48,152" fill="none" style="stroke:#000000;stroke-width:1.5;"/><line style="stroke:#000000;stroke-width:1.5;" x1="427.98" x2="577.145" y1="174.2969" y2="174.2969"/><text fill="#000000" font-family="sans-serif" font-size="14" font-weight="bold" lengthAdjust="spacing" textLength="136.165" x="431.98" y="166.9951">moduloEmpleado</text></g><!--class Maquina--><g class="entity" data-entity="Maquina" data-source-line="2" data-uid="ent0003" id="entity_Maquina"><rect fill="#F1F1F1" height="48" rx="2.5" ry="2.5" style="stroke:#181818;stroke-width:0.5;" width="91.7598" x="251.98" y="187"/><ellipse cx="266.98" cy="203" fill="#ADD1B2" rx="11" ry="11" style="stroke:#181818;stroke-width:1;"/><path d="M269.9488,208.6406 Q269.3706,208.9375 268.73,209.0781 Q268.0894,209.2344 267.3863,209.2344 Q264.8863,209.2344 263.5581,207.5938 Q262.2456,205.9375 262.2456,202.8125 Q262.2456,199.6875 263.5581,198.0313 Q264.8863,196.375 267.3863,196.375 Q268.0894,196.375 268.73,196.5313 Q269.3863,196.6875 269.9488,196.9844 L269.9488,199.7031 Q269.3238,199.125 268.73,198.8594 Q268.1363,198.5781 267.5113,198.5781 Q266.1675,198.5781 265.48,199.6563 Q264.7925,200.7188 264.7925,202.8125 Q264.7925,204.9063 265.48,205.9844 Q266.1675,207.0469 267.5113,207.0469 Q268.1363,207.0469 268.73,206.7813 Q269.3238,206.5 269.9488,205.9219 L269.9488,208.6406 Z " fill="#000000"/><text fill="#000000" font-family="sans-serif" font-size="14" lengthAdjust="spacing" textLength="59.7598" x="280.98" y="207.8467">Maquina</text><line style="stroke:#181818;stroke-width:0.5;" x1="252.98" x2="342.7398" y1="219" y2="219"/><line style="stroke:#181818;stroke-width:0.5;" x1="252.98" x2="342.7398" y1="227" y2="227"/></g><!--class MaquinaFactory--><g class="entity" data-entity="MaquinaFactory" data-source-line="3" data-uid="ent0004" id="entity_MaquinaFactory"><rect fill="#F1F1F1" height="48" rx="2.5" ry="2.5" style="stroke:#181818;stroke-width:0.5;" width="144.1846" x="243.98" y="41"/><ellipse cx="258.98" cy="57" fill="#ADD1B2" rx="11" ry="11" style="stroke:#181818;stroke-width:1;"/><path d="M261.9488,62.6406 Q261.3706,62.9375 260.73,63.0781 Q260.0894,63.2344 259.3863,63.2344 Q256.8863,63.2344 255.5581,61.5938 Q254.2456,59.9375 254.2456,56.8125 Q254.2456,53.6875 255.5581,52.0313 Q256.8863,50.375 259.3863,50.375 Q260.0894,50.375 260.73,50.5313 Q261.3863,50.6875 261.9488,50.9844 L261.9488,53.7031 Q261.3238,53.125 260.73,52.8594 Q260.1363,52.5781 259.5113,52.5781 Q258.1675,52.5781 257.48,53.6563 Q256.7925,54.7188 256.7925,56.8125 Q256.7925,58.9063 257.48,59.9844 Q258.1675,61.0469 259.5113,61.0469 Q260.1363,61.0469 260.73,60.7813 Q261.3238,60.5 261.9488,59.9219 L261.9488,62.6406 Z " fill="#000000"/><text fill="#000000" font-family="sans-serif" font-size="14" lengthAdjust="spacing" textLength="112.1846" x="272.98" y="61.8467">MaquinaFactory</text><line style="stroke:#181818;stroke-width:0.5;" x1="244.98" x2="387.1646" y1="73" y2="73"/><line style="stroke:#181818;stroke-width:0.5;" x1="244.98" x2="387.1646" y1="81" y2="81"/></g><!--class Celda--><g class="entity" data-entity="Celda" data-source-line="8" data-uid="ent0006" id="entity_Celda"><rect fill="#F1F1F1" height="48" rx="2.5" ry="2.5" style="stroke:#181818;stroke-width:0.5;" width="71.7441" x="587.98" y="335"/><ellipse cx="602.98" cy="351" fill="#ADD1B2" rx="11" ry="11" style="stroke:#181818;stroke-width:1;"/><path d="M605.9488,356.6406 Q605.3706,356.9375 604.73,357.0781 Q604.0894,357.2344 603.3863,357.2344 Q600.8863,357.2344 599.5581,355.5938 Q598.2456,353.9375 598.2456,350.8125 Q598.2456,347.6875 599.5581,346.0313 Q600.8863,344.375 603.3863,344.375 Q604.0894,344.375 604.73,344.5313 Q605.3863,344.6875 605.9488,344.9844 L605.9488,347.7031 Q605.3238,347.125 604.73,346.8594 Q604.1363,346.5781 603.5113,346.5781 Q602.1675,346.5781 601.48,347.6563 Q600.7925,348.7188 600.7925,350.8125 Q600.7925,352.9063 601.48,353.9844 Q602.1675,355.0469 603.5113,355.0469 Q604.1363,355.0469 604.73,354.7813 Q605.3238,354.5 605.9488,353.9219 L605.9488,356.6406 Z " fill="#000000"/><text fill="#000000" font-family="sans-serif" font-size="14" lengthAdjust="spacing" textLength="39.7441" x="616.98" y="355.8467">Celda</text><line style="stroke:#181818;stroke-width:0.5;" x1="588.98" x2="658.7241" y1="367" y2="367"/><line style="stroke:#181818;stroke-width:0.5;" x1="588.98" x2="658.7241" y1="375" y2="375"/></g><!--class Producto--><g class="entity" data-entity="Producto" data-source-line="9" data-uid="ent0007" id="entity_Producto"><rect fill="#F1F1F1" height="48" rx="2.5" ry="2.5" style="stroke:#181818;stroke-width:0.5;" width="94.2754" x="584.98" y="483"/><ellipse cx="599.98" cy="499" fill="#ADD1B2" rx="11" ry="11" style="stroke:#181818;stroke-width:1;"/><path d="M602.9488,504.6406 Q602.3706,504.9375 601.73,505.0781 Q601.0894,505.2344 600.3863,505.2344 Q597.8863,505.2344 596.5581,503.5938 Q595.2456,501.9375 595.2456,498.8125 Q595.2456,495.6875 596.5581,494.0313 Q597.8863,492.375 600.3863,492.375 Q601.0894,492.375 601.73,492.5313 Q602.3863,492.6875 602.9488,492.9844 L602.9488,495.7031 Q602.3238,495.125 601.73,494.8594 Q601.1363,494.5781 600.5113,494.5781 Q599.1675,494.5781 598.48,495.6563 Q597.7925,496.7188 597.7925,498.8125 Q597.7925,500.9063 598.48,501.9844 Q599.1675,503.0469 600.5113,503.0469 Q601.1363,503.0469 601.73,502.7813 Q602.3238,502.5 602.9488,501.9219 L602.9488,504.6406 Z " fill="#000000"/><text fill="#000000" font-family="sans-serif" font-size="14" lengthAdjust="spacing" textLength="62.2754" x="613.98" y="503.8467">Producto</text><line style="stroke:#181818;stroke-width:0.5;" x1="585.98" x2="678.2554" y1="515" y2="515"/><line style="stroke:#181818;stroke-width:0.5;" x1="585.98" x2="678.2554" y1="523" y2="523"/></g><!--class Caja--><g class="entity" data-entity="Caja" data-source-line="13" data-uid="ent0009" id="entity_Caja"><rect fill="#F1F1F1" height="48" rx="2.5" ry="2.5" style="stroke:#181818;stroke-width:0.5;" width="62.8232" x="301.48" y="615"/><ellipse cx="316.48" cy="631" fill="#ADD1B2" rx="11" ry="11" style="stroke:#181818;stroke-width:1;"/><path d="M319.4488,636.6406 Q318.8706,636.9375 318.23,637.0781 Q317.5894,637.2344 316.8863,637.2344 Q314.3863,637.2344 313.0581,635.5938 Q311.7456,633.9375 311.7456,630.8125 Q311.7456,627.6875 313.0581,626.0313 Q314.3863,624.375 316.8863,624.375 Q317.5894,624.375 318.23,624.5313 Q318.8863,624.6875 319.4488,624.9844 L319.4488,627.7031 Q318.8238,627.125 318.23,626.8594 Q317.6363,626.5781 317.0113,626.5781 Q315.6675,626.5781 314.98,627.6563 Q314.2925,628.7188 314.2925,630.8125 Q314.2925,632.9063 314.98,633.9844 Q315.6675,635.0469 317.0113,635.0469 Q317.6363,635.0469 318.23,634.7813 Q318.8238,634.5 319.4488,633.9219 L319.4488,636.6406 Z " fill="#000000"/><text fill="#000000" font-family="sans-serif" font-size="14" lengthAdjust="spacing" textLength="30.8232" x="330.48" y="635.8467">Caja</text><line style="stroke:#181818;stroke-width:0.5;" x1="302.48" x2="363.3032" y1="647" y2="647"/><line style="stroke:#181818;stroke-width:0.5;" x1="302.48" x2="363.3032" y1="655" y2="655"/></g><!--class Pago--><g class="entity" data-entity="Pago" data-source-line="17" data-uid="ent0011" id="entity_Pago"><rect fill="#F1F1F1" height="48" rx="2.5" ry="2.5" style="stroke:#181818;stroke-width:0.5;" width="66.4736" x="47.98" y="615"/><ellipse cx="62.98" cy="631" fill="#B4A7E5" rx="11" ry="11" style="stroke:#181818;stroke-width:1;"/><path d="M58.9019,626.7656 L58.9019,624.6094 L66.2925,624.6094 L66.2925,626.7656 L63.8238,626.7656 L63.8238,634.8438 L66.2925,634.8438 L66.2925,637 L58.9019,637 L58.9019,634.8438 L61.3706,634.8438 L61.3706,626.7656 L58.9019,626.7656 Z " fill="#000000"/><text fill="#000000" font-family="sans-serif" font-size="14" font-style="italic" lengthAdjust="spacing" textLength="34.4736" x="76.98" y="635.8467">Pago</text><line style="stroke:#181818;stroke-width:0.5;" x1="48.98" x2="113.4536" y1="647" y2="647"/><line style="stroke:#181818;stroke-width:0.5;" x1="48.98" x2="113.4536" y1="655" y2="655"/></g><!--class Efectivo--><g class="entity" data-entity="Efectivo" data-source-line="18" data-uid="ent0012" id="entity_Efectivo"><rect fill="#F1F1F1" height="48" rx="2.5" ry="2.5" style="stroke:#181818;stroke-width:0.5;" width="88.3145" x="156.98" y="483"/><ellipse cx="171.98" cy="499" fill="#ADD1B2" rx="11" ry="11" style="stroke:#181818;stroke-width:1;"/><path d="M174.9488,504.6406 Q174.3706,504.9375 173.73,505.0781 Q173.0894,505.2344 172.3863,505.2344 Q169.8863,505.2344 168.5581,503.5938 Q167.2456,501.9375 167.2456,498.8125 Q167.2456,495.6875 168.5581,494.0313 Q169.8863,492.375 172.3863,492.375 Q173.0894,492.375 173.73,492.5313 Q174.3863,492.6875 174.9488,492.9844 L174.9488,495.7031 Q174.3238,495.125 173.73,494.8594 Q173.1363,494.5781 172.5113,494.5781 Q171.1675,494.5781 170.48,495.6563 Q169.7925,496.7188 169.7925,498.8125 Q169.7925,500.9063 170.48,501.9844 Q171.1675,503.0469 172.5113,503.0469 Q173.1363,503.0469 173.73,502.7813 Q174.3238,502.5 174.9488,501.9219 L174.9488,504.6406 Z " fill="#000000"/><text fill="#000000" font-family="sans-serif" font-size="14" lengthAdjust="spacing" textLength="56.3145" x="185.98" y="503.8467">Efectivo</text><line style="stroke:#181818;stroke-width:0.5;" x1="157.98" x2="244.2945" y1="515" y2="515"/><line style="stroke:#181818;stroke-width:0.5;" x1="157.98" x2="244.2945" y1="523" y2="523"/></g><!--class Tarjeta--><g class="entity" data-entity="Tarjeta" data-source-line="19" data-uid="ent0013" id="entity_Tarjeta"><rect fill="#F1F1F1" height="48" rx="2.5" ry="2.5" style="stroke:#181818;stroke-width:0.5;" width="81.458" x="40.48" y="483"/><ellipse cx="55.48" cy="499" fill="#ADD1B2" rx="11" ry="11" style="stroke:#181818;stroke-width:1;"/><path d="M58.4488,504.6406 Q57.8706,504.9375 57.23,505.0781 Q56.5894,505.2344 55.8863,505.2344 Q53.3863,505.2344 52.0581,503.5938 Q50.7456,501.9375 50.7456,498.8125 Q50.7456,495.6875 52.0581,494.0313 Q53.3863,492.375 55.8863,492.375 Q56.5894,492.375 57.23,492.5313 Q57.8863,492.6875 58.4488,492.9844 L58.4488,495.7031 Q57.8238,495.125 57.23,494.8594 Q56.6363,494.5781 56.0113,494.5781 Q54.6675,494.5781 53.98,495.6563 Q53.2925,496.7188 53.2925,498.8125 Q53.2925,500.9063 53.98,501.9844 Q54.6675,503.0469 56.0113,503.0469 Q56.6363,503.0469 57.23,502.7813 Q57.8238,502.5 58.4488,501.9219 L58.4488,504.6406 Z " fill="#000000"/><text fill="#000000" font-family="sans-serif" font-size="14" lengthAdjust="spacing" textLength="49.458" x="69.48" y="503.8467">Tarjeta</text><line style="stroke:#181818;stroke-width:0.5;" x1="41.48" x2="120.938" y1="515" y2="515"/><line style="stroke:#181818;stroke-width:0.5;" x1="41.48" x2="120.938" y1="523" y2="523"/></g><!--class Usuario--><g class="entity" data-entity="Usuario" data-source-line="23" data-uid="ent0015" id="entity_Usuario"><rect fill="#F1F1F1" height="48" rx="2.5" ry="2.5" style="stroke:#181818;stroke-width:0.5;" width="85.2041" x="158.48" y="335"/><ellipse cx="173.48" cy="351" fill="#ADD1B2" rx="11" ry="11" style="stroke:#181818;stroke-width:1;"/><path d="M176.4488,356.6406 Q175.8706,356.9375 175.23,357.0781 Q174.5894,357.2344 173.8863,357.2344 Q171.3863,357.2344 170.0581,355.5938 Q168.7456,353.9375 168.7456,350.8125 Q168.7456,347.6875 170.0581,346.0313 Q171.3863,344.375 173.8863,344.375 Q174.5894,344.375 175.23,344.5313 Q175.8863,344.6875 176.4488,344.9844 L176.4488,347.7031 Q175.8238,347.125 175.23,346.8594 Q174.6363,346.5781 174.0113,346.5781 Q172.6675,346.5781 171.98,347.6563 Q171.2925,348.7188 171.2925,350.8125 Q171.2925,352.9063 171.98,353.9844 Q172.6675,355.0469 174.0113,355.0469 Q174.6363,355.0469 175.23,354.7813 Q175.8238,354.5 176.4488,353.9219 L176.4488,356.6406 Z " fill="#000000"/><text fill="#000000" font-family="sans-serif" font-size="14" lengthAdjust="spacing" textLength="53.2041" x="187.48" y="355.8467">Usuario</text><line style="stroke:#181818;stroke-width:0.5;" x1="159.48" x2="242.6841" y1="367" y2="367"/><line style="stroke:#181818;stroke-width:0.5;" x1="159.48" x2="242.6841" y1="375" y2="375"/></g><!--class Empleado--><g class="entity" data-entity="Empleado" data-source-line="27" data-uid="ent0017" id="entity_Empleado"><rect fill="#F1F1F1" height="48" rx="2.5" ry="2.5" style="stroke:#181818;stroke-width:0.5;" width="101.9043" x="443.98" y="187"/><ellipse cx="458.98" cy="203" fill="#ADD1B2" rx="11" ry="11" style="stroke:#181818;stroke-width:1;"/><path d="M461.9488,208.6406 Q461.3706,208.9375 460.73,209.0781 Q460.0894,209.2344 459.3863,209.2344 Q456.8863,209.2344 455.5581,207.5938 Q454.2456,205.9375 454.2456,202.8125 Q454.2456,199.6875 455.5581,198.0313 Q456.8863,196.375 459.3863,196.375 Q460.0894,196.375 460.73,196.5313 Q461.3863,196.6875 461.9488,196.9844 L461.9488,199.7031 Q461.3238,199.125 460.73,198.8594 Q460.1363,198.5781 459.5113,198.5781 Q458.1675,198.5781 457.48,199.6563 Q456.7925,200.7188 456.7925,202.8125 Q456.7925,204.9063 457.48,205.9844 Q458.1675,207.0469 459.5113,207.0469 Q460.1363,207.0469 460.73,206.7813 Q461.3238,206.5 461.9488,205.9219 L461.9488,208.6406 Z " fill="#000000"/><text fill="#000000" font-family="sans-serif" font-size="14" lengthAdjust="spacing" textLength="69.9043" x="472.98" y="207.8467">Empleado</text><line style="stroke:#181818;stroke-width:0.5;" x1="444.98" x2="544.8843" y1="219" y2="219"/><line style="stroke:#181818;stroke-width:0.5;" x1="444.98" x2="544.8843" y1="227" y2="227"/></g><!--reverse link Maquina to Celda--><g class="link" data-entity-1="Maquina" data-entity-2="Celda" data-source-line="30" data-uid="lnk18" id="link_Maquina_Celda"><path codeLine="30" d="M343.2036,241.4714 C367.0936,256.5714 389.61,269.68 419.98,284 C476.89,310.83 546.36,334.15 587.79,347.12" fill="none" id="Maquina-backto-Celda" style="stroke:#181818;stroke-width:1;"/><polygon fill="none" points="333.06,235.06,335.9947,241.6469,343.2036,241.4714,340.269,234.8845,333.06,235.06" style="stroke:#181818;stroke-width:1;"/><text fill="#000000" font-family="sans-serif" font-size="13" lengthAdjust="spacing" textLength="56.2847" x="420.98" y="280.0669">contiene</text></g><!--reverse link Maquina to Caja--><g class="link" data-entity-1="Maquina" data-entity-2="Caja" data-source-line="31" data-uid="lnk19" id="link_Maquina_Caja"><path codeLine="31" d="M300.8713,247.1698 C306.9613,321.3898 324.97,540.52 331.07,614.77" fill="none" id="Maquina-backto-Caja" style="stroke:#181818;stroke-width:1;"/><polygon fill="none" points="299.89,235.21,296.3941,241.517,300.8713,247.1698,304.3673,240.8628,299.89,235.21" style="stroke:#181818;stroke-width:1;"/></g><!--link Maquina to Usuario--><g class="link" data-entity-1="Maquina" data-entity-2="Usuario" data-source-line="32" data-uid="lnk20" id="link_Maquina_Usuario"><path codeLine="32" d="M282.61,235.13 C264.45,262.47 237.7302,302.6824 219.6002,329.9724" fill="none" id="Maquina-to-Usuario" style="stroke:#181818;stroke-width:1;"/><polygon fill="#181818" points="216.28,334.97,224.592,329.687,219.0468,330.8053,217.9285,325.2601,216.28,334.97" style="stroke:#181818;stroke-width:1;"/></g><!--link Maquina to Pago--><g class="link" data-entity-1="Maquina" data-entity-2="Pago" data-source-line="33" data-uid="lnk21" id="link_Maquina_Pago"><path codeLine="33" d="M251.96,229.52 C219.19,243.38 175.25,264.89 141.98,292 C76.55,345.32 51.02,360.39 22.98,440 C6,488.21 7.63,506.25 22.98,555 C30.05,577.47 41.7249,594.5877 54.9549,610.1577" fill="none" id="Maquina-to-Pago" style="stroke:#181818;stroke-width:1;stroke-dasharray:7.0,7.0;"/><polygon fill="#181818" points="58.84,614.73,56.0605,605.2815,55.6024,610.9198,49.9641,610.4617,58.84,614.73" style="stroke:#181818;stroke-width:1;"/></g><!--reverse link Celda to Producto--><g class="link" data-entity-1="Celda" data-entity-2="Producto" data-source-line="35" data-uid="lnk22" id="link_Celda_Producto"><path codeLine="35" d="M625.9074,395.112 C627.4074,422.452 629.22,455.68 630.72,482.97" fill="none" id="Celda-backto-Producto" style="stroke:#181818;stroke-width:1;"/><polygon fill="#181818" points="625.25,383.13,621.5847,389.3401,625.9074,395.112,629.5727,388.9019,625.25,383.13" style="stroke:#181818;stroke-width:1;"/></g><!--link Efectivo to Caja--><g class="link" data-entity-1="Efectivo" data-entity-2="Caja" data-source-line="36" data-uid="lnk23" id="link_Efectivo_Caja"><path codeLine="36" d="M224.58,531.24 C248.61,554.9 281.3545,587.1605 305.3145,610.7505" fill="none" id="Efectivo-to-Caja" style="stroke:#181818;stroke-width:1;stroke-dasharray:7.0,7.0;"/><polygon fill="#181818" points="309.59,614.96,305.983,605.7954,306.0271,611.4521,300.3704,611.4961,309.59,614.96" style="stroke:#181818;stroke-width:1;"/></g><!--reverse link Usuario to Tarjeta--><g class="link" data-entity-1="Usuario" data-entity-2="Tarjeta" data-source-line="37" data-uid="lnk24" id="link_Usuario_Tarjeta"><path codeLine="37" d="M174.3507,392.4007 C151.8807,419.7407 122.34,455.68 99.91,482.97" fill="none" id="Usuario-backto-Tarjeta" style="stroke:#181818;stroke-width:1;"/><polygon fill="none" points="181.97,383.13,175.0701,385.2256,174.3507,392.4007,181.2506,390.3051,181.97,383.13" style="stroke:#181818;stroke-width:1;"/></g><!--reverse link Usuario to Efectivo--><g class="link" data-entity-1="Usuario" data-entity-2="Efectivo" data-source-line="38" data-uid="lnk25" id="link_Usuario_Efectivo"><path codeLine="38" d="M200.98,395.13 C200.98,422.47 200.98,455.68 200.98,482.97" fill="none" id="Usuario-backto-Efectivo" style="stroke:#181818;stroke-width:1;"/><polygon fill="none" points="200.98,383.13,196.98,389.13,200.98,395.13,204.98,389.13,200.98,383.13" style="stroke:#181818;stroke-width:1;"/></g><!--link Empleado to Caja--><g class="link" data-entity-1="Empleado" data-entity-2="Caja" data-source-line="40" data-uid="lnk26" id="link_Empleado_Caja"><path codeLine="40" d="M486.16,235.21 C457.93,309.43 372.183,534.9119 343.943,609.1619" fill="none" id="Empleado-to-Caja" style="stroke:#181818;stroke-width:1;stroke-dasharray:7.0,7.0;"/><polygon fill="#181818" points="341.81,614.77,348.7482,607.7799,343.5875,610.0966,341.2707,604.9359,341.81,614.77" style="stroke:#181818;stroke-width:1;"/><text fill="#000000" font-family="sans-serif" font-size="13" lengthAdjust="spacing" textLength="107.7388" x="417.98" y="428.0669">recargar / vaciar</text></g><!--link Empleado to Celda--><g class="link" data-entity-1="Empleado" data-entity-2="Celda" data-source-line="41" data-uid="lnk27" id="link_Empleado_Celda"><path codeLine="41" d="M487.88,235.28 C484.74,250.2 483.44,269.43 491.98,284 C512.5,319.02 550.6165,336.898 582.1465,347.008" fill="none" id="Empleado-to-Celda" style="stroke:#181818;stroke-width:1;stroke-dasharray:7.0,7.0;"/><polygon fill="#181818" points="587.86,348.84,580.5111,342.283,583.0988,347.3133,578.0685,349.901,587.86,348.84" style="stroke:#181818;stroke-width:1;"/><text fill="#000000" font-family="sans-serif" font-size="13" lengthAdjust="spacing" textLength="111.1665" x="492.98" y="280.0669">cargar productos</text></g><!--link Tarjeta to Pago--><g class="link" data-entity-1="Tarjeta" data-entity-2="Pago" data-source-line="43" data-uid="lnk28" id="link_Tarjeta_Pago"><path codeLine="43" d="M80.98,531.24 C80.98,554.9 80.98,573.37 80.98,596.96" fill="none" id="Tarjeta-to-Pago" style="stroke:#181818;stroke-width:1;stroke-dasharray:7.0,7.0;"/><polygon fill="none" points="80.98,614.96,86.98,596.96,74.98,596.96,80.98,614.96" style="stroke:#181818;stroke-width:1;"/></g><!--link Efectivo to Pago--><g class="link" data-entity-1="Efectivo" data-entity-2="Pago" data-source-line="44" data-uid="lnk29" id="link_Efectivo_Pago"><path codeLine="44" d="M179.53,531.24 C157.68,554.9 136.2274,578.142 114.4574,601.732" fill="none" id="Efectivo-to-Pago" style="stroke:#181818;stroke-width:1;stroke-dasharray:7.0,7.0;"/><polygon fill="none" points="102.25,614.96,118.8667,605.8012,110.0481,597.6629,102.25,614.96" style="stroke:#181818;stroke-width:1;"/></g><!--link MaquinaFactory to Maquina--><g class="link" data-entity-1="MaquinaFactory" data-entity-2="Maquina" data-source-line="46" data-uid="lnk30" id="link_MaquinaFactory_Maquina"><path codeLine="46" d="M313.09,89.14 C309.73,116.01 304.965,154.1164 301.605,180.9664" fill="none" id="MaquinaFactory-to-Maquina" style="stroke:#181818;stroke-width:1;"/><polygon fill="#181818" points="300.86,186.92,305.9466,178.4863,301.4809,181.9587,298.0085,177.493,300.86,186.92" style="stroke:#181818;stroke-width:1;"/><text fill="#000000" font-family="sans-serif" font-size="13" lengthAdjust="spacing" textLength="28.4565" x="309.98" y="132.0669">crea</text></g><!--link MaquinaFactory to Celda--><g class="link" data-entity-1="MaquinaFactory" data-entity-2="Celda" data-source-line="47" data-uid="lnk31" id="link_MaquinaFactory_Celda"><path codeLine="47" d="M388.25,72.17 C442.34,80.38 514.81,99.49 561.98,144 C616.28,195.24 623.8731,284.8504 624.3631,328.8104" fill="none" id="MaquinaFactory-to-Celda" style="stroke:#181818;stroke-width:1;"/><polygon fill="#181818" points="624.43,334.81,628.3294,325.766,624.3743,329.8103,620.3299,325.8551,624.43,334.81" style="stroke:#181818;stroke-width:1;"/><text fill="#000000" font-family="sans-serif" font-size="13" lengthAdjust="spacing" textLength="28.4565" x="616.98" y="215.5669">crea</text></g><!--link MaquinaFactory to Producto--><g class="link" data-entity-1="MaquinaFactory" data-entity-2="Producto" data-source-line="48" data-uid="lnk32" id="link_MaquinaFactory_Producto"><path codeLine="48" d="M388.24,72.95 C476.79,83.05 619.35,104.98 653.98,144 C731.89,231.79 703.31,292.39 677.98,407 C671.93,434.39 660.4763,457.9902 649.3763,477.4202" fill="none" id="MaquinaFactory-to-Producto" style="stroke:#181818;stroke-width:1;"/><polygon fill="#181818" points="646.4,482.63,654.3376,476.7995,648.8802,478.2885,647.3912,472.8311,646.4,482.63" style="stroke:#181818;stroke-width:1;"/><text fill="#000000" font-family="sans-serif" font-size="13" lengthAdjust="spacing" textLength="28.4565" x="704.98" y="280.0669">crea</text></g><!--SRC=[TPB1JiCm44Jl_efLZqWfTmwzL4NYWDG3VC3AsKOkgHqsJYG4_3jsudMJo1mzVZkUMRb3_O4DmUxcwg5rh_Wv68ix-5O0kiM-XoHjpy-elUCl2BhwLQfR-xpOaQn7DcvfTQIslXkTEQ31f31-nEigGpmNi3CsoTzOJtn1JH2rF7UwaFPcl0jlo5Vo9Q_tVjZ6JL81Fjswbh1UqQ95FEq8N5NDfU49jBFUaANrPImcGbKTyfkYxVU7kPAQVHx2K5wSr9keoIgDJzxITQdbXIY9csT3H2QDt2338uoe3VA6aYOprAKOlLBfgK3zfBYBQ2AfpS-9TQLcC6N24f4V_UTUbf6GFm00]--></g></svg>