<?xml version="1.0" encoding="us-ascii" standalone="no"?><svg xmlns="http://www.w3.org/2000/svg" xmlns:xlink="http://www.w3.org/1999/xlink" contentStyleType="text/css" height="474px" preserveAspectRatio="none" style="width:350px;height:474px;background:#FFFFFF;" version="1.1" viewBox="0 0 350 474" width="350px" zoomAndPan="magnify"><defs/><g><!--class Maquina--><g id="elem_Maquina"><rect codeLine="4" fill="#F1F1F1" height="27.6094" id="Maquina" rx="2.5" ry="2.5" style="stroke:#181818;stroke-width:0.5;" width="60" x="189" y="7"/><text fill="#000000" font-family="sans-serif" font-size="14" lengthAdjust="spacing" textLength="54" x="192" y="26.5332">Maquina</text></g><!--class Pago--><g id="elem_Pago"><rect codeLine="5" fill="#F1F1F1" height="27.6094" id="Pago" rx="2.5" ry="2.5" style="stroke:#181818;stroke-width:0.5;" width="39" x="51.5" y="335"/><text fill="#000000" font-family="sans-serif" font-size="14" lengthAdjust="spacing" textLength="33" x="54.5" y="354.5332">Pago</text></g><!--class Efectivo--><g id="elem_Efectivo"><rect codeLine="6" fill="#F1F1F1" height="27.6094" id="Efectivo" rx="2.5" ry="2.5" style="stroke:#181818;stroke-width:0.5;" width="56" x="184" y="335"/><text fill="#000000" font-family="sans-serif" font-size="14" lengthAdjust="spacing" textLength="50" x="187" y="354.5332">Efectivo</text></g><!--class Tarjeta--><g id="elem_Tarjeta"><rect codeLine="7" fill="#F1F1F1" height="27.6094" id="Tarjeta" rx="2.5" ry="2.5" style="stroke:#181818;stroke-width:0.5;" width="51" x="45.5" y="441"/><text fill="#000000" font-family="sans-serif" font-size="14" lengthAdjust="spacing" textLength="45" x="48.5" y="460.5332">Tarjeta</text></g><!--class Usuario--><g id="elem_Usuario"><rect codeLine="8" fill="#F1F1F1" height="27.6094" id="Usuario" rx="2.5" ry="2.5" style="stroke:#181818;stroke-width:0.5;" width="54" x="7" y="229"/><text fill="#000000" font-family="sans-serif" font-size="14" lengthAdjust="spacing" textLength="48" x="10" y="248.5332">Usuario</text></g><!--class Productos--><g id="elem_Productos"><rect codeLine="9" fill="#F1F1F1" height="27.6094" id="Productos" rx="2.5" ry="2.5" style="stroke:#181818;stroke-width:0.5;" width="70" x="96" y="229"/><text fill="#000000" font-family="sans-serif" font-size="14" lengthAdjust="spacing" textLength="64" x="99" y="248.5332">Productos</text></g><!--class Celdas--><g id="elem_Celdas"><rect codeLine="10" fill="#F1F1F1" height="27.6094" id="Celdas" rx="2.5" ry="2.5" style="stroke:#181818;stroke-width:0.5;" width="50" x="106" y="123"/><text fill="#000000" font-family="sans-serif" font-size="14" lengthAdjust="spacing" textLength="44" x="109" y="142.5332">Celdas</text></g><!--class Empleado--><g id="elem_Empleado"><rect codeLine="11" fill="#F1F1F1" height="27.6094" id="Empleado" rx="2.5" ry="2.5" style="stroke:#181818;stroke-width:0.5;" width="69" x="272.5" y="229"/><text fill="#000000" font-family="sans-serif" font-size="14" lengthAdjust="spacing" textLength="63" x="275.5" y="248.5332">Empleado</text></g><!--class Caja--><g id="elem_Caja"><rect codeLine="12" fill="#F1F1F1" height="27.6094" id="Caja" rx="2.5" ry="2.5" style="stroke:#181818;stroke-width:0.5;" width="35" x="201.5" y="65"/><text fill="#000000" font-family="sans-serif" font-size="14" lengthAdjust="spacing" textLength="29" x="204.5" y="84.5332">Caja</text></g><!--reverse link Maquina to Celdas--><g id="link_Maquina_Celdas"><path codeLine="14" d="M200.4931,44.3162 C193.5131,52.7762 191.93,54.83 184,65 C168.49,84.89 151.1,108.44 140.61,122.79 " fill="none" id="Maquina-backto-Celdas" style="stroke:#181818;stroke-width:1.0;"/><polygon fill="#181818" points="208.13,35.06,201.2261,37.1425,200.4931,44.3162,207.3969,42.2337,208.13,35.06" style="stroke:#181818;stroke-width:1.0;"/></g><!--reverse link Maquina to Caja--><g id="link_Maquina_Caja"><path codeLine="15" d="M219,47.27 C219,56.2 219,55.92 219,64.82 " fill="none" id="Maquina-backto-Caja" style="stroke:#181818;stroke-width:1.0;"/><polygon fill="#181818" points="219,35.27,215,41.27,219,47.27,223,41.27,219,35.27" style="stroke:#181818;stroke-width:1.0;"/></g><!--reverse link Caja to Efectivo--><g id="link_Caja_Efectivo"><path codeLine="16" d="M218.3378,105.2859 C217.1478,151.0159 213.53,289.58 212.34,334.95 " fill="none" id="Caja-backto-Efectivo" style="stroke:#181818;stroke-width:1.0;"/><polygon fill="none" points="218.65,93.29,214.4953,99.1839,218.3378,105.2859,222.4926,99.392,218.65,93.29" style="stroke:#181818;stroke-width:1.0;"/></g><!--reverse link Celdas to Productos--><g id="link_Celdas_Productos"><path codeLine="17" d="M131,163.17 C131,183.18 131,208.99 131,228.94 " fill="none" id="Celdas-backto-Productos" style="stroke:#181818;stroke-width:1.0;"/><polygon fill="none" points="131,151.17,127,157.17,131,163.17,135,157.17,131,151.17" style="stroke:#181818;stroke-width:1.0;"/></g><!--reverse link Celdas to Usuario--><g id="link_Celdas_Usuario"><path codeLine="18" d="M100.4331,150.6391 C85.1431,157.8491 71.63,166.32 59,181 C47.05,194.88 40.27,215.24 36.87,228.55 " fill="none" id="Celdas-backto-Usuario" style="stroke:#181818;stroke-width:1.0;"/><polygon fill="#181818" points="105.86,148.08,96.0136,148.3006,101.3376,150.2125,99.4257,155.5365,105.86,148.08" style="stroke:#181818;stroke-width:1.0;"/><text fill="#000000" font-family="sans-serif" font-size="13" lengthAdjust="spacing" textLength="62" x="60" y="195.4951">selecciona</text></g><!--link Usuario to Pago--><g id="link_Usuario_Pago"><path codeLine="19" d="M38.69,257.17 C45.8,277.18 57.2508,309.3364 64.3408,329.2864 " fill="none" id="Usuario-to-Pago" style="stroke:#181818;stroke-width:1.0;"/><polygon fill="#181818" points="66.35,334.94,67.1052,325.1201,64.6757,330.2287,59.5671,327.7991,66.35,334.94" style="stroke:#181818;stroke-width:1.0;"/><text fill="#000000" font-family="sans-serif" font-size="13" lengthAdjust="spacing" textLength="42" x="56" y="301.4951">efectua</text></g><!--reverse link Maquina to Empleado--><g id="link_Maquina_Empleado"><path codeLine="20" d="M236.216,39.7696 C243.516,47.7996 248.23,54.11 254,65 C284.18,121.98 299.64,198.6 304.89,228.89 " fill="none" id="Maquina-backto-Empleado" style="stroke:#181818;stroke-width:1.0;stroke-dasharray:7.0,7.0;"/><polygon fill="#181818" points="232.18,35.33,235.2743,44.6802,235.5434,39.0297,241.1938,39.2988,232.18,35.33" style="stroke:#181818;stroke-width:1.0;"/><text fill="#000000" font-family="sans-serif" font-size="13" lengthAdjust="spacing" textLength="53" x="289" y="142.4951">abastece</text></g><!--link Pago to Efectivo--><g id="link_Pago_Efectivo"><path codeLine="21" d="M90.61,349 C114.82,349 150.19,349 177.81,349 " fill="none" id="Pago-to-Efectivo" style="stroke:#181818;stroke-width:1.0;"/><polygon fill="#181818" points="183.81,349,174.81,345,178.81,349,174.81,353,183.81,349" style="stroke:#181818;stroke-width:1.0;"/><text fill="#000000" font-family="sans-serif" font-size="13" lengthAdjust="spacing" textLength="42" x="116.25" y="342.4951">maneja</text></g><!--link Pago to Tarjeta--><g id="link_Pago_Tarjeta"><path codeLine="22" d="M71,363.17 C71,383.18 71,414.99 71,434.94 " fill="none" id="Pago-to-Tarjeta" style="stroke:#181818;stroke-width:1.0;"/><polygon fill="#181818" points="71,440.94,75,431.94,71,435.94,67,431.94,71,440.94" style="stroke:#181818;stroke-width:1.0;"/><text fill="#000000" font-family="sans-serif" font-size="13" lengthAdjust="spacing" textLength="42" x="72" y="407.4951">maneja</text></g><!--SRC=[HP0n3iCW34LtJk6v4Zb0XYnHnqePcWEuuBPK458WbNhxEWqM2-BxF-oFdyuIK5ZB5mA56wMiddl9k6GyPQMCnvpXWk_DBLZLX8zOh-SxcU8-8g-ONbI4c_E6oOatfMWtKsAkUYHlKSGvh9xG2ZlY2vMgK-6ajT2jbFH1xGT49YGAW3hWVxLDhMb0ptgexQ27J9wCSP5xDeA1_OziqzvqOqy2GZTttI0BOG9lc0iPKlyN76jeINe8k127F3pBNjrGitu0]--></g></svg>