<svg xmlns="http://www.w3.org/2000/svg" xmlns:xlink="http://www.w3.org/1999/xlink" contentStyleType="text/css" data-diagram-type="CLASS" height="444px" preserveAspectRatio="none" style="width:541px;height:444px;background:#FFFFFF;" version="1.1" viewBox="0 0 541 444" width="541px" zoomAndPan="magnify"><defs/><g><!--class Maquina--><g id="elem_Maquina"><rect codeLine="4" fill="#F1F1F1" height="26.2969" id="Maquina" rx="2.5" ry="2.5" style="stroke:#181818;stroke-width:0.5;" width="65.7598" x="317" y="7"/><text fill="#000000" font-family="sans-serif" font-size="14" lengthAdjust="spacing" textLength="59.7598" x="320" y="24.9951">Maquina</text></g><!--class FormaDePago--><g id="elem_FormaDePago"><rect codeLine="5" fill="#F1F1F1" height="26.2969" id="FormaDePago" rx="2.5" ry="2.5" style="stroke:#181818;stroke-width:0.5;" width="104.458" x="259" y="412"/><text fill="#000000" font-family="sans-serif" font-size="14" lengthAdjust="spacing" textLength="98.458" x="262" y="429.9951">FormaDePago</text></g><!--class Pago--><g id="elem_Pago"><rect codeLine="6" fill="#F1F1F1" height="26.2969" id="Pago" rx="2.5" ry="2.5" style="stroke:#181818;stroke-width:0.5;" width="40.4736" x="228" y="325"/><text fill="#000000" font-family="sans-serif" font-size="14" lengthAdjust="spacing" textLength="34.4736" x="231" y="342.9951">Pago</text></g><!--class Usuario--><g id="elem_Usuario"><rect codeLine="7" fill="#F1F1F1" height="26.2969" id="Usuario" rx="2.5" ry="2.5" style="stroke:#181818;stroke-width:0.5;" width="59.2041" x="118.5" y="222"/><text fill="#000000" font-family="sans-serif" font-size="14" lengthAdjust="spacing" textLength="53.2041" x="121.5" y="239.9951">Usuario</text></g><!--class Productos--><g id="elem_Productos"><rect codeLine="8" fill="#F1F1F1" height="26.2969" id="Productos" rx="2.5" ry="2.5" style="stroke:#181818;stroke-width:0.5;" width="75.5693" x="7" y="222"/><text fill="#000000" font-family="sans-serif" font-size="14" lengthAdjust="spacing" textLength="69.5693" x="10" y="239.9951">Productos</text></g><!--class Celdas--><g id="elem_Celdas"><rect codeLine="9" fill="#F1F1F1" height="26.2969" id="Celdas" rx="2.5" ry="2.5" style="stroke:#181818;stroke-width:0.5;" width="53.0381" x="121.5" y="110"/><text fill="#000000" font-family="sans-serif" font-size="14" lengthAdjust="spacing" textLength="47.0381" x="124.5" y="127.9951">Celdas</text></g><!--class Compra--><g id="elem_Compra"><rect codeLine="10" fill="#F1F1F1" height="26.2969" id="Compra" rx="2.5" ry="2.5" style="stroke:#181818;stroke-width:0.5;" width="61.2002" x="247.5" y="166"/><text fill="#000000" font-family="sans-serif" font-size="14" lengthAdjust="spacing" textLength="55.2002" x="250.5" y="183.9951">Compra</text></g><!--class Empleado--><g id="elem_Empleado"><rect codeLine="11" fill="#F1F1F1" height="26.2969" id="Empleado" rx="2.5" ry="2.5" style="stroke:#181818;stroke-width:0.5;" width="75.9043" x="459" y="222"/><text fill="#000000" font-family="sans-serif" font-size="14" lengthAdjust="spacing" textLength="69.9043" x="462" y="239.9951">Empleado</text></g><!--link Maquina to FormaDePago--><g id="link_Maquina_FormaDePago"><path codeLine="13" d="M354.86,33.22 C361.87,51.99 374,89.2 374,122 C374,122 374,122 374,339 C374,370.04 351.236,393.4053 332.576,408.2453 " fill="transparent" id="Maquina-to-FormaDePago" style="stroke:#181818;stroke-width:1;"/><polygon fill="#181818" points="327.88,411.98,337.4138,409.5087,331.7933,408.8678,332.4342,403.2474,327.88,411.98" style="stroke:#181818;stroke-width:1;"/><text fill="#000000" font-family="sans-serif" font-size="13" lengthAdjust="spacing" textLength="48.4453" x="375" y="239.5669">maneja</text></g><!--link Maquina to Celdas--><g id="link_Maquina_Celdas"><path codeLine="14" d="M316.81,26.9 C288,33 245.87,44.3 213,63 C191.01,75.51 174.2143,92.1317 162.3043,105.4217 " fill="transparent" id="Maquina-to-Celdas" style="stroke:#181818;stroke-width:1;"/><polygon fill="#181818" points="158.3,109.89,167.2853,105.8571,161.6369,106.1664,161.3276,100.518,158.3,109.89" style="stroke:#181818;stroke-width:1;"/><text fill="#000000" font-family="sans-serif" font-size="13" lengthAdjust="spacing" textLength="32.9443" x="214" y="76.0669">tiene</text></g><!--link Maquina to Compra--><g id="link_Maquina_Compra"><path codeLine="15" d="M336.36,33.05 C328.26,40.87 318.35,51.68 312,63 C292.64,97.5 284.2534,138.2079 280.7134,159.9679 " fill="transparent" id="Maquina-to-Compra" style="stroke:#181818;stroke-width:1;"/><polygon fill="#181818" points="279.75,165.89,285.1433,157.6491,280.5529,160.9549,277.2471,156.3645,279.75,165.89" style="stroke:#181818;stroke-width:1;"/><text fill="#000000" font-family="sans-serif" font-size="13" lengthAdjust="spacing" textLength="34.1885" x="313" y="76.0669">inicia</text></g><!--link Celdas to Productos--><g id="link_Celdas_Productos"><path codeLine="16" d="M122.62,136.17 C109.34,143.45 93.49,153.69 82,166 C66.41,182.7 57.4179,201.631 51.6479,216.211 " fill="transparent" id="Celdas-to-Productos" style="stroke:#181818;stroke-width:1;"/><polygon fill="#181818" points="49.44,221.79,56.4712,214.8934,51.2799,217.1408,49.0325,211.9496,49.44,221.79" style="stroke:#181818;stroke-width:1;"/><text fill="#000000" font-family="sans-serif" font-size="13" lengthAdjust="spacing" textLength="56.2847" x="83" y="183.5669">contiene</text></g><!--reverse link Celdas to Usuario--><g id="link_Celdas_Usuario"><path codeLine="17" d="M148,142.19 C148,163.34 148,200.57 148,221.75 " fill="transparent" id="Celdas-backto-Usuario" style="stroke:#181818;stroke-width:1;"/><polygon fill="#181818" points="148,136.19,144,145.19,148,141.19,152,145.19,148,136.19" style="stroke:#181818;stroke-width:1;"/><text fill="#000000" font-family="sans-serif" font-size="13" lengthAdjust="spacing" textLength="68.4468" x="149" y="183.5669">selecciona</text></g><!--link Usuario to Pago--><g id="link_Usuario_Pago"><path codeLine="18" d="M151.62,248.06 C155.96,260.91 164.29,281.26 177,295 C191.2,310.35 206.8378,319.3672 222.3478,326.4172 " fill="transparent" id="Usuario-to-Pago" style="stroke:#181818;stroke-width:1;"/><polygon fill="#181818" points="227.81,328.9,221.2719,321.5343,223.2582,326.831,217.9615,328.8172,227.81,328.9" style="stroke:#181818;stroke-width:1;"/><text fill="#000000" font-family="sans-serif" font-size="13" lengthAdjust="spacing" textLength="43.3228" x="178" y="291.0669">realiza</text></g><!--link Pago to FormaDePago--><g id="link_Pago_FormaDePago"><path codeLine="19" d="M257.03,351.18 C269,367.34 286.4459,390.8807 298.4159,407.0207 " fill="transparent" id="Pago-to-FormaDePago" style="stroke:#181818;stroke-width:1;"/><polygon fill="#181818" points="301.99,411.84,299.8416,402.2283,299.0115,407.8239,293.4159,406.9938,301.99,411.84" style="stroke:#181818;stroke-width:1;"/></g><!--link Compra to Pago--><g id="link_Compra_Pago"><path codeLine="20" d="M275.7,192.06 C270.13,221.21 257.0962,289.3766 251.4762,318.7866 " fill="transparent" id="Compra-to-Pago" style="stroke:#181818;stroke-width:1;"/><polygon fill="#181818" points="250.35,324.68,255.9682,316.5907,251.2885,319.7689,248.1103,315.0892,250.35,324.68" style="stroke:#181818;stroke-width:1;"/><text fill="#000000" font-family="sans-serif" font-size="13" lengthAdjust="spacing" textLength="54.7866" x="271" y="239.5669">requiere</text></g><!--reverse link Maquina to Empleado--><g id="link_Maquina_Empleado"><path codeLine="21" d="M372.3516,36.8912 C382.6216,44.6312 390.57,51.67 400,63 C444.32,116.26 479.34,192.58 491.95,221.89 " fill="transparent" id="Maquina-backto-Empleado" style="stroke:#181818;stroke-width:1;"/><polygon fill="#181818" points="367.56,33.28,372.3399,41.8912,371.553,36.2893,377.1548,35.5024,367.56,33.28" style="stroke:#181818;stroke-width:1;"/><text fill="#000000" font-family="sans-serif" font-size="13" lengthAdjust="spacing" textLength="44.77" x="449" y="127.5669">rellena</text></g><!--SRC=[NOyx4i8m34Hxdq8No0KeQFXqpD1m065hY1ZR2dPImEcn4oKaT5uzQNVTiYEWqFLl21JkbB9fwyXoifwoCTPZpd31ry0HLPqb1JpI5H-YazNpbWTCl80aRh2zPDK7yWuN8Q5Bi-afT9xGYJ4Q1aspNqV13W96Uk9cOJ8ih6UA15is-XV6aIqZ65skR2bMi9MerreUcjlQEfCdQrcAxM-ZUaoj4g7dJs6Z_czjjCNce7IaLFBcJzV0mkVoTSLxYlW5]--></g></svg>