<svg xmlns="http://www.w3.org/2000/svg" xmlns:xlink="http://www.w3.org/1999/xlink" contentStyleType="text/css" data-diagram-type="CLASS" height="358px" preserveAspectRatio="none" style="width:367px;height:358px;background:#FFFFFF;" version="1.1" viewBox="0 0 367 358" width="367px" zoomAndPan="magnify"><defs/><g><!--class Maquina--><g class="entity" data-entity="Maquina" data-source-line="4" data-uid="ent0002" id="entity_Maquina"><rect fill="#F1F1F1" height="26.2969" rx="2.5" ry="2.5" style="stroke:#181818;stroke-width:0.5;" width="65.7598" x="196.72" y="7"/><text fill="#000000" font-family="sans-serif" font-size="14" lengthAdjust="spacing" textLength="59.7598" x="199.72" y="24.9951">Maquina</text></g><!--class Pago--><g class="entity" data-entity="Pago" data-source-line="5" data-uid="ent0003" id="entity_Pago"><rect fill="#F1F1F1" height="26.2969" rx="2.5" ry="2.5" style="stroke:#181818;stroke-width:0.5;" width="40.4736" x="52.37" y="326.18"/><text fill="#000000" font-family="sans-serif" font-size="14" lengthAdjust="spacing" textLength="34.4736" x="55.37" y="344.1751">Pago</text></g><!--class Efectivo--><g class="entity" data-entity="Efectivo" data-source-line="6" data-uid="ent0004" id="entity_Efectivo"><rect fill="#F1F1F1" height="26.2969" rx="2.5" ry="2.5" style="stroke:#181818;stroke-width:0.5;" width="62.3145" x="191.44" y="326.18"/><text fill="#000000" font-family="sans-serif" font-size="14" lengthAdjust="spacing" textLength="56.3145" x="194.44" y="344.1751">Efectivo</text></g><!--class Usuario--><g class="entity" data-entity="Usuario" data-source-line="7" data-uid="ent0005" id="entity_Usuario"><rect fill="#F1F1F1" height="26.2969" rx="2.5" ry="2.5" style="stroke:#181818;stroke-width:0.5;" width="59.2041" x="7" y="222.89"/><text fill="#000000" font-family="sans-serif" font-size="14" lengthAdjust="spacing" textLength="53.2041" x="10" y="240.8851">Usuario</text></g><!--class Productos--><g class="entity" data-entity="Productos" data-source-line="8" data-uid="ent0006" id="entity_Productos"><rect fill="#F1F1F1" height="26.2969" rx="2.5" ry="2.5" style="stroke:#181818;stroke-width:0.5;" width="75.5693" x="100.82" y="222.89"/><text fill="#000000" font-family="sans-serif" font-size="14" lengthAdjust="spacing" textLength="69.5693" x="103.82" y="240.8851">Productos</text></g><!--class Celdas--><g class="entity" data-entity="Celdas" data-source-line="9" data-uid="ent0007" id="entity_Celdas"><rect fill="#F1F1F1" height="26.2969" rx="2.5" ry="2.5" style="stroke:#181818;stroke-width:0.5;" width="53.0381" x="112.08" y="119.59"/><text fill="#000000" font-family="sans-serif" font-size="14" lengthAdjust="spacing" textLength="47.0381" x="115.08" y="137.5851">Celdas</text></g><!--class Empleado--><g class="entity" data-entity="Empleado" data-source-line="10" data-uid="ent0008" id="entity_Empleado"><rect fill="#F1F1F1" height="26.2969" rx="2.5" ry="2.5" style="stroke:#181818;stroke-width:0.5;" width="75.9043" x="282.65" y="222.89"/><text fill="#000000" font-family="sans-serif" font-size="14" lengthAdjust="spacing" textLength="69.9043" x="285.65" y="240.8851">Empleado</text></g><!--class Caja--><g class="entity" data-entity="Caja" data-source-line="11" data-uid="ent0009" id="entity_Caja"><rect fill="#F1F1F1" height="26.2969" rx="2.5" ry="2.5" style="stroke:#181818;stroke-width:0.5;" width="36.8232" x="211.19" y="63.29"/><text fill="#000000" font-family="sans-serif" font-size="14" lengthAdjust="spacing" textLength="30.8232" x="214.19" y="81.2851">Caja</text></g><!--reverse link Maquina to Celdas--><g class="link" data-entity-1="Maquina" data-entity-2="Celdas" data-source-line="13" data-uid="lnk10" id="link_Maquina_Celdas"><path codeLine="13" d="M210.9536,42.688 C203.7536,51.038 201.95,53.21 193.6,63.29 C177.55,82.66 159.35,105.5 148.43,119.28" fill="none" id="Maquina-backto-Celdas" style="stroke:#181818;stroke-width:1;"/><polygon fill="#181818" points="218.79,33.6,211.8425,35.5319,210.9536,42.688,217.9012,40.7561,218.79,33.6" style="stroke:#181818;stroke-width:1;"/></g><!--reverse link Maquina to Caja--><g class="link" data-entity-1="Maquina" data-entity-2="Caja" data-source-line="14" data-uid="lnk11" id="link_Maquina_Caja"><path codeLine="14" d="M229.6,45.74 C229.6,54.51 229.6,54.16 229.6,62.92" fill="none" id="Maquina-backto-Caja" style="stroke:#181818;stroke-width:1;"/><polygon fill="#181818" points="229.6,33.74,225.6,39.74,229.6,45.74,233.6,39.74,229.6,33.74" style="stroke:#181818;stroke-width:1;"/></g><!--reverse link Caja to Efectivo--><g class="link" data-entity-1="Caja" data-entity-2="Efectivo" data-source-line="15" data-uid="lnk12" id="link_Caja_Efectivo"><path codeLine="15" d="M228.9396,102.0157 C227.7596,146.1957 224.12,281.9 222.94,325.87" fill="none" id="Caja-backto-Efectivo" style="stroke:#181818;stroke-width:1;"/><polygon fill="none" points="229.26,90.02,225.1012,95.9111,228.9396,102.0157,233.0984,96.1247,229.26,90.02" style="stroke:#181818;stroke-width:1;"/></g><!--reverse link Celdas to Productos--><g class="link" data-entity-1="Celdas" data-entity-2="Productos" data-source-line="16" data-uid="lnk13" id="link_Celdas_Productos"><path codeLine="16" d="M138.6,158.16 C138.6,177.6 138.6,203.01 138.6,222.51" fill="none" id="Celdas-backto-Productos" style="stroke:#181818;stroke-width:1;"/><polygon fill="none" points="138.6,146.16,134.6,152.16,138.6,158.16,142.6,152.16,138.6,146.16" style="stroke:#181818;stroke-width:1;"/></g><!--reverse link Celdas to Usuario--><g class="link" data-entity-1="Celdas" data-entity-2="Usuario" data-source-line="17" data-uid="lnk15" id="link_Celdas_Usuario"><path codeLine="17" d="M106.1699,145.1395 C89.5399,151.9695 74.36,160.52 60.6,175.89 C48.48,189.42 42.04,209.89 38.97,222.85" fill="none" id="Celdas-backto-Usuario" style="stroke:#181818;stroke-width:1;"/><polygon fill="#181818" points="111.72,142.86,101.8751,142.5791,107.0949,144.7596,104.9144,149.9793,111.72,142.86" style="stroke:#181818;stroke-width:1;"/><text fill="#000000" font-family="sans-serif" font-size="13" lengthAdjust="spacing" textLength="68.4468" x="61.6" y="188.9569">selecciona</text></g><!--link Usuario to Pago--><g class="link" data-entity-1="Usuario" data-entity-2="Pago" data-source-line="18" data-uid="lnk16" id="link_Usuario_Pago"><path codeLine="18" d="M41.02,249.46 C47.93,268.9 59.2108,300.6564 66.1408,320.1564" fill="none" id="Usuario-to-Pago" style="stroke:#181818;stroke-width:1;"/><polygon fill="#181818" points="68.15,325.81,68.9053,315.9901,66.4757,321.0987,61.3671,318.6691,68.15,325.81" style="stroke:#181818;stroke-width:1;"/><text fill="#000000" font-family="sans-serif" font-size="13" lengthAdjust="spacing" textLength="49.0229" x="58.6" y="292.2469">efectua</text></g><!--reverse link Maquina to Empleado--><g class="link" data-entity-1="Maquina" data-entity-2="Empleado" data-source-line="19" data-uid="lnk18" id="link_Maquina_Empleado"><path codeLine="19" d="M246.9039,38.1095 C254.4739,45.9995 259.51,52.36 265.6,63.29 C296.39,118.54 312.83,193.53 318.4,222.71" fill="none" id="Maquina-backto-Empleado" style="stroke:#181818;stroke-width:1;stroke-dasharray:7.0,7.0;"/><polygon fill="#181818" points="242.75,33.78,246.0945,43.0436,246.2116,37.3879,251.8673,37.505,242.75,33.78" style="stroke:#181818;stroke-width:1;"/><text fill="#000000" font-family="sans-serif" font-size="13" lengthAdjust="spacing" textLength="59.1982" x="300.6" y="137.3069">abastece</text></g><!--link Pago to Efectivo--><g class="link" data-entity-1="Pago" data-entity-2="Efectivo" data-source-line="20" data-uid="lnk19" id="link_Pago_Efectivo"><path codeLine="20" d="M93.14,339.33 C118.42,339.33 155.6,339.33 185.08,339.33" fill="none" id="Pago-to-Efectivo" style="stroke:#181818;stroke-width:1;"/><polygon fill="#181818" points="191.08,339.33,182.08,335.33,186.08,339.33,182.08,343.33,191.08,339.33" style="stroke:#181818;stroke-width:1;"/><text fill="#000000" font-family="sans-serif" font-size="13" lengthAdjust="spacing" textLength="48.4453" x="118.14" y="332.3969">maneja</text></g><!--SRC=[HP0z3iCW38LtJk6v4Zb0XYnHnafPSW07t8O8GifFfTw-a81O4C_-U7vcKvA0p1b-OCYiv3pRSaae9pHvneH6x-69dwWEB6h6jotNwKKYg6-LYu_eL5MpipAAO7tH8sc9LKpcr8IoiYFko5YP0m_EAzrAZjzKFi0ceWu7O3TyLTlKaWRumeTY1pruqYI4iicp4Gd8MwKsPTEOUZKWT4lN3VKB4e4h-a22sFKYnHfQaXuC7hJZ7m00]--></g></svg>