<svg xmlns="http://www.w3.org/2000/svg" xmlns:xlink="http://www.w3.org/1999/xlink" contentStyleType="text/css" data-diagram-type="CLASS" height="533px" preserveAspectRatio="none" style="width:485px;height:533px;background:#FFFFFF;" version="1.1" viewBox="0 0 485 533" width="485px" zoomAndPan="magnify"><defs/><g><!--class Maquina--><g class="entity" data-entity="Maquina" data-source-line="4" data-uid="ent0002" id="entity_Maquina"><rect fill="#F1F1F1" height="26.2969" rx="2.5" ry="2.5" style="stroke:#181818;stroke-width:0.5;" width="65.7598" x="246.9" y="7"/><text fill="#000000" font-family="sans-serif" font-size="14" lengthAdjust="spacing" textLength="59.7598" x="249.9" y="24.9951">Maquina</text></g><!--class FormaDePago--><g class="entity" data-entity="FormaDePago" data-source-line="5" data-uid="ent0003" id="entity_FormaDePago"><rect fill="#F1F1F1" height="26.2969" rx="2.5" ry="2.5" style="stroke:#181818;stroke-width:0.5;" width="104.458" x="221.56" y="413.49"/><text fill="#000000" font-family="sans-serif" font-size="14" lengthAdjust="spacing" textLength="98.458" x="224.56" y="431.4851">FormaDePago</text></g><!--class Pago--><g class="entity" data-entity="Pago" data-source-line="6" data-uid="ent0004" id="entity_Pago"><rect fill="#F1F1F1" height="26.2969" rx="2.5" ry="2.5" style="stroke:#181818;stroke-width:0.5;" width="40.4736" x="209.55" y="326.19"/><text fill="#000000" font-family="sans-serif" font-size="14" lengthAdjust="spacing" textLength="34.4736" x="212.55" y="344.1851">Pago</text></g><!--class Usuario--><g class="entity" data-entity="Usuario" data-source-line="7" data-uid="ent0005" id="entity_Usuario"><rect fill="#F1F1F1" height="26.2969" rx="2.5" ry="2.5" style="stroke:#181818;stroke-width:0.5;" width="59.2041" x="117.18" y="222.89"/><text fill="#000000" font-family="sans-serif" font-size="14" lengthAdjust="spacing" textLength="53.2041" x="120.18" y="240.8851">Usuario</text></g><!--class Productos--><g class="entity" data-entity="Productos" data-source-line="8" data-uid="ent0006" id="entity_Productos"><rect fill="#F1F1F1" height="26.2969" rx="2.5" ry="2.5" style="stroke:#181818;stroke-width:0.5;" width="75.5693" x="7" y="222.89"/><text fill="#000000" font-family="sans-serif" font-size="14" lengthAdjust="spacing" textLength="69.5693" x="10" y="240.8851">Productos</text></g><!--class Celdas--><g class="entity" data-entity="Celdas" data-source-line="9" data-uid="ent0007" id="entity_Celdas"><rect fill="#F1F1F1" height="26.2969" rx="2.5" ry="2.5" style="stroke:#181818;stroke-width:0.5;" width="53.0381" x="109.27" y="110.3"/><text fill="#000000" font-family="sans-serif" font-size="14" lengthAdjust="spacing" textLength="47.0381" x="112.27" y="128.2951">Celdas</text></g><!--class Compra--><g class="entity" data-entity="Compra" data-source-line="10" data-uid="ent0008" id="entity_Compra"><rect fill="#F1F1F1" height="26.2969" rx="2.5" ry="2.5" style="stroke:#181818;stroke-width:0.5;" width="61.2002" x="211.18" y="166.6"/><text fill="#000000" font-family="sans-serif" font-size="14" lengthAdjust="spacing" textLength="55.2002" x="214.18" y="184.5951">Compra</text></g><!--class Empleado--><g class="entity" data-entity="Empleado" data-source-line="11" data-uid="ent0009" id="entity_Empleado"><rect fill="#F1F1F1" height="26.2969" rx="2.5" ry="2.5" style="stroke:#181818;stroke-width:0.5;" width="75.9043" x="402.83" y="222.89"/><text fill="#000000" font-family="sans-serif" font-size="14" lengthAdjust="spacing" textLength="69.9043" x="405.83" y="240.8851">Empleado</text></g><!--class Efectivo--><g class="entity" data-entity="Efectivo" data-source-line="22" data-uid="ent0021" id="entity_Efectivo"><rect fill="#F1F1F1" height="26.2969" rx="2.5" ry="2.5" style="stroke:#181818;stroke-width:0.5;" width="62.3145" x="148.63" y="500.78"/><text fill="#000000" font-family="sans-serif" font-size="14" lengthAdjust="spacing" textLength="56.3145" x="151.63" y="518.7751">Efectivo</text></g><!--class Tarjeta--><g class="entity" data-entity="Tarjeta" data-source-line="23" data-uid="ent0023" id="entity_Tarjeta"><rect fill="#F1F1F1" height="26.2969" rx="2.5" ry="2.5" style="stroke:#181818;stroke-width:0.5;" width="55.458" x="246.06" y="500.78"/><text fill="#000000" font-family="sans-serif" font-size="14" lengthAdjust="spacing" textLength="49.458" x="249.06" y="518.7751">Tarjeta</text></g><!--class Monedero--><g class="entity" data-entity="Monedero" data-source-line="24" data-uid="ent0025" id="entity_Monedero"><rect fill="#F1F1F1" height="26.2969" rx="2.5" ry="2.5" style="stroke:#181818;stroke-width:0.5;" width="75.9521" x="336.81" y="500.78"/><text fill="#000000" font-family="sans-serif" font-size="14" lengthAdjust="spacing" textLength="69.9521" x="339.81" y="518.7751">Monedero</text></g><!--link Maquina to FormaDePago--><g class="link" data-entity-1="Maquina" data-entity-2="FormaDePago" data-source-line="13" data-uid="lnk10" id="link_Maquina_FormaDePago"><path codeLine="13" d="M287.84,33.69 C299,52.29 317.78,88.64 317.78,122.45 C317.78,122.45 317.78,122.45 317.78,340.34 C317.78,368.83 301.9717,392.6946 288.9417,408.4646 " fill="none" id="Maquina-to-FormaDePago" style="stroke:#181818;stroke-width:1;"/><polygon fill="#181818" points="285.12,413.09,293.9362,408.6997,288.3048,409.2355,287.769,403.6041,285.12,413.09" style="stroke:#181818;stroke-width:1;"/><text fill="#000000" font-family="sans-serif" font-size="13" lengthAdjust="spacing" textLength="48.4453" x="318.78" y="240.6069">maneja</text></g><!--reverse link Maquina to Celdas--><g class="link" data-entity-1="Maquina" data-entity-2="Celdas" data-source-line="14" data-uid="lnk11" id="link_Maquina_Celdas"><path codeLine="14" d="M240.094,38.9147 C224.104,46.4847 215.08,51.74 198.78,63.3 C178.96,77.36 159,97.31 147.01,110.07 " fill="none" id="Maquina-backto-Celdas" style="stroke:#181818;stroke-width:1;"/><polygon fill="#181818" points="250.94,33.78,243.8055,32.732,240.094,38.9147,247.2286,39.9627,250.94,33.78" style="stroke:#181818;stroke-width:1;"/></g><!--link Maquina to Compra--><g class="link" data-entity-1="Maquina" data-entity-2="Compra" data-source-line="15" data-uid="lnk12" id="link_Maquina_Compra"><path codeLine="15" d="M262.55,33.5 C253.63,40.99 243.62,51.38 238.78,63.3 C224.53,98.41 231.518,138.7759 236.908,160.5459 " fill="none" id="Maquina-to-Compra" style="stroke:#181818;stroke-width:1;"/><polygon fill="#181818" points="238.35,166.37,240.0698,156.6725,237.1483,161.5165,232.3043,158.5951,238.35,166.37" style="stroke:#181818;stroke-width:1;"/><text fill="#000000" font-family="sans-serif" font-size="13" lengthAdjust="spacing" textLength="51.4351" x="239.78" y="76.3669">procesa</text></g><!--reverse link Celdas to Productos--><g class="link" data-entity-1="Celdas" data-entity-2="Productos" data-source-line="16" data-uid="lnk13" id="link_Celdas_Productos"><path codeLine="16" d="M118.0741,145.9753 C100.5841,167.2253 72.44,201.43 54.92,222.73 " fill="none" id="Celdas-backto-Productos" style="stroke:#181818;stroke-width:1;"/><polygon fill="none" points="125.7,136.71,118.7986,138.8007,118.0741,145.9753,124.9755,143.8846,125.7,136.71" style="stroke:#181818;stroke-width:1;"/></g><!--reverse link Celdas to Usuario--><g class="link" data-entity-1="Celdas" data-entity-2="Usuario" data-source-line="17" data-uid="lnk15" id="link_Celdas_Usuario"><path codeLine="17" d="M128.3442,142.5483 C123.1642,156.3683 118.86,173.6 123.78,192.89 C126.5,203.55 132.53,214.43 137.74,222.46 " fill="none" id="Celdas-backto-Usuario" style="stroke:#181818;stroke-width:1;"/><polygon fill="#181818" points="130.45,136.93,123.5457,143.9536,128.6951,141.6119,131.0368,146.7614,130.45,136.93" style="stroke:#181818;stroke-width:1;"/><text fill="#000000" font-family="sans-serif" font-size="13" lengthAdjust="spacing" textLength="68.4468" x="124.78" y="184.3069">selecciona</text></g><!--link Usuario to Pago--><g class="link" data-entity-1="Usuario" data-entity-2="Pago" data-source-line="18" data-uid="lnk16" id="link_Usuario_Pago"><path codeLine="18" d="M144.88,249.47 C143.6,262.27 143.54,282.25 152.78,296.19 C165.84,315.88 185.6026,325.3191 203.6726,331.1791 " fill="none" id="Usuario-to-Pago" style="stroke:#181818;stroke-width:1;"/><polygon fill="#181818" points="209.38,333.03,202.0528,326.4488,204.6238,331.4876,199.585,334.0586,209.38,333.03" style="stroke:#181818;stroke-width:1;"/><text fill="#000000" font-family="sans-serif" font-size="13" lengthAdjust="spacing" textLength="49.0229" x="153.78" y="292.2569">efectua</text></g><!--link Pago to FormaDePago--><g class="link" data-entity-1="Pago" data-entity-2="FormaDePago" data-source-line="19" data-uid="lnk17" id="link_Pago_FormaDePago"><path codeLine="19" d="M236.28,352.92 C244.6,369.05 256.177,391.5189 264.517,407.6689 " fill="none" id="Pago-to-FormaDePago" style="stroke:#181818;stroke-width:1;"/><polygon fill="#181818" points="267.27,413,266.6945,403.168,264.9758,408.5574,259.5864,406.8387,267.27,413" style="stroke:#181818;stroke-width:1;"/></g><!--link Compra to Pago--><g class="link" data-entity-1="Compra" data-entity-2="Pago" data-source-line="20" data-uid="lnk18" id="link_Compra_Pago"><path codeLine="20" d="M240.82,193.37 C238.56,223.03 233.8616,284.8447 231.6316,314.1147 " fill="none" id="Compra-to-Pago" style="stroke:#181818;stroke-width:1;"/><polygon fill="#181818" points="230.72,326.08,235.1642,320.4012,231.6316,314.1147,227.1874,319.7935,230.72,326.08" style="stroke:#181818;stroke-width:1;"/></g><!--reverse link Maquina to Empleado--><g class="link" data-entity-1="Maquina" data-entity-2="Empleado" data-source-line="21" data-uid="lnk20" id="link_Maquina_Empleado"><path codeLine="21" d="M309.8104,36.7726 C322.6004,44.1326 332.61,51.34 343.78,63.3 C391.23,114.1 424.42,192.33 436.13,222.54 " fill="none" id="Maquina-backto-Empleado" style="stroke:#181818;stroke-width:1;stroke-dasharray:7.0,7.0;"/><polygon fill="#181818" points="304.61,33.78,310.4156,41.7358,308.9437,36.2738,314.4057,34.8019,304.61,33.78" style="stroke:#181818;stroke-width:1;"/><text fill="#000000" font-family="sans-serif" font-size="13" lengthAdjust="spacing" textLength="59.1982" x="396.78" y="128.0169">abastece</text></g><!--reverse link FormaDePago to Efectivo--><g class="link" data-entity-1="FormaDePago" data-entity-2="Efectivo" data-source-line="22" data-uid="lnk22" id="link_FormaDePago_Efectivo"><path codeLine="22" d="M246.5819,452.318 C228.8119,468.448 211.51,484.14 193.71,500.29 " fill="none" id="FormaDePago-backto-Efectivo" style="stroke:#181818;stroke-width:1;"/><polygon fill="none" points="259.91,440.22,242.5492,447.8753,250.6146,456.7607,259.91,440.22" style="stroke:#181818;stroke-width:1;"/></g><!--reverse link FormaDePago to Tarjeta--><g class="link" data-entity-1="FormaDePago" data-entity-2="Tarjeta" data-source-line="23" data-uid="lnk24" id="link_FormaDePago_Tarjeta"><path codeLine="23" d="M273.78,458.22 C273.78,474.35 273.78,484.14 273.78,500.29 " fill="none" id="FormaDePago-backto-Tarjeta" style="stroke:#181818;stroke-width:1;"/><polygon fill="none" points="273.78,440.22,267.78,458.22,279.78,458.22,273.78,440.22" style="stroke:#181818;stroke-width:1;"/></g><!--reverse link FormaDePago to Monedero--><g class="link" data-entity-1="FormaDePago" data-entity-2="Monedero" data-source-line="24" data-uid="lnk26" id="link_FormaDePago_Monedero"><path codeLine="24" d="M302.4391,451.8373 C321.5291,467.9673 340.7,484.14 359.82,500.29 " fill="none" id="FormaDePago-backto-Monedero" style="stroke:#181818;stroke-width:1;"/><polygon fill="none" points="288.69,440.22,298.5667,456.4203,306.3116,447.2542,288.69,440.22" style="stroke:#181818;stroke-width:1;"/></g><!--SRC=[PL11Ri8m4Bpx5Nj6SXw0AYujlI7rq3nWiQTWP6U3xI0XzV5r6YT4SFFipCwCz-mi2A7FTme8HyIapkF8k6WyabB6SqfquElWEgxeKsBW3tpnIUfazMpJmD4jH1Gxc2ofudTuomkGqCVPT1zw3xQYL0qZhNVhADfIu0uNNWGRhMV3zSvaM-Hz58F4QjAG5FcZJ-r9kXrN9iMM4ZoCSLAi7eeYg0Nm0vC7Ll_mkP-gmLflfeFCNwAcRPhTVCHYmqTE6GPglVxsM_hjnm1tarVcc-C5cL-9WtImYF87]--></g></svg>