<svg xmlns="http://www.w3.org/2000/svg" xmlns:xlink="http://www.w3.org/1999/xlink" contentStyleType="text/css" data-diagram-type="CLASS" height="1263px" preserveAspectRatio="none" style="width:1648px;height:1263px;background:#FFFFFF;" version="1.1" viewBox="0 0 1648 1263" width="1648px" zoomAndPan="magnify"><defs/><g><!--cluster moduloMaquina--><g class="cluster" data-entity="moduloMaquina" data-source-line="1" data-uid="ent0002" id="cluster_moduloMaquina"><path d="M8.5,6 L135.6914,6 A3.75,3.75 0 0 1 138.1914,8.5 L145.1914,28.2969 L412.5,28.2969 A2.5,2.5 0 0 1 415,30.7969 L415,317.5 A2.5,2.5 0 0 1 412.5,320 L8.5,320 A2.5,2.5 0 0 1 6,317.5 L6,8.5 A2.5,2.5 0 0 1 8.5,6" fill="none" style="stroke:#000000;stroke-width:1.5;"/><line style="stroke:#000000;stroke-width:1.5;" x1="6" x2="145.1914" y1="28.2969" y2="28.2969"/><text fill="#000000" font-family="sans-serif" font-size="14" font-weight="bold" lengthAdjust="spacing" textLength="126.1914" x="10" y="20.9951">moduloMaquina</text></g><!--cluster modelo--><g class="cluster" data-entity="modelo" data-source-line="2" data-uid="ent0003" id="cluster_modelo"><path d="M34.5,197 L93.6396,197 A3.75,3.75 0 0 1 96.1396,199.5 L103.1396,219.2969 L153.5,219.2969 A2.5,2.5 0 0 1 156,221.7969 L156,293.5 A2.5,2.5 0 0 1 153.5,296 L34.5,296 A2.5,2.5 0 0 1 32,293.5 L32,199.5 A2.5,2.5 0 0 1 34.5,197" fill="none" style="stroke:#000000;stroke-width:1.5;"/><line style="stroke:#000000;stroke-width:1.5;" x1="32" x2="103.1396" y1="219.2969" y2="219.2969"/><text fill="#000000" font-family="sans-serif" font-size="14" font-weight="bold" lengthAdjust="spacing" textLength="58.1396" x="36" y="211.9951">modelo</text></g><!--cluster vista--><g class="cluster" data-entity="vista" data-source-line="5" data-uid="ent0005" id="cluster_vista"><path d="M182.5,197 L221.8975,197 A3.75,3.75 0 0 1 224.3975,199.5 L231.3975,219.2969 L335.5,219.2969 A2.5,2.5 0 0 1 338,221.7969 L338,293.5 A2.5,2.5 0 0 1 335.5,296 L182.5,296 A2.5,2.5 0 0 1 180,293.5 L180,199.5 A2.5,2.5 0 0 1 182.5,197" fill="none" style="stroke:#000000;stroke-width:1.5;"/><line style="stroke:#000000;stroke-width:1.5;" x1="180" x2="231.3975" y1="219.2969" y2="219.2969"/><text fill="#000000" font-family="sans-serif" font-size="14" font-weight="bold" lengthAdjust="spacing" textLength="38.3975" x="184" y="211.9951">vista</text></g><!--cluster controlador--><g class="cluster" data-entity="controlador" data-source-line="8" data-uid="ent0007" id="cluster_controlador"><path d="M187.5,49 L280.3887,49 A3.75,3.75 0 0 1 282.8887,51.5 L289.8887,71.2969 L388.5,71.2969 A2.5,2.5 0 0 1 391,73.7969 L391,145.5 A2.5,2.5 0 0 1 388.5,148 L187.5,148 A2.5,2.5 0 0 1 185,145.5 L185,51.5 A2.5,2.5 0 0 1 187.5,49" fill="none" style="stroke:#000000;stroke-width:1.5;"/><line style="stroke:#000000;stroke-width:1.5;" x1="185" x2="289.8887" y1="71.2969" y2="71.2969"/><text fill="#000000" font-family="sans-serif" font-size="14" font-weight="bold" lengthAdjust="spacing" textLength="91.8887" x="189" y="63.9951">controlador</text></g><!--cluster moduloInventario--><g class="cluster" data-entity="moduloInventario" data-source-line="14" data-uid="ent0010" id="cluster_moduloInventario"><path d="M138.5,743 L279.3359,743 A3.75,3.75 0 0 1 281.8359,745.5 L288.8359,765.2969 L505.5,765.2969 A2.5,2.5 0 0 1 508,767.7969 L508,1253.5 A2.5,2.5 0 0 1 505.5,1256 L138.5,1256 A2.5,2.5 0 0 1 136,1253.5 L136,745.5 A2.5,2.5 0 0 1 138.5,743" fill="none" style="stroke:#000000;stroke-width:1.5;"/><line style="stroke:#000000;stroke-width:1.5;" x1="136" x2="288.8359" y1="765.2969" y2="765.2969"/><text fill="#000000" font-family="sans-serif" font-size="14" font-weight="bold" lengthAdjust="spacing" textLength="139.8359" x="140" y="757.9951">moduloInventario</text></g><!--cluster modelo--><g class="cluster" data-entity="modelo" data-source-line="15" data-uid="ent0011" id="cluster_modelo"><path d="M162.5,985 L221.6396,985 A3.75,3.75 0 0 1 224.1396,987.5 L231.1396,1007.2969 L283.5,1007.2969 A2.5,2.5 0 0 1 286,1009.7969 L286,1229.5 A2.5,2.5 0 0 1 283.5,1232 L162.5,1232 A2.5,2.5 0 0 1 160,1229.5 L160,987.5 A2.5,2.5 0 0 1 162.5,985" fill="none" style="stroke:#000000;stroke-width:1.5;"/><line style="stroke:#000000;stroke-width:1.5;" x1="160" x2="231.1396" y1="1007.2969" y2="1007.2969"/><text fill="#000000" font-family="sans-serif" font-size="14" font-weight="bold" lengthAdjust="spacing" textLength="58.1396" x="164" y="999.9951">modelo</text></g><!--cluster vista--><g class="cluster" data-entity="vista" data-source-line="19" data-uid="ent0014" id="cluster_vista"><path d="M312.5,985 L351.8975,985 A3.75,3.75 0 0 1 354.3975,987.5 L361.3975,1007.2969 L481.5,1007.2969 A2.5,2.5 0 0 1 484,1009.7969 L484,1229.5 A2.5,2.5 0 0 1 481.5,1232 L312.5,1232 A2.5,2.5 0 0 1 310,1229.5 L310,987.5 A2.5,2.5 0 0 1 312.5,985" fill="none" style="stroke:#000000;stroke-width:1.5;"/><line style="stroke:#000000;stroke-width:1.5;" x1="310" x2="361.3975" y1="1007.2969" y2="1007.2969"/><text fill="#000000" font-family="sans-serif" font-size="14" font-weight="bold" lengthAdjust="spacing" textLength="38.3975" x="314" y="999.9951">vista</text></g><!--cluster controlador--><g class="cluster" data-entity="controlador" data-source-line="23" data-uid="ent0017" id="cluster_controlador"><path d="M268.5,786 L361.3887,786 A3.75,3.75 0 0 1 363.8887,788.5 L370.8887,808.2969 L481.5,808.2969 A2.5,2.5 0 0 1 484,810.7969 L484,882.5 A2.5,2.5 0 0 1 481.5,885 L268.5,885 A2.5,2.5 0 0 1 266,882.5 L266,788.5 A2.5,2.5 0 0 1 268.5,786" fill="none" style="stroke:#000000;stroke-width:1.5;"/><line style="stroke:#000000;stroke-width:1.5;" x1="266" x2="370.8887" y1="808.2969" y2="808.2969"/><text fill="#000000" font-family="sans-serif" font-size="14" font-weight="bold" lengthAdjust="spacing" textLength="91.8887" x="270" y="800.9951">controlador</text></g><!--cluster moduloCaja--><g class="cluster" data-entity="moduloCaja" data-source-line="28" data-uid="ent0019" id="cluster_moduloCaja"><path d="M411.5,353 L505.0791,353 A3.75,3.75 0 0 1 507.5791,355.5 L514.5791,375.2969 L702.5,375.2969 A2.5,2.5 0 0 1 705,377.7969 L705,707.5 A2.5,2.5 0 0 1 702.5,710 L411.5,710 A2.5,2.5 0 0 1 409,707.5 L409,355.5 A2.5,2.5 0 0 1 411.5,353" fill="none" style="stroke:#000000;stroke-width:1.5;"/><line style="stroke:#000000;stroke-width:1.5;" x1="409" x2="514.5791" y1="375.2969" y2="375.2969"/><text fill="#000000" font-family="sans-serif" font-size="14" font-weight="bold" lengthAdjust="spacing" textLength="92.5791" x="413" y="367.9951">moduloCaja</text></g><!--cluster modelo--><g class="cluster" data-entity="modelo" data-source-line="29" data-uid="ent0020" id="cluster_modelo"><path d="M435.5,587 L494.6396,587 A3.75,3.75 0 0 1 497.1396,589.5 L504.1396,609.2969 L524.5,609.2969 A2.5,2.5 0 0 1 527,611.7969 L527,683.5 A2.5,2.5 0 0 1 524.5,686 L435.5,686 A2.5,2.5 0 0 1 433,683.5 L433,589.5 A2.5,2.5 0 0 1 435.5,587" fill="none" style="stroke:#000000;stroke-width:1.5;"/><line style="stroke:#000000;stroke-width:1.5;" x1="433" x2="504.1396" y1="609.2969" y2="609.2969"/><text fill="#000000" font-family="sans-serif" font-size="14" font-weight="bold" lengthAdjust="spacing" textLength="58.1396" x="437" y="601.9951">modelo</text></g><!--cluster vista--><g class="cluster" data-entity="vista" data-source-line="32" data-uid="ent0022" id="cluster_vista"><path d="M553.5,587 L592.8975,587 A3.75,3.75 0 0 1 595.3975,589.5 L602.3975,609.2969 L678.5,609.2969 A2.5,2.5 0 0 1 681,611.7969 L681,683.5 A2.5,2.5 0 0 1 678.5,686 L553.5,686 A2.5,2.5 0 0 1 551,683.5 L551,589.5 A2.5,2.5 0 0 1 553.5,587" fill="none" style="stroke:#000000;stroke-width:1.5;"/><line style="stroke:#000000;stroke-width:1.5;" x1="551" x2="602.3975" y1="609.2969" y2="609.2969"/><text fill="#000000" font-family="sans-serif" font-size="14" font-weight="bold" lengthAdjust="spacing" textLength="38.3975" x="555" y="601.9951">vista</text></g><!--cluster controlador--><g class="cluster" data-entity="controlador" data-source-line="35" data-uid="ent0024" id="cluster_controlador"><path d="M470.5,396 L563.3887,396 A3.75,3.75 0 0 1 565.8887,398.5 L572.8887,418.2969 L643.5,418.2969 A2.5,2.5 0 0 1 646,420.7969 L646,492.5 A2.5,2.5 0 0 1 643.5,495 L470.5,495 A2.5,2.5 0 0 1 468,492.5 L468,398.5 A2.5,2.5 0 0 1 470.5,396" fill="none" style="stroke:#000000;stroke-width:1.5;"/><line style="stroke:#000000;stroke-width:1.5;" x1="468" x2="572.8887" y1="418.2969" y2="418.2969"/><text fill="#000000" font-family="sans-serif" font-size="14" font-weight="bold" lengthAdjust="spacing" textLength="91.8887" x="472" y="410.9951">controlador</text></g><!--cluster moduloPago--><g class="cluster" data-entity="moduloPago" data-source-line="40" data-uid="ent0026" id="cluster_moduloPago"><path d="M731.5,544 L830.459,544 A3.75,3.75 0 0 1 832.959,546.5 L839.959,566.2969 L1217.5,566.2969 A2.5,2.5 0 0 1 1220,568.7969 L1220,906.5 A2.5,2.5 0 0 1 1217.5,909 L731.5,909 A2.5,2.5 0 0 1 729,906.5 L729,546.5 A2.5,2.5 0 0 1 731.5,544" fill="none" style="stroke:#000000;stroke-width:1.5;"/><line style="stroke:#000000;stroke-width:1.5;" x1="729" x2="839.959" y1="566.2969" y2="566.2969"/><text fill="#000000" font-family="sans-serif" font-size="14" font-weight="bold" lengthAdjust="spacing" textLength="97.959" x="733" y="558.9951">moduloPago</text></g><!--cluster modelo--><g class="cluster" data-entity="modelo" data-source-line="41" data-uid="ent0027" id="cluster_modelo"><path d="M961.5,587 L1020.6396,587 A3.75,3.75 0 0 1 1023.1396,589.5 L1030.1396,609.2969 L1193.5,609.2969 A2.5,2.5 0 0 1 1196,611.7969 L1196,882.5 A2.5,2.5 0 0 1 1193.5,885 L961.5,885 A2.5,2.5 0 0 1 959,882.5 L959,589.5 A2.5,2.5 0 0 1 961.5,587" fill="none" style="stroke:#000000;stroke-width:1.5;"/><line style="stroke:#000000;stroke-width:1.5;" x1="959" x2="1030.1396" y1="609.2969" y2="609.2969"/><text fill="#000000" font-family="sans-serif" font-size="14" font-weight="bold" lengthAdjust="spacing" textLength="58.1396" x="963" y="601.9951">modelo</text></g><!--cluster vista--><g class="cluster" data-entity="vista" data-source-line="46" data-uid="ent0031" id="cluster_vista"><path d="M779.5,786 L818.8975,786 A3.75,3.75 0 0 1 821.3975,788.5 L828.3975,808.2969 L908.5,808.2969 A2.5,2.5 0 0 1 911,810.7969 L911,882.5 A2.5,2.5 0 0 1 908.5,885 L779.5,885 A2.5,2.5 0 0 1 777,882.5 L777,788.5 A2.5,2.5 0 0 1 779.5,786" fill="none" style="stroke:#000000;stroke-width:1.5;"/><line style="stroke:#000000;stroke-width:1.5;" x1="777" x2="828.3975" y1="808.2969" y2="808.2969"/><text fill="#000000" font-family="sans-serif" font-size="14" font-weight="bold" lengthAdjust="spacing" textLength="38.3975" x="781" y="800.9951">vista</text></g><!--cluster controlador--><g class="cluster" data-entity="controlador" data-source-line="49" data-uid="ent0033" id="cluster_controlador"><path d="M755.5,587 L848.3887,587 A3.75,3.75 0 0 1 850.8887,589.5 L857.8887,609.2969 L932.5,609.2969 A2.5,2.5 0 0 1 935,611.7969 L935,683.5 A2.5,2.5 0 0 1 932.5,686 L755.5,686 A2.5,2.5 0 0 1 753,683.5 L753,589.5 A2.5,2.5 0 0 1 755.5,587" fill="none" style="stroke:#000000;stroke-width:1.5;"/><line style="stroke:#000000;stroke-width:1.5;" x1="753" x2="857.8887" y1="609.2969" y2="609.2969"/><text fill="#000000" font-family="sans-serif" font-size="14" font-weight="bold" lengthAdjust="spacing" textLength="91.8887" x="757" y="601.9951">controlador</text></g><!--cluster moduloUsuario--><g class="cluster" data-entity="moduloUsuario" data-source-line="54" data-uid="ent0035" id="cluster_moduloUsuario"><path d="M1246.5,353 L1366.5479,353 A3.75,3.75 0 0 1 1369.0479,355.5 L1376.0479,375.2969 L1638.5,375.2969 A2.5,2.5 0 0 1 1641,377.7969 L1641,906.5 A2.5,2.5 0 0 1 1638.5,909 L1246.5,909 A2.5,2.5 0 0 1 1244,906.5 L1244,355.5 A2.5,2.5 0 0 1 1246.5,353" fill="none" style="stroke:#000000;stroke-width:1.5;"/><line style="stroke:#000000;stroke-width:1.5;" x1="1244" x2="1376.0479" y1="375.2969" y2="375.2969"/><text fill="#000000" font-family="sans-serif" font-size="14" font-weight="bold" lengthAdjust="spacing" textLength="119.0479" x="1248" y="367.9951">moduloUsuario</text></g><!--cluster modelo--><g class="cluster" data-entity="modelo" data-source-line="55" data-uid="ent0036" id="cluster_modelo"><path d="M1270.5,587 L1329.6396,587 A3.75,3.75 0 0 1 1332.1396,589.5 L1339.1396,609.2969 L1383.5,609.2969 A2.5,2.5 0 0 1 1386,611.7969 L1386,683.5 A2.5,2.5 0 0 1 1383.5,686 L1270.5,686 A2.5,2.5 0 0 1 1268,683.5 L1268,589.5 A2.5,2.5 0 0 1 1270.5,587" fill="none" style="stroke:#000000;stroke-width:1.5;"/><line style="stroke:#000000;stroke-width:1.5;" x1="1268" x2="1339.1396" y1="609.2969" y2="609.2969"/><text fill="#000000" font-family="sans-serif" font-size="14" font-weight="bold" lengthAdjust="spacing" textLength="58.1396" x="1272" y="601.9951">modelo</text></g><!--cluster vista--><g class="cluster" data-entity="vista" data-source-line="58" data-uid="ent0038" id="cluster_vista"><path d="M1412.5,587 L1451.8975,587 A3.75,3.75 0 0 1 1454.3975,589.5 L1461.3975,609.2969 L1563.5,609.2969 A2.5,2.5 0 0 1 1566,611.7969 L1566,882.5 A2.5,2.5 0 0 1 1563.5,885 L1412.5,885 A2.5,2.5 0 0 1 1410,882.5 L1410,589.5 A2.5,2.5 0 0 1 1412.5,587" fill="none" style="stroke:#000000;stroke-width:1.5;"/><line style="stroke:#000000;stroke-width:1.5;" x1="1410" x2="1461.3975" y1="609.2969" y2="609.2969"/><text fill="#000000" font-family="sans-serif" font-size="14" font-weight="bold" lengthAdjust="spacing" textLength="38.3975" x="1414" y="601.9951">vista</text></g><!--cluster controlador--><g class="cluster" data-entity="controlador" data-source-line="62" data-uid="ent0041" id="cluster_controlador"><path d="M1270.5,396 L1363.3887,396 A3.75,3.75 0 0 1 1365.8887,398.5 L1372.8887,418.2969 L1465.5,418.2969 A2.5,2.5 0 0 1 1468,420.7969 L1468,492.5 A2.5,2.5 0 0 1 1465.5,495 L1270.5,495 A2.5,2.5 0 0 1 1268,492.5 L1268,398.5 A2.5,2.5 0 0 1 1270.5,396" fill="none" style="stroke:#000000;stroke-width:1.5;"/><line style="stroke:#000000;stroke-width:1.5;" x1="1268" x2="1372.8887" y1="418.2969" y2="418.2969"/><text fill="#000000" font-family="sans-serif" font-size="14" font-weight="bold" lengthAdjust="spacing" textLength="91.8887" x="1272" y="410.9951">controlador</text></g><!--cluster moduloEmpleado--><g class="cluster" data-entity="moduloEmpleado" data-source-line="68" data-uid="ent0044" id="cluster_moduloEmpleado"><path d="M534.5,942 L671.665,942 A3.75,3.75 0 0 1 674.165,944.5 L681.165,964.2969 L958.5,964.2969 A2.5,2.5 0 0 1 961,966.7969 L961,1253.5 A2.5,2.5 0 0 1 958.5,1256 L534.5,1256 A2.5,2.5 0 0 1 532,1253.5 L532,944.5 A2.5,2.5 0 0 1 534.5,942" fill="none" style="stroke:#000000;stroke-width:1.5;"/><line style="stroke:#000000;stroke-width:1.5;" x1="532" x2="681.165" y1="964.2969" y2="964.2969"/><text fill="#000000" font-family="sans-serif" font-size="14" font-weight="bold" lengthAdjust="spacing" textLength="136.165" x="536" y="956.9951">moduloEmpleado</text></g><!--cluster modelo--><g class="cluster" data-entity="modelo" data-source-line="69" data-uid="ent0045" id="cluster_modelo"><path d="M788.5,1133 L847.6396,1133 A3.75,3.75 0 0 1 850.1396,1135.5 L857.1396,1155.2969 L917.5,1155.2969 A2.5,2.5 0 0 1 920,1157.7969 L920,1229.5 A2.5,2.5 0 0 1 917.5,1232 L788.5,1232 A2.5,2.5 0 0 1 786,1229.5 L786,1135.5 A2.5,2.5 0 0 1 788.5,1133" fill="none" style="stroke:#000000;stroke-width:1.5;"/><line style="stroke:#000000;stroke-width:1.5;" x1="786" x2="857.1396" y1="1155.2969" y2="1155.2969"/><text fill="#000000" font-family="sans-serif" font-size="14" font-weight="bold" lengthAdjust="spacing" textLength="58.1396" x="790" y="1147.9951">modelo</text></g><!--cluster vista--><g class="cluster" data-entity="vista" data-source-line="72" data-uid="ent0047" id="cluster_vista"><path d="M582.5,1133 L621.8975,1133 A3.75,3.75 0 0 1 624.3975,1135.5 L631.3975,1155.2969 L745.5,1155.2969 A2.5,2.5 0 0 1 748,1157.7969 L748,1229.5 A2.5,2.5 0 0 1 745.5,1232 L582.5,1232 A2.5,2.5 0 0 1 580,1229.5 L580,1135.5 A2.5,2.5 0 0 1 582.5,1133" fill="none" style="stroke:#000000;stroke-width:1.5;"/><line style="stroke:#000000;stroke-width:1.5;" x1="580" x2="631.3975" y1="1155.2969" y2="1155.2969"/><text fill="#000000" font-family="sans-serif" font-size="14" font-weight="bold" lengthAdjust="spacing" textLength="38.3975" x="584" y="1147.9951">vista</text></g><!--cluster controlador--><g class="cluster" data-entity="controlador" data-source-line="75" data-uid="ent0049" id="cluster_controlador"><path d="M558.5,985 L651.3887,985 A3.75,3.75 0 0 1 653.8887,987.5 L660.8887,1007.2969 L769.5,1007.2969 A2.5,2.5 0 0 1 772,1009.7969 L772,1081.5 A2.5,2.5 0 0 1 769.5,1084 L558.5,1084 A2.5,2.5 0 0 1 556,1081.5 L556,987.5 A2.5,2.5 0 0 1 558.5,985" fill="none" style="stroke:#000000;stroke-width:1.5;"/><line style="stroke:#000000;stroke-width:1.5;" x1="556" x2="660.8887" y1="1007.2969" y2="1007.2969"/><text fill="#000000" font-family="sans-serif" font-size="14" font-weight="bold" lengthAdjust="spacing" textLength="91.8887" x="560" y="999.9951">controlador</text></g><!--class MaquinaFactory--><g class="entity" data-entity="MaquinaFactory" data-source-line="11" data-uid="ent0009" id="entity_MaquinaFactory"><rect fill="#F1F1F1" height="48" rx="2.5" ry="2.5" style="stroke:#181818;stroke-width:0.5;" width="144.1846" x="21.91" y="84"/><ellipse cx="36.91" cy="100" fill="#ADD1B2" rx="11" ry="11" style="stroke:#181818;stroke-width:1;"/><path d="M39.8788,105.6406 Q39.3006,105.9375 38.66,106.0781 Q38.0194,106.2344 37.3163,106.2344 Q34.8163,106.2344 33.4881,104.5938 Q32.1756,102.9375 32.1756,99.8125 Q32.1756,96.6875 33.4881,95.0313 Q34.8163,93.375 37.3163,93.375 Q38.0194,93.375 38.66,93.5313 Q39.3163,93.6875 39.8788,93.9844 L39.8788,96.7031 Q39.2538,96.125 38.66,95.8594 Q38.0663,95.5781 37.4413,95.5781 Q36.0975,95.5781 35.41,96.6563 Q34.7225,97.7188 34.7225,99.8125 Q34.7225,101.9063 35.41,102.9844 Q36.0975,104.0469 37.4413,104.0469 Q38.0663,104.0469 38.66,103.7813 Q39.2538,103.5 39.8788,102.9219 L39.8788,105.6406 Z " fill="#000000"/><text fill="#000000" font-family="sans-serif" font-size="14" lengthAdjust="spacing" textLength="112.1846" x="50.91" y="104.8467">MaquinaFactory</text><line style="stroke:#181818;stroke-width:0.5;" x1="22.91" x2="165.0946" y1="116" y2="116"/><line style="stroke:#181818;stroke-width:0.5;" x1="22.91" x2="165.0946" y1="124" y2="124"/></g><!--class Maquina--><g class="entity" data-entity="Maquina" data-source-line="3" data-uid="ent0004" id="entity_Maquina"><rect fill="#F1F1F1" height="48" rx="2.5" ry="2.5" style="stroke:#181818;stroke-width:0.5;" width="91.7598" x="48.12" y="232"/><ellipse cx="63.12" cy="248" fill="#ADD1B2" rx="11" ry="11" style="stroke:#181818;stroke-width:1;"/><path d="M66.0888,253.6406 Q65.5106,253.9375 64.87,254.0781 Q64.2294,254.2344 63.5263,254.2344 Q61.0263,254.2344 59.6981,252.5938 Q58.3856,250.9375 58.3856,247.8125 Q58.3856,244.6875 59.6981,243.0313 Q61.0263,241.375 63.5263,241.375 Q64.2294,241.375 64.87,241.5313 Q65.5263,241.6875 66.0888,241.9844 L66.0888,244.7031 Q65.4638,244.125 64.87,243.8594 Q64.2763,243.5781 63.6513,243.5781 Q62.3075,243.5781 61.62,244.6563 Q60.9325,245.7188 60.9325,247.8125 Q60.9325,249.9063 61.62,250.9844 Q62.3075,252.0469 63.6513,252.0469 Q64.2763,252.0469 64.87,251.7813 Q65.4638,251.5 66.0888,250.9219 L66.0888,253.6406 Z " fill="#000000"/><text fill="#000000" font-family="sans-serif" font-size="14" lengthAdjust="spacing" textLength="59.7598" x="77.12" y="252.8467">Maquina</text><line style="stroke:#181818;stroke-width:0.5;" x1="49.12" x2="138.8798" y1="264" y2="264"/><line style="stroke:#181818;stroke-width:0.5;" x1="49.12" x2="138.8798" y1="272" y2="272"/></g><!--class VistaMaquina--><g class="entity" data-entity="VistaMaquina" data-source-line="6" data-uid="ent0006" id="entity_VistaMaquina"><rect fill="#F1F1F1" height="48" rx="2.5" ry="2.5" style="stroke:#181818;stroke-width:0.5;" width="126.5889" x="195.71" y="232"/><ellipse cx="210.71" cy="248" fill="#ADD1B2" rx="11" ry="11" style="stroke:#181818;stroke-width:1;"/><path d="M213.6788,253.6406 Q213.1006,253.9375 212.46,254.0781 Q211.8194,254.2344 211.1163,254.2344 Q208.6163,254.2344 207.2881,252.5938 Q205.9756,250.9375 205.9756,247.8125 Q205.9756,244.6875 207.2881,243.0313 Q208.6163,241.375 211.1163,241.375 Q211.8194,241.375 212.46,241.5313 Q213.1163,241.6875 213.6788,241.9844 L213.6788,244.7031 Q213.0538,244.125 212.46,243.8594 Q211.8663,243.5781 211.2413,243.5781 Q209.8975,243.5781 209.21,244.6563 Q208.5225,245.7188 208.5225,247.8125 Q208.5225,249.9063 209.21,250.9844 Q209.8975,252.0469 211.2413,252.0469 Q211.8663,252.0469 212.46,251.7813 Q213.0538,251.5 213.6788,250.9219 L213.6788,253.6406 Z " fill="#000000"/><text fill="#000000" font-family="sans-serif" font-size="14" lengthAdjust="spacing" textLength="94.5889" x="224.71" y="252.8467">VistaMaquina</text><line style="stroke:#181818;stroke-width:0.5;" x1="196.71" x2="321.2989" y1="264" y2="264"/><line style="stroke:#181818;stroke-width:0.5;" x1="196.71" x2="321.2989" y1="272" y2="272"/></g><!--class ControladorMaquina--><g class="entity" data-entity="ControladorMaquina" data-source-line="9" data-uid="ent0008" id="entity_ControladorMaquina"><rect fill="#F1F1F1" height="48" rx="2.5" ry="2.5" style="stroke:#181818;stroke-width:0.5;" width="174.4609" x="200.77" y="84"/><ellipse cx="215.77" cy="100" fill="#ADD1B2" rx="11" ry="11" style="stroke:#181818;stroke-width:1;"/><path d="M218.7388,105.6406 Q218.1606,105.9375 217.52,106.0781 Q216.8794,106.2344 216.1763,106.2344 Q213.6763,106.2344 212.3481,104.5938 Q211.0356,102.9375 211.0356,99.8125 Q211.0356,96.6875 212.3481,95.0313 Q213.6763,93.375 216.1763,93.375 Q216.8794,93.375 217.52,93.5313 Q218.1763,93.6875 218.7388,93.9844 L218.7388,96.7031 Q218.1138,96.125 217.52,95.8594 Q216.9263,95.5781 216.3013,95.5781 Q214.9575,95.5781 214.27,96.6563 Q213.5825,97.7188 213.5825,99.8125 Q213.5825,101.9063 214.27,102.9844 Q214.9575,104.0469 216.3013,104.0469 Q216.9263,104.0469 217.52,103.7813 Q218.1138,103.5 218.7388,102.9219 L218.7388,105.6406 Z " fill="#000000"/><text fill="#000000" font-family="sans-serif" font-size="14" lengthAdjust="spacing" textLength="142.4609" x="229.77" y="104.8467">ControladorMaquina</text><line style="stroke:#181818;stroke-width:0.5;" x1="201.77" x2="374.2309" y1="116" y2="116"/><line style="stroke:#181818;stroke-width:0.5;" x1="201.77" x2="374.2309" y1="124" y2="124"/></g><!--class Celda--><g class="entity" data-entity="Celda" data-source-line="16" data-uid="ent0012" id="entity_Celda"><rect fill="#F1F1F1" height="48" rx="2.5" ry="2.5" style="stroke:#181818;stroke-width:0.5;" width="71.7441" x="176.13" y="1020"/><ellipse cx="191.13" cy="1036" fill="#ADD1B2" rx="11" ry="11" style="stroke:#181818;stroke-width:1;"/><path d="M194.0988,1041.6406 Q193.5206,1041.9375 192.88,1042.0781 Q192.2394,1042.2344 191.5363,1042.2344 Q189.0363,1042.2344 187.7081,1040.5938 Q186.3956,1038.9375 186.3956,1035.8125 Q186.3956,1032.6875 187.7081,1031.0313 Q189.0363,1029.375 191.5363,1029.375 Q192.2394,1029.375 192.88,1029.5313 Q193.5363,1029.6875 194.0988,1029.9844 L194.0988,1032.7031 Q193.4738,1032.125 192.88,1031.8594 Q192.2863,1031.5781 191.6613,1031.5781 Q190.3175,1031.5781 189.63,1032.6563 Q188.9425,1033.7188 188.9425,1035.8125 Q188.9425,1037.9063 189.63,1038.9844 Q190.3175,1040.0469 191.6613,1040.0469 Q192.2863,1040.0469 192.88,1039.7813 Q193.4738,1039.5 194.0988,1038.9219 L194.0988,1041.6406 Z " fill="#000000"/><text fill="#000000" font-family="sans-serif" font-size="14" lengthAdjust="spacing" textLength="39.7441" x="205.13" y="1040.8467">Celda</text><line style="stroke:#181818;stroke-width:0.5;" x1="177.13" x2="246.8741" y1="1052" y2="1052"/><line style="stroke:#181818;stroke-width:0.5;" x1="177.13" x2="246.8741" y1="1060" y2="1060"/></g><!--class Producto--><g class="entity" data-entity="Producto" data-source-line="17" data-uid="ent0013" id="entity_Producto"><rect fill="#F1F1F1" height="48" rx="2.5" ry="2.5" style="stroke:#181818;stroke-width:0.5;" width="94.2754" x="175.86" y="1168"/><ellipse cx="190.86" cy="1184" fill="#ADD1B2" rx="11" ry="11" style="stroke:#181818;stroke-width:1;"/><path d="M193.8288,1189.6406 Q193.2506,1189.9375 192.61,1190.0781 Q191.9694,1190.2344 191.2663,1190.2344 Q188.7663,1190.2344 187.4381,1188.5938 Q186.1256,1186.9375 186.1256,1183.8125 Q186.1256,1180.6875 187.4381,1179.0313 Q188.7663,1177.375 191.2663,1177.375 Q191.9694,1177.375 192.61,1177.5313 Q193.2663,1177.6875 193.8288,1177.9844 L193.8288,1180.7031 Q193.2038,1180.125 192.61,1179.8594 Q192.0163,1179.5781 191.3913,1179.5781 Q190.0475,1179.5781 189.36,1180.6563 Q188.6725,1181.7188 188.6725,1183.8125 Q188.6725,1185.9063 189.36,1186.9844 Q190.0475,1188.0469 191.3913,1188.0469 Q192.0163,1188.0469 192.61,1187.7813 Q193.2038,1187.5 193.8288,1186.9219 L193.8288,1189.6406 Z " fill="#000000"/><text fill="#000000" font-family="sans-serif" font-size="14" lengthAdjust="spacing" textLength="62.2754" x="204.86" y="1188.8467">Producto</text><line style="stroke:#181818;stroke-width:0.5;" x1="176.86" x2="269.1354" y1="1200" y2="1200"/><line style="stroke:#181818;stroke-width:0.5;" x1="176.86" x2="269.1354" y1="1208" y2="1208"/></g><!--class IVistaInventario--><g class="entity" data-entity="IVistaInventario" data-source-line="20" data-uid="ent0015" id="entity_IVistaInventario"><rect fill="#F1F1F1" height="48" rx="2.5" ry="2.5" style="stroke:#181818;stroke-width:0.5;" width="142.0107" x="325.99" y="1020"/><ellipse cx="340.99" cy="1036" fill="#ADD1B2" rx="11" ry="11" style="stroke:#181818;stroke-width:1;"/><path d="M343.9588,1041.6406 Q343.3806,1041.9375 342.74,1042.0781 Q342.0994,1042.2344 341.3963,1042.2344 Q338.8963,1042.2344 337.5681,1040.5938 Q336.2556,1038.9375 336.2556,1035.8125 Q336.2556,1032.6875 337.5681,1031.0313 Q338.8963,1029.375 341.3963,1029.375 Q342.0994,1029.375 342.74,1029.5313 Q343.3963,1029.6875 343.9588,1029.9844 L343.9588,1032.7031 Q343.3338,1032.125 342.74,1031.8594 Q342.1463,1031.5781 341.5213,1031.5781 Q340.1775,1031.5781 339.49,1032.6563 Q338.8025,1033.7188 338.8025,1035.8125 Q338.8025,1037.9063 339.49,1038.9844 Q340.1775,1040.0469 341.5213,1040.0469 Q342.1463,1040.0469 342.74,1039.7813 Q343.3338,1039.5 343.9588,1038.9219 L343.9588,1041.6406 Z " fill="#000000"/><text fill="#000000" font-family="sans-serif" font-size="14" lengthAdjust="spacing" textLength="110.0107" x="354.99" y="1040.8467">IVistaInventario</text><line style="stroke:#181818;stroke-width:0.5;" x1="326.99" x2="467.0007" y1="1052" y2="1052"/><line style="stroke:#181818;stroke-width:0.5;" x1="326.99" x2="467.0007" y1="1060" y2="1060"/></g><!--class VistaInventario--><g class="entity" data-entity="VistaInventario" data-source-line="21" data-uid="ent0016" id="entity_VistaInventario"><rect fill="#F1F1F1" height="48" rx="2.5" ry="2.5" style="stroke:#181818;stroke-width:0.5;" width="137.8818" x="328.06" y="1168"/><ellipse cx="343.06" cy="1184" fill="#ADD1B2" rx="11" ry="11" style="stroke:#181818;stroke-width:1;"/><path d="M346.0288,1189.6406 Q345.4506,1189.9375 344.81,1190.0781 Q344.1694,1190.2344 343.4663,1190.2344 Q340.9663,1190.2344 339.6381,1188.5938 Q338.3256,1186.9375 338.3256,1183.8125 Q338.3256,1180.6875 339.6381,1179.0313 Q340.9663,1177.375 343.4663,1177.375 Q344.1694,1177.375 344.81,1177.5313 Q345.4663,1177.6875 346.0288,1177.9844 L346.0288,1180.7031 Q345.4038,1180.125 344.81,1179.8594 Q344.2163,1179.5781 343.5913,1179.5781 Q342.2475,1179.5781 341.56,1180.6563 Q340.8725,1181.7188 340.8725,1183.8125 Q340.8725,1185.9063 341.56,1186.9844 Q342.2475,1188.0469 343.5913,1188.0469 Q344.2163,1188.0469 344.81,1187.7813 Q345.4038,1187.5 346.0288,1186.9219 L346.0288,1189.6406 Z " fill="#000000"/><text fill="#000000" font-family="sans-serif" font-size="14" lengthAdjust="spacing" textLength="105.8818" x="357.06" y="1188.8467">VistaInventario</text><line style="stroke:#181818;stroke-width:0.5;" x1="329.06" x2="464.9418" y1="1200" y2="1200"/><line style="stroke:#181818;stroke-width:0.5;" x1="329.06" x2="464.9418" y1="1208" y2="1208"/></g><!--class ControladorInventario--><g class="entity" data-entity="ControladorInventario" data-source-line="24" data-uid="ent0018" id="entity_ControladorInventario"><rect fill="#F1F1F1" height="48" rx="2.5" ry="2.5" style="stroke:#181818;stroke-width:0.5;" width="185.7539" x="282.12" y="821"/><ellipse cx="297.12" cy="837" fill="#ADD1B2" rx="11" ry="11" style="stroke:#181818;stroke-width:1;"/><path d="M300.0888,842.6406 Q299.5106,842.9375 298.87,843.0781 Q298.2294,843.2344 297.5263,843.2344 Q295.0263,843.2344 293.6981,841.5938 Q292.3856,839.9375 292.3856,836.8125 Q292.3856,833.6875 293.6981,832.0313 Q295.0263,830.375 297.5263,830.375 Q298.2294,830.375 298.87,830.5313 Q299.5263,830.6875 300.0888,830.9844 L300.0888,833.7031 Q299.4638,833.125 298.87,832.8594 Q298.2763,832.5781 297.6513,832.5781 Q296.3075,832.5781 295.62,833.6563 Q294.9325,834.7188 294.9325,836.8125 Q294.9325,838.9063 295.62,839.9844 Q296.3075,841.0469 297.6513,841.0469 Q298.2763,841.0469 298.87,840.7813 Q299.4638,840.5 300.0888,839.9219 L300.0888,842.6406 Z " fill="#000000"/><text fill="#000000" font-family="sans-serif" font-size="14" lengthAdjust="spacing" textLength="153.7539" x="311.12" y="841.8467">ControladorInventario</text><line style="stroke:#181818;stroke-width:0.5;" x1="283.12" x2="466.8739" y1="853" y2="853"/><line style="stroke:#181818;stroke-width:0.5;" x1="283.12" x2="466.8739" y1="861" y2="861"/></g><!--class Caja--><g class="entity" data-entity="Caja" data-source-line="30" data-uid="ent0021" id="entity_Caja"><rect fill="#F1F1F1" height="48" rx="2.5" ry="2.5" style="stroke:#181818;stroke-width:0.5;" width="62.8232" x="448.59" y="622"/><ellipse cx="463.59" cy="638" fill="#ADD1B2" rx="11" ry="11" style="stroke:#181818;stroke-width:1;"/><path d="M466.5588,643.6406 Q465.9806,643.9375 465.34,644.0781 Q464.6994,644.2344 463.9963,644.2344 Q461.4963,644.2344 460.1681,642.5938 Q458.8556,640.9375 458.8556,637.8125 Q458.8556,634.6875 460.1681,633.0313 Q461.4963,631.375 463.9963,631.375 Q464.6994,631.375 465.34,631.5313 Q465.9963,631.6875 466.5588,631.9844 L466.5588,634.7031 Q465.9338,634.125 465.34,633.8594 Q464.7463,633.5781 464.1213,633.5781 Q462.7775,633.5781 462.09,634.6563 Q461.4025,635.7188 461.4025,637.8125 Q461.4025,639.9063 462.09,640.9844 Q462.7775,642.0469 464.1213,642.0469 Q464.7463,642.0469 465.34,641.7813 Q465.9338,641.5 466.5588,640.9219 L466.5588,643.6406 Z " fill="#000000"/><text fill="#000000" font-family="sans-serif" font-size="14" lengthAdjust="spacing" textLength="30.8232" x="477.59" y="642.8467">Caja</text><line style="stroke:#181818;stroke-width:0.5;" x1="449.59" x2="510.4132" y1="654" y2="654"/><line style="stroke:#181818;stroke-width:0.5;" x1="449.59" x2="510.4132" y1="662" y2="662"/></g><!--class VistaCaja--><g class="entity" data-entity="VistaCaja" data-source-line="33" data-uid="ent0023" id="entity_VistaCaja"><rect fill="#F1F1F1" height="48" rx="2.5" ry="2.5" style="stroke:#181818;stroke-width:0.5;" width="97.6523" x="567.17" y="622"/><ellipse cx="582.17" cy="638" fill="#ADD1B2" rx="11" ry="11" style="stroke:#181818;stroke-width:1;"/><path d="M585.1388,643.6406 Q584.5606,643.9375 583.92,644.0781 Q583.2794,644.2344 582.5763,644.2344 Q580.0763,644.2344 578.7481,642.5938 Q577.4356,640.9375 577.4356,637.8125 Q577.4356,634.6875 578.7481,633.0313 Q580.0763,631.375 582.5763,631.375 Q583.2794,631.375 583.92,631.5313 Q584.5763,631.6875 585.1388,631.9844 L585.1388,634.7031 Q584.5138,634.125 583.92,633.8594 Q583.3263,633.5781 582.7013,633.5781 Q581.3575,633.5781 580.67,634.6563 Q579.9825,635.7188 579.9825,637.8125 Q579.9825,639.9063 580.67,640.9844 Q581.3575,642.0469 582.7013,642.0469 Q583.3263,642.0469 583.92,641.7813 Q584.5138,641.5 585.1388,640.9219 L585.1388,643.6406 Z " fill="#000000"/><text fill="#000000" font-family="sans-serif" font-size="14" lengthAdjust="spacing" textLength="65.6523" x="596.17" y="642.8467">VistaCaja</text><line style="stroke:#181818;stroke-width:0.5;" x1="568.17" x2="663.8223" y1="654" y2="654"/><line style="stroke:#181818;stroke-width:0.5;" x1="568.17" x2="663.8223" y1="662" y2="662"/></g><!--class ControladorCaja--><g class="entity" data-entity="ControladorCaja" data-source-line="36" data-uid="ent0025" id="entity_ControladorCaja"><rect fill="#F1F1F1" height="48" rx="2.5" ry="2.5" style="stroke:#181818;stroke-width:0.5;" width="145.5244" x="484.24" y="431"/><ellipse cx="499.24" cy="447" fill="#ADD1B2" rx="11" ry="11" style="stroke:#181818;stroke-width:1;"/><path d="M502.2088,452.6406 Q501.6306,452.9375 500.99,453.0781 Q500.3494,453.2344 499.6463,453.2344 Q497.1463,453.2344 495.8181,451.5938 Q494.5056,449.9375 494.5056,446.8125 Q494.5056,443.6875 495.8181,442.0313 Q497.1463,440.375 499.6463,440.375 Q500.3494,440.375 500.99,440.5313 Q501.6463,440.6875 502.2088,440.9844 L502.2088,443.7031 Q501.5838,443.125 500.99,442.8594 Q500.3963,442.5781 499.7713,442.5781 Q498.4275,442.5781 497.74,443.6563 Q497.0525,444.7188 497.0525,446.8125 Q497.0525,448.9063 497.74,449.9844 Q498.4275,451.0469 499.7713,451.0469 Q500.3963,451.0469 500.99,450.7813 Q501.5838,450.5 502.2088,449.9219 L502.2088,452.6406 Z " fill="#000000"/><text fill="#000000" font-family="sans-serif" font-size="14" lengthAdjust="spacing" textLength="113.5244" x="513.24" y="451.8467">ControladorCaja</text><line style="stroke:#181818;stroke-width:0.5;" x1="485.24" x2="628.7644" y1="463" y2="463"/><line style="stroke:#181818;stroke-width:0.5;" x1="485.24" x2="628.7644" y1="471" y2="471"/></g><!--class Pago--><g class="entity" data-entity="Pago" data-source-line="42" data-uid="ent0028" id="entity_Pago"><rect fill="#F1F1F1" height="48" rx="2.5" ry="2.5" style="stroke:#181818;stroke-width:0.5;" width="66.4736" x="1045.76" y="622"/><ellipse cx="1060.76" cy="638" fill="#B4A7E5" rx="11" ry="11" style="stroke:#181818;stroke-width:1;"/><path d="M1056.6819,633.7656 L1056.6819,631.6094 L1064.0725,631.6094 L1064.0725,633.7656 L1061.6038,633.7656 L1061.6038,641.8438 L1064.0725,641.8438 L1064.0725,644 L1056.6819,644 L1056.6819,641.8438 L1059.1506,641.8438 L1059.1506,633.7656 L1056.6819,633.7656 Z " fill="#000000"/><text fill="#000000" font-family="sans-serif" font-size="14" font-style="italic" lengthAdjust="spacing" textLength="34.4736" x="1074.76" y="642.8467">Pago</text><line style="stroke:#181818;stroke-width:0.5;" x1="1046.76" x2="1111.2336" y1="654" y2="654"/><line style="stroke:#181818;stroke-width:0.5;" x1="1046.76" x2="1111.2336" y1="662" y2="662"/></g><!--class Efectivo--><g class="entity" data-entity="Efectivo" data-source-line="43" data-uid="ent0029" id="entity_Efectivo"><rect fill="#F1F1F1" height="48" rx="2.5" ry="2.5" style="stroke:#181818;stroke-width:0.5;" width="88.3145" x="1091.84" y="821"/><ellipse cx="1106.84" cy="837" fill="#ADD1B2" rx="11" ry="11" style="stroke:#181818;stroke-width:1;"/><path d="M1109.8088,842.6406 Q1109.2306,842.9375 1108.59,843.0781 Q1107.9494,843.2344 1107.2463,843.2344 Q1104.7463,843.2344 1103.4181,841.5938 Q1102.1056,839.9375 1102.1056,836.8125 Q1102.1056,833.6875 1103.4181,832.0313 Q1104.7463,830.375 1107.2463,830.375 Q1107.9494,830.375 1108.59,830.5313 Q1109.2463,830.6875 1109.8088,830.9844 L1109.8088,833.7031 Q1109.1838,833.125 1108.59,832.8594 Q1107.9963,832.5781 1107.3713,832.5781 Q1106.0275,832.5781 1105.34,833.6563 Q1104.6525,834.7188 1104.6525,836.8125 Q1104.6525,838.9063 1105.34,839.9844 Q1106.0275,841.0469 1107.3713,841.0469 Q1107.9963,841.0469 1108.59,840.7813 Q1109.1838,840.5 1109.8088,839.9219 L1109.8088,842.6406 Z " fill="#000000"/><text fill="#000000" font-family="sans-serif" font-size="14" lengthAdjust="spacing" textLength="56.3145" x="1120.84" y="841.8467">Efectivo</text><line style="stroke:#181818;stroke-width:0.5;" x1="1092.84" x2="1179.1545" y1="853" y2="853"/><line style="stroke:#181818;stroke-width:0.5;" x1="1092.84" x2="1179.1545" y1="861" y2="861"/></g><!--class Tarjeta--><g class="entity" data-entity="Tarjeta" data-source-line="44" data-uid="ent0030" id="entity_Tarjeta"><rect fill="#F1F1F1" height="48" rx="2.5" ry="2.5" style="stroke:#181818;stroke-width:0.5;" width="81.458" x="975.27" y="821"/><ellipse cx="990.27" cy="837" fill="#ADD1B2" rx="11" ry="11" style="stroke:#181818;stroke-width:1;"/><path d="M993.2388,842.6406 Q992.6606,842.9375 992.02,843.0781 Q991.3794,843.2344 990.6763,843.2344 Q988.1763,843.2344 986.8481,841.5938 Q985.5356,839.9375 985.5356,836.8125 Q985.5356,833.6875 986.8481,832.0313 Q988.1763,830.375 990.6763,830.375 Q991.3794,830.375 992.02,830.5313 Q992.6763,830.6875 993.2388,830.9844 L993.2388,833.7031 Q992.6138,833.125 992.02,832.8594 Q991.4263,832.5781 990.8013,832.5781 Q989.4575,832.5781 988.77,833.6563 Q988.0825,834.7188 988.0825,836.8125 Q988.0825,838.9063 988.77,839.9844 Q989.4575,841.0469 990.8013,841.0469 Q991.4263,841.0469 992.02,840.7813 Q992.6138,840.5 993.2388,839.9219 L993.2388,842.6406 Z " fill="#000000"/><text fill="#000000" font-family="sans-serif" font-size="14" lengthAdjust="spacing" textLength="49.458" x="1004.27" y="841.8467">Tarjeta</text><line style="stroke:#181818;stroke-width:0.5;" x1="976.27" x2="1055.728" y1="853" y2="853"/><line style="stroke:#181818;stroke-width:0.5;" x1="976.27" x2="1055.728" y1="861" y2="861"/></g><!--class VistaPago--><g class="entity" data-entity="VistaPago" data-source-line="47" data-uid="ent0032" id="entity_VistaPago"><rect fill="#F1F1F1" height="48" rx="2.5" ry="2.5" style="stroke:#181818;stroke-width:0.5;" width="101.3027" x="793.35" y="821"/><ellipse cx="808.35" cy="837" fill="#ADD1B2" rx="11" ry="11" style="stroke:#181818;stroke-width:1;"/><path d="M811.3188,842.6406 Q810.7406,842.9375 810.1,843.0781 Q809.4594,843.2344 808.7563,843.2344 Q806.2563,843.2344 804.9281,841.5938 Q803.6156,839.9375 803.6156,836.8125 Q803.6156,833.6875 804.9281,832.0313 Q806.2563,830.375 808.7563,830.375 Q809.4594,830.375 810.1,830.5313 Q810.7563,830.6875 811.3188,830.9844 L811.3188,833.7031 Q810.6938,833.125 810.1,832.8594 Q809.5063,832.5781 808.8813,832.5781 Q807.5375,832.5781 806.85,833.6563 Q806.1625,834.7188 806.1625,836.8125 Q806.1625,838.9063 806.85,839.9844 Q807.5375,841.0469 808.8813,841.0469 Q809.5063,841.0469 810.1,840.7813 Q810.6938,840.5 811.3188,839.9219 L811.3188,842.6406 Z " fill="#000000"/><text fill="#000000" font-family="sans-serif" font-size="14" lengthAdjust="spacing" textLength="69.3027" x="822.35" y="841.8467">VistaPago</text><line style="stroke:#181818;stroke-width:0.5;" x1="794.35" x2="893.6527" y1="853" y2="853"/><line style="stroke:#181818;stroke-width:0.5;" x1="794.35" x2="893.6527" y1="861" y2="861"/></g><!--class ControladorPago--><g class="entity" data-entity="ControladorPago" data-source-line="50" data-uid="ent0034" id="entity_ControladorPago"><rect fill="#F1F1F1" height="48" rx="2.5" ry="2.5" style="stroke:#181818;stroke-width:0.5;" width="149.1748" x="769.41" y="622"/><ellipse cx="784.41" cy="638" fill="#ADD1B2" rx="11" ry="11" style="stroke:#181818;stroke-width:1;"/><path d="M787.3788,643.6406 Q786.8006,643.9375 786.16,644.0781 Q785.5194,644.2344 784.8163,644.2344 Q782.3163,644.2344 780.9881,642.5938 Q779.6756,640.9375 779.6756,637.8125 Q779.6756,634.6875 780.9881,633.0313 Q782.3163,631.375 784.8163,631.375 Q785.5194,631.375 786.16,631.5313 Q786.8163,631.6875 787.3788,631.9844 L787.3788,634.7031 Q786.7538,634.125 786.16,633.8594 Q785.5663,633.5781 784.9413,633.5781 Q783.5975,633.5781 782.91,634.6563 Q782.2225,635.7188 782.2225,637.8125 Q782.2225,639.9063 782.91,640.9844 Q783.5975,642.0469 784.9413,642.0469 Q785.5663,642.0469 786.16,641.7813 Q786.7538,641.5 787.3788,640.9219 L787.3788,643.6406 Z " fill="#000000"/><text fill="#000000" font-family="sans-serif" font-size="14" lengthAdjust="spacing" textLength="117.1748" x="798.41" y="642.8467">ControladorPago</text><line style="stroke:#181818;stroke-width:0.5;" x1="770.41" x2="917.5848" y1="654" y2="654"/><line style="stroke:#181818;stroke-width:0.5;" x1="770.41" x2="917.5848" y1="662" y2="662"/></g><!--class UsuarioFactory--><g class="entity" data-entity="UsuarioFactory" data-source-line="65" data-uid="ent0043" id="entity_UsuarioFactory"><rect fill="#F1F1F1" height="48" rx="2.5" ry="2.5" style="stroke:#181818;stroke-width:0.5;" width="137.6289" x="1487.19" y="431"/><ellipse cx="1502.19" cy="447" fill="#ADD1B2" rx="11" ry="11" style="stroke:#181818;stroke-width:1;"/><path d="M1505.1588,452.6406 Q1504.5806,452.9375 1503.94,453.0781 Q1503.2994,453.2344 1502.5963,453.2344 Q1500.0963,453.2344 1498.7681,451.5938 Q1497.4556,449.9375 1497.4556,446.8125 Q1497.4556,443.6875 1498.7681,442.0313 Q1500.0963,440.375 1502.5963,440.375 Q1503.2994,440.375 1503.94,440.5313 Q1504.5963,440.6875 1505.1588,440.9844 L1505.1588,443.7031 Q1504.5338,443.125 1503.94,442.8594 Q1503.3463,442.5781 1502.7213,442.5781 Q1501.3775,442.5781 1500.69,443.6563 Q1500.0025,444.7188 1500.0025,446.8125 Q1500.0025,448.9063 1500.69,449.9844 Q1501.3775,451.0469 1502.7213,451.0469 Q1503.3463,451.0469 1503.94,450.7813 Q1504.5338,450.5 1505.1588,449.9219 L1505.1588,452.6406 Z " fill="#000000"/><text fill="#000000" font-family="sans-serif" font-size="14" lengthAdjust="spacing" textLength="105.6289" x="1516.19" y="451.8467">UsuarioFactory</text><line style="stroke:#181818;stroke-width:0.5;" x1="1488.19" x2="1623.8189" y1="463" y2="463"/><line style="stroke:#181818;stroke-width:0.5;" x1="1488.19" x2="1623.8189" y1="471" y2="471"/></g><!--class Usuario--><g class="entity" data-entity="Usuario" data-source-line="56" data-uid="ent0037" id="entity_Usuario"><rect fill="#F1F1F1" height="48" rx="2.5" ry="2.5" style="stroke:#181818;stroke-width:0.5;" width="85.2041" x="1284.4" y="622"/><ellipse cx="1299.4" cy="638" fill="#ADD1B2" rx="11" ry="11" style="stroke:#181818;stroke-width:1;"/><path d="M1302.3688,643.6406 Q1301.7906,643.9375 1301.15,644.0781 Q1300.5094,644.2344 1299.8063,644.2344 Q1297.3063,644.2344 1295.9781,642.5938 Q1294.6656,640.9375 1294.6656,637.8125 Q1294.6656,634.6875 1295.9781,633.0313 Q1297.3063,631.375 1299.8063,631.375 Q1300.5094,631.375 1301.15,631.5313 Q1301.8063,631.6875 1302.3688,631.9844 L1302.3688,634.7031 Q1301.7438,634.125 1301.15,633.8594 Q1300.5563,633.5781 1299.9313,633.5781 Q1298.5875,633.5781 1297.9,634.6563 Q1297.2125,635.7188 1297.2125,637.8125 Q1297.2125,639.9063 1297.9,640.9844 Q1298.5875,642.0469 1299.9313,642.0469 Q1300.5563,642.0469 1301.15,641.7813 Q1301.7438,641.5 1302.3688,640.9219 L1302.3688,643.6406 Z " fill="#000000"/><text fill="#000000" font-family="sans-serif" font-size="14" lengthAdjust="spacing" textLength="53.2041" x="1313.4" y="642.8467">Usuario</text><line style="stroke:#181818;stroke-width:0.5;" x1="1285.4" x2="1368.6041" y1="654" y2="654"/><line style="stroke:#181818;stroke-width:0.5;" x1="1285.4" x2="1368.6041" y1="662" y2="662"/></g><!--class VistaUsuario--><g class="entity" data-entity="VistaUsuario" data-source-line="59" data-uid="ent0039" id="entity_VistaUsuario"><rect fill="#F1F1F1" height="48" rx="2.5" ry="2.5" style="stroke:#181818;stroke-width:0.5;" width="120.0332" x="1427.98" y="821"/><ellipse cx="1442.98" cy="837" fill="#ADD1B2" rx="11" ry="11" style="stroke:#181818;stroke-width:1;"/><path d="M1445.9488,842.6406 Q1445.3706,842.9375 1444.73,843.0781 Q1444.0894,843.2344 1443.3863,843.2344 Q1440.8863,843.2344 1439.5581,841.5938 Q1438.2456,839.9375 1438.2456,836.8125 Q1438.2456,833.6875 1439.5581,832.0313 Q1440.8863,830.375 1443.3863,830.375 Q1444.0894,830.375 1444.73,830.5313 Q1445.3863,830.6875 1445.9488,830.9844 L1445.9488,833.7031 Q1445.3238,833.125 1444.73,832.8594 Q1444.1363,832.5781 1443.5113,832.5781 Q1442.1675,832.5781 1441.48,833.6563 Q1440.7925,834.7188 1440.7925,836.8125 Q1440.7925,838.9063 1441.48,839.9844 Q1442.1675,841.0469 1443.5113,841.0469 Q1444.1363,841.0469 1444.73,840.7813 Q1445.3238,840.5 1445.9488,839.9219 L1445.9488,842.6406 Z " fill="#000000"/><text fill="#000000" font-family="sans-serif" font-size="14" lengthAdjust="spacing" textLength="88.0332" x="1456.98" y="841.8467">VistaUsuario</text><line style="stroke:#181818;stroke-width:0.5;" x1="1428.98" x2="1547.0132" y1="853" y2="853"/><line style="stroke:#181818;stroke-width:0.5;" x1="1428.98" x2="1547.0132" y1="861" y2="861"/></g><!--class IVistaUsuario--><g class="entity" data-entity="IVistaUsuario" data-source-line="60" data-uid="ent0040" id="entity_IVistaUsuario"><rect fill="#F1F1F1" height="48" rx="2.5" ry="2.5" style="stroke:#181818;stroke-width:0.5;" width="124.1621" x="1425.92" y="622"/><ellipse cx="1440.92" cy="638" fill="#ADD1B2" rx="11" ry="11" style="stroke:#181818;stroke-width:1;"/><path d="M1443.8888,643.6406 Q1443.3106,643.9375 1442.67,644.0781 Q1442.0294,644.2344 1441.3263,644.2344 Q1438.8263,644.2344 1437.4981,642.5938 Q1436.1856,640.9375 1436.1856,637.8125 Q1436.1856,634.6875 1437.4981,633.0313 Q1438.8263,631.375 1441.3263,631.375 Q1442.0294,631.375 1442.67,631.5313 Q1443.3263,631.6875 1443.8888,631.9844 L1443.8888,634.7031 Q1443.2638,634.125 1442.67,633.8594 Q1442.0763,633.5781 1441.4513,633.5781 Q1440.1075,633.5781 1439.42,634.6563 Q1438.7325,635.7188 1438.7325,637.8125 Q1438.7325,639.9063 1439.42,640.9844 Q1440.1075,642.0469 1441.4513,642.0469 Q1442.0763,642.0469 1442.67,641.7813 Q1443.2638,641.5 1443.8888,640.9219 L1443.8888,643.6406 Z " fill="#000000"/><text fill="#000000" font-family="sans-serif" font-size="14" lengthAdjust="spacing" textLength="92.1621" x="1454.92" y="642.8467">IVistaUsuario</text><line style="stroke:#181818;stroke-width:0.5;" x1="1426.92" x2="1549.0821" y1="654" y2="654"/><line style="stroke:#181818;stroke-width:0.5;" x1="1426.92" x2="1549.0821" y1="662" y2="662"/></g><!--class ControladorUsuario--><g class="entity" data-entity="ControladorUsuario" data-source-line="63" data-uid="ent0042" id="entity_ControladorUsuario"><rect fill="#F1F1F1" height="48" rx="2.5" ry="2.5" style="stroke:#181818;stroke-width:0.5;" width="167.9053" x="1284.05" y="431"/><ellipse cx="1299.05" cy="447" fill="#ADD1B2" rx="11" ry="11" style="stroke:#181818;stroke-width:1;"/><path d="M1302.0188,452.6406 Q1301.4406,452.9375 1300.8,453.0781 Q1300.1594,453.2344 1299.4563,453.2344 Q1296.9563,453.2344 1295.6281,451.5938 Q1294.3156,449.9375 1294.3156,446.8125 Q1294.3156,443.6875 1295.6281,442.0313 Q1296.9563,440.375 1299.4563,440.375 Q1300.1594,440.375 1300.8,440.5313 Q1301.4563,440.6875 1302.0188,440.9844 L1302.0188,443.7031 Q1301.3938,443.125 1300.8,442.8594 Q1300.2063,442.5781 1299.5813,442.5781 Q1298.2375,442.5781 1297.55,443.6563 Q1296.8625,444.7188 1296.8625,446.8125 Q1296.8625,448.9063 1297.55,449.9844 Q1298.2375,451.0469 1299.5813,451.0469 Q1300.2063,451.0469 1300.8,450.7813 Q1301.3938,450.5 1302.0188,449.9219 L1302.0188,452.6406 Z " fill="#000000"/><text fill="#000000" font-family="sans-serif" font-size="14" lengthAdjust="spacing" textLength="135.9053" x="1313.05" y="451.8467">ControladorUsuario</text><line style="stroke:#181818;stroke-width:0.5;" x1="1285.05" x2="1450.9553" y1="463" y2="463"/><line style="stroke:#181818;stroke-width:0.5;" x1="1285.05" x2="1450.9553" y1="471" y2="471"/></g><!--class EmpleadoFactory--><g class="entity" data-entity="EmpleadoFactory" data-source-line="78" data-uid="ent0051" id="entity_EmpleadoFactory"><rect fill="#F1F1F1" height="48" rx="2.5" ry="2.5" style="stroke:#181818;stroke-width:0.5;" width="154.3291" x="790.84" y="1020"/><ellipse cx="805.84" cy="1036" fill="#ADD1B2" rx="11" ry="11" style="stroke:#181818;stroke-width:1;"/><path d="M808.8088,1041.6406 Q808.2306,1041.9375 807.59,1042.0781 Q806.9494,1042.2344 806.2463,1042.2344 Q803.7463,1042.2344 802.4181,1040.5938 Q801.1056,1038.9375 801.1056,1035.8125 Q801.1056,1032.6875 802.4181,1031.0313 Q803.7463,1029.375 806.2463,1029.375 Q806.9494,1029.375 807.59,1029.5313 Q808.2463,1029.6875 808.8088,1029.9844 L808.8088,1032.7031 Q808.1838,1032.125 807.59,1031.8594 Q806.9963,1031.5781 806.3713,1031.5781 Q805.0275,1031.5781 804.34,1032.6563 Q803.6525,1033.7188 803.6525,1035.8125 Q803.6525,1037.9063 804.34,1038.9844 Q805.0275,1040.0469 806.3713,1040.0469 Q806.9963,1040.0469 807.59,1039.7813 Q808.1838,1039.5 808.8088,1038.9219 L808.8088,1041.6406 Z " fill="#000000"/><text fill="#000000" font-family="sans-serif" font-size="14" lengthAdjust="spacing" textLength="122.3291" x="819.84" y="1040.8467">EmpleadoFactory</text><line style="stroke:#181818;stroke-width:0.5;" x1="791.84" x2="944.1691" y1="1052" y2="1052"/><line style="stroke:#181818;stroke-width:0.5;" x1="791.84" x2="944.1691" y1="1060" y2="1060"/></g><!--class Empleado--><g class="entity" data-entity="Empleado" data-source-line="70" data-uid="ent0046" id="entity_Empleado"><rect fill="#F1F1F1" height="48" rx="2.5" ry="2.5" style="stroke:#181818;stroke-width:0.5;" width="101.9043" x="802.05" y="1168"/><ellipse cx="817.05" cy="1184" fill="#ADD1B2" rx="11" ry="11" style="stroke:#181818;stroke-width:1;"/><path d="M820.0188,1189.6406 Q819.4406,1189.9375 818.8,1190.0781 Q818.1594,1190.2344 817.4563,1190.2344 Q814.9563,1190.2344 813.6281,1188.5938 Q812.3156,1186.9375 812.3156,1183.8125 Q812.3156,1180.6875 813.6281,1179.0313 Q814.9563,1177.375 817.4563,1177.375 Q818.1594,1177.375 818.8,1177.5313 Q819.4563,1177.6875 820.0188,1177.9844 L820.0188,1180.7031 Q819.3938,1180.125 818.8,1179.8594 Q818.2063,1179.5781 817.5813,1179.5781 Q816.2375,1179.5781 815.55,1180.6563 Q814.8625,1181.7188 814.8625,1183.8125 Q814.8625,1185.9063 815.55,1186.9844 Q816.2375,1188.0469 817.5813,1188.0469 Q818.2063,1188.0469 818.8,1187.7813 Q819.3938,1187.5 820.0188,1186.9219 L820.0188,1189.6406 Z " fill="#000000"/><text fill="#000000" font-family="sans-serif" font-size="14" lengthAdjust="spacing" textLength="69.9043" x="831.05" y="1188.8467">Empleado</text><line style="stroke:#181818;stroke-width:0.5;" x1="803.05" x2="902.9543" y1="1200" y2="1200"/><line style="stroke:#181818;stroke-width:0.5;" x1="803.05" x2="902.9543" y1="1208" y2="1208"/></g><!--class VistaEmpleado--><g class="entity" data-entity="VistaEmpleado" data-source-line="73" data-uid="ent0048" id="entity_VistaEmpleado"><rect fill="#F1F1F1" height="48" rx="2.5" ry="2.5" style="stroke:#181818;stroke-width:0.5;" width="136.7334" x="595.63" y="1168"/><ellipse cx="610.63" cy="1184" fill="#ADD1B2" rx="11" ry="11" style="stroke:#181818;stroke-width:1;"/><path d="M613.5988,1189.6406 Q613.0206,1189.9375 612.38,1190.0781 Q611.7394,1190.2344 611.0363,1190.2344 Q608.5363,1190.2344 607.2081,1188.5938 Q605.8956,1186.9375 605.8956,1183.8125 Q605.8956,1180.6875 607.2081,1179.0313 Q608.5363,1177.375 611.0363,1177.375 Q611.7394,1177.375 612.38,1177.5313 Q613.0363,1177.6875 613.5988,1177.9844 L613.5988,1180.7031 Q612.9738,1180.125 612.38,1179.8594 Q611.7863,1179.5781 611.1613,1179.5781 Q609.8175,1179.5781 609.13,1180.6563 Q608.4425,1181.7188 608.4425,1183.8125 Q608.4425,1185.9063 609.13,1186.9844 Q609.8175,1188.0469 611.1613,1188.0469 Q611.7863,1188.0469 612.38,1187.7813 Q612.9738,1187.5 613.5988,1186.9219 L613.5988,1189.6406 Z " fill="#000000"/><text fill="#000000" font-family="sans-serif" font-size="14" lengthAdjust="spacing" textLength="104.7334" x="624.63" y="1188.8467">VistaEmpleado</text><line style="stroke:#181818;stroke-width:0.5;" x1="596.63" x2="731.3634" y1="1200" y2="1200"/><line style="stroke:#181818;stroke-width:0.5;" x1="596.63" x2="731.3634" y1="1208" y2="1208"/></g><!--class ControladorEmpleado--><g class="entity" data-entity="ControladorEmpleado" data-source-line="76" data-uid="ent0050" id="entity_ControladorEmpleado"><rect fill="#F1F1F1" height="48" rx="2.5" ry="2.5" style="stroke:#181818;stroke-width:0.5;" width="184.6055" x="571.7" y="1020"/><ellipse cx="586.7" cy="1036" fill="#ADD1B2" rx="11" ry="11" style="stroke:#181818;stroke-width:1;"/><path d="M589.6688,1041.6406 Q589.0906,1041.9375 588.45,1042.0781 Q587.8094,1042.2344 587.1063,1042.2344 Q584.6063,1042.2344 583.2781,1040.5938 Q581.9656,1038.9375 581.9656,1035.8125 Q581.9656,1032.6875 583.2781,1031.0313 Q584.6063,1029.375 587.1063,1029.375 Q587.8094,1029.375 588.45,1029.5313 Q589.1063,1029.6875 589.6688,1029.9844 L589.6688,1032.7031 Q589.0438,1032.125 588.45,1031.8594 Q587.8563,1031.5781 587.2313,1031.5781 Q585.8875,1031.5781 585.2,1032.6563 Q584.5125,1033.7188 584.5125,1035.8125 Q584.5125,1037.9063 585.2,1038.9844 Q585.8875,1040.0469 587.2313,1040.0469 Q587.8563,1040.0469 588.45,1039.7813 Q589.0438,1039.5 589.6688,1038.9219 L589.6688,1041.6406 Z " fill="#000000"/><text fill="#000000" font-family="sans-serif" font-size="14" lengthAdjust="spacing" textLength="152.6055" x="600.7" y="1040.8467">ControladorEmpleado</text><line style="stroke:#181818;stroke-width:0.5;" x1="572.7" x2="755.3055" y1="1052" y2="1052"/><line style="stroke:#181818;stroke-width:0.5;" x1="572.7" x2="755.3055" y1="1060" y2="1060"/></g><!--reverse link Maquina to Celda--><g class="link" data-entity-1="Maquina" data-entity-2="Celda" data-source-line="82" data-uid="lnk52" id="link_Maquina_Celda"><path codeLine="82" d="M100.067,292.0977 C106.177,328.8677 115,390.88 115,454 C115,454 115,454 115,846 C115,914.81 163.22,984.52 191.67,1019.66" fill="none" id="Maquina-backto-Celda" style="stroke:#181818;stroke-width:1;"/><polygon fill="none" points="98.1,280.26,95.1376,286.8345,100.067,292.0977,103.0294,285.5232,98.1,280.26" style="stroke:#181818;stroke-width:1;"/><text fill="#000000" font-family="sans-serif" font-size="13" lengthAdjust="spacing" textLength="56.2847" x="116" y="650.5669">contiene</text></g><!--reverse link Maquina to Caja--><g class="link" data-entity-1="Maquina" data-entity-2="Caja" data-source-line="83" data-uid="lnk53" id="link_Maquina_Caja"><path codeLine="83" d="M125.7431,288.9074 C194.5231,358.0474 387.87,552.39 456.69,621.57" fill="none" id="Maquina-backto-Caja" style="stroke:#181818;stroke-width:1;"/><polygon fill="none" points="117.28,280.4,118.6758,287.4747,125.7431,288.9074,124.3474,281.8327,117.28,280.4" style="stroke:#181818;stroke-width:1;"/><text fill="#000000" font-family="sans-serif" font-size="13" lengthAdjust="spacing" textLength="56.2847" x="338" y="459.5669">contiene</text></g><!--reverse link Celda to Producto--><g class="link" data-entity-1="Celda" data-entity-2="Producto" data-source-line="84" data-uid="lnk54" id="link_Celda_Producto"><path codeLine="84" d="M214.6705,1080.4262 C216.7205,1107.6662 219.19,1140.38 221.24,1167.6" fill="none" id="Celda-backto-Producto" style="stroke:#181818;stroke-width:1;"/><polygon fill="#181818" points="213.77,1068.46,210.2315,1074.7433,214.6705,1080.4262,218.209,1074.1429,213.77,1068.46" style="stroke:#181818;stroke-width:1;"/><text fill="#000000" font-family="sans-serif" font-size="13" lengthAdjust="spacing" textLength="56.2847" x="218" y="1113.0669">contiene</text></g><!--reverse link Usuario to Tarjeta--><g class="link" data-entity-1="Usuario" data-entity-2="Tarjeta" data-source-line="85" data-uid="lnk55" id="link_Usuario_Tarjeta"><path codeLine="85" d="M1281.9783,676.7568 C1256.4483,692.7368 1230.53,706.65 1196,718 C1143.99,735.09 1118.87,703.63 1074,735 C1044.84,755.39 1029.11,795.17 1021.65,820.62" fill="none" id="Usuario-backto-Tarjeta" style="stroke:#181818;stroke-width:1;"/><polygon fill="none" points="1292.15,670.39,1284.9419,670.1828,1281.9783,676.7568,1289.1864,676.964,1292.15,670.39" style="stroke:#181818;stroke-width:1;"/></g><!--reverse link Usuario to Efectivo--><g class="link" data-entity-1="Usuario" data-entity-2="Efectivo" data-source-line="86" data-uid="lnk56" id="link_Usuario_Efectivo"><path codeLine="86" d="M1295.9875,678.986 C1259.2275,716.906 1195.37,782.76 1158.63,820.66" fill="none" id="Usuario-backto-Efectivo" style="stroke:#181818;stroke-width:1;"/><polygon fill="none" points="1304.34,670.37,1297.2917,671.8939,1295.9875,678.986,1303.0358,677.4622,1304.34,670.37" style="stroke:#181818;stroke-width:1;"/></g><!--reverse link Pago to Efectivo--><g class="link" data-entity-1="Pago" data-entity-2="Efectivo" data-source-line="89" data-uid="lnk58" id="link_Pago_Efectivo"><path codeLine="89" d="M1090.7622,687.661 C1101.7322,725.581 1118.28,782.76 1129.25,820.66" fill="none" id="Pago-backto-Efectivo" style="stroke:#181818;stroke-width:1;stroke-dasharray:7.0,7.0;"/><polygon fill="none" points="1085.76,670.37,1084.9985,689.3284,1096.5258,685.9936,1085.76,670.37" style="stroke:#181818;stroke-width:1;"/></g><!--reverse link Pago to Tarjeta--><g class="link" data-entity-1="Pago" data-entity-2="Tarjeta" data-source-line="90" data-uid="lnk60" id="link_Pago_Tarjeta"><path codeLine="90" d="M1066.0458,687.5142 C1053.9158,725.4342 1035.58,782.76 1023.46,820.66" fill="none" id="Pago-backto-Tarjeta" style="stroke:#181818;stroke-width:1;stroke-dasharray:7.0,7.0;"/><polygon fill="none" points="1071.53,670.37,1060.3311,685.6862,1071.7606,689.3423,1071.53,670.37" style="stroke:#181818;stroke-width:1;"/></g><!--reverse link IVistaInventario to VistaInventario--><g class="link" data-entity-1="IVistaInventario" data-entity-2="VistaInventario" data-source-line="91" data-uid="lnk62" id="link_IVistaInventario_VistaInventario"><path codeLine="91" d="M397,1086.46 C397,1113.7 397,1140.38 397,1167.6" fill="none" id="IVistaInventario-backto-VistaInventario" style="stroke:#181818;stroke-width:1;stroke-dasharray:7.0,7.0;"/><polygon fill="none" points="397,1068.46,391,1086.46,403,1086.46,397,1068.46" style="stroke:#181818;stroke-width:1;"/></g><!--reverse link IVistaUsuario to VistaUsuario--><g class="link" data-entity-1="IVistaUsuario" data-entity-2="VistaUsuario" data-source-line="92" data-uid="lnk64" id="link_IVistaUsuario_VistaUsuario"><path codeLine="92" d="M1488,688.37 C1488,726.29 1488,782.76 1488,820.66" fill="none" id="IVistaUsuario-backto-VistaUsuario" style="stroke:#181818;stroke-width:1;stroke-dasharray:7.0,7.0;"/><polygon fill="none" points="1488,670.37,1482,688.37,1494,688.37,1488,670.37" style="stroke:#181818;stroke-width:1;"/></g><!--link MaquinaFactory to Maquina--><g class="link" data-entity-1="MaquinaFactory" data-entity-2="Maquina" data-source-line="95" data-uid="lnk65" id="link_MaquinaFactory_Maquina"><path codeLine="95" d="M94,132.46 C94,159.7 94,198.38 94,225.6" fill="none" id="MaquinaFactory-to-Maquina" style="stroke:#181818;stroke-width:1;"/><polygon fill="#181818" points="94,231.6,98,222.6,94,226.6,90,222.6,94,231.6" style="stroke:#181818;stroke-width:1;"/><text fill="#000000" font-family="sans-serif" font-size="13" lengthAdjust="spacing" textLength="28.4565" x="95" y="177.0669">crea</text></g><!--link UsuarioFactory to Usuario--><g class="link" data-entity-1="UsuarioFactory" data-entity-2="Usuario" data-source-line="96" data-uid="lnk66" id="link_UsuarioFactory_Usuario"><path codeLine="96" d="M1512.43,479.31 C1471.02,501.54 1414.41,532.21 1410,536 C1380.79,561.13 1358.4776,593.0143 1343.7076,616.7743" fill="none" id="UsuarioFactory-to-Usuario" style="stroke:#181818;stroke-width:1;"/><polygon fill="#181818" points="1340.54,621.87,1348.6886,616.3382,1343.1797,617.6236,1341.8943,612.1147,1340.54,621.87" style="stroke:#181818;stroke-width:1;"/><text fill="#000000" font-family="sans-serif" font-size="13" lengthAdjust="spacing" textLength="28.4565" x="1453" y="524.0669">crea</text></g><!--link EmpleadoFactory to Empleado--><g class="link" data-entity-1="EmpleadoFactory" data-entity-2="Empleado" data-source-line="97" data-uid="lnk67" id="link_EmpleadoFactory_Empleado"><path codeLine="97" d="M865.59,1068.46 C862.79,1095.7 858.814,1134.4115 856.014,1161.6315" fill="none" id="EmpleadoFactory-to-Empleado" style="stroke:#181818;stroke-width:1;"/><polygon fill="#181818" points="855.4,1167.6,860.2999,1159.0565,855.9116,1162.6262,852.3419,1158.2379,855.4,1167.6" style="stroke:#181818;stroke-width:1;"/><text fill="#000000" font-family="sans-serif" font-size="13" lengthAdjust="spacing" textLength="28.4565" x="863" y="1113.0669">crea</text></g><!--link ControladorMaquina to Maquina--><g class="link" data-entity-1="ControladorMaquina" data-entity-2="Maquina" data-source-line="100" data-uid="lnk68" id="link_ControladorMaquina_Maquina"><path codeLine="100" d="M263.73,132.3 C246.86,147.6 223.29,167.26 200,181 C191.75,185.87 188.32,184.26 180,189 C158.74,201.1 141.4986,214.0981 125.1486,227.7281" fill="none" id="ControladorMaquina-to-Maquina" style="stroke:#181818;stroke-width:1;"/><polygon fill="#181818" points="120.54,231.57,130.0142,228.8795,124.3805,228.3684,124.8917,222.7347,120.54,231.57" style="stroke:#181818;stroke-width:1;"/></g><!--link ControladorMaquina to VistaMaquina--><g class="link" data-entity-1="ControladorMaquina" data-entity-2="VistaMaquina" data-source-line="101" data-uid="lnk69" id="link_ControladorMaquina_VistaMaquina"><path codeLine="101" d="M283.34,132.46 C277.93,159.7 270.2175,198.4947 264.8175,225.7147" fill="none" id="ControladorMaquina-to-VistaMaquina" style="stroke:#181818;stroke-width:1;"/><polygon fill="#181818" points="263.65,231.6,269.3249,223.5504,264.623,226.6956,261.4778,221.9937,263.65,231.6" style="stroke:#181818;stroke-width:1;"/></g><!--link ControladorInventario to Celda--><g class="link" data-entity-1="ControladorInventario" data-entity-2="Celda" data-source-line="103" data-uid="lnk70" id="link_ControladorInventario_Celda"><path codeLine="103" d="M340.37,869.2 C320.51,883.65 296.02,903.55 278,925 C253.24,954.48 235.5817,989.1383 224.3117,1014.1883" fill="none" id="ControladorInventario-to-Celda" style="stroke:#181818;stroke-width:1;"/><polygon fill="#181818" points="221.85,1019.66,229.1904,1013.0936,223.9014,1015.1002,221.8948,1009.8112,221.85,1019.66" style="stroke:#181818;stroke-width:1;"/></g><!--link ControladorInventario to Producto--><g class="link" data-entity-1="ControladorInventario" data-entity-2="Producto" data-source-line="104" data-uid="lnk71" id="link_ControladorInventario_Producto"><path codeLine="104" d="M352.71,869.43 C338.16,886.12 320.06,909.8 310,934 C278.41,1009.98 314.98,1041.62 282,1117 C273.7,1135.97 263.3388,1149.7711 250.8288,1163.3911" fill="none" id="ControladorInventario-to-Producto" style="stroke:#181818;stroke-width:1;"/><polygon fill="#181818" points="246.77,1167.81,255.8041,1163.8875,250.1523,1164.1276,249.9122,1158.4758,246.77,1167.81" style="stroke:#181818;stroke-width:1;"/></g><!--link ControladorInventario to IVistaInventario--><g class="link" data-entity-1="ControladorInventario" data-entity-2="IVistaInventario" data-source-line="105" data-uid="lnk72" id="link_ControladorInventario_IVistaInventario"><path codeLine="105" d="M377.61,869.37 C381.84,907.29 389.4945,975.797 393.7245,1013.697" fill="none" id="ControladorInventario-to-IVistaInventario" style="stroke:#181818;stroke-width:1;"/><polygon fill="#181818" points="394.39,1019.66,397.367,1010.2719,393.8354,1014.6909,389.4164,1011.1592,394.39,1019.66" style="stroke:#181818;stroke-width:1;"/></g><!--link ControladorCaja to Caja--><g class="link" data-entity-1="ControladorCaja" data-entity-2="Caja" data-source-line="107" data-uid="lnk73" id="link_ControladorCaja_Caja"><path codeLine="107" d="M547.56,479.18 C532.78,515.45 506.6025,579.6829 491.7825,616.0829" fill="none" id="ControladorCaja-to-Caja" style="stroke:#181818;stroke-width:1;"/><polygon fill="#181818" points="489.52,621.64,496.6185,614.8127,491.4054,617.0091,489.2091,611.7961,489.52,621.64" style="stroke:#181818;stroke-width:1;"/></g><!--link ControladorCaja to VistaCaja--><g class="link" data-entity-1="ControladorCaja" data-entity-2="VistaCaja" data-source-line="108" data-uid="lnk74" id="link_ControladorCaja_VistaCaja"><path codeLine="108" d="M564.23,479.18 C575.56,515.45 595.5625,579.5124 606.9225,615.9124" fill="none" id="ControladorCaja-to-VistaCaja" style="stroke:#181818;stroke-width:1;"/><polygon fill="#181818" points="608.71,621.64,609.8471,611.857,607.2204,616.867,602.2104,614.2403,608.71,621.64" style="stroke:#181818;stroke-width:1;"/></g><!--link ControladorPago to VistaPago--><g class="link" data-entity-1="ControladorPago" data-entity-2="VistaPago" data-source-line="110" data-uid="lnk75" id="link_ControladorPago_VistaPago"><path codeLine="110" d="M844,670.37 C844,708.29 844,776.76 844,814.66" fill="none" id="ControladorPago-to-VistaPago" style="stroke:#181818;stroke-width:1;"/><polygon fill="#181818" points="844,820.66,848,811.66,844,815.66,840,811.66,844,820.66" style="stroke:#181818;stroke-width:1;"/></g><!--link ControladorUsuario to Usuario--><g class="link" data-entity-1="ControladorUsuario" data-entity-2="Usuario" data-source-line="112" data-uid="lnk76" id="link_ControladorUsuario_Usuario"><path codeLine="112" d="M1362.97,479.18 C1355.1,515.45 1341.231,579.3762 1333.341,615.7762" fill="none" id="ControladorUsuario-to-Usuario" style="stroke:#181818;stroke-width:1;"/><polygon fill="#181818" points="1332.07,621.64,1337.8858,613.6916,1333.1292,616.7535,1330.0673,611.9969,1332.07,621.64" style="stroke:#181818;stroke-width:1;"/></g><!--link ControladorUsuario to IVistaUsuario--><g class="link" data-entity-1="ControladorUsuario" data-entity-2="IVistaUsuario" data-source-line="113" data-uid="lnk77" id="link_ControladorUsuario_IVistaUsuario"><path codeLine="113" d="M1381.08,479.23 C1389.2,493.44 1399.96,511.92 1410,528 C1430.55,560.93 1452.2763,593.142 1468.3463,616.572" fill="none" id="ControladorUsuario-to-IVistaUsuario" style="stroke:#181818;stroke-width:1;"/><polygon fill="#181818" points="1471.74,621.52,1469.9481,611.8355,1468.9119,617.3967,1463.3508,616.3605,1471.74,621.52" style="stroke:#181818;stroke-width:1;"/></g><!--link ControladorEmpleado to Empleado--><g class="link" data-entity-1="ControladorEmpleado" data-entity-2="Empleado" data-source-line="115" data-uid="lnk78" id="link_ControladorEmpleado_Empleado"><path codeLine="115" d="M685.95,1068.23 C700.39,1082.95 720.05,1101.97 739,1117 C762.39,1135.54 785.3844,1150.6946 807.8344,1164.4546" fill="none" id="ControladorEmpleado-to-Empleado" style="stroke:#181818;stroke-width:1;"/><polygon fill="#181818" points="812.95,1167.59,807.3669,1159.4765,808.687,1164.9771,803.1864,1166.2972,812.95,1167.59" style="stroke:#181818;stroke-width:1;"/></g><!--link ControladorEmpleado to VistaEmpleado--><g class="link" data-entity-1="ControladorEmpleado" data-entity-2="VistaEmpleado" data-source-line="116" data-uid="lnk79" id="link_ControladorEmpleado_VistaEmpleado"><path codeLine="116" d="M664,1068.46 C664,1095.7 664,1134.38 664,1161.6" fill="none" id="ControladorEmpleado-to-VistaEmpleado" style="stroke:#181818;stroke-width:1;"/><polygon fill="#181818" points="664,1167.6,668,1158.6,664,1162.6,660,1158.6,664,1167.6" style="stroke:#181818;stroke-width:1;"/></g><!--link ControladorPago to ControladorUsuario--><g class="link" data-entity-1="ControladorPago" data-entity-2="ControladorUsuario" data-source-line="119" data-uid="lnk80" id="link_ControladorPago_ControladorUsuario"><path codeLine="119" d="M861.6,621.81 C882.11,596.54 918.41,556.92 959,536 C1062.54,482.63 1191.6342,465.1621 1277.6242,459.2421" fill="none" id="ControladorPago-to-ControladorUsuario" style="stroke:#181818;stroke-width:1;"/><polygon fill="#181818" points="1283.61,458.83,1274.3565,455.4576,1278.6218,459.1734,1274.906,463.4387,1283.61,458.83" style="stroke:#181818;stroke-width:1;"/></g><!--link ControladorPago to ControladorInventario--><g class="link" data-entity-1="ControladorPago" data-entity-2="ControladorInventario" data-source-line="120" data-uid="lnk81" id="link_ControladorPago_ControladorInventario"><path codeLine="120" d="M790.89,670.45 C759.09,684.42 717.81,702.41 681,718 C594.9,754.47 500.159,793.2421 438.509,818.2821" fill="none" id="ControladorPago-to-ControladorInventario" style="stroke:#181818;stroke-width:1;"/><polygon fill="#181818" points="432.95,820.54,442.7937,820.8592,437.5825,818.6585,439.7832,813.4472,432.95,820.54" style="stroke:#181818;stroke-width:1;"/></g><!--reverse link ControladorCaja to ControladorPago--><g class="link" data-entity-1="ControladorCaja" data-entity-2="ControladorPago" data-source-line="121" data-uid="lnk83" id="link_ControladorCaja_ControladorPago"><path codeLine="121" d="M598.7806,482.7091 C623.5106,498.5691 651.77,516.8 681,536 C725.53,565.25 776.53,599.47 809.45,621.66" fill="none" id="ControladorCaja-backto-ControladorPago" style="stroke:#181818;stroke-width:1;"/><polygon fill="#181818" points="593.73,479.47,599.1465,487.6957,597.9388,482.1692,603.4653,480.9616,593.73,479.47" style="stroke:#181818;stroke-width:1;"/></g><!--link ControladorInventario to ControladorEmpleado--><g class="link" data-entity-1="ControladorInventario" data-entity-2="ControladorEmpleado" data-source-line="122" data-uid="lnk84" id="link_ControladorInventario_ControladorEmpleado"><path codeLine="122" d="M409.29,869.37 C464.91,907.29 569.2125,978.3801 624.8025,1016.2801" fill="none" id="ControladorInventario-to-ControladorEmpleado" style="stroke:#181818;stroke-width:1;"/><polygon fill="#181818" points="629.76,1019.66,624.5771,1011.2852,625.6288,1016.8434,620.0706,1017.8951,629.76,1019.66" style="stroke:#181818;stroke-width:1;"/></g><!--link ControladorMaquina to ControladorInventario--><g class="link" data-entity-1="ControladorMaquina" data-entity-2="ControladorInventario" data-source-line="123" data-uid="lnk85" id="link_ControladorMaquina_ControladorInventario"><path codeLine="123" d="M312.7,132.29 C338.42,159.17 375,206.02 375,255 C375,255 375,255 375,647 C375,709.76 375,777.77 375,814.65" fill="none" id="ControladorMaquina-to-ControladorInventario" style="stroke:#181818;stroke-width:1;"/><polygon fill="#181818" points="375,820.65,379,811.65,375,815.65,371,811.65,375,820.65" style="stroke:#181818;stroke-width:1;"/></g><!--link ControladorMaquina to ControladorCaja--><g class="link" data-entity-1="ControladorMaquina" data-entity-2="ControladorCaja" data-source-line="124" data-uid="lnk86" id="link_ControladorMaquina_ControladorCaja"><path codeLine="124" d="M353.7,132.5 C370.47,140.65 387.54,151.08 401,164 C483.89,243.59 530.9489,371.2662 548.1389,424.9062" fill="none" id="ControladorMaquina-to-ControladorCaja" style="stroke:#181818;stroke-width:1;"/><polygon fill="#181818" points="549.97,430.62,551.0325,420.8286,548.4441,425.8585,543.4142,423.2701,549.97,430.62" style="stroke:#181818;stroke-width:1;"/></g><!--SRC=[dLLDJlGm3Dtd51OR-906zYpOZ41YWOGGiBTImnTeao5jHqB0gJW25oDfasb-sg6bgyf-Tlpi-6M3_0MV20ugLRIbkiRNLaWyW7S6vji4NYgLDzkFbrZNuF2TzJCEsOgwmJpYmPhtX74b6wrAB9JEWzU3CqyHLNI9l57wZNqojeafNiajoGQrKBDPhgaiCB7TQ9FDdB60-bN7VJX_h3E9zu_DoRBaRLZZy_mnM_3I6K_5pEKGnEVLt-3JdF49sP1-H4vW0vApBXw9DsARckzGFrEpcExkW3_I3U9pklTrk-Z2ElnI3c5OUcttf9nBCKyHLJkziXVLfYIJOJP_7x2q0VlYvh8SoH4N5V0yX5igaGibgGP31Nf2vXSALGaf51mLP5DRKwbggBw_R4VgVym97QZLgXSeE0DReo19iTCiKkZhmSV6upKizBfXT95-5KBRRclIuk4_QP9SuAcmH2ihG5nyVqdcG-2aFVauxrVHfGvDYVuvLoQQuMsCCFvwcSBw5WkgMVmSm6frxby8IrhJZbo8yDaT8XbS1_4sZucxSVsmXc5k74s_tU1O_eI5HKsverUJZIfzX-jVgcd_xjMQXcGDPuaezmTPTHvp3DhF4dKRtDsuMQuCOVEdtCciHnOlciya8DxtU7nsSWJ1mXlR4LTLAmNlxxI33DiundL4-dw11LtFa6qCJGUGNeGHGPguMx-UFu3p4du0]--></g></svg>