<svg xmlns="http://www.w3.org/2000/svg" xmlns:xlink="http://www.w3.org/1999/xlink" contentStyleType="text/css" data-diagram-type="STATE" height="745px" preserveAspectRatio="none" style="width:717px;height:745px;background:#FFFFFF;" version="1.1" viewBox="0 0 717 745" width="717px" zoomAndPan="magnify"><defs/><g><path d="M19.5,214 L421.7829,214 A12.5,12.5 0 0 1 434.2829,226.5 L434.2829,240.2969 L7,240.2969 L7,226.5 A12.5,12.5 0 0 1 19.5,214 " fill="#F1F1F1" style="stroke:#F1F1F1;stroke-width:1;"/><rect fill="none" height="279.4297" rx="12.5" ry="12.5" style="stroke:#181818;stroke-width:0.5;" width="427.2829" x="7" y="214"/><line style="stroke:#181818;stroke-width:0.5;" x1="7" x2="434.2829" y1="240.2969" y2="240.2969"/><text fill="#000000" font-family="Arial" font-size="14" lengthAdjust="spacing" textLength="50.7773" x="195.2528" y="231.9951">Abierto</text><g id="Abierto.Normal"><rect fill="#F1F1F1" height="50" rx="12.5" ry="12.5" style="stroke:#181818;stroke-width:0.5;" width="147.2305" x="58.97" y="252.2969"/><line style="stroke:#181818;stroke-width:0.5;" x1="58.97" x2="206.2005" y1="278.5938" y2="278.5938"/><text fill="#000000" font-family="Arial" font-size="14" lengthAdjust="spacing" textLength="127.2305" x="68.97" y="270.292">Operaci&#243;n Normal</text></g><g id="Abierto.CajaAdicional"><rect fill="#F1F1F1" height="50" rx="12.5" ry="12.5" style="stroke:#181818;stroke-width:0.5;" width="227.1768" x="19" y="370.2969"/><line style="stroke:#181818;stroke-width:0.5;" x1="19" x2="246.1768" y1="396.5938" y2="396.5938"/><text fill="#000000" font-family="Arial" font-size="14" lengthAdjust="spacing" textLength="207.1768" x="29" y="388.292">Apertura de cajas adicionales</text></g><g class="entity" data-entity="GMN8" data-source-line="21" data-uid="ent0009" id="entity_GMN8"><path d="M66.11,457.2969 L66.11,482.4297 A0,0 0 0 0 66.11,482.4297 L199.07,482.4297 A0,0 0 0 0 199.07,482.4297 L199.07,467.2969 L189.07,457.2969 L136.59,457.2969 L132.59,420.4569 L128.59,457.2969 L66.11,457.2969 A0,0 0 0 0 66.11,457.2969 " fill="#FEFFDD" style="stroke:#181818;stroke-width:0.5;"/><path d="M189.07,457.2969 L189.07,467.2969 L199.07,467.2969 L189.07,457.2969 " fill="#FEFFDD" style="stroke:#181818;stroke-width:0.5;"/><text fill="#000000" font-family="sans-serif" font-size="13" lengthAdjust="spacing" textLength="111.96" x="72.11" y="474.3638">5 cajas operando</text></g><!--link CajaAdicional to Normal--><g class="link" data-entity-1="CajaAdicional" data-entity-2="Normal" data-source-line="17" data-uid="lnk6" id="link_CajaAdicional_Normal"><path d="M197.15,369.9069 C203.65,365.0169 209.39,359.1969 213.59,352.2969 C220.98,340.1369 220.98,332.4469 213.59,320.2969 C209.39,313.3869 208.4447,311.174 201.9447,306.284 " fill="none" id="CajaAdicional-to-Normal" style="stroke:#181818;stroke-width:1;"/><polygon fill="#181818" points="197.15,302.6769,201.9373,311.2839,201.1456,305.6828,206.7467,304.891,197.15,302.6769" style="stroke:#181818;stroke-width:1;"/><text fill="#000000" font-family="sans-serif" font-size="13" lengthAdjust="spacing" textLength="197.8501" x="223.0114" y="333.3638">Menos de 15 personas en cola</text><text fill="#000000" font-family="sans-serif" font-size="13" lengthAdjust="spacing" textLength="204.6929" x="219.59" y="348.4966">y atendidas m&#237;nimo 5 personas</text></g><!--link Normal to CajaAdicional--><g class="link" data-entity-1="Normal" data-entity-2="CajaAdicional" data-source-line="18" data-uid="lnk7" id="link_Normal_CajaAdicional"><path d="M58.63,294.3069 C45.99,300.3769 34.43,308.7469 26.59,320.2969 C18.6,332.0569 18.6,340.5269 26.59,352.2969 C31.37,359.3369 32.6296,361.749 39.5796,366.629 " fill="none" id="Normal-to-CajaAdicional" style="stroke:#181818;stroke-width:1;"/><polygon fill="#181818" points="44.49,370.0769,39.423,361.6314,40.398,367.2036,34.8258,368.1787,44.49,370.0769" style="stroke:#181818;stroke-width:1;"/><text fill="#000000" font-family="sans-serif" font-size="13" lengthAdjust="spacing" textLength="181.6255" x="27.59" y="340.8638">M&#225;s de 15 personas en cola</text></g><ellipse cx="220.64" cy="16" fill="#222222" rx="10" ry="10" style="stroke:#222222;stroke-width:1;"/><g id="Preparaci&#243;n"><rect fill="#F1F1F1" height="50" rx="12.5" ry="12.5" style="stroke:#181818;stroke-width:0.5;" width="103.6377" x="168.82" y="87"/><line style="stroke:#181818;stroke-width:0.5;" x1="168.82" x2="272.4577" y1="113.2969" y2="113.2969"/><text fill="#000000" font-family="Arial" font-size="14" lengthAdjust="spacing" textLength="83.6377" x="178.82" y="104.9951">Preparaci&#243;n</text></g><g id="Cierre"><rect fill="#F1F1F1" height="50" rx="12.5" ry="12.5" style="stroke:#181818;stroke-width:0.5;" width="62.4033" x="189.44" y="588.26"/><line style="stroke:#181818;stroke-width:0.5;" x1="189.44" x2="251.8433" y1="614.5569" y2="614.5569"/><text fill="#000000" font-family="Arial" font-size="14" lengthAdjust="spacing" textLength="42.4033" x="199.44" y="606.2551">Cierre</text></g><ellipse cx="220.64" cy="728.09" fill="none" rx="11" ry="11" style="stroke:#222222;stroke-width:1;"/><ellipse cx="220.64" cy="728.09" fill="#222222" rx="6" ry="6" style="stroke:#222222;stroke-width:1;"/><g class="entity" data-entity="GMN2" data-source-line="5" data-uid="ent0003" id="entity_GMN2"><path d="M307.12,91.86 L307.12,108 L272.87,112 L307.12,116 L307.12,132.1256 A0,0 0 0 0 307.12,132.1256 L420.1547,132.1256 A0,0 0 0 0 420.1547,132.1256 L420.1547,101.86 L410.1547,91.86 L307.12,91.86 A0,0 0 0 0 307.12,91.86 " fill="#FEFFDD" style="stroke:#181818;stroke-width:0.5;"/><path d="M410.1547,91.86 L410.1547,101.86 L420.1547,101.86 L410.1547,91.86 " fill="#FEFFDD" style="stroke:#181818;stroke-width:0.5;"/><text fill="#000000" font-family="sans-serif" font-size="13" lengthAdjust="spacing" textLength="92.0347" x="313.12" y="108.9269">Antes de abrir</text><text fill="#000000" font-family="sans-serif" font-size="13" lengthAdjust="spacing" textLength="63.5781" x="313.12" y="124.0597">(9:00 AM)</text></g><g class="entity" data-entity="GMN5" data-source-line="8" data-uid="ent0006" id="entity_GMN5"><path d="M469.25,326.01 L469.25,349.71 L434.69,353.71 L469.25,357.71 L469.25,381.4084 A0,0 0 0 0 469.25,381.4084 L710.0249,381.4084 A0,0 0 0 0 710.0249,381.4084 L710.0249,336.01 L700.0249,326.01 L469.25,326.01 A0,0 0 0 0 469.25,326.01 " fill="#FEFFDD" style="stroke:#181818;stroke-width:0.5;"/><path d="M700.0249,326.01 L700.0249,336.01 L710.0249,336.01 L700.0249,326.01 " fill="#FEFFDD" style="stroke:#181818;stroke-width:0.5;"/><text fill="#000000" font-family="sans-serif" font-size="13" lengthAdjust="spacing" textLength="115.5273" x="475.25" y="343.0769">Horario comercial</text><text fill="#000000" font-family="sans-serif" font-size="13" lengthAdjust="spacing" textLength="128.9146" x="475.25" y="358.2097">(9:00 AM - 9:00 PM)</text><text fill="#000000" font-family="sans-serif" font-size="13" lengthAdjust="spacing" textLength="219.7749" x="475.25" y="373.3425">Duraci&#243;n: 12 horas (720 minutos)</text></g><g class="entity" data-entity="GMN11" data-source-line="25" data-uid="ent0012" id="entity_GMN11"><path d="M287.05,570.43 L287.05,609.26 L252.22,613.26 L287.05,617.26 L287.05,656.0941 A0,0 0 0 0 287.05,656.0941 L484.2292,656.0941 A0,0 0 0 0 484.2292,656.0941 L484.2292,580.43 L474.2292,570.43 L287.05,570.43 A0,0 0 0 0 287.05,570.43 " fill="#FEFFDD" style="stroke:#181818;stroke-width:0.5;"/><path d="M474.2292,570.43 L474.2292,580.43 L484.2292,580.43 L474.2292,570.43 " fill="#FEFFDD" style="stroke:#181818;stroke-width:0.5;"/><text fill="#000000" font-family="sans-serif" font-size="13" lengthAdjust="spacing" textLength="157.644" x="293.05" y="587.4969">Generando estad&#237;sticas:</text><text fill="#000000" font-family="sans-serif" font-size="13" lengthAdjust="spacing" textLength="156.7554" x="293.05" y="602.6297">- Minutos con cola vac&#237;a</text><text fill="#000000" font-family="sans-serif" font-size="13" lengthAdjust="spacing" textLength="176.1792" x="293.05" y="617.7625">- Personas en cola al cierre</text><text fill="#000000" font-family="sans-serif" font-size="13" lengthAdjust="spacing" textLength="135.9985" x="293.05" y="632.8953">- Personas atendidas</text><text fill="#000000" font-family="sans-serif" font-size="13" lengthAdjust="spacing" textLength="108.0942" x="293.05" y="648.0281">- Items vendidos</text></g><!--link *start* to Preparaci?n--><g class="link" data-entity-1="*start*" data-entity-2="Preparaci&#243;n" data-source-line="4" data-uid="lnk4" id="link_*start*_Preparaci&#243;n"><path d="M220.64,26.35 C220.64,40.28 220.64,60.95 220.64,80.64 " fill="none" id="*start*-to-Preparaci&#243;n" style="stroke:#181818;stroke-width:1;"/><polygon fill="#181818" points="220.64,86.64,224.64,77.64,220.64,81.64,216.64,77.64,220.64,86.64" style="stroke:#181818;stroke-width:1;"/></g><!--link Preparaci?n to Abierto--><g class="link" data-entity-1="Preparaci&#243;n" data-entity-2="Abierto" data-source-line="7" data-uid="lnk5" id="link_Preparaci&#243;n_Abierto"><path d="M220.64,137.3 C220.64,156.23 220.64,178.17 220.64,207.71 " fill="none" id="Preparaci&#243;n-to-Abierto" style="stroke:#181818;stroke-width:1;"/><polygon fill="#181818" points="220.64,213.71,224.64,204.71,220.64,208.71,216.64,204.71,220.64,213.71" style="stroke:#181818;stroke-width:1;"/><text fill="#000000" font-family="sans-serif" font-size="13" lengthAdjust="spacing" textLength="57.1353" x="221.64" y="180.0669">Apertura</text></g><!--link Abierto to Cierre--><g class="link" data-entity-1="Abierto" data-entity-2="Cierre" data-source-line="24" data-uid="lnk9" id="link_Abierto_Cierre"><path d="M220.64,493.66 C220.64,530.01 220.64,559.27 220.64,581.76 " fill="none" id="Abierto-to-Cierre" style="stroke:#181818;stroke-width:1;"/><polygon fill="#181818" points="220.64,587.76,224.64,578.76,220.64,582.76,216.64,578.76,220.64,587.76" style="stroke:#181818;stroke-width:1;"/><text fill="#000000" font-family="sans-serif" font-size="13" lengthAdjust="spacing" textLength="52.3809" x="221.64" y="536.4969">9:00 PM</text></g><!--link Cierre to *end*--><g class="link" data-entity-1="Cierre" data-entity-2="*end*" data-source-line="27" data-uid="lnk11" id="link_Cierre_*end*"><path d="M220.64,638.74 C220.64,663.11 220.64,693.33 220.64,710.86 " fill="none" id="Cierre-to-*end*" style="stroke:#181818;stroke-width:1;"/><polygon fill="#181818" points="220.64,716.86,224.64,707.86,220.64,711.86,216.64,707.86,220.64,716.86" style="stroke:#181818;stroke-width:1;"/></g><!--SRC=[TL9DJm8n4BttLqmuWGa948cHWyb6uyS19E7eUYYxLQhR6T8M4ZN-67y09t_2_Z6dtGNSDTucCs_UlFTQzwfnBQqqiF3Igsj2FvD6GMArB8JxErteTmN3Ko4UJXwXtx-0kLK1akdo6mMILs3ryye3FJL6C844lNAGAv1BgssAtVF9O039j2T40nbOawLMrbFOMdEniRB5VGJSafLM4sHabCrOzf4P-X2h-RINujMcFZ21uGXMlEMWUpOQWD6uyUHOXWik3zGVGWY0gjUvPncrlXbP8uiEy7vL_eBjrGQRcNnXYCnrfWbbeLnSkUHkik-5pKOZcgzOsTfK8SN4XcDWOiS81mhPQY5JV0C-YRdEkMdA7Mf3SCGnSyqJA9j7cBdy-eyukevXBybxCY7jzlguDaSX5Sn9V0gnZosUuz8g1jRnjnxlCBvHM160uW3pSkUypgIRfDY7QVKihAdI1LkPbJiPHlEMP61HMUHiJ0_nXEwTLyR1DdR82L5h26hvA_y0]--></g></svg>