<svg xmlns="http://www.w3.org/2000/svg" xmlns:xlink="http://www.w3.org/1999/xlink" contentStyleType="text/css" data-diagram-type="STATE" height="266px" preserveAspectRatio="none" style="width:369px;height:266px;background:#FFFFFF;" version="1.1" viewBox="0 0 369 266" width="369px" zoomAndPan="magnify"><defs/><g><ellipse cx="175.94" cy="16" fill="#222222" rx="10" ry="10" style="stroke:#222222;stroke-width:1;"/><rect fill="#F1F1F1" height="40" rx="12.5" ry="12.5" style="stroke:#181818;stroke-width:0.5;" width="65.9453" x="142.94" y="103"/><text fill="#000000" font-family="sans-serif" font-size="14" lengthAdjust="spacing" textLength="55.9453" x="147.94" y="127.8467">Cerrada</text><rect fill="#F1F1F1" height="40" rx="12.5" ry="12.5" style="stroke:#181818;stroke-width:0.5;" width="60.791" x="70.44" y="220"/><text fill="#000000" font-family="sans-serif" font-size="14" lengthAdjust="spacing" textLength="50.791" x="75.44" y="244.8467">Abierta</text><ellipse cx="307.94" cy="240" fill="transparent" rx="11" ry="11" style="stroke:#222222;stroke-width:1;"/><ellipse cx="307.94" cy="240" fill="#222222" rx="6" ry="6" style="stroke:#222222;stroke-width:1;"/><!--link *start* to Cerrada--><g id="link_*start*_Cerrada"><path d="M175.94,26.32 C175.94,43.38 175.94,73.98 175.94,96.64 " fill="transparent" id="*start*-to-Cerrada" style="stroke:#181818;stroke-width:1;"/><polygon fill="#181818" points="175.94,102.64,179.94,93.64,175.94,97.64,171.94,93.64,175.94,102.64" style="stroke:#181818;stroke-width:1;"/><text fill="#000000" font-family="sans-serif" font-size="13" lengthAdjust="spacing" textLength="105.0537" x="176.94" y="69.0669">fuera de horario</text></g><!--link Cerrada to Abierta--><g id="link_Cerrada_Abierta"><path d="M142.62,124.04 C106.46,126.1 50.23,135.6 22.94,173 C6,196.21 36.1821,214.1951 64.7121,225.9451 " fill="transparent" id="Cerrada-to-Abierta" style="stroke:#181818;stroke-width:1;"/><polygon fill="#181818" points="70.26,228.23,63.4614,221.1041,65.6367,226.3259,60.4149,228.5013,70.26,228.23" style="stroke:#181818;stroke-width:1;"/><text fill="#000000" font-family="sans-serif" font-size="13" lengthAdjust="spacing" textLength="108.0244" x="23.94" y="186.0669">inicio de jornada</text></g><!--link Abierta to Cerrada--><g id="link_Abierta_Cerrada"><path d="M115.76,219.77 C122.44,210.86 130.31,200.04 136.94,190 C147.13,174.56 154.8004,161.6493 162.3704,148.2993 " fill="transparent" id="Abierta-to-Cerrada" style="stroke:#181818;stroke-width:1;"/><polygon fill="#181818" points="165.33,143.08,157.4111,148.9359,162.8637,147.4294,164.3702,152.882,165.33,143.08" style="stroke:#181818;stroke-width:1;"/><text fill="#000000" font-family="sans-serif" font-size="13" lengthAdjust="spacing" textLength="90.2764" x="148.94" y="186.0669">fin de jornada</text></g><!--link Cerrada to *end*--><g id="link_Cerrada_*end*"><path d="M207.59,143.22 C220.6,151.7 235.5,162.19 247.94,173 C269.45,191.69 287.2906,212.9178 297.7306,226.0178 " fill="transparent" id="Cerrada-to-*end*" style="stroke:#181818;stroke-width:1;"/><polygon fill="#181818" points="301.47,230.71,298.989,221.1788,298.3538,226.7998,292.7327,226.1647,301.47,230.71" style="stroke:#181818;stroke-width:1;"/><text fill="#000000" font-family="sans-serif" font-size="13" lengthAdjust="spacing" textLength="95.9766" x="265.94" y="186.0669">fin del proceso</text></g><!--SRC=[NSqn3i8m44JHVa-nDL8ka28IuXXH2iTUb8d0QqrCmUs92qj0_PzcDYHJUvRwrcH794g5Pv7vikWmJ7epCgIWezvVnd0YtPo1S97UchkkCDRca17X3UxEV7RfxMyF-HlzhBNtBXvQwD4E_m00]--></g></svg>