<svg xmlns="http://www.w3.org/2000/svg" xmlns:xlink="http://www.w3.org/1999/xlink" contentStyleType="text/css" data-diagram-type="STATE" height="601px" preserveAspectRatio="none" style="width:588px;height:601px;background:#FFFFFF;" version="1.1" viewBox="0 0 588 601" width="588px" zoomAndPan="magnify"><defs/><g><rect fill="#F1F1F1" height="40" rx="12.5" ry="12.5" style="stroke:#181818;stroke-width:0.5;" width="58.8086" x="112.5" y="87"/><text fill="#000000" font-family="sans-serif" font-size="14" lengthAdjust="spacing" textLength="48.8086" x="117.5" y="111.8467">Parado</text><rect fill="#F1F1F1" height="40" rx="12.5" ry="12.5" style="stroke:#181818;stroke-width:0.5;" width="75.4746" x="303.5" y="204"/><text fill="#000000" font-family="sans-serif" font-size="14" lengthAdjust="spacing" textLength="65.4746" x="308.5" y="228.8467">Subiendo</text><rect fill="#F1F1F1" height="40" rx="12.5" ry="12.5" style="stroke:#181818;stroke-width:0.5;" width="66.9775" x="60.5" y="555"/><text fill="#000000" font-family="sans-serif" font-size="14" lengthAdjust="spacing" textLength="56.9775" x="65.5" y="579.8467">Bajando</text><rect fill="#F1F1F1" height="40" rx="12.5" ry="12.5" style="stroke:#181818;stroke-width:0.5;" width="110.9941" x="192.5" y="321"/><text fill="#000000" font-family="sans-serif" font-size="14" lengthAdjust="spacing" textLength="100.9941" x="197.5" y="345.8467">Puerta Abierta</text><rect fill="#F1F1F1" height="40" rx="12.5" ry="12.5" style="stroke:#181818;stroke-width:0.5;" width="116.1484" x="335" y="438"/><text fill="#000000" font-family="sans-serif" font-size="14" lengthAdjust="spacing" textLength="106.1484" x="340" y="462.8467">Puerta Cerrada</text><ellipse cx="142" cy="16" fill="#222222" rx="10" ry="10" style="stroke:#222222;stroke-width:1;"/><ellipse cx="223" cy="458" fill="transparent" rx="11" ry="11" style="stroke:#222222;stroke-width:1;"/><ellipse cx="223" cy="458" fill="#222222" rx="6" ry="6" style="stroke:#222222;stroke-width:1;"/><!--link *start* to Reposo--><g id="link_*start*_Reposo"><path d="M142,26.19 C142,40.4 142,62.02 142,80.74 " fill="transparent" id="*start*-to-Reposo" style="stroke:#181818;stroke-width:1;"/><polygon fill="#181818" points="142,86.74,146,77.74,142,81.74,138,77.74,142,86.74" style="stroke:#181818;stroke-width:1;"/></g><!--link Reposo to Subiendo--><g id="link_Reposo_Subiendo"><path d="M171.79,125.22 C208.33,146.33 264.8854,179.0074 302.8254,200.9374 " fill="transparent" id="Reposo-to-Subiendo" style="stroke:#181818;stroke-width:1;"/><polygon fill="#181818" points="308.02,203.94,302.2298,195.973,303.6911,201.4378,298.2263,202.8992,308.02,203.94" style="stroke:#181818;stroke-width:1;"/><text fill="#000000" font-family="sans-serif" font-size="13" lengthAdjust="spacing" textLength="156.1396" x="254" y="170.0669">Llamada a piso superior</text></g><!--link Reposo to Bajando--><g id="link_Reposo_Bajando"><path d="M112.49,117.93 C72.49,133.48 6,167.65 6,223 C6,223 6,223 6,459 C6,499.48 36.1049,530.8068 61.9349,551.2468 " fill="transparent" id="Reposo-to-Bajando" style="stroke:#181818;stroke-width:1;"/><polygon fill="#181818" points="66.64,554.97,62.0646,546.2484,62.7191,551.8673,57.1003,552.5218,66.64,554.97" style="stroke:#181818;stroke-width:1;"/><text fill="#000000" font-family="sans-serif" font-size="13" lengthAdjust="spacing" textLength="149.3032" x="7" y="345.5669">Llamada a piso inferior</text></g><!--link Subiendo to PuertaAbierta--><g id="link_Subiendo_PuertaAbierta"><path d="M325.43,244.25 C308.27,265.48 284.5722,294.7741 267.3922,316.0241 " fill="transparent" id="Subiendo-to-PuertaAbierta" style="stroke:#181818;stroke-width:1;"/><polygon fill="#181818" points="263.62,320.69,272.3889,316.206,266.7635,316.8018,266.1677,311.1764,263.62,320.69" style="stroke:#181818;stroke-width:1;"/><text fill="#000000" font-family="sans-serif" font-size="13" lengthAdjust="spacing" textLength="81.4912" x="301" y="287.0669">Llegó al piso</text></g><!--link Bajando to PuertaAbierta--><g id="link_Bajando_PuertaAbierta"><path d="M92.12,554.96 C90.3,527.24 90.44,475.06 112,438 C132.64,402.53 166.8697,379.5855 198.0397,363.7655 " fill="transparent" id="Bajando-to-PuertaAbierta" style="stroke:#181818;stroke-width:1;"/><polygon fill="#181818" points="203.39,361.05,193.5542,361.5564,198.9314,363.3129,197.1748,368.6901,203.39,361.05" style="stroke:#181818;stroke-width:1;"/><text fill="#000000" font-family="sans-serif" font-size="13" lengthAdjust="spacing" textLength="81.4912" x="113" y="462.5669">Llegó al piso</text></g><!--link PuertaAbierta to PuertaCerrada--><g id="link_PuertaAbierta_PuertaCerrada"><path d="M303.54,360.2 C321.05,367.79 339.56,377.95 354,391 C368.32,403.94 376.4626,417.9308 382.9726,432.3608 " fill="transparent" id="PuertaAbierta-to-PuertaCerrada" style="stroke:#181818;stroke-width:1;"/><polygon fill="#181818" points="385.44,437.83,385.385,427.9813,383.3838,433.2723,378.0928,431.2711,385.44,437.83" style="stroke:#181818;stroke-width:1;"/><text fill="#000000" font-family="sans-serif" font-size="13" lengthAdjust="spacing" textLength="88.1055" x="368" y="404.0669">Cerrar puerta</text></g><!--link PuertaCerrada to Subiendo--><g id="link_PuertaCerrada_Subiendo"><path d="M435.4,437.82 C447.12,430.29 458.42,420.43 465,408 C468.53,401.32 467.1,398.26 465,391 C447.08,329.15 397.9944,276.7252 367.4344,248.3152 " fill="transparent" id="PuertaCerrada-to-Subiendo" style="stroke:#181818;stroke-width:1;"/><polygon fill="#181818" points="363.04,244.23,366.9081,253.2875,366.702,247.6344,372.3551,247.4283,363.04,244.23" style="stroke:#181818;stroke-width:1;"/><text fill="#000000" font-family="sans-serif" font-size="13" lengthAdjust="spacing" textLength="127.2197" x="453" y="345.5669">Continuar subiendo</text></g><!--link PuertaCerrada to Bajando--><g id="link_PuertaCerrada_Bajando"><path d="M343.29,478.12 C282.18,501.62 185.73,538.7161 133.16,558.9361 " fill="transparent" id="PuertaCerrada-to-Bajando" style="stroke:#181818;stroke-width:1;"/><polygon fill="#181818" points="127.56,561.09,137.396,561.5924,132.2267,559.295,134.5241,554.1257,127.56,561.09" style="stroke:#181818;stroke-width:1;"/><text fill="#000000" font-family="sans-serif" font-size="13" lengthAdjust="spacing" textLength="120.1421" x="262" y="521.0669">Continuar bajando</text></g><!--link PuertaAbierta to Reposo--><g id="link_PuertaAbierta_Reposo"><path d="M223.43,320.76 C202.84,303.15 174.54,275.14 160,244 C141.97,205.37 140.2047,160.2682 140.8647,133.0282 " fill="transparent" id="PuertaAbierta-to-Reposo" style="stroke:#181818;stroke-width:1;"/><polygon fill="#181818" points="141.01,127.03,136.7932,135.9305,140.8889,132.0285,144.7908,136.1242,141.01,127.03" style="stroke:#181818;stroke-width:1;"/><text fill="#000000" font-family="sans-serif" font-size="13" lengthAdjust="spacing" textLength="124.8394" x="161" y="228.5669">Sin más solicitudes</text></g><!--link PuertaAbierta to *end*--><g id="link_PuertaAbierta_*end*"><path d="M211.56,361.14 C200.65,368.85 190.01,378.83 184,391 C172.8,413.67 195.0051,435.3266 209.6251,446.8966 " fill="transparent" id="PuertaAbierta-to-*end*" style="stroke:#181818;stroke-width:1;"/><polygon fill="#181818" points="214.33,450.62,209.7549,441.8983,210.4092,447.5172,204.7903,448.1715,214.33,450.62" style="stroke:#181818;stroke-width:1;"/><text fill="#000000" font-family="sans-serif" font-size="13" lengthAdjust="spacing" textLength="164.5693" x="185" y="404.0669">Apagado por emergencia</text></g><!--SRC=[ZP8nRiCm34LtdOB8M20Ny50WpTgXQCQY0sCpBWjR4YXfw75wXXuX5miZIt6SPEWacVzzujFK5tS4DFhu0ns5LjX7TjQO434IhDvGi7Chm03lv5rmLTYbFPCjKlseuWj-OzNA_T8maKI4ZHhqpCHKAfKRRakY0QwvKZ7cu-aJrkldcciwSgN6WGPU1noL1WJFgeRaITZ9DLq2tiDi3nDiBWtF_29kTb5__0CSiilKTlz0pLAV7ML6TUIRWCzbirHlHjqw6zacfKDTnpq_3plZ-xAX1t7ARsfWnnR6us-0u0PkEIPzB8yCvwKqiF7OwxC1xqJV5abFjcKy0G00]--></g></svg>