<svg xmlns="http://www.w3.org/2000/svg" xmlns:xlink="http://www.w3.org/1999/xlink" contentStyleType="text/css" data-diagram-type="STATE" height="266px" preserveAspectRatio="none" style="width:1386px;height:266px;background:#FFFFFF;" version="1.1" viewBox="0 0 1386 266" width="1386px" zoomAndPan="magnify"><defs/><g><ellipse cx="714.16" cy="16" fill="#222222" rx="10" ry="10" style="stroke:#222222;stroke-width:1;"/><rect fill="#F1F1F1" height="40" rx="12.5" ry="12.5" style="stroke:#181818;stroke-width:0.5;" width="58.8086" x="684.66" y="103"/><text fill="#000000" font-family="sans-serif" font-size="14" lengthAdjust="spacing" textLength="48.8086" x="689.66" y="127.8467">Parado</text><rect fill="#F1F1F1" height="40" rx="12.5" ry="12.5" style="stroke:#181818;stroke-width:0.5;" width="75.4746" x="90.66" y="220"/><text fill="#000000" font-family="sans-serif" font-size="14" lengthAdjust="spacing" textLength="65.4746" x="95.66" y="244.8467">Subiendo</text><rect fill="#F1F1F1" height="40" rx="12.5" ry="12.5" style="stroke:#181818;stroke-width:0.5;" width="66.9775" x="484.66" y="220"/><text fill="#000000" font-family="sans-serif" font-size="14" lengthAdjust="spacing" textLength="56.9775" x="489.66" y="244.8467">Bajando</text><rect fill="#F1F1F1" height="40" rx="12.5" ry="12.5" style="stroke:#181818;stroke-width:0.5;" width="121.1318" x="867.66" y="220"/><text fill="#000000" font-family="sans-serif" font-size="14" lengthAdjust="spacing" textLength="111.1318" x="872.66" y="244.8467">PuertasAbiertas</text><rect fill="#F1F1F1" height="40" rx="12.5" ry="12.5" style="stroke:#181818;stroke-width:0.5;" width="93.3916" x="1225.66" y="220"/><text fill="#000000" font-family="sans-serif" font-size="14" lengthAdjust="spacing" textLength="83.3916" x="1230.66" y="244.8467">Emergencia</text><!--link *start* to Parado--><g id="link_*start*_Parado"><path d="M714.16,26.32 C714.16,43.38 714.16,73.98 714.16,96.64 " fill="transparent" id="*start*-to-Parado" style="stroke:#181818;stroke-width:1;"/><polygon fill="#181818" points="714.16,102.64,718.16,93.64,714.16,97.64,710.16,93.64,714.16,102.64" style="stroke:#181818;stroke-width:1;"/><text fill="#000000" font-family="sans-serif" font-size="13" lengthAdjust="spacing" textLength="34.1758" x="715.16" y="69.0669">inicio</text></g><!--link Parado to Subiendo--><g id="link_Parado_Subiendo"><path d="M684.36,123.8 C558.44,123.28 74.35,124.46 29.16,173 C6,197.87 47.7399,216.2831 84.6399,227.5131 " fill="transparent" id="Parado-to-Subiendo" style="stroke:#181818;stroke-width:1;"/><polygon fill="#181818" points="90.38,229.26,82.9345,222.8129,85.5966,227.8042,80.6053,230.4663,90.38,229.26" style="stroke:#181818;stroke-width:1;"/><text fill="#000000" font-family="sans-serif" font-size="13" lengthAdjust="spacing" textLength="150.3252" x="30.16" y="186.0669">bot&#243;n subir presionado</text></g><!--link Subiendo to Parado--><g id="link_Subiendo_Parado"><path d="M155.34,219.91 C178.78,204.49 214.12,183.67 248.16,173 C330.34,147.23 589.3994,130.9052 678.5794,125.9152 " fill="transparent" id="Subiendo-to-Parado" style="stroke:#181818;stroke-width:1;"/><polygon fill="#181818" points="684.57,125.58,675.3606,122.089,679.5778,125.8593,675.8075,130.0766,684.57,125.58" style="stroke:#181818;stroke-width:1;"/><text fill="#000000" font-family="sans-serif" font-size="13" lengthAdjust="spacing" textLength="156.5713" x="249.16" y="186.0669">llega a la planta destino</text></g><!--link Parado to Bajando--><g id="link_Parado_Bajando"><path d="M684.59,124.29 C616.73,125.63 453.02,133.05 419.16,173 C396.45,199.79 441.7945,218.4391 478.6945,229.0691 " fill="transparent" id="Parado-to-Bajando" style="stroke:#181818;stroke-width:1;"/><polygon fill="#181818" points="484.46,230.73,476.919,224.3949,479.6554,229.3459,474.7044,232.0823,484.46,230.73" style="stroke:#181818;stroke-width:1;"/><text fill="#000000" font-family="sans-serif" font-size="13" lengthAdjust="spacing" textLength="151.2456" x="420.16" y="186.0669">bot&#243;n bajar presionado</text></g><!--link Bajando to Parado--><g id="link_Bajando_Parado"><path d="M542.94,219.91 C561.48,206.06 587.73,187.31 612.16,173 C635.72,159.2 658.2802,148.3837 679.0002,139.1437 " fill="transparent" id="Bajando-to-Parado" style="stroke:#181818;stroke-width:1;"/><polygon fill="#181818" points="684.48,136.7,674.6311,136.7123,679.9135,138.7364,677.8894,144.0188,684.48,136.7" style="stroke:#181818;stroke-width:1;"/><text fill="#000000" font-family="sans-serif" font-size="13" lengthAdjust="spacing" textLength="156.5713" x="613.16" y="186.0669">llega a la planta destino</text></g><!--link Parado to PuertasAbiertas--><g id="link_Parado_PuertasAbiertas"><path d="M738.9,143.15 C757.77,157.21 784.75,176.19 810.16,190 C830.91,201.28 849.2427,209.4478 870.0927,217.7178 " fill="transparent" id="Parado-to-PuertasAbiertas" style="stroke:#181818;stroke-width:1;"/><polygon fill="#181818" points="875.67,219.93,868.7789,212.8935,871.0223,218.0865,865.8293,220.3299,875.67,219.93" style="stroke:#181818;stroke-width:1;"/><text fill="#000000" font-family="sans-serif" font-size="13" lengthAdjust="spacing" textLength="188.1255" x="811.16" y="186.0669">llega a planta y abre puertas</text></g><!--link PuertasAbiertas to Parado--><g id="link_PuertasAbiertas_Parado"><path d="M974.86,219.95 C998.38,207.61 1019.05,190.62 1004.16,173 C971.03,133.81 817.1484,126.0893 749.9684,124.5293 " fill="transparent" id="PuertasAbiertas-to-Parado" style="stroke:#181818;stroke-width:1;"/><polygon fill="#181818" points="743.97,124.39,752.8747,128.5979,748.9687,124.5061,753.0604,120.6,743.97,124.39" style="stroke:#181818;stroke-width:1;"/><text fill="#000000" font-family="sans-serif" font-size="13" lengthAdjust="spacing" textLength="118.3584" x="1010.16" y="186.0669">puertas se cierran</text></g><!--link Parado to Emergencia--><g id="link_Parado_Emergencia"><path d="M743.81,124.02 C813.78,124.79 994.02,131.06 1137.16,173 C1174.59,183.97 1209.139,201.6384 1235.739,216.9384 " fill="transparent" id="Parado-to-Emergencia" style="stroke:#181818;stroke-width:1;"/><polygon fill="#181818" points="1240.94,219.93,1235.1329,211.9753,1236.6058,217.437,1231.1441,218.91,1240.94,219.93" style="stroke:#181818;stroke-width:1;"/><text fill="#000000" font-family="sans-serif" font-size="13" lengthAdjust="spacing" textLength="97.6396" x="1180.16" y="186.0669">falla detectada</text></g><!--link Emergencia to Parado--><g id="link_Emergencia_Parado"><path d="M1284.1,219.89 C1291.54,205.29 1297.72,185.6 1286.16,173 C1249.21,132.76 861.9896,125.5669 749.8496,124.3169 " fill="transparent" id="Emergencia-to-Parado" style="stroke:#181818;stroke-width:1;"/><polygon fill="#181818" points="743.85,124.25,752.8049,128.3501,748.8497,124.3057,752.894,120.3506,743.85,124.25" style="stroke:#181818;stroke-width:1;"/><text fill="#000000" font-family="sans-serif" font-size="13" lengthAdjust="spacing" textLength="84.8936" x="1293.16" y="186.0669">falla resuelta</text></g><!--SRC=[ZP0n2W8n54JxdEBNWXUm41Ji1KkncCr-royn2SdVmdDv12zcrbrbOsKLc7b_PiX5MYQ-HRrJozacYIh16tDSd6YvNDCU2MsW5OaNAy6OIHYyGzy8-xVR17q-FEMY98g9Smafs9pUueeARefGmUORM3Kxnnq8v43HmIk6fIe-c4_ad_XypRxdfCYRKZYyixlfw4ve4bCSEVFBLvKJH9d95Z_1Lrsx6wUElHKKzWpdXadALj72pCmgS-JAv_Ji52y0]--></g></svg>