<svg xmlns="http://www.w3.org/2000/svg" xmlns:xlink="http://www.w3.org/1999/xlink" contentStyleType="text/css" data-diagram-type="CLASS" height="437px" preserveAspectRatio="none" style="width:361px;height:437px;background:#FFFFFF;" version="1.1" viewBox="0 0 361 437" width="361px" zoomAndPan="magnify"><defs/><g><!--class Mundo--><g class="entity" data-entity="Mundo" data-source-line="1" data-uid="ent0002" id="entity_Mundo"><rect fill="#F1F1F1" height="48" rx="2.5" ry="2.5" style="stroke:#181818;stroke-width:0.5;" width="79.2773" x="31" y="7"/><ellipse cx="46" cy="23" fill="#ADD1B2" rx="11" ry="11" style="stroke:#181818;stroke-width:1;"/><path d="M48.9688,28.6406 Q48.3906,28.9375 47.75,29.0781 Q47.1094,29.2344 46.4063,29.2344 Q43.9063,29.2344 42.5781,27.5938 Q41.2656,25.9375 41.2656,22.8125 Q41.2656,19.6875 42.5781,18.0313 Q43.9063,16.375 46.4063,16.375 Q47.1094,16.375 47.75,16.5313 Q48.4063,16.6875 48.9688,16.9844 L48.9688,19.7031 Q48.3438,19.125 47.75,18.8594 Q47.1563,18.5781 46.5313,18.5781 Q45.1875,18.5781 44.5,19.6563 Q43.8125,20.7188 43.8125,22.8125 Q43.8125,24.9063 44.5,25.9844 Q45.1875,27.0469 46.5313,27.0469 Q47.1563,27.0469 47.75,26.7813 Q48.3438,26.5 48.9688,25.9219 L48.9688,28.6406 Z " fill="#000000"/><text fill="#000000" font-family="sans-serif" font-size="14" lengthAdjust="spacing" textLength="47.2773" x="60" y="27.8467">Mundo</text><line style="stroke:#181818;stroke-width:0.5;" x1="32" x2="109.2773" y1="39" y2="39"/><line style="stroke:#181818;stroke-width:0.5;" x1="32" x2="109.2773" y1="47" y2="47"/></g><!--class Caja--><g class="entity" data-entity="Caja" data-source-line="3" data-uid="ent0003" id="entity_Caja"><rect fill="#F1F1F1" height="48" rx="2.5" ry="2.5" style="stroke:#181818;stroke-width:0.5;" width="62.8232" x="39" y="132"/><ellipse cx="54" cy="148" fill="#ADD1B2" rx="11" ry="11" style="stroke:#181818;stroke-width:1;"/><path d="M56.9688,153.6406 Q56.3906,153.9375 55.75,154.0781 Q55.1094,154.2344 54.4063,154.2344 Q51.9063,154.2344 50.5781,152.5938 Q49.2656,150.9375 49.2656,147.8125 Q49.2656,144.6875 50.5781,143.0313 Q51.9063,141.375 54.4063,141.375 Q55.1094,141.375 55.75,141.5313 Q56.4063,141.6875 56.9688,141.9844 L56.9688,144.7031 Q56.3438,144.125 55.75,143.8594 Q55.1563,143.5781 54.5313,143.5781 Q53.1875,143.5781 52.5,144.6563 Q51.8125,145.7188 51.8125,147.8125 Q51.8125,149.9063 52.5,150.9844 Q53.1875,152.0469 54.5313,152.0469 Q55.1563,152.0469 55.75,151.7813 Q56.3438,151.5 56.9688,150.9219 L56.9688,153.6406 Z " fill="#000000"/><text fill="#000000" font-family="sans-serif" font-size="14" lengthAdjust="spacing" textLength="30.8232" x="68" y="152.8467">Caja</text><line style="stroke:#181818;stroke-width:0.5;" x1="40" x2="100.8232" y1="164" y2="164"/><line style="stroke:#181818;stroke-width:0.5;" x1="40" x2="100.8232" y1="172" y2="172"/></g><!--class Cola--><g class="entity" data-entity="Cola" data-source-line="5" data-uid="ent0004" id="entity_Cola"><rect fill="#F1F1F1" height="48" rx="2.5" ry="2.5" style="stroke:#181818;stroke-width:0.5;" width="62.8096" x="7" y="382"/><ellipse cx="22" cy="398" fill="#ADD1B2" rx="11" ry="11" style="stroke:#181818;stroke-width:1;"/><path d="M24.9688,403.6406 Q24.3906,403.9375 23.75,404.0781 Q23.1094,404.2344 22.4063,404.2344 Q19.9063,404.2344 18.5781,402.5938 Q17.2656,400.9375 17.2656,397.8125 Q17.2656,394.6875 18.5781,393.0313 Q19.9063,391.375 22.4063,391.375 Q23.1094,391.375 23.75,391.5313 Q24.4063,391.6875 24.9688,391.9844 L24.9688,394.7031 Q24.3438,394.125 23.75,393.8594 Q23.1563,393.5781 22.5313,393.5781 Q21.1875,393.5781 20.5,394.6563 Q19.8125,395.7188 19.8125,397.8125 Q19.8125,399.9063 20.5,400.9844 Q21.1875,402.0469 22.5313,402.0469 Q23.1563,402.0469 23.75,401.7813 Q24.3438,401.5 24.9688,400.9219 L24.9688,403.6406 Z " fill="#000000"/><text fill="#000000" font-family="sans-serif" font-size="14" lengthAdjust="spacing" textLength="30.8096" x="36" y="402.8467">Cola</text><line style="stroke:#181818;stroke-width:0.5;" x1="8" x2="68.8096" y1="414" y2="414"/><line style="stroke:#181818;stroke-width:0.5;" x1="8" x2="68.8096" y1="422" y2="422"/></g><!--class Cliente--><g class="entity" data-entity="Cliente" data-source-line="7" data-uid="ent0005" id="entity_Cliente"><rect fill="#F1F1F1" height="48" rx="2.5" ry="2.5" style="stroke:#181818;stroke-width:0.5;" width="81.1436" x="214" y="257"/><ellipse cx="229" cy="273" fill="#ADD1B2" rx="11" ry="11" style="stroke:#181818;stroke-width:1;"/><path d="M231.9688,278.6406 Q231.3906,278.9375 230.75,279.0781 Q230.1094,279.2344 229.4063,279.2344 Q226.9063,279.2344 225.5781,277.5938 Q224.2656,275.9375 224.2656,272.8125 Q224.2656,269.6875 225.5781,268.0313 Q226.9063,266.375 229.4063,266.375 Q230.1094,266.375 230.75,266.5313 Q231.4063,266.6875 231.9688,266.9844 L231.9688,269.7031 Q231.3438,269.125 230.75,268.8594 Q230.1563,268.5781 229.5313,268.5781 Q228.1875,268.5781 227.5,269.6563 Q226.8125,270.7188 226.8125,272.8125 Q226.8125,274.9063 227.5,275.9844 Q228.1875,277.0469 229.5313,277.0469 Q230.1563,277.0469 230.75,276.7813 Q231.3438,276.5 231.9688,275.9219 L231.9688,278.6406 Z " fill="#000000"/><text fill="#000000" font-family="sans-serif" font-size="14" lengthAdjust="spacing" textLength="49.1436" x="243" y="277.8467">Cliente</text><line style="stroke:#181818;stroke-width:0.5;" x1="215" x2="294.1436" y1="289" y2="289"/><line style="stroke:#181818;stroke-width:0.5;" x1="215" x2="294.1436" y1="297" y2="297"/></g><!--class Estadisticas--><g class="entity" data-entity="Estadisticas" data-source-line="10" data-uid="ent0006" id="entity_Estadisticas"><rect fill="#F1F1F1" height="48" rx="2.5" ry="2.5" style="stroke:#181818;stroke-width:0.5;" width="115.2275" x="197" y="132"/><ellipse cx="212" cy="148" fill="#ADD1B2" rx="11" ry="11" style="stroke:#181818;stroke-width:1;"/><path d="M214.9688,153.6406 Q214.3906,153.9375 213.75,154.0781 Q213.1094,154.2344 212.4063,154.2344 Q209.9063,154.2344 208.5781,152.5938 Q207.2656,150.9375 207.2656,147.8125 Q207.2656,144.6875 208.5781,143.0313 Q209.9063,141.375 212.4063,141.375 Q213.1094,141.375 213.75,141.5313 Q214.4063,141.6875 214.9688,141.9844 L214.9688,144.7031 Q214.3438,144.125 213.75,143.8594 Q213.1563,143.5781 212.5313,143.5781 Q211.1875,143.5781 210.5,144.6563 Q209.8125,145.7188 209.8125,147.8125 Q209.8125,149.9063 210.5,150.9844 Q211.1875,152.0469 212.5313,152.0469 Q213.1563,152.0469 213.75,151.7813 Q214.3438,151.5 214.9688,150.9219 L214.9688,153.6406 Z " fill="#000000"/><text fill="#000000" font-family="sans-serif" font-size="14" lengthAdjust="spacing" textLength="83.2275" x="226" y="152.8467">Estadisticas</text><line style="stroke:#181818;stroke-width:0.5;" x1="198" x2="311.2275" y1="164" y2="164"/><line style="stroke:#181818;stroke-width:0.5;" x1="198" x2="311.2275" y1="172" y2="172"/></g><!--link Mundo to Caja--><g class="link" data-entity-1="Mundo" data-entity-2="Caja" data-source-line="14" data-uid="lnk7" id="link_Mundo_Caja"><path codeLine="14" d="M70.5,55.14 C70.5,77.13 70.5,104.01 70.5,125.97" fill="none" id="Mundo-to-Caja" style="stroke:#181818;stroke-width:1;"/><polygon fill="#181818" points="70.5,131.97,74.5,122.97,70.5,126.97,66.5,122.97,70.5,131.97" style="stroke:#181818;stroke-width:1;"/><text fill="#000000" font-family="sans-serif" font-size="13" lengthAdjust="spacing" textLength="67.7422" x="71.5" y="98.0669">Usa varias</text></g><!--link Caja to Cliente--><g class="link" data-entity-1="Caja" data-entity-2="Cliente" data-source-line="15" data-uid="lnk8" id="link_Caja_Cliente"><path codeLine="15" d="M102.13,178.14 C134.91,200.06 181.002,230.8653 214.852,253.4953" fill="none" id="Caja-to-Cliente" style="stroke:#181818;stroke-width:1;"/><polygon fill="#181818" points="219.84,256.83,214.5811,248.5027,215.6833,254.0511,210.1349,255.1533,219.84,256.83" style="stroke:#181818;stroke-width:1;"/><text fill="#000000" font-family="sans-serif" font-size="13" lengthAdjust="spacing" textLength="50.0894" x="175.5" y="223.0669">Atiende</text></g><!--link Cliente to Cola--><g class="link" data-entity-1="Cliente" data-entity-2="Cola" data-source-line="16" data-uid="lnk9" id="link_Cliente_Cola"><path codeLine="16" d="M213.87,305.14 C172.2,328.87 118.6783,359.3429 80.5983,381.0229" fill="none" id="Cliente-to-Cola" style="stroke:#181818;stroke-width:1;"/><polygon fill="none" points="70.17,386.96,77.3632,387.4675,80.5983,381.0229,73.4051,380.5153,70.17,386.96" style="stroke:#181818;stroke-width:1;"/><text fill="#000000" font-family="sans-serif" font-size="13" lengthAdjust="spacing" textLength="41.4058" x="160.5" y="348.0669">Forma</text></g><!--link Caja to Cola--><g class="link" data-entity-1="Caja" data-entity-2="Cola" data-source-line="17" data-uid="lnk10" id="link_Caja_Cola"><path codeLine="17" d="M57.22,180.35 C46.81,200.07 33.18,229.42 27.5,257 C18.54,300.53 25.4014,346.7313 31.6414,376.0613" fill="none" id="Caja-to-Cola" style="stroke:#181818;stroke-width:1;stroke-dasharray:7.0,7.0;"/><polygon fill="#181818" points="32.89,381.93,34.9296,372.2946,31.8495,377.0395,27.1047,373.9594,32.89,381.93" style="stroke:#181818;stroke-width:1;"/><text fill="#000000" font-family="sans-serif" font-size="13" lengthAdjust="spacing" textLength="167.2734" x="28.5" y="285.5669">Gestiona dependiendo de</text></g><!--link Estadisticas to Cliente--><g class="link" data-entity-1="Estadisticas" data-entity-2="Cliente" data-source-line="18" data-uid="lnk11" id="link_Estadisticas_Cliente"><path codeLine="18" d="M254.5,180.14 C254.5,202.13 254.5,223.01 254.5,244.97" fill="none" id="Estadisticas-to-Cliente" style="stroke:#181818;stroke-width:1;"/><polygon fill="none" points="254.5,256.97,258.5,250.97,254.5,244.97,250.5,250.97,254.5,256.97" style="stroke:#181818;stroke-width:1;"/><text fill="#000000" font-family="sans-serif" font-size="13" lengthAdjust="spacing" textLength="97.5508" x="255.5" y="223.0669">Registra varios</text></g><!--SRC=[LOv12W8n34NtFKMOVUS0BWP4r9KRmGE4DaYbDjBKsOXtDzCMTNRvxvENk8WYS7ecp_0oR-Dgtk4D_oF7LOo1Kg5AEjfBGH-a18VIk6bEQwTcsy1m4OGPSq0PJ6Mrx3BjjqL7JrfsPYstsreUED-nxutZzEL7qgkS43mzT7inC2oIrKlLzBjqfgiskRt3Cdm0]--></g></svg>