<svg xmlns="http://www.w3.org/2000/svg" xmlns:xlink="http://www.w3.org/1999/xlink" contentStyleType="text/css" data-diagram-type="CLASS" height="483px" preserveAspectRatio="none" style="width:1933px;height:483px;background:#FFFFFF;" version="1.1" viewBox="0 0 1933 483" width="1933px" zoomAndPan="magnify"><defs/><g><!--cluster implementacion--><g class="cluster" data-entity="implementacion" data-source-line="3" data-uid="ent0004" id="cluster_implementacion"><path d="M8.5,6 L136.0742,6 A3.75,3.75 0 0 1 138.5742,8.5 L145.5742,28.2969 L1923.5,28.2969 A2.5,2.5 0 0 1 1926,30.7969 L1926,283.5 A2.5,2.5 0 0 1 1923.5,286 L8.5,286 A2.5,2.5 0 0 1 6,283.5 L6,8.5 A2.5,2.5 0 0 1 8.5,6" fill="none" style="stroke:#000000;stroke-width:1.5;"/><line style="stroke:#000000;stroke-width:1.5;" x1="6" x2="145.5742" y1="28.2969" y2="28.2969"/><text fill="#000000" font-family="sans-serif" font-size="14" font-weight="bold" lengthAdjust="spacing" textLength="126.5742" x="10" y="20.9951">implementacion</text></g><!--cluster modelo--><g class="cluster" data-entity="modelo" data-source-line="1" data-uid="ent0002" id="cluster_modelo"><path d="M32.5,49 L91.6396,49 A3.75,3.75 0 0 1 94.1396,51.5 L101.1396,71.2969 L1899.5,71.2969 A2.5,2.5 0 0 1 1902,73.7969 L1902,259.5 A2.5,2.5 0 0 1 1899.5,262 L32.5,262 A2.5,2.5 0 0 1 30,259.5 L30,51.5 A2.5,2.5 0 0 1 32.5,49" fill="none" style="stroke:#000000;stroke-width:1.5;"/><line style="stroke:#000000;stroke-width:1.5;" x1="30" x2="101.1396" y1="71.2969" y2="71.2969"/><text fill="#000000" font-family="sans-serif" font-size="14" font-weight="bold" lengthAdjust="spacing" textLength="58.1396" x="34" y="63.9951">modelo</text></g><!--cluster interfaces--><g class="cluster" data-entity="interfaces" data-source-line="50" data-uid="ent0011" id="cluster_interfaces"><path d="M466.5,310 L547.0225,310 A3.75,3.75 0 0 1 549.5225,312.5 L556.5225,332.2969 L1141.5,332.2969 A2.5,2.5 0 0 1 1144,334.7969 L1144,473.5 A2.5,2.5 0 0 1 1141.5,476 L466.5,476 A2.5,2.5 0 0 1 464,473.5 L464,312.5 A2.5,2.5 0 0 1 466.5,310" fill="none" style="stroke:#000000;stroke-width:1.5;"/><line style="stroke:#000000;stroke-width:1.5;" x1="464" x2="556.5225" y1="332.2969" y2="332.2969"/><text fill="#000000" font-family="sans-serif" font-size="14" font-weight="bold" lengthAdjust="spacing" textLength="79.5225" x="468" y="324.9951">interfaces</text></g><!--cluster modelo--><g class="cluster" data-entity="modelo" data-source-line="49" data-uid="ent0009" id="cluster_modelo"><path d="M490.5,353 L549.6396,353 A3.75,3.75 0 0 1 552.1396,355.5 L559.1396,375.2969 L1117.5,375.2969 A2.5,2.5 0 0 1 1120,377.7969 L1120,449.5 A2.5,2.5 0 0 1 1117.5,452 L490.5,452 A2.5,2.5 0 0 1 488,449.5 L488,355.5 A2.5,2.5 0 0 1 490.5,353" fill="none" style="stroke:#000000;stroke-width:1.5;"/><line style="stroke:#000000;stroke-width:1.5;" x1="488" x2="559.1396" y1="375.2969" y2="375.2969"/><text fill="#000000" font-family="sans-serif" font-size="14" font-weight="bold" lengthAdjust="spacing" textLength="58.1396" x="492" y="367.9951">modelo</text></g><!--class Caja--><g class="entity" data-entity="Caja" data-source-line="3" data-uid="ent0003" id="entity_Caja"><rect fill="#F1F1F1" height="162.0781" rx="2.5" ry="2.5" style="stroke:#181818;stroke-width:0.5;" width="301.3242" x="879.5" y="84"/><ellipse cx="1010.5005" cy="100" fill="#ADD1B2" rx="11" ry="11" style="stroke:#181818;stroke-width:1;"/><path d="M1013.4692,105.6406 Q1012.8911,105.9375 1012.2505,106.0781 Q1011.6099,106.2344 1010.9067,106.2344 Q1008.4067,106.2344 1007.0786,104.5938 Q1005.7661,102.9375 1005.7661,99.8125 Q1005.7661,96.6875 1007.0786,95.0313 Q1008.4067,93.375 1010.9067,93.375 Q1011.6099,93.375 1012.2505,93.5313 Q1012.9067,93.6875 1013.4692,93.9844 L1013.4692,96.7031 Q1012.8442,96.125 1012.2505,95.8594 Q1011.6567,95.5781 1011.0317,95.5781 Q1009.688,95.5781 1009.0005,96.6563 Q1008.313,97.7188 1008.313,99.8125 Q1008.313,101.9063 1009.0005,102.9844 Q1009.688,104.0469 1011.0317,104.0469 Q1011.6567,104.0469 1012.2505,103.7813 Q1012.8442,103.5 1013.4692,102.9219 L1013.4692,105.6406 Z " fill="#000000"/><text fill="#000000" font-family="sans-serif" font-size="14" lengthAdjust="spacing" textLength="30.8232" x="1031.0005" y="104.8467">Caja</text><line style="stroke:#181818;stroke-width:0.5;" x1="880.5" x2="1179.8242" y1="116" y2="116"/><line style="stroke:#181818;stroke-width:0.5;" x1="880.5" x2="1179.8242" y1="124" y2="124"/><ellipse cx="890.5" cy="137.6484" fill="#84BE84" rx="3" ry="3" style="stroke:#038048;stroke-width:1;"/><text fill="#000000" font-family="sans-serif" font-size="14" lengthAdjust="spacing" textLength="184.0576" x="899.5" y="140.9951">estaDisponible() : boolean</text><ellipse cx="890.5" cy="153.9453" fill="#84BE84" rx="3" ry="3" style="stroke:#038048;stroke-width:1;"/><text fill="#000000" font-family="sans-serif" font-size="14" lengthAdjust="spacing" textLength="267.627" x="899.5" y="157.292">atenderCliente(cliente: ICliente) : void</text><ellipse cx="890.5" cy="170.2422" fill="#84BE84" rx="3" ry="3" style="stroke:#038048;stroke-width:1;"/><text fill="#000000" font-family="sans-serif" font-size="14" lengthAdjust="spacing" textLength="130.3613" x="899.5" y="173.5889">liberarCaja() : void</text><ellipse cx="890.5" cy="186.5391" fill="#84BE84" rx="3" ry="3" style="stroke:#038048;stroke-width:1;"/><text fill="#000000" font-family="sans-serif" font-size="14" lengthAdjust="spacing" textLength="192.2949" x="899.5" y="189.8857">getClientesAtendidos() : int</text><ellipse cx="890.5" cy="202.8359" fill="#84BE84" rx="3" ry="3" style="stroke:#038048;stroke-width:1;"/><text fill="#000000" font-family="sans-serif" font-size="14" lengthAdjust="spacing" textLength="275.3242" x="899.5" y="206.1826">getTiempoPromedioAtencion() : double</text><ellipse cx="890.5" cy="219.1328" fill="#84BE84" rx="3" ry="3" style="stroke:#038048;stroke-width:1;"/><text fill="#000000" font-family="sans-serif" font-size="14" lengthAdjust="spacing" textLength="78.7979" x="899.5" y="222.4795">getId() : int</text><ellipse cx="890.5" cy="235.4297" fill="#84BE84" rx="3" ry="3" style="stroke:#038048;stroke-width:1;"/><text fill="#000000" font-family="sans-serif" font-size="14" lengthAdjust="spacing" textLength="212.2832" x="899.5" y="238.7764">getTiempoFinAtencion() : long</text></g><!--class Cliente--><g class="entity" data-entity="Cliente" data-source-line="13" data-uid="ent0005" id="entity_Cliente"><rect fill="#F1F1F1" height="162.0781" rx="2.5" ry="2.5" style="stroke:#181818;stroke-width:0.5;" width="340.7949" x="1215.5" y="84"/><ellipse cx="1357.0757" cy="100" fill="#ADD1B2" rx="11" ry="11" style="stroke:#181818;stroke-width:1;"/><path d="M1360.0444,105.6406 Q1359.4663,105.9375 1358.8257,106.0781 Q1358.1851,106.2344 1357.4819,106.2344 Q1354.9819,106.2344 1353.6538,104.5938 Q1352.3413,102.9375 1352.3413,99.8125 Q1352.3413,96.6875 1353.6538,95.0313 Q1354.9819,93.375 1357.4819,93.375 Q1358.1851,93.375 1358.8257,93.5313 Q1359.4819,93.6875 1360.0444,93.9844 L1360.0444,96.7031 Q1359.4194,96.125 1358.8257,95.8594 Q1358.2319,95.5781 1357.6069,95.5781 Q1356.2632,95.5781 1355.5757,96.6563 Q1354.8882,97.7188 1354.8882,99.8125 Q1354.8882,101.9063 1355.5757,102.9844 Q1356.2632,104.0469 1357.6069,104.0469 Q1358.2319,104.0469 1358.8257,103.7813 Q1359.4194,103.5 1360.0444,102.9219 L1360.0444,105.6406 Z " fill="#000000"/><text fill="#000000" font-family="sans-serif" font-size="14" lengthAdjust="spacing" textLength="49.1436" x="1377.5757" y="104.8467">Cliente</text><line style="stroke:#181818;stroke-width:0.5;" x1="1216.5" x2="1555.2949" y1="116" y2="116"/><line style="stroke:#181818;stroke-width:0.5;" x1="1216.5" x2="1555.2949" y1="124" y2="124"/><ellipse cx="1226.5" cy="137.6484" fill="#84BE84" rx="3" ry="3" style="stroke:#038048;stroke-width:1;"/><text fill="#000000" font-family="sans-serif" font-size="14" lengthAdjust="spacing" textLength="78.7979" x="1235.5" y="140.9951">getId() : int</text><ellipse cx="1226.5" cy="153.9453" fill="#84BE84" rx="3" ry="3" style="stroke:#038048;stroke-width:1;"/><text fill="#000000" font-family="sans-serif" font-size="14" lengthAdjust="spacing" textLength="185.124" x="1235.5" y="157.292">getTiempoLlegada() : long</text><ellipse cx="1226.5" cy="170.2422" fill="#84BE84" rx="3" ry="3" style="stroke:#038048;stroke-width:1;"/><text fill="#000000" font-family="sans-serif" font-size="14" lengthAdjust="spacing" textLength="177.8643" x="1235.5" y="173.5889">getTiempoEspera() : long</text><ellipse cx="1226.5" cy="186.5391" fill="#84BE84" rx="3" ry="3" style="stroke:#038048;stroke-width:1;"/><text fill="#000000" font-family="sans-serif" font-size="14" lengthAdjust="spacing" textLength="191.4678" x="1235.5" y="189.8857">getTiempoAtencion() : long</text><ellipse cx="1226.5" cy="202.8359" fill="#84BE84" rx="3" ry="3" style="stroke:#038048;stroke-width:1;"/><text fill="#000000" font-family="sans-serif" font-size="14" lengthAdjust="spacing" textLength="277.751" x="1235.5" y="206.1826">setTiempoAtencion(tiempo: long) : void</text><ellipse cx="1226.5" cy="219.1328" fill="#84BE84" rx="3" ry="3" style="stroke:#038048;stroke-width:1;"/><text fill="#000000" font-family="sans-serif" font-size="14" lengthAdjust="spacing" textLength="314.7949" x="1235.5" y="222.4795">setTiempoInicioAtencion(tiempo: long) : void</text><ellipse cx="1226.5" cy="235.4297" fill="#84BE84" rx="3" ry="3" style="stroke:#038048;stroke-width:1;"/><text fill="#000000" font-family="sans-serif" font-size="14" lengthAdjust="spacing" textLength="173.2705" x="1235.5" y="238.7764">estaAtendido() : boolean</text></g><!--class Cola--><g class="entity" data-entity="Cola" data-source-line="23" data-uid="ent0006" id="entity_Cola"><rect fill="#F1F1F1" height="129.4844" rx="2.5" ry="2.5" style="stroke:#181818;stroke-width:0.5;" width="293.873" x="1592" y="100.5"/><ellipse cx="1719.2817" cy="116.5" fill="#ADD1B2" rx="11" ry="11" style="stroke:#181818;stroke-width:1;"/><path d="M1722.2505,122.1406 Q1721.6724,122.4375 1721.0317,122.5781 Q1720.3911,122.7344 1719.688,122.7344 Q1717.188,122.7344 1715.8599,121.0938 Q1714.5474,119.4375 1714.5474,116.3125 Q1714.5474,113.1875 1715.8599,111.5313 Q1717.188,109.875 1719.688,109.875 Q1720.3911,109.875 1721.0317,110.0313 Q1721.688,110.1875 1722.2505,110.4844 L1722.2505,113.2031 Q1721.6255,112.625 1721.0317,112.3594 Q1720.438,112.0781 1719.813,112.0781 Q1718.4692,112.0781 1717.7817,113.1563 Q1717.0942,114.2188 1717.0942,116.3125 Q1717.0942,118.4063 1717.7817,119.4844 Q1718.4692,120.5469 1719.813,120.5469 Q1720.438,120.5469 1721.0317,120.2813 Q1721.6255,120 1722.2505,119.4219 L1722.2505,122.1406 Z " fill="#000000"/><text fill="#000000" font-family="sans-serif" font-size="14" lengthAdjust="spacing" textLength="30.8096" x="1739.7817" y="121.3467">Cola</text><line style="stroke:#181818;stroke-width:0.5;" x1="1593" x2="1884.873" y1="132.5" y2="132.5"/><line style="stroke:#181818;stroke-width:0.5;" x1="1593" x2="1884.873" y1="140.5" y2="140.5"/><ellipse cx="1603" cy="154.1484" fill="#84BE84" rx="3" ry="3" style="stroke:#038048;stroke-width:1;"/><text fill="#000000" font-family="sans-serif" font-size="14" lengthAdjust="spacing" textLength="267.873" x="1612" y="157.4951">agregarCliente(cliente: ICliente) : void</text><ellipse cx="1603" cy="170.4453" fill="#84BE84" rx="3" ry="3" style="stroke:#038048;stroke-width:1;"/><text fill="#000000" font-family="sans-serif" font-size="14" lengthAdjust="spacing" textLength="191.3789" x="1612" y="173.792">siguienteCliente() : ICliente</text><ellipse cx="1603" cy="186.7422" fill="#84BE84" rx="3" ry="3" style="stroke:#038048;stroke-width:1;"/><text fill="#000000" font-family="sans-serif" font-size="14" lengthAdjust="spacing" textLength="148.8115" x="1612" y="190.0889">estaVacia() : boolean</text><ellipse cx="1603" cy="203.0391" fill="#84BE84" rx="3" ry="3" style="stroke:#038048;stroke-width:1;"/><text fill="#000000" font-family="sans-serif" font-size="14" lengthAdjust="spacing" textLength="126.458" x="1612" y="206.3857">getTamanio() : int</text><ellipse cx="1603" cy="219.3359" fill="#84BE84" rx="3" ry="3" style="stroke:#038048;stroke-width:1;"/><text fill="#000000" font-family="sans-serif" font-size="14" lengthAdjust="spacing" textLength="205.1738" x="1612" y="222.6826">getClientes() : List&lt;ICliente&gt;</text></g><!--class Estadisticas--><g class="entity" data-entity="Estadisticas" data-source-line="31" data-uid="ent0007" id="entity_Estadisticas"><rect fill="#F1F1F1" height="145.7813" rx="2.5" ry="2.5" style="stroke:#181818;stroke-width:0.5;" width="443.3818" x="401.5" y="92"/><ellipse cx="577.3271" cy="108" fill="#ADD1B2" rx="11" ry="11" style="stroke:#181818;stroke-width:1;"/><path d="M580.2959,113.6406 Q579.7178,113.9375 579.0771,114.0781 Q578.4365,114.2344 577.7334,114.2344 Q575.2334,114.2344 573.9053,112.5938 Q572.5928,110.9375 572.5928,107.8125 Q572.5928,104.6875 573.9053,103.0313 Q575.2334,101.375 577.7334,101.375 Q578.4365,101.375 579.0771,101.5313 Q579.7334,101.6875 580.2959,101.9844 L580.2959,104.7031 Q579.6709,104.125 579.0771,103.8594 Q578.4834,103.5781 577.8584,103.5781 Q576.5146,103.5781 575.8271,104.6563 Q575.1396,105.7188 575.1396,107.8125 Q575.1396,109.9063 575.8271,110.9844 Q576.5146,112.0469 577.8584,112.0469 Q578.4834,112.0469 579.0771,111.7813 Q579.6709,111.5 580.2959,110.9219 L580.2959,113.6406 Z " fill="#000000"/><text fill="#000000" font-family="sans-serif" font-size="14" lengthAdjust="spacing" textLength="83.2275" x="597.8271" y="112.8467">Estadisticas</text><line style="stroke:#181818;stroke-width:0.5;" x1="402.5" x2="843.8818" y1="124" y2="124"/><line style="stroke:#181818;stroke-width:0.5;" x1="402.5" x2="843.8818" y1="132" y2="132"/><ellipse cx="412.5" cy="145.6484" fill="#84BE84" rx="3" ry="3" style="stroke:#038048;stroke-width:1;"/><text fill="#000000" font-family="sans-serif" font-size="14" lengthAdjust="spacing" textLength="328.0703" x="421.5" y="148.9951">registrarLlegadaCliente(cliente: ICliente) : void</text><ellipse cx="412.5" cy="161.9453" fill="#84BE84" rx="3" ry="3" style="stroke:#038048;stroke-width:1;"/><text fill="#000000" font-family="sans-serif" font-size="14" lengthAdjust="spacing" textLength="417.3818" x="421.5" y="165.292">registrarClienteAtendido(cliente: ICliente, caja: ICaja) : void</text><ellipse cx="412.5" cy="178.2422" fill="#84BE84" rx="3" ry="3" style="stroke:#038048;stroke-width:1;"/><text fill="#000000" font-family="sans-serif" font-size="14" lengthAdjust="spacing" textLength="261.7207" x="421.5" y="181.5889">getTiempoPromedioEspera() : double</text><ellipse cx="412.5" cy="194.5391" fill="#84BE84" rx="3" ry="3" style="stroke:#038048;stroke-width:1;"/><text fill="#000000" font-family="sans-serif" font-size="14" lengthAdjust="spacing" textLength="275.3242" x="421.5" y="197.8857">getTiempoPromedioAtencion() : double</text><ellipse cx="412.5" cy="210.8359" fill="#84BE84" rx="3" ry="3" style="stroke:#038048;stroke-width:1;"/><text fill="#000000" font-family="sans-serif" font-size="14" lengthAdjust="spacing" textLength="192.2949" x="421.5" y="214.1826">getClientesAtendidos() : int</text><ellipse cx="412.5" cy="227.1328" fill="#84BE84" rx="3" ry="3" style="stroke:#038048;stroke-width:1;"/><text fill="#000000" font-family="sans-serif" font-size="14" lengthAdjust="spacing" textLength="170.748" x="421.5" y="230.4795">getClientesEnCola() : int</text></g><!--class GestorCajas--><g class="entity" data-entity="GestorCajas" data-source-line="40" data-uid="ent0008" id="entity_GestorCajas"><rect fill="#F1F1F1" height="129.4844" rx="2.5" ry="2.5" style="stroke:#181818;stroke-width:0.5;" width="319.5352" x="46" y="100.5"/><ellipse cx="159.1758" cy="116.5" fill="#ADD1B2" rx="11" ry="11" style="stroke:#181818;stroke-width:1;"/><path d="M162.1445,122.1406 Q161.5664,122.4375 160.9258,122.5781 Q160.2852,122.7344 159.582,122.7344 Q157.082,122.7344 155.7539,121.0938 Q154.4414,119.4375 154.4414,116.3125 Q154.4414,113.1875 155.7539,111.5313 Q157.082,109.875 159.582,109.875 Q160.2852,109.875 160.9258,110.0313 Q161.582,110.1875 162.1445,110.4844 L162.1445,113.2031 Q161.5195,112.625 160.9258,112.3594 Q160.332,112.0781 159.707,112.0781 Q158.3633,112.0781 157.6758,113.1563 Q156.9883,114.2188 156.9883,116.3125 Q156.9883,118.4063 157.6758,119.4844 Q158.3633,120.5469 159.707,120.5469 Q160.332,120.5469 160.9258,120.2813 Q161.5195,120 162.1445,119.4219 L162.1445,122.1406 Z " fill="#000000"/><text fill="#000000" font-family="sans-serif" font-size="14" lengthAdjust="spacing" textLength="84.6836" x="179.6758" y="121.3467">GestorCajas</text><line style="stroke:#181818;stroke-width:0.5;" x1="47" x2="364.5352" y1="132.5" y2="132.5"/><line style="stroke:#181818;stroke-width:0.5;" x1="47" x2="364.5352" y1="140.5" y2="140.5"/><ellipse cx="57" cy="154.1484" fill="#84BE84" rx="3" ry="3" style="stroke:#038048;stroke-width:1;"/><text fill="#000000" font-family="sans-serif" font-size="14" lengthAdjust="spacing" textLength="278.4209" x="66" y="157.4951">inicializarCajas(numeroCajas: int) : void</text><ellipse cx="57" cy="170.4453" fill="#84BE84" rx="3" ry="3" style="stroke:#038048;stroke-width:1;"/><text fill="#000000" font-family="sans-serif" font-size="14" lengthAdjust="spacing" textLength="218.6816" x="66" y="173.792">obtenerCajaDisponible() : ICaja</text><ellipse cx="57" cy="186.7422" fill="#84BE84" rx="3" ry="3" style="stroke:#038048;stroke-width:1;"/><text fill="#000000" font-family="sans-serif" font-size="14" lengthAdjust="spacing" textLength="265.8906" x="66" y="190.0889">obtenerTodasLasCajas() : List&lt;ICaja&gt;</text><ellipse cx="57" cy="203.0391" fill="#84BE84" rx="3" ry="3" style="stroke:#038048;stroke-width:1;"/><text fill="#000000" font-family="sans-serif" font-size="14" lengthAdjust="spacing" textLength="225.2305" x="66" y="206.3857">hayCajasDisponibles() : boolean</text><ellipse cx="57" cy="219.3359" fill="#84BE84" rx="3" ry="3" style="stroke:#038048;stroke-width:1;"/><text fill="#000000" font-family="sans-serif" font-size="14" lengthAdjust="spacing" textLength="293.5352" x="66" y="222.6826">actualizarCajas(tiempoActual: long) : void</text></g><!--class ICaja--><g class="entity" data-entity="ICaja" data-source-line="50" data-uid="ent0010" id="entity_ICaja"><rect fill="#F1F1F1" height="48" rx="2.5" ry="2.5" style="stroke:#181818;stroke-width:0.5;" width="66.9521" x="660.5" y="388"/><ellipse cx="675.5" cy="404" fill="#B4A7E5" rx="11" ry="11" style="stroke:#181818;stroke-width:1;"/><path d="M671.4219,399.7656 L671.4219,397.6094 L678.8125,397.6094 L678.8125,399.7656 L676.3438,399.7656 L676.3438,407.8438 L678.8125,407.8438 L678.8125,410 L671.4219,410 L671.4219,407.8438 L673.8906,407.8438 L673.8906,399.7656 L671.4219,399.7656 Z " fill="#000000"/><text fill="#000000" font-family="sans-serif" font-size="14" font-style="italic" lengthAdjust="spacing" textLength="34.9521" x="689.5" y="408.8467">ICaja</text><line style="stroke:#181818;stroke-width:0.5;" x1="661.5" x2="726.4521" y1="420" y2="420"/><line style="stroke:#181818;stroke-width:0.5;" x1="661.5" x2="726.4521" y1="428" y2="428"/></g><!--class ICliente--><g class="entity" data-entity="ICliente" data-source-line="51" data-uid="ent0012" id="entity_ICliente"><rect fill="#F1F1F1" height="48" rx="2.5" ry="2.5" style="stroke:#181818;stroke-width:0.5;" width="85.2725" x="916.5" y="388"/><ellipse cx="931.5" cy="404" fill="#B4A7E5" rx="11" ry="11" style="stroke:#181818;stroke-width:1;"/><path d="M927.4219,399.7656 L927.4219,397.6094 L934.8125,397.6094 L934.8125,399.7656 L932.3438,399.7656 L932.3438,407.8438 L934.8125,407.8438 L934.8125,410 L927.4219,410 L927.4219,407.8438 L929.8906,407.8438 L929.8906,399.7656 L927.4219,399.7656 Z " fill="#000000"/><text fill="#000000" font-family="sans-serif" font-size="14" font-style="italic" lengthAdjust="spacing" textLength="53.2725" x="945.5" y="408.8467">ICliente</text><line style="stroke:#181818;stroke-width:0.5;" x1="917.5" x2="1000.7725" y1="420" y2="420"/><line style="stroke:#181818;stroke-width:0.5;" x1="917.5" x2="1000.7725" y1="428" y2="428"/></g><!--class ICola--><g class="entity" data-entity="ICola" data-source-line="52" data-uid="ent0013" id="entity_ICola"><rect fill="#F1F1F1" height="48" rx="2.5" ry="2.5" style="stroke:#181818;stroke-width:0.5;" width="66.9385" x="1036.5" y="388"/><ellipse cx="1051.5" cy="404" fill="#B4A7E5" rx="11" ry="11" style="stroke:#181818;stroke-width:1;"/><path d="M1047.4219,399.7656 L1047.4219,397.6094 L1054.8125,397.6094 L1054.8125,399.7656 L1052.3438,399.7656 L1052.3438,407.8438 L1054.8125,407.8438 L1054.8125,410 L1047.4219,410 L1047.4219,407.8438 L1049.8906,407.8438 L1049.8906,399.7656 L1047.4219,399.7656 Z " fill="#000000"/><text fill="#000000" font-family="sans-serif" font-size="14" font-style="italic" lengthAdjust="spacing" textLength="34.9385" x="1065.5" y="408.8467">ICola</text><line style="stroke:#181818;stroke-width:0.5;" x1="1037.5" x2="1102.4385" y1="420" y2="420"/><line style="stroke:#181818;stroke-width:0.5;" x1="1037.5" x2="1102.4385" y1="428" y2="428"/></g><!--class IEstadisticas--><g class="entity" data-entity="IEstadisticas" data-source-line="53" data-uid="ent0014" id="entity_IEstadisticas"><rect fill="#F1F1F1" height="48" rx="2.5" ry="2.5" style="stroke:#181818;stroke-width:0.5;" width="119.3564" x="762.5" y="388"/><ellipse cx="777.5" cy="404" fill="#B4A7E5" rx="11" ry="11" style="stroke:#181818;stroke-width:1;"/><path d="M773.4219,399.7656 L773.4219,397.6094 L780.8125,397.6094 L780.8125,399.7656 L778.3438,399.7656 L778.3438,407.8438 L780.8125,407.8438 L780.8125,410 L773.4219,410 L773.4219,407.8438 L775.8906,407.8438 L775.8906,399.7656 L773.4219,399.7656 Z " fill="#000000"/><text fill="#000000" font-family="sans-serif" font-size="14" font-style="italic" lengthAdjust="spacing" textLength="87.3564" x="791.5" y="408.8467">IEstadisticas</text><line style="stroke:#181818;stroke-width:0.5;" x1="763.5" x2="880.8564" y1="420" y2="420"/><line style="stroke:#181818;stroke-width:0.5;" x1="763.5" x2="880.8564" y1="428" y2="428"/></g><!--class IGestorCajas--><g class="entity" data-entity="IGestorCajas" data-source-line="54" data-uid="ent0015" id="entity_IGestorCajas"><rect fill="#F1F1F1" height="48" rx="2.5" ry="2.5" style="stroke:#181818;stroke-width:0.5;" width="120.8125" x="504.5" y="388"/><ellipse cx="519.5" cy="404" fill="#B4A7E5" rx="11" ry="11" style="stroke:#181818;stroke-width:1;"/><path d="M515.4219,399.7656 L515.4219,397.6094 L522.8125,397.6094 L522.8125,399.7656 L520.3438,399.7656 L520.3438,407.8438 L522.8125,407.8438 L522.8125,410 L515.4219,410 L515.4219,407.8438 L517.8906,407.8438 L517.8906,399.7656 L515.4219,399.7656 Z " fill="#000000"/><text fill="#000000" font-family="sans-serif" font-size="14" font-style="italic" lengthAdjust="spacing" textLength="88.8125" x="533.5" y="408.8467">IGestorCajas</text><line style="stroke:#181818;stroke-width:0.5;" x1="505.5" x2="624.3125" y1="420" y2="420"/><line style="stroke:#181818;stroke-width:0.5;" x1="505.5" x2="624.3125" y1="428" y2="428"/></g><!--link Caja to ICaja--><g class="link" data-entity-1="Caja" data-entity-2="ICaja" data-source-line="57" data-uid="lnk16" id="link_Caja_ICaja"><path codeLine="57" d="M944.75,246.02 C919.83,265.02 891.34,282.97 862,294 C837.61,303.17 766.5,287.27 745,302 C716.22,321.72 707.0548,344.5003 701.5448,370.1903" fill="none" id="Caja-to-ICaja" style="stroke:#181818;stroke-width:1;stroke-dasharray:7.0,7.0;"/><polygon fill="none" points="697.77,387.79,707.4114,371.4485,695.6782,368.932,697.77,387.79" style="stroke:#181818;stroke-width:1;"/></g><!--link Cliente to ICliente--><g class="link" data-entity-1="Cliente" data-entity-2="ICliente" data-source-line="58" data-uid="lnk17" id="link_Cliente_ICliente"><path codeLine="58" d="M1290.02,246.19 C1262.01,265.32 1230.22,283.28 1198,294 C1179.11,300.29 1035.91,291.49 1019,302 C988.36,321.04 977.2018,344.3505 969.6418,370.2605" fill="none" id="Cliente-to-ICliente" style="stroke:#181818;stroke-width:1;stroke-dasharray:7.0,7.0;"/><polygon fill="none" points="964.6,387.54,975.4016,371.9411,963.882,368.5799,964.6,387.54" style="stroke:#181818;stroke-width:1;"/></g><!--link Cola to ICola--><g class="link" data-entity-1="Cola" data-entity-2="ICola" data-source-line="59" data-uid="lnk18" id="link_Cola_ICola"><path codeLine="59" d="M1670.79,229.67 C1642.64,252.95 1608.54,277.57 1574,294 C1408.72,372.61 1205.1882,398.4856 1121.6782,406.4756" fill="none" id="Cola-to-ICola" style="stroke:#181818;stroke-width:1;stroke-dasharray:7.0,7.0;"/><polygon fill="none" points="1103.76,408.19,1122.2496,412.4484,1121.1067,400.5029,1103.76,408.19" style="stroke:#181818;stroke-width:1;"/></g><!--link Estadisticas to IEstadisticas--><g class="link" data-entity-1="Estadisticas" data-entity-2="IEstadisticas" data-source-line="60" data-uid="lnk19" id="link_Estadisticas_IEstadisticas"><path codeLine="60" d="M690.45,238.05 C708.65,258.32 727.99,280.67 745,302 C767.82,330.62 781.7939,350.4675 796.8139,372.9275" fill="none" id="Estadisticas-to-IEstadisticas" style="stroke:#181818;stroke-width:1;stroke-dasharray:7.0,7.0;"/><polygon fill="none" points="806.82,387.89,801.8014,369.5921,791.8264,376.2628,806.82,387.89" style="stroke:#181818;stroke-width:1;"/></g><!--link GestorCajas to IGestorCajas--><g class="link" data-entity-1="GestorCajas" data-entity-2="IGestorCajas" data-source-line="61" data-uid="lnk20" id="link_GestorCajas_IGestorCajas"><path codeLine="61" d="M292.76,229.7 C321.58,250.5 353.97,273.52 384,294 C433.3,327.63 476.2066,355.1654 513.0266,378.3954" fill="none" id="GestorCajas-to-IGestorCajas" style="stroke:#181818;stroke-width:1;stroke-dasharray:7.0,7.0;"/><polygon fill="none" points="528.25,388,516.2281,373.321,509.8251,383.4699,528.25,388" style="stroke:#181818;stroke-width:1;"/></g><!--link Caja to ICliente--><g class="link" data-entity-1="Caja" data-entity-2="ICliente" data-source-line="63" data-uid="lnk21" id="link_Caja_ICliente"><path codeLine="63" d="M1006.75,246.22 C992.39,295.76 976.6591,350.0568 967.3391,382.2368" fill="none" id="Caja-to-ICliente" style="stroke:#181818;stroke-width:1;"/><polygon fill="#181818" points="965.67,388,972.0158,380.468,967.0609,383.1974,964.3316,378.2425,965.67,388" style="stroke:#181818;stroke-width:1;"/></g><!--link Estadisticas to ICliente--><g class="link" data-entity-1="Estadisticas" data-entity-2="ICliente" data-source-line="64" data-uid="lnk22" id="link_Estadisticas_ICliente"><path codeLine="64" d="M741.85,238.06 C779.29,258.44 821.47,279.1 862,294 C877.79,299.81 885.51,291.95 899,302 C927.76,323.42 942.5915,357.1851 950.7715,382.2951" fill="none" id="Estadisticas-to-ICliente" style="stroke:#181818;stroke-width:1;"/><polygon fill="#181818" points="952.63,388,953.6456,378.2036,951.0813,383.2459,946.039,380.6816,952.63,388" style="stroke:#181818;stroke-width:1;"/></g><!--link Estadisticas to ICaja--><g class="link" data-entity-1="Estadisticas" data-entity-2="ICaja" data-source-line="65" data-uid="lnk23" id="link_Estadisticas_ICaja"><path codeLine="65" d="M643.92,238.18 C658.64,289 675.7504,348.027 685.6004,382.027" fill="none" id="Estadisticas-to-ICaja" style="stroke:#181818;stroke-width:1;"/><polygon fill="#181818" points="687.27,387.79,688.6076,378.0324,685.8787,382.9875,680.9236,380.2585,687.27,387.79" style="stroke:#181818;stroke-width:1;"/></g><!--link Cola to ICliente--><g class="link" data-entity-1="Cola" data-entity-2="ICliente" data-source-line="66" data-uid="lnk24" id="link_Cola_ICliente"><path codeLine="66" d="M1677.1,229.53 C1648.37,254.62 1612.15,280.63 1574,294 C1544.9,304.2 1045.43,286.12 1019,302 C987.89,320.69 973.4095,356.0184 966.0095,382.0684" fill="none" id="Cola-to-ICliente" style="stroke:#181818;stroke-width:1;"/><polygon fill="#181818" points="964.37,387.84,970.6771,380.2756,965.7363,383.0303,962.9816,378.0895,964.37,387.84" style="stroke:#181818;stroke-width:1;"/></g><!--link GestorCajas to ICaja--><g class="link" data-entity-1="GestorCajas" data-entity-2="ICaja" data-source-line="67" data-uid="lnk25" id="link_GestorCajas_ICaja"><path codeLine="67" d="M274.12,229.61 C305.21,254.56 343.99,280.42 384,294 C411.26,303.25 618.95,286.17 643,302 C672.15,321.18 683.7462,355.8461 689.1362,381.7161" fill="none" id="GestorCajas-to-ICaja" style="stroke:#181818;stroke-width:1;"/><polygon fill="#181818" points="690.36,387.59,692.4402,377.9633,689.3402,382.6951,684.6084,379.5951,690.36,387.59" style="stroke:#181818;stroke-width:1;"/></g><!--SRC=[bLHBRzim3BxdL_YOOMj-G544ABfi29333iNkZCHvt6JHi9m2U_I_Zw9bHugzjl4XZicFhu-F5inFgB6YfdNOeE_14FjDmnOTLtzMbJpwOno4K3t03qZI-Bp7qCD72YrxEZfSlwjkgoEpG_1d3FJeBNOFZiGzhitmlgtsIHADdfZisSBH4JleOh3rN5jZdop3VNHDbeF2oFS5wf6mQVbBnmrQueYDjIdKyadoBT1x-uAJJ-GBUyU-LjZpAcTdI2idw3N71uSrM2YTbf1TQ8MDbn3BgIacp32zVWwuERaJVk_9q5kjuXYClPWDGKaHksA0eEw4W6k68r1zKjLe4o4Zl4pfgmmpB0zbv0uQyCIBpHa7J9K72ltT664xhsadeQnWo438QvFAH2g3d9fyHP6JQK9CvCviFrH6rYH-osjnMSeroAPfOGckMvcthU68sldO_09IqFXPMiQwz0MB50SH7FqU3a9O-rE37Uj_zJGlce-I42hyuZWfIpFW8ri81mY3_wpbyhqzex_3BqMSVOR_N3pJd_ACX-MvL-d22ZslX8TsFCH2LVSD38Ro24_oh8PSbir_BXR6BsNvk5xgiXx4fFJSRpP_jodeUE2IACNKdKwY6A_OXq5UnCmRFQZpi4FGcviiGE7mDOtc6JCgW7dC2VSF]--></g></svg>