<svg xmlns="http://www.w3.org/2000/svg" xmlns:xlink="http://www.w3.org/1999/xlink" contentStyleType="text/css" data-diagram-type="CLASS" height="437px" preserveAspectRatio="none" style="width:349px;height:437px;background:#FFFFFF;" version="1.1" viewBox="0 0 349 437" width="349px" zoomAndPan="magnify"><defs/><g><!--class Jornada--><g class="entity" data-entity="Jornada" data-source-line="1" data-uid="ent0002" id="entity_Jornada"><rect fill="#F1F1F1" height="48" rx="2.5" ry="2.5" style="stroke:#181818;stroke-width:0.5;" width="85.3682" x="16.32" y="7"/><ellipse cx="31.32" cy="23" fill="#ADD1B2" rx="11" ry="11" style="stroke:#181818;stroke-width:1;"/><path d="M34.2888,28.6406 Q33.7106,28.9375 33.07,29.0781 Q32.4294,29.2344 31.7263,29.2344 Q29.2263,29.2344 27.8981,27.5938 Q26.5856,25.9375 26.5856,22.8125 Q26.5856,19.6875 27.8981,18.0313 Q29.2263,16.375 31.7263,16.375 Q32.4294,16.375 33.07,16.5313 Q33.7263,16.6875 34.2888,16.9844 L34.2888,19.7031 Q33.6638,19.125 33.07,18.8594 Q32.4763,18.5781 31.8513,18.5781 Q30.5075,18.5781 29.82,19.6563 Q29.1325,20.7188 29.1325,22.8125 Q29.1325,24.9063 29.82,25.9844 Q30.5075,27.0469 31.8513,27.0469 Q32.4763,27.0469 33.07,26.7813 Q33.6638,26.5 34.2888,25.9219 L34.2888,28.6406 Z " fill="#000000"/><text fill="#000000" font-family="sans-serif" font-size="14" lengthAdjust="spacing" textLength="53.3682" x="45.32" y="27.8467">Jornada</text><line style="stroke:#181818;stroke-width:0.5;" x1="17.32" x2="100.6882" y1="39" y2="39"/><line style="stroke:#181818;stroke-width:0.5;" x1="17.32" x2="100.6882" y1="47" y2="47"/></g><!--class Caja--><g class="entity" data-entity="Caja" data-source-line="3" data-uid="ent0003" id="entity_Caja"><rect fill="#F1F1F1" height="48" rx="2.5" ry="2.5" style="stroke:#181818;stroke-width:0.5;" width="62.8232" x="27.32" y="132"/><ellipse cx="42.32" cy="148" fill="#ADD1B2" rx="11" ry="11" style="stroke:#181818;stroke-width:1;"/><path d="M45.2888,153.6406 Q44.7106,153.9375 44.07,154.0781 Q43.4294,154.2344 42.7263,154.2344 Q40.2263,154.2344 38.8981,152.5938 Q37.5856,150.9375 37.5856,147.8125 Q37.5856,144.6875 38.8981,143.0313 Q40.2263,141.375 42.7263,141.375 Q43.4294,141.375 44.07,141.5313 Q44.7263,141.6875 45.2888,141.9844 L45.2888,144.7031 Q44.6638,144.125 44.07,143.8594 Q43.4763,143.5781 42.8513,143.5781 Q41.5075,143.5781 40.82,144.6563 Q40.1325,145.7188 40.1325,147.8125 Q40.1325,149.9063 40.82,150.9844 Q41.5075,152.0469 42.8513,152.0469 Q43.4763,152.0469 44.07,151.7813 Q44.6638,151.5 45.2888,150.9219 L45.2888,153.6406 Z " fill="#000000"/><text fill="#000000" font-family="sans-serif" font-size="14" lengthAdjust="spacing" textLength="30.8232" x="56.32" y="152.8467">Caja</text><line style="stroke:#181818;stroke-width:0.5;" x1="28.32" x2="89.1432" y1="164" y2="164"/><line style="stroke:#181818;stroke-width:0.5;" x1="28.32" x2="89.1432" y1="172" y2="172"/></g><!--class Cola--><g class="entity" data-entity="Cola" data-source-line="5" data-uid="ent0004" id="entity_Cola"><rect fill="#F1F1F1" height="48" rx="2.5" ry="2.5" style="stroke:#181818;stroke-width:0.5;" width="62.8096" x="30.32" y="382"/><ellipse cx="45.32" cy="398" fill="#ADD1B2" rx="11" ry="11" style="stroke:#181818;stroke-width:1;"/><path d="M48.2888,403.6406 Q47.7106,403.9375 47.07,404.0781 Q46.4294,404.2344 45.7263,404.2344 Q43.2263,404.2344 41.8981,402.5938 Q40.5856,400.9375 40.5856,397.8125 Q40.5856,394.6875 41.8981,393.0313 Q43.2263,391.375 45.7263,391.375 Q46.4294,391.375 47.07,391.5313 Q47.7263,391.6875 48.2888,391.9844 L48.2888,394.7031 Q47.6638,394.125 47.07,393.8594 Q46.4763,393.5781 45.8513,393.5781 Q44.5075,393.5781 43.82,394.6563 Q43.1325,395.7188 43.1325,397.8125 Q43.1325,399.9063 43.82,400.9844 Q44.5075,402.0469 45.8513,402.0469 Q46.4763,402.0469 47.07,401.7813 Q47.6638,401.5 48.2888,400.9219 L48.2888,403.6406 Z " fill="#000000"/><text fill="#000000" font-family="sans-serif" font-size="14" lengthAdjust="spacing" textLength="30.8096" x="59.32" y="402.8467">Cola</text><line style="stroke:#181818;stroke-width:0.5;" x1="31.32" x2="92.1296" y1="414" y2="414"/><line style="stroke:#181818;stroke-width:0.5;" x1="31.32" x2="92.1296" y1="422" y2="422"/></g><!--class Cliente--><g class="entity" data-entity="Cliente" data-source-line="7" data-uid="ent0005" id="entity_Cliente"><rect fill="#F1F1F1" height="48" rx="2.5" ry="2.5" style="stroke:#181818;stroke-width:0.5;" width="81.1436" x="202.32" y="257"/><ellipse cx="217.32" cy="273" fill="#ADD1B2" rx="11" ry="11" style="stroke:#181818;stroke-width:1;"/><path d="M220.2888,278.6406 Q219.7106,278.9375 219.07,279.0781 Q218.4294,279.2344 217.7263,279.2344 Q215.2263,279.2344 213.8981,277.5938 Q212.5856,275.9375 212.5856,272.8125 Q212.5856,269.6875 213.8981,268.0313 Q215.2263,266.375 217.7263,266.375 Q218.4294,266.375 219.07,266.5313 Q219.7263,266.6875 220.2888,266.9844 L220.2888,269.7031 Q219.6638,269.125 219.07,268.8594 Q218.4763,268.5781 217.8513,268.5781 Q216.5075,268.5781 215.82,269.6563 Q215.1325,270.7188 215.1325,272.8125 Q215.1325,274.9063 215.82,275.9844 Q216.5075,277.0469 217.8513,277.0469 Q218.4763,277.0469 219.07,276.7813 Q219.6638,276.5 220.2888,275.9219 L220.2888,278.6406 Z " fill="#000000"/><text fill="#000000" font-family="sans-serif" font-size="14" lengthAdjust="spacing" textLength="49.1436" x="231.32" y="277.8467">Cliente</text><line style="stroke:#181818;stroke-width:0.5;" x1="203.32" x2="282.4636" y1="289" y2="289"/><line style="stroke:#181818;stroke-width:0.5;" x1="203.32" x2="282.4636" y1="297" y2="297"/></g><!--class Productos--><g class="entity" data-entity="Productos" data-source-line="9" data-uid="ent0006" id="entity_Productos"><rect fill="#F1F1F1" height="48" rx="2.5" ry="2.5" style="stroke:#181818;stroke-width:0.5;" width="101.5693" x="191.82" y="382"/><ellipse cx="206.82" cy="398" fill="#ADD1B2" rx="11" ry="11" style="stroke:#181818;stroke-width:1;"/><path d="M209.7888,403.6406 Q209.2106,403.9375 208.57,404.0781 Q207.9294,404.2344 207.2263,404.2344 Q204.7263,404.2344 203.3981,402.5938 Q202.0856,400.9375 202.0856,397.8125 Q202.0856,394.6875 203.3981,393.0313 Q204.7263,391.375 207.2263,391.375 Q207.9294,391.375 208.57,391.5313 Q209.2263,391.6875 209.7888,391.9844 L209.7888,394.7031 Q209.1638,394.125 208.57,393.8594 Q207.9763,393.5781 207.3513,393.5781 Q206.0075,393.5781 205.32,394.6563 Q204.6325,395.7188 204.6325,397.8125 Q204.6325,399.9063 205.32,400.9844 Q206.0075,402.0469 207.3513,402.0469 Q207.9763,402.0469 208.57,401.7813 Q209.1638,401.5 209.7888,400.9219 L209.7888,403.6406 Z " fill="#000000"/><text fill="#000000" font-family="sans-serif" font-size="14" lengthAdjust="spacing" textLength="69.5693" x="220.82" y="402.8467">Productos</text><line style="stroke:#181818;stroke-width:0.5;" x1="192.82" x2="292.3893" y1="414" y2="414"/><line style="stroke:#181818;stroke-width:0.5;" x1="192.82" x2="292.3893" y1="422" y2="422"/></g><!--class Estadisticas--><g class="entity" data-entity="Estadisticas" data-source-line="11" data-uid="ent0007" id="entity_Estadisticas"><rect fill="#F1F1F1" height="48" rx="2.5" ry="2.5" style="stroke:#181818;stroke-width:0.5;" width="115.2275" x="185.32" y="132"/><ellipse cx="200.32" cy="148" fill="#ADD1B2" rx="11" ry="11" style="stroke:#181818;stroke-width:1;"/><path d="M203.2888,153.6406 Q202.7106,153.9375 202.07,154.0781 Q201.4294,154.2344 200.7263,154.2344 Q198.2263,154.2344 196.8981,152.5938 Q195.5856,150.9375 195.5856,147.8125 Q195.5856,144.6875 196.8981,143.0313 Q198.2263,141.375 200.7263,141.375 Q201.4294,141.375 202.07,141.5313 Q202.7263,141.6875 203.2888,141.9844 L203.2888,144.7031 Q202.6638,144.125 202.07,143.8594 Q201.4763,143.5781 200.8513,143.5781 Q199.5075,143.5781 198.82,144.6563 Q198.1325,145.7188 198.1325,147.8125 Q198.1325,149.9063 198.82,150.9844 Q199.5075,152.0469 200.8513,152.0469 Q201.4763,152.0469 202.07,151.7813 Q202.6638,151.5 203.2888,150.9219 L203.2888,153.6406 Z " fill="#000000"/><text fill="#000000" font-family="sans-serif" font-size="14" lengthAdjust="spacing" textLength="83.2275" x="214.32" y="152.8467">Estadisticas</text><line style="stroke:#181818;stroke-width:0.5;" x1="186.32" x2="299.5475" y1="164" y2="164"/><line style="stroke:#181818;stroke-width:0.5;" x1="186.32" x2="299.5475" y1="172" y2="172"/></g><!--link Jornada to Caja--><g class="link" data-entity-1="Jornada" data-entity-2="Caja" data-source-line="14" data-uid="lnk8" id="link_Jornada_Caja"><path codeLine="14" d="M58.82,55.14 C58.82,77.13 58.82,104.01 58.82,125.97" fill="none" id="Jornada-to-Caja" style="stroke:#181818;stroke-width:1;"/><polygon fill="#181818" points="58.82,131.97,62.82,122.97,58.82,126.97,54.82,122.97,58.82,131.97" style="stroke:#181818;stroke-width:1;"/><text fill="#000000" font-family="sans-serif" font-size="13" lengthAdjust="spacing" textLength="67.7422" x="59.82" y="98.0669">Usa varias</text></g><!--link Caja to Cliente--><g class="link" data-entity-1="Caja" data-entity-2="Cliente" data-source-line="15" data-uid="lnk9" id="link_Caja_Cliente"><path codeLine="15" d="M90.45,178.14 C123.23,200.06 169.322,230.8653 203.172,253.4953" fill="none" id="Caja-to-Cliente" style="stroke:#181818;stroke-width:1;"/><polygon fill="#181818" points="208.16,256.83,202.9011,248.5027,204.0033,254.0511,198.4549,255.1533,208.16,256.83" style="stroke:#181818;stroke-width:1;"/><text fill="#000000" font-family="sans-serif" font-size="13" lengthAdjust="spacing" textLength="50.0894" x="163.82" y="223.0669">Atiende</text></g><!--reverse link Cliente to Productos--><g class="link" data-entity-1="Cliente" data-entity-2="Productos" data-source-line="16" data-uid="lnk10" id="link_Cliente_Productos"><path codeLine="16" d="M242.82,317.14 C242.82,339.13 242.82,360.01 242.82,381.97" fill="none" id="Cliente-backto-Productos" style="stroke:#181818;stroke-width:1;"/><polygon fill="#181818" points="242.82,305.14,238.82,311.14,242.82,317.14,246.82,311.14,242.82,305.14" style="stroke:#181818;stroke-width:1;"/><text fill="#000000" font-family="sans-serif" font-size="13" lengthAdjust="spacing" textLength="35.7881" x="243.82" y="348.0669">Tiene</text></g><!--link Cliente to Cola--><g class="link" data-entity-1="Cliente" data-entity-2="Cola" data-source-line="17" data-uid="lnk11" id="link_Cliente_Cola"><path codeLine="17" d="M208.78,305.14 C175.7,327.61 135.7946,354.7245 103.5146,376.6645" fill="none" id="Cliente-to-Cola" style="stroke:#181818;stroke-width:1;"/><polygon fill="none" points="93.59,383.41,100.8008,383.3454,103.5146,376.6645,96.3038,376.729,93.59,383.41" style="stroke:#181818;stroke-width:1;"/><text fill="#000000" font-family="sans-serif" font-size="13" lengthAdjust="spacing" textLength="41.4058" x="164.82" y="348.0669">Forma</text></g><!--link Caja to Cola--><g class="link" data-entity-1="Caja" data-entity-2="Cola" data-source-line="18" data-uid="lnk12" id="link_Caja_Cola"><path codeLine="18" d="M44.65,180.08 C28.64,208.99 6,260.17 15.82,305 C21.91,332.81 33.5318,356.9099 44.6618,376.5499" fill="none" id="Caja-to-Cola" style="stroke:#181818;stroke-width:1;stroke-dasharray:7.0,7.0;"/><polygon fill="#181818" points="47.62,381.77,46.6627,371.9678,45.1548,377.42,39.7026,375.9121,47.62,381.77" style="stroke:#181818;stroke-width:1;"/><text fill="#000000" font-family="sans-serif" font-size="13" lengthAdjust="spacing" textLength="167.2734" x="16.82" y="285.5669">Gestiona dependiendo de</text></g><!--link Estadisticas to Cliente--><g class="link" data-entity-1="Estadisticas" data-entity-2="Cliente" data-source-line="19" data-uid="lnk13" id="link_Estadisticas_Cliente"><path codeLine="19" d="M242.82,180.14 C242.82,202.13 242.82,223.01 242.82,244.97" fill="none" id="Estadisticas-to-Cliente" style="stroke:#181818;stroke-width:1;"/><polygon fill="none" points="242.82,256.97,246.82,250.97,242.82,244.97,238.82,250.97,242.82,256.97" style="stroke:#181818;stroke-width:1;"/><text fill="#000000" font-family="sans-serif" font-size="13" lengthAdjust="spacing" textLength="97.5508" x="243.82" y="223.0669">Registra varios</text></g><!--SRC=[LOx12a8X44NtVeMyPU3xW1OF8Yfe5L4VCAY4OKuurYRwz-QfbUwSS-MUgpqGoJt600RaIxo5pcGDr-v4tvtUsP1iGmuHpKCdf8PjA85nb9o6WiNNezHK34ivd0da4w836aHcEQm2pbU9dyPoMDb2gKR7FqxCcrmfB7ivscAyGUqTn-d7TvPdOG1fx9tRPmFAMT9jpat_9KTxuIIMkKZ31m00]--></g></svg>