<svg xmlns="http://www.w3.org/2000/svg" xmlns:xlink="http://www.w3.org/1999/xlink" contentStyleType="text/css" data-diagram-type="CLASS" height="437px" preserveAspectRatio="none" style="width:323px;height:437px;background:#FFFFFF;" version="1.1" viewBox="0 0 323 437" width="323px" zoomAndPan="magnify"><defs/><g><!--class Jornada--><g class="entity" data-entity="Jornada" data-source-line="1" data-uid="ent0002" id="entity_Jornada"><rect fill="#F1F1F1" height="48" rx="2.5" ry="2.5" style="stroke:#181818;stroke-width:0.5;" width="85.3682" x="7" y="7"/><ellipse cx="22" cy="23" fill="#ADD1B2" rx="11" ry="11" style="stroke:#181818;stroke-width:1;"/><path d="M24.9688,28.6406 Q24.3906,28.9375 23.75,29.0781 Q23.1094,29.2344 22.4063,29.2344 Q19.9063,29.2344 18.5781,27.5938 Q17.2656,25.9375 17.2656,22.8125 Q17.2656,19.6875 18.5781,18.0313 Q19.9063,16.375 22.4063,16.375 Q23.1094,16.375 23.75,16.5313 Q24.4063,16.6875 24.9688,16.9844 L24.9688,19.7031 Q24.3438,19.125 23.75,18.8594 Q23.1563,18.5781 22.5313,18.5781 Q21.1875,18.5781 20.5,19.6563 Q19.8125,20.7188 19.8125,22.8125 Q19.8125,24.9063 20.5,25.9844 Q21.1875,27.0469 22.5313,27.0469 Q23.1563,27.0469 23.75,26.7813 Q24.3438,26.5 24.9688,25.9219 L24.9688,28.6406 Z " fill="#000000"/><text fill="#000000" font-family="sans-serif" font-size="14" lengthAdjust="spacing" textLength="53.3682" x="36" y="27.8467">Jornada</text><line style="stroke:#181818;stroke-width:0.5;" x1="8" x2="91.3682" y1="39" y2="39"/><line style="stroke:#181818;stroke-width:0.5;" x1="8" x2="91.3682" y1="47" y2="47"/></g><!--class Caja--><g class="entity" data-entity="Caja" data-source-line="3" data-uid="ent0003" id="entity_Caja"><rect fill="#F1F1F1" height="48" rx="2.5" ry="2.5" style="stroke:#181818;stroke-width:0.5;" width="62.8232" x="18" y="132"/><ellipse cx="33" cy="148" fill="#ADD1B2" rx="11" ry="11" style="stroke:#181818;stroke-width:1;"/><path d="M35.9688,153.6406 Q35.3906,153.9375 34.75,154.0781 Q34.1094,154.2344 33.4063,154.2344 Q30.9063,154.2344 29.5781,152.5938 Q28.2656,150.9375 28.2656,147.8125 Q28.2656,144.6875 29.5781,143.0313 Q30.9063,141.375 33.4063,141.375 Q34.1094,141.375 34.75,141.5313 Q35.4063,141.6875 35.9688,141.9844 L35.9688,144.7031 Q35.3438,144.125 34.75,143.8594 Q34.1563,143.5781 33.5313,143.5781 Q32.1875,143.5781 31.5,144.6563 Q30.8125,145.7188 30.8125,147.8125 Q30.8125,149.9063 31.5,150.9844 Q32.1875,152.0469 33.5313,152.0469 Q34.1563,152.0469 34.75,151.7813 Q35.3438,151.5 35.9688,150.9219 L35.9688,153.6406 Z " fill="#000000"/><text fill="#000000" font-family="sans-serif" font-size="14" lengthAdjust="spacing" textLength="30.8232" x="47" y="152.8467">Caja</text><line style="stroke:#181818;stroke-width:0.5;" x1="19" x2="79.8232" y1="164" y2="164"/><line style="stroke:#181818;stroke-width:0.5;" x1="19" x2="79.8232" y1="172" y2="172"/></g><!--class Cola--><g class="entity" data-entity="Cola" data-source-line="5" data-uid="ent0004" id="entity_Cola"><rect fill="#F1F1F1" height="48" rx="2.5" ry="2.5" style="stroke:#181818;stroke-width:0.5;" width="62.8096" x="53" y="382"/><ellipse cx="68" cy="398" fill="#ADD1B2" rx="11" ry="11" style="stroke:#181818;stroke-width:1;"/><path d="M70.9688,403.6406 Q70.3906,403.9375 69.75,404.0781 Q69.1094,404.2344 68.4063,404.2344 Q65.9063,404.2344 64.5781,402.5938 Q63.2656,400.9375 63.2656,397.8125 Q63.2656,394.6875 64.5781,393.0313 Q65.9063,391.375 68.4063,391.375 Q69.1094,391.375 69.75,391.5313 Q70.4063,391.6875 70.9688,391.9844 L70.9688,394.7031 Q70.3438,394.125 69.75,393.8594 Q69.1563,393.5781 68.5313,393.5781 Q67.1875,393.5781 66.5,394.6563 Q65.8125,395.7188 65.8125,397.8125 Q65.8125,399.9063 66.5,400.9844 Q67.1875,402.0469 68.5313,402.0469 Q69.1563,402.0469 69.75,401.7813 Q70.3438,401.5 70.9688,400.9219 L70.9688,403.6406 Z " fill="#000000"/><text fill="#000000" font-family="sans-serif" font-size="14" lengthAdjust="spacing" textLength="30.8096" x="82" y="402.8467">Cola</text><line style="stroke:#181818;stroke-width:0.5;" x1="54" x2="114.8096" y1="414" y2="414"/><line style="stroke:#181818;stroke-width:0.5;" x1="54" x2="114.8096" y1="422" y2="422"/></g><!--class Cliente--><g class="entity" data-entity="Cliente" data-source-line="7" data-uid="ent0005" id="entity_Cliente"><rect fill="#F1F1F1" height="48" rx="2.5" ry="2.5" style="stroke:#181818;stroke-width:0.5;" width="81.1436" x="225" y="257"/><ellipse cx="240" cy="273" fill="#ADD1B2" rx="11" ry="11" style="stroke:#181818;stroke-width:1;"/><path d="M242.9688,278.6406 Q242.3906,278.9375 241.75,279.0781 Q241.1094,279.2344 240.4063,279.2344 Q237.9063,279.2344 236.5781,277.5938 Q235.2656,275.9375 235.2656,272.8125 Q235.2656,269.6875 236.5781,268.0313 Q237.9063,266.375 240.4063,266.375 Q241.1094,266.375 241.75,266.5313 Q242.4063,266.6875 242.9688,266.9844 L242.9688,269.7031 Q242.3438,269.125 241.75,268.8594 Q241.1563,268.5781 240.5313,268.5781 Q239.1875,268.5781 238.5,269.6563 Q237.8125,270.7188 237.8125,272.8125 Q237.8125,274.9063 238.5,275.9844 Q239.1875,277.0469 240.5313,277.0469 Q241.1563,277.0469 241.75,276.7813 Q242.3438,276.5 242.9688,275.9219 L242.9688,278.6406 Z " fill="#000000"/><text fill="#000000" font-family="sans-serif" font-size="14" lengthAdjust="spacing" textLength="49.1436" x="254" y="277.8467">Cliente</text><line style="stroke:#181818;stroke-width:0.5;" x1="226" x2="305.1436" y1="289" y2="289"/><line style="stroke:#181818;stroke-width:0.5;" x1="226" x2="305.1436" y1="297" y2="297"/></g><!--class Productos--><g class="entity" data-entity="Productos" data-source-line="9" data-uid="ent0006" id="entity_Productos"><rect fill="#F1F1F1" height="48" rx="2.5" ry="2.5" style="stroke:#181818;stroke-width:0.5;" width="101.5693" x="214.5" y="382"/><ellipse cx="229.5" cy="398" fill="#ADD1B2" rx="11" ry="11" style="stroke:#181818;stroke-width:1;"/><path d="M232.4688,403.6406 Q231.8906,403.9375 231.25,404.0781 Q230.6094,404.2344 229.9063,404.2344 Q227.4063,404.2344 226.0781,402.5938 Q224.7656,400.9375 224.7656,397.8125 Q224.7656,394.6875 226.0781,393.0313 Q227.4063,391.375 229.9063,391.375 Q230.6094,391.375 231.25,391.5313 Q231.9063,391.6875 232.4688,391.9844 L232.4688,394.7031 Q231.8438,394.125 231.25,393.8594 Q230.6563,393.5781 230.0313,393.5781 Q228.6875,393.5781 228,394.6563 Q227.3125,395.7188 227.3125,397.8125 Q227.3125,399.9063 228,400.9844 Q228.6875,402.0469 230.0313,402.0469 Q230.6563,402.0469 231.25,401.7813 Q231.8438,401.5 232.4688,400.9219 L232.4688,403.6406 Z " fill="#000000"/><text fill="#000000" font-family="sans-serif" font-size="14" lengthAdjust="spacing" textLength="69.5693" x="243.5" y="402.8467">Productos</text><line style="stroke:#181818;stroke-width:0.5;" x1="215.5" x2="315.0693" y1="414" y2="414"/><line style="stroke:#181818;stroke-width:0.5;" x1="215.5" x2="315.0693" y1="422" y2="422"/></g><!--link Jornada to Caja--><g class="link" data-entity-1="Jornada" data-entity-2="Caja" data-source-line="13" data-uid="lnk7" id="link_Jornada_Caja"><path codeLine="13" d="M49.5,55.14 C49.5,77.13 49.5,104.01 49.5,125.97" fill="none" id="Jornada-to-Caja" style="stroke:#181818;stroke-width:1;"/><polygon fill="#181818" points="49.5,131.97,53.5,122.97,49.5,126.97,45.5,122.97,49.5,131.97" style="stroke:#181818;stroke-width:1;"/><text fill="#000000" font-family="sans-serif" font-size="13" lengthAdjust="spacing" textLength="67.7422" x="50.5" y="98.0669">Usa varias</text></g><!--link Caja to Cliente--><g class="link" data-entity-1="Caja" data-entity-2="Cliente" data-source-line="14" data-uid="lnk8" id="link_Caja_Cliente"><path codeLine="14" d="M81.37,175.15 C119.51,196.87 178.2062,230.2909 219.8062,253.9809" fill="none" id="Caja-to-Cliente" style="stroke:#181818;stroke-width:1;"/><polygon fill="#181818" points="225.02,256.95,219.1787,249.0204,220.6751,254.4757,215.2198,255.9722,225.02,256.95" style="stroke:#181818;stroke-width:1;"/><text fill="#000000" font-family="sans-serif" font-size="13" lengthAdjust="spacing" textLength="50.0894" x="171.5" y="223.0669">Atiende</text></g><!--reverse link Cliente to Productos--><g class="link" data-entity-1="Cliente" data-entity-2="Productos" data-source-line="15" data-uid="lnk9" id="link_Cliente_Productos"><path codeLine="15" d="M265.5,317.14 C265.5,339.13 265.5,360.01 265.5,381.97" fill="none" id="Cliente-backto-Productos" style="stroke:#181818;stroke-width:1;"/><polygon fill="#181818" points="265.5,305.14,261.5,311.14,265.5,317.14,269.5,311.14,265.5,305.14" style="stroke:#181818;stroke-width:1;"/><text fill="#000000" font-family="sans-serif" font-size="13" lengthAdjust="spacing" textLength="35.7881" x="266.5" y="348.0669">Tiene</text></g><!--link Cliente to Cola--><g class="link" data-entity-1="Cliente" data-entity-2="Cola" data-source-line="16" data-uid="lnk10" id="link_Cliente_Cola"><path codeLine="16" d="M231.46,305.14 C198.38,327.61 158.4746,354.7245 126.1946,376.6645" fill="none" id="Cliente-to-Cola" style="stroke:#181818;stroke-width:1;"/><polygon fill="none" points="116.27,383.41,123.4808,383.3454,126.1946,376.6645,118.9838,376.729,116.27,383.41" style="stroke:#181818;stroke-width:1;"/><text fill="#000000" font-family="sans-serif" font-size="13" lengthAdjust="spacing" textLength="41.4058" x="187.5" y="348.0669">Forma</text></g><!--link Caja to Cola--><g class="link" data-entity-1="Caja" data-entity-2="Cola" data-source-line="17" data-uid="lnk11" id="link_Caja_Cola"><path codeLine="17" d="M43.72,180.11 C37.29,209.48 28.99,261.58 38.5,305 C44.59,332.81 56.2118,356.9099 67.3418,376.5499" fill="none" id="Caja-to-Cola" style="stroke:#181818;stroke-width:1;stroke-dasharray:7.0,7.0;"/><polygon fill="#181818" points="70.3,381.77,69.3427,371.9678,67.8348,377.42,62.3826,375.9121,70.3,381.77" style="stroke:#181818;stroke-width:1;"/><text fill="#000000" font-family="sans-serif" font-size="13" lengthAdjust="spacing" textLength="167.2734" x="39.5" y="285.5669">Gestiona dependiendo de</text></g><!--SRC=[LOwn2W8n343tVaNfAEG-mE7W41IS7FG3GjkXKXjfwYtYlvlhLUbjoNlbDJOYipvJJkXGlzL7sKeEUD-i53Th33uLtv5B9lUoXRWofNv5W75jxRMvCUePSq0sgh8gMqhyL6HqNcHZEu0kB2-kmZiFGEjbeewK7zYwmp3- -Sbp2PHGE_-K-l83oMo-]--></g></svg>