<svg xmlns="http://www.w3.org/2000/svg" xmlns:xlink="http://www.w3.org/1999/xlink" contentStyleType="text/css" data-diagram-type="CLASS" height="437px" preserveAspectRatio="none" style="width:337px;height:437px;background:#FFFFFF;" version="1.1" viewBox="0 0 337 437" width="337px" zoomAndPan="magnify"><defs/><g><!--class Cliente--><g class="entity" data-entity="Cliente" data-source-line="1" data-uid="ent0002" id="entity_Cliente"><rect fill="#F1F1F1" height="48" rx="2.5" ry="2.5" style="stroke:#181818;stroke-width:0.5;" width="81.1436" x="47" y="382"/><ellipse cx="62" cy="398" fill="#ADD1B2" rx="11" ry="11" style="stroke:#181818;stroke-width:1;"/><path d="M64.9688,403.6406 Q64.3906,403.9375 63.75,404.0781 Q63.1094,404.2344 62.4063,404.2344 Q59.9063,404.2344 58.5781,402.5938 Q57.2656,400.9375 57.2656,397.8125 Q57.2656,394.6875 58.5781,393.0313 Q59.9063,391.375 62.4063,391.375 Q63.1094,391.375 63.75,391.5313 Q64.4063,391.6875 64.9688,391.9844 L64.9688,394.7031 Q64.3438,394.125 63.75,393.8594 Q63.1563,393.5781 62.5313,393.5781 Q61.1875,393.5781 60.5,394.6563 Q59.8125,395.7188 59.8125,397.8125 Q59.8125,399.9063 60.5,400.9844 Q61.1875,402.0469 62.5313,402.0469 Q63.1563,402.0469 63.75,401.7813 Q64.3438,401.5 64.9688,400.9219 L64.9688,403.6406 Z " fill="#000000"/><text fill="#000000" font-family="sans-serif" font-size="14" lengthAdjust="spacing" textLength="49.1436" x="76" y="402.8467">Cliente</text><line style="stroke:#181818;stroke-width:0.5;" x1="48" x2="127.1436" y1="414" y2="414"/><line style="stroke:#181818;stroke-width:0.5;" x1="48" x2="127.1436" y1="422" y2="422"/></g><!--class Caja--><g class="entity" data-entity="Caja" data-source-line="4" data-uid="ent0003" id="entity_Caja"><rect fill="#F1F1F1" height="48" rx="2.5" ry="2.5" style="stroke:#181818;stroke-width:0.5;" width="62.8232" x="105" y="257"/><ellipse cx="120" cy="273" fill="#ADD1B2" rx="11" ry="11" style="stroke:#181818;stroke-width:1;"/><path d="M122.9688,278.6406 Q122.3906,278.9375 121.75,279.0781 Q121.1094,279.2344 120.4063,279.2344 Q117.9063,279.2344 116.5781,277.5938 Q115.2656,275.9375 115.2656,272.8125 Q115.2656,269.6875 116.5781,268.0313 Q117.9063,266.375 120.4063,266.375 Q121.1094,266.375 121.75,266.5313 Q122.4063,266.6875 122.9688,266.9844 L122.9688,269.7031 Q122.3438,269.125 121.75,268.8594 Q121.1563,268.5781 120.5313,268.5781 Q119.1875,268.5781 118.5,269.6563 Q117.8125,270.7188 117.8125,272.8125 Q117.8125,274.9063 118.5,275.9844 Q119.1875,277.0469 120.5313,277.0469 Q121.1563,277.0469 121.75,276.7813 Q122.3438,276.5 122.9688,275.9219 L122.9688,278.6406 Z " fill="#000000"/><text fill="#000000" font-family="sans-serif" font-size="14" lengthAdjust="spacing" textLength="30.8232" x="134" y="277.8467">Caja</text><line style="stroke:#181818;stroke-width:0.5;" x1="106" x2="166.8232" y1="289" y2="289"/><line style="stroke:#181818;stroke-width:0.5;" x1="106" x2="166.8232" y1="297" y2="297"/></g><!--class Cola--><g class="entity" data-entity="Cola" data-source-line="7" data-uid="ent0004" id="entity_Cola"><rect fill="#F1F1F1" height="48" rx="2.5" ry="2.5" style="stroke:#181818;stroke-width:0.5;" width="62.8096" x="7" y="257"/><ellipse cx="22" cy="273" fill="#ADD1B2" rx="11" ry="11" style="stroke:#181818;stroke-width:1;"/><path d="M24.9688,278.6406 Q24.3906,278.9375 23.75,279.0781 Q23.1094,279.2344 22.4063,279.2344 Q19.9063,279.2344 18.5781,277.5938 Q17.2656,275.9375 17.2656,272.8125 Q17.2656,269.6875 18.5781,268.0313 Q19.9063,266.375 22.4063,266.375 Q23.1094,266.375 23.75,266.5313 Q24.4063,266.6875 24.9688,266.9844 L24.9688,269.7031 Q24.3438,269.125 23.75,268.8594 Q23.1563,268.5781 22.5313,268.5781 Q21.1875,268.5781 20.5,269.6563 Q19.8125,270.7188 19.8125,272.8125 Q19.8125,274.9063 20.5,275.9844 Q21.1875,277.0469 22.5313,277.0469 Q23.1563,277.0469 23.75,276.7813 Q24.3438,276.5 24.9688,275.9219 L24.9688,278.6406 Z " fill="#000000"/><text fill="#000000" font-family="sans-serif" font-size="14" lengthAdjust="spacing" textLength="30.8096" x="36" y="277.8467">Cola</text><line style="stroke:#181818;stroke-width:0.5;" x1="8" x2="68.8096" y1="289" y2="289"/><line style="stroke:#181818;stroke-width:0.5;" x1="8" x2="68.8096" y1="297" y2="297"/></g><!--class Estadisticas--><g class="entity" data-entity="Estadisticas" data-source-line="10" data-uid="ent0005" id="entity_Estadisticas"><rect fill="#F1F1F1" height="48" rx="2.5" ry="2.5" style="stroke:#181818;stroke-width:0.5;" width="115.2275" x="215" y="257"/><ellipse cx="230" cy="273" fill="#ADD1B2" rx="11" ry="11" style="stroke:#181818;stroke-width:1;"/><path d="M232.9688,278.6406 Q232.3906,278.9375 231.75,279.0781 Q231.1094,279.2344 230.4063,279.2344 Q227.9063,279.2344 226.5781,277.5938 Q225.2656,275.9375 225.2656,272.8125 Q225.2656,269.6875 226.5781,268.0313 Q227.9063,266.375 230.4063,266.375 Q231.1094,266.375 231.75,266.5313 Q232.4063,266.6875 232.9688,266.9844 L232.9688,269.7031 Q232.3438,269.125 231.75,268.8594 Q231.1563,268.5781 230.5313,268.5781 Q229.1875,268.5781 228.5,269.6563 Q227.8125,270.7188 227.8125,272.8125 Q227.8125,274.9063 228.5,275.9844 Q229.1875,277.0469 230.5313,277.0469 Q231.1563,277.0469 231.75,276.7813 Q232.3438,276.5 232.9688,275.9219 L232.9688,278.6406 Z " fill="#000000"/><text fill="#000000" font-family="sans-serif" font-size="14" lengthAdjust="spacing" textLength="83.2275" x="244" y="277.8467">Estadisticas</text><line style="stroke:#181818;stroke-width:0.5;" x1="216" x2="329.2275" y1="289" y2="289"/><line style="stroke:#181818;stroke-width:0.5;" x1="216" x2="329.2275" y1="297" y2="297"/></g><!--class GestorCajas--><g class="entity" data-entity="GestorCajas" data-source-line="13" data-uid="ent0006" id="entity_GestorCajas"><rect fill="#F1F1F1" height="48" rx="2.5" ry="2.5" style="stroke:#181818;stroke-width:0.5;" width="116.6836" x="84" y="132"/><ellipse cx="99" cy="148" fill="#ADD1B2" rx="11" ry="11" style="stroke:#181818;stroke-width:1;"/><path d="M101.9688,153.6406 Q101.3906,153.9375 100.75,154.0781 Q100.1094,154.2344 99.4063,154.2344 Q96.9063,154.2344 95.5781,152.5938 Q94.2656,150.9375 94.2656,147.8125 Q94.2656,144.6875 95.5781,143.0313 Q96.9063,141.375 99.4063,141.375 Q100.1094,141.375 100.75,141.5313 Q101.4063,141.6875 101.9688,141.9844 L101.9688,144.7031 Q101.3438,144.125 100.75,143.8594 Q100.1563,143.5781 99.5313,143.5781 Q98.1875,143.5781 97.5,144.6563 Q96.8125,145.7188 96.8125,147.8125 Q96.8125,149.9063 97.5,150.9844 Q98.1875,152.0469 99.5313,152.0469 Q100.1563,152.0469 100.75,151.7813 Q101.3438,151.5 101.9688,150.9219 L101.9688,153.6406 Z " fill="#000000"/><text fill="#000000" font-family="sans-serif" font-size="14" lengthAdjust="spacing" textLength="84.6836" x="113" y="152.8467">GestorCajas</text><line style="stroke:#181818;stroke-width:0.5;" x1="85" x2="199.6836" y1="164" y2="164"/><line style="stroke:#181818;stroke-width:0.5;" x1="85" x2="199.6836" y1="172" y2="172"/></g><!--class Mundo--><g class="entity" data-entity="Mundo" data-source-line="16" data-uid="ent0007" id="entity_Mundo"><rect fill="#F1F1F1" height="48" rx="2.5" ry="2.5" style="stroke:#181818;stroke-width:0.5;" width="79.2773" x="103" y="7"/><ellipse cx="118" cy="23" fill="#ADD1B2" rx="11" ry="11" style="stroke:#181818;stroke-width:1;"/><path d="M120.9688,28.6406 Q120.3906,28.9375 119.75,29.0781 Q119.1094,29.2344 118.4063,29.2344 Q115.9063,29.2344 114.5781,27.5938 Q113.2656,25.9375 113.2656,22.8125 Q113.2656,19.6875 114.5781,18.0313 Q115.9063,16.375 118.4063,16.375 Q119.1094,16.375 119.75,16.5313 Q120.4063,16.6875 120.9688,16.9844 L120.9688,19.7031 Q120.3438,19.125 119.75,18.8594 Q119.1563,18.5781 118.5313,18.5781 Q117.1875,18.5781 116.5,19.6563 Q115.8125,20.7188 115.8125,22.8125 Q115.8125,24.9063 116.5,25.9844 Q117.1875,27.0469 118.5313,27.0469 Q119.1563,27.0469 119.75,26.7813 Q120.3438,26.5 120.9688,25.9219 L120.9688,28.6406 Z " fill="#000000"/><text fill="#000000" font-family="sans-serif" font-size="14" lengthAdjust="spacing" textLength="47.2773" x="132" y="27.8467">Mundo</text><line style="stroke:#181818;stroke-width:0.5;" x1="104" x2="181.2773" y1="39" y2="39"/><line style="stroke:#181818;stroke-width:0.5;" x1="104" x2="181.2773" y1="47" y2="47"/></g><!--link Caja to Cliente--><g class="link" data-entity-1="Caja" data-entity-2="Cliente" data-source-line="21" data-uid="lnk8" id="link_Caja_Cliente"><path codeLine="21" d="M127.28,305.14 C118.52,327.13 107.6387,354.4353 98.8987,376.3953" fill="none" id="Caja-to-Cliente" style="stroke:#181818;stroke-width:1;"/><polygon fill="#181818" points="96.68,381.97,103.7245,375.0871,98.5289,377.3244,96.2916,372.1288,96.68,381.97" style="stroke:#181818;stroke-width:1;"/><text fill="#000000" font-family="sans-serif" font-size="13" lengthAdjust="spacing" textLength="22.9785" x="116.5" y="348.0669">usa</text></g><!--reverse link Cola to Cliente--><g class="link" data-entity-1="Cola" data-entity-2="Cliente" data-source-line="22" data-uid="lnk9" id="link_Cola_Cliente"><path codeLine="22" d="M36.4206,317.1776 C36.1406,331.2076 37.55,337.19 43.5,352 C47.87,362.87 55.34,373.19 62.9,381.78" fill="none" id="Cola-backto-Cliente" style="stroke:#181818;stroke-width:1;"/><polygon fill="#181818" points="36.66,305.18,32.5411,311.099,36.4206,317.1776,40.5395,311.2586,36.66,305.18" style="stroke:#181818;stroke-width:1;"/><text fill="#000000" font-family="sans-serif" font-size="13" lengthAdjust="spacing" textLength="56.2847" x="44.5" y="348.0669">contiene</text></g><!--reverse link GestorCajas to Caja--><g class="link" data-entity-1="GestorCajas" data-entity-2="Caja" data-source-line="23" data-uid="lnk10" id="link_GestorCajas_Caja"><path codeLine="23" d="M135.5533,191.9146 C133.8633,201.1646 134.33,200.14 133.5,210 C132.18,225.64 132.95,243.29 134.04,256.95" fill="none" id="GestorCajas-backto-Caja" style="stroke:#181818;stroke-width:1;"/><polygon fill="#181818" points="137.71,180.11,132.6968,185.2934,135.5533,191.9146,140.5665,186.7312,137.71,180.11" style="stroke:#181818;stroke-width:1;"/><text fill="#000000" font-family="sans-serif" font-size="13" lengthAdjust="spacing" textLength="60.2075" x="134.5" y="223.0669">compone</text></g><!--link GestorCajas to Cola--><g class="link" data-entity-1="GestorCajas" data-entity-2="Cola" data-source-line="24" data-uid="lnk11" id="link_GestorCajas_Cola"><path codeLine="24" d="M122.94,180.14 C104.34,202.13 80.4143,230.4285 61.8443,252.3885" fill="none" id="GestorCajas-to-Cola" style="stroke:#181818;stroke-width:1;stroke-dasharray:7.0,7.0;"/><polygon fill="#181818" points="57.97,256.97,66.8357,252.6806,61.1985,253.1521,60.727,247.5149,57.97,256.97" style="stroke:#181818;stroke-width:1;"/><text fill="#000000" font-family="sans-serif" font-size="13" lengthAdjust="spacing" textLength="22.9785" x="98.5" y="223.0669">usa</text></g><!--link GestorCajas to Estadisticas--><g class="link" data-entity-1="GestorCajas" data-entity-2="Estadisticas" data-source-line="25" data-uid="lnk12" id="link_GestorCajas_Estadisticas"><path codeLine="25" d="M167.55,180.14 C177.52,189.39 189.09,200.17 199.5,210 C215.97,225.55 230.059,239.0372 244.269,252.7272" fill="none" id="GestorCajas-to-Estadisticas" style="stroke:#181818;stroke-width:1;stroke-dasharray:7.0,7.0;"/><polygon fill="#181818" points="248.59,256.89,244.8838,247.7651,244.9892,253.421,239.3333,253.5264,248.59,256.89" style="stroke:#181818;stroke-width:1;"/><text fill="#000000" font-family="sans-serif" font-size="13" lengthAdjust="spacing" textLength="22.9785" x="217.5" y="223.0669">usa</text></g><!--link Mundo to Cola--><g class="link" data-entity-1="Mundo" data-entity-2="Cola" data-source-line="26" data-uid="lnk13" id="link_Mundo_Cola"><path codeLine="26" d="M103.67,55.01 C78.2,72.53 47.01,99.19 32.5,132 C14.4,172.92 22.1786,220.7809 29.9786,250.9609" fill="none" id="Mundo-to-Cola" style="stroke:#181818;stroke-width:1;"/><polygon fill="#181818" points="31.48,256.77,33.1007,247.0554,30.2289,251.9291,25.3552,249.0572,31.48,256.77" style="stroke:#181818;stroke-width:1;"/><text fill="#000000" font-family="sans-serif" font-size="13" lengthAdjust="spacing" textLength="32.9443" x="33.5" y="160.5669">tiene</text></g><!--link Mundo to GestorCajas--><g class="link" data-entity-1="Mundo" data-entity-2="GestorCajas" data-source-line="27" data-uid="lnk14" id="link_Mundo_GestorCajas"><path codeLine="27" d="M142.5,55.14 C142.5,77.13 142.5,104.01 142.5,125.97" fill="none" id="Mundo-to-GestorCajas" style="stroke:#181818;stroke-width:1;"/><polygon fill="#181818" points="142.5,131.97,146.5,122.97,142.5,126.97,138.5,122.97,142.5,131.97" style="stroke:#181818;stroke-width:1;"/><text fill="#000000" font-family="sans-serif" font-size="13" lengthAdjust="spacing" textLength="32.9443" x="143.5" y="98.0669">tiene</text></g><!--link Mundo to Estadisticas--><g class="link" data-entity-1="Mundo" data-entity-2="Estadisticas" data-source-line="28" data-uid="lnk15" id="link_Mundo_Estadisticas"><path codeLine="28" d="M161.12,55.05 C168.49,64.29 176.99,75.08 184.5,85 C200.07,105.55 206.21,109.33 218.5,132 C236.2,164.65 235.81,175.09 248.5,210 C254.16,225.58 258.2939,237.5442 262.9039,251.2242" fill="none" id="Mundo-to-Estadisticas" style="stroke:#181818;stroke-width:1;"/><polygon fill="#181818" points="264.82,256.91,265.7365,247.1039,263.2233,252.1718,258.1554,249.6586,264.82,256.91" style="stroke:#181818;stroke-width:1;"/><text fill="#000000" font-family="sans-serif" font-size="13" lengthAdjust="spacing" textLength="32.9443" x="240.5" y="160.5669">tiene</text></g><!--SRC=[PO-n3G8n34NxJE4E2Iat0CKr257Hi86LCr9GY4yuLo56OWeM8uabI8xEVj_-_dO1HM0VFCL4y31FOvmYl6BNS-ZwWoISl2JlK5f-94byBziTFYrnuWmAsS2P0ZhFaGGSHqX-PY2PoRrV5-_OrEFMZjzWErW4JSsmjRR1UJtbcanxjuuKYwBVPbx9mp3gE-gwbhhFT4JJrq2wfpT_kFNuLrUELVu0]--></g></svg>