<svg xmlns="http://www.w3.org/2000/svg" xmlns:xlink="http://www.w3.org/1999/xlink" contentStyleType="text/css" data-diagram-type="CLASS" height="386px" preserveAspectRatio="none" style="width:350px;height:386px;background:#FFFFFF;" version="1.1" viewBox="0 0 350 386" width="350px" zoomAndPan="magnify"><defs/><g><!--class Personaje--><g class="entity" data-entity="Personaje" data-source-line="1" data-uid="ent0002" id="entity_Personaje"><rect fill="#F1F1F1" height="48" rx="2.5" ry="2.5" style="stroke:#181818;stroke-width:0.5;" width="100.626" x="182.13" y="115"/><ellipse cx="197.13" cy="131" fill="#A9DCDF" rx="11" ry="11" style="stroke:#181818;stroke-width:1;"/><path d="M197.2394,126.3438 L196.0831,131.4219 L198.4113,131.4219 L197.2394,126.3438 Z M195.755,124.1094 L198.7394,124.1094 L202.0988,136.5 L199.6456,136.5 L198.88,133.4375 L195.5988,133.4375 L194.8488,136.5 L192.4113,136.5 L195.755,124.1094 Z " fill="#000000"/><text fill="#000000" font-family="sans-serif" font-size="14" font-style="italic" lengthAdjust="spacing" textLength="68.626" x="211.13" y="135.8467">Personaje</text><line style="stroke:#181818;stroke-width:0.5;" x1="183.13" x2="281.756" y1="147" y2="147"/><line style="stroke:#181818;stroke-width:0.5;" x1="183.13" x2="281.756" y1="155" y2="155"/></g><!--class Guerrero--><g class="entity" data-entity="Guerrero" data-source-line="2" data-uid="ent0003" id="entity_Guerrero"><rect fill="#F1F1F1" height="48" rx="2.5" ry="2.5" style="stroke:#181818;stroke-width:0.5;" width="94.7813" x="249.06" y="223"/><ellipse cx="264.06" cy="239" fill="#ADD1B2" rx="11" ry="11" style="stroke:#181818;stroke-width:1;"/><path d="M267.0288,244.6406 Q266.4506,244.9375 265.81,245.0781 Q265.1694,245.2344 264.4663,245.2344 Q261.9663,245.2344 260.6381,243.5938 Q259.3256,241.9375 259.3256,238.8125 Q259.3256,235.6875 260.6381,234.0313 Q261.9663,232.375 264.4663,232.375 Q265.1694,232.375 265.81,232.5313 Q266.4663,232.6875 267.0288,232.9844 L267.0288,235.7031 Q266.4038,235.125 265.81,234.8594 Q265.2163,234.5781 264.5913,234.5781 Q263.2475,234.5781 262.56,235.6563 Q261.8725,236.7188 261.8725,238.8125 Q261.8725,240.9063 262.56,241.9844 Q263.2475,243.0469 264.5913,243.0469 Q265.2163,243.0469 265.81,242.7813 Q266.4038,242.5 267.0288,241.9219 L267.0288,244.6406 Z " fill="#000000"/><text fill="#000000" font-family="sans-serif" font-size="14" lengthAdjust="spacing" textLength="62.7813" x="278.06" y="243.8467">Guerrero</text><line style="stroke:#181818;stroke-width:0.5;" x1="250.06" x2="342.8413" y1="255" y2="255"/><line style="stroke:#181818;stroke-width:0.5;" x1="250.06" x2="342.8413" y1="263" y2="263"/></g><!--class Vampiro--><g class="entity" data-entity="Vampiro" data-source-line="3" data-uid="ent0004" id="entity_Vampiro"><rect fill="#F1F1F1" height="48" rx="2.5" ry="2.5" style="stroke:#181818;stroke-width:0.5;" width="90.8916" x="7" y="223"/><ellipse cx="22" cy="239" fill="#ADD1B2" rx="11" ry="11" style="stroke:#181818;stroke-width:1;"/><path d="M24.9688,244.6406 Q24.3906,244.9375 23.75,245.0781 Q23.1094,245.2344 22.4063,245.2344 Q19.9063,245.2344 18.5781,243.5938 Q17.2656,241.9375 17.2656,238.8125 Q17.2656,235.6875 18.5781,234.0313 Q19.9063,232.375 22.4063,232.375 Q23.1094,232.375 23.75,232.5313 Q24.4063,232.6875 24.9688,232.9844 L24.9688,235.7031 Q24.3438,235.125 23.75,234.8594 Q23.1563,234.5781 22.5313,234.5781 Q21.1875,234.5781 20.5,235.6563 Q19.8125,236.7188 19.8125,238.8125 Q19.8125,240.9063 20.5,241.9844 Q21.1875,243.0469 22.5313,243.0469 Q23.1563,243.0469 23.75,242.7813 Q24.3438,242.5 24.9688,241.9219 L24.9688,244.6406 Z " fill="#000000"/><text fill="#000000" font-family="sans-serif" font-size="14" lengthAdjust="spacing" textLength="58.8916" x="36" y="243.8467">Vampiro</text><line style="stroke:#181818;stroke-width:0.5;" x1="8" x2="96.8916" y1="255" y2="255"/><line style="stroke:#181818;stroke-width:0.5;" x1="8" x2="96.8916" y1="263" y2="263"/></g><!--class Ataque--><g class="entity" data-entity="Ataque" data-source-line="4" data-uid="ent0005" id="entity_Ataque"><rect fill="#F1F1F1" height="48" rx="2.5" ry="2.5" style="stroke:#181818;stroke-width:0.5;" width="82.0186" x="132.44" y="223"/><ellipse cx="147.44" cy="239" fill="#ADD1B2" rx="11" ry="11" style="stroke:#181818;stroke-width:1;"/><path d="M150.4088,244.6406 Q149.8306,244.9375 149.19,245.0781 Q148.5494,245.2344 147.8463,245.2344 Q145.3463,245.2344 144.0181,243.5938 Q142.7056,241.9375 142.7056,238.8125 Q142.7056,235.6875 144.0181,234.0313 Q145.3463,232.375 147.8463,232.375 Q148.5494,232.375 149.19,232.5313 Q149.8463,232.6875 150.4088,232.9844 L150.4088,235.7031 Q149.7838,235.125 149.19,234.8594 Q148.5963,234.5781 147.9713,234.5781 Q146.6275,234.5781 145.94,235.6563 Q145.2525,236.7188 145.2525,238.8125 Q145.2525,240.9063 145.94,241.9844 Q146.6275,243.0469 147.9713,243.0469 Q148.5963,243.0469 149.19,242.7813 Q149.7838,242.5 150.4088,241.9219 L150.4088,244.6406 Z " fill="#000000"/><text fill="#000000" font-family="sans-serif" font-size="14" lengthAdjust="spacing" textLength="50.0186" x="161.44" y="243.8467">Ataque</text><line style="stroke:#181818;stroke-width:0.5;" x1="133.44" x2="213.4586" y1="255" y2="255"/><line style="stroke:#181818;stroke-width:0.5;" x1="133.44" x2="213.4586" y1="263" y2="263"/></g><!--class Arma--><g class="entity" data-entity="Arma" data-source-line="5" data-uid="ent0006" id="entity_Arma"><rect fill="#F1F1F1" height="48" rx="2.5" ry="2.5" style="stroke:#181818;stroke-width:0.5;" width="69.5498" x="145.67" y="331"/><ellipse cx="160.67" cy="347" fill="#ADD1B2" rx="11" ry="11" style="stroke:#181818;stroke-width:1;"/><path d="M163.6388,352.6406 Q163.0606,352.9375 162.42,353.0781 Q161.7794,353.2344 161.0763,353.2344 Q158.5763,353.2344 157.2481,351.5938 Q155.9356,349.9375 155.9356,346.8125 Q155.9356,343.6875 157.2481,342.0313 Q158.5763,340.375 161.0763,340.375 Q161.7794,340.375 162.42,340.5313 Q163.0763,340.6875 163.6388,340.9844 L163.6388,343.7031 Q163.0138,343.125 162.42,342.8594 Q161.8263,342.5781 161.2013,342.5781 Q159.8575,342.5781 159.17,343.6563 Q158.4825,344.7188 158.4825,346.8125 Q158.4825,348.9063 159.17,349.9844 Q159.8575,351.0469 161.2013,351.0469 Q161.8263,351.0469 162.42,350.7813 Q163.0138,350.5 163.6388,349.9219 L163.6388,352.6406 Z " fill="#000000"/><text fill="#000000" font-family="sans-serif" font-size="14" lengthAdjust="spacing" textLength="37.5498" x="174.67" y="351.8467">Arma</text><line style="stroke:#181818;stroke-width:0.5;" x1="146.67" x2="214.2198" y1="363" y2="363"/><line style="stroke:#181818;stroke-width:0.5;" x1="146.67" x2="214.2198" y1="371" y2="371"/></g><!--class Mordida--><g class="entity" data-entity="Mordida" data-source-line="6" data-uid="ent0007" id="entity_Mordida"><rect fill="#F1F1F1" height="48" rx="2.5" ry="2.5" style="stroke:#181818;stroke-width:0.5;" width="88.6426" x="19.12" y="331"/><ellipse cx="34.12" cy="347" fill="#ADD1B2" rx="11" ry="11" style="stroke:#181818;stroke-width:1;"/><path d="M37.0888,352.6406 Q36.5106,352.9375 35.87,353.0781 Q35.2294,353.2344 34.5263,353.2344 Q32.0263,353.2344 30.6981,351.5938 Q29.3856,349.9375 29.3856,346.8125 Q29.3856,343.6875 30.6981,342.0313 Q32.0263,340.375 34.5263,340.375 Q35.2294,340.375 35.87,340.5313 Q36.5263,340.6875 37.0888,340.9844 L37.0888,343.7031 Q36.4638,343.125 35.87,342.8594 Q35.2763,342.5781 34.6513,342.5781 Q33.3075,342.5781 32.62,343.6563 Q31.9325,344.7188 31.9325,346.8125 Q31.9325,348.9063 32.62,349.9844 Q33.3075,351.0469 34.6513,351.0469 Q35.2763,351.0469 35.87,350.7813 Q36.4638,350.5 37.0888,349.9219 L37.0888,352.6406 Z " fill="#000000"/><text fill="#000000" font-family="sans-serif" font-size="14" lengthAdjust="spacing" textLength="56.6426" x="48.12" y="351.8467">Mordida</text><line style="stroke:#181818;stroke-width:0.5;" x1="20.12" x2="106.7626" y1="363" y2="363"/><line style="stroke:#181818;stroke-width:0.5;" x1="20.12" x2="106.7626" y1="371" y2="371"/></g><!--class Pocion--><g class="entity" data-entity="Pocion" data-source-line="7" data-uid="ent0008" id="entity_Pocion"><rect fill="#F1F1F1" height="48" rx="2.5" ry="2.5" style="stroke:#181818;stroke-width:0.5;" width="78.0332" x="257.43" y="331"/><ellipse cx="272.43" cy="347" fill="#ADD1B2" rx="11" ry="11" style="stroke:#181818;stroke-width:1;"/><path d="M275.3988,352.6406 Q274.8206,352.9375 274.18,353.0781 Q273.5394,353.2344 272.8363,353.2344 Q270.3363,353.2344 269.0081,351.5938 Q267.6956,349.9375 267.6956,346.8125 Q267.6956,343.6875 269.0081,342.0313 Q270.3363,340.375 272.8363,340.375 Q273.5394,340.375 274.18,340.5313 Q274.8363,340.6875 275.3988,340.9844 L275.3988,343.7031 Q274.7738,343.125 274.18,342.8594 Q273.5863,342.5781 272.9613,342.5781 Q271.6175,342.5781 270.93,343.6563 Q270.2425,344.7188 270.2425,346.8125 Q270.2425,348.9063 270.93,349.9844 Q271.6175,351.0469 272.9613,351.0469 Q273.5863,351.0469 274.18,350.7813 Q274.7738,350.5 275.3988,349.9219 L275.3988,352.6406 Z " fill="#000000"/><text fill="#000000" font-family="sans-serif" font-size="14" lengthAdjust="spacing" textLength="46.0332" x="286.43" y="351.8467">Pocion</text><line style="stroke:#181818;stroke-width:0.5;" x1="258.43" x2="334.4632" y1="363" y2="363"/><line style="stroke:#181818;stroke-width:0.5;" x1="258.43" x2="334.4632" y1="371" y2="371"/></g><!--class Batalla--><g class="entity" data-entity="Batalla" data-source-line="8" data-uid="ent0009" id="entity_Batalla"><rect fill="#F1F1F1" height="48" rx="2.5" ry="2.5" style="stroke:#181818;stroke-width:0.5;" width="80.6104" x="66.14" y="115"/><ellipse cx="81.14" cy="131" fill="#ADD1B2" rx="11" ry="11" style="stroke:#181818;stroke-width:1;"/><path d="M84.1088,136.6406 Q83.5306,136.9375 82.89,137.0781 Q82.2494,137.2344 81.5463,137.2344 Q79.0463,137.2344 77.7181,135.5938 Q76.4056,133.9375 76.4056,130.8125 Q76.4056,127.6875 77.7181,126.0313 Q79.0463,124.375 81.5463,124.375 Q82.2494,124.375 82.89,124.5313 Q83.5463,124.6875 84.1088,124.9844 L84.1088,127.7031 Q83.4838,127.125 82.89,126.8594 Q82.2963,126.5781 81.6713,126.5781 Q80.3275,126.5781 79.64,127.6563 Q78.9525,128.7188 78.9525,130.8125 Q78.9525,132.9063 79.64,133.9844 Q80.3275,135.0469 81.6713,135.0469 Q82.2963,135.0469 82.89,134.7813 Q83.4838,134.5 84.1088,133.9219 L84.1088,136.6406 Z " fill="#000000"/><text fill="#000000" font-family="sans-serif" font-size="14" lengthAdjust="spacing" textLength="48.6104" x="95.14" y="135.8467">Batalla</text><line style="stroke:#181818;stroke-width:0.5;" x1="67.14" x2="145.7504" y1="147" y2="147"/><line style="stroke:#181818;stroke-width:0.5;" x1="67.14" x2="145.7504" y1="155" y2="155"/></g><!--class JuegoVampiros--><g class="entity" data-entity="JuegoVampiros" data-source-line="9" data-uid="ent0010" id="entity_JuegoVampiros"><rect fill="#F1F1F1" height="48" rx="2.5" ry="2.5" style="stroke:#181818;stroke-width:0.5;" width="137.2529" x="37.82" y="7"/><ellipse cx="52.82" cy="23" fill="#ADD1B2" rx="11" ry="11" style="stroke:#181818;stroke-width:1;"/><path d="M55.7888,28.6406 Q55.2106,28.9375 54.57,29.0781 Q53.9294,29.2344 53.2263,29.2344 Q50.7263,29.2344 49.3981,27.5938 Q48.0856,25.9375 48.0856,22.8125 Q48.0856,19.6875 49.3981,18.0313 Q50.7263,16.375 53.2263,16.375 Q53.9294,16.375 54.57,16.5313 Q55.2263,16.6875 55.7888,16.9844 L55.7888,19.7031 Q55.1638,19.125 54.57,18.8594 Q53.9763,18.5781 53.3513,18.5781 Q52.0075,18.5781 51.32,19.6563 Q50.6325,20.7188 50.6325,22.8125 Q50.6325,24.9063 51.32,25.9844 Q52.0075,27.0469 53.3513,27.0469 Q53.9763,27.0469 54.57,26.7813 Q55.1638,26.5 55.7888,25.9219 L55.7888,28.6406 Z " fill="#000000"/><text fill="#000000" font-family="sans-serif" font-size="14" lengthAdjust="spacing" textLength="105.2529" x="66.82" y="27.8467">JuegoVampiros</text><line style="stroke:#181818;stroke-width:0.5;" x1="38.82" x2="174.0729" y1="39" y2="39"/><line style="stroke:#181818;stroke-width:0.5;" x1="38.82" x2="174.0729" y1="47" y2="47"/></g><!--reverse link Personaje to Guerrero--><g class="link" data-entity-1="Personaje" data-entity-2="Guerrero" data-source-line="11" data-uid="lnk11" id="link_Personaje_Guerrero"><path codeLine="11" d="M255.7906,178.671 C266.4606,196.351 271.77,205.13 282.43,222.79" fill="none" id="Personaje-backto-Guerrero" style="stroke:#181818;stroke-width:1;"/><polygon fill="none" points="246.49,163.26,250.6536,181.7712,260.9276,175.5708,246.49,163.26" style="stroke:#181818;stroke-width:1;"/></g><!--reverse link Personaje to Vampiro--><g class="link" data-entity-1="Personaje" data-entity-2="Vampiro" data-source-line="12" data-uid="lnk12" id="link_Personaje_Vampiro"><path codeLine="12" d="M177.4301,172.3947 C147.5301,190.0047 122.13,204.97 92.17,222.61" fill="none" id="Personaje-backto-Vampiro" style="stroke:#181818;stroke-width:1;"/><polygon fill="none" points="192.94,163.26,174.3852,167.2248,180.475,177.5647,192.94,163.26" style="stroke:#181818;stroke-width:1;"/></g><!--reverse link Ataque to Arma--><g class="link" data-entity-1="Ataque" data-entity-2="Arma" data-source-line="13" data-uid="lnk13" id="link_Ataque_Arma"><path codeLine="13" d="M176.1686,289.2207 C177.3386,306.9007 177.75,313.13 178.91,330.79" fill="none" id="Ataque-backto-Arma" style="stroke:#181818;stroke-width:1;"/><polygon fill="none" points="174.98,271.26,170.1817,289.6169,182.1555,288.8245,174.98,271.26" style="stroke:#181818;stroke-width:1;"/></g><!--reverse link Ataque to Mordida--><g class="link" data-entity-1="Ataque" data-entity-2="Mordida" data-source-line="14" data-uid="lnk14" id="link_Ataque_Mordida"><path codeLine="14" d="M136.351,283.7526 C118.011,301.4326 105.86,313.13 87.53,330.79" fill="none" id="Ataque-backto-Mordida" style="stroke:#181818;stroke-width:1;"/><polygon fill="none" points="149.31,271.26,132.1868,279.433,140.5152,288.0723,149.31,271.26" style="stroke:#181818;stroke-width:1;"/></g><!--reverse link Guerrero to Arma--><g class="link" data-entity-1="Guerrero" data-entity-2="Arma" data-source-line="16" data-uid="lnk15" id="link_Guerrero_Arma"><path codeLine="16" d="M262.1331,279.3567 C242.7931,297.0367 225.17,313.13 205.84,330.79" fill="none" id="Guerrero-backto-Arma" style="stroke:#181818;stroke-width:1;"/><polygon fill="none" points="270.99,271.26,263.8627,272.356,262.1331,279.3567,269.2605,278.2606,270.99,271.26" style="stroke:#181818;stroke-width:1;"/><text fill="#000000" font-family="sans-serif" font-size="13" lengthAdjust="spacing" textLength="8.271" x="255.842" y="291.0846">1</text><text fill="#000000" font-family="sans-serif" font-size="13" lengthAdjust="spacing" textLength="36.5625" x="171.8071" y="319.7482">many</text></g><!--reverse link Guerrero to Pocion--><g class="link" data-entity-1="Guerrero" data-entity-2="Pocion" data-source-line="17" data-uid="lnk16" id="link_Guerrero_Pocion"><path codeLine="17" d="M296.45,283.26 C296.45,300.94 296.45,313.13 296.45,330.79" fill="none" id="Guerrero-backto-Pocion" style="stroke:#181818;stroke-width:1;"/><polygon fill="#181818" points="296.45,271.26,292.45,277.26,296.45,283.26,300.45,277.26,296.45,271.26" style="stroke:#181818;stroke-width:1;"/><text fill="#000000" font-family="sans-serif" font-size="13" lengthAdjust="spacing" textLength="8.271" x="287.5079" y="291.0846">1</text><text fill="#000000" font-family="sans-serif" font-size="13" lengthAdjust="spacing" textLength="8.271" x="287.4606" y="319.7482">1</text></g><!--reverse link Vampiro to Mordida--><g class="link" data-entity-1="Vampiro" data-entity-2="Mordida" data-source-line="18" data-uid="lnk17" id="link_Vampiro_Mordida"><path codeLine="18" d="M56.0955,283.1962 C57.9255,300.8762 59.2,313.13 61.04,330.79" fill="none" id="Vampiro-backto-Mordida" style="stroke:#181818;stroke-width:1;"/><polygon fill="none" points="54.86,271.26,51.499,277.6399,56.0955,283.1962,59.4565,276.8163,54.86,271.26" style="stroke:#181818;stroke-width:1;"/><text fill="#000000" font-family="sans-serif" font-size="13" lengthAdjust="spacing" textLength="8.271" x="46.5065" y="291.0846">1</text><text fill="#000000" font-family="sans-serif" font-size="13" lengthAdjust="spacing" textLength="36.5625" x="19.8842" y="319.7482">many</text></g><!--reverse link Batalla to Guerrero--><g class="link" data-entity-1="Batalla" data-entity-2="Guerrero" data-source-line="20" data-uid="lnk18" id="link_Batalla_Guerrero"><path codeLine="20" d="M157.6896,168.5863 C189.3096,186.2263 222.51,204.75 254.44,222.56" fill="none" id="Batalla-backto-Guerrero" style="stroke:#181818;stroke-width:1;"/><polygon fill="#181818" points="147.21,162.74,150.501,169.1563,157.6896,168.5863,154.3985,162.17,147.21,162.74" style="stroke:#181818;stroke-width:1;"/><text fill="#000000" font-family="sans-serif" font-size="13" lengthAdjust="spacing" textLength="8.271" x="149.127" y="183.2205">1</text><text fill="#000000" font-family="sans-serif" font-size="13" lengthAdjust="spacing" textLength="8.271" x="235.2579" y="211.8577">1</text></g><!--reverse link Batalla to Vampiro--><g class="link" data-entity-1="Batalla" data-entity-2="Vampiro" data-source-line="21" data-uid="lnk19" id="link_Batalla_Vampiro"><path codeLine="21" d="M89.1514,173.9517 C80.1414,191.6317 73.27,205.13 64.27,222.79" fill="none" id="Batalla-backto-Vampiro" style="stroke:#181818;stroke-width:1;"/><polygon fill="#181818" points="94.6,163.26,88.3118,166.7896,89.1514,173.9517,95.4396,170.4221,94.6,163.26" style="stroke:#181818;stroke-width:1;"/><text fill="#000000" font-family="sans-serif" font-size="13" lengthAdjust="spacing" textLength="8.271" x="82.7708" y="183.0846">1</text><text fill="#000000" font-family="sans-serif" font-size="13" lengthAdjust="spacing" textLength="8.271" x="58.3097" y="211.7482">1</text></g><!--link JuegoVampiros to Batalla--><g class="link" data-entity-1="JuegoVampiros" data-entity-2="Batalla" data-source-line="23" data-uid="lnk20" id="link_JuegoVampiros_Batalla"><path codeLine="23" d="M106.45,55.26 C106.45,72.94 106.45,91.13 106.45,108.79" fill="none" id="JuegoVampiros-to-Batalla" style="stroke:#181818;stroke-width:1;stroke-dasharray:7.0,7.0;"/><polygon fill="#181818" points="106.45,114.79,110.45,105.79,106.45,109.79,102.45,105.79,106.45,114.79" style="stroke:#181818;stroke-width:1;"/></g><!--link JuegoVampiros to Guerrero--><g class="link" data-entity-1="JuegoVampiros" data-entity-2="Guerrero" data-source-line="24" data-uid="lnk21" id="link_JuegoVampiros_Guerrero"><path codeLine="24" d="M175.31,41.98 C219.19,52.28 272.8,73.11 300.45,115 C321.75,147.29 314.7005,188.706 306.4105,216.756" fill="none" id="JuegoVampiros-to-Guerrero" style="stroke:#181818;stroke-width:1;stroke-dasharray:7.0,7.0;"/><polygon fill="#181818" points="304.71,222.51,311.0968,215.0127,306.1271,217.715,303.4248,212.7454,304.71,222.51" style="stroke:#181818;stroke-width:1;"/></g><!--link JuegoVampiros to Vampiro--><g class="link" data-entity-1="JuegoVampiros" data-entity-2="Vampiro" data-source-line="25" data-uid="lnk22" id="link_JuegoVampiros_Vampiro"><path codeLine="25" d="M84.3,55.27 C71.08,70.84 55.52,92.53 48.45,115 C37.04,151.25 41.122,190.0513 46.092,216.7513" fill="none" id="JuegoVampiros-to-Vampiro" style="stroke:#181818;stroke-width:1;stroke-dasharray:7.0,7.0;"/><polygon fill="#181818" points="47.19,222.65,49.4755,213.07,46.275,217.7344,41.6106,214.534,47.19,222.65" style="stroke:#181818;stroke-width:1;"/></g><!--SRC=[RL112i8m4Bpd5I57eGNl8jIB80WzUL_J89Mcgvlq8FXugzcDjlMKp4nsPZPm3f70Hcqx247NZWBsS7KguVtWY1mXmnFuMvjH5U4-oCkAFF3rYDIqZQ0QROizWnr4w3gH3eEx87i6fNAutZoBufizuwL4Ya_S9_sNa0vANBHP6usZOZpq3vCc9kBgBOud5-QO-LmsvbKcexdoFr5wgydQkYot-LkMIdPSIWnU]--></g></svg>